<?xml version="1.0" encoding="utf-8"?>
<!-- Generator: Adobe Illustrator 16.0.3, SVG Export Plug-In . SVG Version: 6.00 Build 0)  -->
<!DOCTYPE svg PUBLIC "-//W3C//DTD SVG 1.1//EN" "http://www.w3.org/Graphics/SVG/1.1/DTD/svg11.dtd" [
	<!ENTITY st0 "enable-background:new    ;">
	<!ENTITY st1 "fill:#6BBE66;">
]>
<svg version="1.1" id="Layer_1" xmlns="http://www.w3.org/2000/svg" xmlns:xlink="http://www.w3.org/1999/xlink" x="0px" y="0px"
	 width="50px" height="50px" viewBox="0 0 50 50" style="enable-background:new 0 0 50 50;" xml:space="preserve">
<g id="coniferoustree_x5F_bd_24_">
	<path style="&st1;" d="M9.237793,41.392578c-0.390137-0.071289-0.817871-0.762695-0.817871-0.762695l0.040039,1.092773
		c-0.047363,0.176758-0.291992,0.040039-0.291992,0.040039l0.024902-1.032227c-0.313965,0.494141-0.78418,0.693359-0.78418,0.693359
		c-0.142578-0.012695-0.036621-0.09375-0.036621-0.09375c0.730469-0.697266,0.783691-0.985352,0.783691-0.985352
		c0.083008-0.287109,0.056152-0.803711,0.056152-0.803711c-0.361328,0.522461-0.601074,0.557617-0.601074,0.557617
		c-0.064941,0.014648-0.090332,0-0.090332,0c-0.064941-0.043945,0.043457-0.140625,0.043457-0.140625
		c0.092773-0.078125,0.173828-0.151367,0.242676-0.223633c0.005859-0.005859,0.009277-0.008789,0.012207-0.012695
		c-0.00293,0.00293-0.007324,0.005859-0.013184,0.012695c0.35791-0.368164,0.398926-0.617188,0.398926-0.617188l0.083984-0.506836
		c0,0,0.020996-0.06543,0.040039,0l0.064941,0.533203c0.083984,0.257813,0.588379,0.787109,0.588379,0.787109
		c0.067871,0.064453-0.025391,0.0625-0.025391,0.0625c-0.282715-0.041992-0.543945-0.458984-0.543945-0.458984l0.038086,0.842773
		c0.132813,0.34375,0.787109,0.831055,0.787109,0.831055C9.411133,41.292969,9.237793,41.392578,9.237793,41.392578z
		 M7.585938,39.939453c-0.007324,0.005859-0.016113,0.011719-0.021973,0.018555
		C7.563965,39.958008,7.572754,39.951172,7.585938,39.939453z M7.666504,39.864258
		c-0.031738,0.02832-0.062988,0.056641-0.080566,0.075195C7.615723,39.911133,7.641602,39.886719,7.666504,39.864258z
		 M7.734863,39.798828c-0.019043,0.019531-0.043945,0.041016-0.068359,0.06543
		C7.688965,39.84375,7.712891,39.821289,7.734863,39.798828z M7.787598,39.751953
		c-0.015625,0.016602-0.033691,0.032227-0.052734,0.046875C7.753906,39.780273,7.771973,39.765625,7.787598,39.751953z
		 M7.787598,39.751953c0.006348-0.005859,0.012207-0.011719,0.019043-0.018555
		C7.799805,39.740234,7.793945,39.746094,7.787598,39.751953z M7.855957,39.6875
		c-0.003418,0.005859-0.012207,0.011719-0.019043,0.017578C7.84668,39.697266,7.852539,39.69043,7.855957,39.6875z"/>
</g>
<g id="coniferoustree_x5F_bd_25_" style="&st0;">
	<path style="&st1;" d="M11.906738,39.121094c-0.390137-0.071289-0.817871-0.762695-0.817871-0.762695l0.040039,1.092773
		c-0.047363,0.176758-0.291992,0.040039-0.291992,0.040039l0.024902-1.032227c-0.313965,0.494141-0.78418,0.693359-0.78418,0.693359
		c-0.142578-0.012695-0.036621-0.09375-0.036621-0.09375c0.730469-0.697266,0.783691-0.985352,0.783691-0.985352
		c0.083008-0.287109,0.056152-0.803711,0.056152-0.803711c-0.361328,0.522461-0.601074,0.557617-0.601074,0.557617
		c-0.064941,0.014648-0.090332,0-0.090332,0c-0.064941-0.043945,0.043457-0.140625,0.043457-0.140625
		c0.092773-0.078125,0.173828-0.151367,0.242676-0.223633c0.005859-0.005859,0.009277-0.008789,0.012207-0.012695
		c-0.00293,0.00293-0.007324,0.005859-0.013184,0.012695c0.35791-0.368164,0.398926-0.617188,0.398926-0.617188l0.083984-0.506836
		c0,0,0.020996-0.06543,0.040039,0L11.0625,36.87207c0.083984,0.257813,0.588379,0.787109,0.588379,0.787109
		c0.067871,0.064453-0.025391,0.0625-0.025391,0.0625c-0.282715-0.041992-0.543945-0.458984-0.543945-0.458984l0.038086,0.842773
		c0.132813,0.34375,0.787109,0.831055,0.787109,0.831055C12.080078,39.021484,11.906738,39.121094,11.906738,39.121094z
		 M10.254883,37.667969c-0.007324,0.005859-0.016113,0.011719-0.021973,0.018555
		C10.23291,37.686523,10.241699,37.679688,10.254883,37.667969z M10.335449,37.592773
		c-0.031738,0.02832-0.062988,0.056641-0.080566,0.075195C10.284668,37.639648,10.310547,37.615234,10.335449,37.592773z
		 M10.403809,37.527344c-0.019043,0.019531-0.043945,0.041016-0.068359,0.06543
		C10.35791,37.572266,10.381836,37.549805,10.403809,37.527344z M10.456543,37.480469
		c-0.015625,0.016602-0.033691,0.032227-0.052734,0.046875C10.422852,37.508789,10.440918,37.494141,10.456543,37.480469z
		 M10.456543,37.480469c0.006348-0.005859,0.012207-0.011719,0.019043-0.018555
		C10.46875,37.46875,10.462891,37.474609,10.456543,37.480469z M10.524902,37.416016
		c-0.003418,0.005859-0.012207,0.011719-0.019043,0.017578C10.515625,37.425781,10.521484,37.418945,10.524902,37.416016z"/>
</g>
<g id="coniferoustree_x5F_bd_26_" style="&st0;">
	<path style="&st1;" d="M7.482422,38.357422c-0.390137-0.071289-0.817871-0.762695-0.817871-0.762695L6.70459,38.6875
		c-0.047363,0.176758-0.291992,0.040039-0.291992,0.040039L6.4375,37.695313c-0.313965,0.494141-0.78418,0.693359-0.78418,0.693359
		c-0.142578-0.012695-0.036621-0.09375-0.036621-0.09375c0.730469-0.697266,0.783691-0.985352,0.783691-0.985352
		c0.083008-0.287109,0.056152-0.803711,0.056152-0.803711c-0.361328,0.522461-0.601074,0.557617-0.601074,0.557617
		c-0.064941,0.014648-0.090332,0-0.090332,0c-0.064941-0.043945,0.043457-0.140625,0.043457-0.140625
		c0.092773-0.078125,0.173828-0.151367,0.242676-0.223633c0.005859-0.005859,0.009277-0.008789,0.012207-0.012695
		c-0.00293,0.00293-0.007324,0.005859-0.013184,0.012695c0.35791-0.368164,0.398926-0.617188,0.398926-0.617188l0.083984-0.506836
		c0,0,0.020996-0.06543,0.040039,0l0.064941,0.533203c0.083984,0.257813,0.588379,0.787109,0.588379,0.787109
		c0.067871,0.064453-0.025391,0.0625-0.025391,0.0625c-0.282715-0.041992-0.543945-0.458984-0.543945-0.458984l0.038086,0.842773
		c0.132813,0.34375,0.787109,0.831055,0.787109,0.831055C7.655762,38.257813,7.482422,38.357422,7.482422,38.357422z
		 M5.830566,36.904297c-0.007324,0.005859-0.016113,0.011719-0.021973,0.018555
		C5.808594,36.922852,5.817383,36.916016,5.830566,36.904297z M5.911133,36.829102
		c-0.031738,0.02832-0.062988,0.056641-0.080566,0.075195C5.860352,36.875977,5.88623,36.851563,5.911133,36.829102z
		 M5.979492,36.763672c-0.019043,0.019531-0.043945,0.041016-0.068359,0.06543
		C5.933594,36.808594,5.95752,36.786133,5.979492,36.763672z M6.032227,36.716797
		c-0.015625,0.016602-0.033691,0.032227-0.052734,0.046875C5.998535,36.745117,6.016602,36.730469,6.032227,36.716797z
		 M6.032227,36.716797c0.006348-0.005859,0.012207-0.011719,0.019043-0.018555
		C6.044434,36.705078,6.038574,36.710938,6.032227,36.716797z M6.100586,36.652344
		c-0.003418,0.005859-0.012207,0.011719-0.019043,0.017578C6.091309,36.662109,6.097168,36.655273,6.100586,36.652344z"/>
</g>
<g id="coniferoustree_x5F_bd_17_" style="&st0;">
	<path style="&st1;" d="M27.418945,36.117188c-0.390625-0.071289-0.818359-0.762695-0.818359-0.762695l0.040039,1.092773
		c-0.046875,0.176758-0.291016,0.040039-0.291016,0.040039l0.024414-1.032227c-0.313477,0.494141-0.78418,0.693359-0.78418,0.693359
		c-0.142578-0.012695-0.037109-0.09375-0.037109-0.09375c0.731445-0.697266,0.78418-0.985352,0.78418-0.985352
		c0.083008-0.287109,0.056641-0.803711,0.056641-0.803711c-0.361328,0.522461-0.601563,0.557617-0.601563,0.557617
		c-0.064453,0.014648-0.089844,0-0.089844,0c-0.06543-0.043945,0.042969-0.140625,0.042969-0.140625
		c0.092773-0.078125,0.173828-0.151367,0.243164-0.223633C25.994141,34.453125,25.99707,34.450195,26,34.446289
		c-0.00293,0.00293-0.006836,0.005859-0.012695,0.012695c0.357422-0.368164,0.398438-0.617188,0.398438-0.617188l0.083984-0.506836
		c0,0,0.021484-0.06543,0.040039,0l0.064453,0.533203c0.083984,0.257813,0.588867,0.787109,0.588867,0.787109
		c0.067383,0.064453-0.025391,0.0625-0.025391,0.0625c-0.283203-0.041992-0.543945-0.458984-0.543945-0.458984l0.038086,0.842773
		c0.132813,0.34375,0.787109,0.831055,0.787109,0.831055C27.592773,36.017578,27.418945,36.117188,27.418945,36.117188z
		 M25.767578,34.664063c-0.007813,0.005859-0.016602,0.011719-0.022461,0.018555
		C25.745117,34.682617,25.753906,34.675781,25.767578,34.664063z M25.847656,34.588867
		c-0.03125,0.02832-0.0625,0.056641-0.080078,0.075195C25.796875,34.635742,25.823242,34.611328,25.847656,34.588867z
		 M25.916016,34.523438c-0.018555,0.019531-0.043945,0.041016-0.068359,0.06543
		C25.870117,34.568359,25.894531,34.545898,25.916016,34.523438z M25.96875,34.476563
		c-0.015625,0.016602-0.033203,0.032227-0.052734,0.046875C25.935547,34.504883,25.953125,34.490234,25.96875,34.476563z
		 M25.96875,34.476563c0.006836-0.005859,0.012695-0.011719,0.019531-0.018555
		C25.981445,34.464844,25.975586,34.470703,25.96875,34.476563z M26.037109,34.412109
		c-0.00293,0.005859-0.011719,0.011719-0.018555,0.017578C26.02832,34.421875,26.03418,34.415039,26.037109,34.412109z"/>
</g>
<g id="coniferoustree_x5F_bd_15_" style="&st0;">
	<path style="&st1;" d="M30.086914,33.845703c-0.390625-0.071289-0.818359-0.762695-0.818359-0.762695l0.040039,1.092773
		c-0.046875,0.176758-0.291016,0.040039-0.291016,0.040039l0.024414-1.032227c-0.313477,0.494141-0.78418,0.693359-0.78418,0.693359
		c-0.142578-0.012695-0.037109-0.09375-0.037109-0.09375c0.731445-0.697266,0.78418-0.985352,0.78418-0.985352
		c0.083008-0.287109,0.056641-0.803711,0.056641-0.803711c-0.361328,0.522461-0.601563,0.557617-0.601563,0.557617
		c-0.064453,0.014648-0.089844,0-0.089844,0c-0.06543-0.043945,0.042969-0.140625,0.042969-0.140625
		c0.092773-0.078125,0.173828-0.151367,0.243164-0.223633c0.005859-0.005859,0.008789-0.008789,0.011719-0.012695
		c-0.00293,0.00293-0.006836,0.005859-0.012695,0.012695c0.357422-0.368164,0.398438-0.617188,0.398438-0.617188l0.083984-0.506836
		c0,0,0.021484-0.06543,0.040039,0l0.064453,0.533203c0.083984,0.257813,0.588867,0.787109,0.588867,0.787109
		c0.067383,0.064453-0.025391,0.0625-0.025391,0.0625c-0.283203-0.041992-0.543945-0.458984-0.543945-0.458984l0.038086,0.842773
		c0.132813,0.34375,0.787109,0.831055,0.787109,0.831055C30.260742,33.746094,30.086914,33.845703,30.086914,33.845703z
		 M28.435547,32.392578c-0.007813,0.005859-0.016602,0.011719-0.022461,0.018555
		C28.413086,32.411133,28.421875,32.404297,28.435547,32.392578z M28.515625,32.317383
		c-0.03125,0.02832-0.0625,0.056641-0.080078,0.075195C28.464844,32.364258,28.491211,32.339844,28.515625,32.317383z
		 M28.583984,32.251953c-0.018555,0.019531-0.043945,0.041016-0.068359,0.06543
		C28.538086,32.296875,28.5625,32.274414,28.583984,32.251953z M28.636719,32.205078
		c-0.015625,0.016602-0.033203,0.032227-0.052734,0.046875C28.603516,32.233398,28.621094,32.21875,28.636719,32.205078z
		 M28.636719,32.205078c0.006836-0.005859,0.012695-0.011719,0.019531-0.018555
		C28.649414,32.193359,28.643555,32.199219,28.636719,32.205078z M28.705078,32.140625
		c-0.00293,0.005859-0.011719,0.011719-0.018555,0.017578C28.696289,32.150391,28.702148,32.143555,28.705078,32.140625z"/>
</g>
<g id="coniferoustree_x5F_bd_16_" style="&st0;">
	<path style="&st1;" d="M25.663086,33.082031c-0.389648-0.071289-0.817383-0.762695-0.817383-0.762695l0.040039,1.092773
		c-0.047363,0.176758-0.291992,0.040039-0.291992,0.040039l0.024902-1.032227c-0.313965,0.494141-0.78418,0.693359-0.78418,0.693359
		c-0.142578-0.012695-0.036621-0.09375-0.036621-0.09375c0.730469-0.697266,0.783691-0.985352,0.783691-0.985352
		c0.083008-0.287109,0.056152-0.803711,0.056152-0.803711c-0.361328,0.522461-0.601074,0.557617-0.601074,0.557617
		c-0.064941,0.014648-0.090332,0-0.090332,0c-0.064941-0.043945,0.043457-0.140625,0.043457-0.140625
		c0.092773-0.078125,0.173828-0.151367,0.242676-0.223633c0.005859-0.005859,0.009277-0.008789,0.012207-0.012695
		c-0.00293,0.00293-0.007324,0.005859-0.013184,0.012695c0.35791-0.368164,0.398926-0.617188,0.398926-0.617188l0.083984-0.506836
		c0,0,0.020996-0.06543,0.040039,0l0.064941,0.533203c0.083984,0.257813,0.588379,0.787109,0.588379,0.787109
		c0.067871,0.064453-0.025391,0.0625-0.025391,0.0625c-0.282715-0.041992-0.543945-0.458984-0.543945-0.458984l0.038086,0.842773
		c0.132813,0.34375,0.786621,0.831055,0.786621,0.831055C25.836914,32.982422,25.663086,33.082031,25.663086,33.082031z
		 M24.011719,31.628906c-0.007324,0.005859-0.016113,0.011719-0.021973,0.018555
		C23.989746,31.647461,23.998535,31.640625,24.011719,31.628906z M24.092285,31.553711
		c-0.031738,0.02832-0.062988,0.056641-0.080566,0.075195C24.041504,31.600586,24.067383,31.576172,24.092285,31.553711z
		 M24.160645,31.488281c-0.019043,0.019531-0.043945,0.041016-0.068359,0.06543
		C24.114746,31.533203,24.138672,31.510742,24.160645,31.488281z M24.213379,31.441406
		c-0.015625,0.016602-0.033691,0.032227-0.052734,0.046875C24.179688,31.469727,24.197754,31.455078,24.213379,31.441406z
		 M24.213379,31.441406c0.006348-0.005859,0.012207-0.011719,0.019043-0.018555
		C24.225586,31.429688,24.219727,31.435547,24.213379,31.441406z M24.281738,31.376953
		c-0.003418,0.005859-0.012207,0.011719-0.019043,0.017578C24.272461,31.386719,24.27832,31.379883,24.281738,31.376953z"/>
</g>
<g id="coniferoustree_x5F_bd_27_" style="&st0;">
	<path style="&st1;" d="M7.029785,27.435547c-0.390137-0.071289-0.817871-0.762695-0.817871-0.762695l0.040039,1.092773
		c-0.047363,0.176758-0.291992,0.040039-0.291992,0.040039l0.024902-1.032227c-0.313965,0.494141-0.78418,0.693359-0.78418,0.693359
		c-0.142578-0.012695-0.036621-0.09375-0.036621-0.09375c0.730469-0.697266,0.783691-0.985352,0.783691-0.985352
		c0.083008-0.287109,0.056152-0.803711,0.056152-0.803711c-0.361328,0.522461-0.601074,0.557617-0.601074,0.557617
		c-0.064941,0.014648-0.090332,0-0.090332,0c-0.064941-0.043945,0.043457-0.140625,0.043457-0.140625
		c0.092773-0.078125,0.173828-0.151367,0.242676-0.223633c0.005859-0.005859,0.009277-0.008789,0.012207-0.012695
		c-0.00293,0.00293-0.007324,0.005859-0.013184,0.012695c0.35791-0.368164,0.398926-0.616699,0.398926-0.616699l0.083984-0.506836
		c0,0,0.020996-0.06543,0.040039,0l0.064941,0.533203c0.083984,0.257324,0.588379,0.786621,0.588379,0.786621
		c0.067871,0.064453-0.025391,0.0625-0.025391,0.0625C6.46582,25.994141,6.20459,25.577148,6.20459,25.577148l0.038086,0.842773
		c0.132813,0.34375,0.787109,0.831055,0.787109,0.831055C7.203125,27.335938,7.029785,27.435547,7.029785,27.435547z
		 M5.37793,25.982422c-0.007324,0.005859-0.016113,0.011719-0.021973,0.018555
		C5.355957,26.000977,5.364746,25.994141,5.37793,25.982422z M5.458496,25.907227
		c-0.031738,0.02832-0.062988,0.056641-0.080566,0.075195C5.407715,25.954102,5.433594,25.929688,5.458496,25.907227z
		 M5.526855,25.841797c-0.019043,0.019531-0.043945,0.041016-0.068359,0.06543
		C5.480957,25.886719,5.504883,25.864258,5.526855,25.841797z M5.57959,25.794922
		c-0.015625,0.016602-0.033691,0.032227-0.052734,0.046875C5.545898,25.823242,5.563965,25.808594,5.57959,25.794922z
		 M5.57959,25.794922c0.006348-0.005859,0.012207-0.011719,0.019043-0.018555
		C5.591797,25.783203,5.585938,25.789063,5.57959,25.794922z M5.647949,25.730469
		c-0.003418,0.005859-0.012207,0.011719-0.019043,0.017578C5.638672,25.740234,5.644531,25.733398,5.647949,25.730469z"/>
</g>
<g id="coniferoustree_x5F_bd_28_" style="&st0;">
	<path style="&st1;" d="M9.69873,25.164063c-0.390137-0.071289-0.817871-0.762207-0.817871-0.762207l0.040039,1.092285
		c-0.047363,0.176758-0.291992,0.040039-0.291992,0.040039l0.024902-1.031738c-0.313965,0.493652-0.78418,0.692871-0.78418,0.692871
		c-0.142578-0.012695-0.036621-0.09375-0.036621-0.09375c0.730469-0.696777,0.783691-0.984863,0.783691-0.984863
		c0.083008-0.287109,0.056152-0.803711,0.056152-0.803711c-0.361328,0.522461-0.601074,0.557617-0.601074,0.557617
		c-0.064941,0.014648-0.090332,0-0.090332,0C7.916504,23.82666,8.024902,23.72998,8.024902,23.72998
		c0.092773-0.078125,0.173828-0.151367,0.242676-0.223633c0.005859-0.005859,0.009277-0.008789,0.012207-0.012695
		c-0.00293,0.00293-0.007324,0.005859-0.013184,0.012695c0.35791-0.368164,0.398926-0.616699,0.398926-0.616699l0.083984-0.506836
		c0,0,0.020996-0.06543,0.040039,0l0.064941,0.533203c0.083984,0.257324,0.588379,0.786621,0.588379,0.786621
		c0.067871,0.064453-0.025391,0.0625-0.025391,0.0625c-0.282715-0.041992-0.543945-0.458984-0.543945-0.458984l0.038086,0.842773
		c0.132813,0.34375,0.787109,0.830566,0.787109,0.830566C9.87207,25.064453,9.69873,25.164063,9.69873,25.164063z
		 M8.046875,23.711426c-0.007324,0.005859-0.016113,0.011719-0.021973,0.018555
		C8.024902,23.72998,8.033691,23.723145,8.046875,23.711426z M8.127441,23.63623
		c-0.031738,0.02832-0.062988,0.056641-0.080566,0.075195C8.07666,23.683105,8.102539,23.658691,8.127441,23.63623z
		 M8.195801,23.570801c-0.019043,0.019531-0.043945,0.041016-0.068359,0.06543
		C8.149902,23.615723,8.173828,23.593262,8.195801,23.570801z M8.248535,23.523926
		c-0.015625,0.016602-0.033691,0.032227-0.052734,0.046875C8.214844,23.552246,8.23291,23.537598,8.248535,23.523926z
		 M8.248535,23.523926c0.006348-0.005859,0.012207-0.011719,0.019043-0.018555
		C8.260742,23.512207,8.254883,23.518066,8.248535,23.523926z M8.316895,23.459473
		c-0.003418,0.005859-0.012207,0.011719-0.019043,0.017578C8.307617,23.469238,8.313477,23.462402,8.316895,23.459473z"/>
</g>
<g id="coniferoustree_x5F_bd_29_" style="&st0;">
	<path style="&st1;" d="M5.274414,24.400391c-0.390137-0.071289-0.817871-0.762207-0.817871-0.762207l0.040039,1.092285
		c-0.047363,0.176758-0.291992,0.040039-0.291992,0.040039l0.024902-1.031738c-0.313965,0.493652-0.78418,0.692871-0.78418,0.692871
		c-0.142578-0.012695-0.036621-0.09375-0.036621-0.09375c0.730469-0.696777,0.783691-0.984863,0.783691-0.984863
		c0.083008-0.287109,0.056152-0.803711,0.056152-0.803711c-0.361328,0.522461-0.601074,0.557617-0.601074,0.557617
		c-0.064941,0.014648-0.090332,0-0.090332,0c-0.064941-0.043945,0.043457-0.140625,0.043457-0.140625
		c0.092773-0.078125,0.173828-0.151367,0.242676-0.223633c0.005859-0.005859,0.009277-0.008789,0.012207-0.012695
		c-0.00293,0.00293-0.007324,0.005859-0.013184,0.012695c0.35791-0.368164,0.398926-0.616699,0.398926-0.616699l0.083984-0.506836
		c0,0,0.020996-0.06543,0.040039,0l0.064941,0.533203c0.083984,0.257324,0.588379,0.786621,0.588379,0.786621
		c0.067871,0.064453-0.025391,0.0625-0.025391,0.0625c-0.282715-0.041992-0.543945-0.458984-0.543945-0.458984l0.038086,0.842773
		c0.132813,0.34375,0.787109,0.830566,0.787109,0.830566C5.447754,24.300781,5.274414,24.400391,5.274414,24.400391z
		 M3.622559,22.947754c-0.007324,0.005859-0.016113,0.011719-0.021973,0.018555
		C3.600586,22.966309,3.609375,22.959473,3.622559,22.947754z M3.703125,22.872559
		c-0.031738,0.02832-0.062988,0.056641-0.080566,0.075195C3.652344,22.919434,3.678223,22.89502,3.703125,22.872559z
		 M3.771484,22.807129c-0.019043,0.019531-0.043945,0.041016-0.068359,0.06543
		C3.725586,22.852051,3.749512,22.82959,3.771484,22.807129z M3.824219,22.760254
		c-0.015625,0.016602-0.033691,0.032227-0.052734,0.046875C3.790527,22.788574,3.808594,22.773926,3.824219,22.760254z
		 M3.824219,22.760254c0.006348-0.005859,0.012207-0.011719,0.019043-0.018555
		C3.836426,22.748535,3.830566,22.754395,3.824219,22.760254z M3.892578,22.695801
		C3.88916,22.70166,3.880371,22.70752,3.873535,22.713379C3.883301,22.705566,3.88916,22.69873,3.892578,22.695801z"/>
</g>
<g id="coniferoustree_x5F_bd_30_" style="&st0;">
	<path style="&st1;" d="M11.422363,17.025391c-0.390137-0.071289-0.817871-0.762207-0.817871-0.762207l0.040039,1.092285
		c-0.047363,0.176758-0.291992,0.040039-0.291992,0.040039l0.024902-1.031738c-0.313965,0.493652-0.78418,0.692871-0.78418,0.692871
		c-0.142578-0.012695-0.036621-0.09375-0.036621-0.09375c0.730469-0.696777,0.783691-0.984863,0.783691-0.984863
		c0.083008-0.287109,0.056152-0.803711,0.056152-0.803711c-0.361328,0.522461-0.601074,0.557617-0.601074,0.557617
		c-0.064941,0.014648-0.090332,0-0.090332,0c-0.064941-0.043945,0.043457-0.140625,0.043457-0.140625
		c0.092773-0.078125,0.173828-0.151367,0.242676-0.223633c0.005859-0.005859,0.009277-0.008789,0.012207-0.012695
		c-0.00293,0.00293-0.007324,0.005859-0.013184,0.012695c0.35791-0.368164,0.398926-0.616699,0.398926-0.616699l0.083984-0.506836
		c0,0,0.020996-0.06543,0.040039,0l0.064941,0.533203c0.083984,0.257324,0.588379,0.786621,0.588379,0.786621
		c0.067871,0.064453-0.025391,0.0625-0.025391,0.0625c-0.282715-0.041992-0.543945-0.458984-0.543945-0.458984l0.038086,0.842773
		c0.132813,0.34375,0.787109,0.830566,0.787109,0.830566C11.595703,16.925781,11.422363,17.025391,11.422363,17.025391z
		 M9.770508,15.572754c-0.007324,0.005859-0.016113,0.011719-0.021973,0.018555
		C9.748535,15.591309,9.757324,15.584473,9.770508,15.572754z M9.851074,15.497559
		c-0.031738,0.02832-0.062988,0.056641-0.080566,0.075195C9.800293,15.544434,9.826172,15.52002,9.851074,15.497559z
		 M9.919434,15.432129c-0.019043,0.019531-0.043945,0.041016-0.068359,0.06543
		C9.873535,15.477051,9.897461,15.45459,9.919434,15.432129z M9.972168,15.385254
		c-0.015625,0.016602-0.033691,0.032227-0.052734,0.046875C9.938477,15.413574,9.956543,15.398926,9.972168,15.385254z
		 M9.972168,15.385254c0.006348-0.005859,0.012207-0.011719,0.019043-0.018555
		C9.984375,15.373535,9.978516,15.379395,9.972168,15.385254z M10.040527,15.320801
		c-0.003418,0.005859-0.012207,0.011719-0.019043,0.017578C10.03125,15.330566,10.037109,15.32373,10.040527,15.320801z"/>
</g>
<g id="coniferoustree_x5F_bd_31_" style="&st0;">
	<path style="&st1;" d="M14.09082,14.753906c-0.390137-0.071289-0.817871-0.762207-0.817871-0.762207l0.040039,1.092285
		c-0.047363,0.176758-0.291992,0.040039-0.291992,0.040039l0.024902-1.031738c-0.313965,0.493652-0.78418,0.692871-0.78418,0.692871
		c-0.142578-0.012695-0.036621-0.09375-0.036621-0.09375c0.730469-0.696777,0.783691-0.984863,0.783691-0.984863
		c0.083008-0.287109,0.056152-0.803711,0.056152-0.803711c-0.361328,0.522461-0.601074,0.557617-0.601074,0.557617
		c-0.064941,0.014648-0.090332,0-0.090332,0c-0.064941-0.043945,0.043457-0.140625,0.043457-0.140625
		c0.092773-0.078125,0.173828-0.151367,0.242676-0.223633c0.005859-0.005859,0.009277-0.008789,0.012207-0.012695
		c-0.00293,0.00293-0.007324,0.005859-0.013184,0.012695c0.35791-0.368164,0.398926-0.616699,0.398926-0.616699l0.083984-0.506836
		c0,0,0.020996-0.06543,0.040039,0l0.064941,0.533203c0.083984,0.257324,0.588379,0.786621,0.588379,0.786621
		c0.067871,0.064453-0.025391,0.0625-0.025391,0.0625c-0.282715-0.041992-0.543945-0.458984-0.543945-0.458984l0.038086,0.842773
		c0.132813,0.34375,0.787109,0.830566,0.787109,0.830566C14.26416,14.654297,14.09082,14.753906,14.09082,14.753906z
		 M12.438965,13.30127c-0.007324,0.005859-0.016113,0.011719-0.021973,0.018555
		C12.416992,13.319824,12.425781,13.312988,12.438965,13.30127z M12.519531,13.226074
		c-0.031738,0.02832-0.062988,0.056641-0.080566,0.075195C12.46875,13.272949,12.494629,13.248535,12.519531,13.226074z
		 M12.587891,13.160645c-0.019043,0.019531-0.043945,0.041016-0.068359,0.06543
		C12.541992,13.205566,12.565918,13.183105,12.587891,13.160645z M12.640625,13.11377
		c-0.015625,0.016602-0.033691,0.032227-0.052734,0.046875C12.606934,13.14209,12.625,13.127441,12.640625,13.11377z
		 M12.640625,13.11377c0.006348-0.005859,0.012207-0.011719,0.019043-0.018555
		C12.652832,13.102051,12.646973,13.10791,12.640625,13.11377z M12.708984,13.049316
		c-0.003418,0.005859-0.012207,0.011719-0.019043,0.017578C12.699707,13.059082,12.705566,13.052246,12.708984,13.049316z"/>
</g>
<g id="coniferoustree_x5F_bd_32_" style="&st0;">
	<path style="&st1;" d="M9.66748,13.990234c-0.390137-0.071289-0.817871-0.762207-0.817871-0.762207l0.040039,1.092285
		c-0.047363,0.176758-0.291992,0.040039-0.291992,0.040039l0.024902-1.031738c-0.313965,0.493652-0.78418,0.692871-0.78418,0.692871
		c-0.142578-0.012695-0.036621-0.09375-0.036621-0.09375c0.730469-0.696777,0.783691-0.984863,0.783691-0.984863
		c0.083008-0.287109,0.056152-0.803711,0.056152-0.803711c-0.361328,0.522461-0.601074,0.557617-0.601074,0.557617
		c-0.064941,0.014648-0.090332,0-0.090332,0c-0.064941-0.043945,0.043457-0.140625,0.043457-0.140625
		c0.092773-0.078125,0.173828-0.151367,0.242676-0.223633c0.005859-0.005859,0.009277-0.008789,0.012207-0.012695
		c-0.00293,0.00293-0.007324,0.005859-0.013184,0.012695c0.35791-0.368164,0.398926-0.616699,0.398926-0.616699l0.083984-0.506836
		c0,0,0.020996-0.06543,0.040039,0l0.064941,0.533203c0.083984,0.257324,0.588379,0.786621,0.588379,0.786621
		c0.067871,0.064453-0.025391,0.0625-0.025391,0.0625c-0.282715-0.041992-0.543945-0.458984-0.543945-0.458984l0.038086,0.842773
		c0.132813,0.34375,0.787109,0.830566,0.787109,0.830566C9.84082,13.890625,9.66748,13.990234,9.66748,13.990234z
		 M8.015625,12.537598c-0.007324,0.005859-0.016113,0.011719-0.021973,0.018555
		C7.993652,12.556152,8.002441,12.549316,8.015625,12.537598z M8.096191,12.462402
		c-0.031738,0.02832-0.062988,0.056641-0.080566,0.075195C8.04541,12.509277,8.071289,12.484863,8.096191,12.462402z
		 M8.164551,12.396973c-0.019043,0.019531-0.043945,0.041016-0.068359,0.06543
		C8.118652,12.441895,8.142578,12.419434,8.164551,12.396973z M8.217285,12.350098
		c-0.015625,0.016602-0.033691,0.032227-0.052734,0.046875C8.183594,12.378418,8.20166,12.36377,8.217285,12.350098z
		 M8.217285,12.350098c0.006348-0.005859,0.012207-0.011719,0.019043-0.018555
		C8.229492,12.338379,8.223633,12.344238,8.217285,12.350098z M8.285645,12.285645
		c-0.003418,0.005859-0.012207,0.011719-0.019043,0.017578C8.276367,12.29541,8.282227,12.288574,8.285645,12.285645z"/>
</g>
<g id="coniferoustree_x5F_bd_13_" style="&st0;">
	<path style="&st1;" d="M26.706055,7.242188C26.31543,7.170898,25.887695,6.47998,25.887695,6.47998l0.040039,1.092285
		c-0.046875,0.176758-0.291016,0.040039-0.291016,0.040039l0.024414-1.031738c-0.313965,0.493652-0.78418,0.692871-0.78418,0.692871
		c-0.142578-0.012695-0.036621-0.09375-0.036621-0.09375c0.730957-0.696777,0.783691-0.984863,0.783691-0.984863
		c0.083008-0.287109,0.056641-0.803711,0.056641-0.803711c-0.361816,0.522461-0.601563,0.557617-0.601563,0.557617
		c-0.064941,0.014648-0.090332,0-0.090332,0c-0.064941-0.043945,0.043457-0.140625,0.043457-0.140625
		C25.125,5.72998,25.206055,5.656738,25.274902,5.584473c0.005859-0.005859,0.009277-0.008789,0.012207-0.012695
		c-0.00293,0.00293-0.007324,0.005859-0.013184,0.012695c0.35791-0.368164,0.398926-0.616699,0.398926-0.616699l0.083984-0.506836
		c0,0,0.021484-0.06543,0.040039,0l0.064453,0.533203c0.083984,0.257324,0.588867,0.786621,0.588867,0.786621
		c0.067383,0.064453-0.025391,0.0625-0.025391,0.0625c-0.283203-0.041992-0.543945-0.458984-0.543945-0.458984l0.038086,0.842773
		c0.132813,0.34375,0.787109,0.830566,0.787109,0.830566C26.879883,7.142578,26.706055,7.242188,26.706055,7.242188z
		 M25.054199,5.789551c-0.007324,0.005859-0.016113,0.011719-0.021973,0.018555
		C25.032227,5.808105,25.041016,5.80127,25.054199,5.789551z M25.134766,5.714355
		c-0.031738,0.02832-0.062988,0.056641-0.080566,0.075195C25.083984,5.76123,25.109863,5.736816,25.134766,5.714355z
		 M25.203125,5.648926c-0.019043,0.019531-0.043945,0.041016-0.068359,0.06543
		C25.157227,5.693848,25.181152,5.671387,25.203125,5.648926z M25.255859,5.602051
		c-0.015625,0.016602-0.033691,0.032227-0.052734,0.046875C25.222168,5.630371,25.240234,5.615723,25.255859,5.602051z
		 M25.255859,5.602051c0.006348-0.005859,0.012207-0.011719,0.019043-0.018555
		C25.268066,5.590332,25.262207,5.596191,25.255859,5.602051z M25.324219,5.537598
		c-0.003418,0.005859-0.012207,0.011719-0.019043,0.017578C25.314941,5.547363,25.320801,5.540527,25.324219,5.537598z"/>
</g>
<g id="coniferoustree_x5F_bd_12_" style="&st0;">
	<path style="&st1;" d="M29.375977,4.970703c-0.390625-0.071289-0.818359-0.762207-0.818359-0.762207l0.040039,1.092285
		c-0.046875,0.176758-0.291016,0.040039-0.291016,0.040039l0.024414-1.031738c-0.313477,0.493652-0.78418,0.692871-0.78418,0.692871
		c-0.142578-0.012695-0.037109-0.09375-0.037109-0.09375c0.731445-0.696777,0.78418-0.984863,0.78418-0.984863
		c0.083008-0.287109,0.056641-0.803711,0.056641-0.803711c-0.361328,0.522461-0.601563,0.557617-0.601563,0.557617
		c-0.064453,0.014648-0.089844,0-0.089844,0c-0.06543-0.043945,0.042969-0.140625,0.042969-0.140625
		c0.092773-0.078125,0.173828-0.151367,0.243164-0.223633c0.005859-0.005859,0.008789-0.008789,0.011719-0.012695
		c-0.00293,0.00293-0.006836,0.005859-0.012695,0.012695c0.357422-0.368164,0.398438-0.616699,0.398438-0.616699l0.083984-0.506836
		c0,0,0.021484-0.06543,0.040039,0l0.064453,0.533203c0.083984,0.257324,0.588867,0.786621,0.588867,0.786621
		c0.067383,0.064453-0.025391,0.0625-0.025391,0.0625c-0.283203-0.041992-0.543945-0.458984-0.543945-0.458984l0.038086,0.842773
		c0.132813,0.34375,0.787109,0.830566,0.787109,0.830566C29.549805,4.871094,29.375977,4.970703,29.375977,4.970703z
		 M27.724609,3.518066c-0.007813,0.005859-0.016602,0.011719-0.022461,0.018555
		C27.702148,3.536621,27.710938,3.529785,27.724609,3.518066z M27.804688,3.442871
		c-0.03125,0.02832-0.0625,0.056641-0.080078,0.075195C27.753906,3.489746,27.780273,3.465332,27.804688,3.442871z
		 M27.873047,3.377441c-0.018555,0.019531-0.043945,0.041016-0.068359,0.06543
		C27.827148,3.422363,27.851563,3.399902,27.873047,3.377441z M27.925781,3.330566
		c-0.015625,0.016602-0.033203,0.032227-0.052734,0.046875C27.892578,3.358887,27.910156,3.344238,27.925781,3.330566z
		 M27.925781,3.330566c0.006836-0.005859,0.012695-0.011719,0.019531-0.018555
		C27.938477,3.318848,27.932617,3.324707,27.925781,3.330566z M27.994141,3.266113
		c-0.00293,0.005859-0.011719,0.011719-0.018555,0.017578C27.985352,3.275879,27.991211,3.269043,27.994141,3.266113z"/>
</g>
<g id="coniferoustree_x5F_bd_14_" style="&st0;">
	<path style="&st1;" d="M24.951172,4.207031c-0.390137-0.071289-0.817871-0.762207-0.817871-0.762207l0.040039,1.092285
		c-0.047363,0.176758-0.291992,0.040039-0.291992,0.040039L23.90625,3.54541c-0.313965,0.493652-0.78418,0.692871-0.78418,0.692871
		c-0.142578-0.012695-0.036621-0.09375-0.036621-0.09375c0.730469-0.696777,0.783691-0.984863,0.783691-0.984863
		c0.083008-0.287109,0.056152-0.803711,0.056152-0.803711c-0.361328,0.522461-0.601074,0.557617-0.601074,0.557617
		c-0.064941,0.014648-0.090332,0-0.090332,0c-0.064941-0.043945,0.043457-0.140625,0.043457-0.140625
		c0.092773-0.078125,0.173828-0.151367,0.242676-0.223633c0.005859-0.005859,0.009277-0.008789,0.012207-0.012695
		c-0.00293,0.00293-0.007324,0.005859-0.013184,0.012695c0.35791-0.368164,0.398926-0.616699,0.398926-0.616699l0.083984-0.506836
		c0,0,0.020996-0.06543,0.040039,0l0.064941,0.533203c0.083984,0.257324,0.588379,0.786621,0.588379,0.786621
		c0.067871,0.064453-0.025391,0.0625-0.025391,0.0625c-0.282715-0.041992-0.543945-0.458984-0.543945-0.458984l0.038086,0.842773
		c0.132813,0.34375,0.787109,0.830566,0.787109,0.830566C25.124512,4.107422,24.951172,4.207031,24.951172,4.207031z
		 M23.299316,2.754395c-0.007324,0.005859-0.016113,0.011719-0.021973,0.018555
		C23.277344,2.772949,23.286133,2.766113,23.299316,2.754395z M23.379883,2.679199
		c-0.031738,0.02832-0.062988,0.056641-0.080566,0.075195C23.329102,2.726074,23.35498,2.70166,23.379883,2.679199z
		 M23.448242,2.61377c-0.019043,0.019531-0.043945,0.041016-0.068359,0.06543
		C23.402344,2.658691,23.42627,2.63623,23.448242,2.61377z M23.500977,2.566895
		c-0.015625,0.016602-0.033691,0.032227-0.052734,0.046875C23.467285,2.595215,23.485352,2.580566,23.500977,2.566895z
		 M23.500977,2.566895c0.006348-0.005859,0.012207-0.011719,0.019043-0.018555
		C23.513184,2.555176,23.507324,2.561035,23.500977,2.566895z M23.569336,2.502441
		c-0.003418,0.005859-0.012207,0.011719-0.019043,0.017578C23.560059,2.512207,23.565918,2.505371,23.569336,2.502441z"/>
</g>
<g id="coniferoustree_x5F_bd_6_" style="&st0;">
	<path style="&st1;" d="M37.889648,15.289063c-0.390625-0.071289-0.818359-0.762207-0.818359-0.762207l0.040039,1.092285
		c-0.046875,0.176758-0.291016,0.040039-0.291016,0.040039l0.024414-1.031738c-0.313477,0.493652-0.78418,0.692871-0.78418,0.692871
		c-0.142578-0.012695-0.037109-0.09375-0.037109-0.09375c0.731445-0.696777,0.78418-0.984863,0.78418-0.984863
		c0.083008-0.287109,0.056641-0.803711,0.056641-0.803711c-0.361328,0.522461-0.601563,0.557617-0.601563,0.557617
		c-0.064453,0.014648-0.089844,0-0.089844,0c-0.06543-0.043945,0.042969-0.140625,0.042969-0.140625
		c0.092773-0.078125,0.173828-0.151367,0.243164-0.223633c0.005859-0.005859,0.008789-0.008789,0.011719-0.012695
		c-0.00293,0.00293-0.006836,0.005859-0.012695,0.012695c0.357422-0.368164,0.398438-0.616699,0.398438-0.616699l0.083984-0.506836
		c0,0,0.021484-0.06543,0.040039,0l0.064453,0.533203c0.083984,0.257324,0.588867,0.786621,0.588867,0.786621
		c0.067383,0.064453-0.025391,0.0625-0.025391,0.0625c-0.283203-0.041992-0.543945-0.458984-0.543945-0.458984l0.038086,0.842773
		c0.132813,0.34375,0.787109,0.830566,0.787109,0.830566C38.063477,15.189453,37.889648,15.289063,37.889648,15.289063z
		 M36.238281,13.836426c-0.007813,0.005859-0.016602,0.011719-0.022461,0.018555
		C36.21582,13.85498,36.224609,13.848145,36.238281,13.836426z M36.318359,13.76123
		c-0.03125,0.02832-0.0625,0.056641-0.080078,0.075195C36.267578,13.808105,36.293945,13.783691,36.318359,13.76123z
		 M36.386719,13.695801c-0.018555,0.019531-0.043945,0.041016-0.068359,0.06543
		C36.34082,13.740723,36.365234,13.718262,36.386719,13.695801z M36.439453,13.648926
		c-0.015625,0.016602-0.033203,0.032227-0.052734,0.046875C36.40625,13.677246,36.423828,13.662598,36.439453,13.648926z
		 M36.439453,13.648926c0.006836-0.005859,0.012695-0.011719,0.019531-0.018555
		C36.452148,13.637207,36.446289,13.643066,36.439453,13.648926z M36.507813,13.584473
		c-0.00293,0.005859-0.011719,0.011719-0.018555,0.017578C36.499023,13.594238,36.504883,13.587402,36.507813,13.584473z"/>
</g>
<g id="coniferoustree_x5F_bd_7_" style="&st0;">
	<path style="&st1;" d="M40.557617,13.017578c-0.390625-0.071289-0.818359-0.762207-0.818359-0.762207l0.040039,1.092285
		c-0.046875,0.176758-0.291016,0.040039-0.291016,0.040039l0.024414-1.031738c-0.313477,0.493652-0.78418,0.692871-0.78418,0.692871
		c-0.142578-0.012695-0.037109-0.09375-0.037109-0.09375c0.731445-0.696777,0.78418-0.984863,0.78418-0.984863
		c0.083008-0.287109,0.056641-0.803711,0.056641-0.803711c-0.361328,0.522461-0.601563,0.557617-0.601563,0.557617
		c-0.064453,0.014648-0.089844,0-0.089844,0c-0.06543-0.043945,0.042969-0.140625,0.042969-0.140625
		c0.092773-0.078125,0.173828-0.151367,0.243164-0.223633c0.005859-0.005859,0.008789-0.008789,0.011719-0.012695
		c-0.00293,0.00293-0.006836,0.005859-0.012695,0.012695c0.357422-0.368164,0.398438-0.616699,0.398438-0.616699l0.083984-0.506836
		c0,0,0.021484-0.06543,0.040039,0l0.064453,0.533203c0.083984,0.257324,0.588867,0.786621,0.588867,0.786621
		c0.067383,0.064453-0.025391,0.0625-0.025391,0.0625c-0.283203-0.041992-0.543945-0.458984-0.543945-0.458984l0.038086,0.842773
		c0.132813,0.34375,0.787109,0.830566,0.787109,0.830566C40.731445,12.917969,40.557617,13.017578,40.557617,13.017578z
		 M38.90625,11.564941c-0.007813,0.005859-0.016602,0.011719-0.022461,0.018555
		C38.883789,11.583496,38.892578,11.57666,38.90625,11.564941z M38.986328,11.489746
		c-0.03125,0.02832-0.0625,0.056641-0.080078,0.075195C38.935547,11.536621,38.961914,11.512207,38.986328,11.489746z
		 M39.054688,11.424316c-0.018555,0.019531-0.043945,0.041016-0.068359,0.06543
		C39.008789,11.469238,39.033203,11.446777,39.054688,11.424316z M39.107422,11.377441
		c-0.015625,0.016602-0.033203,0.032227-0.052734,0.046875C39.074219,11.405762,39.091797,11.391113,39.107422,11.377441z
		 M39.107422,11.377441c0.006836-0.005859,0.012695-0.011719,0.019531-0.018555
		C39.120117,11.365723,39.114258,11.371582,39.107422,11.377441z M39.175781,11.312988
		c-0.00293,0.005859-0.011719,0.011719-0.018555,0.017578C39.166992,11.322754,39.172852,11.315918,39.175781,11.312988z"/>
</g>
<g id="coniferoustree_x5F_bd_8_" style="&st0;">
	<path style="&st1;" d="M36.133789,12.253906c-0.390625-0.071289-0.818359-0.762207-0.818359-0.762207l0.040039,1.092285
		c-0.046875,0.176758-0.291016,0.040039-0.291016,0.040039l0.024414-1.031738c-0.313477,0.493652-0.78418,0.692871-0.78418,0.692871
		c-0.142578-0.012695-0.037109-0.09375-0.037109-0.09375c0.731445-0.696777,0.78418-0.984863,0.78418-0.984863
		c0.083008-0.287109,0.056641-0.803711,0.056641-0.803711c-0.361328,0.522461-0.601563,0.557617-0.601563,0.557617
		c-0.064453,0.014648-0.089844,0-0.089844,0c-0.06543-0.043945,0.042969-0.140625,0.042969-0.140625
		c0.092773-0.078125,0.173828-0.151367,0.243164-0.223633c0.005859-0.005859,0.008789-0.008789,0.011719-0.012695
		c-0.00293,0.00293-0.006836,0.005859-0.012695,0.012695c0.357422-0.368164,0.398438-0.616699,0.398438-0.616699l0.083984-0.506836
		c0,0,0.021484-0.06543,0.040039,0l0.064453,0.533203c0.083984,0.257324,0.588867,0.786621,0.588867,0.786621
		c0.067383,0.064453-0.025391,0.0625-0.025391,0.0625c-0.283203-0.041992-0.543945-0.458984-0.543945-0.458984l0.038086,0.842773
		c0.132813,0.34375,0.787109,0.830566,0.787109,0.830566C36.307617,12.154297,36.133789,12.253906,36.133789,12.253906z
		 M34.482422,10.80127c-0.007813,0.005859-0.016602,0.011719-0.022461,0.018555
		C34.459961,10.819824,34.46875,10.812988,34.482422,10.80127z M34.5625,10.726074
		c-0.03125,0.02832-0.0625,0.056641-0.080078,0.075195C34.511719,10.772949,34.538086,10.748535,34.5625,10.726074z
		 M34.630859,10.660645c-0.018555,0.019531-0.043945,0.041016-0.068359,0.06543
		C34.584961,10.705566,34.609375,10.683105,34.630859,10.660645z M34.683594,10.61377
		c-0.015625,0.016602-0.033203,0.032227-0.052734,0.046875C34.650391,10.64209,34.667969,10.627441,34.683594,10.61377z
		 M34.683594,10.61377c0.006836-0.005859,0.012695-0.011719,0.019531-0.018555
		C34.696289,10.602051,34.69043,10.60791,34.683594,10.61377z M34.751953,10.549316
		c-0.00293,0.005859-0.011719,0.011719-0.018555,0.017578C34.743164,10.559082,34.749023,10.552246,34.751953,10.549316z"/>
</g>
<g id="coniferoustree_x5F_bd_9_" style="&st0;">
	<path style="&st1;" d="M43.40332,6.904297c-0.390625-0.071289-0.818359-0.762207-0.818359-0.762207L42.625,7.234375
		c-0.046875,0.176758-0.291016,0.040039-0.291016,0.040039l0.024414-1.031738c-0.313477,0.493652-0.78418,0.692871-0.78418,0.692871
		c-0.142578-0.012695-0.037109-0.09375-0.037109-0.09375c0.731445-0.696777,0.78418-0.984863,0.78418-0.984863
		c0.083008-0.287109,0.056641-0.803711,0.056641-0.803711c-0.361328,0.522461-0.601563,0.557617-0.601563,0.557617
		c-0.064453,0.014648-0.089844,0-0.089844,0c-0.06543-0.043945,0.042969-0.140625,0.042969-0.140625
		c0.092773-0.078125,0.173828-0.151367,0.243164-0.223633c0.005859-0.005859,0.008789-0.008789,0.011719-0.012695
		c-0.00293,0.00293-0.006836,0.005859-0.012695,0.012695c0.357422-0.368164,0.398438-0.616699,0.398438-0.616699l0.083984-0.506836
		c0,0,0.021484-0.06543,0.040039,0l0.064453,0.533203c0.083984,0.257324,0.588867,0.786621,0.588867,0.786621
		c0.067383,0.064453-0.025391,0.0625-0.025391,0.0625c-0.283203-0.041992-0.543945-0.458984-0.543945-0.458984l0.038086,0.842773
		c0.132813,0.34375,0.787109,0.830566,0.787109,0.830566C43.577148,6.804688,43.40332,6.904297,43.40332,6.904297z
		 M41.751953,5.45166c-0.007813,0.005859-0.016602,0.011719-0.022461,0.018555
		C41.729492,5.470215,41.738281,5.463379,41.751953,5.45166z M41.832031,5.376465
		c-0.03125,0.02832-0.0625,0.056641-0.080078,0.075195C41.78125,5.42334,41.807617,5.398926,41.832031,5.376465z
		 M41.900391,5.311035c-0.018555,0.019531-0.043945,0.041016-0.068359,0.06543
		C41.854492,5.355957,41.878906,5.333496,41.900391,5.311035z M41.953125,5.26416
		c-0.015625,0.016602-0.033203,0.032227-0.052734,0.046875C41.919922,5.29248,41.9375,5.277832,41.953125,5.26416z
		 M41.953125,5.26416c0.006836-0.005859,0.012695-0.011719,0.019531-0.018555
		C41.96582,5.252441,41.959961,5.258301,41.953125,5.26416z M42.021484,5.199707
		c-0.00293,0.005859-0.011719,0.011719-0.018555,0.017578C42.012695,5.209473,42.018555,5.202637,42.021484,5.199707z"/>
</g>
<g id="coniferoustree_x5F_bd_10_" style="&st0;">
	<path style="&st1;" d="M46.071289,4.632813c-0.390625-0.071289-0.818359-0.762207-0.818359-0.762207l0.040039,1.092285
		c-0.046875,0.176758-0.291016,0.040039-0.291016,0.040039l0.024414-1.031738c-0.313477,0.493652-0.78418,0.692871-0.78418,0.692871
		c-0.142578-0.012695-0.037109-0.09375-0.037109-0.09375c0.731445-0.696777,0.78418-0.984863,0.78418-0.984863
		c0.083008-0.287109,0.056641-0.803711,0.056641-0.803711c-0.361328,0.522461-0.601563,0.557617-0.601563,0.557617
		c-0.064453,0.014648-0.089844,0-0.089844,0c-0.06543-0.043945,0.042969-0.140625,0.042969-0.140625
		c0.092773-0.078125,0.173828-0.151367,0.243164-0.223633c0.005859-0.005859,0.008789-0.008789,0.011719-0.012695
		c-0.00293,0.00293-0.006836,0.005859-0.012695,0.012695c0.357422-0.368164,0.398438-0.616699,0.398438-0.616699l0.083984-0.506836
		c0,0,0.021484-0.06543,0.040039,0l0.064453,0.533203c0.083984,0.257324,0.588867,0.786621,0.588867,0.786621
		c0.067383,0.064453-0.025391,0.0625-0.025391,0.0625c-0.283203-0.041992-0.543945-0.458984-0.543945-0.458984l0.038086,0.842773
		c0.132813,0.34375,0.787109,0.830566,0.787109,0.830566C46.245117,4.533203,46.071289,4.632813,46.071289,4.632813z
		 M44.419922,3.180176c-0.007813,0.005859-0.016602,0.011719-0.022461,0.018555
		C44.397461,3.19873,44.40625,3.191895,44.419922,3.180176z M44.5,3.10498c-0.03125,0.02832-0.0625,0.056641-0.080078,0.075195
		C44.449219,3.151855,44.475586,3.127441,44.5,3.10498z M44.568359,3.039551C44.549805,3.059082,44.524414,3.080566,44.5,3.10498
		C44.522461,3.084473,44.546875,3.062012,44.568359,3.039551z M44.621094,2.992676
		c-0.015625,0.016602-0.033203,0.032227-0.052734,0.046875C44.587891,3.020996,44.605469,3.006348,44.621094,2.992676z
		 M44.621094,2.992676c0.006836-0.005859,0.012695-0.011719,0.019531-0.018555
		C44.633789,2.980957,44.62793,2.986816,44.621094,2.992676z M44.689453,2.928223
		c-0.00293,0.005859-0.011719,0.011719-0.018555,0.017578C44.680664,2.937988,44.686523,2.931152,44.689453,2.928223z"/>
</g>
<g id="coniferoustree_x5F_bd_11_" style="&st0;">
	<path style="&st1;" d="M41.647461,3.869141c-0.390625-0.071289-0.818359-0.762207-0.818359-0.762207l0.040039,1.092285
		c-0.046875,0.176758-0.291016,0.040039-0.291016,0.040039l0.024414-1.031738c-0.313477,0.493652-0.78418,0.692871-0.78418,0.692871
		c-0.142578-0.012695-0.037109-0.09375-0.037109-0.09375c0.731445-0.696777,0.78418-0.984863,0.78418-0.984863
		c0.083008-0.287109,0.056641-0.803711,0.056641-0.803711c-0.361328,0.522461-0.601563,0.557617-0.601563,0.557617
		c-0.064453,0.014648-0.089844,0-0.089844,0c-0.06543-0.043945,0.042969-0.140625,0.042969-0.140625
		c0.092773-0.078125,0.173828-0.151367,0.243164-0.223633c0.005859-0.005859,0.008789-0.008789,0.011719-0.012695
		c-0.00293,0.00293-0.006836,0.005859-0.012695,0.012695c0.357422-0.368164,0.398438-0.616699,0.398438-0.616699l0.083984-0.506836
		c0,0,0.021484-0.06543,0.040039,0l0.064453,0.533203c0.083984,0.257324,0.588867,0.786621,0.588867,0.786621
		c0.067383,0.064453-0.025391,0.0625-0.025391,0.0625c-0.283203-0.041992-0.543945-0.458984-0.543945-0.458984l0.038086,0.842773
		c0.132813,0.34375,0.787109,0.830566,0.787109,0.830566C41.821289,3.769531,41.647461,3.869141,41.647461,3.869141z
		 M39.996094,2.416504c-0.007813,0.005859-0.016602,0.011719-0.022461,0.018555
		C39.973633,2.435059,39.982422,2.428223,39.996094,2.416504z M40.076172,2.341309
		c-0.03125,0.02832-0.0625,0.056641-0.080078,0.075195C40.025391,2.388184,40.051758,2.36377,40.076172,2.341309z
		 M40.144531,2.275879c-0.018555,0.019531-0.043945,0.041016-0.068359,0.06543
		C40.098633,2.320801,40.123047,2.29834,40.144531,2.275879z M40.197266,2.229004
		c-0.015625,0.016602-0.033203,0.032227-0.052734,0.046875C40.164063,2.257324,40.181641,2.242676,40.197266,2.229004z
		 M40.197266,2.229004c0.006836-0.005859,0.012695-0.011719,0.019531-0.018555
		C40.209961,2.217285,40.204102,2.223145,40.197266,2.229004z M40.265625,2.164551
		c-0.00293,0.005859-0.011719,0.011719-0.018555,0.017578C40.256836,2.174316,40.262695,2.16748,40.265625,2.164551z"/>
</g>
<g id="coniferoustree_x5F_bd_3_" style="&st0;">
	<path style="&st1;" d="M38.385742,25.166992c-0.390625-0.071289-0.818359-0.762207-0.818359-0.762207l0.040039,1.092285
		c-0.046875,0.176758-0.291016,0.040039-0.291016,0.040039l0.024414-1.031738c-0.313477,0.493652-0.78418,0.692871-0.78418,0.692871
		c-0.142578-0.012695-0.037109-0.09375-0.037109-0.09375c0.731445-0.696777,0.78418-0.984863,0.78418-0.984863
		c0.083008-0.287109,0.056641-0.803711,0.056641-0.803711c-0.361328,0.522461-0.601563,0.557617-0.601563,0.557617
		c-0.064453,0.014648-0.089844,0-0.089844,0c-0.06543-0.043945,0.042969-0.140625,0.042969-0.140625
		c0.092773-0.078125,0.173828-0.151367,0.243164-0.223633c0.005859-0.005859,0.008789-0.008789,0.011719-0.012695
		c-0.00293,0.00293-0.006836,0.005859-0.012695,0.012695c0.357422-0.368164,0.398438-0.616699,0.398438-0.616699l0.083984-0.506836
		c0,0,0.021484-0.06543,0.040039,0l0.064453,0.533203c0.083984,0.257324,0.588867,0.786621,0.588867,0.786621
		c0.067383,0.064453-0.025391,0.0625-0.025391,0.0625c-0.283203-0.041992-0.543945-0.458984-0.543945-0.458984l0.038086,0.842773
		c0.132813,0.34375,0.787109,0.830566,0.787109,0.830566C38.55957,25.067383,38.385742,25.166992,38.385742,25.166992z
		 M36.734375,23.714355c-0.007813,0.005859-0.016602,0.011719-0.022461,0.018555
		C36.711914,23.73291,36.720703,23.726074,36.734375,23.714355z M36.814453,23.63916
		c-0.03125,0.02832-0.0625,0.056641-0.080078,0.075195C36.763672,23.686035,36.790039,23.661621,36.814453,23.63916z
		 M36.882813,23.57373c-0.018555,0.019531-0.043945,0.041016-0.068359,0.06543
		C36.836914,23.618652,36.861328,23.596191,36.882813,23.57373z M36.935547,23.526855
		c-0.015625,0.016602-0.033203,0.032227-0.052734,0.046875C36.902344,23.555176,36.919922,23.540527,36.935547,23.526855z
		 M36.935547,23.526855c0.006836-0.005859,0.012695-0.011719,0.019531-0.018555
		C36.948242,23.515137,36.942383,23.520996,36.935547,23.526855z M37.003906,23.462402
		c-0.00293,0.005859-0.011719,0.011719-0.018555,0.017578C36.995117,23.472168,37.000977,23.465332,37.003906,23.462402z"/>
</g>
<g id="coniferoustree_x5F_bd_5_" style="&st0;">
	<path style="&st1;" d="M41.055664,22.895508c-0.390625-0.071289-0.818359-0.762207-0.818359-0.762207l0.040039,1.092285
		c-0.046875,0.176758-0.291016,0.040039-0.291016,0.040039l0.024414-1.031738c-0.313477,0.493652-0.78418,0.692871-0.78418,0.692871
		c-0.142578-0.012695-0.037109-0.09375-0.037109-0.09375c0.731445-0.696777,0.78418-0.984863,0.78418-0.984863
		c0.083008-0.287109,0.056641-0.803711,0.056641-0.803711c-0.361328,0.522461-0.601563,0.557617-0.601563,0.557617
		c-0.064453,0.014648-0.089844,0-0.089844,0c-0.06543-0.043945,0.042969-0.140625,0.042969-0.140625
		c0.092773-0.078125,0.173828-0.151367,0.243164-0.223633c0.005859-0.005859,0.008789-0.008789,0.011719-0.012695
		c-0.00293,0.00293-0.006836,0.005859-0.012695,0.012695c0.357422-0.368164,0.398438-0.616699,0.398438-0.616699l0.083984-0.506836
		c0,0,0.021484-0.06543,0.040039,0l0.064453,0.533203c0.083984,0.257324,0.588867,0.786621,0.588867,0.786621
		c0.067383,0.064453-0.025391,0.0625-0.025391,0.0625c-0.283203-0.041992-0.543945-0.458984-0.543945-0.458984l0.038086,0.842773
		c0.132813,0.34375,0.787109,0.830566,0.787109,0.830566C41.229492,22.795898,41.055664,22.895508,41.055664,22.895508z
		 M39.404297,21.442871c-0.007813,0.005859-0.016602,0.011719-0.022461,0.018555
		C39.381836,21.461426,39.390625,21.45459,39.404297,21.442871z M39.484375,21.367676
		c-0.03125,0.02832-0.0625,0.056641-0.080078,0.075195C39.433594,21.414551,39.459961,21.390137,39.484375,21.367676z
		 M39.552734,21.302246c-0.018555,0.019531-0.043945,0.041016-0.068359,0.06543
		C39.506836,21.347168,39.53125,21.324707,39.552734,21.302246z M39.605469,21.255371
		c-0.015625,0.016602-0.033203,0.032227-0.052734,0.046875C39.572266,21.283691,39.589844,21.269043,39.605469,21.255371z
		 M39.605469,21.255371c0.006836-0.005859,0.012695-0.011719,0.019531-0.018555
		C39.618164,21.243652,39.612305,21.249512,39.605469,21.255371z M39.673828,21.190918
		c-0.00293,0.005859-0.011719,0.011719-0.018555,0.017578C39.665039,21.200684,39.670898,21.193848,39.673828,21.190918z"/>
</g>
<g id="coniferoustree_x5F_bd_4_" style="&st0;">
	<path style="&st1;" d="M36.629883,22.131836c-0.390625-0.071289-0.818359-0.762207-0.818359-0.762207l0.040039,1.092285
		c-0.046875,0.176758-0.291016,0.040039-0.291016,0.040039l0.024414-1.031738c-0.313477,0.493652-0.78418,0.692871-0.78418,0.692871
		c-0.142578-0.012695-0.037109-0.09375-0.037109-0.09375c0.731445-0.696777,0.78418-0.984863,0.78418-0.984863
		c0.083008-0.287109,0.056641-0.803711,0.056641-0.803711c-0.361328,0.522461-0.601563,0.557617-0.601563,0.557617
		c-0.064453,0.014648-0.089844,0-0.089844,0c-0.06543-0.043945,0.042969-0.140625,0.042969-0.140625
		c0.092773-0.078125,0.173828-0.151367,0.243164-0.223633c0.005859-0.005859,0.008789-0.008789,0.011719-0.012695
		c-0.00293,0.00293-0.006836,0.005859-0.012695,0.012695c0.357422-0.368164,0.398438-0.616699,0.398438-0.616699l0.083984-0.506836
		c0,0,0.021484-0.06543,0.040039,0l0.064453,0.533203c0.083984,0.257324,0.588867,0.786621,0.588867,0.786621
		c0.067383,0.064453-0.025391,0.0625-0.025391,0.0625c-0.283203-0.041992-0.543945-0.458984-0.543945-0.458984l0.038086,0.842773
		c0.132813,0.34375,0.787109,0.830566,0.787109,0.830566C36.803711,22.032227,36.629883,22.131836,36.629883,22.131836z
		 M34.978516,20.679199c-0.007813,0.005859-0.016602,0.011719-0.022461,0.018555
		C34.956055,20.697754,34.964844,20.690918,34.978516,20.679199z M35.058594,20.604004
		c-0.03125,0.02832-0.0625,0.056641-0.080078,0.075195C35.007813,20.650879,35.03418,20.626465,35.058594,20.604004z
		 M35.126953,20.538574c-0.018555,0.019531-0.043945,0.041016-0.068359,0.06543
		C35.081055,20.583496,35.105469,20.561035,35.126953,20.538574z M35.179688,20.491699
		c-0.015625,0.016602-0.033203,0.032227-0.052734,0.046875C35.146484,20.52002,35.164063,20.505371,35.179688,20.491699z
		 M35.179688,20.491699c0.006836-0.005859,0.012695-0.011719,0.019531-0.018555
		C35.192383,20.47998,35.186523,20.48584,35.179688,20.491699z M35.248047,20.427246
		c-0.00293,0.005859-0.011719,0.011719-0.018555,0.017578C35.239258,20.437012,35.245117,20.430176,35.248047,20.427246z"/>
</g>
<g id="coniferoustree_x5F_bd_1_" style="&st0;">
	<path style="&st1;" d="M43.655273,37.070313c-0.390625-0.071289-0.818359-0.762695-0.818359-0.762695l0.040039,1.092773
		c-0.046875,0.176758-0.291016,0.040039-0.291016,0.040039l0.024414-1.032227c-0.313477,0.494141-0.78418,0.693359-0.78418,0.693359
		c-0.142578-0.012695-0.037109-0.09375-0.037109-0.09375c0.731445-0.697266,0.78418-0.985352,0.78418-0.985352
		c0.083008-0.287109,0.056641-0.803711,0.056641-0.803711c-0.361328,0.522461-0.601563,0.557617-0.601563,0.557617
		c-0.064453,0.014648-0.089844,0-0.089844,0c-0.06543-0.043945,0.042969-0.140625,0.042969-0.140625
		c0.092773-0.078125,0.173828-0.151367,0.243164-0.223633c0.005859-0.005859,0.008789-0.008789,0.011719-0.012695
		c-0.00293,0.00293-0.006836,0.005859-0.012695,0.012695c0.357422-0.368164,0.398438-0.617188,0.398438-0.617188l0.083984-0.506836
		c0,0,0.021484-0.06543,0.040039,0l0.064453,0.533203c0.083984,0.257813,0.588867,0.787109,0.588867,0.787109
		c0.067383,0.064453-0.025391,0.0625-0.025391,0.0625c-0.283203-0.041992-0.543945-0.458984-0.543945-0.458984l0.038086,0.842773
		c0.132813,0.34375,0.787109,0.831055,0.787109,0.831055C43.829102,36.970703,43.655273,37.070313,43.655273,37.070313z
		 M42.003906,35.617188c-0.007813,0.005859-0.016602,0.011719-0.022461,0.018555
		C41.981445,35.635742,41.990234,35.628906,42.003906,35.617188z M42.083984,35.541992
		c-0.03125,0.02832-0.0625,0.056641-0.080078,0.075195C42.033203,35.588867,42.05957,35.564453,42.083984,35.541992z
		 M42.152344,35.476563c-0.018555,0.019531-0.043945,0.041016-0.068359,0.06543
		C42.106445,35.521484,42.130859,35.499023,42.152344,35.476563z M42.205078,35.429688
		c-0.015625,0.016602-0.033203,0.032227-0.052734,0.046875C42.171875,35.458008,42.189453,35.443359,42.205078,35.429688z
		 M42.205078,35.429688c0.006836-0.005859,0.012695-0.011719,0.019531-0.018555
		C42.217773,35.417969,42.211914,35.423828,42.205078,35.429688z M42.273438,35.365234
		c-0.00293,0.005859-0.011719,0.011719-0.018555,0.017578C42.264648,35.375,42.270508,35.368164,42.273438,35.365234z"/>
</g>
<g id="coniferoustree_x5F_bd" style="&st0;">
	<path style="&st1;" d="M46.323242,34.798828c-0.390625-0.071289-0.818359-0.762695-0.818359-0.762695l0.040039,1.092773
		c-0.046875,0.176758-0.291016,0.040039-0.291016,0.040039l0.024414-1.032227c-0.313477,0.494141-0.78418,0.693359-0.78418,0.693359
		c-0.142578-0.012695-0.037109-0.09375-0.037109-0.09375c0.731445-0.697266,0.78418-0.985352,0.78418-0.985352
		c0.083008-0.287109,0.056641-0.803711,0.056641-0.803711c-0.361328,0.522461-0.601563,0.557617-0.601563,0.557617
		c-0.064453,0.014648-0.089844,0-0.089844,0c-0.06543-0.043945,0.042969-0.140625,0.042969-0.140625
		c0.092773-0.078125,0.173828-0.151367,0.243164-0.223633c0.005859-0.005859,0.008789-0.008789,0.011719-0.012695
		c-0.00293,0.00293-0.006836,0.005859-0.012695,0.012695c0.357422-0.368164,0.398438-0.617188,0.398438-0.617188l0.083984-0.506836
		c0,0,0.021484-0.06543,0.040039,0l0.064453,0.533203c0.083984,0.257813,0.588867,0.787109,0.588867,0.787109
		c0.067383,0.064453-0.025391,0.0625-0.025391,0.0625c-0.283203-0.041992-0.543945-0.458984-0.543945-0.458984l0.038086,0.842773
		c0.132813,0.34375,0.787109,0.831055,0.787109,0.831055C46.49707,34.699219,46.323242,34.798828,46.323242,34.798828z
		 M44.671875,33.345703c-0.007813,0.005859-0.016602,0.011719-0.022461,0.018555
		C44.649414,33.364258,44.658203,33.357422,44.671875,33.345703z M44.751953,33.270508
		c-0.03125,0.02832-0.0625,0.056641-0.080078,0.075195C44.701172,33.317383,44.727539,33.292969,44.751953,33.270508z
		 M44.820313,33.205078c-0.018555,0.019531-0.043945,0.041016-0.068359,0.06543
		C44.774414,33.25,44.798828,33.227539,44.820313,33.205078z M44.873047,33.158203
		c-0.015625,0.016602-0.033203,0.032227-0.052734,0.046875C44.839844,33.186523,44.857422,33.171875,44.873047,33.158203z
		 M44.873047,33.158203c0.006836-0.005859,0.012695-0.011719,0.019531-0.018555
		C44.885742,33.146484,44.879883,33.152344,44.873047,33.158203z M44.941406,33.09375
		c-0.00293,0.005859-0.011719,0.011719-0.018555,0.017578C44.932617,33.103516,44.938477,33.09668,44.941406,33.09375z"/>
</g>
<g id="coniferoustree_x5F_bd_2_" style="&st0;">
	<path style="&st1;" d="M41.899414,34.035156c-0.390625-0.071289-0.818359-0.762695-0.818359-0.762695l0.040039,1.092773
		c-0.046875,0.176758-0.291016,0.040039-0.291016,0.040039l0.024414-1.032227c-0.313477,0.494141-0.78418,0.693359-0.78418,0.693359
		c-0.142578-0.012695-0.037109-0.09375-0.037109-0.09375c0.731445-0.697266,0.78418-0.985352,0.78418-0.985352
		c0.083008-0.287109,0.056641-0.803711,0.056641-0.803711c-0.361328,0.522461-0.601563,0.557617-0.601563,0.557617
		c-0.064453,0.014648-0.089844,0-0.089844,0c-0.06543-0.043945,0.042969-0.140625,0.042969-0.140625
		c0.092773-0.078125,0.173828-0.151367,0.243164-0.223633c0.005859-0.005859,0.008789-0.008789,0.011719-0.012695
		c-0.00293,0.00293-0.006836,0.005859-0.012695,0.012695c0.357422-0.368164,0.398438-0.617188,0.398438-0.617188l0.083984-0.506836
		c0,0,0.021484-0.06543,0.040039,0l0.064453,0.533203c0.083984,0.257813,0.588867,0.787109,0.588867,0.787109
		c0.067383,0.064453-0.025391,0.0625-0.025391,0.0625c-0.283203-0.041992-0.543945-0.458984-0.543945-0.458984l0.038086,0.842773
		c0.132813,0.34375,0.787109,0.831055,0.787109,0.831055C42.073242,33.935547,41.899414,34.035156,41.899414,34.035156z
		 M40.248047,32.582031c-0.007813,0.005859-0.016602,0.011719-0.022461,0.018555
		C40.225586,32.600586,40.234375,32.59375,40.248047,32.582031z M40.328125,32.506836
		c-0.03125,0.02832-0.0625,0.056641-0.080078,0.075195C40.277344,32.553711,40.303711,32.529297,40.328125,32.506836z
		 M40.396484,32.441406c-0.018555,0.019531-0.043945,0.041016-0.068359,0.06543
		C40.350586,32.486328,40.375,32.463867,40.396484,32.441406z M40.449219,32.394531
		c-0.015625,0.016602-0.033203,0.032227-0.052734,0.046875C40.416016,32.422852,40.433594,32.408203,40.449219,32.394531z
		 M40.449219,32.394531c0.006836-0.005859,0.012695-0.011719,0.019531-0.018555
		C40.461914,32.382813,40.456055,32.388672,40.449219,32.394531z M40.517578,32.330078
		c-0.00293,0.005859-0.011719,0.011719-0.018555,0.017578C40.508789,32.339844,40.514648,32.333008,40.517578,32.330078z"/>
</g>
<g id="coniferoustree_x5F_bd_20_" style="&st0;">
	<path style="&st1;" d="M30.624023,47.671875c-0.390625-0.071289-0.818359-0.762695-0.818359-0.762695l0.040039,1.092773
		c-0.046875,0.176758-0.291016,0.040039-0.291016,0.040039l0.024414-1.032227c-0.313477,0.494141-0.78418,0.693359-0.78418,0.693359
		c-0.142578-0.012695-0.037109-0.09375-0.037109-0.09375c0.731445-0.697266,0.78418-0.985352,0.78418-0.985352
		c0.083008-0.287109,0.056641-0.803711,0.056641-0.803711c-0.361328,0.522461-0.601563,0.557617-0.601563,0.557617
		c-0.064453,0.014648-0.089844,0-0.089844,0c-0.06543-0.043945,0.042969-0.140625,0.042969-0.140625
		c0.092773-0.078125,0.173828-0.151367,0.243164-0.223633c0.005859-0.005859,0.008789-0.008789,0.011719-0.012695
		c-0.00293,0.00293-0.006836,0.005859-0.012695,0.012695c0.357422-0.368164,0.398438-0.617188,0.398438-0.617188l0.083984-0.506836
		c0,0,0.021484-0.06543,0.040039,0l0.064453,0.533203c0.083984,0.257813,0.588867,0.787109,0.588867,0.787109
		c0.067383,0.064453-0.025391,0.0625-0.025391,0.0625c-0.283203-0.041992-0.543945-0.458984-0.543945-0.458984l0.038086,0.842773
		c0.132813,0.34375,0.787109,0.831055,0.787109,0.831055C30.797852,47.572266,30.624023,47.671875,30.624023,47.671875z
		 M28.972656,46.21875c-0.007813,0.005859-0.016602,0.011719-0.022461,0.018555
		C28.950195,46.237305,28.958984,46.230469,28.972656,46.21875z M29.052734,46.143555
		c-0.03125,0.02832-0.0625,0.056641-0.080078,0.075195C29.001953,46.19043,29.02832,46.166016,29.052734,46.143555z
		 M29.121094,46.078125c-0.018555,0.019531-0.043945,0.041016-0.068359,0.06543
		C29.075195,46.123047,29.099609,46.100586,29.121094,46.078125z M29.173828,46.03125
		c-0.015625,0.016602-0.033203,0.032227-0.052734,0.046875C29.140625,46.05957,29.158203,46.044922,29.173828,46.03125z
		 M29.173828,46.03125c0.006836-0.005859,0.012695-0.011719,0.019531-0.018555
		C29.186523,46.019531,29.180664,46.025391,29.173828,46.03125z M29.242188,45.966797
		c-0.00293,0.005859-0.011719,0.011719-0.018555,0.017578C29.233398,45.976563,29.239258,45.969727,29.242188,45.966797z"/>
</g>
<g id="coniferoustree_x5F_bd_18_" style="&st0;">
	<path style="&st1;" d="M33.291992,45.400391c-0.390625-0.071289-0.818359-0.762695-0.818359-0.762695l0.040039,1.092773
		c-0.046875,0.176758-0.291016,0.040039-0.291016,0.040039l0.024414-1.032227c-0.313477,0.494141-0.78418,0.693359-0.78418,0.693359
		c-0.142578-0.012695-0.037109-0.09375-0.037109-0.09375c0.731445-0.697266,0.78418-0.985352,0.78418-0.985352
		c0.083008-0.287109,0.056641-0.803711,0.056641-0.803711c-0.361328,0.522461-0.601563,0.557617-0.601563,0.557617
		c-0.064453,0.014648-0.089844,0-0.089844,0c-0.06543-0.043945,0.042969-0.140625,0.042969-0.140625
		c0.092773-0.078125,0.173828-0.151367,0.243164-0.223633c0.005859-0.005859,0.008789-0.008789,0.011719-0.012695
		c-0.00293,0.00293-0.006836,0.005859-0.012695,0.012695c0.357422-0.368164,0.398438-0.617188,0.398438-0.617188l0.083984-0.506836
		c0,0,0.021484-0.06543,0.040039,0l0.064453,0.533203c0.083984,0.257813,0.588867,0.787109,0.588867,0.787109
		c0.067383,0.064453-0.025391,0.0625-0.025391,0.0625c-0.283203-0.041992-0.543945-0.458984-0.543945-0.458984l0.038086,0.842773
		c0.132813,0.34375,0.787109,0.831055,0.787109,0.831055C33.46582,45.300781,33.291992,45.400391,33.291992,45.400391z
		 M31.640625,43.947266c-0.007813,0.005859-0.016602,0.011719-0.022461,0.018555
		C31.618164,43.96582,31.626953,43.958984,31.640625,43.947266z M31.720703,43.87207
		c-0.03125,0.02832-0.0625,0.056641-0.080078,0.075195C31.669922,43.918945,31.696289,43.894531,31.720703,43.87207z
		 M31.789063,43.806641c-0.018555,0.019531-0.043945,0.041016-0.068359,0.06543
		C31.743164,43.851563,31.767578,43.829102,31.789063,43.806641z M31.841797,43.759766
		c-0.015625,0.016602-0.033203,0.032227-0.052734,0.046875C31.808594,43.788086,31.826172,43.773438,31.841797,43.759766z
		 M31.841797,43.759766c0.006836-0.005859,0.012695-0.011719,0.019531-0.018555
		C31.854492,43.748047,31.848633,43.753906,31.841797,43.759766z M31.910156,43.695313
		c-0.00293,0.005859-0.011719,0.011719-0.018555,0.017578C31.901367,43.705078,31.907227,43.698242,31.910156,43.695313z"/>
</g>
<g id="coniferoustree_x5F_bd_19_" style="&st0;">
	<path style="&st1;" d="M28.868164,44.636719c-0.390625-0.071289-0.818359-0.762695-0.818359-0.762695l0.040039,1.092773
		c-0.046875,0.176758-0.291016,0.040039-0.291016,0.040039l0.024414-1.032227c-0.313477,0.494141-0.78418,0.693359-0.78418,0.693359
		c-0.142578-0.012695-0.037109-0.09375-0.037109-0.09375c0.731445-0.697266,0.78418-0.985352,0.78418-0.985352
		c0.083008-0.287109,0.056641-0.803711,0.056641-0.803711c-0.361328,0.522461-0.601563,0.557617-0.601563,0.557617
		c-0.064453,0.014648-0.089844,0-0.089844,0c-0.06543-0.043945,0.042969-0.140625,0.042969-0.140625
		c0.092773-0.078125,0.173828-0.151367,0.243164-0.223633c0.005859-0.005859,0.008789-0.008789,0.011719-0.012695
		c-0.00293,0.00293-0.006836,0.005859-0.012695,0.012695c0.357422-0.368164,0.398438-0.617188,0.398438-0.617188l0.083984-0.506836
		c0,0,0.021484-0.06543,0.040039,0l0.064453,0.533203c0.083984,0.257813,0.588867,0.787109,0.588867,0.787109
		c0.067383,0.064453-0.025391,0.0625-0.025391,0.0625c-0.283203-0.041992-0.543945-0.458984-0.543945-0.458984l0.038086,0.842773
		c0.132813,0.34375,0.787109,0.831055,0.787109,0.831055C29.041992,44.537109,28.868164,44.636719,28.868164,44.636719z
		 M27.216797,43.183594c-0.007813,0.005859-0.016602,0.011719-0.022461,0.018555
		C27.194336,43.202148,27.203125,43.195313,27.216797,43.183594z M27.296875,43.108398
		c-0.03125,0.02832-0.0625,0.056641-0.080078,0.075195C27.246094,43.155273,27.272461,43.130859,27.296875,43.108398z
		 M27.365234,43.042969c-0.018555,0.019531-0.043945,0.041016-0.068359,0.06543
		C27.319336,43.087891,27.34375,43.06543,27.365234,43.042969z M27.417969,42.996094
		c-0.015625,0.016602-0.033203,0.032227-0.052734,0.046875C27.384766,43.024414,27.402344,43.009766,27.417969,42.996094z
		 M27.417969,42.996094c0.006836-0.005859,0.012695-0.011719,0.019531-0.018555
		C27.430664,42.984375,27.424805,42.990234,27.417969,42.996094z M27.486328,42.931641
		c-0.00293,0.005859-0.011719,0.011719-0.018555,0.017578C27.477539,42.941406,27.483398,42.93457,27.486328,42.931641z"/>
</g>
<g id="coniferoustree_x5F_bd_21_" style="&st0;">
	<path style="&st1;" d="M6.848633,49.085938c-0.390137-0.071289-0.817871-0.762695-0.817871-0.762695l0.040039,1.092773
		c-0.047363,0.176758-0.291992,0.040039-0.291992,0.040039l0.024902-1.032227c-0.313965,0.494141-0.78418,0.693359-0.78418,0.693359
		c-0.142578-0.012695-0.036621-0.09375-0.036621-0.09375c0.730469-0.697266,0.783691-0.985352,0.783691-0.985352
		c0.083008-0.287109,0.056152-0.803711,0.056152-0.803711c-0.361328,0.522461-0.601074,0.557617-0.601074,0.557617
		c-0.064941,0.014648-0.090332,0-0.090332,0c-0.064941-0.043945,0.043457-0.140625,0.043457-0.140625
		C5.267578,47.573242,5.348633,47.5,5.41748,47.427734c0.005859-0.005859,0.009277-0.008789,0.012207-0.012695
		c-0.00293,0.00293-0.007324,0.005859-0.013184,0.012695c0.35791-0.368164,0.398926-0.617188,0.398926-0.617188l0.083984-0.506836
		c0,0,0.020996-0.06543,0.040039,0l0.064941,0.533203c0.083984,0.257813,0.588379,0.787109,0.588379,0.787109
		c0.067871,0.064453-0.025391,0.0625-0.025391,0.0625c-0.282715-0.041992-0.543945-0.458984-0.543945-0.458984l0.038086,0.842773
		c0.132813,0.34375,0.787109,0.831055,0.787109,0.831055C7.021973,48.986328,6.848633,49.085938,6.848633,49.085938z
		 M5.196777,47.632813c-0.007324,0.005859-0.016113,0.011719-0.021973,0.018555
		C5.174805,47.651367,5.183594,47.644531,5.196777,47.632813z M5.277344,47.557617
		c-0.031738,0.02832-0.062988,0.056641-0.080566,0.075195C5.226563,47.604492,5.252441,47.580078,5.277344,47.557617z
		 M5.345703,47.492188c-0.019043,0.019531-0.043945,0.041016-0.068359,0.06543
		C5.299805,47.537109,5.32373,47.514648,5.345703,47.492188z M5.398438,47.445313
		c-0.015625,0.016602-0.033691,0.032227-0.052734,0.046875C5.364746,47.473633,5.382813,47.458984,5.398438,47.445313z
		 M5.398438,47.445313c0.006348-0.005859,0.012207-0.011719,0.019043-0.018555
		C5.410645,47.433594,5.404785,47.439453,5.398438,47.445313z M5.466797,47.380859
		c-0.003418,0.005859-0.012207,0.011719-0.019043,0.017578C5.45752,47.390625,5.463379,47.383789,5.466797,47.380859z"/>
</g>
<g id="coniferoustree_x5F_bd_22_" style="&st0;">
	<path style="&st1;" d="M9.517578,46.814453c-0.390137-0.071289-0.817871-0.762695-0.817871-0.762695l0.040039,1.092773
		c-0.047363,0.176758-0.291992,0.040039-0.291992,0.040039l0.024902-1.032227c-0.313965,0.494141-0.78418,0.693359-0.78418,0.693359
		c-0.142578-0.012695-0.036621-0.09375-0.036621-0.09375c0.730469-0.697266,0.783691-0.985352,0.783691-0.985352
		c0.083008-0.287109,0.056152-0.803711,0.056152-0.803711c-0.361328,0.522461-0.601074,0.557617-0.601074,0.557617
		c-0.064941,0.014648-0.090332,0-0.090332,0c-0.064941-0.043945,0.043457-0.140625,0.043457-0.140625
		c0.092773-0.078125,0.173828-0.151367,0.242676-0.223633c0.005859-0.005859,0.009277-0.008789,0.012207-0.012695
		c-0.00293,0.00293-0.007324,0.005859-0.013184,0.012695c0.35791-0.368164,0.398926-0.617188,0.398926-0.617188l0.083984-0.506836
		c0,0,0.020996-0.06543,0.040039,0L8.67334,44.56543c0.083984,0.257813,0.588379,0.787109,0.588379,0.787109
		c0.067871,0.064453-0.025391,0.0625-0.025391,0.0625c-0.282715-0.041992-0.543945-0.458984-0.543945-0.458984l0.038086,0.842773
		c0.132813,0.34375,0.787109,0.831055,0.787109,0.831055C9.690918,46.714844,9.517578,46.814453,9.517578,46.814453z
		 M7.865723,45.361328c-0.007324,0.005859-0.016113,0.011719-0.021973,0.018555
		C7.84375,45.379883,7.852539,45.373047,7.865723,45.361328z M7.946289,45.286133
		c-0.031738,0.02832-0.062988,0.056641-0.080566,0.075195C7.895508,45.333008,7.921387,45.308594,7.946289,45.286133z
		 M8.014648,45.220703c-0.019043,0.019531-0.043945,0.041016-0.068359,0.06543
		C7.96875,45.265625,7.992676,45.243164,8.014648,45.220703z M8.067383,45.173828
		c-0.015625,0.016602-0.033691,0.032227-0.052734,0.046875C8.033691,45.202148,8.051758,45.1875,8.067383,45.173828z
		 M8.067383,45.173828c0.006348-0.005859,0.012207-0.011719,0.019043-0.018555
		C8.07959,45.162109,8.07373,45.167969,8.067383,45.173828z M8.135742,45.109375
		c-0.003418,0.005859-0.012207,0.011719-0.019043,0.017578C8.126465,45.119141,8.132324,45.112305,8.135742,45.109375z"/>
</g>
<g id="coniferoustree_x5F_bd_23_" style="&st0;">
	<path style="&st1;" d="M5.09375,46.050781c-0.390137-0.071289-0.817871-0.762695-0.817871-0.762695l0.040039,1.092773
		c-0.047363,0.176758-0.291992,0.040039-0.291992,0.040039l0.024902-1.032227c-0.313965,0.494141-0.78418,0.693359-0.78418,0.693359
		c-0.142578-0.012695-0.036621-0.09375-0.036621-0.09375c0.730469-0.697266,0.783691-0.985352,0.783691-0.985352
		c0.083008-0.287109,0.056152-0.803711,0.056152-0.803711c-0.361328,0.522461-0.601074,0.557617-0.601074,0.557617
		c-0.064941,0.014648-0.090332,0-0.090332,0c-0.064941-0.043945,0.043457-0.140625,0.043457-0.140625
		c0.092773-0.078125,0.173828-0.151367,0.242676-0.223633c0.005859-0.005859,0.009277-0.008789,0.012207-0.012695
		c-0.00293,0.00293-0.007324,0.005859-0.013184,0.012695c0.35791-0.368164,0.398926-0.617188,0.398926-0.617188l0.083984-0.506836
		c0,0,0.020996-0.06543,0.040039,0l0.064941,0.533203c0.083984,0.257813,0.588379,0.787109,0.588379,0.787109
		c0.067871,0.064453-0.025391,0.0625-0.025391,0.0625c-0.282715-0.041992-0.543945-0.458984-0.543945-0.458984l0.038086,0.842773
		c0.132813,0.34375,0.787109,0.831055,0.787109,0.831055C5.26709,45.951172,5.09375,46.050781,5.09375,46.050781z
		 M3.441895,44.597656c-0.007324,0.005859-0.016113,0.011719-0.021973,0.018555
		C3.419922,44.616211,3.428711,44.609375,3.441895,44.597656z M3.522461,44.522461
		c-0.031738,0.02832-0.062988,0.056641-0.080566,0.075195C3.47168,44.569336,3.497559,44.544922,3.522461,44.522461z
		 M3.59082,44.457031c-0.019043,0.019531-0.043945,0.041016-0.068359,0.06543
		C3.544922,44.501953,3.568848,44.479492,3.59082,44.457031z M3.643555,44.410156
		c-0.015625,0.016602-0.033691,0.032227-0.052734,0.046875C3.609863,44.438477,3.62793,44.423828,3.643555,44.410156z
		 M3.643555,44.410156c0.006348-0.005859,0.012207-0.011719,0.019043-0.018555
		C3.655762,44.398438,3.649902,44.404297,3.643555,44.410156z M3.711914,44.345703
		c-0.003418,0.005859-0.012207,0.011719-0.019043,0.017578C3.702637,44.355469,3.708496,44.348633,3.711914,44.345703z"/>
</g>
</svg>
