<?xml version="1.0" encoding="utf-8"?>
<!-- Generator: Adobe Illustrator 16.0.3, SVG Export Plug-In . SVG Version: 6.00 Build 0)  -->
<!DOCTYPE svg PUBLIC "-//W3C//DTD SVG 1.1//EN" "http://www.w3.org/Graphics/SVG/1.1/DTD/svg11.dtd" [
	<!ENTITY st0 "enable-background:new    ;">
	<!ENTITY st1 "fill:#6BBE66;">
]>
<svg version="1.1" id="Layer_1" xmlns="http://www.w3.org/2000/svg" xmlns:xlink="http://www.w3.org/1999/xlink" x="0px" y="0px"
	 width="50px" height="50px" viewBox="0 0 50 50" style="enable-background:new 0 0 50 50;" xml:space="preserve">
<g id="scrub_x5F_bd_8_">
	<g id="Scrub_x5F_FC_10_">
		<g id="Deleted_Symbol_1_10_">
			<path style="&st1;" d="M6.785156,41.176758c-0.028809,0-0.053711-0.019531-0.0625-0.046875L6.57373,40.645508
				c-0.010254-0.032227,0.006836-0.067383,0.039063-0.081055l0.07666-0.029297
				c0.012207-0.000977,0.023438-0.001953,0.032227-0.001953c0.036621,0.011719,0.04834,0.026367,0.054688,0.043945
				l0.146973,0.494141c0.009766,0.035156-0.009277,0.071289-0.042969,0.082031
				c-0.041016,0.012695-0.068359,0.018555-0.081055,0.021484L6.785156,41.176758z"/>
			<path style="&st1;" d="M7.705078,41.053711c-0.039063,0-0.070801-0.032227-0.071777-0.072266l-0.006348-0.49707
				c0-0.039063-0.013672-0.057617-0.024902-0.069336c-0.013672-0.014648-0.035645-0.022461-0.060059-0.022461
				c-0.023926,0-0.063965,0.007813-0.11377,0.048828c-0.013184,0.009766-0.027832,0.014648-0.044922,0.014648
				c-0.038086-0.004883-0.052246-0.019531-0.059082-0.03125L7.27832,40.356445
				c-0.021973-0.033203-0.01416-0.076172,0.019043-0.099609c0.085938-0.060547,0.174805-0.09375,0.255859-0.09375
				c0.085938,0,0.162109,0.038086,0.217773,0.109375c0.047852,0.063477,0.072754,0.134766,0.072754,0.211914l0.005859,0.461914
				l0.005859,0.037109c0,0.037109-0.032715,0.069336-0.071289,0.070313H7.705078z"/>
			<path style="&st1;" d="M9.844238,41.120117c-0.026855-0.005859-0.053223-0.012695-0.076172-0.019531
				c-0.033691-0.010742-0.053711-0.045898-0.043945-0.080078l0.144043-0.496094
				c0.004883-0.017578,0.01709-0.03125,0.032715-0.040039l0.133789,0.023438c0.033203,0.012695,0.05127,0.048828,0.041016,0.082031
				l-0.154785,0.486328c-0.009277,0.02832-0.033691,0.045898-0.060547,0.045898L9.844238,41.120117z"/>
			<path style="&st1;" d="M8.749512,41.011719c-0.046875,0-0.09375-0.017578-0.139648-0.050781
				c0.006836-0.013672-0.174316-0.900391-0.364258-1.183594c-0.024902-0.046875-0.037109-0.09668-0.030762-0.106445
				c0.045898,0.007813,0.09375,0.026367,0.168945,0.072266c0.015137,0.012695,0.185059,0.107422,0.291016,0.600586
				l0.036133,0.116211c0.016602-0.027344,0.044922-1.038086,0.400391-1.194336
				c0.032715-0.020508,0.084961-0.045898,0.111816-0.050781c-0.005859,0.006836-0.01416,0.032227-0.053711,0.09375
				c-0.01123,0.016602-0.214355,0.339844-0.225098,0.792969v0.117188c0.022949-0.013672,0.171875-0.28418,0.44873-0.342773
				c0.033203-0.012695,0.052246-0.015625,0.062988-0.016602c-0.008789,0.004883-0.022949,0.035156-0.09668,0.115234
				c-0.000977,0.000977-0.167969,0.170898-0.461914,0.776367l-0.024414,0.234375
				C8.849121,40.987305,8.806641,41.011719,8.749512,41.011719z"/>
		</g>
	</g>
</g>
<g id="coniferoustree_x5F_bd_8_">
	<g id="ConiferousTree_x5F_FC_10_">
		<g id="Deleted_Symbol_10_">
			<path style="&st1;" d="M11.906738,39.121094c-0.390137-0.071289-0.817871-0.762695-0.817871-0.762695l0.040039,1.092773
				c-0.047363,0.176758-0.291992,0.040039-0.291992,0.040039l0.024902-1.032227
				c-0.313965,0.494141-0.78418,0.693359-0.78418,0.693359c-0.142578-0.012695-0.036621-0.09375-0.036621-0.09375
				c0.730469-0.697266,0.783691-0.985352,0.783691-0.985352c0.083008-0.287109,0.056152-0.803711,0.056152-0.803711
				c-0.361328,0.522461-0.601074,0.557617-0.601074,0.557617c-0.064941,0.014648-0.090332,0-0.090332,0
				c-0.064941-0.043945,0.043457-0.140625,0.043457-0.140625c0.092773-0.078125,0.173828-0.151367,0.242676-0.223633
				c0.005859-0.005859,0.009277-0.008789,0.012207-0.012695c-0.00293,0.00293-0.007324,0.005859-0.013184,0.012695
				c0.35791-0.368164,0.398926-0.617188,0.398926-0.617188l0.083984-0.506836c0,0,0.020996-0.06543,0.040039,0L11.0625,36.87207
				c0.083984,0.257813,0.588379,0.787109,0.588379,0.787109c0.067871,0.064453-0.025391,0.0625-0.025391,0.0625
				c-0.282715-0.041992-0.543945-0.458984-0.543945-0.458984l0.038086,0.842773
				c0.132813,0.34375,0.787109,0.831055,0.787109,0.831055C12.080078,39.021484,11.906738,39.121094,11.906738,39.121094z
				 M10.254883,37.667969c-0.007324,0.005859-0.016113,0.011719-0.021973,0.018555
				C10.23291,37.686523,10.241699,37.679688,10.254883,37.667969z M10.335449,37.592773
				c-0.031738,0.02832-0.062988,0.056641-0.080566,0.075195C10.284668,37.639648,10.310547,37.615234,10.335449,37.592773z
				 M10.403809,37.527344c-0.019043,0.019531-0.043945,0.041016-0.068359,0.06543
				C10.35791,37.572266,10.381836,37.549805,10.403809,37.527344z M10.456543,37.480469
				c-0.015625,0.016602-0.033691,0.032227-0.052734,0.046875C10.422852,37.508789,10.440918,37.494141,10.456543,37.480469z
				 M10.456543,37.480469c0.006348-0.005859,0.012207-0.011719,0.019043-0.018555
				C10.46875,37.46875,10.462891,37.474609,10.456543,37.480469z M10.524902,37.416016
				c-0.003418,0.005859-0.012207,0.011719-0.019043,0.017578C10.515625,37.425781,10.521484,37.418945,10.524902,37.416016z"/>
		</g>
	</g>
</g>
<g id="nonconiferoustree_x5F_bd_8_">
	<g id="NonConiferousTree_x5F_FC_10_">
		<g id="Deleted_Symbol_2_10_">
			<path style="&st1;" d="M7.949219,37.350586c0,0.318359-0.260742,0.579102-0.57666,0.579102
				c-0.104004,0-0.205078-0.035156-0.296387-0.100586c-0.074707,0.132813-0.206055,0.231445-0.355957,0.269531
				c0.00293,0.036133,0.013184,0.137695,0.036133,0.424805v0.00293c0,0.039063-0.025879,0.067383-0.058105,0.087891
				c-0.032715,0.015625-0.071777,0.026367-0.11084,0.026367c-0.032227,0-0.067871-0.009766-0.098145-0.025391
				C6.460449,38.594727,6.4375,38.566406,6.4375,38.527344c0,0,0-0.00293,0.015625-0.431641
				c-0.11377-0.035156-0.224609-0.100586-0.308594-0.195313c-0.095215,0.103516-0.239258,0.169922-0.39502,0.169922
				c-0.300293,0-0.561035-0.260742-0.561035-0.577148c0-0.198242,0.104004-0.37793,0.263672-0.475586
				c-0.012695-0.052734-0.015625-0.105469-0.015625-0.166992c0-0.254883,0.162598-0.456055,0.39502-0.53418
				c0-0.023438,0-0.041992,0-0.072266c0-0.15918,0.058594-0.298828,0.159668-0.401367
				c0.102051-0.100586,0.242188-0.15918,0.401367-0.15918c0.289551,0,0.523926,0.207031,0.556641,0.478516
				c0.025879,0,0.052246,0,0.064941,0c0.319336,0,0.580078,0.260742,0.580078,0.560547
				c0,0.041992-0.012695,0.072266-0.016113,0.111328C7.793457,36.916016,7.949219,37.112305,7.949219,37.350586z
				 M7.754395,37.350586c0-0.163086-0.133301-0.333008-0.315918-0.365234c0,0,0,0-0.072266-0.020508l-0.025879-0.006836
				l0.005859-0.026367c0,0,0,0,0.016113-0.071289c0.02002-0.055664,0.037109-0.087891,0.037109-0.136719
				c0-0.195313-0.166992-0.364258-0.385254-0.364258c-0.032715,0-0.083984,0.00293-0.11084,0.016602h-0.00293H6.896484
				c0,0,0,0-0.104004,0.036133l-0.041992,0.014648l0.005859-0.044922c0,0,0,0,0.01709-0.103516v-0.033203
				c0-0.198242-0.163086-0.365234-0.380859-0.365234c-0.199219,0-0.365234,0.166992-0.365234,0.365234
				c0,0.036133,0,0.084961,0.013184,0.111328l0.00293,0.00293v0.005859c0,0,0,0,0.01709,0.086914l0.005859,0.033203H6.033203
				c0,0,0,0-0.084961,0c-0.183105,0.016602-0.315918,0.182617-0.315918,0.365234c0,0.071289,0,0.117188,0.032227,0.162109v0.004883
				c0,0,0,0,0.035645,0.071289l0.016113,0.029297l-0.033203,0.005859c0,0,0,0-0.067871,0.020508
				c-0.149902,0.064453-0.230957,0.198242-0.230957,0.348633c0,0.21875,0.166016,0.381836,0.365234,0.381836
				c0.132813,0,0.248047-0.064453,0.332031-0.182617c0.00293-0.006836,0.013672-0.026367,0.051758-0.104492l0.022949-0.041992
				l0.021973,0.039063c0,0,0,0,0.072266,0.108398l0.00293,0.00293c0.048828,0.133789,0.183105,0.233398,0.333008,0.233398
				c0.166992,0,0.315918-0.116211,0.349121-0.263672v-0.003906c0,0,0,0,0.035645-0.124023l0.013184-0.041992l0.033203,0.030273
				c0,0,0,0,0.087891,0.09082c0.064941,0.064453,0.166016,0.117188,0.26709,0.117188
				C7.588379,37.731445,7.754395,37.568359,7.754395,37.350586z"/>
		</g>
	</g>
</g>
<g id="scrub_x5F_bd_5_" style="&st0;">
	<g id="Scrub_x5F_FC_7_">
		<g id="Deleted_Symbol_1_7_">
			<path style="&st1;" d="M24.966309,35.901367c-0.028809,0-0.053711-0.019531-0.0625-0.046875l-0.148926-0.484375
				c-0.010254-0.032227,0.006836-0.067383,0.039063-0.081055l0.07666-0.029297
				c0.012207-0.000977,0.023438-0.001953,0.032227-0.001953c0.036621,0.011719,0.04834,0.026367,0.054688,0.043945
				l0.146973,0.494141c0.009766,0.035156-0.009277,0.071289-0.042969,0.082031
				c-0.041016,0.012695-0.068359,0.018555-0.081055,0.021484L24.966309,35.901367z"/>
			<path style="&st1;" d="M25.885742,35.77832c-0.039063,0-0.070313-0.032227-0.071289-0.072266l-0.006836-0.49707
				c0-0.039063-0.013672-0.057617-0.024414-0.069336c-0.013672-0.014648-0.036133-0.022461-0.060547-0.022461
				c-0.023438,0-0.063477,0.007813-0.113281,0.048828c-0.013672,0.009766-0.02832,0.014648-0.044922,0.014648
				c-0.038086-0.004883-0.052734-0.019531-0.05957-0.03125l-0.04541-0.068359
				c-0.021973-0.033203-0.01416-0.076172,0.019043-0.099609c0.085938-0.060547,0.174805-0.09375,0.255859-0.09375
				c0.085938,0,0.162109,0.038086,0.217773,0.109375C26,35.060547,26.025391,35.131836,26.025391,35.208984l0.005859,0.461914
				l0.005859,0.037109c0,0.037109-0.033203,0.069336-0.072266,0.070313H25.885742z"/>
			<path style="&st1;" d="M28.025391,35.844727c-0.027344-0.005859-0.053711-0.012695-0.076172-0.019531
				c-0.03418-0.010742-0.053711-0.045898-0.043945-0.080078l0.143555-0.496094
				c0.004883-0.017578,0.017578-0.03125,0.033203-0.040039l0.133789,0.023438
				c0.033203,0.012695,0.051758,0.048828,0.041016,0.082031l-0.154297,0.486328
				c-0.009766,0.02832-0.03418,0.045898-0.061523,0.045898L28.025391,35.844727z"/>
			<path style="&st1;" d="M26.930664,35.736328c-0.046875,0-0.09375-0.017578-0.139648-0.050781
				c0.006836-0.013672-0.174805-0.900391-0.364258-1.183594c-0.024414-0.046875-0.037109-0.09668-0.030273-0.106445
				c0.045898,0.007813,0.09375,0.026367,0.167969,0.072266c0.015625,0.012695,0.185547,0.107422,0.291016,0.600586
				l0.036133,0.116211c0.016602-0.027344,0.044922-1.038086,0.401367-1.194336
				c0.032227-0.020508,0.084961-0.045898,0.111328-0.050781c-0.005859,0.006836-0.013672,0.032227-0.053711,0.09375
				c-0.010742,0.016602-0.213867,0.339844-0.224609,0.792969v0.117188c0.022461-0.013672,0.171875-0.28418,0.448242-0.342773
				c0.033203-0.012695,0.051758-0.015625,0.0625-0.016602c-0.008789,0.004883-0.022461,0.035156-0.095703,0.115234
				c-0.000977,0.000977-0.167969,0.170898-0.461914,0.776367l-0.024414,0.234375
				C27.030273,35.711914,26.987305,35.736328,26.930664,35.736328z"/>
		</g>
	</g>
</g>
<g id="coniferoustree_x5F_bd_5_" style="&st0;">
	<g id="ConiferousTree_x5F_FC_7_">
		<g id="Deleted_Symbol_7_">
			<path style="&st1;" d="M30.086914,33.845703c-0.390625-0.071289-0.818359-0.762695-0.818359-0.762695l0.040039,1.092773
				c-0.046875,0.176758-0.291016,0.040039-0.291016,0.040039l0.024414-1.032227
				c-0.313477,0.494141-0.78418,0.693359-0.78418,0.693359c-0.142578-0.012695-0.037109-0.09375-0.037109-0.09375
				c0.731445-0.697266,0.78418-0.985352,0.78418-0.985352c0.083008-0.287109,0.056641-0.803711,0.056641-0.803711
				c-0.361328,0.522461-0.601563,0.557617-0.601563,0.557617c-0.064453,0.014648-0.089844,0-0.089844,0
				c-0.06543-0.043945,0.042969-0.140625,0.042969-0.140625c0.092773-0.078125,0.173828-0.151367,0.243164-0.223633
				c0.005859-0.005859,0.008789-0.008789,0.011719-0.012695c-0.00293,0.00293-0.006836,0.005859-0.012695,0.012695
				c0.357422-0.368164,0.398438-0.617188,0.398438-0.617188l0.083984-0.506836c0,0,0.021484-0.06543,0.040039,0l0.064453,0.533203
				c0.083984,0.257813,0.588867,0.787109,0.588867,0.787109c0.067383,0.064453-0.025391,0.0625-0.025391,0.0625
				c-0.283203-0.041992-0.543945-0.458984-0.543945-0.458984l0.038086,0.842773
				c0.132813,0.34375,0.787109,0.831055,0.787109,0.831055C30.260742,33.746094,30.086914,33.845703,30.086914,33.845703z
				 M28.435547,32.392578c-0.007813,0.005859-0.016602,0.011719-0.022461,0.018555
				C28.413086,32.411133,28.421875,32.404297,28.435547,32.392578z M28.515625,32.317383
				c-0.03125,0.02832-0.0625,0.056641-0.080078,0.075195C28.464844,32.364258,28.491211,32.339844,28.515625,32.317383z
				 M28.583984,32.251953c-0.018555,0.019531-0.043945,0.041016-0.068359,0.06543
				C28.538086,32.296875,28.5625,32.274414,28.583984,32.251953z M28.636719,32.205078
				c-0.015625,0.016602-0.033203,0.032227-0.052734,0.046875C28.603516,32.233398,28.621094,32.21875,28.636719,32.205078z
				 M28.636719,32.205078c0.006836-0.005859,0.012695-0.011719,0.019531-0.018555
				C28.649414,32.193359,28.643555,32.199219,28.636719,32.205078z M28.705078,32.140625
				c-0.00293,0.005859-0.011719,0.011719-0.018555,0.017578C28.696289,32.150391,28.702148,32.143555,28.705078,32.140625z"/>
		</g>
	</g>
</g>
<g id="nonconiferoustree_x5F_bd_5_" style="&st0;">
	<g id="NonConiferousTree_x5F_FC_7_">
		<g id="Deleted_Symbol_2_7_">
			<path style="&st1;" d="M26.129883,32.075195c0,0.318359-0.260742,0.579102-0.577148,0.579102
				c-0.103516,0-0.20459-0.035156-0.295898-0.100586c-0.074707,0.132813-0.206055,0.231445-0.355957,0.269531
				c0.00293,0.036133,0.013184,0.137695,0.036133,0.424805v0.00293c0,0.039063-0.025879,0.067383-0.058105,0.087891
				c-0.032715,0.015625-0.071777,0.026367-0.11084,0.026367c-0.032227,0-0.067871-0.009766-0.098145-0.025391
				c-0.028809-0.020508-0.051758-0.048828-0.051758-0.087891c0,0,0-0.00293,0.015625-0.431641
				c-0.11377-0.035156-0.224609-0.100586-0.308594-0.195313c-0.095215,0.103516-0.239258,0.169922-0.39502,0.169922
				c-0.300293,0-0.561035-0.260742-0.561035-0.577148c0-0.198242,0.104004-0.37793,0.263672-0.475586
				c-0.012695-0.052734-0.015625-0.105469-0.015625-0.166992c0-0.254883,0.162598-0.456055,0.39502-0.53418
				c0-0.023438,0-0.041992,0-0.072266c0-0.15918,0.058594-0.298828,0.159668-0.401367
				c0.102051-0.100586,0.242188-0.15918,0.401367-0.15918c0.289551,0,0.523926,0.207031,0.556641,0.478516
				c0.025879,0,0.052246,0,0.064941,0c0.318848,0,0.580566,0.260742,0.580566,0.560547
				c0,0.041992-0.013672,0.072266-0.016602,0.111328C25.974609,31.640625,26.129883,31.836914,26.129883,32.075195z
				 M25.935547,32.075195c0-0.163086-0.133789-0.333008-0.316406-0.365234c0,0,0,0-0.072266-0.020508l-0.025391-0.006836
				l0.005859-0.026367c0,0,0,0,0.015625-0.071289c0.019531-0.055664,0.037109-0.087891,0.037109-0.136719
				c0-0.195313-0.166992-0.364258-0.385254-0.364258c-0.032715,0-0.083984,0.00293-0.11084,0.016602h-0.00293h-0.003906
				c0,0,0,0-0.104004,0.036133l-0.041992,0.014648l0.005859-0.044922c0,0,0,0,0.01709-0.103516v-0.033203
				c0-0.198242-0.163086-0.365234-0.380859-0.365234c-0.199219,0-0.365234,0.166992-0.365234,0.365234
				c0,0.036133,0,0.084961,0.013184,0.111328l0.00293,0.00293v0.005859c0,0,0,0,0.01709,0.086914l0.005859,0.033203h-0.033203
				c0,0,0,0-0.084961,0c-0.183105,0.016602-0.315918,0.182617-0.315918,0.365234c0,0.071289,0,0.117188,0.032227,0.162109v0.004883
				c0,0,0,0,0.035645,0.071289l0.016113,0.029297l-0.033203,0.005859c0,0,0,0-0.067871,0.020508
				c-0.149902,0.064453-0.230957,0.198242-0.230957,0.348633c0,0.21875,0.166016,0.381836,0.365234,0.381836
				c0.132813,0,0.248047-0.064453,0.332031-0.182617c0.00293-0.006836,0.013672-0.026367,0.051758-0.104492l0.022949-0.041992
				l0.021973,0.039063c0,0,0,0,0.072266,0.108398l0.00293,0.00293c0.048828,0.133789,0.183105,0.233398,0.333008,0.233398
				c0.166992,0,0.315918-0.116211,0.349121-0.263672v-0.003906c0,0,0,0,0.035645-0.124023l0.013184-0.041992l0.033203,0.030273
				c0,0,0,0,0.087891,0.09082c0.064941,0.064453,0.166016,0.117188,0.266602,0.117188
				C25.769531,32.456055,25.935547,32.292969,25.935547,32.075195z"/>
		</g>
	</g>
</g>
<g id="scrub_x5F_bd_9_" style="&st0;">
	<g id="Scrub_x5F_FC_11_">
		<g id="Deleted_Symbol_1_11_">
			<path style="&st1;" d="M4.577148,27.219727c-0.028809,0-0.053711-0.019531-0.0625-0.046875l-0.148926-0.484375
				c-0.010254-0.032227,0.006836-0.067383,0.039063-0.081055l0.07666-0.029297
				c0.012207-0.000977,0.023438-0.001953,0.032227-0.001953c0.036621,0.011719,0.04834,0.026367,0.054688,0.043945
				l0.146973,0.494141c0.009766,0.035156-0.009277,0.071289-0.042969,0.082031
				c-0.041016,0.012695-0.068359,0.018555-0.081055,0.021484L4.577148,27.219727z"/>
			<path style="&st1;" d="M5.49707,27.09668c-0.039063,0-0.070801-0.032227-0.071777-0.072266l-0.006348-0.49707
				c0-0.039063-0.013672-0.057617-0.024902-0.069336c-0.013672-0.014648-0.035645-0.022461-0.060059-0.022461
				c-0.023926,0-0.063965,0.007813-0.11377,0.048828c-0.013184,0.009766-0.027832,0.014648-0.044922,0.014648
				c-0.038086-0.004883-0.052246-0.019531-0.059082-0.03125l-0.045898-0.068359
				c-0.021973-0.033203-0.01416-0.076172,0.019043-0.099609c0.085938-0.060547,0.174805-0.09375,0.255859-0.09375
				c0.085938,0,0.162109,0.038086,0.217773,0.109375c0.047852,0.063477,0.072754,0.134766,0.072754,0.211914l0.005859,0.461914
				l0.005859,0.037109c0,0.037109-0.032715,0.069336-0.071289,0.070313H5.49707z"/>
			<path style="&st1;" d="M7.63623,27.163086c-0.026855-0.005859-0.053223-0.012695-0.076172-0.019531
				c-0.033691-0.010742-0.053711-0.045898-0.043945-0.080078l0.144043-0.496094
				c0.004883-0.017578,0.01709-0.03125,0.032715-0.040039l0.133789,0.023438c0.033203,0.012695,0.05127,0.048828,0.041016,0.082031
				l-0.154785,0.486328c-0.009277,0.02832-0.033691,0.045898-0.060547,0.045898L7.63623,27.163086z"/>
			<path style="&st1;" d="M6.541504,27.054688c-0.046875,0-0.09375-0.017578-0.139648-0.050781
				c0.006836-0.013672-0.174316-0.900391-0.364258-1.183594c-0.024902-0.046875-0.037109-0.09668-0.030762-0.106445
				c0.045898,0.007813,0.09375,0.026367,0.168945,0.072266c0.015137,0.012695,0.185059,0.107422,0.291016,0.600586L6.50293,26.50293
				c0.016602-0.027344,0.044922-1.037598,0.400391-1.193848c0.032715-0.020508,0.084961-0.045898,0.111816-0.050781
				c-0.005859,0.006836-0.01416,0.032227-0.053711,0.09375c-0.01123,0.016602-0.214355,0.339355-0.225098,0.79248v0.117188
				c0.022949-0.013672,0.171875-0.28418,0.44873-0.342773c0.033203-0.012695,0.052246-0.015625,0.062988-0.016602
				c-0.008789,0.004883-0.022949,0.035156-0.09668,0.115234c-0.000977,0.000977-0.167969,0.170898-0.461914,0.776367
				L6.665039,27.02832C6.641113,27.030273,6.598633,27.054688,6.541504,27.054688z"/>
		</g>
	</g>
</g>
<g id="coniferoustree_x5F_bd_9_" style="&st0;">
	<g id="ConiferousTree_x5F_FC_11_">
		<g id="Deleted_Symbol_11_">
			<path style="&st1;" d="M9.69873,25.164063c-0.390137-0.071289-0.817871-0.762207-0.817871-0.762207l0.040039,1.092285
				c-0.047363,0.176758-0.291992,0.040039-0.291992,0.040039l0.024902-1.031738
				c-0.313965,0.493652-0.78418,0.692871-0.78418,0.692871c-0.142578-0.012695-0.036621-0.09375-0.036621-0.09375
				c0.730469-0.696777,0.783691-0.984863,0.783691-0.984863c0.083008-0.287109,0.056152-0.803711,0.056152-0.803711
				c-0.361328,0.522461-0.601074,0.557617-0.601074,0.557617c-0.064941,0.014648-0.090332,0-0.090332,0
				C7.916504,23.82666,8.024902,23.72998,8.024902,23.72998c0.092773-0.078125,0.173828-0.151367,0.242676-0.223633
				c0.005859-0.005859,0.009277-0.008789,0.012207-0.012695c-0.00293,0.00293-0.007324,0.005859-0.013184,0.012695
				c0.35791-0.368164,0.398926-0.616699,0.398926-0.616699l0.083984-0.506836c0,0,0.020996-0.06543,0.040039,0l0.064941,0.533203
				c0.083984,0.257324,0.588379,0.786621,0.588379,0.786621c0.067871,0.064453-0.025391,0.0625-0.025391,0.0625
				c-0.282715-0.041992-0.543945-0.458984-0.543945-0.458984l0.038086,0.842773
				c0.132813,0.34375,0.787109,0.830566,0.787109,0.830566C9.87207,25.064453,9.69873,25.164063,9.69873,25.164063z
				 M8.046875,23.711426c-0.007324,0.005859-0.016113,0.011719-0.021973,0.018555
				C8.024902,23.72998,8.033691,23.723145,8.046875,23.711426z M8.127441,23.63623
				c-0.031738,0.02832-0.062988,0.056641-0.080566,0.075195C8.07666,23.683105,8.102539,23.658691,8.127441,23.63623z
				 M8.195801,23.570801c-0.019043,0.019531-0.043945,0.041016-0.068359,0.06543
				C8.149902,23.615723,8.173828,23.593262,8.195801,23.570801z M8.248535,23.523926
				c-0.015625,0.016602-0.033691,0.032227-0.052734,0.046875C8.214844,23.552246,8.23291,23.537598,8.248535,23.523926z
				 M8.248535,23.523926c0.006348-0.005859,0.012207-0.011719,0.019043-0.018555
				C8.260742,23.512207,8.254883,23.518066,8.248535,23.523926z M8.316895,23.459473
				c-0.003418,0.005859-0.012207,0.011719-0.019043,0.017578C8.307617,23.469238,8.313477,23.462402,8.316895,23.459473z"/>
		</g>
	</g>
</g>
<g id="nonconiferoustree_x5F_bd_9_" style="&st0;">
	<g id="NonConiferousTree_x5F_FC_11_">
		<g id="Deleted_Symbol_2_11_">
			<path style="&st1;" d="M5.741211,23.394043c0,0.318359-0.260742,0.579102-0.57666,0.579102
				c-0.104004,0-0.205078-0.035156-0.296387-0.100586c-0.074707,0.132813-0.206055,0.231445-0.355957,0.269531
				c0.00293,0.036133,0.013184,0.137695,0.036133,0.424805v0.00293c0,0.039063-0.025879,0.067383-0.058105,0.087891
				c-0.032715,0.015625-0.071777,0.026367-0.11084,0.026367c-0.032227,0-0.067871-0.009766-0.098145-0.025391
				c-0.028809-0.020508-0.051758-0.048828-0.051758-0.087891c0,0,0-0.00293,0.015625-0.431641
				c-0.11377-0.035156-0.224609-0.100586-0.308594-0.195313c-0.095215,0.103516-0.239258,0.169922-0.39502,0.169922
				c-0.300293,0-0.561035-0.260742-0.561035-0.577148c0-0.198242,0.104004-0.37793,0.263672-0.475586
				c-0.012695-0.052734-0.015625-0.105469-0.015625-0.166992c0-0.254883,0.162598-0.456055,0.39502-0.53418
				c0-0.023438,0-0.041992,0-0.072266c0-0.15918,0.058594-0.298828,0.159668-0.401367
				c0.102051-0.100586,0.242188-0.15918,0.401367-0.15918c0.289551,0,0.523926,0.207031,0.556641,0.478516
				c0.025879,0,0.052246,0,0.064941,0c0.319336,0,0.580078,0.260742,0.580078,0.560547
				c0,0.041992-0.012695,0.072266-0.016113,0.111328C5.585449,22.959473,5.741211,23.155762,5.741211,23.394043z
				 M5.546387,23.394043c0-0.163086-0.133301-0.333008-0.315918-0.365234c0,0,0,0-0.072266-0.020508l-0.025879-0.006836
				l0.005859-0.026367c0,0,0,0,0.016113-0.071289c0.02002-0.055664,0.037109-0.087891,0.037109-0.136719
				c0-0.195313-0.166992-0.364258-0.385254-0.364258c-0.032715,0-0.083984,0.00293-0.11084,0.016602h-0.00293H4.688477
				c0,0,0,0-0.104004,0.036133L4.54248,22.470215l0.005859-0.044922c0,0,0,0,0.01709-0.103516v-0.033203
				c0-0.198242-0.163086-0.365234-0.380859-0.365234c-0.199219,0-0.365234,0.166992-0.365234,0.365234
				c0,0.036133,0,0.084961,0.013184,0.111328l0.00293,0.00293v0.005859c0,0,0,0,0.01709,0.086914l0.005859,0.033203H3.825195
				c0,0,0,0-0.084961,0c-0.183105,0.016602-0.315918,0.182617-0.315918,0.365234c0,0.071289,0,0.117188,0.032227,0.162109v0.004883
				c0,0,0,0,0.035645,0.071289l0.016113,0.029297L3.475098,23.16748c0,0,0,0-0.067871,0.020508
				C3.257324,23.252441,3.17627,23.38623,3.17627,23.536621c0,0.21875,0.166016,0.381836,0.365234,0.381836
				c0.132813,0,0.248047-0.064453,0.332031-0.182617c0.00293-0.006836,0.013672-0.026367,0.051758-0.104492l0.022949-0.041992
				l0.021973,0.039063c0,0,0,0,0.072266,0.108398l0.00293,0.00293c0.048828,0.133789,0.183105,0.233398,0.333008,0.233398
				c0.166992,0,0.315918-0.116211,0.349121-0.263672v-0.003906c0,0,0,0,0.035645-0.124023l0.013184-0.041992l0.033203,0.030273
				c0,0,0,0,0.087891,0.09082c0.064941,0.064453,0.166016,0.117188,0.26709,0.117188
				C5.380371,23.774902,5.546387,23.611816,5.546387,23.394043z"/>
		</g>
	</g>
</g>
<g id="scrub_x5F_bd_10_" style="&st0;">
	<g id="Scrub_x5F_FC_12_">
		<g id="Deleted_Symbol_1_12_">
			<path style="&st1;" d="M8.969727,16.809082c-0.028809,0-0.053711-0.019531-0.0625-0.046875L8.758301,16.27832
				c-0.010254-0.032227,0.006836-0.067383,0.039063-0.081055l0.07666-0.029297
				c0.012207-0.000977,0.023438-0.001953,0.032227-0.001953c0.036621,0.011719,0.04834,0.026367,0.054688,0.043945
				l0.146973,0.493652c0.009766,0.035156-0.009277,0.071289-0.042969,0.082031
				c-0.041016,0.012695-0.068359,0.018555-0.081055,0.021484L8.969727,16.809082z"/>
			<path style="&st1;" d="M9.889648,16.686035c-0.039063,0-0.070801-0.032227-0.071777-0.072266l-0.006348-0.496582
				c0-0.039063-0.013672-0.057617-0.024902-0.069336c-0.013672-0.014648-0.035645-0.022461-0.060059-0.022461
				c-0.023926,0-0.063965,0.007813-0.11377,0.048828c-0.013184,0.009766-0.027832,0.014648-0.044922,0.014648
				c-0.038086-0.004883-0.052246-0.019531-0.059082-0.03125l-0.045898-0.068359
				c-0.021973-0.033203-0.01416-0.076172,0.019043-0.099609c0.085938-0.060547,0.174805-0.09375,0.255859-0.09375
				c0.085938,0,0.162109,0.038086,0.217773,0.109375c0.047852,0.063477,0.072754,0.134766,0.072754,0.211914l0.005859,0.461426
				l0.005859,0.037109c0,0.037109-0.032715,0.069336-0.071289,0.070313H9.889648z"/>
			<path style="&st1;" d="M12.028809,16.752441c-0.026855-0.005859-0.053223-0.012695-0.076172-0.019531
				c-0.033691-0.010742-0.053711-0.045898-0.043945-0.080078l0.144043-0.495605
				c0.004883-0.017578,0.01709-0.03125,0.032715-0.040039l0.133789,0.023438c0.033203,0.012695,0.05127,0.048828,0.041016,0.082031
				l-0.154785,0.48584c-0.009277,0.02832-0.033691,0.045898-0.060547,0.045898L12.028809,16.752441z"/>
			<path style="&st1;" d="M10.934082,16.644043c-0.046875,0-0.09375-0.017578-0.139648-0.050781
				c0.006836-0.013672-0.174316-0.899902-0.364258-1.183105c-0.024902-0.046875-0.037109-0.09668-0.030762-0.105957
				c0.045898,0.007324,0.09375,0.025879,0.168945,0.071777c0.015137,0.012695,0.185059,0.107422,0.291016,0.600586
				l0.036133,0.116211c0.016602-0.027344,0.044922-1.037598,0.400391-1.193848
				c0.032715-0.020508,0.084961-0.045898,0.111816-0.050781c-0.005859,0.006836-0.01416,0.032227-0.053711,0.09375
				c-0.01123,0.016602-0.214355,0.339844-0.225098,0.79248v0.117188c0.022949-0.013672,0.171875-0.28418,0.44873-0.342773
				c0.033203-0.012695,0.052246-0.015625,0.062988-0.016602c-0.008789,0.004883-0.022949,0.035156-0.09668,0.115234
				c-0.000977,0.000977-0.167969,0.170898-0.461914,0.775879l-0.024414,0.234375
				C11.033691,16.619629,10.991211,16.644043,10.934082,16.644043z"/>
		</g>
	</g>
</g>
<g id="coniferoustree_x5F_bd_10_" style="&st0;">
	<g id="ConiferousTree_x5F_FC_12_">
		<g id="Deleted_Symbol_12_">
			<path style="&st1;" d="M14.09082,14.753906c-0.390137-0.071289-0.817871-0.762207-0.817871-0.762207l0.040039,1.092285
				c-0.047363,0.176758-0.291992,0.040039-0.291992,0.040039l0.024902-1.031738
				c-0.313965,0.493652-0.78418,0.692871-0.78418,0.692871c-0.142578-0.012695-0.036621-0.09375-0.036621-0.09375
				c0.730469-0.696777,0.783691-0.984863,0.783691-0.984863c0.083008-0.287109,0.056152-0.803711,0.056152-0.803711
				c-0.361328,0.522461-0.601074,0.557617-0.601074,0.557617c-0.064941,0.014648-0.090332,0-0.090332,0
				c-0.064941-0.043945,0.043457-0.140625,0.043457-0.140625c0.092773-0.078125,0.173828-0.151367,0.242676-0.223633
				c0.005859-0.005859,0.009277-0.008789,0.012207-0.012695c-0.00293,0.00293-0.007324,0.005859-0.013184,0.012695
				c0.35791-0.368164,0.398926-0.616699,0.398926-0.616699l0.083984-0.506836c0,0,0.020996-0.06543,0.040039,0l0.064941,0.533203
				c0.083984,0.257324,0.588379,0.786621,0.588379,0.786621c0.067871,0.064453-0.025391,0.0625-0.025391,0.0625
				c-0.282715-0.041992-0.543945-0.458984-0.543945-0.458984l0.038086,0.842773
				c0.132813,0.34375,0.787109,0.830566,0.787109,0.830566C14.26416,14.654297,14.09082,14.753906,14.09082,14.753906z
				 M12.438965,13.30127c-0.007324,0.005859-0.016113,0.011719-0.021973,0.018555
				C12.416992,13.319824,12.425781,13.312988,12.438965,13.30127z M12.519531,13.226074
				c-0.031738,0.02832-0.062988,0.056641-0.080566,0.075195C12.46875,13.272949,12.494629,13.248535,12.519531,13.226074z
				 M12.587891,13.160645c-0.019043,0.019531-0.043945,0.041016-0.068359,0.06543
				C12.541992,13.205566,12.565918,13.183105,12.587891,13.160645z M12.640625,13.11377
				c-0.015625,0.016602-0.033691,0.032227-0.052734,0.046875C12.606934,13.14209,12.625,13.127441,12.640625,13.11377z
				 M12.640625,13.11377c0.006348-0.005859,0.012207-0.011719,0.019043-0.018555
				C12.652832,13.102051,12.646973,13.10791,12.640625,13.11377z M12.708984,13.049316
				c-0.003418,0.005859-0.012207,0.011719-0.019043,0.017578C12.699707,13.059082,12.705566,13.052246,12.708984,13.049316z"/>
		</g>
	</g>
</g>
<g id="nonconiferoustree_x5F_bd_10_" style="&st0;">
	<g id="NonConiferousTree_x5F_FC_12_">
		<g id="Deleted_Symbol_2_12_">
			<path style="&st1;" d="M10.133789,12.983887c0,0.318359-0.260742,0.579102-0.57666,0.579102
				c-0.104004,0-0.205078-0.035156-0.296387-0.100586c-0.074707,0.132813-0.206055,0.231445-0.355957,0.269531
				c0.00293,0.036133,0.013184,0.137695,0.036133,0.424805v0.00293c0,0.039063-0.025879,0.067383-0.058105,0.087891
				c-0.032715,0.015625-0.071777,0.026367-0.11084,0.026367c-0.032227,0-0.067871-0.009766-0.098145-0.025391
				C8.64502,14.228027,8.62207,14.199707,8.62207,14.160645c0,0,0-0.00293,0.015625-0.431641
				c-0.11377-0.035156-0.224609-0.100586-0.308594-0.195313c-0.095215,0.103516-0.239258,0.169922-0.39502,0.169922
				c-0.300293,0-0.561035-0.260742-0.561035-0.577148c0-0.198242,0.104004-0.37793,0.263672-0.475586
				c-0.012695-0.052734-0.015625-0.105469-0.015625-0.166992c0-0.254883,0.162598-0.456055,0.39502-0.53418
				c0-0.023438,0-0.041992,0-0.072266c0-0.15918,0.058594-0.298828,0.159668-0.401367
				c0.102051-0.100586,0.242188-0.15918,0.401367-0.15918c0.289551,0,0.523926,0.207031,0.556641,0.478516
				c0.025879,0,0.052246,0,0.064941,0c0.319336,0,0.580078,0.260742,0.580078,0.560547
				c0,0.041992-0.012695,0.072266-0.016113,0.111328C9.978027,12.549316,10.133789,12.745605,10.133789,12.983887z
				 M9.938965,12.983887c0-0.163086-0.133301-0.333008-0.315918-0.365234c0,0,0,0-0.072266-0.020508l-0.025879-0.006836
				l0.005859-0.026367c0,0,0,0,0.016113-0.071289c0.02002-0.055664,0.037109-0.087891,0.037109-0.136719
				c0-0.195313-0.166992-0.364258-0.385254-0.364258c-0.032715,0-0.083984,0.00293-0.11084,0.016602h-0.00293H9.081055
				c0,0,0,0-0.104004,0.036133l-0.041992,0.014648l0.005859-0.044922c0,0,0,0,0.01709-0.103516v-0.033203
				c0-0.198242-0.163086-0.365234-0.380859-0.365234c-0.199219,0-0.365234,0.166992-0.365234,0.365234
				c0,0.036133,0,0.084961,0.013184,0.111328l0.00293,0.00293v0.005859c0,0,0,0,0.01709,0.086914l0.005859,0.033203H8.217773
				c0,0,0,0-0.084961,0c-0.183105,0.016602-0.315918,0.182617-0.315918,0.365234c0,0.071289,0,0.117188,0.032227,0.162109v0.004883
				c0,0,0,0,0.035645,0.071289l0.016113,0.029297l-0.033203,0.005859c0,0,0,0-0.067871,0.020508
				c-0.149902,0.064453-0.230957,0.198242-0.230957,0.348633c0,0.21875,0.166016,0.381836,0.365234,0.381836
				c0.132813,0,0.248047-0.064453,0.332031-0.182617c0.00293-0.006836,0.013672-0.026367,0.051758-0.104492l0.022949-0.041992
				l0.021973,0.039063c0,0,0,0,0.072266,0.108398l0.00293,0.00293c0.048828,0.133789,0.183105,0.233398,0.333008,0.233398
				c0.166992,0,0.315918-0.116211,0.349121-0.263672V13.29541c0,0,0,0,0.035645-0.124023l0.013184-0.041992l0.033203,0.030273
				c0,0,0,0,0.087891,0.09082c0.064941,0.064453,0.166016,0.117188,0.26709,0.117188
				C9.772949,13.364746,9.938965,13.20166,9.938965,12.983887z"/>
		</g>
	</g>
</g>
<g id="scrub_x5F_bd_1_" style="&st0;">
	<g id="Scrub_x5F_FC_3_">
		<g id="Deleted_Symbol_1_3_">
			<path style="&st1;" d="M24.253418,7.025879c-0.028809,0-0.053711-0.019531-0.0625-0.046875l-0.148926-0.483887
				c-0.010254-0.032227,0.006836-0.067383,0.039063-0.081055l0.07666-0.029297
				c0.012207-0.000977,0.023438-0.001953,0.032227-0.001953c0.036621,0.011719,0.04834,0.026367,0.054688,0.043945
				l0.146973,0.493652c0.009766,0.035156-0.009277,0.071289-0.042969,0.082031
				c-0.041016,0.012695-0.068359,0.018555-0.081055,0.021484L24.253418,7.025879z"/>
			<path style="&st1;" d="M25.17334,6.902832c-0.039063,0-0.070801-0.032227-0.071777-0.072266l-0.006348-0.496582
				c0-0.039063-0.013672-0.057617-0.024902-0.069336C25.056641,6.25,25.034668,6.242188,25.010254,6.242188
				c-0.023926,0-0.063965,0.007813-0.11377,0.048828c-0.013184,0.009766-0.027832,0.014648-0.044922,0.014648
				c-0.038086-0.004883-0.052246-0.019531-0.059082-0.03125l-0.045898-0.068359
				c-0.021973-0.033203-0.01416-0.076172,0.019043-0.099609c0.085938-0.060547,0.174805-0.09375,0.255859-0.09375
				c0.085938,0,0.162109,0.038086,0.217773,0.109375c0.047852,0.063477,0.072754,0.134766,0.072754,0.211914l0.005859,0.461426
				L25.32373,6.83252c0,0.037109-0.032715,0.069336-0.071289,0.070313H25.17334z"/>
			<path style="&st1;" d="M27.3125,6.969238c-0.027344-0.005859-0.053711-0.012695-0.076172-0.019531
				c-0.03418-0.010742-0.053711-0.045898-0.043945-0.080078l0.143555-0.495605
				c0.004883-0.017578,0.017578-0.03125,0.033203-0.040039l0.133789,0.023438
				c0.033203,0.012695,0.051758,0.048828,0.041016,0.082031l-0.154297,0.48584
				c-0.009766,0.02832-0.03418,0.045898-0.061523,0.045898L27.3125,6.969238z"/>
			<path style="&st1;" d="M26.217773,6.86084c-0.046875,0-0.09375-0.017578-0.139648-0.050781
				c0.006836-0.013672-0.174805-0.899902-0.364258-1.183105c-0.024414-0.046875-0.037109-0.09668-0.030273-0.105957
				c0.045898,0.007324,0.09375,0.025879,0.167969,0.071777c0.015625,0.012695,0.185547,0.107422,0.291016,0.600586
				l0.036133,0.116211c0.016602-0.027344,0.044922-1.037598,0.401367-1.193848
				c0.032227-0.020508,0.084961-0.045898,0.111328-0.050781c-0.005859,0.006836-0.013672,0.032227-0.053711,0.09375
				c-0.010742,0.016602-0.213867,0.339844-0.224609,0.79248v0.117188c0.022461-0.013672,0.171875-0.28418,0.448242-0.342773
				c0.033203-0.012695,0.051758-0.015625,0.0625-0.016602c-0.008789,0.004883-0.022461,0.035156-0.095703,0.115234
				c-0.000977,0.000977-0.167969,0.170898-0.461914,0.775879l-0.024414,0.234375
				C26.317383,6.836426,26.274414,6.86084,26.217773,6.86084z"/>
		</g>
	</g>
</g>
<g id="coniferoustree_x5F_bd_1_" style="&st0;">
	<g id="ConiferousTree_x5F_FC_3_">
		<g id="Deleted_Symbol_3_">
			<path style="&st1;" d="M29.375977,4.970703c-0.390625-0.071289-0.818359-0.762207-0.818359-0.762207l0.040039,1.092285
				c-0.046875,0.176758-0.291016,0.040039-0.291016,0.040039l0.024414-1.031738
				c-0.313477,0.493652-0.78418,0.692871-0.78418,0.692871c-0.142578-0.012695-0.037109-0.09375-0.037109-0.09375
				c0.731445-0.696777,0.78418-0.984863,0.78418-0.984863c0.083008-0.287109,0.056641-0.803711,0.056641-0.803711
				c-0.361328,0.522461-0.601563,0.557617-0.601563,0.557617c-0.064453,0.014648-0.089844,0-0.089844,0
				c-0.06543-0.043945,0.042969-0.140625,0.042969-0.140625c0.092773-0.078125,0.173828-0.151367,0.243164-0.223633
				c0.005859-0.005859,0.008789-0.008789,0.011719-0.012695c-0.00293,0.00293-0.006836,0.005859-0.012695,0.012695
				c0.357422-0.368164,0.398438-0.616699,0.398438-0.616699l0.083984-0.506836c0,0,0.021484-0.06543,0.040039,0l0.064453,0.533203
				c0.083984,0.257324,0.588867,0.786621,0.588867,0.786621c0.067383,0.064453-0.025391,0.0625-0.025391,0.0625
				c-0.283203-0.041992-0.543945-0.458984-0.543945-0.458984l0.038086,0.842773
				c0.132813,0.34375,0.787109,0.830566,0.787109,0.830566C29.549805,4.871094,29.375977,4.970703,29.375977,4.970703z
				 M27.724609,3.518066c-0.007813,0.005859-0.016602,0.011719-0.022461,0.018555
				C27.702148,3.536621,27.710938,3.529785,27.724609,3.518066z M27.804688,3.442871
				c-0.03125,0.02832-0.0625,0.056641-0.080078,0.075195C27.753906,3.489746,27.780273,3.465332,27.804688,3.442871z
				 M27.873047,3.377441c-0.018555,0.019531-0.043945,0.041016-0.068359,0.06543
				C27.827148,3.422363,27.851563,3.399902,27.873047,3.377441z M27.925781,3.330566
				c-0.015625,0.016602-0.033203,0.032227-0.052734,0.046875C27.892578,3.358887,27.910156,3.344238,27.925781,3.330566z
				 M27.925781,3.330566c0.006836-0.005859,0.012695-0.011719,0.019531-0.018555
				C27.938477,3.318848,27.932617,3.324707,27.925781,3.330566z M27.994141,3.266113
				c-0.00293,0.005859-0.011719,0.011719-0.018555,0.017578C27.985352,3.275879,27.991211,3.269043,27.994141,3.266113z"/>
		</g>
	</g>
</g>
<g id="nonconiferoustree_x5F_bd_1_" style="&st0;">
	<g id="NonConiferousTree_x5F_FC_3_">
		<g id="Deleted_Symbol_2_3_">
			<path style="&st1;" d="M25.41748,3.200684c0,0.318359-0.260742,0.579102-0.57666,0.579102
				c-0.104004,0-0.205078-0.035156-0.296387-0.100586c-0.074707,0.132813-0.206055,0.231445-0.355957,0.269531
				c0.00293,0.036133,0.013184,0.137695,0.036133,0.424805v0.00293c0,0.039063-0.025879,0.067383-0.058105,0.087891
				c-0.032715,0.015625-0.071777,0.026367-0.11084,0.026367c-0.032227,0-0.067871-0.009766-0.098145-0.025391
				c-0.028809-0.020508-0.051758-0.048828-0.051758-0.087891c0,0,0-0.00293,0.015625-0.431641
				c-0.11377-0.035156-0.224609-0.100586-0.308594-0.195313c-0.095215,0.103516-0.239258,0.169922-0.39502,0.169922
				c-0.300293,0-0.561035-0.260742-0.561035-0.577148c0-0.198242,0.104004-0.37793,0.263672-0.475586
				c-0.012695-0.052734-0.015625-0.105469-0.015625-0.166992c0-0.254883,0.162598-0.456055,0.39502-0.53418
				c0-0.023438,0-0.041992,0-0.072266c0-0.15918,0.058594-0.298828,0.159668-0.401367
				c0.102051-0.100586,0.242188-0.15918,0.401367-0.15918c0.289551,0,0.523926,0.207031,0.556641,0.478516
				c0.025879,0,0.052246,0,0.064941,0c0.319336,0,0.580078,0.260742,0.580078,0.560547
				c0,0.041992-0.012695,0.072266-0.016113,0.111328C25.261719,2.766113,25.41748,2.962402,25.41748,3.200684z M25.222656,3.200684
				c0-0.163086-0.133301-0.333008-0.315918-0.365234c0,0,0,0-0.072266-0.020508l-0.025879-0.006836l0.005859-0.026367
				c0,0,0,0,0.016113-0.071289c0.02002-0.055664,0.037109-0.087891,0.037109-0.136719
				c0-0.195313-0.166992-0.364258-0.385254-0.364258c-0.032715,0-0.083984,0.00293-0.11084,0.016602h-0.00293h-0.003906
				c0,0,0,0-0.104004,0.036133L24.21875,2.276855l0.005859-0.044922c0,0,0,0,0.01709-0.103516V2.095215
				c0-0.198242-0.163086-0.365234-0.380859-0.365234c-0.199219,0-0.365234,0.166992-0.365234,0.365234
				c0,0.036133,0,0.084961,0.013184,0.111328l0.00293,0.00293v0.005859c0,0,0,0,0.01709,0.086914l0.005859,0.033203h-0.033203
				c0,0,0,0-0.084961,0c-0.183105,0.016602-0.315918,0.182617-0.315918,0.365234c0,0.071289,0,0.117188,0.032227,0.162109v0.004883
				c0,0,0,0,0.035645,0.071289l0.016113,0.029297l-0.033203,0.005859c0,0,0,0-0.067871,0.020508
				c-0.149902,0.064453-0.230957,0.198242-0.230957,0.348633c0,0.21875,0.166016,0.381836,0.365234,0.381836
				c0.132813,0,0.248047-0.064453,0.332031-0.182617c0.00293-0.006836,0.013672-0.026367,0.051758-0.104492l0.022949-0.041992
				l0.021973,0.039063c0,0,0,0,0.072266,0.108398l0.00293,0.00293c0.048828,0.133789,0.183105,0.233398,0.333008,0.233398
				c0.166992,0,0.315918-0.116211,0.349121-0.263672V3.512207c0,0,0,0,0.035645-0.124023l0.013184-0.041992l0.033203,0.030273
				c0,0,0,0,0.087891,0.09082c0.064941,0.064453,0.166016,0.117188,0.26709,0.117188
				C25.056641,3.581543,25.222656,3.418457,25.222656,3.200684z"/>
		</g>
	</g>
</g>
<g id="scrub_x5F_bd_2_" style="&st0;">
	<g id="Scrub_x5F_FC_4_">
		<g id="Deleted_Symbol_1_4_">
			<path style="&st1;" d="M35.4375,15.072754c-0.029297,0-0.054688-0.019531-0.063477-0.046875l-0.148438-0.483887
				c-0.010742-0.032227,0.006836-0.067383,0.039063-0.081055l0.076172-0.029297
				c0.012695-0.000977,0.023438-0.001953,0.032227-0.001953c0.037109,0.011719,0.048828,0.026367,0.055664,0.043945
				l0.146484,0.493652c0.009766,0.035156-0.008789,0.071289-0.042969,0.082031
				c-0.041016,0.012695-0.068359,0.018555-0.081055,0.021484L35.4375,15.072754z"/>
			<path style="&st1;" d="M36.356445,14.949707c-0.039063,0-0.070313-0.032227-0.071289-0.072266l-0.006836-0.496582
				c0-0.039063-0.013672-0.057617-0.024414-0.069336c-0.013672-0.014648-0.036133-0.022461-0.060547-0.022461
				c-0.023438,0-0.063477,0.007813-0.113281,0.048828c-0.013672,0.009766-0.02832,0.014648-0.044922,0.014648
				c-0.038086-0.004883-0.052734-0.019531-0.05957-0.03125l-0.045898-0.068359
				c-0.021484-0.033203-0.013672-0.076172,0.019531-0.099609c0.085938-0.060547,0.174805-0.09375,0.255859-0.09375
				c0.085938,0,0.162109,0.038086,0.217773,0.109375c0.047852,0.063477,0.073242,0.134766,0.073242,0.211914l0.005859,0.461426
				l0.005859,0.037109c0,0.037109-0.033203,0.069336-0.072266,0.070313H36.356445z"/>
			<path style="&st1;" d="M38.496094,15.016113c-0.027344-0.005859-0.053711-0.012695-0.076172-0.019531
				c-0.03418-0.010742-0.053711-0.045898-0.043945-0.080078l0.143555-0.495605
				c0.004883-0.017578,0.017578-0.03125,0.033203-0.040039l0.133789,0.023438
				c0.033203,0.012695,0.051758,0.048828,0.041016,0.082031l-0.154297,0.48584
				c-0.009766,0.02832-0.03418,0.045898-0.061523,0.045898L38.496094,15.016113z"/>
			<path style="&st1;" d="M37.401367,14.907715c-0.046875,0-0.09375-0.017578-0.139648-0.050781
				c0.006836-0.013672-0.174805-0.899902-0.364258-1.183105c-0.024414-0.046875-0.037109-0.09668-0.030273-0.105957
				c0.045898,0.007324,0.09375,0.025879,0.167969,0.071777c0.015625,0.012695,0.185547,0.107422,0.291016,0.600586
				l0.036133,0.116211c0.016602-0.027344,0.044922-1.037598,0.401367-1.193848
				c0.032227-0.020508,0.084961-0.045898,0.111328-0.050781c-0.005859,0.006836-0.013672,0.032227-0.053711,0.09375
				c-0.010742,0.016602-0.213867,0.339844-0.224609,0.79248v0.117188c0.022461-0.013672,0.171875-0.28418,0.448242-0.342773
				c0.033203-0.012695,0.051758-0.015625,0.0625-0.016602c-0.008789,0.004883-0.022461,0.035156-0.095703,0.115234
				c-0.000977,0.000977-0.167969,0.170898-0.461914,0.775879l-0.024414,0.234375
				C37.500977,14.883301,37.458008,14.907715,37.401367,14.907715z"/>
		</g>
	</g>
</g>
<g id="coniferoustree_x5F_bd_2_" style="&st0;">
	<g id="ConiferousTree_x5F_FC_4_">
		<g id="Deleted_Symbol_4_">
			<path style="&st1;" d="M40.557617,13.017578c-0.390625-0.071289-0.818359-0.762207-0.818359-0.762207l0.040039,1.092285
				c-0.046875,0.176758-0.291016,0.040039-0.291016,0.040039l0.024414-1.031738
				c-0.313477,0.493652-0.78418,0.692871-0.78418,0.692871c-0.142578-0.012695-0.037109-0.09375-0.037109-0.09375
				c0.731445-0.696777,0.78418-0.984863,0.78418-0.984863c0.083008-0.287109,0.056641-0.803711,0.056641-0.803711
				c-0.361328,0.522461-0.601563,0.557617-0.601563,0.557617c-0.064453,0.014648-0.089844,0-0.089844,0
				c-0.06543-0.043945,0.042969-0.140625,0.042969-0.140625c0.092773-0.078125,0.173828-0.151367,0.243164-0.223633
				c0.005859-0.005859,0.008789-0.008789,0.011719-0.012695c-0.00293,0.00293-0.006836,0.005859-0.012695,0.012695
				c0.357422-0.368164,0.398438-0.616699,0.398438-0.616699l0.083984-0.506836c0,0,0.021484-0.06543,0.040039,0l0.064453,0.533203
				c0.083984,0.257324,0.588867,0.786621,0.588867,0.786621c0.067383,0.064453-0.025391,0.0625-0.025391,0.0625
				c-0.283203-0.041992-0.543945-0.458984-0.543945-0.458984l0.038086,0.842773
				c0.132813,0.34375,0.787109,0.830566,0.787109,0.830566C40.731445,12.917969,40.557617,13.017578,40.557617,13.017578z
				 M38.90625,11.564941c-0.007813,0.005859-0.016602,0.011719-0.022461,0.018555
				C38.883789,11.583496,38.892578,11.57666,38.90625,11.564941z M38.986328,11.489746
				c-0.03125,0.02832-0.0625,0.056641-0.080078,0.075195C38.935547,11.536621,38.961914,11.512207,38.986328,11.489746z
				 M39.054688,11.424316c-0.018555,0.019531-0.043945,0.041016-0.068359,0.06543
				C39.008789,11.469238,39.033203,11.446777,39.054688,11.424316z M39.107422,11.377441
				c-0.015625,0.016602-0.033203,0.032227-0.052734,0.046875C39.074219,11.405762,39.091797,11.391113,39.107422,11.377441z
				 M39.107422,11.377441c0.006836-0.005859,0.012695-0.011719,0.019531-0.018555
				C39.120117,11.365723,39.114258,11.371582,39.107422,11.377441z M39.175781,11.312988
				c-0.00293,0.005859-0.011719,0.011719-0.018555,0.017578C39.166992,11.322754,39.172852,11.315918,39.175781,11.312988z"/>
		</g>
	</g>
</g>
<g id="nonconiferoustree_x5F_bd_2_" style="&st0;">
	<g id="NonConiferousTree_x5F_FC_4_">
		<g id="Deleted_Symbol_2_4_">
			<path style="&st1;" d="M36.599609,11.247559c0,0.318359-0.261719,0.579102-0.577148,0.579102
				c-0.104492,0-0.205078-0.035156-0.295898-0.100586c-0.075195,0.132813-0.207031,0.231445-0.356445,0.269531
				c0.00293,0.036133,0.012695,0.137695,0.036133,0.424805v0.00293c0,0.039063-0.025391,0.067383-0.058594,0.087891
				c-0.032227,0.015625-0.071289,0.026367-0.110352,0.026367c-0.032227,0-0.067383-0.009766-0.098633-0.025391
				c-0.02832-0.020508-0.050781-0.048828-0.050781-0.087891c0,0,0-0.00293,0.015625-0.431641
				c-0.114258-0.035156-0.224609-0.100586-0.308594-0.195313c-0.095703,0.103516-0.240234,0.169922-0.395508,0.169922
				c-0.299805,0-0.561523-0.260742-0.561523-0.577148c0-0.198242,0.104492-0.37793,0.263672-0.475586
				c-0.011719-0.052734-0.015625-0.105469-0.015625-0.166992c0-0.254883,0.163086-0.456055,0.395508-0.53418
				c0-0.023438,0-0.041992,0-0.072266c0-0.15918,0.058594-0.298828,0.15918-0.401367
				c0.102539-0.100586,0.242188-0.15918,0.402344-0.15918c0.289063,0,0.523438,0.207031,0.556641,0.478516
				c0.025391,0,0.051758,0,0.064453,0c0.319336,0,0.580078,0.260742,0.580078,0.560547
				c0,0.041992-0.012695,0.072266-0.015625,0.111328C36.443359,10.812988,36.599609,11.009277,36.599609,11.247559z
				 M36.404297,11.247559c0-0.163086-0.132813-0.333008-0.316406-0.365234c0,0,0,0-0.072266-0.020508l-0.025391-0.006836
				l0.005859-0.026367c0,0,0,0,0.015625-0.071289c0.020508-0.055664,0.037109-0.087891,0.037109-0.136719
				c0-0.195313-0.166016-0.364258-0.384766-0.364258c-0.033203,0-0.083984,0.00293-0.111328,0.016602h-0.001953h-0.003906
				c0,0,0,0-0.104492,0.036133l-0.041992,0.014648l0.005859-0.044922c0,0,0,0,0.017578-0.103516V10.14209
				c0-0.198242-0.164063-0.365234-0.380859-0.365234c-0.199219,0-0.365234,0.166992-0.365234,0.365234
				c0,0.036133,0,0.084961,0.012695,0.111328l0.00293,0.00293v0.005859c0,0,0,0,0.017578,0.086914l0.005859,0.033203h-0.033203
				c0,0,0,0-0.085938,0c-0.182617,0.016602-0.31543,0.182617-0.31543,0.365234c0,0.071289,0,0.117188,0.032227,0.162109v0.004883
				c0,0,0,0,0.035156,0.071289l0.016602,0.029297l-0.033203,0.005859c0,0,0,0-0.067383,0.020508
				c-0.150391,0.064453-0.231445,0.198242-0.231445,0.348633c0,0.21875,0.166016,0.381836,0.365234,0.381836
				c0.132813,0,0.248047-0.064453,0.332031-0.182617c0.00293-0.006836,0.013672-0.026367,0.051758-0.104492l0.023438-0.041992
				l0.021484,0.039063c0,0,0,0,0.072266,0.108398l0.00293,0.00293c0.048828,0.133789,0.182617,0.233398,0.333008,0.233398
				c0.166992,0,0.316406-0.116211,0.349609-0.263672v-0.003906c0,0,0,0,0.035156-0.124023l0.013672-0.041992l0.033203,0.030273
				c0,0,0,0,0.087891,0.09082c0.064453,0.064453,0.166016,0.117188,0.266602,0.117188
				C36.238281,11.628418,36.404297,11.465332,36.404297,11.247559z"/>
		</g>
	</g>
</g>
<g id="scrub_x5F_bd" style="&st0;">
	<g id="Scrub_x5F_FC_2_">
		<g id="Deleted_Symbol_1_2_">
			<path style="&st1;" d="M40.951172,6.687988c-0.029297,0-0.054688-0.019531-0.063477-0.046875l-0.148438-0.483887
				C40.728516,6.125,40.746094,6.089844,40.77832,6.076172l0.076172-0.029297
				c0.012695-0.000977,0.023438-0.001953,0.032227-0.001953c0.037109,0.011719,0.048828,0.026367,0.055664,0.043945
				l0.146484,0.493652c0.009766,0.035156-0.008789,0.071289-0.042969,0.082031
				c-0.041016,0.012695-0.068359,0.018555-0.081055,0.021484L40.951172,6.687988z"/>
			<path style="&st1;" d="M41.870117,6.564941c-0.039063,0-0.070313-0.032227-0.071289-0.072266l-0.006836-0.496582
				c0-0.039063-0.013672-0.057617-0.024414-0.069336c-0.013672-0.014648-0.036133-0.022461-0.060547-0.022461
				c-0.023438,0-0.063477,0.007813-0.113281,0.048828c-0.013672,0.009766-0.02832,0.014648-0.044922,0.014648
				c-0.038086-0.004883-0.052734-0.019531-0.05957-0.03125l-0.045898-0.068359
				c-0.021484-0.033203-0.013672-0.076172,0.019531-0.099609c0.085938-0.060547,0.174805-0.09375,0.255859-0.09375
				c0.085938,0,0.162109,0.038086,0.217773,0.109375c0.047852,0.063477,0.073242,0.134766,0.073242,0.211914l0.005859,0.461426
				l0.005859,0.037109c0,0.037109-0.033203,0.069336-0.072266,0.070313H41.870117z"/>
			<path style="&st1;" d="M44.009766,6.631348c-0.027344-0.005859-0.053711-0.012695-0.076172-0.019531
				c-0.03418-0.010742-0.053711-0.045898-0.043945-0.080078l0.143555-0.495605
				c0.004883-0.017578,0.017578-0.03125,0.033203-0.040039l0.133789,0.023438
				c0.033203,0.012695,0.051758,0.048828,0.041016,0.082031l-0.154297,0.48584
				c-0.009766,0.02832-0.03418,0.045898-0.061523,0.045898L44.009766,6.631348z"/>
			<path style="&st1;" d="M42.915039,6.522949c-0.046875,0-0.09375-0.017578-0.139648-0.050781
				c0.006836-0.013672-0.174805-0.899902-0.364258-1.183105c-0.024414-0.046875-0.037109-0.09668-0.030273-0.105957
				c0.045898,0.007324,0.09375,0.025879,0.167969,0.071777c0.015625,0.012695,0.185547,0.107422,0.291016,0.600586
				l0.036133,0.116211c0.016602-0.027344,0.044922-1.037598,0.401367-1.193848
				c0.032227-0.020508,0.084961-0.045898,0.111328-0.050781c-0.005859,0.006836-0.013672,0.032227-0.053711,0.09375
				c-0.010742,0.016602-0.213867,0.339844-0.224609,0.79248v0.117188c0.022461-0.013672,0.171875-0.28418,0.448242-0.342773
				c0.033203-0.012695,0.051758-0.015625,0.0625-0.016602c-0.008789,0.004883-0.022461,0.035156-0.095703,0.115234
				c-0.000977,0.000977-0.167969,0.170898-0.461914,0.775879l-0.024414,0.234375
				C43.014648,6.498535,42.97168,6.522949,42.915039,6.522949z"/>
		</g>
	</g>
</g>
<g id="coniferoustree_x5F_bd" style="&st0;">
	<g id="ConiferousTree_x5F_FC_2_">
		<g id="Deleted_Symbol_2_">
			<path style="&st1;" d="M46.071289,4.632813c-0.390625-0.071289-0.818359-0.762207-0.818359-0.762207l0.040039,1.092285
				c-0.046875,0.176758-0.291016,0.040039-0.291016,0.040039l0.024414-1.031738
				c-0.313477,0.493652-0.78418,0.692871-0.78418,0.692871c-0.142578-0.012695-0.037109-0.09375-0.037109-0.09375
				c0.731445-0.696777,0.78418-0.984863,0.78418-0.984863c0.083008-0.287109,0.056641-0.803711,0.056641-0.803711
				c-0.361328,0.522461-0.601563,0.557617-0.601563,0.557617c-0.064453,0.014648-0.089844,0-0.089844,0
				c-0.06543-0.043945,0.042969-0.140625,0.042969-0.140625c0.092773-0.078125,0.173828-0.151367,0.243164-0.223633
				c0.005859-0.005859,0.008789-0.008789,0.011719-0.012695c-0.00293,0.00293-0.006836,0.005859-0.012695,0.012695
				c0.357422-0.368164,0.398438-0.616699,0.398438-0.616699l0.083984-0.506836c0,0,0.021484-0.06543,0.040039,0l0.064453,0.533203
				c0.083984,0.257324,0.588867,0.786621,0.588867,0.786621c0.067383,0.064453-0.025391,0.0625-0.025391,0.0625
				c-0.283203-0.041992-0.543945-0.458984-0.543945-0.458984l0.038086,0.842773
				c0.132813,0.34375,0.787109,0.830566,0.787109,0.830566C46.245117,4.533203,46.071289,4.632813,46.071289,4.632813z
				 M44.419922,3.180176c-0.007813,0.005859-0.016602,0.011719-0.022461,0.018555
				C44.397461,3.19873,44.40625,3.191895,44.419922,3.180176z M44.5,3.10498c-0.03125,0.02832-0.0625,0.056641-0.080078,0.075195
				C44.449219,3.151855,44.475586,3.127441,44.5,3.10498z M44.568359,3.039551C44.549805,3.059082,44.524414,3.080566,44.5,3.10498
				C44.522461,3.084473,44.546875,3.062012,44.568359,3.039551z M44.621094,2.992676
				c-0.015625,0.016602-0.033203,0.032227-0.052734,0.046875C44.587891,3.020996,44.605469,3.006348,44.621094,2.992676z
				 M44.621094,2.992676c0.006836-0.005859,0.012695-0.011719,0.019531-0.018555
				C44.633789,2.980957,44.62793,2.986816,44.621094,2.992676z M44.689453,2.928223
				c-0.00293,0.005859-0.011719,0.011719-0.018555,0.017578C44.680664,2.937988,44.686523,2.931152,44.689453,2.928223z"/>
		</g>
	</g>
</g>
<g id="nonconiferoustree_x5F_bd" style="&st0;">
	<g id="NonConiferousTree_x5F_FC_2_">
		<g id="Deleted_Symbol_2_2_">
			<path style="&st1;" d="M42.113281,2.862793c0,0.318359-0.261719,0.579102-0.577148,0.579102
				c-0.104492,0-0.205078-0.035156-0.295898-0.100586c-0.075195,0.132813-0.207031,0.231445-0.356445,0.269531
				c0.00293,0.036133,0.012695,0.137695,0.036133,0.424805v0.00293c0,0.039063-0.025391,0.067383-0.058594,0.087891
				c-0.032227,0.015625-0.071289,0.026367-0.110352,0.026367c-0.032227,0-0.067383-0.009766-0.098633-0.025391
				c-0.02832-0.020508-0.050781-0.048828-0.050781-0.087891c0,0,0-0.00293,0.015625-0.431641
				c-0.114258-0.035156-0.224609-0.100586-0.308594-0.195313c-0.095703,0.103516-0.240234,0.169922-0.395508,0.169922
				c-0.299805,0-0.561523-0.260742-0.561523-0.577148c0-0.198242,0.104492-0.37793,0.263672-0.475586
				c-0.011719-0.052734-0.015625-0.105469-0.015625-0.166992c0-0.254883,0.163086-0.456055,0.395508-0.53418
				c0-0.023438,0-0.041992,0-0.072266c0-0.15918,0.058594-0.298828,0.15918-0.401367
				c0.102539-0.100586,0.242188-0.15918,0.402344-0.15918c0.289063,0,0.523438,0.207031,0.556641,0.478516
				c0.025391,0,0.051758,0,0.064453,0c0.319336,0,0.580078,0.260742,0.580078,0.560547
				c0,0.041992-0.012695,0.072266-0.015625,0.111328C41.957031,2.428223,42.113281,2.624512,42.113281,2.862793z
				 M41.917969,2.862793c0-0.163086-0.132813-0.333008-0.316406-0.365234c0,0,0,0-0.072266-0.020508l-0.025391-0.006836
				l0.005859-0.026367c0,0,0,0,0.015625-0.071289C41.545898,2.316895,41.5625,2.284668,41.5625,2.23584
				c0-0.195313-0.166016-0.364258-0.384766-0.364258c-0.033203,0-0.083984,0.00293-0.111328,0.016602h-0.001953h-0.003906
				c0,0,0,0-0.104492,0.036133l-0.041992,0.014648l0.005859-0.044922c0,0,0,0,0.017578-0.103516V1.757324
				c0-0.198242-0.164063-0.365234-0.380859-0.365234c-0.199219,0-0.365234,0.166992-0.365234,0.365234
				c0,0.036133,0,0.084961,0.012695,0.111328l0.00293,0.00293v0.005859c0,0,0,0,0.017578,0.086914l0.005859,0.033203h-0.033203
				c0,0,0,0-0.085938,0c-0.182617,0.016602-0.31543,0.182617-0.31543,0.365234c0,0.071289,0,0.117188,0.032227,0.162109v0.004883
				c0,0,0,0,0.035156,0.071289l0.016602,0.029297L39.84668,2.63623c0,0,0,0-0.067383,0.020508
				c-0.150391,0.064453-0.231445,0.198242-0.231445,0.348633c0,0.21875,0.166016,0.381836,0.365234,0.381836
				c0.132813,0,0.248047-0.064453,0.332031-0.182617c0.00293-0.006836,0.013672-0.026367,0.051758-0.104492l0.023438-0.041992
				l0.021484,0.039063c0,0,0,0,0.072266,0.108398l0.00293,0.00293C40.46582,3.342285,40.599609,3.441895,40.75,3.441895
				c0.166992,0,0.316406-0.116211,0.349609-0.263672V3.174316c0,0,0,0,0.035156-0.124023l0.013672-0.041992l0.033203,0.030273
				c0,0,0,0,0.087891,0.09082c0.064453,0.064453,0.166016,0.117188,0.266602,0.117188
				C41.751953,3.243652,41.917969,3.080566,41.917969,2.862793z"/>
		</g>
	</g>
</g>
<g id="scrub_x5F_bd_3_" style="&st0;">
	<g id="Scrub_x5F_FC_5_">
		<g id="Deleted_Symbol_1_5_">
			<path style="&st1;" d="M35.933594,24.950684c-0.029297,0-0.054688-0.019531-0.063477-0.046875l-0.148438-0.483887
				c-0.010742-0.032227,0.006836-0.067383,0.039063-0.081055l0.076172-0.029297
				c0.012695-0.000977,0.023438-0.001953,0.032227-0.001953c0.037109,0.011719,0.048828,0.026367,0.055664,0.043945
				l0.146484,0.493652c0.009766,0.035156-0.008789,0.071289-0.042969,0.082031
				c-0.041016,0.012695-0.068359,0.018555-0.081055,0.021484L35.933594,24.950684z"/>
			<path style="&st1;" d="M36.852539,24.827637c-0.039063,0-0.070313-0.032227-0.071289-0.072266l-0.006836-0.496582
				c0-0.039063-0.013672-0.057617-0.024414-0.069336c-0.013672-0.014648-0.036133-0.022461-0.060547-0.022461
				c-0.023438,0-0.063477,0.007813-0.113281,0.048828c-0.013672,0.009766-0.02832,0.014648-0.044922,0.014648
				c-0.038086-0.004883-0.052734-0.019531-0.05957-0.03125l-0.045898-0.068359
				c-0.021484-0.033203-0.013672-0.076172,0.019531-0.099609c0.085938-0.060547,0.174805-0.09375,0.255859-0.09375
				c0.085938,0,0.162109,0.038086,0.217773,0.109375c0.047852,0.063477,0.073242,0.134766,0.073242,0.211914l0.005859,0.461426
				l0.005859,0.037109c0,0.037109-0.033203,0.069336-0.072266,0.070313H36.852539z"/>
			<path style="&st1;" d="M38.992188,24.894043c-0.027344-0.005859-0.053711-0.012695-0.076172-0.019531
				c-0.03418-0.010742-0.053711-0.045898-0.043945-0.080078l0.143555-0.495605
				c0.004883-0.017578,0.017578-0.03125,0.033203-0.040039l0.133789,0.023438
				c0.033203,0.012695,0.051758,0.048828,0.041016,0.082031l-0.154297,0.48584
				c-0.009766,0.02832-0.03418,0.045898-0.061523,0.045898L38.992188,24.894043z"/>
			<path style="&st1;" d="M37.897461,24.785645c-0.046875,0-0.09375-0.017578-0.139648-0.050781
				c0.006836-0.013672-0.174805-0.899902-0.364258-1.183105c-0.024414-0.046875-0.037109-0.09668-0.030273-0.105957
				c0.045898,0.007324,0.09375,0.025879,0.167969,0.071777c0.015625,0.012695,0.185547,0.107422,0.291016,0.600586
				l0.036133,0.116211c0.016602-0.027344,0.044922-1.037598,0.401367-1.193848
				c0.032227-0.020508,0.084961-0.045898,0.111328-0.050781c-0.005859,0.006836-0.013672,0.032227-0.053711,0.09375
				c-0.010742,0.016602-0.213867,0.339844-0.224609,0.79248v0.117188c0.022461-0.013672,0.171875-0.28418,0.448242-0.342773
				c0.033203-0.012695,0.051758-0.015625,0.0625-0.016602c-0.008789,0.004883-0.022461,0.035156-0.095703,0.115234
				c-0.000977,0.000977-0.167969,0.170898-0.461914,0.775879l-0.024414,0.234375
				C37.99707,24.76123,37.954102,24.785645,37.897461,24.785645z"/>
		</g>
	</g>
</g>
<g id="coniferoustree_x5F_bd_3_" style="&st0;">
	<g id="ConiferousTree_x5F_FC_5_">
		<g id="Deleted_Symbol_5_">
			<path style="&st1;" d="M41.055664,22.895508c-0.390625-0.071289-0.818359-0.762207-0.818359-0.762207l0.040039,1.092285
				c-0.046875,0.176758-0.291016,0.040039-0.291016,0.040039l0.024414-1.031738
				c-0.313477,0.493652-0.78418,0.692871-0.78418,0.692871c-0.142578-0.012695-0.037109-0.09375-0.037109-0.09375
				c0.731445-0.696777,0.78418-0.984863,0.78418-0.984863c0.083008-0.287109,0.056641-0.803711,0.056641-0.803711
				c-0.361328,0.522461-0.601563,0.557617-0.601563,0.557617c-0.064453,0.014648-0.089844,0-0.089844,0
				c-0.06543-0.043945,0.042969-0.140625,0.042969-0.140625c0.092773-0.078125,0.173828-0.151367,0.243164-0.223633
				c0.005859-0.005859,0.008789-0.008789,0.011719-0.012695c-0.00293,0.00293-0.006836,0.005859-0.012695,0.012695
				c0.357422-0.368164,0.398438-0.616699,0.398438-0.616699l0.083984-0.506836c0,0,0.021484-0.06543,0.040039,0l0.064453,0.533203
				c0.083984,0.257324,0.588867,0.786621,0.588867,0.786621c0.067383,0.064453-0.025391,0.0625-0.025391,0.0625
				c-0.283203-0.041992-0.543945-0.458984-0.543945-0.458984l0.038086,0.842773
				c0.132813,0.34375,0.787109,0.830566,0.787109,0.830566C41.229492,22.795898,41.055664,22.895508,41.055664,22.895508z
				 M39.404297,21.442871c-0.007813,0.005859-0.016602,0.011719-0.022461,0.018555
				C39.381836,21.461426,39.390625,21.45459,39.404297,21.442871z M39.484375,21.367676
				c-0.03125,0.02832-0.0625,0.056641-0.080078,0.075195C39.433594,21.414551,39.459961,21.390137,39.484375,21.367676z
				 M39.552734,21.302246c-0.018555,0.019531-0.043945,0.041016-0.068359,0.06543
				C39.506836,21.347168,39.53125,21.324707,39.552734,21.302246z M39.605469,21.255371
				c-0.015625,0.016602-0.033203,0.032227-0.052734,0.046875C39.572266,21.283691,39.589844,21.269043,39.605469,21.255371z
				 M39.605469,21.255371c0.006836-0.005859,0.012695-0.011719,0.019531-0.018555
				C39.618164,21.243652,39.612305,21.249512,39.605469,21.255371z M39.673828,21.190918
				c-0.00293,0.005859-0.011719,0.011719-0.018555,0.017578C39.665039,21.200684,39.670898,21.193848,39.673828,21.190918z"/>
		</g>
	</g>
</g>
<g id="nonconiferoustree_x5F_bd_3_" style="&st0;">
	<g id="NonConiferousTree_x5F_FC_5_">
		<g id="Deleted_Symbol_2_5_">
			<path style="&st1;" d="M37.097656,21.125488c0,0.318359-0.261719,0.579102-0.577148,0.579102
				c-0.104492,0-0.205078-0.035156-0.295898-0.100586c-0.075195,0.132813-0.207031,0.231445-0.356445,0.269531
				c0.00293,0.036133,0.012695,0.137695,0.036133,0.424805v0.00293c0,0.039063-0.025391,0.067383-0.058594,0.087891
				c-0.032227,0.015625-0.071289,0.026367-0.110352,0.026367c-0.032227,0-0.067383-0.009766-0.098633-0.025391
				c-0.02832-0.020508-0.050781-0.048828-0.050781-0.087891c0,0,0-0.00293,0.015625-0.431641
				c-0.114258-0.035156-0.224609-0.100586-0.308594-0.195313c-0.095703,0.103516-0.240234,0.169922-0.395508,0.169922
				c-0.299805,0-0.561523-0.260742-0.561523-0.577148c0-0.198242,0.104492-0.37793,0.263672-0.475586
				c-0.011719-0.052734-0.015625-0.105469-0.015625-0.166992c0-0.254883,0.163086-0.456055,0.395508-0.53418
				c0-0.023438,0-0.041992,0-0.072266c0-0.15918,0.058594-0.298828,0.15918-0.401367
				c0.102539-0.100586,0.242188-0.15918,0.402344-0.15918c0.289063,0,0.523438,0.207031,0.556641,0.478516
				c0.025391,0,0.051758,0,0.064453,0c0.319336,0,0.580078,0.260742,0.580078,0.560547
				c0,0.041992-0.012695,0.072266-0.015625,0.111328C36.941406,20.690918,37.097656,20.887207,37.097656,21.125488z
				 M36.902344,21.125488c0-0.163086-0.132813-0.333008-0.316406-0.365234c0,0,0,0-0.072266-0.020508l-0.025391-0.006836
				l0.005859-0.026367c0,0,0,0,0.015625-0.071289c0.020508-0.055664,0.037109-0.087891,0.037109-0.136719
				c0-0.195313-0.166016-0.364258-0.384766-0.364258c-0.033203,0-0.083984,0.00293-0.111328,0.016602h-0.001953h-0.003906
				c0,0,0,0-0.104492,0.036133l-0.041992,0.014648l0.005859-0.044922c0,0,0,0,0.017578-0.103516V20.02002
				c0-0.198242-0.164063-0.365234-0.380859-0.365234c-0.199219,0-0.365234,0.166992-0.365234,0.365234
				c0,0.036133,0,0.084961,0.012695,0.111328l0.00293,0.00293v0.005859c0,0,0,0,0.017578,0.086914l0.005859,0.033203h-0.033203
				c0,0,0,0-0.085938,0c-0.182617,0.016602-0.31543,0.182617-0.31543,0.365234c0,0.071289,0,0.117188,0.032227,0.162109v0.004883
				c0,0,0,0,0.035156,0.071289l0.016602,0.029297l-0.033203,0.005859c0,0,0,0-0.067383,0.020508
				c-0.150391,0.064453-0.231445,0.198242-0.231445,0.348633c0,0.21875,0.166016,0.381836,0.365234,0.381836
				c0.132813,0,0.248047-0.064453,0.332031-0.182617c0.00293-0.006836,0.013672-0.026367,0.051758-0.104492l0.023438-0.041992
				l0.021484,0.039063c0,0,0,0,0.072266,0.108398l0.00293,0.00293c0.048828,0.133789,0.182617,0.233398,0.333008,0.233398
				c0.166992,0,0.316406-0.116211,0.349609-0.263672v-0.003906c0,0,0,0,0.035156-0.124023l0.013672-0.041992l0.033203,0.030273
				c0,0,0,0,0.087891,0.09082c0.064453,0.064453,0.166016,0.117188,0.266602,0.117188
				C36.736328,21.506348,36.902344,21.343262,36.902344,21.125488z"/>
		</g>
	</g>
</g>
<g id="scrub_x5F_bd_4_" style="&st0;">
	<g id="Scrub_x5F_FC_6_">
		<g id="Deleted_Symbol_1_6_">
			<path style="&st1;" d="M41.203125,36.853516c-0.029297,0-0.054688-0.019531-0.063477-0.046875l-0.148438-0.484375
				c-0.010742-0.032227,0.006836-0.067383,0.039063-0.081055l0.076172-0.029297
				c0.012695-0.000977,0.023438-0.001953,0.032227-0.001953c0.037109,0.011719,0.048828,0.026367,0.055664,0.043945
				l0.146484,0.494141c0.009766,0.035156-0.008789,0.071289-0.042969,0.082031
				c-0.041016,0.012695-0.068359,0.018555-0.081055,0.021484L41.203125,36.853516z"/>
			<path style="&st1;" d="M42.12207,36.730469c-0.039063,0-0.070313-0.032227-0.071289-0.072266l-0.006836-0.49707
				c0-0.039063-0.013672-0.057617-0.024414-0.069336c-0.013672-0.014648-0.036133-0.022461-0.060547-0.022461
				c-0.023438,0-0.063477,0.007813-0.113281,0.048828c-0.013672,0.009766-0.02832,0.014648-0.044922,0.014648
				c-0.038086-0.004883-0.052734-0.019531-0.05957-0.03125l-0.045898-0.068359
				C41.673828,36,41.681641,35.957031,41.714844,35.933594c0.085938-0.060547,0.174805-0.09375,0.255859-0.09375
				c0.085938,0,0.162109,0.038086,0.217773,0.109375c0.047852,0.063477,0.073242,0.134766,0.073242,0.211914l0.005859,0.461914
				l0.005859,0.037109c0,0.037109-0.033203,0.069336-0.072266,0.070313H42.12207z"/>
			<path style="&st1;" d="M44.261719,36.796875c-0.027344-0.005859-0.053711-0.012695-0.076172-0.019531
				c-0.03418-0.010742-0.053711-0.045898-0.043945-0.080078l0.143555-0.496094
				c0.004883-0.017578,0.017578-0.03125,0.033203-0.040039l0.133789,0.023438
				c0.033203,0.012695,0.051758,0.048828,0.041016,0.082031l-0.154297,0.486328
				c-0.009766,0.02832-0.03418,0.045898-0.061523,0.045898L44.261719,36.796875z"/>
			<path style="&st1;" d="M43.166992,36.688477c-0.046875,0-0.09375-0.017578-0.139648-0.050781
				c0.006836-0.013672-0.174805-0.900391-0.364258-1.183594c-0.024414-0.046875-0.037109-0.09668-0.030273-0.106445
				c0.045898,0.007813,0.09375,0.026367,0.167969,0.072266c0.015625,0.012695,0.185547,0.107422,0.291016,0.600586
				l0.036133,0.116211c0.016602-0.027344,0.044922-1.038086,0.401367-1.194336
				c0.032227-0.020508,0.084961-0.045898,0.111328-0.050781c-0.005859,0.006836-0.013672,0.032227-0.053711,0.09375
				c-0.010742,0.016602-0.213867,0.339844-0.224609,0.792969v0.117188c0.022461-0.013672,0.171875-0.28418,0.448242-0.342773
				c0.033203-0.012695,0.051758-0.015625,0.0625-0.016602c-0.008789,0.004883-0.022461,0.035156-0.095703,0.115234
				c-0.000977,0.000977-0.167969,0.170898-0.461914,0.776367l-0.024414,0.234375
				C43.266602,36.664063,43.223633,36.688477,43.166992,36.688477z"/>
		</g>
	</g>
</g>
<g id="coniferoustree_x5F_bd_4_" style="&st0;">
	<g id="ConiferousTree_x5F_FC_6_">
		<g id="Deleted_Symbol_6_">
			<path style="&st1;" d="M46.323242,34.798828c-0.390625-0.071289-0.818359-0.762695-0.818359-0.762695l0.040039,1.092773
				c-0.046875,0.176758-0.291016,0.040039-0.291016,0.040039l0.024414-1.032227
				c-0.313477,0.494141-0.78418,0.693359-0.78418,0.693359c-0.142578-0.012695-0.037109-0.09375-0.037109-0.09375
				c0.731445-0.697266,0.78418-0.985352,0.78418-0.985352c0.083008-0.287109,0.056641-0.803711,0.056641-0.803711
				c-0.361328,0.522461-0.601563,0.557617-0.601563,0.557617c-0.064453,0.014648-0.089844,0-0.089844,0
				c-0.06543-0.043945,0.042969-0.140625,0.042969-0.140625c0.092773-0.078125,0.173828-0.151367,0.243164-0.223633
				c0.005859-0.005859,0.008789-0.008789,0.011719-0.012695c-0.00293,0.00293-0.006836,0.005859-0.012695,0.012695
				c0.357422-0.368164,0.398438-0.617188,0.398438-0.617188l0.083984-0.506836c0,0,0.021484-0.06543,0.040039,0l0.064453,0.533203
				c0.083984,0.257813,0.588867,0.787109,0.588867,0.787109c0.067383,0.064453-0.025391,0.0625-0.025391,0.0625
				c-0.283203-0.041992-0.543945-0.458984-0.543945-0.458984l0.038086,0.842773
				c0.132813,0.34375,0.787109,0.831055,0.787109,0.831055C46.49707,34.699219,46.323242,34.798828,46.323242,34.798828z
				 M44.671875,33.345703c-0.007813,0.005859-0.016602,0.011719-0.022461,0.018555
				C44.649414,33.364258,44.658203,33.357422,44.671875,33.345703z M44.751953,33.270508
				c-0.03125,0.02832-0.0625,0.056641-0.080078,0.075195C44.701172,33.317383,44.727539,33.292969,44.751953,33.270508z
				 M44.820313,33.205078c-0.018555,0.019531-0.043945,0.041016-0.068359,0.06543
				C44.774414,33.25,44.798828,33.227539,44.820313,33.205078z M44.873047,33.158203
				c-0.015625,0.016602-0.033203,0.032227-0.052734,0.046875C44.839844,33.186523,44.857422,33.171875,44.873047,33.158203z
				 M44.873047,33.158203c0.006836-0.005859,0.012695-0.011719,0.019531-0.018555
				C44.885742,33.146484,44.879883,33.152344,44.873047,33.158203z M44.941406,33.09375
				c-0.00293,0.005859-0.011719,0.011719-0.018555,0.017578C44.932617,33.103516,44.938477,33.09668,44.941406,33.09375z"/>
		</g>
	</g>
</g>
<g id="nonconiferoustree_x5F_bd_4_" style="&st0;">
	<g id="NonConiferousTree_x5F_FC_6_">
		<g id="Deleted_Symbol_2_6_">
			<path style="&st1;" d="M42.365234,33.02832c0,0.318359-0.261719,0.579102-0.577148,0.579102
				c-0.104492,0-0.205078-0.035156-0.295898-0.100586c-0.075195,0.132813-0.207031,0.231445-0.356445,0.269531
				c0.00293,0.036133,0.012695,0.137695,0.036133,0.424805v0.00293c0,0.039063-0.025391,0.067383-0.058594,0.087891
				c-0.032227,0.015625-0.071289,0.026367-0.110352,0.026367c-0.032227,0-0.067383-0.009766-0.098633-0.025391
				c-0.02832-0.020508-0.050781-0.048828-0.050781-0.087891c0,0,0-0.00293,0.015625-0.431641
				c-0.114258-0.035156-0.224609-0.100586-0.308594-0.195313c-0.095703,0.103516-0.240234,0.169922-0.395508,0.169922
				c-0.299805,0-0.561523-0.260742-0.561523-0.577148c0-0.198242,0.104492-0.37793,0.263672-0.475586
				c-0.011719-0.052734-0.015625-0.105469-0.015625-0.166992c0-0.254883,0.163086-0.456055,0.395508-0.53418
				c0-0.023438,0-0.041992,0-0.072266c0-0.15918,0.058594-0.298828,0.15918-0.401367
				c0.102539-0.100586,0.242188-0.15918,0.402344-0.15918c0.289063,0,0.523438,0.207031,0.556641,0.478516
				c0.025391,0,0.051758,0,0.064453,0c0.319336,0,0.580078,0.260742,0.580078,0.560547
				c0,0.041992-0.012695,0.072266-0.015625,0.111328C42.208984,32.59375,42.365234,32.790039,42.365234,33.02832z
				 M42.169922,33.02832c0-0.163086-0.132813-0.333008-0.316406-0.365234c0,0,0,0-0.072266-0.020508l-0.025391-0.006836
				l0.005859-0.026367c0,0,0,0,0.015625-0.071289c0.020508-0.055664,0.037109-0.087891,0.037109-0.136719
				c0-0.195313-0.166016-0.364258-0.384766-0.364258c-0.033203,0-0.083984,0.00293-0.111328,0.016602h-0.001953H41.3125
				c0,0,0,0-0.104492,0.036133l-0.041992,0.014648l0.005859-0.044922c0,0,0,0,0.017578-0.103516v-0.033203
				c0-0.198242-0.164063-0.365234-0.380859-0.365234c-0.199219,0-0.365234,0.166992-0.365234,0.365234
				c0,0.036133,0,0.084961,0.012695,0.111328l0.00293,0.00293v0.005859c0,0,0,0,0.017578,0.086914l0.005859,0.033203h-0.033203
				c0,0,0,0-0.085938,0c-0.182617,0.016602-0.31543,0.182617-0.31543,0.365234c0,0.071289,0,0.117188,0.032227,0.162109v0.004883
				c0,0,0,0,0.035156,0.071289l0.016602,0.029297l-0.033203,0.005859c0,0,0,0-0.067383,0.020508
				c-0.150391,0.064453-0.231445,0.198242-0.231445,0.348633c0,0.21875,0.166016,0.381836,0.365234,0.381836
				c0.132813,0,0.248047-0.064453,0.332031-0.182617c0.00293-0.006836,0.013672-0.026367,0.051758-0.104492l0.023438-0.041992
				l0.021484,0.039063c0,0,0,0,0.072266,0.108398l0.00293,0.00293c0.048828,0.133789,0.182617,0.233398,0.333008,0.233398
				c0.166992,0,0.316406-0.116211,0.349609-0.263672v-0.003906c0,0,0,0,0.035156-0.124023l0.013672-0.041992l0.033203,0.030273
				c0,0,0,0,0.087891,0.09082c0.064453,0.064453,0.166016,0.117188,0.266602,0.117188
				C42.003906,33.40918,42.169922,33.246094,42.169922,33.02832z"/>
		</g>
	</g>
</g>
<g id="scrub_x5F_bd_6_" style="&st0;">
	<g id="Scrub_x5F_FC_8_">
		<g id="Deleted_Symbol_1_8_">
			<path style="&st1;" d="M28.171875,47.455078c-0.029297,0-0.054688-0.019531-0.063477-0.046875l-0.148438-0.484375
				c-0.010742-0.032227,0.006836-0.067383,0.039063-0.081055l0.076172-0.029297
				c0.012695-0.000977,0.023438-0.001953,0.032227-0.001953c0.037109,0.011719,0.048828,0.026367,0.055664,0.043945
				l0.146484,0.494141c0.009766,0.035156-0.008789,0.071289-0.042969,0.082031
				c-0.041016,0.012695-0.068359,0.018555-0.081055,0.021484L28.171875,47.455078z"/>
			<path style="&st1;" d="M29.09082,47.332031c-0.039063,0-0.070313-0.032227-0.071289-0.072266l-0.006836-0.49707
				c0-0.039063-0.013672-0.057617-0.024414-0.069336c-0.013672-0.014648-0.036133-0.022461-0.060547-0.022461
				c-0.023438,0-0.063477,0.007813-0.113281,0.048828c-0.013672,0.009766-0.02832,0.014648-0.044922,0.014648
				c-0.038086-0.004883-0.052734-0.019531-0.05957-0.03125l-0.045898-0.068359
				c-0.021484-0.033203-0.013672-0.076172,0.019531-0.099609c0.085938-0.060547,0.174805-0.09375,0.255859-0.09375
				c0.085938,0,0.162109,0.038086,0.217773,0.109375c0.047852,0.063477,0.073242,0.134766,0.073242,0.211914l0.005859,0.461914
				l0.005859,0.037109c0,0.037109-0.033203,0.069336-0.072266,0.070313H29.09082z"/>
			<path style="&st1;" d="M31.230469,47.398438c-0.027344-0.005859-0.053711-0.012695-0.076172-0.019531
				c-0.03418-0.010742-0.053711-0.045898-0.043945-0.080078l0.143555-0.496094
				c0.004883-0.017578,0.017578-0.03125,0.033203-0.040039l0.133789,0.023438
				c0.033203,0.012695,0.051758,0.048828,0.041016,0.082031l-0.154297,0.486328
				c-0.009766,0.02832-0.03418,0.045898-0.061523,0.045898L31.230469,47.398438z"/>
			<path style="&st1;" d="M30.135742,47.290039c-0.046875,0-0.09375-0.017578-0.139648-0.050781
				c0.006836-0.013672-0.174805-0.900391-0.364258-1.183594c-0.024414-0.046875-0.037109-0.09668-0.030273-0.106445
				c0.045898,0.007813,0.09375,0.026367,0.167969,0.072266c0.015625,0.012695,0.185547,0.107422,0.291016,0.600586
				l0.036133,0.116211c0.016602-0.027344,0.044922-1.038086,0.401367-1.194336
				c0.032227-0.020508,0.084961-0.045898,0.111328-0.050781c-0.005859,0.006836-0.013672,0.032227-0.053711,0.09375
				c-0.010742,0.016602-0.213867,0.339844-0.224609,0.792969v0.117188c0.022461-0.013672,0.171875-0.28418,0.448242-0.342773
				c0.033203-0.012695,0.051758-0.015625,0.0625-0.016602c-0.008789,0.004883-0.022461,0.035156-0.095703,0.115234
				c-0.000977,0.000977-0.167969,0.170898-0.461914,0.776367l-0.024414,0.234375
				C30.235352,47.265625,30.192383,47.290039,30.135742,47.290039z"/>
		</g>
	</g>
</g>
<g id="coniferoustree_x5F_bd_6_" style="&st0;">
	<g id="ConiferousTree_x5F_FC_8_">
		<g id="Deleted_Symbol_8_">
			<path style="&st1;" d="M33.291992,45.400391c-0.390625-0.071289-0.818359-0.762695-0.818359-0.762695l0.040039,1.092773
				c-0.046875,0.176758-0.291016,0.040039-0.291016,0.040039l0.024414-1.032227
				c-0.313477,0.494141-0.78418,0.693359-0.78418,0.693359c-0.142578-0.012695-0.037109-0.09375-0.037109-0.09375
				c0.731445-0.697266,0.78418-0.985352,0.78418-0.985352c0.083008-0.287109,0.056641-0.803711,0.056641-0.803711
				c-0.361328,0.522461-0.601563,0.557617-0.601563,0.557617c-0.064453,0.014648-0.089844,0-0.089844,0
				c-0.06543-0.043945,0.042969-0.140625,0.042969-0.140625c0.092773-0.078125,0.173828-0.151367,0.243164-0.223633
				c0.005859-0.005859,0.008789-0.008789,0.011719-0.012695c-0.00293,0.00293-0.006836,0.005859-0.012695,0.012695
				c0.357422-0.368164,0.398438-0.617188,0.398438-0.617188l0.083984-0.506836c0,0,0.021484-0.06543,0.040039,0l0.064453,0.533203
				c0.083984,0.257813,0.588867,0.787109,0.588867,0.787109c0.067383,0.064453-0.025391,0.0625-0.025391,0.0625
				c-0.283203-0.041992-0.543945-0.458984-0.543945-0.458984l0.038086,0.842773
				c0.132813,0.34375,0.787109,0.831055,0.787109,0.831055C33.46582,45.300781,33.291992,45.400391,33.291992,45.400391z
				 M31.640625,43.947266c-0.007813,0.005859-0.016602,0.011719-0.022461,0.018555
				C31.618164,43.96582,31.626953,43.958984,31.640625,43.947266z M31.720703,43.87207
				c-0.03125,0.02832-0.0625,0.056641-0.080078,0.075195C31.669922,43.918945,31.696289,43.894531,31.720703,43.87207z
				 M31.789063,43.806641c-0.018555,0.019531-0.043945,0.041016-0.068359,0.06543
				C31.743164,43.851563,31.767578,43.829102,31.789063,43.806641z M31.841797,43.759766
				c-0.015625,0.016602-0.033203,0.032227-0.052734,0.046875C31.808594,43.788086,31.826172,43.773438,31.841797,43.759766z
				 M31.841797,43.759766c0.006836-0.005859,0.012695-0.011719,0.019531-0.018555
				C31.854492,43.748047,31.848633,43.753906,31.841797,43.759766z M31.910156,43.695313
				c-0.00293,0.005859-0.011719,0.011719-0.018555,0.017578C31.901367,43.705078,31.907227,43.698242,31.910156,43.695313z"/>
		</g>
	</g>
</g>
<g id="nonconiferoustree_x5F_bd_6_" style="&st0;">
	<g id="NonConiferousTree_x5F_FC_8_">
		<g id="Deleted_Symbol_2_8_">
			<path style="&st1;" d="M29.335938,43.629883c0,0.318359-0.261719,0.579102-0.577148,0.579102
				c-0.104492,0-0.205078-0.035156-0.295898-0.100586c-0.075195,0.132813-0.207031,0.231445-0.356445,0.269531
				c0.00293,0.036133,0.012695,0.137695,0.036133,0.424805v0.00293c0,0.039063-0.025391,0.067383-0.058594,0.087891
				c-0.032227,0.015625-0.071289,0.026367-0.110352,0.026367c-0.032227,0-0.067383-0.009766-0.098633-0.025391
				c-0.02832-0.020508-0.050781-0.048828-0.050781-0.087891c0,0,0-0.00293,0.015625-0.431641
				c-0.114258-0.035156-0.224609-0.100586-0.308594-0.195313c-0.095703,0.103516-0.240234,0.169922-0.395508,0.169922
				c-0.299805,0-0.561523-0.260742-0.561523-0.577148c0-0.198242,0.104492-0.37793,0.263672-0.475586
				c-0.011719-0.052734-0.015625-0.105469-0.015625-0.166992c0-0.254883,0.163086-0.456055,0.395508-0.53418
				c0-0.023438,0-0.041992,0-0.072266c0-0.15918,0.058594-0.298828,0.15918-0.401367
				c0.102539-0.100586,0.242188-0.15918,0.402344-0.15918c0.289063,0,0.523438,0.207031,0.556641,0.478516
				c0.025391,0,0.051758,0,0.064453,0c0.319336,0,0.580078,0.260742,0.580078,0.560547
				c0,0.041992-0.012695,0.072266-0.015625,0.111328C29.179688,43.195313,29.335938,43.391602,29.335938,43.629883z
				 M29.140625,43.629883c0-0.163086-0.132813-0.333008-0.316406-0.365234c0,0,0,0-0.072266-0.020508l-0.025391-0.006836
				l0.005859-0.026367c0,0,0,0,0.015625-0.071289c0.020508-0.055664,0.037109-0.087891,0.037109-0.136719
				c0-0.195313-0.166016-0.364258-0.384766-0.364258c-0.033203,0-0.083984,0.00293-0.111328,0.016602h-0.001953h-0.003906
				c0,0,0,0-0.104492,0.036133l-0.041992,0.014648l0.005859-0.044922c0,0,0,0,0.017578-0.103516v-0.033203
				c0-0.198242-0.164063-0.365234-0.380859-0.365234c-0.199219,0-0.365234,0.166992-0.365234,0.365234
				c0,0.036133,0,0.084961,0.012695,0.111328l0.00293,0.00293v0.005859c0,0,0,0,0.017578,0.086914l0.005859,0.033203h-0.033203
				c0,0,0,0-0.085938,0c-0.182617,0.016602-0.31543,0.182617-0.31543,0.365234c0,0.071289,0,0.117188,0.032227,0.162109v0.004883
				c0,0,0,0,0.035156,0.071289l0.016602,0.029297l-0.033203,0.005859c0,0,0,0-0.067383,0.020508
				c-0.150391,0.064453-0.231445,0.198242-0.231445,0.348633c0,0.21875,0.166016,0.381836,0.365234,0.381836
				c0.132813,0,0.248047-0.064453,0.332031-0.182617c0.00293-0.006836,0.013672-0.026367,0.051758-0.104492l0.023438-0.041992
				l0.021484,0.039063c0,0,0,0,0.072266,0.108398l0.00293,0.00293c0.048828,0.133789,0.182617,0.233398,0.333008,0.233398
				c0.166992,0,0.316406-0.116211,0.349609-0.263672v-0.003906c0,0,0,0,0.035156-0.124023l0.013672-0.041992l0.033203,0.030273
				c0,0,0,0,0.087891,0.09082c0.064453,0.064453,0.166016,0.117188,0.266602,0.117188
				C28.974609,44.010742,29.140625,43.847656,29.140625,43.629883z"/>
		</g>
	</g>
</g>
<g id="scrub_x5F_bd_7_" style="&st0;">
	<g id="Scrub_x5F_FC_9_">
		<g id="Deleted_Symbol_1_9_">
			<path style="&st1;" d="M4.395996,48.870117c-0.028809,0-0.053711-0.019531-0.0625-0.046875L4.18457,48.338867
				c-0.010254-0.032227,0.006836-0.067383,0.039063-0.081055l0.07666-0.029297
				C4.3125,48.227539,4.32373,48.226563,4.33252,48.226563c0.036621,0.011719,0.04834,0.026367,0.054688,0.043945l0.146973,0.494141
				c0.009766,0.035156-0.009277,0.071289-0.042969,0.082031c-0.041016,0.012695-0.068359,0.018555-0.081055,0.021484
				L4.395996,48.870117z"/>
			<path style="&st1;" d="M5.315918,48.74707c-0.039063,0-0.070801-0.032227-0.071777-0.072266l-0.006348-0.49707
				c0-0.039063-0.013672-0.057617-0.024902-0.069336c-0.013672-0.014648-0.035645-0.022461-0.060059-0.022461
				c-0.023926,0-0.063965,0.007813-0.11377,0.048828c-0.013184,0.009766-0.027832,0.014648-0.044922,0.014648
				c-0.038086-0.004883-0.052246-0.019531-0.059082-0.03125L4.88916,48.049805
				c-0.021973-0.033203-0.01416-0.076172,0.019043-0.099609c0.085938-0.060547,0.174805-0.09375,0.255859-0.09375
				c0.085938,0,0.162109,0.038086,0.217773,0.109375c0.047852,0.063477,0.072754,0.134766,0.072754,0.211914l0.005859,0.461914
				l0.005859,0.037109c0,0.037109-0.032715,0.069336-0.071289,0.070313H5.315918z"/>
			<path style="&st1;" d="M7.455078,48.813477c-0.026855-0.005859-0.053223-0.012695-0.076172-0.019531
				c-0.033691-0.010742-0.053711-0.045898-0.043945-0.080078l0.144043-0.496094
				c0.004883-0.017578,0.01709-0.03125,0.032715-0.040039l0.133789,0.023438c0.033203,0.012695,0.05127,0.048828,0.041016,0.082031
				l-0.154785,0.486328c-0.009277,0.02832-0.033691,0.045898-0.060547,0.045898L7.455078,48.813477z"/>
			<path style="&st1;" d="M6.360352,48.705078c-0.046875,0-0.09375-0.017578-0.139648-0.050781
				c0.006836-0.013672-0.174316-0.900391-0.364258-1.183594c-0.024902-0.046875-0.037109-0.09668-0.030762-0.106445
				c0.045898,0.007813,0.09375,0.026367,0.168945,0.072266c0.015137,0.012695,0.185059,0.107422,0.291016,0.600586
				l0.036133,0.116211c0.016602-0.027344,0.044922-1.038086,0.400391-1.194336
				c0.032715-0.020508,0.084961-0.045898,0.111816-0.050781c-0.005859,0.006836-0.01416,0.032227-0.053711,0.09375
				c-0.01123,0.016602-0.214355,0.339844-0.225098,0.792969v0.117188c0.022949-0.013672,0.171875-0.28418,0.44873-0.342773
				c0.033203-0.012695,0.052246-0.015625,0.062988-0.016602c-0.008789,0.004883-0.022949,0.035156-0.09668,0.115234
				c-0.000977,0.000977-0.167969,0.170898-0.461914,0.776367l-0.024414,0.234375
				C6.459961,48.680664,6.41748,48.705078,6.360352,48.705078z"/>
		</g>
	</g>
</g>
<g id="coniferoustree_x5F_bd_7_" style="&st0;">
	<g id="ConiferousTree_x5F_FC_9_">
		<g id="Deleted_Symbol_9_">
			<path style="&st1;" d="M9.517578,46.814453c-0.390137-0.071289-0.817871-0.762695-0.817871-0.762695l0.040039,1.092773
				c-0.047363,0.176758-0.291992,0.040039-0.291992,0.040039l0.024902-1.032227
				c-0.313965,0.494141-0.78418,0.693359-0.78418,0.693359c-0.142578-0.012695-0.036621-0.09375-0.036621-0.09375
				c0.730469-0.697266,0.783691-0.985352,0.783691-0.985352c0.083008-0.287109,0.056152-0.803711,0.056152-0.803711
				c-0.361328,0.522461-0.601074,0.557617-0.601074,0.557617c-0.064941,0.014648-0.090332,0-0.090332,0
				c-0.064941-0.043945,0.043457-0.140625,0.043457-0.140625c0.092773-0.078125,0.173828-0.151367,0.242676-0.223633
				c0.005859-0.005859,0.009277-0.008789,0.012207-0.012695c-0.00293,0.00293-0.007324,0.005859-0.013184,0.012695
				c0.35791-0.368164,0.398926-0.617188,0.398926-0.617188l0.083984-0.506836c0,0,0.020996-0.06543,0.040039,0L8.67334,44.56543
				c0.083984,0.257813,0.588379,0.787109,0.588379,0.787109c0.067871,0.064453-0.025391,0.0625-0.025391,0.0625
				c-0.282715-0.041992-0.543945-0.458984-0.543945-0.458984l0.038086,0.842773
				c0.132813,0.34375,0.787109,0.831055,0.787109,0.831055C9.690918,46.714844,9.517578,46.814453,9.517578,46.814453z
				 M7.865723,45.361328c-0.007324,0.005859-0.016113,0.011719-0.021973,0.018555
				C7.84375,45.379883,7.852539,45.373047,7.865723,45.361328z M7.946289,45.286133
				c-0.031738,0.02832-0.062988,0.056641-0.080566,0.075195C7.895508,45.333008,7.921387,45.308594,7.946289,45.286133z
				 M8.014648,45.220703c-0.019043,0.019531-0.043945,0.041016-0.068359,0.06543
				C7.96875,45.265625,7.992676,45.243164,8.014648,45.220703z M8.067383,45.173828
				c-0.015625,0.016602-0.033691,0.032227-0.052734,0.046875C8.033691,45.202148,8.051758,45.1875,8.067383,45.173828z
				 M8.067383,45.173828c0.006348-0.005859,0.012207-0.011719,0.019043-0.018555
				C8.07959,45.162109,8.07373,45.167969,8.067383,45.173828z M8.135742,45.109375
				c-0.003418,0.005859-0.012207,0.011719-0.019043,0.017578C8.126465,45.119141,8.132324,45.112305,8.135742,45.109375z"/>
		</g>
	</g>
</g>
<g id="nonconiferoustree_x5F_bd_7_" style="&st0;">
	<g id="NonConiferousTree_x5F_FC_9_">
		<g id="Deleted_Symbol_2_9_">
			<path style="&st1;" d="M5.560059,45.043945c0,0.318359-0.260742,0.579102-0.57666,0.579102
				c-0.104004,0-0.205078-0.035156-0.296387-0.100586c-0.074707,0.132813-0.206055,0.231445-0.355957,0.269531
				c0.00293,0.036133,0.013184,0.137695,0.036133,0.424805v0.00293c0,0.039063-0.025879,0.067383-0.058105,0.087891
				c-0.032715,0.015625-0.071777,0.026367-0.11084,0.026367c-0.032227,0-0.067871-0.009766-0.098145-0.025391
				c-0.028809-0.020508-0.051758-0.048828-0.051758-0.087891c0,0,0-0.00293,0.015625-0.431641
				c-0.11377-0.035156-0.224609-0.100586-0.308594-0.195313c-0.095215,0.103516-0.239258,0.169922-0.39502,0.169922
				c-0.300293,0-0.561035-0.260742-0.561035-0.577148c0-0.198242,0.104004-0.37793,0.263672-0.475586
				c-0.012695-0.052734-0.015625-0.105469-0.015625-0.166992c0-0.254883,0.162598-0.456055,0.39502-0.53418
				c0-0.023438,0-0.041992,0-0.072266c0-0.15918,0.058594-0.298828,0.159668-0.401367
				c0.102051-0.100586,0.242188-0.15918,0.401367-0.15918c0.289551,0,0.523926,0.207031,0.556641,0.478516
				c0.025879,0,0.052246,0,0.064941,0c0.319336,0,0.580078,0.260742,0.580078,0.560547
				c0,0.041992-0.012695,0.072266-0.016113,0.111328C5.404297,44.609375,5.560059,44.805664,5.560059,45.043945z
				 M5.365234,45.043945c0-0.163086-0.133301-0.333008-0.315918-0.365234c0,0,0,0-0.072266-0.020508l-0.025879-0.006836
				L4.957031,44.625c0,0,0,0,0.016113-0.071289c0.02002-0.055664,0.037109-0.087891,0.037109-0.136719
				c0-0.195313-0.166992-0.364258-0.385254-0.364258c-0.032715,0-0.083984,0.00293-0.11084,0.016602H4.51123H4.507324
				c0,0,0,0-0.104004,0.036133l-0.041992,0.014648l0.005859-0.044922c0,0,0,0,0.01709-0.103516v-0.033203
				c0-0.198242-0.163086-0.365234-0.380859-0.365234c-0.199219,0-0.365234,0.166992-0.365234,0.365234
				c0,0.036133,0,0.084961,0.013184,0.111328l0.00293,0.00293v0.005859c0,0,0,0,0.01709,0.086914l0.005859,0.033203H3.644043
				c0,0,0,0-0.084961,0c-0.183105,0.016602-0.315918,0.182617-0.315918,0.365234c0,0.071289,0,0.117188,0.032227,0.162109v0.004883
				c0,0,0,0,0.035645,0.071289l0.016113,0.029297l-0.033203,0.005859c0,0,0,0-0.067871,0.020508
				c-0.149902,0.064453-0.230957,0.198242-0.230957,0.348633c0,0.21875,0.166016,0.381836,0.365234,0.381836
				c0.132813,0,0.248047-0.064453,0.332031-0.182617c0.00293-0.006836,0.013672-0.026367,0.051758-0.104492l0.022949-0.041992
				l0.021973,0.039063c0,0,0,0,0.072266,0.108398l0.00293,0.00293c0.048828,0.133789,0.183105,0.233398,0.333008,0.233398
				c0.166992,0,0.315918-0.116211,0.349121-0.263672v-0.003906c0,0,0,0,0.035645-0.124023l0.013184-0.041992l0.033203,0.030273
				c0,0,0,0,0.087891,0.09082c0.064941,0.064453,0.166016,0.117188,0.26709,0.117188
				C5.199219,45.424805,5.365234,45.261719,5.365234,45.043945z"/>
		</g>
	</g>
</g>
</svg>
