<?xml version="1.0" encoding="utf-8"?>
<!-- Generator: Adobe Illustrator 16.0.3, SVG Export Plug-In . SVG Version: 6.00 Build 0)  -->
<!DOCTYPE svg PUBLIC "-//W3C//DTD SVG 1.1//EN" "http://www.w3.org/Graphics/SVG/1.1/DTD/svg11.dtd">
<svg version="1.1" id="Layer_1" xmlns="http://www.w3.org/2000/svg" xmlns:xlink="http://www.w3.org/1999/xlink" x="0px" y="0px"
	 width="50px" height="50px" viewBox="0 0 50 50" style="enable-background:new 0 0 50 50;" xml:space="preserve">
<g id="roughgrass_x5F_bd_13_">
	<g id="RoughGrass_x5F_FC_15_">
		<path style="fill:#A9CDA6;" d="M6.893555,40.69043l0.010254,0.056641l-0.041016,0.042969l-0.042969,0.021484
			c-0.030273,0.012695-0.062988,0.00293-0.083008-0.023438L6.581055,40.56543l-0.009766-0.057617l0.035645-0.042969
			l0.043457-0.022461c0.029785-0.013672,0.06543-0.00293,0.086426,0.022461L6.893555,40.69043z"/>
		<path style="fill:#A9CDA6;" d="M8.036621,40.417969c0,0.003906,0,0.007813-0.003906,0.011719
			c-0.01123-0.015625-0.021973-0.025391-0.037109-0.040039c-0.047363-0.056641-0.133301-0.132813-0.133301-0.132813
			c-0.037109-0.123047,0.052734-0.328125,0.052734-0.328125c-0.014648-0.140625,0.010254-0.350586,0.010254-0.350586
			C8.269531,40.033203,8.036621,40.417969,8.036621,40.417969z"/>
		<path style="fill:#A9CDA6;" d="M8.032715,40.428711c0.03418,0.041016,0.09375,0.05957,0.116211,0.173828L8.094727,40.625
			l-0.118652-0.010742C7.973145,40.546875,7.999512,40.496094,8.032715,40.428711z"/>
		<path style="fill:#A9CDA6;" d="M9.089355,39.990234l-0.225098,0.224609c0,0-0.062012,0.052734-0.163086,0.290039
			L8.69043,40.621094c0,0-0.087891,0.045898-0.200684-0.021484c0,0,0.051758-0.145508,0.062988-0.292969
			c0,0,0.009766-0.522461,0.253418-0.609375c0,0,0.181152-0.091797,0.067871,0.046875c0,0-0.148926,0.199219-0.152832,0.438477
			C8.722168,40.181641,8.875,39.978516,9.089355,39.990234z"/>
		<path style="fill:#A9CDA6;" d="M10.077148,40.507813l-0.009766,0.057617l-0.155762,0.22168
			c-0.02002,0.026367-0.052734,0.036133-0.083008,0.023438l-0.042969-0.020508L9.746582,40.74707l0.010254-0.056641
			l0.154785-0.226563c0.02002-0.025391,0.056641-0.036133,0.085449-0.022461l0.042969,0.022461L10.077148,40.507813z"/>
		<path style="fill:#A9CDA6;" d="M7.390137,40.249023l0.105957,0.348633l-0.00293,0.06543l-0.042969,0.039063
			c-0.029785,0.012695-0.049805,0.017578-0.060059,0.017578c-0.032715,0.006836-0.064453-0.012695-0.075684-0.048828
			l-0.105957-0.342773v-0.06543l0.042969-0.040039l0.053223-0.020508C7.341309,40.186523,7.376953,40.209961,7.390137,40.249023z"/>
		<path style="fill:#A9CDA6;" d="M9.36377,40.202148l0.052734,0.020508l0.043457,0.040039v0.06543l-0.106445,0.342773
			C9.34375,40.707031,9.310547,40.726563,9.27832,40.71875c-0.010254,0-0.030273-0.004883-0.060059-0.017578l-0.042969-0.038086
			l-0.00293-0.066406l0.105957-0.348633C9.291016,40.209961,9.327637,40.186523,9.36377,40.202148z"/>
	</g>
</g>
<g id="scrub_x5F_bd_11_">
	<g id="Scrub_x5F_FC_13_">
		<g id="Deleted_Symbol_1_13_">
			<path style="fill:#A9CDA6;" d="M9.454102,38.905273c-0.028809,0-0.053711-0.019531-0.0625-0.046875l-0.148926-0.484375
				c-0.010254-0.032227,0.006836-0.067383,0.039063-0.081055l0.07666-0.029297
				c0.012207-0.000977,0.023438-0.001953,0.032227-0.001953c0.036621,0.011719,0.04834,0.026367,0.054688,0.043945
				l0.146973,0.494141c0.009766,0.035156-0.009277,0.071289-0.042969,0.082031
				c-0.041016,0.012695-0.068359,0.018555-0.081055,0.021484L9.454102,38.905273z"/>
			<path style="fill:#A9CDA6;" d="M10.374023,38.782227c-0.039063,0-0.070801-0.032227-0.071777-0.072266l-0.006348-0.49707
				c0-0.039063-0.013672-0.057617-0.024902-0.069336c-0.013672-0.014648-0.035645-0.022461-0.060059-0.022461
				c-0.023926,0-0.063965,0.007813-0.11377,0.048828c-0.013184,0.009766-0.027832,0.014648-0.044922,0.014648
				C10.01416,38.179688,10,38.165039,9.993164,38.15332l-0.045898-0.068359c-0.021973-0.033203-0.01416-0.076172,0.019043-0.099609
				c0.085938-0.060547,0.174805-0.09375,0.255859-0.09375c0.085938,0,0.162109,0.038086,0.217773,0.109375
				c0.047852,0.063477,0.072754,0.134766,0.072754,0.211914l0.005859,0.461914l0.005859,0.037109
				c0,0.037109-0.032715,0.069336-0.071289,0.070313H10.374023z"/>
			<path style="fill:#A9CDA6;" d="M12.513184,38.848633c-0.026855-0.005859-0.053223-0.012695-0.076172-0.019531
				c-0.033691-0.010742-0.053711-0.045898-0.043945-0.080078l0.144043-0.496094
				c0.004883-0.017578,0.01709-0.03125,0.032715-0.040039l0.133789,0.023438c0.033203,0.012695,0.05127,0.048828,0.041016,0.082031
				l-0.154785,0.486328c-0.009277,0.02832-0.033691,0.045898-0.060547,0.045898L12.513184,38.848633z"/>
			<path style="fill:#A9CDA6;" d="M11.418457,38.740234c-0.046875,0-0.09375-0.017578-0.139648-0.050781
				c0.006836-0.013672-0.174316-0.900391-0.364258-1.183594c-0.024902-0.046875-0.037109-0.09668-0.030762-0.106445
				c0.045898,0.007813,0.09375,0.026367,0.168945,0.072266c0.015137,0.012695,0.185059,0.107422,0.291016,0.600586
				l0.036133,0.116211c0.016602-0.027344,0.044922-1.038086,0.400391-1.194336
				c0.032715-0.020508,0.084961-0.045898,0.111816-0.050781c-0.005859,0.006836-0.01416,0.032227-0.053711,0.09375
				c-0.01123,0.016602-0.214355,0.339844-0.225098,0.792969v0.117188c0.022949-0.013672,0.171875-0.28418,0.44873-0.342773
				c0.033203-0.012695,0.052246-0.015625,0.062988-0.016602c-0.008789,0.004883-0.022949,0.035156-0.09668,0.115234
				c-0.000977,0.000977-0.167969,0.170898-0.461914,0.776367l-0.024414,0.234375
				C11.518066,38.71582,11.475586,38.740234,11.418457,38.740234z"/>
		</g>
	</g>
</g>
<g id="scrub_x5F_bd_12_" style="enable-background:new    ;">
	<g id="Scrub_x5F_FC_14_">
		<g id="Deleted_Symbol_1_14_">
			<path style="fill:#A9CDA6;" d="M5.030273,38.141602c-0.028809,0-0.053711-0.019531-0.0625-0.046875l-0.148926-0.484375
				c-0.010254-0.032227,0.006836-0.067383,0.039063-0.081055L4.93457,37.5c0.012207-0.000977,0.023438-0.001953,0.032227-0.001953
				c0.036621,0.011719,0.04834,0.026367,0.054688,0.043945l0.146973,0.494141
				c0.009766,0.035156-0.009277,0.071289-0.042969,0.082031c-0.041016,0.012695-0.068359,0.018555-0.081055,0.021484
				L5.030273,38.141602z"/>
			<path style="fill:#A9CDA6;" d="M5.950195,38.018555c-0.039063,0-0.070801-0.032227-0.071777-0.072266l-0.006348-0.49707
				c0-0.039063-0.013672-0.057617-0.024902-0.069336c-0.013672-0.014648-0.035645-0.022461-0.060059-0.022461
				c-0.023926,0-0.063965,0.007813-0.11377,0.048828c-0.013184,0.009766-0.027832,0.014648-0.044922,0.014648
				c-0.038086-0.004883-0.052246-0.019531-0.059082-0.03125l-0.045898-0.068359
				c-0.021973-0.033203-0.01416-0.076172,0.019043-0.099609c0.085938-0.060547,0.174805-0.09375,0.255859-0.09375
				c0.085938,0,0.162109,0.038086,0.217773,0.109375c0.047852,0.063477,0.072754,0.134766,0.072754,0.211914l0.005859,0.461914
				l0.005859,0.037109c0,0.037109-0.032715,0.069336-0.071289,0.070313H5.950195z"/>
			<path style="fill:#A9CDA6;" d="M8.089355,38.084961C8.0625,38.079102,8.036133,38.072266,8.013184,38.06543
				c-0.033691-0.010742-0.053711-0.045898-0.043945-0.080078l0.144043-0.496094
				c0.004883-0.017578,0.01709-0.03125,0.032715-0.040039l0.133789,0.023438c0.033203,0.012695,0.05127,0.048828,0.041016,0.082031
				l-0.154785,0.486328c-0.009277,0.02832-0.033691,0.045898-0.060547,0.045898L8.089355,38.084961z"/>
			<path style="fill:#A9CDA6;" d="M6.994629,37.976563c-0.046875,0-0.09375-0.017578-0.139648-0.050781
				c0.006836-0.013672-0.174316-0.900391-0.364258-1.183594c-0.024902-0.046875-0.037109-0.09668-0.030762-0.106445
				c0.045898,0.007813,0.09375,0.026367,0.168945,0.072266c0.015137,0.012695,0.185059,0.107422,0.291016,0.600586
				l0.036133,0.116211c0.016602-0.027344,0.044922-1.038086,0.400391-1.194336
				c0.032715-0.020508,0.084961-0.045898,0.111816-0.050781c-0.005859,0.006836-0.01416,0.032227-0.053711,0.09375
				c-0.01123,0.016602-0.214355,0.339844-0.225098,0.792969v0.117188c0.022949-0.013672,0.171875-0.28418,0.44873-0.342773
				c0.033203-0.012695,0.052246-0.015625,0.062988-0.016602c-0.008789,0.004883-0.022949,0.035156-0.09668,0.115234
				c-0.000977,0.000977-0.167969,0.170898-0.461914,0.776367l-0.024414,0.234375
				C7.094238,37.952148,7.051758,37.976563,6.994629,37.976563z"/>
		</g>
	</g>
</g>
<g id="roughgrass_x5F_bd_8_" style="enable-background:new    ;">
	<g id="RoughGrass_x5F_FC_10_">
		<path style="fill:#A9CDA6;" d="M25.074219,35.415039l0.010254,0.056641l-0.041016,0.042969l-0.042969,0.021484
			c-0.030273,0.012695-0.062988,0.00293-0.083008-0.023438l-0.155762-0.222656l-0.009766-0.057617l0.035645-0.042969
			l0.043457-0.022461c0.029785-0.013672,0.06543-0.00293,0.086426,0.022461L25.074219,35.415039z"/>
		<path style="fill:#A9CDA6;" d="M26.217773,35.142578c0,0.003906,0,0.007813-0.003906,0.011719
			c-0.011719-0.015625-0.022461-0.025391-0.037109-0.040039c-0.047852-0.056641-0.133789-0.132813-0.133789-0.132813
			c-0.037109-0.123047,0.052734-0.328125,0.052734-0.328125c-0.014648-0.140625,0.009766-0.350586,0.009766-0.350586
			C26.450195,34.757813,26.217773,35.142578,26.217773,35.142578z"/>
		<path style="fill:#A9CDA6;" d="M26.213867,35.15332c0.03418,0.041016,0.09375,0.05957,0.116211,0.173828l-0.054688,0.022461
			l-0.119141-0.010742C26.15332,35.271484,26.180664,35.220703,26.213867,35.15332z"/>
		<path style="fill:#A9CDA6;" d="M27.269531,34.714844l-0.224609,0.224609c0,0-0.061523,0.052734-0.163086,0.290039
			l-0.010742,0.116211c0,0-0.087891,0.045898-0.201172-0.021484c0,0,0.051758-0.145508,0.063477-0.292969
			c0,0,0.009766-0.522461,0.253906-0.609375c0,0,0.180664-0.091797,0.067383,0.046875c0,0-0.148438,0.199219-0.152344,0.438477
			C26.90332,34.90625,27.055664,34.703125,27.269531,34.714844z"/>
		<path style="fill:#A9CDA6;" d="M28.257813,35.232422l-0.009766,0.057617l-0.15625,0.22168
			c-0.019531,0.026367-0.052734,0.036133-0.083008,0.023438l-0.042969-0.020508l-0.039063-0.042969l0.010742-0.056641
			l0.154297-0.226563c0.020508-0.025391,0.057617-0.036133,0.085938-0.022461l0.042969,0.022461L28.257813,35.232422z"/>
		<path style="fill:#A9CDA6;" d="M25.571289,34.973633l0.105469,0.348633l-0.00293,0.06543l-0.042969,0.039063
			c-0.029297,0.012695-0.049805,0.017578-0.05957,0.017578c-0.033203,0.006836-0.06543-0.012695-0.076172-0.048828
			l-0.105957-0.342773v-0.06543l0.042969-0.040039l0.053223-0.020508C25.522461,34.911133,25.557617,34.93457,25.571289,34.973633z"
			/>
		<path style="fill:#A9CDA6;" d="M27.544922,34.926758l0.052734,0.020508l0.042969,0.040039v0.06543l-0.106445,0.342773
			c-0.009766,0.036133-0.042969,0.055664-0.075195,0.047852c-0.010742,0-0.030273-0.004883-0.060547-0.017578l-0.042969-0.038086
			l-0.00293-0.066406l0.106445-0.348633C27.47168,34.93457,27.508789,34.911133,27.544922,34.926758z"/>
	</g>
</g>
<g id="scrub_x5F_bd_7_" style="enable-background:new    ;">
	<g id="Scrub_x5F_FC_9_">
		<g id="Deleted_Symbol_1_9_">
			<path style="fill:#A9CDA6;" d="M27.634766,33.629883c-0.029297,0-0.054688-0.019531-0.063477-0.046875l-0.148438-0.484375
				c-0.010742-0.032227,0.006836-0.067383,0.039063-0.081055l0.076172-0.029297
				c0.012695-0.000977,0.023438-0.001953,0.032227-0.001953c0.037109,0.011719,0.048828,0.026367,0.055664,0.043945
				l0.146484,0.494141c0.009766,0.035156-0.008789,0.071289-0.042969,0.082031
				c-0.041016,0.012695-0.068359,0.018555-0.081055,0.021484L27.634766,33.629883z"/>
			<path style="fill:#A9CDA6;" d="M28.553711,33.506836c-0.039063,0-0.070313-0.032227-0.071289-0.072266l-0.006836-0.49707
				c0-0.039063-0.013672-0.057617-0.024414-0.069336c-0.013672-0.014648-0.036133-0.022461-0.060547-0.022461
				c-0.023438,0-0.063477,0.007813-0.113281,0.048828c-0.013672,0.009766-0.02832,0.014648-0.044922,0.014648
				c-0.038086-0.004883-0.052734-0.019531-0.05957-0.03125l-0.045898-0.068359
				c-0.021484-0.033203-0.013672-0.076172,0.019531-0.099609c0.085938-0.060547,0.174805-0.09375,0.255859-0.09375
				c0.085938,0,0.162109,0.038086,0.217773,0.109375c0.047852,0.063477,0.073242,0.134766,0.073242,0.211914l0.005859,0.461914
				l0.005859,0.037109c0,0.037109-0.033203,0.069336-0.072266,0.070313H28.553711z"/>
			<path style="fill:#A9CDA6;" d="M30.693359,33.573242c-0.027344-0.005859-0.053711-0.012695-0.076172-0.019531
				c-0.03418-0.010742-0.053711-0.045898-0.043945-0.080078l0.143555-0.496094
				c0.004883-0.017578,0.017578-0.03125,0.033203-0.040039l0.133789,0.023438
				c0.033203,0.012695,0.051758,0.048828,0.041016,0.082031l-0.154297,0.486328
				c-0.009766,0.02832-0.03418,0.045898-0.061523,0.045898L30.693359,33.573242z"/>
			<path style="fill:#A9CDA6;" d="M29.598633,33.464844c-0.046875,0-0.09375-0.017578-0.139648-0.050781
				c0.006836-0.013672-0.174805-0.900391-0.364258-1.183594c-0.024414-0.046875-0.037109-0.09668-0.030273-0.106445
				c0.045898,0.007813,0.09375,0.026367,0.167969,0.072266c0.015625,0.012695,0.185547,0.107422,0.291016,0.600586
				l0.036133,0.116211c0.016602-0.027344,0.044922-1.038086,0.401367-1.194336
				c0.032227-0.020508,0.084961-0.045898,0.111328-0.050781c-0.005859,0.006836-0.013672,0.032227-0.053711,0.09375
				c-0.010742,0.016602-0.213867,0.339844-0.224609,0.792969v0.117188c0.022461-0.013672,0.171875-0.28418,0.448242-0.342773
				c0.033203-0.012695,0.051758-0.015625,0.0625-0.016602c-0.008789,0.004883-0.022461,0.035156-0.095703,0.115234
				c-0.000977,0.000977-0.167969,0.170898-0.461914,0.776367l-0.024414,0.234375
				C29.698242,33.44043,29.655273,33.464844,29.598633,33.464844z"/>
		</g>
	</g>
</g>
<g id="scrub_x5F_bd_8_" style="enable-background:new    ;">
	<g id="Scrub_x5F_FC_10_">
		<g id="Deleted_Symbol_1_10_">
			<path style="fill:#A9CDA6;" d="M23.210938,32.866211c-0.028809,0-0.053711-0.019531-0.0625-0.046875l-0.148926-0.484375
				c-0.010254-0.032227,0.006836-0.067383,0.039063-0.081055l0.07666-0.029297
				c0.012207-0.000977,0.023438-0.001953,0.032227-0.001953c0.036621,0.011719,0.04834,0.026367,0.054688,0.043945
				l0.146973,0.494141c0.009766,0.035156-0.009277,0.071289-0.042969,0.082031
				c-0.041016,0.012695-0.068359,0.018555-0.081055,0.021484L23.210938,32.866211z"/>
			<path style="fill:#A9CDA6;" d="M24.130859,32.743164c-0.039063,0-0.070801-0.032227-0.071777-0.072266l-0.006348-0.49707
				c0-0.039063-0.013672-0.057617-0.024902-0.069336c-0.013672-0.014648-0.035645-0.022461-0.060059-0.022461
				c-0.023926,0-0.063965,0.007813-0.11377,0.048828c-0.013184,0.009766-0.027832,0.014648-0.044922,0.014648
				c-0.038086-0.004883-0.052246-0.019531-0.059082-0.03125l-0.045898-0.068359
				c-0.021973-0.033203-0.01416-0.076172,0.019043-0.099609c0.085938-0.060547,0.174805-0.09375,0.255859-0.09375
				c0.085938,0,0.162109,0.038086,0.217773,0.109375c0.047852,0.063477,0.072754,0.134766,0.072754,0.211914l0.005859,0.461914
				l0.005859,0.037109c0,0.037109-0.032715,0.069336-0.071289,0.070313H24.130859z"/>
			<path style="fill:#A9CDA6;" d="M26.269531,32.80957c-0.026367-0.005859-0.052734-0.012695-0.076172-0.019531
				c-0.033203-0.010742-0.053711-0.045898-0.043945-0.080078l0.144531-0.496094
				c0.004883-0.017578,0.016602-0.03125,0.033203-0.040039l0.133789,0.023438
				c0.033203,0.012695,0.050781,0.048828,0.041016,0.082031l-0.155273,0.486328
				c-0.008789,0.02832-0.03418,0.045898-0.060547,0.045898L26.269531,32.80957z"/>
			<path style="fill:#A9CDA6;" d="M25.175293,32.701172c-0.046875,0-0.09375-0.017578-0.139648-0.050781
				c0.006836-0.013672-0.174316-0.900391-0.364258-1.183594c-0.024902-0.046875-0.037109-0.09668-0.030762-0.106445
				c0.045898,0.007813,0.09375,0.026367,0.168945,0.072266c0.015137,0.012695,0.185059,0.107422,0.291016,0.600586
				l0.036133,0.116211c0.016602-0.027344,0.044922-1.038086,0.400391-1.194336
				c0.033203-0.020508,0.084961-0.045898,0.112305-0.050781c-0.005859,0.006836-0.014648,0.032227-0.053711,0.09375
				c-0.011719,0.016602-0.214844,0.339844-0.225586,0.792969v0.117188c0.022949-0.013672,0.171875-0.28418,0.448242-0.342773
				c0.033203-0.012695,0.052734-0.015625,0.063477-0.016602c-0.008789,0.004883-0.023438,0.035156-0.09668,0.115234
				c-0.000977,0.000977-0.167969,0.170898-0.461914,0.776367l-0.024414,0.234375
				C25.274902,32.676758,25.232422,32.701172,25.175293,32.701172z"/>
		</g>
	</g>
</g>
<g id="roughgrass_x5F_bd_14_" style="enable-background:new    ;">
	<g id="RoughGrass_x5F_FC_16_">
		<path style="fill:#A9CDA6;" d="M4.685547,26.733398l0.010254,0.056641l-0.041016,0.042969l-0.042969,0.021484
			c-0.030273,0.012695-0.062988,0.00293-0.083008-0.023438l-0.155762-0.222656l-0.009766-0.057617l0.035645-0.042969
			l0.043457-0.022461c0.029785-0.013672,0.06543-0.00293,0.086426,0.022461L4.685547,26.733398z"/>
		<path style="fill:#A9CDA6;" d="M5.828613,26.460938c0,0.003906,0,0.007813-0.003906,0.011719
			c-0.01123-0.015625-0.021973-0.025391-0.037109-0.040039c-0.047363-0.056641-0.133301-0.132813-0.133301-0.132813
			c-0.037109-0.123047,0.052734-0.328125,0.052734-0.328125c-0.014648-0.140625,0.010254-0.350586,0.010254-0.350586
			C6.061523,26.076172,5.828613,26.460938,5.828613,26.460938z"/>
		<path style="fill:#A9CDA6;" d="M5.824707,26.47168c0.03418,0.041016,0.09375,0.05957,0.116211,0.173828l-0.054199,0.022461
			l-0.118652-0.010742C5.765137,26.589844,5.791504,26.539063,5.824707,26.47168z"/>
		<path style="fill:#A9CDA6;" d="M6.881348,26.033203L6.65625,26.257813c0,0-0.062012,0.052734-0.163086,0.290039
			l-0.010742,0.116211c0,0-0.087891,0.045898-0.200684-0.021484c0,0,0.051758-0.145508,0.062988-0.292969
			c0,0,0.009766-0.522461,0.253418-0.609375c0,0,0.181152-0.091797,0.067871,0.046875c0,0-0.148926,0.199219-0.152832,0.438477
			C6.51416,26.224609,6.666992,26.021484,6.881348,26.033203z"/>
		<path style="fill:#A9CDA6;" d="M7.869141,26.550781l-0.009766,0.057617l-0.155762,0.22168
			c-0.02002,0.026367-0.052734,0.036133-0.083008,0.023438l-0.042969-0.020508l-0.039063-0.042969l0.010254-0.056641
			l0.154785-0.226563c0.02002-0.025391,0.056641-0.036133,0.085449-0.022461l0.042969,0.022461L7.869141,26.550781z"/>
		<path style="fill:#A9CDA6;" d="M5.182129,26.291992l0.105957,0.348633l-0.00293,0.06543l-0.042969,0.039063
			c-0.029785,0.012695-0.049805,0.017578-0.060059,0.017578C5.149414,26.769531,5.117676,26.75,5.106445,26.713867
			l-0.105957-0.342773v-0.06543l0.042969-0.040039l0.053223-0.020508C5.133301,26.229492,5.168945,26.25293,5.182129,26.291992z"/>
		<path style="fill:#A9CDA6;" d="M7.155762,26.245117l0.052734,0.020508l0.043457,0.040039v0.06543l-0.106445,0.342773
			C7.135742,26.75,7.102539,26.769531,7.070313,26.761719c-0.010254,0-0.030273-0.004883-0.060059-0.017578l-0.042969-0.038086
			l-0.00293-0.066406l0.105957-0.348633C7.083008,26.25293,7.119629,26.229492,7.155762,26.245117z"/>
	</g>
</g>
<g id="scrub_x5F_bd_13_" style="enable-background:new    ;">
	<g id="Scrub_x5F_FC_15_">
		<g id="Deleted_Symbol_1_15_">
			<path style="fill:#A9CDA6;" d="M7.246094,24.947754c-0.028809,0-0.053711-0.019531-0.0625-0.046875l-0.148926-0.483887
				c-0.010254-0.032227,0.006836-0.067383,0.039063-0.081055l0.07666-0.029297
				c0.012207-0.000977,0.023438-0.001953,0.032227-0.001953c0.036621,0.011719,0.04834,0.026367,0.054688,0.043945
				l0.146973,0.493652c0.009766,0.035156-0.009277,0.071289-0.042969,0.082031
				c-0.041016,0.012695-0.068359,0.018555-0.081055,0.021484L7.246094,24.947754z"/>
			<path style="fill:#A9CDA6;" d="M8.166016,24.824707c-0.039063,0-0.070801-0.032227-0.071777-0.072266l-0.006348-0.496582
				c0-0.039063-0.013672-0.057617-0.024902-0.069336c-0.013672-0.014648-0.035645-0.022461-0.060059-0.022461
				c-0.023926,0-0.063965,0.007813-0.11377,0.048828c-0.013184,0.009766-0.027832,0.014648-0.044922,0.014648
				c-0.038086-0.004883-0.052246-0.019531-0.059082-0.03125L7.739258,24.12793
				c-0.021973-0.033203-0.01416-0.076172,0.019043-0.099609c0.085938-0.060547,0.174805-0.09375,0.255859-0.09375
				c0.085938,0,0.162109,0.038086,0.217773,0.109375c0.047852,0.063477,0.072754,0.134766,0.072754,0.211914l0.005859,0.461426
				l0.005859,0.037109c0,0.037109-0.032715,0.069336-0.071289,0.070313H8.166016z"/>
			<path style="fill:#A9CDA6;" d="M10.305176,24.891113c-0.026855-0.005859-0.053223-0.012695-0.076172-0.019531
				c-0.033691-0.010742-0.053711-0.045898-0.043945-0.080078l0.144043-0.495605
				c0.004883-0.017578,0.01709-0.03125,0.032715-0.040039l0.133789,0.023438c0.033203,0.012695,0.05127,0.048828,0.041016,0.082031
				l-0.154785,0.48584c-0.009277,0.02832-0.033691,0.045898-0.060547,0.045898L10.305176,24.891113z"/>
			<path style="fill:#A9CDA6;" d="M9.210449,24.782715c-0.046875,0-0.09375-0.017578-0.139648-0.050781
				c0.006836-0.013672-0.174316-0.899902-0.364258-1.183105c-0.024902-0.046875-0.037109-0.09668-0.030762-0.105957
				c0.045898,0.007324,0.09375,0.025879,0.168945,0.071777c0.015137,0.012695,0.185059,0.107422,0.291016,0.600586
				l0.036133,0.116211c0.016602-0.027344,0.044922-1.037598,0.400391-1.193848
				c0.032715-0.020508,0.084961-0.045898,0.111816-0.050781c-0.005859,0.006836-0.01416,0.032227-0.053711,0.09375
				c-0.01123,0.016602-0.214355,0.339844-0.225098,0.79248v0.117188c0.022949-0.013672,0.171875-0.28418,0.44873-0.342773
				c0.033203-0.012695,0.052246-0.015625,0.062988-0.016602c-0.008789,0.004883-0.022949,0.035156-0.09668,0.115234
				c-0.000977,0.000977-0.167969,0.170898-0.461914,0.775879l-0.024414,0.234375
				C9.310059,24.758301,9.267578,24.782715,9.210449,24.782715z"/>
		</g>
	</g>
</g>
<g id="roughgrass_x5F_bd_15_" style="enable-background:new    ;">
	<g id="RoughGrass_x5F_FC_17_">
		<path style="fill:#A9CDA6;" d="M2.930664,23.698242l0.010254,0.056641l-0.041016,0.042969l-0.042969,0.021484
			c-0.030273,0.012695-0.062988,0.00293-0.083008-0.023438l-0.155762-0.222656l-0.009766-0.057129l0.035645-0.042969
			L2.6875,23.450684c0.029785-0.013672,0.06543-0.00293,0.086426,0.022461L2.930664,23.698242z"/>
		<path style="fill:#A9CDA6;" d="M4.07373,23.42627c0,0.003906,0,0.007813-0.003906,0.011719
			c-0.01123-0.015625-0.021973-0.025391-0.037109-0.040039c-0.047363-0.056641-0.133301-0.132813-0.133301-0.132813
			c-0.037109-0.123047,0.052734-0.328125,0.052734-0.328125c-0.014648-0.140137,0.010254-0.350098,0.010254-0.350098
			C4.306641,23.041504,4.07373,23.42627,4.07373,23.42627z"/>
		<path style="fill:#A9CDA6;" d="M4.069824,23.437012c0.03418,0.041016,0.09375,0.05957,0.116211,0.17334l-0.054199,0.022461
			L4.013184,23.62207C4.010254,23.554688,4.036621,23.504395,4.069824,23.437012z"/>
		<path style="fill:#A9CDA6;" d="M5.126465,22.998535l-0.225098,0.224609c0,0-0.062012,0.052734-0.163086,0.290039
			l-0.010742,0.115723c0,0-0.087891,0.045898-0.200684-0.021484c0,0,0.051758-0.14502,0.062988-0.29248
			c0,0,0.009766-0.521973,0.253418-0.608887c0,0,0.181152-0.091797,0.067871,0.046875c0,0-0.148926,0.19873-0.152832,0.437988
			C4.759277,23.189941,4.912109,22.986816,5.126465,22.998535z"/>
		<path style="fill:#A9CDA6;" d="M6.114258,23.516113l-0.009766,0.057129l-0.155762,0.22168
			c-0.02002,0.026367-0.052734,0.036133-0.083008,0.023438l-0.042969-0.020508l-0.039063-0.042969l0.010254-0.056641
			l0.154785-0.226074c0.02002-0.025391,0.056641-0.036133,0.085449-0.022461l0.042969,0.022461L6.114258,23.516113z"/>
		<path style="fill:#A9CDA6;" d="M3.427246,23.257324l0.105957,0.348145l-0.00293,0.06543l-0.042969,0.039063
			C3.45752,23.722656,3.4375,23.727539,3.427246,23.727539c-0.032715,0.006836-0.064453-0.012695-0.075684-0.048828
			l-0.105957-0.342285v-0.06543l0.042969-0.040039l0.053223-0.020508C3.378418,23.194824,3.414063,23.218262,3.427246,23.257324z"/>
		<path style="fill:#A9CDA6;" d="M5.400879,23.210449l0.052734,0.020508l0.043457,0.040039v0.06543l-0.106445,0.342285
			c-0.009766,0.036133-0.042969,0.055664-0.075195,0.047852c-0.010254,0-0.030273-0.004883-0.060059-0.017578l-0.042969-0.038086
			l-0.00293-0.066406l0.105957-0.348145C5.328125,23.218262,5.364746,23.194824,5.400879,23.210449z"/>
	</g>
</g>
<g id="roughgrass_x5F_bd_16_" style="enable-background:new    ;">
	<g id="RoughGrass_x5F_FC_18_">
		<path style="fill:#A9CDA6;" d="M9.078125,16.323242l0.010254,0.056641l-0.041016,0.042969l-0.042969,0.021484
			c-0.030273,0.012695-0.062988,0.00293-0.083008-0.023438l-0.155762-0.222656l-0.009766-0.057129l0.035645-0.042969
			l0.043457-0.022461c0.029785-0.013672,0.06543-0.00293,0.086426,0.022461L9.078125,16.323242z"/>
		<path style="fill:#A9CDA6;" d="M10.221191,16.05127c0,0.003906,0,0.007813-0.003906,0.011719
			c-0.01123-0.015625-0.021973-0.025391-0.037109-0.040039c-0.047363-0.056641-0.133301-0.132813-0.133301-0.132813
			c-0.037109-0.123047,0.052734-0.328125,0.052734-0.328125c-0.014648-0.140137,0.010254-0.350098,0.010254-0.350098
			C10.454102,15.666504,10.221191,16.05127,10.221191,16.05127z"/>
		<path style="fill:#A9CDA6;" d="M10.217285,16.062012c0.03418,0.041016,0.09375,0.05957,0.116211,0.17334l-0.054199,0.022461
			l-0.118652-0.010742C10.157715,16.179688,10.184082,16.129395,10.217285,16.062012z"/>
		<path style="fill:#A9CDA6;" d="M11.273926,15.623535l-0.225098,0.224609c0,0-0.062012,0.052734-0.163086,0.290039
			L10.875,16.253906c0,0-0.087891,0.045898-0.200684-0.021484c0,0,0.051758-0.14502,0.062988-0.29248
			c0,0,0.009766-0.521973,0.253418-0.608887c0,0,0.181152-0.091797,0.067871,0.046875c0,0-0.148926,0.19873-0.152832,0.437988
			C10.906738,15.814941,11.05957,15.611816,11.273926,15.623535z"/>
		<path style="fill:#A9CDA6;" d="M12.261719,16.141113l-0.009766,0.057129l-0.155762,0.22168
			c-0.02002,0.026367-0.052734,0.036133-0.083008,0.023438l-0.042969-0.020508l-0.039063-0.042969l0.010254-0.056641
			l0.154785-0.226074c0.02002-0.025391,0.056641-0.036133,0.085449-0.022461l0.042969,0.022461L12.261719,16.141113z"/>
		<path style="fill:#A9CDA6;" d="M9.574707,15.882324l0.105957,0.348145l-0.00293,0.06543l-0.042969,0.039063
			c-0.029785,0.012695-0.049805,0.017578-0.060059,0.017578c-0.032715,0.006836-0.064453-0.012695-0.075684-0.048828
			l-0.105957-0.342285v-0.06543l0.042969-0.040039l0.053223-0.020508C9.525879,15.819824,9.561523,15.843262,9.574707,15.882324z"/>
		<path style="fill:#A9CDA6;" d="M11.54834,15.835449l0.052734,0.020508l0.043457,0.040039v0.06543l-0.106445,0.342285
			c-0.009766,0.036133-0.042969,0.055664-0.075195,0.047852c-0.010254,0-0.030273-0.004883-0.060059-0.017578l-0.042969-0.038086
			l-0.00293-0.066406l0.105957-0.348145C11.475586,15.843262,11.512207,15.819824,11.54834,15.835449z"/>
	</g>
</g>
<g id="scrub_x5F_bd_14_" style="enable-background:new    ;">
	<g id="Scrub_x5F_FC_16_">
		<g id="Deleted_Symbol_1_16_">
			<path style="fill:#A9CDA6;" d="M11.638672,14.537598c-0.028809,0-0.053711-0.019531-0.0625-0.046875l-0.148926-0.483887
				c-0.010254-0.032227,0.006836-0.067383,0.039063-0.081055l0.07666-0.029297
				c0.012207-0.000977,0.023438-0.001953,0.032227-0.001953c0.036621,0.011719,0.04834,0.026367,0.054688,0.043945
				l0.146973,0.493652c0.009766,0.035156-0.009277,0.071289-0.042969,0.082031
				c-0.041016,0.012695-0.068359,0.018555-0.081055,0.021484L11.638672,14.537598z"/>
			<path style="fill:#A9CDA6;" d="M12.558594,14.414551c-0.039063,0-0.070801-0.032227-0.071777-0.072266l-0.006348-0.496582
				c0-0.039063-0.013672-0.057617-0.024902-0.069336c-0.013672-0.014648-0.035645-0.022461-0.060059-0.022461
				c-0.023926,0-0.063965,0.007813-0.11377,0.048828c-0.013184,0.009766-0.027832,0.014648-0.044922,0.014648
				c-0.038086-0.004883-0.052246-0.019531-0.059082-0.03125l-0.045898-0.068359
				c-0.021973-0.033203-0.01416-0.076172,0.019043-0.099609c0.085938-0.060547,0.174805-0.09375,0.255859-0.09375
				c0.085938,0,0.162109,0.038086,0.217773,0.109375c0.047852,0.063477,0.072754,0.134766,0.072754,0.211914l0.005859,0.461426
				l0.005859,0.037109c0,0.037109-0.032715,0.069336-0.071289,0.070313H12.558594z"/>
			<path style="fill:#A9CDA6;" d="M14.697754,14.480957c-0.026855-0.005859-0.053223-0.012695-0.076172-0.019531
				c-0.033691-0.010742-0.053711-0.045898-0.043945-0.080078l0.144043-0.495605
				c0.004883-0.017578,0.01709-0.03125,0.032715-0.040039l0.133789,0.023438c0.033203,0.012695,0.05127,0.048828,0.041016,0.082031
				l-0.154785,0.48584c-0.009277,0.02832-0.033691,0.045898-0.060547,0.045898L14.697754,14.480957z"/>
			<path style="fill:#A9CDA6;" d="M13.603027,14.372559c-0.046875,0-0.09375-0.017578-0.139648-0.050781
				c0.006836-0.013672-0.174316-0.899902-0.364258-1.183105c-0.024902-0.046875-0.037109-0.09668-0.030762-0.105957
				c0.045898,0.007324,0.09375,0.025879,0.168945,0.071777c0.015137,0.012695,0.185059,0.107422,0.291016,0.600586
				l0.036133,0.116211c0.016602-0.027344,0.044922-1.037598,0.400391-1.193848
				c0.032715-0.020508,0.084961-0.045898,0.111816-0.050781c-0.005859,0.006836-0.01416,0.032227-0.053711,0.09375
				c-0.01123,0.016602-0.214355,0.339844-0.225098,0.79248v0.117188c0.022949-0.013672,0.171875-0.28418,0.44873-0.342773
				c0.033203-0.012695,0.052246-0.015625,0.062988-0.016602c-0.008789,0.004883-0.022949,0.035156-0.09668,0.115234
				c-0.000977,0.000977-0.167969,0.170898-0.461914,0.775879l-0.024414,0.234375
				C13.702637,14.348145,13.660156,14.372559,13.603027,14.372559z"/>
		</g>
	</g>
</g>
<g id="scrub_x5F_bd_15_" style="enable-background:new    ;">
	<g id="Scrub_x5F_FC_17_">
		<g id="Deleted_Symbol_1_17_">
			<path style="fill:#A9CDA6;" d="M7.214844,13.773926c-0.028809,0-0.053711-0.019531-0.0625-0.046875l-0.148926-0.483887
				c-0.010254-0.032227,0.006836-0.067383,0.039063-0.081055l0.07666-0.029297
				c0.012207-0.000977,0.023438-0.001953,0.032227-0.001953c0.036621,0.011719,0.04834,0.026367,0.054688,0.043945
				l0.146973,0.493652c0.009766,0.035156-0.009277,0.071289-0.042969,0.082031
				c-0.041016,0.012695-0.068359,0.018555-0.081055,0.021484L7.214844,13.773926z"/>
			<path style="fill:#A9CDA6;" d="M8.134766,13.650879c-0.039063,0-0.070801-0.032227-0.071777-0.072266l-0.006348-0.496582
				c0-0.039063-0.013672-0.057617-0.024902-0.069336c-0.013672-0.014648-0.035645-0.022461-0.060059-0.022461
				c-0.023926,0-0.063965,0.007813-0.11377,0.048828c-0.013184,0.009766-0.027832,0.014648-0.044922,0.014648
				c-0.038086-0.004883-0.052246-0.019531-0.059082-0.03125l-0.045898-0.068359
				c-0.021973-0.033203-0.01416-0.076172,0.019043-0.099609c0.085938-0.060547,0.174805-0.09375,0.255859-0.09375
				c0.085938,0,0.162109,0.038086,0.217773,0.109375c0.047852,0.063477,0.072754,0.134766,0.072754,0.211914l0.005859,0.461426
				l0.005859,0.037109c0,0.037109-0.032715,0.069336-0.071289,0.070313H8.134766z"/>
			<path style="fill:#A9CDA6;" d="M10.273926,13.717285c-0.026855-0.005859-0.053223-0.012695-0.076172-0.019531
				c-0.033691-0.010742-0.053711-0.045898-0.043945-0.080078l0.144043-0.495605
				c0.004883-0.017578,0.01709-0.03125,0.032715-0.040039l0.133789,0.023438c0.033203,0.012695,0.05127,0.048828,0.041016,0.082031
				l-0.154785,0.48584c-0.009277,0.02832-0.033691,0.045898-0.060547,0.045898L10.273926,13.717285z"/>
			<path style="fill:#A9CDA6;" d="M9.179199,13.608887c-0.046875,0-0.09375-0.017578-0.139648-0.050781
				c0.006836-0.013672-0.174316-0.899902-0.364258-1.183105c-0.024902-0.046875-0.037109-0.09668-0.030762-0.105957
				c0.045898,0.007324,0.09375,0.025879,0.168945,0.071777c0.015137,0.012695,0.185059,0.107422,0.291016,0.600586
				l0.036133,0.116211c0.016602-0.027344,0.044922-1.037598,0.400391-1.193848
				c0.032715-0.020508,0.084961-0.045898,0.111816-0.050781c-0.005859,0.006836-0.01416,0.032227-0.053711,0.09375
				c-0.01123,0.016602-0.214355,0.339844-0.225098,0.79248v0.117188c0.022949-0.013672,0.171875-0.28418,0.44873-0.342773
				c0.033203-0.012695,0.052246-0.015625,0.062988-0.016602c-0.008789,0.004883-0.022949,0.035156-0.09668,0.115234
				c-0.000977,0.000977-0.167969,0.170898-0.461914,0.775879L9.302734,13.58252
				C9.278809,13.584473,9.236328,13.608887,9.179199,13.608887z"/>
		</g>
	</g>
</g>
<g id="roughgrass_x5F_bd_2_" style="enable-background:new    ;">
	<g id="RoughGrass_x5F_FC_4_">
		<path style="fill:#A9CDA6;" d="M24.362305,6.540039l0.010254,0.056641l-0.041016,0.042969l-0.042969,0.021484
			c-0.030273,0.012695-0.062988,0.00293-0.083008-0.023438l-0.155762-0.222656L24.040039,6.35791l0.035645-0.042969
			l0.043457-0.022461c0.029785-0.013672,0.06543-0.00293,0.086426,0.022461L24.362305,6.540039z"/>
		<path style="fill:#A9CDA6;" d="M25.505859,6.268066c0,0.003906,0,0.007813-0.003906,0.011719
			c-0.011719-0.015625-0.022461-0.025391-0.037598-0.040039c-0.047363-0.056641-0.133301-0.132813-0.133301-0.132813
			c-0.037109-0.123047,0.052734-0.328125,0.052734-0.328125c-0.014648-0.140137,0.010254-0.350098,0.010254-0.350098
			C25.738281,5.883301,25.505859,6.268066,25.505859,6.268066z"/>
		<path style="fill:#A9CDA6;" d="M25.501953,6.278809c0.03418,0.041016,0.09375,0.05957,0.116211,0.17334l-0.054688,0.022461
			l-0.118652-0.010742C25.441895,6.396484,25.468262,6.346191,25.501953,6.278809z"/>
		<path style="fill:#A9CDA6;" d="M26.557617,5.840332l-0.224609,0.224609c0,0-0.061523,0.052734-0.163086,0.290039
			L26.15918,6.470703c0,0-0.087891,0.045898-0.201172-0.021484c0,0,0.051758-0.14502,0.063477-0.29248
			c0,0,0.009766-0.521973,0.253906-0.608887c0,0,0.180664-0.091797,0.067383,0.046875c0,0-0.148438,0.19873-0.152344,0.437988
			C26.191406,6.031738,26.34375,5.828613,26.557617,5.840332z"/>
		<path style="fill:#A9CDA6;" d="M27.545898,6.35791l-0.009766,0.057129l-0.15625,0.22168
			c-0.019531,0.026367-0.052734,0.036133-0.083008,0.023438l-0.042969-0.020508L27.214844,6.59668l0.010742-0.056641
			l0.154297-0.226074c0.020508-0.025391,0.057617-0.036133,0.085938-0.022461l0.042969,0.022461L27.545898,6.35791z"/>
		<path style="fill:#A9CDA6;" d="M24.858887,6.099121l0.105957,0.348145l-0.00293,0.06543l-0.042969,0.039063
			c-0.029785,0.012695-0.049805,0.017578-0.060059,0.017578c-0.032715,0.006836-0.064453-0.012695-0.075684-0.048828
			l-0.105957-0.342285v-0.06543l0.042969-0.040039l0.053223-0.020508C24.810059,6.036621,24.845703,6.060059,24.858887,6.099121z"/>
		<path style="fill:#A9CDA6;" d="M26.833008,6.052246l0.052734,0.020508l0.042969,0.040039v0.06543l-0.106445,0.342285
			C26.8125,6.556641,26.779297,6.576172,26.74707,6.568359c-0.010742,0-0.030273-0.004883-0.060547-0.017578l-0.042969-0.038086
			l-0.00293-0.066406l0.106445-0.348145C26.759766,6.060059,26.796875,6.036621,26.833008,6.052246z"/>
	</g>
</g>
<g id="scrub_x5F_bd_2_" style="enable-background:new    ;">
	<g id="Scrub_x5F_FC_4_">
		<g id="Deleted_Symbol_1_4_">
			<path style="fill:#A9CDA6;" d="M26.923828,4.754395c-0.029297,0-0.054688-0.019531-0.063477-0.046875l-0.148438-0.483887
				c-0.010742-0.032227,0.006836-0.067383,0.039063-0.081055l0.076172-0.029297
				c0.012695-0.000977,0.023438-0.001953,0.032227-0.001953c0.037109,0.011719,0.048828,0.026367,0.055664,0.043945
				l0.146484,0.493652c0.009766,0.035156-0.008789,0.071289-0.042969,0.082031
				c-0.041016,0.012695-0.068359,0.018555-0.081055,0.021484L26.923828,4.754395z"/>
			<path style="fill:#A9CDA6;" d="M27.842773,4.631348c-0.039063,0-0.070313-0.032227-0.071289-0.072266L27.764648,4.0625
				c0-0.039063-0.013672-0.057617-0.024414-0.069336c-0.013672-0.014648-0.036133-0.022461-0.060547-0.022461
				c-0.023438,0-0.063477,0.007813-0.113281,0.048828c-0.013672,0.009766-0.02832,0.014648-0.044922,0.014648
				c-0.038086-0.004883-0.052734-0.019531-0.05957-0.03125L27.416016,3.93457
				c-0.021484-0.033203-0.013672-0.076172,0.019531-0.099609c0.085938-0.060547,0.174805-0.09375,0.255859-0.09375
				c0.085938,0,0.162109,0.038086,0.217773,0.109375c0.047852,0.063477,0.073242,0.134766,0.073242,0.211914l0.005859,0.461426
				l0.005859,0.037109c0,0.037109-0.033203,0.069336-0.072266,0.070313H27.842773z"/>
			<path style="fill:#A9CDA6;" d="M29.982422,4.697754c-0.027344-0.005859-0.053711-0.012695-0.076172-0.019531
				c-0.03418-0.010742-0.053711-0.045898-0.043945-0.080078l0.143555-0.495605
				c0.004883-0.017578,0.017578-0.03125,0.033203-0.040039l0.133789,0.023438
				c0.033203,0.012695,0.051758,0.048828,0.041016,0.082031l-0.154297,0.48584
				c-0.009766,0.02832-0.03418,0.045898-0.061523,0.045898L29.982422,4.697754z"/>
			<path style="fill:#A9CDA6;" d="M28.887695,4.589355c-0.046875,0-0.09375-0.017578-0.139648-0.050781
				c0.006836-0.013672-0.174805-0.899902-0.364258-1.183105c-0.024414-0.046875-0.037109-0.09668-0.030273-0.105957
				c0.045898,0.007324,0.09375,0.025879,0.167969,0.071777c0.015625,0.012695,0.185547,0.107422,0.291016,0.600586
				l0.036133,0.116211C28.865234,4.010742,28.893555,3.000488,29.25,2.844238
				c0.032227-0.020508,0.084961-0.045898,0.111328-0.050781c-0.005859,0.006836-0.013672,0.032227-0.053711,0.09375
				c-0.010742,0.016602-0.213867,0.339844-0.224609,0.79248v0.117188c0.022461-0.013672,0.171875-0.28418,0.448242-0.342773
				c0.033203-0.012695,0.051758-0.015625,0.0625-0.016602c-0.008789,0.004883-0.022461,0.035156-0.095703,0.115234
				c-0.000977,0.000977-0.167969,0.170898-0.461914,0.775879l-0.024414,0.234375
				C28.987305,4.564941,28.944336,4.589355,28.887695,4.589355z"/>
		</g>
	</g>
</g>
<g id="scrub_x5F_bd_1_" style="enable-background:new    ;">
	<g id="Scrub_x5F_FC_3_">
		<g id="Deleted_Symbol_1_3_">
			<path style="fill:#A9CDA6;" d="M22.498535,3.990723c-0.028809,0-0.053711-0.019531-0.0625-0.046875l-0.148926-0.483887
				c-0.010254-0.032227,0.006836-0.067383,0.039063-0.081055l0.07666-0.029297
				c0.012207-0.000977,0.023438-0.001953,0.032227-0.001953c0.036621,0.011719,0.04834,0.026367,0.054688,0.043945
				l0.146973,0.493652c0.009766,0.035156-0.009277,0.071289-0.042969,0.082031
				C22.552734,3.97998,22.525391,3.98584,22.512695,3.98877L22.498535,3.990723z"/>
			<path style="fill:#A9CDA6;" d="M23.418457,3.867676c-0.039063,0-0.070801-0.032227-0.071777-0.072266l-0.006348-0.496582
				c0-0.039063-0.013672-0.057617-0.024902-0.069336c-0.013672-0.014648-0.035645-0.022461-0.060059-0.022461
				c-0.023926,0-0.063965,0.007813-0.11377,0.048828c-0.013184,0.009766-0.027832,0.014648-0.044922,0.014648
				c-0.038086-0.004883-0.052246-0.019531-0.059082-0.03125l-0.045898-0.068359
				c-0.021973-0.033203-0.01416-0.076172,0.019043-0.099609c0.085938-0.060547,0.174805-0.09375,0.255859-0.09375
				c0.085938,0,0.162109,0.038086,0.217773,0.109375c0.047852,0.063477,0.072754,0.134766,0.072754,0.211914l0.005859,0.461426
				l0.005859,0.037109c0,0.037109-0.032715,0.069336-0.071289,0.070313H23.418457z"/>
			<path style="fill:#A9CDA6;" d="M25.557617,3.934082c-0.027344-0.005859-0.053711-0.012695-0.076172-0.019531
				c-0.033691-0.010742-0.053711-0.045898-0.043945-0.080078l0.143555-0.495605
				c0.004883-0.017578,0.017578-0.03125,0.033203-0.040039l0.133789,0.023438
				c0.033203,0.012695,0.051758,0.048828,0.041016,0.082031l-0.154297,0.48584
				c-0.009766,0.02832-0.03418,0.045898-0.061523,0.045898L25.557617,3.934082z"/>
			<path style="fill:#A9CDA6;" d="M24.462891,3.825684c-0.046875,0-0.09375-0.017578-0.139648-0.050781
				C24.330078,3.76123,24.148926,2.875,23.958984,2.591797c-0.024902-0.046875-0.037109-0.09668-0.030762-0.105957
				c0.045898,0.007324,0.09375,0.025879,0.168945,0.071777c0.015137,0.012695,0.185059,0.107422,0.291016,0.600586
				l0.036133,0.116211c0.016602-0.027344,0.044922-1.037598,0.400391-1.193848
				c0.032715-0.020508,0.084961-0.045898,0.111816-0.050781c-0.005859,0.006836-0.01416,0.032227-0.053711,0.09375
				c-0.01123,0.016602-0.214355,0.339844-0.225098,0.79248v0.117188c0.022949-0.013672,0.171875-0.28418,0.44873-0.342773
				c0.033203-0.012695,0.052246-0.015625,0.062988-0.016602c-0.008789,0.004883-0.022949,0.035156-0.09668,0.115234
				c-0.000977,0.000977-0.167969,0.170898-0.461914,0.775879l-0.024414,0.234375
				C24.5625,3.80127,24.52002,3.825684,24.462891,3.825684z"/>
		</g>
	</g>
</g>
<g id="roughgrass_x5F_bd_4_" style="enable-background:new    ;">
	<g id="RoughGrass_x5F_FC_6_">
		<path style="fill:#A9CDA6;" d="M35.544922,14.586914l0.010742,0.056641l-0.041016,0.042969l-0.042969,0.021484
			c-0.030273,0.012695-0.063477,0.00293-0.083008-0.023438l-0.15625-0.222656l-0.009766-0.057129l0.035156-0.042969
			l0.043945-0.022461c0.029297-0.013672,0.06543-0.00293,0.086914,0.022461L35.544922,14.586914z"/>
		<path style="fill:#A9CDA6;" d="M36.688477,14.314941c0,0.003906,0,0.007813-0.003906,0.011719
			c-0.011719-0.015625-0.022461-0.025391-0.037109-0.040039c-0.047852-0.056641-0.133789-0.132813-0.133789-0.132813
			c-0.037109-0.123047,0.052734-0.328125,0.052734-0.328125c-0.014648-0.140137,0.009766-0.350098,0.009766-0.350098
			C36.920898,13.930176,36.688477,14.314941,36.688477,14.314941z"/>
		<path style="fill:#A9CDA6;" d="M36.68457,14.325684c0.03418,0.041016,0.09375,0.05957,0.116211,0.17334l-0.054688,0.022461
			l-0.119141-0.010742C36.624023,14.443359,36.651367,14.393066,36.68457,14.325684z"/>
		<path style="fill:#A9CDA6;" d="M37.740234,13.887207l-0.224609,0.224609c0,0-0.061523,0.052734-0.163086,0.290039
			l-0.010742,0.115723c0,0-0.087891,0.045898-0.201172-0.021484c0,0,0.051758-0.14502,0.063477-0.29248
			c0,0,0.009766-0.521973,0.253906-0.608887c0,0,0.180664-0.091797,0.067383,0.046875c0,0-0.148438,0.19873-0.152344,0.437988
			C37.374023,14.078613,37.526367,13.875488,37.740234,13.887207z"/>
		<path style="fill:#A9CDA6;" d="M38.728516,14.404785l-0.009766,0.057129l-0.15625,0.22168
			c-0.019531,0.026367-0.052734,0.036133-0.083008,0.023438l-0.042969-0.020508l-0.039063-0.042969l0.010742-0.056641
			L38.5625,14.36084c0.020508-0.025391,0.057617-0.036133,0.085938-0.022461l0.042969,0.022461L38.728516,14.404785z"/>
		<path style="fill:#A9CDA6;" d="M36.041992,14.145996l0.105469,0.348145l-0.00293,0.06543l-0.042969,0.039063
			c-0.029297,0.012695-0.049805,0.017578-0.05957,0.017578c-0.033203,0.006836-0.06543-0.012695-0.076172-0.048828
			l-0.106445-0.342285v-0.06543l0.042969-0.040039l0.053711-0.020508C35.993164,14.083496,36.02832,14.106934,36.041992,14.145996z"
			/>
		<path style="fill:#A9CDA6;" d="M38.015625,14.099121l0.052734,0.020508l0.042969,0.040039v0.06543l-0.106445,0.342285
			c-0.009766,0.036133-0.042969,0.055664-0.075195,0.047852c-0.010742,0-0.030273-0.004883-0.060547-0.017578l-0.042969-0.038086
			l-0.00293-0.066406l0.106445-0.348145C37.942383,14.106934,37.979492,14.083496,38.015625,14.099121z"/>
	</g>
</g>
<g id="scrub_x5F_bd_3_" style="enable-background:new    ;">
	<g id="Scrub_x5F_FC_5_">
		<g id="Deleted_Symbol_1_5_">
			<path style="fill:#A9CDA6;" d="M38.105469,12.80127c-0.029297,0-0.054688-0.019531-0.063477-0.046875l-0.148438-0.483887
				c-0.010742-0.032227,0.006836-0.067383,0.039063-0.081055l0.076172-0.029297
				c0.012695-0.000977,0.023438-0.001953,0.032227-0.001953c0.037109,0.011719,0.048828,0.026367,0.055664,0.043945
				l0.146484,0.493652c0.009766,0.035156-0.008789,0.071289-0.042969,0.082031
				c-0.041016,0.012695-0.068359,0.018555-0.081055,0.021484L38.105469,12.80127z"/>
			<path style="fill:#A9CDA6;" d="M39.024414,12.678223c-0.039063,0-0.070313-0.032227-0.071289-0.072266l-0.006836-0.496582
				c0-0.039063-0.013672-0.057617-0.024414-0.069336c-0.013672-0.014648-0.036133-0.022461-0.060547-0.022461
				c-0.023438,0-0.063477,0.007813-0.113281,0.048828c-0.013672,0.009766-0.02832,0.014648-0.044922,0.014648
				c-0.038086-0.004883-0.052734-0.019531-0.05957-0.03125l-0.045898-0.068359
				c-0.021484-0.033203-0.013672-0.076172,0.019531-0.099609c0.085938-0.060547,0.174805-0.09375,0.255859-0.09375
				c0.085938,0,0.162109,0.038086,0.217773,0.109375c0.047852,0.063477,0.073242,0.134766,0.073242,0.211914l0.005859,0.461426
				l0.005859,0.037109c0,0.037109-0.033203,0.069336-0.072266,0.070313H39.024414z"/>
			<path style="fill:#A9CDA6;" d="M41.164063,12.744629c-0.027344-0.005859-0.053711-0.012695-0.076172-0.019531
				c-0.03418-0.010742-0.053711-0.045898-0.043945-0.080078l0.143555-0.495605
				c0.004883-0.017578,0.017578-0.03125,0.033203-0.040039l0.133789,0.023438
				c0.033203,0.012695,0.051758,0.048828,0.041016,0.082031l-0.154297,0.48584
				c-0.009766,0.02832-0.03418,0.045898-0.061523,0.045898L41.164063,12.744629z"/>
			<path style="fill:#A9CDA6;" d="M40.069336,12.63623c-0.046875,0-0.09375-0.017578-0.139648-0.050781
				c0.006836-0.013672-0.174805-0.899902-0.364258-1.183105c-0.024414-0.046875-0.037109-0.09668-0.030273-0.105957
				c0.045898,0.007324,0.09375,0.025879,0.167969,0.071777c0.015625,0.012695,0.185547,0.107422,0.291016,0.600586
				l0.036133,0.116211c0.016602-0.027344,0.044922-1.037598,0.401367-1.193848
				c0.032227-0.020508,0.084961-0.045898,0.111328-0.050781c-0.005859,0.006836-0.013672,0.032227-0.053711,0.09375
				c-0.010742,0.016602-0.213867,0.339844-0.224609,0.79248v0.117188c0.022461-0.013672,0.171875-0.28418,0.448242-0.342773
				c0.033203-0.012695,0.051758-0.015625,0.0625-0.016602c-0.008789,0.004883-0.022461,0.035156-0.095703,0.115234
				c-0.000977,0.000977-0.167969,0.170898-0.461914,0.775879l-0.024414,0.234375
				C40.168945,12.611816,40.125977,12.63623,40.069336,12.63623z"/>
		</g>
	</g>
</g>
<g id="roughgrass_x5F_bd_3_" style="enable-background:new    ;">
	<g id="RoughGrass_x5F_FC_5_">
		<path style="fill:#A9CDA6;" d="M33.789063,11.551758l0.010742,0.056641l-0.041016,0.042969l-0.042969,0.021484
			c-0.030273,0.012695-0.063477,0.00293-0.083008-0.023438l-0.15625-0.222656l-0.009766-0.057129l0.035156-0.042969
			l0.043945-0.022461c0.029297-0.013672,0.06543-0.00293,0.086914,0.022461L33.789063,11.551758z"/>
		<path style="fill:#A9CDA6;" d="M34.932617,11.279785c0,0.003906,0,0.007813-0.003906,0.011719
			c-0.011719-0.015625-0.022461-0.025391-0.037109-0.040039c-0.047852-0.056641-0.133789-0.132813-0.133789-0.132813
			c-0.037109-0.123047,0.052734-0.328125,0.052734-0.328125c-0.014648-0.140137,0.009766-0.350098,0.009766-0.350098
			C35.165039,10.89502,34.932617,11.279785,34.932617,11.279785z"/>
		<path style="fill:#A9CDA6;" d="M34.928711,11.290527c0.03418,0.041016,0.09375,0.05957,0.116211,0.17334l-0.054688,0.022461
			l-0.119141-0.010742C34.868164,11.408203,34.895508,11.35791,34.928711,11.290527z"/>
		<path style="fill:#A9CDA6;" d="M35.984375,10.852051l-0.224609,0.224609c0,0-0.061523,0.052734-0.163086,0.290039
			l-0.010742,0.115723c0,0-0.087891,0.045898-0.201172-0.021484c0,0,0.051758-0.14502,0.063477-0.29248
			c0,0,0.009766-0.521973,0.253906-0.608887c0,0,0.180664-0.091797,0.067383,0.046875c0,0-0.148438,0.19873-0.152344,0.437988
			C35.618164,11.043457,35.770508,10.840332,35.984375,10.852051z"/>
		<path style="fill:#A9CDA6;" d="M36.972656,11.369629l-0.009766,0.057129l-0.15625,0.22168
			c-0.019531,0.026367-0.052734,0.036133-0.083008,0.023438l-0.042969-0.020508l-0.039063-0.042969l0.010742-0.056641
			l0.154297-0.226074c0.020508-0.025391,0.057617-0.036133,0.085938-0.022461l0.042969,0.022461L36.972656,11.369629z"/>
		<path style="fill:#A9CDA6;" d="M34.286133,11.11084l0.105469,0.348145l-0.00293,0.06543l-0.042969,0.039063
			c-0.029297,0.012695-0.049805,0.017578-0.05957,0.017578c-0.033203,0.006836-0.06543-0.012695-0.076172-0.048828
			l-0.106445-0.342285v-0.06543l0.042969-0.040039l0.053711-0.020508C34.237305,11.04834,34.272461,11.071777,34.286133,11.11084z"
			/>
		<path style="fill:#A9CDA6;" d="M36.259766,11.063965l0.052734,0.020508l0.042969,0.040039v0.06543l-0.106445,0.342285
			c-0.009766,0.036133-0.042969,0.055664-0.075195,0.047852c-0.010742,0-0.030273-0.004883-0.060547-0.017578l-0.042969-0.038086
			l-0.00293-0.066406l0.106445-0.348145C36.186523,11.071777,36.223633,11.04834,36.259766,11.063965z"/>
	</g>
</g>
<g id="roughgrass_x5F_bd_1_" style="enable-background:new    ;">
	<g id="RoughGrass_x5F_FC_3_">
		<path style="fill:#A9CDA6;" d="M41.058594,6.202148l0.010742,0.056641L41.02832,6.301758l-0.042969,0.021484
			c-0.030273,0.012695-0.063477,0.00293-0.083008-0.023438l-0.15625-0.222656L40.736328,6.02002l0.035156-0.042969L40.81543,5.95459
			c0.029297-0.013672,0.06543-0.00293,0.086914,0.022461L41.058594,6.202148z"/>
		<path style="fill:#A9CDA6;" d="M42.202148,5.930176c0,0.003906,0,0.007813-0.003906,0.011719
			c-0.011719-0.015625-0.022461-0.025391-0.037109-0.040039c-0.047852-0.056641-0.133789-0.132813-0.133789-0.132813
			c-0.037109-0.123047,0.052734-0.328125,0.052734-0.328125C42.06543,5.300781,42.089844,5.09082,42.089844,5.09082
			C42.43457,5.54541,42.202148,5.930176,42.202148,5.930176z"/>
		<path style="fill:#A9CDA6;" d="M42.198242,5.940918c0.03418,0.041016,0.09375,0.05957,0.116211,0.17334l-0.054688,0.022461
			l-0.119141-0.010742C42.137695,6.058594,42.165039,6.008301,42.198242,5.940918z"/>
		<path style="fill:#A9CDA6;" d="M43.253906,5.502441l-0.224609,0.224609c0,0-0.061523,0.052734-0.163086,0.290039
			l-0.010742,0.115723c0,0-0.087891,0.045898-0.201172-0.021484c0,0,0.051758-0.14502,0.063477-0.29248
			c0,0,0.009766-0.521973,0.253906-0.608887c0,0,0.180664-0.091797,0.067383,0.046875c0,0-0.148438,0.19873-0.152344,0.437988
			C42.887695,5.693848,43.040039,5.490723,43.253906,5.502441z"/>
		<path style="fill:#A9CDA6;" d="M44.242188,6.02002l-0.009766,0.057129l-0.15625,0.22168
			c-0.019531,0.026367-0.052734,0.036133-0.083008,0.023438l-0.042969-0.020508l-0.039063-0.042969l0.010742-0.056641
			l0.154297-0.226074c0.020508-0.025391,0.057617-0.036133,0.085938-0.022461l0.042969,0.022461L44.242188,6.02002z"/>
		<path style="fill:#A9CDA6;" d="M41.555664,5.76123l0.105469,0.348145l-0.00293,0.06543l-0.042969,0.039063
			c-0.029297,0.012695-0.049805,0.017578-0.05957,0.017578c-0.033203,0.006836-0.06543-0.012695-0.076172-0.048828
			l-0.106445-0.342285v-0.06543l0.042969-0.040039l0.053711-0.020508C41.506836,5.69873,41.541992,5.722168,41.555664,5.76123z"/>
		<path style="fill:#A9CDA6;" d="M43.529297,5.714355l0.052734,0.020508L43.625,5.774902v0.06543l-0.106445,0.342285
			c-0.009766,0.036133-0.042969,0.055664-0.075195,0.047852c-0.010742,0-0.030273-0.004883-0.060547-0.017578l-0.042969-0.038086
			l-0.00293-0.066406l0.106445-0.348145C43.456055,5.722168,43.493164,5.69873,43.529297,5.714355z"/>
	</g>
</g>
<g id="scrub_x5F_bd" style="enable-background:new    ;">
	<g id="Scrub_x5F_FC_2_">
		<g id="Deleted_Symbol_1_2_">
			<path style="fill:#A9CDA6;" d="M43.619141,4.416504c-0.029297,0-0.054688-0.019531-0.063477-0.046875l-0.148438-0.483887
				c-0.010742-0.032227,0.006836-0.067383,0.039063-0.081055l0.076172-0.029297
				c0.012695-0.000977,0.023438-0.001953,0.032227-0.001953c0.037109,0.011719,0.048828,0.026367,0.055664,0.043945
				l0.146484,0.493652c0.009766,0.035156-0.008789,0.071289-0.042969,0.082031
				c-0.041016,0.012695-0.068359,0.018555-0.081055,0.021484L43.619141,4.416504z"/>
			<path style="fill:#A9CDA6;" d="M44.538086,4.293457c-0.039063,0-0.070313-0.032227-0.071289-0.072266l-0.006836-0.496582
				c0-0.039063-0.013672-0.057617-0.024414-0.069336C44.421875,3.640625,44.399414,3.632813,44.375,3.632813
				c-0.023438,0-0.063477,0.007813-0.113281,0.048828c-0.013672,0.009766-0.02832,0.014648-0.044922,0.014648
				c-0.038086-0.004883-0.052734-0.019531-0.05957-0.03125L44.111328,3.59668
				c-0.021484-0.033203-0.013672-0.076172,0.019531-0.099609c0.085938-0.060547,0.174805-0.09375,0.255859-0.09375
				c0.085938,0,0.162109,0.038086,0.217773,0.109375c0.047852,0.063477,0.073242,0.134766,0.073242,0.211914l0.005859,0.461426
				l0.005859,0.037109c0,0.037109-0.033203,0.069336-0.072266,0.070313H44.538086z"/>
			<path style="fill:#A9CDA6;" d="M46.677734,4.359863c-0.027344-0.005859-0.053711-0.012695-0.076172-0.019531
				c-0.03418-0.010742-0.053711-0.045898-0.043945-0.080078l0.143555-0.495605
				c0.004883-0.017578,0.017578-0.03125,0.033203-0.040039l0.133789,0.023438
				c0.033203,0.012695,0.051758,0.048828,0.041016,0.082031l-0.154297,0.48584
				c-0.009766,0.02832-0.03418,0.045898-0.061523,0.045898L46.677734,4.359863z"/>
			<path style="fill:#A9CDA6;" d="M45.583008,4.251465c-0.046875,0-0.09375-0.017578-0.139648-0.050781
				c0.006836-0.013672-0.174805-0.899902-0.364258-1.183105c-0.024414-0.046875-0.037109-0.09668-0.030273-0.105957
				c0.045898,0.007324,0.09375,0.025879,0.167969,0.071777c0.015625,0.012695,0.185547,0.107422,0.291016,0.600586
				l0.036133,0.116211c0.016602-0.027344,0.044922-1.037598,0.401367-1.193848
				c0.032227-0.020508,0.084961-0.045898,0.111328-0.050781c-0.005859,0.006836-0.013672,0.032227-0.053711,0.09375
				c-0.010742,0.016602-0.213867,0.339844-0.224609,0.79248v0.117188c0.022461-0.013672,0.171875-0.28418,0.448242-0.342773
				c0.033203-0.012695,0.051758-0.015625,0.0625-0.016602c-0.008789,0.004883-0.022461,0.035156-0.095703,0.115234
				c-0.000977,0.000977-0.167969,0.170898-0.461914,0.775879l-0.024414,0.234375
				C45.682617,4.227051,45.639648,4.251465,45.583008,4.251465z"/>
		</g>
	</g>
</g>
<g id="roughgrass_x5F_bd" style="enable-background:new    ;">
	<g id="RoughGrass_x5F_FC_2_">
		<path style="fill:#A9CDA6;" d="M39.302734,3.166992l0.010742,0.056641l-0.041016,0.042969l-0.042969,0.021484
			c-0.030273,0.012695-0.063477,0.00293-0.083008-0.023438l-0.15625-0.222656l-0.009766-0.057129l0.035156-0.042969
			l0.043945-0.022461c0.029297-0.013672,0.06543-0.00293,0.086914,0.022461L39.302734,3.166992z"/>
		<path style="fill:#A9CDA6;" d="M40.446289,2.89502c0,0.003906,0,0.007813-0.003906,0.011719
			c-0.011719-0.015625-0.022461-0.025391-0.037109-0.040039c-0.047852-0.056641-0.133789-0.132813-0.133789-0.132813
			c-0.037109-0.123047,0.052734-0.328125,0.052734-0.328125c-0.014648-0.140137,0.009766-0.350098,0.009766-0.350098
			C40.678711,2.510254,40.446289,2.89502,40.446289,2.89502z"/>
		<path style="fill:#A9CDA6;" d="M40.442383,2.905762c0.03418,0.041016,0.09375,0.05957,0.116211,0.17334l-0.054688,0.022461
			L40.384766,3.09082C40.381836,3.023438,40.40918,2.973145,40.442383,2.905762z"/>
		<path style="fill:#A9CDA6;" d="M41.498047,2.467285l-0.224609,0.224609c0,0-0.061523,0.052734-0.163086,0.290039
			l-0.010742,0.115723c0,0-0.087891,0.045898-0.201172-0.021484c0,0,0.051758-0.14502,0.063477-0.29248
			c0,0,0.009766-0.521973,0.253906-0.608887c0,0,0.180664-0.091797,0.067383,0.046875c0,0-0.148438,0.19873-0.152344,0.437988
			C41.131836,2.658691,41.28418,2.455566,41.498047,2.467285z"/>
		<path style="fill:#A9CDA6;" d="M42.486328,2.984863l-0.009766,0.057129l-0.15625,0.22168
			c-0.019531,0.026367-0.052734,0.036133-0.083008,0.023438l-0.042969-0.020508l-0.039063-0.042969l0.010742-0.056641
			l0.154297-0.226074c0.020508-0.025391,0.057617-0.036133,0.085938-0.022461l0.042969,0.022461L42.486328,2.984863z"/>
		<path style="fill:#A9CDA6;" d="M39.799805,2.726074l0.105469,0.348145l-0.00293,0.06543l-0.042969,0.039063
			c-0.029297,0.012695-0.049805,0.017578-0.05957,0.017578c-0.033203,0.006836-0.06543-0.012695-0.076172-0.048828
			l-0.106445-0.342285v-0.06543l0.042969-0.040039l0.053711-0.020508C39.750977,2.663574,39.786133,2.687012,39.799805,2.726074z"/>
		<path style="fill:#A9CDA6;" d="M41.773438,2.679199l0.052734,0.020508l0.042969,0.040039v0.06543l-0.106445,0.342285
			C41.75293,3.183594,41.719727,3.203125,41.6875,3.195313c-0.010742,0-0.030273-0.004883-0.060547-0.017578l-0.042969-0.038086
			l-0.00293-0.066406L41.6875,2.725098C41.700195,2.687012,41.737305,2.663574,41.773438,2.679199z"/>
	</g>
</g>
<g id="roughgrass_x5F_bd_5_" style="enable-background:new    ;">
	<g id="RoughGrass_x5F_FC_7_">
		<path style="fill:#A9CDA6;" d="M36.041992,24.464844l0.010742,0.056641l-0.041016,0.042969l-0.042969,0.021484
			c-0.030273,0.012695-0.063477,0.00293-0.083008-0.023438l-0.15625-0.222656l-0.009766-0.057129l0.035156-0.042969
			l0.043945-0.022461c0.029297-0.013672,0.06543-0.00293,0.086914,0.022461L36.041992,24.464844z"/>
		<path style="fill:#A9CDA6;" d="M37.185547,24.192871c0,0.003906,0,0.007813-0.003906,0.011719
			c-0.011719-0.015625-0.022461-0.025391-0.037109-0.040039c-0.047852-0.056641-0.133789-0.132813-0.133789-0.132813
			c-0.037109-0.123047,0.052734-0.328125,0.052734-0.328125c-0.014648-0.140137,0.009766-0.350098,0.009766-0.350098
			C37.417969,23.808105,37.185547,24.192871,37.185547,24.192871z"/>
		<path style="fill:#A9CDA6;" d="M37.181641,24.203613c0.03418,0.041016,0.09375,0.05957,0.116211,0.17334l-0.054688,0.022461
			l-0.119141-0.010742C37.121094,24.321289,37.148438,24.270996,37.181641,24.203613z"/>
		<path style="fill:#A9CDA6;" d="M38.237305,23.765137l-0.224609,0.224609c0,0-0.061523,0.052734-0.163086,0.290039
			l-0.010742,0.115723c0,0-0.087891,0.045898-0.201172-0.021484c0,0,0.051758-0.14502,0.063477-0.29248
			c0,0,0.009766-0.521973,0.253906-0.608887c0,0,0.180664-0.091797,0.067383,0.046875c0,0-0.148438,0.19873-0.152344,0.437988
			C37.871094,23.956543,38.023438,23.753418,38.237305,23.765137z"/>
		<path style="fill:#A9CDA6;" d="M39.225586,24.282715l-0.009766,0.057129l-0.15625,0.22168
			c-0.019531,0.026367-0.052734,0.036133-0.083008,0.023438l-0.042969-0.020508l-0.039063-0.042969l0.010742-0.056641
			l0.154297-0.226074c0.020508-0.025391,0.057617-0.036133,0.085938-0.022461l0.042969,0.022461L39.225586,24.282715z"/>
		<path style="fill:#A9CDA6;" d="M36.539063,24.023926l0.105469,0.348145l-0.00293,0.06543l-0.042969,0.039063
			c-0.029297,0.012695-0.049805,0.017578-0.05957,0.017578c-0.033203,0.006836-0.06543-0.012695-0.076172-0.048828
			l-0.106445-0.342285v-0.06543l0.042969-0.040039l0.053711-0.020508C36.490234,23.961426,36.525391,23.984863,36.539063,24.023926z
			"/>
		<path style="fill:#A9CDA6;" d="M38.512695,23.977051l0.052734,0.020508l0.042969,0.040039v0.06543l-0.106445,0.342285
			c-0.009766,0.036133-0.042969,0.055664-0.075195,0.047852c-0.010742,0-0.030273-0.004883-0.060547-0.017578L38.323242,24.4375
			l-0.00293-0.066406l0.106445-0.348145C38.439453,23.984863,38.476563,23.961426,38.512695,23.977051z"/>
	</g>
</g>
<g id="scrub_x5F_bd_5_" style="enable-background:new    ;">
	<g id="Scrub_x5F_FC_7_">
		<g id="Deleted_Symbol_1_7_">
			<path style="fill:#A9CDA6;" d="M38.603516,22.679199c-0.029297,0-0.054688-0.019531-0.063477-0.046875l-0.148438-0.483887
				c-0.010742-0.032227,0.006836-0.067383,0.039063-0.081055l0.076172-0.029297
				c0.012695-0.000977,0.023438-0.001953,0.032227-0.001953c0.037109,0.011719,0.048828,0.026367,0.055664,0.043945
				l0.146484,0.493652c0.009766,0.035156-0.008789,0.071289-0.042969,0.082031
				c-0.041016,0.012695-0.068359,0.018555-0.081055,0.021484L38.603516,22.679199z"/>
			<path style="fill:#A9CDA6;" d="M39.522461,22.556152c-0.039063,0-0.070313-0.032227-0.071289-0.072266l-0.006836-0.496582
				c0-0.039063-0.013672-0.057617-0.024414-0.069336c-0.013672-0.014648-0.036133-0.022461-0.060547-0.022461
				c-0.023438,0-0.063477,0.007813-0.113281,0.048828c-0.013672,0.009766-0.02832,0.014648-0.044922,0.014648
				c-0.038086-0.004883-0.052734-0.019531-0.05957-0.03125l-0.045898-0.068359
				c-0.021484-0.033203-0.013672-0.076172,0.019531-0.099609c0.085938-0.060547,0.174805-0.09375,0.255859-0.09375
				c0.085938,0,0.162109,0.038086,0.217773,0.109375c0.047852,0.063477,0.073242,0.134766,0.073242,0.211914l0.005859,0.461426
				l0.005859,0.037109c0,0.037109-0.033203,0.069336-0.072266,0.070313H39.522461z"/>
			<path style="fill:#A9CDA6;" d="M41.662109,22.622559c-0.027344-0.005859-0.053711-0.012695-0.076172-0.019531
				c-0.03418-0.010742-0.053711-0.045898-0.043945-0.080078l0.143555-0.495605
				c0.004883-0.017578,0.017578-0.03125,0.033203-0.040039l0.133789,0.023438
				c0.033203,0.012695,0.051758,0.048828,0.041016,0.082031l-0.154297,0.48584
				c-0.009766,0.02832-0.03418,0.045898-0.061523,0.045898L41.662109,22.622559z"/>
			<path style="fill:#A9CDA6;" d="M40.567383,22.51416c-0.046875,0-0.09375-0.017578-0.139648-0.050781
				c0.006836-0.013672-0.174805-0.899902-0.364258-1.183105c-0.024414-0.046875-0.037109-0.09668-0.030273-0.105957
				c0.045898,0.007324,0.09375,0.025879,0.167969,0.071777c0.015625,0.012695,0.185547,0.107422,0.291016,0.600586
				l0.036133,0.116211c0.016602-0.027344,0.044922-1.037598,0.401367-1.193848
				c0.032227-0.020508,0.084961-0.045898,0.111328-0.050781c-0.005859,0.006836-0.013672,0.032227-0.053711,0.09375
				c-0.010742,0.016602-0.213867,0.339844-0.224609,0.79248v0.117188c0.022461-0.013672,0.171875-0.28418,0.448242-0.342773
				c0.033203-0.012695,0.051758-0.015625,0.0625-0.016602c-0.008789,0.004883-0.022461,0.035156-0.095703,0.115234
				c-0.000977,0.000977-0.167969,0.170898-0.461914,0.775879l-0.024414,0.234375
				C40.666992,22.489746,40.624023,22.51416,40.567383,22.51416z"/>
		</g>
	</g>
</g>
<g id="scrub_x5F_bd_4_" style="enable-background:new    ;">
	<g id="Scrub_x5F_FC_6_">
		<g id="Deleted_Symbol_1_6_">
			<path style="fill:#A9CDA6;" d="M34.177734,21.915527c-0.029297,0-0.054688-0.019531-0.063477-0.046875l-0.148438-0.483887
				c-0.010742-0.032227,0.006836-0.067383,0.039063-0.081055l0.076172-0.029297
				c0.012695-0.000977,0.023438-0.001953,0.032227-0.001953c0.037109,0.011719,0.048828,0.026367,0.055664,0.043945
				l0.146484,0.493652c0.009766,0.035156-0.008789,0.071289-0.042969,0.082031
				c-0.041016,0.012695-0.068359,0.018555-0.081055,0.021484L34.177734,21.915527z"/>
			<path style="fill:#A9CDA6;" d="M35.09668,21.79248c-0.039063,0-0.070313-0.032227-0.071289-0.072266l-0.006836-0.496582
				c0-0.039063-0.013672-0.057617-0.024414-0.069336c-0.013672-0.014648-0.036133-0.022461-0.060547-0.022461
				c-0.023438,0-0.063477,0.007813-0.113281,0.048828c-0.013672,0.009766-0.02832,0.014648-0.044922,0.014648
				c-0.038086-0.004883-0.052734-0.019531-0.05957-0.03125l-0.045898-0.068359
				c-0.021484-0.033203-0.013672-0.076172,0.019531-0.099609c0.085938-0.060547,0.174805-0.09375,0.255859-0.09375
				c0.085938,0,0.162109,0.038086,0.217773,0.109375c0.047852,0.063477,0.073242,0.134766,0.073242,0.211914l0.005859,0.461426
				l0.005859,0.037109c0,0.037109-0.033203,0.069336-0.072266,0.070313H35.09668z"/>
			<path style="fill:#A9CDA6;" d="M37.236328,21.858887c-0.027344-0.005859-0.053711-0.012695-0.076172-0.019531
				c-0.03418-0.010742-0.053711-0.045898-0.043945-0.080078l0.143555-0.495605
				c0.004883-0.017578,0.017578-0.03125,0.033203-0.040039l0.133789,0.023438
				c0.033203,0.012695,0.051758,0.048828,0.041016,0.082031l-0.154297,0.48584
				c-0.009766,0.02832-0.03418,0.045898-0.061523,0.045898L37.236328,21.858887z"/>
			<path style="fill:#A9CDA6;" d="M36.141602,21.750488c-0.046875,0-0.09375-0.017578-0.139648-0.050781
				c0.006836-0.013672-0.174805-0.899902-0.364258-1.183105c-0.024414-0.046875-0.037109-0.09668-0.030273-0.105957
				c0.045898,0.007324,0.09375,0.025879,0.167969,0.071777c0.015625,0.012695,0.185547,0.107422,0.291016,0.600586
				l0.036133,0.116211c0.016602-0.027344,0.044922-1.037598,0.401367-1.193848
				c0.032227-0.020508,0.084961-0.045898,0.111328-0.050781c-0.005859,0.006836-0.013672,0.032227-0.053711,0.09375
				c-0.010742,0.016602-0.213867,0.339844-0.224609,0.79248v0.117188c0.022461-0.013672,0.171875-0.28418,0.448242-0.342773
				c0.033203-0.012695,0.051758-0.015625,0.0625-0.016602c-0.008789,0.004883-0.022461,0.035156-0.095703,0.115234
				c-0.000977,0.000977-0.167969,0.170898-0.461914,0.775879l-0.024414,0.234375
				C36.241211,21.726074,36.198242,21.750488,36.141602,21.750488z"/>
		</g>
	</g>
</g>
<g id="roughgrass_x5F_bd_7_" style="enable-background:new    ;">
	<g id="RoughGrass_x5F_FC_9_">
		<path style="fill:#A9CDA6;" d="M41.310547,36.368164l0.010742,0.056641l-0.041016,0.042969l-0.042969,0.021484
			c-0.030273,0.012695-0.063477,0.00293-0.083008-0.023438l-0.15625-0.222656l-0.009766-0.057617l0.035156-0.042969
			l0.043945-0.022461c0.029297-0.013672,0.06543-0.00293,0.086914,0.022461L41.310547,36.368164z"/>
		<path style="fill:#A9CDA6;" d="M42.454102,36.095703c0,0.003906,0,0.007813-0.003906,0.011719
			c-0.011719-0.015625-0.022461-0.025391-0.037109-0.040039c-0.047852-0.056641-0.133789-0.132813-0.133789-0.132813
			c-0.037109-0.123047,0.052734-0.328125,0.052734-0.328125c-0.014648-0.140625,0.009766-0.350586,0.009766-0.350586
			C42.686523,35.710938,42.454102,36.095703,42.454102,36.095703z"/>
		<path style="fill:#A9CDA6;" d="M42.450195,36.106445c0.03418,0.041016,0.09375,0.05957,0.116211,0.173828l-0.054688,0.022461
			l-0.119141-0.010742C42.389648,36.224609,42.416992,36.173828,42.450195,36.106445z"/>
		<path style="fill:#A9CDA6;" d="M43.505859,35.667969l-0.224609,0.224609c0,0-0.061523,0.052734-0.163086,0.290039
			l-0.010742,0.116211c0,0-0.087891,0.045898-0.201172-0.021484c0,0,0.051758-0.145508,0.063477-0.292969
			c0,0,0.009766-0.522461,0.253906-0.609375c0,0,0.180664-0.091797,0.067383,0.046875c0,0-0.148438,0.199219-0.152344,0.438477
			C43.139648,35.859375,43.291992,35.65625,43.505859,35.667969z"/>
		<path style="fill:#A9CDA6;" d="M44.494141,36.185547l-0.009766,0.057617l-0.15625,0.22168
			c-0.019531,0.026367-0.052734,0.036133-0.083008,0.023438l-0.042969-0.020508l-0.039063-0.042969l0.010742-0.056641
			l0.154297-0.226563c0.020508-0.025391,0.057617-0.036133,0.085938-0.022461l0.042969,0.022461L44.494141,36.185547z"/>
		<path style="fill:#A9CDA6;" d="M41.807617,35.926758l0.105469,0.348633l-0.00293,0.06543l-0.042969,0.039063
			c-0.029297,0.012695-0.049805,0.017578-0.05957,0.017578c-0.033203,0.006836-0.06543-0.012695-0.076172-0.048828L41.625,36.005859
			v-0.06543l0.042969-0.040039l0.053711-0.020508C41.758789,35.864258,41.793945,35.887695,41.807617,35.926758z"/>
		<path style="fill:#A9CDA6;" d="M43.78125,35.879883l0.052734,0.020508l0.042969,0.040039v0.06543l-0.106445,0.342773
			c-0.009766,0.036133-0.042969,0.055664-0.075195,0.047852c-0.010742,0-0.030273-0.004883-0.060547-0.017578l-0.042969-0.038086
			l-0.00293-0.066406l0.106445-0.348633C43.708008,35.887695,43.745117,35.864258,43.78125,35.879883z"/>
	</g>
</g>
<g id="scrub_x5F_bd_6_" style="enable-background:new    ;">
	<g id="Scrub_x5F_FC_8_">
		<g id="Deleted_Symbol_1_8_">
			<path style="fill:#A9CDA6;" d="M43.871094,34.582031c-0.029297,0-0.054688-0.019531-0.063477-0.046875l-0.148438-0.484375
				c-0.010742-0.032227,0.006836-0.067383,0.039063-0.081055l0.076172-0.029297
				c0.012695-0.000977,0.023438-0.001953,0.032227-0.001953c0.037109,0.011719,0.048828,0.026367,0.055664,0.043945
				l0.146484,0.494141C44.018555,34.511719,44,34.547852,43.96582,34.558594
				c-0.041016,0.012695-0.068359,0.018555-0.081055,0.021484L43.871094,34.582031z"/>
			<path style="fill:#A9CDA6;" d="M44.790039,34.458984c-0.039063,0-0.070313-0.032227-0.071289-0.072266l-0.006836-0.49707
				c0-0.039063-0.013672-0.057617-0.024414-0.069336c-0.013672-0.014648-0.036133-0.022461-0.060547-0.022461
				c-0.023438,0-0.063477,0.007813-0.113281,0.048828c-0.013672,0.009766-0.02832,0.014648-0.044922,0.014648
				c-0.038086-0.004883-0.052734-0.019531-0.05957-0.03125l-0.045898-0.068359
				c-0.021484-0.033203-0.013672-0.076172,0.019531-0.099609c0.085938-0.060547,0.174805-0.09375,0.255859-0.09375
				c0.085938,0,0.162109,0.038086,0.217773,0.109375c0.047852,0.063477,0.073242,0.134766,0.073242,0.211914l0.005859,0.461914
				l0.005859,0.037109c0,0.037109-0.033203,0.069336-0.072266,0.070313H44.790039z"/>
			<path style="fill:#A9CDA6;" d="M46.929688,34.525391c-0.027344-0.005859-0.053711-0.012695-0.076172-0.019531
				c-0.03418-0.010742-0.053711-0.045898-0.043945-0.080078l0.143555-0.496094
				c0.004883-0.017578,0.017578-0.03125,0.033203-0.040039l0.133789,0.023438
				c0.033203,0.012695,0.051758,0.048828,0.041016,0.082031l-0.154297,0.486328
				c-0.009766,0.02832-0.03418,0.045898-0.061523,0.045898L46.929688,34.525391z"/>
			<path style="fill:#A9CDA6;" d="M45.834961,34.416992c-0.046875,0-0.09375-0.017578-0.139648-0.050781
				c0.006836-0.013672-0.174805-0.900391-0.364258-1.183594c-0.024414-0.046875-0.037109-0.09668-0.030273-0.106445
				c0.045898,0.007813,0.09375,0.026367,0.167969,0.072266c0.015625,0.012695,0.185547,0.107422,0.291016,0.600586
				l0.036133,0.116211c0.016602-0.027344,0.044922-1.038086,0.401367-1.194336
				c0.032227-0.020508,0.084961-0.045898,0.111328-0.050781c-0.005859,0.006836-0.013672,0.032227-0.053711,0.09375
				c-0.010742,0.016602-0.213867,0.339844-0.224609,0.792969v0.117188c0.022461-0.013672,0.171875-0.28418,0.448242-0.342773
				c0.033203-0.012695,0.051758-0.015625,0.0625-0.016602c-0.008789,0.004883-0.022461,0.035156-0.095703,0.115234
				c-0.000977,0.000977-0.167969,0.170898-0.461914,0.776367l-0.024414,0.234375
				C45.93457,34.392578,45.891602,34.416992,45.834961,34.416992z"/>
		</g>
	</g>
</g>
<g id="roughgrass_x5F_bd_6_" style="enable-background:new    ;">
	<g id="RoughGrass_x5F_FC_8_">
		<path style="fill:#A9CDA6;" d="M39.554688,33.333008l0.010742,0.056641l-0.041016,0.042969l-0.042969,0.021484
			c-0.030273,0.012695-0.063477,0.00293-0.083008-0.023438l-0.15625-0.222656l-0.009766-0.057617l0.035156-0.042969
			l0.043945-0.022461c0.029297-0.013672,0.06543-0.00293,0.086914,0.022461L39.554688,33.333008z"/>
		<path style="fill:#A9CDA6;" d="M40.698242,33.060547c0,0.003906,0,0.007813-0.003906,0.011719
			c-0.011719-0.015625-0.022461-0.025391-0.037109-0.040039c-0.047852-0.056641-0.133789-0.132813-0.133789-0.132813
			c-0.037109-0.123047,0.052734-0.328125,0.052734-0.328125c-0.014648-0.140625,0.009766-0.350586,0.009766-0.350586
			C40.930664,32.675781,40.698242,33.060547,40.698242,33.060547z"/>
		<path style="fill:#A9CDA6;" d="M40.694336,33.071289c0.03418,0.041016,0.09375,0.05957,0.116211,0.173828l-0.054688,0.022461
			l-0.119141-0.010742C40.633789,33.189453,40.661133,33.138672,40.694336,33.071289z"/>
		<path style="fill:#A9CDA6;" d="M41.75,32.632813l-0.224609,0.224609c0,0-0.061523,0.052734-0.163086,0.290039l-0.010742,0.116211
			c0,0-0.087891,0.045898-0.201172-0.021484c0,0,0.051758-0.145508,0.063477-0.292969c0,0,0.009766-0.522461,0.253906-0.609375
			c0,0,0.180664-0.091797,0.067383,0.046875c0,0-0.148438,0.199219-0.152344,0.438477
			C41.383789,32.824219,41.536133,32.621094,41.75,32.632813z"/>
		<path style="fill:#A9CDA6;" d="M42.738281,33.150391l-0.009766,0.057617l-0.15625,0.22168
			c-0.019531,0.026367-0.052734,0.036133-0.083008,0.023438l-0.042969-0.020508l-0.039063-0.042969l0.010742-0.056641
			l0.154297-0.226563c0.020508-0.025391,0.057617-0.036133,0.085938-0.022461l0.042969,0.022461L42.738281,33.150391z"/>
		<path style="fill:#A9CDA6;" d="M40.051758,32.891602l0.105469,0.348633l-0.00293,0.06543l-0.042969,0.039063
			c-0.029297,0.012695-0.049805,0.017578-0.05957,0.017578c-0.033203,0.006836-0.06543-0.012695-0.076172-0.048828
			l-0.106445-0.342773v-0.06543l0.042969-0.040039l0.053711-0.020508C40.00293,32.829102,40.038086,32.852539,40.051758,32.891602z"
			/>
		<path style="fill:#A9CDA6;" d="M42.025391,32.844727l0.052734,0.020508l0.042969,0.040039v0.06543l-0.106445,0.342773
			c-0.009766,0.036133-0.042969,0.055664-0.075195,0.047852c-0.010742,0-0.030273-0.004883-0.060547-0.017578l-0.042969-0.038086
			l-0.00293-0.066406l0.106445-0.348633C41.952148,32.852539,41.989258,32.829102,42.025391,32.844727z"/>
	</g>
</g>
<g id="roughgrass_x5F_bd_10_" style="enable-background:new    ;">
	<g id="RoughGrass_x5F_FC_12_">
		<path style="fill:#A9CDA6;" d="M28.280273,46.969727l0.010742,0.056641L28.25,47.069336l-0.042969,0.021484
			c-0.030273,0.012695-0.063477,0.00293-0.083008-0.023438l-0.15625-0.222656l-0.009766-0.057617l0.035156-0.042969
			l0.043945-0.022461c0.029297-0.013672,0.06543-0.00293,0.086914,0.022461L28.280273,46.969727z"/>
		<path style="fill:#A9CDA6;" d="M29.423828,46.697266c0,0.003906,0,0.007813-0.003906,0.011719
			c-0.011719-0.015625-0.022461-0.025391-0.037109-0.040039c-0.047852-0.056641-0.133789-0.132813-0.133789-0.132813
			c-0.037109-0.123047,0.052734-0.328125,0.052734-0.328125c-0.014648-0.140625,0.009766-0.350586,0.009766-0.350586
			C29.65625,46.3125,29.423828,46.697266,29.423828,46.697266z"/>
		<path style="fill:#A9CDA6;" d="M29.419922,46.708008c0.03418,0.041016,0.09375,0.05957,0.116211,0.173828l-0.054688,0.022461
			l-0.119141-0.010742C29.359375,46.826172,29.386719,46.775391,29.419922,46.708008z"/>
		<path style="fill:#A9CDA6;" d="M30.475586,46.269531l-0.224609,0.224609c0,0-0.061523,0.052734-0.163086,0.290039
			l-0.010742,0.116211c0,0-0.087891,0.045898-0.201172-0.021484c0,0,0.051758-0.145508,0.063477-0.292969
			c0,0,0.009766-0.522461,0.253906-0.609375c0,0,0.180664-0.091797,0.067383,0.046875c0,0-0.148438,0.199219-0.152344,0.438477
			C30.109375,46.460938,30.261719,46.257813,30.475586,46.269531z"/>
		<path style="fill:#A9CDA6;" d="M31.463867,46.787109l-0.009766,0.057617l-0.15625,0.22168
			c-0.019531,0.026367-0.052734,0.036133-0.083008,0.023438l-0.042969-0.020508l-0.039063-0.042969l0.010742-0.056641
			l0.154297-0.226563c0.020508-0.025391,0.057617-0.036133,0.085938-0.022461l0.042969,0.022461L31.463867,46.787109z"/>
		<path style="fill:#A9CDA6;" d="M28.777344,46.52832l0.105469,0.348633l-0.00293,0.06543l-0.042969,0.039063
			c-0.029297,0.012695-0.049805,0.017578-0.05957,0.017578c-0.033203,0.006836-0.06543-0.012695-0.076172-0.048828
			l-0.106445-0.342773v-0.06543l0.042969-0.040039l0.053711-0.020508C28.728516,46.46582,28.763672,46.489258,28.777344,46.52832z"
			/>
		<path style="fill:#A9CDA6;" d="M30.750977,46.481445l0.052734,0.020508l0.042969,0.040039v0.06543l-0.106445,0.342773
			c-0.009766,0.036133-0.042969,0.055664-0.075195,0.047852c-0.010742,0-0.030273-0.004883-0.060547-0.017578l-0.042969-0.038086
			l-0.00293-0.066406l0.106445-0.348633C30.677734,46.489258,30.714844,46.46582,30.750977,46.481445z"/>
	</g>
</g>
<g id="scrub_x5F_bd_9_" style="enable-background:new    ;">
	<g id="Scrub_x5F_FC_11_">
		<g id="Deleted_Symbol_1_11_">
			<path style="fill:#A9CDA6;" d="M30.839844,45.183594c-0.029297,0-0.054688-0.019531-0.063477-0.046875l-0.148438-0.484375
				c-0.010742-0.032227,0.006836-0.067383,0.039063-0.081055l0.076172-0.029297
				c0.012695-0.000977,0.023438-0.001953,0.032227-0.001953c0.037109,0.011719,0.048828,0.026367,0.055664,0.043945
				l0.146484,0.494141c0.009766,0.035156-0.008789,0.071289-0.042969,0.082031
				c-0.041016,0.012695-0.068359,0.018555-0.081055,0.021484L30.839844,45.183594z"/>
			<path style="fill:#A9CDA6;" d="M31.758789,45.060547c-0.039063,0-0.070313-0.032227-0.071289-0.072266l-0.006836-0.49707
				c0-0.039063-0.013672-0.057617-0.024414-0.069336c-0.013672-0.014648-0.036133-0.022461-0.060547-0.022461
				c-0.023438,0-0.063477,0.007813-0.113281,0.048828c-0.013672,0.009766-0.02832,0.014648-0.044922,0.014648
				c-0.038086-0.004883-0.052734-0.019531-0.05957-0.03125l-0.045898-0.068359
				c-0.021484-0.033203-0.013672-0.076172,0.019531-0.099609c0.085938-0.060547,0.174805-0.09375,0.255859-0.09375
				c0.085938,0,0.162109,0.038086,0.217773,0.109375c0.047852,0.063477,0.073242,0.134766,0.073242,0.211914l0.005859,0.461914
				l0.005859,0.037109c0,0.037109-0.033203,0.069336-0.072266,0.070313H31.758789z"/>
			<path style="fill:#A9CDA6;" d="M33.898438,45.126953c-0.027344-0.005859-0.053711-0.012695-0.076172-0.019531
				c-0.03418-0.010742-0.053711-0.045898-0.043945-0.080078l0.143555-0.496094
				c0.004883-0.017578,0.017578-0.03125,0.033203-0.040039l0.133789,0.023438
				c0.033203,0.012695,0.051758,0.048828,0.041016,0.082031l-0.154297,0.486328
				c-0.009766,0.02832-0.03418,0.045898-0.061523,0.045898L33.898438,45.126953z"/>
			<path style="fill:#A9CDA6;" d="M32.803711,45.018555c-0.046875,0-0.09375-0.017578-0.139648-0.050781
				c0.006836-0.013672-0.174805-0.900391-0.364258-1.183594c-0.024414-0.046875-0.037109-0.09668-0.030273-0.106445
				c0.045898,0.007813,0.09375,0.026367,0.167969,0.072266c0.015625,0.012695,0.185547,0.107422,0.291016,0.600586
				l0.036133,0.116211c0.016602-0.027344,0.044922-1.038086,0.401367-1.194336
				c0.032227-0.020508,0.084961-0.045898,0.111328-0.050781c-0.005859,0.006836-0.013672,0.032227-0.053711,0.09375
				c-0.010742,0.016602-0.213867,0.339844-0.224609,0.792969v0.117188c0.022461-0.013672,0.171875-0.28418,0.448242-0.342773
				c0.033203-0.012695,0.051758-0.015625,0.0625-0.016602c-0.008789,0.004883-0.022461,0.035156-0.095703,0.115234
				c-0.000977,0.000977-0.167969,0.170898-0.461914,0.776367l-0.024414,0.234375
				C32.90332,44.994141,32.860352,45.018555,32.803711,45.018555z"/>
		</g>
	</g>
</g>
<g id="roughgrass_x5F_bd_9_" style="enable-background:new    ;">
	<g id="RoughGrass_x5F_FC_11_">
		<path style="fill:#A9CDA6;" d="M26.524414,43.93457l0.010742,0.056641l-0.041016,0.042969l-0.042969,0.021484
			c-0.030273,0.012695-0.063477,0.00293-0.083008-0.023438l-0.15625-0.222656l-0.009766-0.057617l0.035156-0.042969
			l0.043945-0.022461c0.029297-0.013672,0.06543-0.00293,0.086914,0.022461L26.524414,43.93457z"/>
		<path style="fill:#A9CDA6;" d="M27.667969,43.662109c0,0.003906,0,0.007813-0.003906,0.011719
			c-0.011719-0.015625-0.022461-0.025391-0.037109-0.040039c-0.047852-0.056641-0.133789-0.132813-0.133789-0.132813
			c-0.037109-0.123047,0.052734-0.328125,0.052734-0.328125c-0.014648-0.140625,0.009766-0.350586,0.009766-0.350586
			C27.900391,43.277344,27.667969,43.662109,27.667969,43.662109z"/>
		<path style="fill:#A9CDA6;" d="M27.664063,43.672852c0.03418,0.041016,0.09375,0.05957,0.116211,0.173828l-0.054688,0.022461
			l-0.119141-0.010742C27.603516,43.791016,27.630859,43.740234,27.664063,43.672852z"/>
		<path style="fill:#A9CDA6;" d="M28.719727,43.234375l-0.224609,0.224609c0,0-0.061523,0.052734-0.163086,0.290039
			l-0.010742,0.116211c0,0-0.087891,0.045898-0.201172-0.021484c0,0,0.051758-0.145508,0.063477-0.292969
			c0,0,0.009766-0.522461,0.253906-0.609375c0,0,0.180664-0.091797,0.067383,0.046875c0,0-0.148438,0.199219-0.152344,0.438477
			C28.353516,43.425781,28.505859,43.222656,28.719727,43.234375z"/>
		<path style="fill:#A9CDA6;" d="M29.708008,43.751953l-0.009766,0.057617l-0.15625,0.22168
			c-0.019531,0.026367-0.052734,0.036133-0.083008,0.023438l-0.042969-0.020508l-0.039063-0.042969l0.010742-0.056641
			l0.154297-0.226563c0.020508-0.025391,0.057617-0.036133,0.085938-0.022461l0.042969,0.022461L29.708008,43.751953z"/>
		<path style="fill:#A9CDA6;" d="M27.021484,43.493164l0.105469,0.348633l-0.00293,0.06543l-0.042969,0.039063
			c-0.029297,0.012695-0.049805,0.017578-0.05957,0.017578c-0.033203,0.006836-0.06543-0.012695-0.076172-0.048828
			l-0.106445-0.342773v-0.06543l0.042969-0.040039l0.053711-0.020508C26.972656,43.430664,27.007813,43.454102,27.021484,43.493164z
			"/>
		<path style="fill:#A9CDA6;" d="M28.995117,43.446289l0.052734,0.020508l0.042969,0.040039v0.06543l-0.106445,0.342773
			c-0.009766,0.036133-0.042969,0.055664-0.075195,0.047852c-0.010742,0-0.030273-0.004883-0.060547-0.017578l-0.042969-0.038086
			l-0.00293-0.066406l0.106445-0.348633C28.921875,43.454102,28.958984,43.430664,28.995117,43.446289z"/>
	</g>
</g>
<g id="roughgrass_x5F_bd_11_" style="enable-background:new    ;">
	<g id="RoughGrass_x5F_FC_13_">
		<path style="fill:#A9CDA6;" d="M4.504395,48.383789l0.010254,0.056641l-0.041016,0.042969l-0.042969,0.021484
			c-0.030273,0.012695-0.062988,0.00293-0.083008-0.023438l-0.155762-0.222656l-0.009766-0.057617l0.035645-0.042969
			l0.043457-0.022461c0.029785-0.013672,0.06543-0.00293,0.086426,0.022461L4.504395,48.383789z"/>
		<path style="fill:#A9CDA6;" d="M5.647461,48.111328c0,0.003906,0,0.007813-0.003906,0.011719
			c-0.01123-0.015625-0.021973-0.025391-0.037109-0.040039c-0.047363-0.056641-0.133301-0.132813-0.133301-0.132813
			c-0.037109-0.123047,0.052734-0.328125,0.052734-0.328125c-0.014648-0.140625,0.010254-0.350586,0.010254-0.350586
			C5.880371,47.726563,5.647461,48.111328,5.647461,48.111328z"/>
		<path style="fill:#A9CDA6;" d="M5.643555,48.12207c0.03418,0.041016,0.09375,0.05957,0.116211,0.173828l-0.054199,0.022461
			l-0.118652-0.010742C5.583984,48.240234,5.610352,48.189453,5.643555,48.12207z"/>
		<path style="fill:#A9CDA6;" d="M6.700195,47.683594l-0.225098,0.224609c0,0-0.062012,0.052734-0.163086,0.290039
			L6.30127,48.314453c0,0-0.087891,0.045898-0.200684-0.021484c0,0,0.051758-0.145508,0.062988-0.292969
			c0,0,0.009766-0.522461,0.253418-0.609375c0,0,0.181152-0.091797,0.067871,0.046875c0,0-0.148926,0.199219-0.152832,0.438477
			C6.333008,47.875,6.48584,47.671875,6.700195,47.683594z"/>
		<path style="fill:#A9CDA6;" d="M7.687988,48.201172l-0.009766,0.057617l-0.155762,0.22168
			c-0.02002,0.026367-0.052734,0.036133-0.083008,0.023438l-0.042969-0.020508L7.357422,48.44043l0.010254-0.056641
			l0.154785-0.226563c0.02002-0.025391,0.056641-0.036133,0.085449-0.022461l0.042969,0.022461L7.687988,48.201172z"/>
		<path style="fill:#A9CDA6;" d="M5.000977,47.942383l0.105957,0.348633l-0.00293,0.06543l-0.042969,0.039063
			c-0.029785,0.012695-0.049805,0.017578-0.060059,0.017578c-0.032715,0.006836-0.064453-0.012695-0.075684-0.048828
			l-0.105957-0.342773v-0.06543l0.042969-0.040039l0.053223-0.020508C4.952148,47.879883,4.987793,47.90332,5.000977,47.942383z"/>
		<path style="fill:#A9CDA6;" d="M6.974609,47.895508l0.052734,0.020508l0.043457,0.040039v0.06543l-0.106445,0.342773
			c-0.009766,0.036133-0.042969,0.055664-0.075195,0.047852c-0.010254,0-0.030273-0.004883-0.060059-0.017578l-0.042969-0.038086
			l-0.00293-0.066406l0.105957-0.348633C6.901855,47.90332,6.938477,47.879883,6.974609,47.895508z"/>
	</g>
</g>
<g id="scrub_x5F_bd_10_" style="enable-background:new    ;">
	<g id="Scrub_x5F_FC_12_">
		<g id="Deleted_Symbol_1_12_">
			<path style="fill:#A9CDA6;" d="M7.064941,46.598633c-0.028809,0-0.053711-0.019531-0.0625-0.046875l-0.148926-0.484375
				C6.843262,46.035156,6.860352,46,6.892578,45.986328l0.07666-0.029297c0.012207-0.000977,0.023438-0.001953,0.032227-0.001953
				c0.036621,0.011719,0.04834,0.026367,0.054688,0.043945l0.146973,0.494141
				c0.009766,0.035156-0.009277,0.071289-0.042969,0.082031c-0.041016,0.012695-0.068359,0.018555-0.081055,0.021484
				L7.064941,46.598633z"/>
			<path style="fill:#A9CDA6;" d="M7.984863,46.475586c-0.039063,0-0.070801-0.032227-0.071777-0.072266l-0.006348-0.49707
				c0-0.039063-0.013672-0.057617-0.024902-0.069336c-0.013672-0.014648-0.035645-0.022461-0.060059-0.022461
				c-0.023926,0-0.063965,0.007813-0.11377,0.048828c-0.013184,0.009766-0.027832,0.014648-0.044922,0.014648
				C7.625,45.873047,7.61084,45.858398,7.604004,45.84668L7.558105,45.77832c-0.021973-0.033203-0.01416-0.076172,0.019043-0.099609
				c0.085938-0.060547,0.174805-0.09375,0.255859-0.09375c0.085938,0,0.162109,0.038086,0.217773,0.109375
				c0.047852,0.063477,0.072754,0.134766,0.072754,0.211914l0.005859,0.461914l0.005859,0.037109
				c0,0.037109-0.032715,0.069336-0.071289,0.070313H7.984863z"/>
			<path style="fill:#A9CDA6;" d="M10.124023,46.541992c-0.026855-0.005859-0.053223-0.012695-0.076172-0.019531
				c-0.033691-0.010742-0.053711-0.045898-0.043945-0.080078l0.144043-0.496094
				c0.004883-0.017578,0.01709-0.03125,0.032715-0.040039l0.133789,0.023438c0.033203,0.012695,0.05127,0.048828,0.041016,0.082031
				l-0.154785,0.486328c-0.009277,0.02832-0.033691,0.045898-0.060547,0.045898L10.124023,46.541992z"/>
			<path style="fill:#A9CDA6;" d="M9.029297,46.433594c-0.046875,0-0.09375-0.017578-0.139648-0.050781
				c0.006836-0.013672-0.174316-0.900391-0.364258-1.183594c-0.024902-0.046875-0.037109-0.09668-0.030762-0.106445
				c0.045898,0.007813,0.09375,0.026367,0.168945,0.072266c0.015137,0.012695,0.185059,0.107422,0.291016,0.600586
				l0.036133,0.116211c0.016602-0.027344,0.044922-1.038086,0.400391-1.194336
				c0.032715-0.020508,0.084961-0.045898,0.111816-0.050781c-0.005859,0.006836-0.01416,0.032227-0.053711,0.09375
				c-0.01123,0.016602-0.214355,0.339844-0.225098,0.792969v0.117188c0.022949-0.013672,0.171875-0.28418,0.44873-0.342773
				c0.033203-0.012695,0.052246-0.015625,0.062988-0.016602c-0.008789,0.004883-0.022949,0.035156-0.09668,0.115234
				c-0.000977,0.000977-0.167969,0.170898-0.461914,0.776367l-0.024414,0.234375
				C9.128906,46.40918,9.086426,46.433594,9.029297,46.433594z"/>
		</g>
	</g>
</g>
<g id="roughgrass_x5F_bd_12_" style="enable-background:new    ;">
	<g id="RoughGrass_x5F_FC_14_">
		<path style="fill:#A9CDA6;" d="M2.749512,45.348633l0.010254,0.056641L2.71875,45.448242l-0.042969,0.021484
			c-0.030273,0.012695-0.062988,0.00293-0.083008-0.023438l-0.155762-0.222656l-0.009766-0.057617l0.035645-0.042969
			l0.043457-0.022461c0.029785-0.013672,0.06543-0.00293,0.086426,0.022461L2.749512,45.348633z"/>
		<path style="fill:#A9CDA6;" d="M3.892578,45.076172c0,0.003906,0,0.007813-0.003906,0.011719
			c-0.01123-0.015625-0.021973-0.025391-0.037109-0.040039c-0.047363-0.056641-0.133301-0.132813-0.133301-0.132813
			c-0.037109-0.123047,0.052734-0.328125,0.052734-0.328125c-0.014648-0.140625,0.010254-0.350586,0.010254-0.350586
			C4.125488,44.691406,3.892578,45.076172,3.892578,45.076172z"/>
		<path style="fill:#A9CDA6;" d="M3.888672,45.086914c0.03418,0.041016,0.09375,0.05957,0.116211,0.173828l-0.054199,0.022461
			l-0.118652-0.010742C3.829102,45.205078,3.855469,45.154297,3.888672,45.086914z"/>
		<path style="fill:#A9CDA6;" d="M4.945313,44.648438l-0.225098,0.224609c0,0-0.062012,0.052734-0.163086,0.290039
			l-0.010742,0.116211c0,0-0.087891,0.045898-0.200684-0.021484c0,0,0.051758-0.145508,0.062988-0.292969
			c0,0,0.009766-0.522461,0.253418-0.609375c0,0,0.181152-0.091797,0.067871,0.046875c0,0-0.148926,0.199219-0.152832,0.438477
			C4.578125,44.839844,4.730957,44.636719,4.945313,44.648438z"/>
		<path style="fill:#A9CDA6;" d="M5.933105,45.166016L5.92334,45.223633l-0.155762,0.22168
			c-0.02002,0.026367-0.052734,0.036133-0.083008,0.023438l-0.042969-0.020508l-0.039063-0.042969l0.010254-0.056641
			l0.154785-0.226563c0.02002-0.025391,0.056641-0.036133,0.085449-0.022461l0.042969,0.022461L5.933105,45.166016z"/>
		<path style="fill:#A9CDA6;" d="M3.246094,44.907227l0.105957,0.348633l-0.00293,0.06543l-0.042969,0.039063
			c-0.029785,0.012695-0.049805,0.017578-0.060059,0.017578c-0.032715,0.006836-0.064453-0.012695-0.075684-0.048828
			l-0.105957-0.342773v-0.06543l0.042969-0.040039l0.053223-0.020508C3.197266,44.844727,3.23291,44.868164,3.246094,44.907227z"/>
		<path style="fill:#A9CDA6;" d="M5.219727,44.860352l0.052734,0.020508l0.043457,0.040039v0.06543l-0.106445,0.342773
			c-0.009766,0.036133-0.042969,0.055664-0.075195,0.047852c-0.010254,0-0.030273-0.004883-0.060059-0.017578L5.03125,45.321289
			l-0.00293-0.066406l0.105957-0.348633C5.146973,44.868164,5.183594,44.844727,5.219727,44.860352z"/>
	</g>
</g>
</svg>
