<?xml version="1.0" encoding="utf-8"?>
<!-- Generator: Adobe Illustrator 16.0.3, SVG Export Plug-In . SVG Version: 6.00 Build 0)  -->
<!DOCTYPE svg PUBLIC "-//W3C//DTD SVG 1.1//EN" "http://www.w3.org/Graphics/SVG/1.1/DTD/svg11.dtd">
<svg version="1.1" id="Layer_1" xmlns="http://www.w3.org/2000/svg" xmlns:xlink="http://www.w3.org/1999/xlink" x="0px" y="0px"
	 width="50px" height="50px" viewBox="0 0 50 50" style="enable-background:new 0 0 50 50;" xml:space="preserve">
<g id="heath_x5F_bd_13_">
	<g id="Heath_x5F_FC_15_">
		<path style="fill:#A9CDA6;" d="M6.86084,40.870117c-0.025879,0-0.05127-0.013672-0.063965-0.037109l-0.198242-0.34082
			c-0.008789-0.015625-0.011719-0.033203-0.006836-0.050781c0.003906-0.020508,0.018066-0.037109,0.035156-0.047852
			l0.055664-0.035156l0.065918-0.005859l0.041992,0.039063l0.19043,0.334961l0.005859,0.06543l-0.039063,0.041992
			l-0.049805,0.025391C6.884766,40.867188,6.872559,40.870117,6.86084,40.870117z"/>
		<path style="fill:#A9CDA6;" d="M7.597168,40.726563c-0.038086,0-0.069824-0.023438-0.080078-0.060547l-0.207031-0.649414
			c-0.012695-0.040039,0.005371-0.082031,0.041992-0.101563l0.069336-0.03418l0.07373-0.003906l0.049316,0.058594l0.20459,0.664063
			l-0.009766,0.068359l-0.052246,0.037109c-0.022949,0.007813-0.043945,0.013672-0.05957,0.016602L7.597168,40.726563z"/>
		<path style="fill:#A9CDA6;" d="M8.387207,39.619141l0.104004,0.913086l-0.021973,0.068359L8.40918,40.635742
			c-0.043945,0.003906-0.083008,0.003906-0.094727,0.003906c-0.052246,0.003906-0.095215-0.03418-0.099121-0.085938
			l-0.085938-0.926758l0.024902-0.072266l0.078125-0.030273l0.072754,0.008789
			C8.348145,39.541992,8.383301,39.571289,8.387207,39.619141z"/>
		<path style="fill:#A9CDA6;" d="M9.027344,40.725586l-0.064941-0.017578L8.90625,40.663086l-0.005859-0.067383l0.207031-0.664063
			l0.024902-0.027344c0.007813-0.012695,0.016113-0.018555,0.024902-0.022461l0.041016-0.004883l0.033203,0.005859
			l0.063965,0.033203c0.036621,0.019531,0.054688,0.061523,0.041992,0.101563l-0.205078,0.649414
			c-0.013184,0.038086-0.043945,0.061523-0.081055,0.061523L9.027344,40.725586z"/>
		<path style="fill:#A9CDA6;" d="M9.787598,40.870117c-0.011719,0-0.023926-0.00293-0.033691-0.009766l-0.057129-0.030273
			L9.654785,40.77832l0.01709-0.057617l0.191895-0.333984l0.050781-0.038086l0.060059,0.012695l0.04834,0.032227
			c0.035645,0.020508,0.047852,0.064453,0.027832,0.098633l-0.198242,0.34082
			C9.838867,40.855469,9.814941,40.870117,9.787598,40.870117z"/>
	</g>
</g>
<g id="scrub_x5F_bd_11_">
	<g id="Scrub_x5F_FC_13_">
		<g id="Deleted_Symbol_1_13_">
			<path style="fill:#A9CDA6;" d="M9.454102,38.905273c-0.028809,0-0.053711-0.019531-0.0625-0.046875l-0.148926-0.484375
				c-0.010254-0.032227,0.006836-0.067383,0.039063-0.081055l0.07666-0.029297
				c0.012207-0.000977,0.023438-0.001953,0.032227-0.001953c0.036621,0.011719,0.04834,0.026367,0.054688,0.043945
				l0.146973,0.494141c0.009766,0.035156-0.009277,0.071289-0.042969,0.082031
				c-0.041016,0.012695-0.068359,0.018555-0.081055,0.021484L9.454102,38.905273z"/>
			<path style="fill:#A9CDA6;" d="M10.374023,38.782227c-0.039063,0-0.070801-0.032227-0.071777-0.072266l-0.006348-0.49707
				c0-0.039063-0.013672-0.057617-0.024902-0.069336c-0.013672-0.014648-0.035645-0.022461-0.060059-0.022461
				c-0.023926,0-0.063965,0.007813-0.11377,0.048828c-0.013184,0.009766-0.027832,0.014648-0.044922,0.014648
				C10.01416,38.179688,10,38.165039,9.993164,38.15332l-0.045898-0.068359c-0.021973-0.033203-0.01416-0.076172,0.019043-0.099609
				c0.085938-0.060547,0.174805-0.09375,0.255859-0.09375c0.085938,0,0.162109,0.038086,0.217773,0.109375
				c0.047852,0.063477,0.072754,0.134766,0.072754,0.211914l0.005859,0.461914l0.005859,0.037109
				c0,0.037109-0.032715,0.069336-0.071289,0.070313H10.374023z"/>
			<path style="fill:#A9CDA6;" d="M12.513184,38.848633c-0.026855-0.005859-0.053223-0.012695-0.076172-0.019531
				c-0.033691-0.010742-0.053711-0.045898-0.043945-0.080078l0.144043-0.496094
				c0.004883-0.017578,0.01709-0.03125,0.032715-0.040039l0.133789,0.023438c0.033203,0.012695,0.05127,0.048828,0.041016,0.082031
				l-0.154785,0.486328c-0.009277,0.02832-0.033691,0.045898-0.060547,0.045898L12.513184,38.848633z"/>
			<path style="fill:#A9CDA6;" d="M11.418457,38.740234c-0.046875,0-0.09375-0.017578-0.139648-0.050781
				c0.006836-0.013672-0.174316-0.900391-0.364258-1.183594c-0.024902-0.046875-0.037109-0.09668-0.030762-0.106445
				c0.045898,0.007813,0.09375,0.026367,0.168945,0.072266c0.015137,0.012695,0.185059,0.107422,0.291016,0.600586
				l0.036133,0.116211c0.016602-0.027344,0.044922-1.038086,0.400391-1.194336
				c0.032715-0.020508,0.084961-0.045898,0.111816-0.050781c-0.005859,0.006836-0.01416,0.032227-0.053711,0.09375
				c-0.01123,0.016602-0.214355,0.339844-0.225098,0.792969v0.117188c0.022949-0.013672,0.171875-0.28418,0.44873-0.342773
				c0.033203-0.012695,0.052246-0.015625,0.062988-0.016602c-0.008789,0.004883-0.022949,0.035156-0.09668,0.115234
				c-0.000977,0.000977-0.167969,0.170898-0.461914,0.776367l-0.024414,0.234375
				C11.518066,38.71582,11.475586,38.740234,11.418457,38.740234z"/>
		</g>
	</g>
</g>
<g id="scrub_x5F_bd_12_" style="enable-background:new    ;">
	<g id="Scrub_x5F_FC_14_">
		<g id="Deleted_Symbol_1_14_">
			<path style="fill:#A9CDA6;" d="M5.030273,38.141602c-0.028809,0-0.053711-0.019531-0.0625-0.046875l-0.148926-0.484375
				c-0.010254-0.032227,0.006836-0.067383,0.039063-0.081055L4.93457,37.5c0.012207-0.000977,0.023438-0.001953,0.032227-0.001953
				c0.036621,0.011719,0.04834,0.026367,0.054688,0.043945l0.146973,0.494141
				c0.009766,0.035156-0.009277,0.071289-0.042969,0.082031c-0.041016,0.012695-0.068359,0.018555-0.081055,0.021484
				L5.030273,38.141602z"/>
			<path style="fill:#A9CDA6;" d="M5.950195,38.018555c-0.039063,0-0.070801-0.032227-0.071777-0.072266l-0.006348-0.49707
				c0-0.039063-0.013672-0.057617-0.024902-0.069336c-0.013672-0.014648-0.035645-0.022461-0.060059-0.022461
				c-0.023926,0-0.063965,0.007813-0.11377,0.048828c-0.013184,0.009766-0.027832,0.014648-0.044922,0.014648
				c-0.038086-0.004883-0.052246-0.019531-0.059082-0.03125l-0.045898-0.068359
				c-0.021973-0.033203-0.01416-0.076172,0.019043-0.099609c0.085938-0.060547,0.174805-0.09375,0.255859-0.09375
				c0.085938,0,0.162109,0.038086,0.217773,0.109375c0.047852,0.063477,0.072754,0.134766,0.072754,0.211914l0.005859,0.461914
				l0.005859,0.037109c0,0.037109-0.032715,0.069336-0.071289,0.070313H5.950195z"/>
			<path style="fill:#A9CDA6;" d="M8.089355,38.084961C8.0625,38.079102,8.036133,38.072266,8.013184,38.06543
				c-0.033691-0.010742-0.053711-0.045898-0.043945-0.080078l0.144043-0.496094
				c0.004883-0.017578,0.01709-0.03125,0.032715-0.040039l0.133789,0.023438c0.033203,0.012695,0.05127,0.048828,0.041016,0.082031
				l-0.154785,0.486328c-0.009277,0.02832-0.033691,0.045898-0.060547,0.045898L8.089355,38.084961z"/>
			<path style="fill:#A9CDA6;" d="M6.994629,37.976563c-0.046875,0-0.09375-0.017578-0.139648-0.050781
				c0.006836-0.013672-0.174316-0.900391-0.364258-1.183594c-0.024902-0.046875-0.037109-0.09668-0.030762-0.106445
				c0.045898,0.007813,0.09375,0.026367,0.168945,0.072266c0.015137,0.012695,0.185059,0.107422,0.291016,0.600586
				l0.036133,0.116211c0.016602-0.027344,0.044922-1.038086,0.400391-1.194336
				c0.032715-0.020508,0.084961-0.045898,0.111816-0.050781c-0.005859,0.006836-0.01416,0.032227-0.053711,0.09375
				c-0.01123,0.016602-0.214355,0.339844-0.225098,0.792969v0.117188c0.022949-0.013672,0.171875-0.28418,0.44873-0.342773
				c0.033203-0.012695,0.052246-0.015625,0.062988-0.016602c-0.008789,0.004883-0.022949,0.035156-0.09668,0.115234
				c-0.000977,0.000977-0.167969,0.170898-0.461914,0.776367l-0.024414,0.234375
				C7.094238,37.952148,7.051758,37.976563,6.994629,37.976563z"/>
		</g>
	</g>
</g>
<g id="heath_x5F_bd_10_" style="enable-background:new    ;">
	<g id="Heath_x5F_FC_12_">
		<path style="fill:#A9CDA6;" d="M25.041504,35.594727c-0.025879,0-0.05127-0.013672-0.063965-0.037109l-0.198242-0.34082
			c-0.008789-0.015625-0.011719-0.033203-0.006836-0.050781c0.003906-0.020508,0.018066-0.037109,0.035156-0.047852
			l0.055664-0.035156l0.065918-0.005859l0.041992,0.039063l0.19043,0.334961l0.005859,0.06543l-0.039063,0.041992
			l-0.049805,0.025391C25.06543,35.591797,25.053223,35.594727,25.041504,35.594727z"/>
		<path style="fill:#A9CDA6;" d="M25.777344,35.451172c-0.038086,0-0.069336-0.023438-0.080078-0.060547l-0.206543-0.649414
			c-0.012695-0.040039,0.005371-0.082031,0.041504-0.101563l0.069336-0.03418l0.074219-0.003906l0.048828,0.058594
			l0.205078,0.664063l-0.009766,0.068359l-0.052734,0.037109c-0.022461,0.007813-0.043945,0.013672-0.05957,0.016602
			L25.777344,35.451172z"/>
		<path style="fill:#A9CDA6;" d="M26.568359,34.34375l0.103516,0.913086l-0.021484,0.068359l-0.060547,0.035156
			c-0.043945,0.003906-0.083008,0.003906-0.094727,0.003906c-0.052734,0.003906-0.095703-0.03418-0.099609-0.085938
			l-0.085938-0.926758l0.025391-0.072266l0.078125-0.030273l0.072266,0.008789
			C26.529297,34.266602,26.564453,34.295898,26.568359,34.34375z"/>
		<path style="fill:#A9CDA6;" d="M27.208008,35.450195l-0.064453-0.017578l-0.056641-0.044922l-0.005859-0.067383l0.207031-0.664063
			l0.025391-0.027344c0.007813-0.012695,0.015625-0.018555,0.024414-0.022461l0.041016-0.004883l0.033203,0.005859
			l0.064453,0.033203c0.036133,0.019531,0.054688,0.061523,0.041992,0.101563l-0.205078,0.649414
			c-0.013672,0.038086-0.043945,0.061523-0.081055,0.061523L27.208008,35.450195z"/>
		<path style="fill:#A9CDA6;" d="M27.967773,35.594727c-0.011719,0-0.023438-0.00293-0.033203-0.009766l-0.057617-0.030273
			l-0.041992-0.051758l0.017578-0.057617l0.191406-0.333984l0.050781-0.038086l0.060547,0.012695l0.047852,0.032227
			c0.036133,0.020508,0.047852,0.064453,0.02832,0.098633l-0.198242,0.34082
			C28.019531,35.580078,27.995117,35.594727,27.967773,35.594727z"/>
	</g>
</g>
<g id="scrub_x5F_bd_8_" style="enable-background:new    ;">
	<g id="Scrub_x5F_FC_10_">
		<g id="Deleted_Symbol_1_10_">
			<path style="fill:#A9CDA6;" d="M27.634766,33.629883c-0.029297,0-0.054688-0.019531-0.063477-0.046875l-0.148438-0.484375
				c-0.010742-0.032227,0.006836-0.067383,0.039063-0.081055l0.076172-0.029297
				c0.012695-0.000977,0.023438-0.001953,0.032227-0.001953c0.037109,0.011719,0.048828,0.026367,0.055664,0.043945
				l0.146484,0.494141c0.009766,0.035156-0.008789,0.071289-0.042969,0.082031
				c-0.041016,0.012695-0.068359,0.018555-0.081055,0.021484L27.634766,33.629883z"/>
			<path style="fill:#A9CDA6;" d="M28.553711,33.506836c-0.039063,0-0.070313-0.032227-0.071289-0.072266l-0.006836-0.49707
				c0-0.039063-0.013672-0.057617-0.024414-0.069336c-0.013672-0.014648-0.036133-0.022461-0.060547-0.022461
				c-0.023438,0-0.063477,0.007813-0.113281,0.048828c-0.013672,0.009766-0.02832,0.014648-0.044922,0.014648
				c-0.038086-0.004883-0.052734-0.019531-0.05957-0.03125l-0.045898-0.068359
				c-0.021484-0.033203-0.013672-0.076172,0.019531-0.099609c0.085938-0.060547,0.174805-0.09375,0.255859-0.09375
				c0.085938,0,0.162109,0.038086,0.217773,0.109375c0.047852,0.063477,0.073242,0.134766,0.073242,0.211914l0.005859,0.461914
				l0.005859,0.037109c0,0.037109-0.033203,0.069336-0.072266,0.070313H28.553711z"/>
			<path style="fill:#A9CDA6;" d="M30.693359,33.573242c-0.027344-0.005859-0.053711-0.012695-0.076172-0.019531
				c-0.03418-0.010742-0.053711-0.045898-0.043945-0.080078l0.143555-0.496094
				c0.004883-0.017578,0.017578-0.03125,0.033203-0.040039l0.133789,0.023438
				c0.033203,0.012695,0.051758,0.048828,0.041016,0.082031l-0.154297,0.486328
				c-0.009766,0.02832-0.03418,0.045898-0.061523,0.045898L30.693359,33.573242z"/>
			<path style="fill:#A9CDA6;" d="M29.598633,33.464844c-0.046875,0-0.09375-0.017578-0.139648-0.050781
				c0.006836-0.013672-0.174805-0.900391-0.364258-1.183594c-0.024414-0.046875-0.037109-0.09668-0.030273-0.106445
				c0.045898,0.007813,0.09375,0.026367,0.167969,0.072266c0.015625,0.012695,0.185547,0.107422,0.291016,0.600586
				l0.036133,0.116211c0.016602-0.027344,0.044922-1.038086,0.401367-1.194336
				c0.032227-0.020508,0.084961-0.045898,0.111328-0.050781c-0.005859,0.006836-0.013672,0.032227-0.053711,0.09375
				c-0.010742,0.016602-0.213867,0.339844-0.224609,0.792969v0.117188c0.022461-0.013672,0.171875-0.28418,0.448242-0.342773
				c0.033203-0.012695,0.051758-0.015625,0.0625-0.016602c-0.008789,0.004883-0.022461,0.035156-0.095703,0.115234
				c-0.000977,0.000977-0.167969,0.170898-0.461914,0.776367l-0.024414,0.234375
				C29.698242,33.44043,29.655273,33.464844,29.598633,33.464844z"/>
		</g>
	</g>
</g>
<g id="scrub_x5F_bd_9_" style="enable-background:new    ;">
	<g id="Scrub_x5F_FC_11_">
		<g id="Deleted_Symbol_1_11_">
			<path style="fill:#A9CDA6;" d="M23.210938,32.866211c-0.028809,0-0.053711-0.019531-0.0625-0.046875l-0.148926-0.484375
				c-0.010254-0.032227,0.006836-0.067383,0.039063-0.081055l0.07666-0.029297
				c0.012207-0.000977,0.023438-0.001953,0.032227-0.001953c0.036621,0.011719,0.04834,0.026367,0.054688,0.043945
				l0.146973,0.494141c0.009766,0.035156-0.009277,0.071289-0.042969,0.082031
				c-0.041016,0.012695-0.068359,0.018555-0.081055,0.021484L23.210938,32.866211z"/>
			<path style="fill:#A9CDA6;" d="M24.130859,32.743164c-0.039063,0-0.070801-0.032227-0.071777-0.072266l-0.006348-0.49707
				c0-0.039063-0.013672-0.057617-0.024902-0.069336c-0.013672-0.014648-0.035645-0.022461-0.060059-0.022461
				c-0.023926,0-0.063965,0.007813-0.11377,0.048828c-0.013184,0.009766-0.027832,0.014648-0.044922,0.014648
				c-0.038086-0.004883-0.052246-0.019531-0.059082-0.03125l-0.045898-0.068359
				c-0.021973-0.033203-0.01416-0.076172,0.019043-0.099609c0.085938-0.060547,0.174805-0.09375,0.255859-0.09375
				c0.085938,0,0.162109,0.038086,0.217773,0.109375c0.047852,0.063477,0.072754,0.134766,0.072754,0.211914l0.005859,0.461914
				l0.005859,0.037109c0,0.037109-0.032715,0.069336-0.071289,0.070313H24.130859z"/>
			<path style="fill:#A9CDA6;" d="M26.269531,32.80957c-0.026367-0.005859-0.052734-0.012695-0.076172-0.019531
				c-0.033203-0.010742-0.053711-0.045898-0.043945-0.080078l0.144531-0.496094
				c0.004883-0.017578,0.016602-0.03125,0.033203-0.040039l0.133789,0.023438
				c0.033203,0.012695,0.050781,0.048828,0.041016,0.082031l-0.155273,0.486328
				c-0.008789,0.02832-0.03418,0.045898-0.060547,0.045898L26.269531,32.80957z"/>
			<path style="fill:#A9CDA6;" d="M25.175293,32.701172c-0.046875,0-0.09375-0.017578-0.139648-0.050781
				c0.006836-0.013672-0.174316-0.900391-0.364258-1.183594c-0.024902-0.046875-0.037109-0.09668-0.030762-0.106445
				c0.045898,0.007813,0.09375,0.026367,0.168945,0.072266c0.015137,0.012695,0.185059,0.107422,0.291016,0.600586
				l0.036133,0.116211c0.016602-0.027344,0.044922-1.038086,0.400391-1.194336
				c0.033203-0.020508,0.084961-0.045898,0.112305-0.050781c-0.005859,0.006836-0.014648,0.032227-0.053711,0.09375
				c-0.011719,0.016602-0.214844,0.339844-0.225586,0.792969v0.117188c0.022949-0.013672,0.171875-0.28418,0.448242-0.342773
				c0.033203-0.012695,0.052734-0.015625,0.063477-0.016602c-0.008789,0.004883-0.023438,0.035156-0.09668,0.115234
				c-0.000977,0.000977-0.167969,0.170898-0.461914,0.776367l-0.024414,0.234375
				C25.274902,32.676758,25.232422,32.701172,25.175293,32.701172z"/>
		</g>
	</g>
</g>
<g id="heath_x5F_bd_14_" style="enable-background:new    ;">
	<g id="Heath_x5F_FC_16_">
		<path style="fill:#A9CDA6;" d="M4.652832,26.913086c-0.025879,0-0.05127-0.013672-0.063965-0.037109l-0.198242-0.34082
			c-0.008789-0.015625-0.011719-0.033203-0.006836-0.050781c0.003906-0.020508,0.018066-0.037109,0.035156-0.047852
			l0.055664-0.035156l0.065918-0.005859L4.58252,26.43457l0.19043,0.334961l0.005859,0.06543l-0.039063,0.041992l-0.049805,0.025391
			C4.676758,26.910156,4.664551,26.913086,4.652832,26.913086z"/>
		<path style="fill:#A9CDA6;" d="M5.38916,26.769531c-0.038086,0-0.069824-0.023438-0.080078-0.060547L5.102051,26.05957
			c-0.012695-0.040039,0.005371-0.082031,0.041992-0.101563l0.069336-0.03418l0.07373-0.003906l0.049316,0.058594l0.20459,0.664063
			L5.53125,26.710938l-0.052246,0.037109c-0.022949,0.007813-0.043945,0.013672-0.05957,0.016602L5.38916,26.769531z"/>
		<path style="fill:#A9CDA6;" d="M6.179199,25.662109l0.104004,0.913086L6.26123,26.643555l-0.060059,0.035156
			c-0.043945,0.003906-0.083008,0.003906-0.094727,0.003906c-0.052246,0.003906-0.095215-0.03418-0.099121-0.085938
			l-0.085938-0.926758l0.024902-0.072266l0.078125-0.030273l0.072754,0.008789
			C6.140137,25.584961,6.175293,25.614258,6.179199,25.662109z"/>
		<path style="fill:#A9CDA6;" d="M6.819336,26.768555l-0.064941-0.017578l-0.056152-0.044922l-0.005859-0.067383l0.207031-0.664063
			l0.024902-0.027344c0.007813-0.012695,0.016113-0.018555,0.024902-0.022461l0.041016-0.004883l0.033203,0.005859
			l0.063965,0.033203c0.036621,0.019531,0.054688,0.061523,0.041992,0.101563l-0.205078,0.649414
			c-0.013184,0.038086-0.043945,0.061523-0.081055,0.061523L6.819336,26.768555z"/>
		<path style="fill:#A9CDA6;" d="M7.57959,26.913086c-0.011719,0-0.023926-0.00293-0.033691-0.009766L7.48877,26.873047
			l-0.041992-0.051758l0.01709-0.057617l0.191895-0.333984l0.050781-0.038086l0.060059,0.012695l0.04834,0.032227
			c0.035645,0.020508,0.047852,0.064453,0.027832,0.098633l-0.198242,0.34082
			C7.630859,26.898438,7.606934,26.913086,7.57959,26.913086z"/>
	</g>
</g>
<g id="scrub_x5F_bd_13_" style="enable-background:new    ;">
	<g id="Scrub_x5F_FC_15_">
		<g id="Deleted_Symbol_1_15_">
			<path style="fill:#A9CDA6;" d="M7.246094,24.947754c-0.028809,0-0.053711-0.019531-0.0625-0.046875l-0.148926-0.483887
				c-0.010254-0.032227,0.006836-0.067383,0.039063-0.081055l0.07666-0.029297
				c0.012207-0.000977,0.023438-0.001953,0.032227-0.001953c0.036621,0.011719,0.04834,0.026367,0.054688,0.043945
				l0.146973,0.493652c0.009766,0.035156-0.009277,0.071289-0.042969,0.082031
				c-0.041016,0.012695-0.068359,0.018555-0.081055,0.021484L7.246094,24.947754z"/>
			<path style="fill:#A9CDA6;" d="M8.166016,24.824707c-0.039063,0-0.070801-0.032227-0.071777-0.072266l-0.006348-0.496582
				c0-0.039063-0.013672-0.057617-0.024902-0.069336c-0.013672-0.014648-0.035645-0.022461-0.060059-0.022461
				c-0.023926,0-0.063965,0.007813-0.11377,0.048828c-0.013184,0.009766-0.027832,0.014648-0.044922,0.014648
				c-0.038086-0.004883-0.052246-0.019531-0.059082-0.03125L7.739258,24.12793
				c-0.021973-0.033203-0.01416-0.076172,0.019043-0.099609c0.085938-0.060547,0.174805-0.09375,0.255859-0.09375
				c0.085938,0,0.162109,0.038086,0.217773,0.109375c0.047852,0.063477,0.072754,0.134766,0.072754,0.211914l0.005859,0.461426
				l0.005859,0.037109c0,0.037109-0.032715,0.069336-0.071289,0.070313H8.166016z"/>
			<path style="fill:#A9CDA6;" d="M10.305176,24.891113c-0.026855-0.005859-0.053223-0.012695-0.076172-0.019531
				c-0.033691-0.010742-0.053711-0.045898-0.043945-0.080078l0.144043-0.495605
				c0.004883-0.017578,0.01709-0.03125,0.032715-0.040039l0.133789,0.023438c0.033203,0.012695,0.05127,0.048828,0.041016,0.082031
				l-0.154785,0.48584c-0.009277,0.02832-0.033691,0.045898-0.060547,0.045898L10.305176,24.891113z"/>
			<path style="fill:#A9CDA6;" d="M9.210449,24.782715c-0.046875,0-0.09375-0.017578-0.139648-0.050781
				c0.006836-0.013672-0.174316-0.899902-0.364258-1.183105c-0.024902-0.046875-0.037109-0.09668-0.030762-0.105957
				c0.045898,0.007324,0.09375,0.025879,0.168945,0.071777c0.015137,0.012695,0.185059,0.107422,0.291016,0.600586
				l0.036133,0.116211c0.016602-0.027344,0.044922-1.037598,0.400391-1.193848
				c0.032715-0.020508,0.084961-0.045898,0.111816-0.050781c-0.005859,0.006836-0.01416,0.032227-0.053711,0.09375
				c-0.01123,0.016602-0.214355,0.339844-0.225098,0.79248v0.117188c0.022949-0.013672,0.171875-0.28418,0.44873-0.342773
				c0.033203-0.012695,0.052246-0.015625,0.062988-0.016602c-0.008789,0.004883-0.022949,0.035156-0.09668,0.115234
				c-0.000977,0.000977-0.167969,0.170898-0.461914,0.775879l-0.024414,0.234375
				C9.310059,24.758301,9.267578,24.782715,9.210449,24.782715z"/>
		</g>
	</g>
</g>
<g id="heath_x5F_bd_15_" style="enable-background:new    ;">
	<g id="Heath_x5F_FC_17_">
		<path style="fill:#A9CDA6;" d="M2.897949,23.87793c-0.025879,0-0.05127-0.013672-0.063965-0.037109L2.635742,23.5
			c-0.008789-0.015625-0.011719-0.033203-0.006836-0.050781c0.003906-0.020508,0.018066-0.037109,0.035156-0.047852
			l0.055664-0.035156l0.065918-0.005859l0.041992,0.039063l0.19043,0.334961l0.005859,0.06543l-0.039063,0.041992
			l-0.049805,0.025391C2.921875,23.875,2.909668,23.87793,2.897949,23.87793z"/>
		<path style="fill:#A9CDA6;" d="M3.634277,23.734375c-0.038086,0-0.069824-0.023438-0.080078-0.060547l-0.207031-0.649414
			c-0.012695-0.040039,0.005371-0.082031,0.041992-0.101563l0.069336-0.03418l0.07373-0.003906l0.049316,0.058594l0.20459,0.664063
			l-0.009766,0.068359l-0.052246,0.037109c-0.022949,0.007813-0.043945,0.013672-0.05957,0.016602L3.634277,23.734375z"/>
		<path style="fill:#A9CDA6;" d="M4.424316,22.626953l0.104004,0.913086l-0.021973,0.068359l-0.060059,0.035156
			c-0.043945,0.003906-0.083008,0.003906-0.094727,0.003906c-0.052246,0.003906-0.095215-0.03418-0.099121-0.085938
			l-0.085938-0.926758L4.191406,22.5625l0.078125-0.030273l0.072754,0.008789
			C4.385254,22.549805,4.42041,22.579102,4.424316,22.626953z"/>
		<path style="fill:#A9CDA6;" d="M5.064453,23.733398L4.999512,23.71582l-0.056152-0.044922L4.9375,23.603516l0.207031-0.664063
			l0.024902-0.027344c0.007813-0.012695,0.016113-0.018555,0.024902-0.022461l0.041016-0.004883l0.033203,0.005859
			l0.063965,0.033203c0.036621,0.019531,0.054688,0.061523,0.041992,0.101563l-0.205078,0.649414
			c-0.013184,0.038086-0.043945,0.061523-0.081055,0.061523L5.064453,23.733398z"/>
		<path style="fill:#A9CDA6;" d="M5.824707,23.87793c-0.011719,0-0.023926-0.00293-0.033691-0.009766l-0.057129-0.030273
			l-0.041992-0.051758l0.01709-0.057617l0.191895-0.333984l0.050781-0.038086l0.060059,0.012695l0.04834,0.032227
			C6.095703,23.421875,6.10791,23.46582,6.087891,23.5l-0.198242,0.34082C5.875977,23.863281,5.852051,23.87793,5.824707,23.87793z"
			/>
	</g>
</g>
<g id="heath_x5F_bd_16_" style="enable-background:new    ;">
	<g id="Heath_x5F_FC_18_">
		<path style="fill:#A9CDA6;" d="M9.04541,16.50293c-0.025879,0-0.05127-0.013672-0.063965-0.037109L8.783203,16.125
			c-0.008789-0.015625-0.011719-0.033203-0.006836-0.050781c0.003906-0.020508,0.018066-0.037109,0.035156-0.047852
			l0.055664-0.035156l0.065918-0.005859l0.041992,0.039063l0.19043,0.334961l0.005859,0.06543l-0.039063,0.041992L9.08252,16.492188
			C9.069336,16.5,9.057129,16.50293,9.04541,16.50293z"/>
		<path style="fill:#A9CDA6;" d="M9.781738,16.359375c-0.038086,0-0.069824-0.023438-0.080078-0.060547l-0.207031-0.649414
			C9.481934,15.609375,9.5,15.567383,9.536621,15.547852l0.069336-0.03418l0.07373-0.003906l0.049316,0.058594l0.20459,0.664063
			l-0.009766,0.068359l-0.052246,0.037109c-0.022949,0.007813-0.043945,0.013672-0.05957,0.016602L9.781738,16.359375z"/>
		<path style="fill:#A9CDA6;" d="M10.571777,15.251953l0.104004,0.913086l-0.021973,0.068359l-0.060059,0.035156
			c-0.043945,0.003906-0.083008,0.003906-0.094727,0.003906c-0.052246,0.003906-0.095215-0.03418-0.099121-0.085938
			l-0.085938-0.926758l0.024902-0.072266l0.078125-0.030273l0.072754,0.008789
			C10.532715,15.174805,10.567871,15.204102,10.571777,15.251953z"/>
		<path style="fill:#A9CDA6;" d="M11.211914,16.358398l-0.064941-0.017578l-0.056152-0.044922l-0.005859-0.067383l0.207031-0.664063
			l0.024902-0.027344c0.007813-0.012695,0.016113-0.018555,0.024902-0.022461l0.041016-0.004883l0.033203,0.005859
			l0.063965,0.033203c0.036621,0.019531,0.054688,0.061523,0.041992,0.101563l-0.205078,0.649414
			c-0.013184,0.038086-0.043945,0.061523-0.081055,0.061523L11.211914,16.358398z"/>
		<path style="fill:#A9CDA6;" d="M11.972168,16.50293c-0.011719,0-0.023926-0.00293-0.033691-0.009766l-0.057129-0.030273
			l-0.041992-0.051758l0.01709-0.057617l0.191895-0.333984l0.050781-0.038086l0.060059,0.012695l0.04834,0.032227
			c0.035645,0.020508,0.047852,0.064453,0.027832,0.098633l-0.198242,0.34082
			C12.023438,16.488281,11.999512,16.50293,11.972168,16.50293z"/>
	</g>
</g>
<g id="scrub_x5F_bd_14_" style="enable-background:new    ;">
	<g id="Scrub_x5F_FC_16_">
		<g id="Deleted_Symbol_1_16_">
			<path style="fill:#A9CDA6;" d="M11.638672,14.537598c-0.028809,0-0.053711-0.019531-0.0625-0.046875l-0.148926-0.483887
				c-0.010254-0.032227,0.006836-0.067383,0.039063-0.081055l0.07666-0.029297
				c0.012207-0.000977,0.023438-0.001953,0.032227-0.001953c0.036621,0.011719,0.04834,0.026367,0.054688,0.043945
				l0.146973,0.493652c0.009766,0.035156-0.009277,0.071289-0.042969,0.082031
				c-0.041016,0.012695-0.068359,0.018555-0.081055,0.021484L11.638672,14.537598z"/>
			<path style="fill:#A9CDA6;" d="M12.558594,14.414551c-0.039063,0-0.070801-0.032227-0.071777-0.072266l-0.006348-0.496582
				c0-0.039063-0.013672-0.057617-0.024902-0.069336c-0.013672-0.014648-0.035645-0.022461-0.060059-0.022461
				c-0.023926,0-0.063965,0.007813-0.11377,0.048828c-0.013184,0.009766-0.027832,0.014648-0.044922,0.014648
				c-0.038086-0.004883-0.052246-0.019531-0.059082-0.03125l-0.045898-0.068359
				c-0.021973-0.033203-0.01416-0.076172,0.019043-0.099609c0.085938-0.060547,0.174805-0.09375,0.255859-0.09375
				c0.085938,0,0.162109,0.038086,0.217773,0.109375c0.047852,0.063477,0.072754,0.134766,0.072754,0.211914l0.005859,0.461426
				l0.005859,0.037109c0,0.037109-0.032715,0.069336-0.071289,0.070313H12.558594z"/>
			<path style="fill:#A9CDA6;" d="M14.697754,14.480957c-0.026855-0.005859-0.053223-0.012695-0.076172-0.019531
				c-0.033691-0.010742-0.053711-0.045898-0.043945-0.080078l0.144043-0.495605
				c0.004883-0.017578,0.01709-0.03125,0.032715-0.040039l0.133789,0.023438c0.033203,0.012695,0.05127,0.048828,0.041016,0.082031
				l-0.154785,0.48584c-0.009277,0.02832-0.033691,0.045898-0.060547,0.045898L14.697754,14.480957z"/>
			<path style="fill:#A9CDA6;" d="M13.603027,14.372559c-0.046875,0-0.09375-0.017578-0.139648-0.050781
				c0.006836-0.013672-0.174316-0.899902-0.364258-1.183105c-0.024902-0.046875-0.037109-0.09668-0.030762-0.105957
				c0.045898,0.007324,0.09375,0.025879,0.168945,0.071777c0.015137,0.012695,0.185059,0.107422,0.291016,0.600586
				l0.036133,0.116211c0.016602-0.027344,0.044922-1.037598,0.400391-1.193848
				c0.032715-0.020508,0.084961-0.045898,0.111816-0.050781c-0.005859,0.006836-0.01416,0.032227-0.053711,0.09375
				c-0.01123,0.016602-0.214355,0.339844-0.225098,0.79248v0.117188c0.022949-0.013672,0.171875-0.28418,0.44873-0.342773
				c0.033203-0.012695,0.052246-0.015625,0.062988-0.016602c-0.008789,0.004883-0.022949,0.035156-0.09668,0.115234
				c-0.000977,0.000977-0.167969,0.170898-0.461914,0.775879l-0.024414,0.234375
				C13.702637,14.348145,13.660156,14.372559,13.603027,14.372559z"/>
		</g>
	</g>
</g>
<g id="scrub_x5F_bd_15_" style="enable-background:new    ;">
	<g id="Scrub_x5F_FC_17_">
		<g id="Deleted_Symbol_1_17_">
			<path style="fill:#A9CDA6;" d="M7.214844,13.773926c-0.028809,0-0.053711-0.019531-0.0625-0.046875l-0.148926-0.483887
				c-0.010254-0.032227,0.006836-0.067383,0.039063-0.081055l0.07666-0.029297
				c0.012207-0.000977,0.023438-0.001953,0.032227-0.001953c0.036621,0.011719,0.04834,0.026367,0.054688,0.043945
				l0.146973,0.493652c0.009766,0.035156-0.009277,0.071289-0.042969,0.082031
				c-0.041016,0.012695-0.068359,0.018555-0.081055,0.021484L7.214844,13.773926z"/>
			<path style="fill:#A9CDA6;" d="M8.134766,13.650879c-0.039063,0-0.070801-0.032227-0.071777-0.072266l-0.006348-0.496582
				c0-0.039063-0.013672-0.057617-0.024902-0.069336c-0.013672-0.014648-0.035645-0.022461-0.060059-0.022461
				c-0.023926,0-0.063965,0.007813-0.11377,0.048828c-0.013184,0.009766-0.027832,0.014648-0.044922,0.014648
				c-0.038086-0.004883-0.052246-0.019531-0.059082-0.03125l-0.045898-0.068359
				c-0.021973-0.033203-0.01416-0.076172,0.019043-0.099609c0.085938-0.060547,0.174805-0.09375,0.255859-0.09375
				c0.085938,0,0.162109,0.038086,0.217773,0.109375c0.047852,0.063477,0.072754,0.134766,0.072754,0.211914l0.005859,0.461426
				l0.005859,0.037109c0,0.037109-0.032715,0.069336-0.071289,0.070313H8.134766z"/>
			<path style="fill:#A9CDA6;" d="M10.273926,13.717285c-0.026855-0.005859-0.053223-0.012695-0.076172-0.019531
				c-0.033691-0.010742-0.053711-0.045898-0.043945-0.080078l0.144043-0.495605
				c0.004883-0.017578,0.01709-0.03125,0.032715-0.040039l0.133789,0.023438c0.033203,0.012695,0.05127,0.048828,0.041016,0.082031
				l-0.154785,0.48584c-0.009277,0.02832-0.033691,0.045898-0.060547,0.045898L10.273926,13.717285z"/>
			<path style="fill:#A9CDA6;" d="M9.179199,13.608887c-0.046875,0-0.09375-0.017578-0.139648-0.050781
				c0.006836-0.013672-0.174316-0.899902-0.364258-1.183105c-0.024902-0.046875-0.037109-0.09668-0.030762-0.105957
				c0.045898,0.007324,0.09375,0.025879,0.168945,0.071777c0.015137,0.012695,0.185059,0.107422,0.291016,0.600586
				l0.036133,0.116211c0.016602-0.027344,0.044922-1.037598,0.400391-1.193848
				c0.032715-0.020508,0.084961-0.045898,0.111816-0.050781c-0.005859,0.006836-0.01416,0.032227-0.053711,0.09375
				c-0.01123,0.016602-0.214355,0.339844-0.225098,0.79248v0.117188c0.022949-0.013672,0.171875-0.28418,0.44873-0.342773
				c0.033203-0.012695,0.052246-0.015625,0.062988-0.016602c-0.008789,0.004883-0.022949,0.035156-0.09668,0.115234
				c-0.000977,0.000977-0.167969,0.170898-0.461914,0.775879L9.302734,13.58252
				C9.278809,13.584473,9.236328,13.608887,9.179199,13.608887z"/>
		</g>
	</g>
</g>
<g id="heath_x5F_bd_5_" style="enable-background:new    ;">
	<g id="Heath_x5F_FC_7_">
		<path style="fill:#A9CDA6;" d="M24.32959,6.719727c-0.025879,0-0.05127-0.013672-0.063965-0.037109l-0.198242-0.34082
			c-0.008789-0.015625-0.011719-0.033203-0.006836-0.050781c0.003906-0.020508,0.018066-0.037109,0.035156-0.047852
			l0.055664-0.035156l0.065918-0.005859l0.041992,0.039063l0.19043,0.334961l0.005859,0.06543l-0.039063,0.041992
			l-0.049805,0.025391C24.353516,6.716797,24.341309,6.719727,24.32959,6.719727z"/>
		<path style="fill:#A9CDA6;" d="M25.065918,6.576172c-0.038086,0-0.069824-0.023438-0.080078-0.060547l-0.207031-0.649414
			c-0.012695-0.040039,0.005371-0.082031,0.041992-0.101563l0.069336-0.03418l0.07373-0.003906l0.049316,0.058594l0.20459,0.664063
			l-0.009766,0.068359l-0.052246,0.037109c-0.022949,0.007813-0.043945,0.013672-0.05957,0.016602L25.065918,6.576172z"/>
		<path style="fill:#A9CDA6;" d="M25.856445,5.46875l0.103516,0.913086l-0.021484,0.068359L25.87793,6.485352
			c-0.043945,0.003906-0.083008,0.003906-0.094727,0.003906c-0.052734,0.003906-0.095703-0.03418-0.099609-0.085938
			l-0.085938-0.926758l0.025391-0.072266l0.078125-0.030273l0.072266,0.008789
			C25.817383,5.391602,25.852539,5.420898,25.856445,5.46875z"/>
		<path style="fill:#A9CDA6;" d="M26.496094,6.575195l-0.064453-0.017578L26.375,6.512695l-0.005859-0.067383l0.207031-0.664063
			l0.025391-0.027344c0.007813-0.012695,0.015625-0.018555,0.024414-0.022461l0.041016-0.004883l0.033203,0.005859
			l0.064453,0.033203c0.036133,0.019531,0.054688,0.061523,0.041992,0.101563l-0.205078,0.649414
			c-0.013672,0.038086-0.043945,0.061523-0.081055,0.061523L26.496094,6.575195z"/>
		<path style="fill:#A9CDA6;" d="M27.255859,6.719727c-0.011719,0-0.023438-0.00293-0.033203-0.009766l-0.057617-0.030273
			L27.123047,6.62793l0.017578-0.057617l0.191406-0.333984l0.050781-0.038086l0.060547,0.012695l0.047852,0.032227
			c0.036133,0.020508,0.047852,0.064453,0.02832,0.098633l-0.198242,0.34082
			C27.307617,6.705078,27.283203,6.719727,27.255859,6.719727z"/>
	</g>
</g>
<g id="scrub_x5F_bd_4_" style="enable-background:new    ;">
	<g id="Scrub_x5F_FC_6_">
		<g id="Deleted_Symbol_1_6_">
			<path style="fill:#A9CDA6;" d="M26.923828,4.754395c-0.029297,0-0.054688-0.019531-0.063477-0.046875l-0.148438-0.483887
				c-0.010742-0.032227,0.006836-0.067383,0.039063-0.081055l0.076172-0.029297
				c0.012695-0.000977,0.023438-0.001953,0.032227-0.001953c0.037109,0.011719,0.048828,0.026367,0.055664,0.043945
				l0.146484,0.493652c0.009766,0.035156-0.008789,0.071289-0.042969,0.082031
				c-0.041016,0.012695-0.068359,0.018555-0.081055,0.021484L26.923828,4.754395z"/>
			<path style="fill:#A9CDA6;" d="M27.842773,4.631348c-0.039063,0-0.070313-0.032227-0.071289-0.072266L27.764648,4.0625
				c0-0.039063-0.013672-0.057617-0.024414-0.069336c-0.013672-0.014648-0.036133-0.022461-0.060547-0.022461
				c-0.023438,0-0.063477,0.007813-0.113281,0.048828c-0.013672,0.009766-0.02832,0.014648-0.044922,0.014648
				c-0.038086-0.004883-0.052734-0.019531-0.05957-0.03125L27.416016,3.93457
				c-0.021484-0.033203-0.013672-0.076172,0.019531-0.099609c0.085938-0.060547,0.174805-0.09375,0.255859-0.09375
				c0.085938,0,0.162109,0.038086,0.217773,0.109375c0.047852,0.063477,0.073242,0.134766,0.073242,0.211914l0.005859,0.461426
				l0.005859,0.037109c0,0.037109-0.033203,0.069336-0.072266,0.070313H27.842773z"/>
			<path style="fill:#A9CDA6;" d="M29.982422,4.697754c-0.027344-0.005859-0.053711-0.012695-0.076172-0.019531
				c-0.03418-0.010742-0.053711-0.045898-0.043945-0.080078l0.143555-0.495605
				c0.004883-0.017578,0.017578-0.03125,0.033203-0.040039l0.133789,0.023438
				c0.033203,0.012695,0.051758,0.048828,0.041016,0.082031l-0.154297,0.48584
				c-0.009766,0.02832-0.03418,0.045898-0.061523,0.045898L29.982422,4.697754z"/>
			<path style="fill:#A9CDA6;" d="M28.887695,4.589355c-0.046875,0-0.09375-0.017578-0.139648-0.050781
				c0.006836-0.013672-0.174805-0.899902-0.364258-1.183105c-0.024414-0.046875-0.037109-0.09668-0.030273-0.105957
				c0.045898,0.007324,0.09375,0.025879,0.167969,0.071777c0.015625,0.012695,0.185547,0.107422,0.291016,0.600586
				l0.036133,0.116211C28.865234,4.010742,28.893555,3.000488,29.25,2.844238
				c0.032227-0.020508,0.084961-0.045898,0.111328-0.050781c-0.005859,0.006836-0.013672,0.032227-0.053711,0.09375
				c-0.010742,0.016602-0.213867,0.339844-0.224609,0.79248v0.117188c0.022461-0.013672,0.171875-0.28418,0.448242-0.342773
				c0.033203-0.012695,0.051758-0.015625,0.0625-0.016602c-0.008789,0.004883-0.022461,0.035156-0.095703,0.115234
				c-0.000977,0.000977-0.167969,0.170898-0.461914,0.775879l-0.024414,0.234375
				C28.987305,4.564941,28.944336,4.589355,28.887695,4.589355z"/>
		</g>
	</g>
</g>
<g id="scrub_x5F_bd_5_" style="enable-background:new    ;">
	<g id="Scrub_x5F_FC_7_">
		<g id="Deleted_Symbol_1_7_">
			<path style="fill:#A9CDA6;" d="M22.498535,3.990723c-0.028809,0-0.053711-0.019531-0.0625-0.046875l-0.148926-0.483887
				c-0.010254-0.032227,0.006836-0.067383,0.039063-0.081055l0.07666-0.029297
				c0.012207-0.000977,0.023438-0.001953,0.032227-0.001953c0.036621,0.011719,0.04834,0.026367,0.054688,0.043945
				l0.146973,0.493652c0.009766,0.035156-0.009277,0.071289-0.042969,0.082031
				C22.552734,3.97998,22.525391,3.98584,22.512695,3.98877L22.498535,3.990723z"/>
			<path style="fill:#A9CDA6;" d="M23.418457,3.867676c-0.039063,0-0.070801-0.032227-0.071777-0.072266l-0.006348-0.496582
				c0-0.039063-0.013672-0.057617-0.024902-0.069336c-0.013672-0.014648-0.035645-0.022461-0.060059-0.022461
				c-0.023926,0-0.063965,0.007813-0.11377,0.048828c-0.013184,0.009766-0.027832,0.014648-0.044922,0.014648
				c-0.038086-0.004883-0.052246-0.019531-0.059082-0.03125l-0.045898-0.068359
				c-0.021973-0.033203-0.01416-0.076172,0.019043-0.099609c0.085938-0.060547,0.174805-0.09375,0.255859-0.09375
				c0.085938,0,0.162109,0.038086,0.217773,0.109375c0.047852,0.063477,0.072754,0.134766,0.072754,0.211914l0.005859,0.461426
				l0.005859,0.037109c0,0.037109-0.032715,0.069336-0.071289,0.070313H23.418457z"/>
			<path style="fill:#A9CDA6;" d="M25.557617,3.934082c-0.027344-0.005859-0.053711-0.012695-0.076172-0.019531
				c-0.033691-0.010742-0.053711-0.045898-0.043945-0.080078l0.143555-0.495605
				c0.004883-0.017578,0.017578-0.03125,0.033203-0.040039l0.133789,0.023438
				c0.033203,0.012695,0.051758,0.048828,0.041016,0.082031l-0.154297,0.48584
				c-0.009766,0.02832-0.03418,0.045898-0.061523,0.045898L25.557617,3.934082z"/>
			<path style="fill:#A9CDA6;" d="M24.462891,3.825684c-0.046875,0-0.09375-0.017578-0.139648-0.050781
				C24.330078,3.76123,24.148926,2.875,23.958984,2.591797c-0.024902-0.046875-0.037109-0.09668-0.030762-0.105957
				c0.045898,0.007324,0.09375,0.025879,0.168945,0.071777c0.015137,0.012695,0.185059,0.107422,0.291016,0.600586
				l0.036133,0.116211c0.016602-0.027344,0.044922-1.037598,0.400391-1.193848
				c0.032715-0.020508,0.084961-0.045898,0.111816-0.050781c-0.005859,0.006836-0.01416,0.032227-0.053711,0.09375
				c-0.01123,0.016602-0.214355,0.339844-0.225098,0.79248v0.117188c0.022949-0.013672,0.171875-0.28418,0.44873-0.342773
				c0.033203-0.012695,0.052246-0.015625,0.062988-0.016602c-0.008789,0.004883-0.022949,0.035156-0.09668,0.115234
				c-0.000977,0.000977-0.167969,0.170898-0.461914,0.775879l-0.024414,0.234375
				C24.5625,3.80127,24.52002,3.825684,24.462891,3.825684z"/>
		</g>
	</g>
</g>
<g id="heath_x5F_bd_3_" style="enable-background:new    ;">
	<g id="Heath_x5F_FC_5_">
		<path style="fill:#A9CDA6;" d="M35.512695,14.766602c-0.026367,0-0.051758-0.013672-0.064453-0.037109L35.25,14.388672
			c-0.008789-0.015625-0.011719-0.033203-0.006836-0.050781c0.003906-0.020508,0.018555-0.037109,0.035156-0.047852
			l0.055664-0.035156l0.066406-0.005859l0.041992,0.039063l0.19043,0.334961l0.005859,0.06543l-0.039063,0.041992
			l-0.049805,0.025391C35.536133,14.763672,35.524414,14.766602,35.512695,14.766602z"/>
		<path style="fill:#A9CDA6;" d="M36.248047,14.623047c-0.038086,0-0.069336-0.023438-0.080078-0.060547l-0.207031-0.649414
			c-0.012695-0.040039,0.005859-0.082031,0.041992-0.101563l0.069336-0.03418l0.074219-0.003906l0.048828,0.058594
			l0.205078,0.664063l-0.009766,0.068359l-0.052734,0.037109c-0.022461,0.007813-0.043945,0.013672-0.05957,0.016602
			L36.248047,14.623047z"/>
		<path style="fill:#A9CDA6;" d="M37.039063,13.515625l0.103516,0.913086l-0.021484,0.068359l-0.060547,0.035156
			c-0.043945,0.003906-0.083008,0.003906-0.094727,0.003906c-0.052734,0.003906-0.095703-0.03418-0.099609-0.085938
			l-0.085938-0.926758l0.025391-0.072266l0.078125-0.030273l0.072266,0.008789
			C37,13.438477,37.035156,13.467773,37.039063,13.515625z"/>
		<path style="fill:#A9CDA6;" d="M37.678711,14.62207l-0.064453-0.017578l-0.056641-0.044922l-0.005859-0.067383l0.207031-0.664063
			l0.025391-0.027344c0.007813-0.012695,0.015625-0.018555,0.024414-0.022461l0.041016-0.004883l0.033203,0.005859
			l0.064453,0.033203c0.036133,0.019531,0.054688,0.061523,0.041992,0.101563l-0.205078,0.649414
			C37.770508,14.601563,37.740234,14.625,37.703125,14.625L37.678711,14.62207z"/>
		<path style="fill:#A9CDA6;" d="M38.438477,14.766602c-0.011719,0-0.023438-0.00293-0.033203-0.009766l-0.057617-0.030273
			l-0.041992-0.051758l0.017578-0.057617l0.191406-0.333984l0.050781-0.038086l0.060547,0.012695l0.047852,0.032227
			c0.036133,0.020508,0.047852,0.064453,0.02832,0.098633l-0.198242,0.34082
			C38.490234,14.751953,38.46582,14.766602,38.438477,14.766602z"/>
	</g>
</g>
<g id="scrub_x5F_bd_1_" style="enable-background:new    ;">
	<g id="Scrub_x5F_FC_3_">
		<g id="Deleted_Symbol_1_3_">
			<path style="fill:#A9CDA6;" d="M38.105469,12.80127c-0.029297,0-0.054688-0.019531-0.063477-0.046875l-0.148438-0.483887
				c-0.010742-0.032227,0.006836-0.067383,0.039063-0.081055l0.076172-0.029297
				c0.012695-0.000977,0.023438-0.001953,0.032227-0.001953c0.037109,0.011719,0.048828,0.026367,0.055664,0.043945
				l0.146484,0.493652c0.009766,0.035156-0.008789,0.071289-0.042969,0.082031
				c-0.041016,0.012695-0.068359,0.018555-0.081055,0.021484L38.105469,12.80127z"/>
			<path style="fill:#A9CDA6;" d="M39.024414,12.678223c-0.039063,0-0.070313-0.032227-0.071289-0.072266l-0.006836-0.496582
				c0-0.039063-0.013672-0.057617-0.024414-0.069336c-0.013672-0.014648-0.036133-0.022461-0.060547-0.022461
				c-0.023438,0-0.063477,0.007813-0.113281,0.048828c-0.013672,0.009766-0.02832,0.014648-0.044922,0.014648
				c-0.038086-0.004883-0.052734-0.019531-0.05957-0.03125l-0.045898-0.068359
				c-0.021484-0.033203-0.013672-0.076172,0.019531-0.099609c0.085938-0.060547,0.174805-0.09375,0.255859-0.09375
				c0.085938,0,0.162109,0.038086,0.217773,0.109375c0.047852,0.063477,0.073242,0.134766,0.073242,0.211914l0.005859,0.461426
				l0.005859,0.037109c0,0.037109-0.033203,0.069336-0.072266,0.070313H39.024414z"/>
			<path style="fill:#A9CDA6;" d="M41.164063,12.744629c-0.027344-0.005859-0.053711-0.012695-0.076172-0.019531
				c-0.03418-0.010742-0.053711-0.045898-0.043945-0.080078l0.143555-0.495605
				c0.004883-0.017578,0.017578-0.03125,0.033203-0.040039l0.133789,0.023438
				c0.033203,0.012695,0.051758,0.048828,0.041016,0.082031l-0.154297,0.48584
				c-0.009766,0.02832-0.03418,0.045898-0.061523,0.045898L41.164063,12.744629z"/>
			<path style="fill:#A9CDA6;" d="M40.069336,12.63623c-0.046875,0-0.09375-0.017578-0.139648-0.050781
				c0.006836-0.013672-0.174805-0.899902-0.364258-1.183105c-0.024414-0.046875-0.037109-0.09668-0.030273-0.105957
				c0.045898,0.007324,0.09375,0.025879,0.167969,0.071777c0.015625,0.012695,0.185547,0.107422,0.291016,0.600586
				l0.036133,0.116211c0.016602-0.027344,0.044922-1.037598,0.401367-1.193848
				c0.032227-0.020508,0.084961-0.045898,0.111328-0.050781c-0.005859,0.006836-0.013672,0.032227-0.053711,0.09375
				c-0.010742,0.016602-0.213867,0.339844-0.224609,0.79248v0.117188c0.022461-0.013672,0.171875-0.28418,0.448242-0.342773
				c0.033203-0.012695,0.051758-0.015625,0.0625-0.016602c-0.008789,0.004883-0.022461,0.035156-0.095703,0.115234
				c-0.000977,0.000977-0.167969,0.170898-0.461914,0.775879l-0.024414,0.234375
				C40.168945,12.611816,40.125977,12.63623,40.069336,12.63623z"/>
		</g>
	</g>
</g>
<g id="heath_x5F_bd_2_" style="enable-background:new    ;">
	<g id="Heath_x5F_FC_4_">
		<path style="fill:#A9CDA6;" d="M33.756836,11.731445c-0.026367,0-0.051758-0.013672-0.064453-0.037109l-0.198242-0.34082
			c-0.008789-0.015625-0.011719-0.033203-0.006836-0.050781c0.003906-0.020508,0.018555-0.037109,0.035156-0.047852
			l0.055664-0.035156l0.066406-0.005859l0.041992,0.039063l0.19043,0.334961l0.005859,0.06543l-0.039063,0.041992
			l-0.049805,0.025391C33.780273,11.728516,33.768555,11.731445,33.756836,11.731445z"/>
		<path style="fill:#A9CDA6;" d="M34.492188,11.587891c-0.038086,0-0.069336-0.023438-0.080078-0.060547l-0.207031-0.649414
			c-0.012695-0.040039,0.005859-0.082031,0.041992-0.101563l0.069336-0.03418l0.074219-0.003906l0.048828,0.058594
			l0.205078,0.664063l-0.009766,0.068359l-0.052734,0.037109c-0.022461,0.007813-0.043945,0.013672-0.05957,0.016602
			L34.492188,11.587891z"/>
		<path style="fill:#A9CDA6;" d="M35.283203,10.480469l0.103516,0.913086l-0.021484,0.068359l-0.060547,0.035156
			c-0.043945,0.003906-0.083008,0.003906-0.094727,0.003906c-0.052734,0.003906-0.095703-0.03418-0.099609-0.085938
			l-0.085938-0.926758l0.025391-0.072266l0.078125-0.030273l0.072266,0.008789
			C35.244141,10.40332,35.279297,10.432617,35.283203,10.480469z"/>
		<path style="fill:#A9CDA6;" d="M35.922852,11.586914l-0.064453-0.017578l-0.056641-0.044922l-0.005859-0.067383l0.207031-0.664063
			l0.025391-0.027344c0.007813-0.012695,0.015625-0.018555,0.024414-0.022461l0.041016-0.004883l0.033203,0.005859
			l0.064453,0.033203c0.036133,0.019531,0.054688,0.061523,0.041992,0.101563L36.02832,11.52832
			c-0.013672,0.038086-0.043945,0.061523-0.081055,0.061523L35.922852,11.586914z"/>
		<path style="fill:#A9CDA6;" d="M36.682617,11.731445c-0.011719,0-0.023438-0.00293-0.033203-0.009766l-0.057617-0.030273
			l-0.041992-0.051758l0.017578-0.057617l0.191406-0.333984l0.050781-0.038086l0.060547,0.012695l0.047852,0.032227
			c0.036133,0.020508,0.047852,0.064453,0.02832,0.098633l-0.198242,0.34082
			C36.734375,11.716797,36.709961,11.731445,36.682617,11.731445z"/>
	</g>
</g>
<g id="heath_x5F_bd" style="enable-background:new    ;">
	<g id="Heath_x5F_FC_2_">
		<path style="fill:#A9CDA6;" d="M41.026367,6.381836c-0.026367,0-0.051758-0.013672-0.064453-0.037109l-0.198242-0.34082
			c-0.008789-0.015625-0.011719-0.033203-0.006836-0.050781c0.003906-0.020508,0.018555-0.037109,0.035156-0.047852
			l0.055664-0.035156l0.066406-0.005859l0.041992,0.039063l0.19043,0.334961l0.005859,0.06543l-0.039063,0.041992
			l-0.049805,0.025391C41.049805,6.378906,41.038086,6.381836,41.026367,6.381836z"/>
		<path style="fill:#A9CDA6;" d="M41.761719,6.238281c-0.038086,0-0.069336-0.023438-0.080078-0.060547L41.474609,5.52832
			c-0.012695-0.040039,0.005859-0.082031,0.041992-0.101563l0.069336-0.03418l0.074219-0.003906l0.048828,0.058594
			l0.205078,0.664063l-0.009766,0.068359l-0.052734,0.037109c-0.022461,0.007813-0.043945,0.013672-0.05957,0.016602
			L41.761719,6.238281z"/>
		<path style="fill:#A9CDA6;" d="M42.552734,5.130859l0.103516,0.913086l-0.021484,0.068359l-0.060547,0.035156
			c-0.043945,0.003906-0.083008,0.003906-0.094727,0.003906c-0.052734,0.003906-0.095703-0.03418-0.099609-0.085938
			l-0.085938-0.926758l0.025391-0.072266l0.078125-0.030273l0.072266,0.008789
			C42.513672,5.053711,42.548828,5.083008,42.552734,5.130859z"/>
		<path style="fill:#A9CDA6;" d="M43.192383,6.237305L43.12793,6.219727l-0.056641-0.044922L43.06543,6.107422l0.207031-0.664063
			l0.025391-0.027344c0.007813-0.012695,0.015625-0.018555,0.024414-0.022461l0.041016-0.004883l0.033203,0.005859
			l0.064453,0.033203c0.036133,0.019531,0.054688,0.061523,0.041992,0.101563l-0.205078,0.649414
			c-0.013672,0.038086-0.043945,0.061523-0.081055,0.061523L43.192383,6.237305z"/>
		<path style="fill:#A9CDA6;" d="M43.952148,6.381836c-0.011719,0-0.023438-0.00293-0.033203-0.009766l-0.057617-0.030273
			l-0.041992-0.051758l0.017578-0.057617l0.191406-0.333984l0.050781-0.038086l0.060547,0.012695L44.1875,5.905273
			c0.036133,0.020508,0.047852,0.064453,0.02832,0.098633l-0.198242,0.34082
			C44.003906,6.367188,43.979492,6.381836,43.952148,6.381836z"/>
	</g>
</g>
<g id="scrub_x5F_bd" style="enable-background:new    ;">
	<g id="Scrub_x5F_FC_2_">
		<g id="Deleted_Symbol_1_2_">
			<path style="fill:#A9CDA6;" d="M43.619141,4.416504c-0.029297,0-0.054688-0.019531-0.063477-0.046875l-0.148438-0.483887
				c-0.010742-0.032227,0.006836-0.067383,0.039063-0.081055l0.076172-0.029297
				c0.012695-0.000977,0.023438-0.001953,0.032227-0.001953c0.037109,0.011719,0.048828,0.026367,0.055664,0.043945
				l0.146484,0.493652c0.009766,0.035156-0.008789,0.071289-0.042969,0.082031
				c-0.041016,0.012695-0.068359,0.018555-0.081055,0.021484L43.619141,4.416504z"/>
			<path style="fill:#A9CDA6;" d="M44.538086,4.293457c-0.039063,0-0.070313-0.032227-0.071289-0.072266l-0.006836-0.496582
				c0-0.039063-0.013672-0.057617-0.024414-0.069336C44.421875,3.640625,44.399414,3.632813,44.375,3.632813
				c-0.023438,0-0.063477,0.007813-0.113281,0.048828c-0.013672,0.009766-0.02832,0.014648-0.044922,0.014648
				c-0.038086-0.004883-0.052734-0.019531-0.05957-0.03125L44.111328,3.59668
				c-0.021484-0.033203-0.013672-0.076172,0.019531-0.099609c0.085938-0.060547,0.174805-0.09375,0.255859-0.09375
				c0.085938,0,0.162109,0.038086,0.217773,0.109375c0.047852,0.063477,0.073242,0.134766,0.073242,0.211914l0.005859,0.461426
				l0.005859,0.037109c0,0.037109-0.033203,0.069336-0.072266,0.070313H44.538086z"/>
			<path style="fill:#A9CDA6;" d="M46.677734,4.359863c-0.027344-0.005859-0.053711-0.012695-0.076172-0.019531
				c-0.03418-0.010742-0.053711-0.045898-0.043945-0.080078l0.143555-0.495605
				c0.004883-0.017578,0.017578-0.03125,0.033203-0.040039l0.133789,0.023438
				c0.033203,0.012695,0.051758,0.048828,0.041016,0.082031l-0.154297,0.48584
				c-0.009766,0.02832-0.03418,0.045898-0.061523,0.045898L46.677734,4.359863z"/>
			<path style="fill:#A9CDA6;" d="M45.583008,4.251465c-0.046875,0-0.09375-0.017578-0.139648-0.050781
				c0.006836-0.013672-0.174805-0.899902-0.364258-1.183105c-0.024414-0.046875-0.037109-0.09668-0.030273-0.105957
				c0.045898,0.007324,0.09375,0.025879,0.167969,0.071777c0.015625,0.012695,0.185547,0.107422,0.291016,0.600586
				l0.036133,0.116211c0.016602-0.027344,0.044922-1.037598,0.401367-1.193848
				c0.032227-0.020508,0.084961-0.045898,0.111328-0.050781c-0.005859,0.006836-0.013672,0.032227-0.053711,0.09375
				c-0.010742,0.016602-0.213867,0.339844-0.224609,0.79248v0.117188c0.022461-0.013672,0.171875-0.28418,0.448242-0.342773
				c0.033203-0.012695,0.051758-0.015625,0.0625-0.016602c-0.008789,0.004883-0.022461,0.035156-0.095703,0.115234
				c-0.000977,0.000977-0.167969,0.170898-0.461914,0.775879l-0.024414,0.234375
				C45.682617,4.227051,45.639648,4.251465,45.583008,4.251465z"/>
		</g>
	</g>
</g>
<g id="heath_x5F_bd_1_" style="enable-background:new    ;">
	<g id="Heath_x5F_FC_3_">
		<path style="fill:#A9CDA6;" d="M39.270508,3.34668c-0.026367,0-0.051758-0.013672-0.064453-0.037109l-0.198242-0.34082
			c-0.008789-0.015625-0.011719-0.033203-0.006836-0.050781c0.003906-0.020508,0.018555-0.037109,0.035156-0.047852
			l0.055664-0.035156l0.066406-0.005859l0.041992,0.039063l0.19043,0.334961l0.005859,0.06543l-0.039063,0.041992
			l-0.049805,0.025391C39.293945,3.34375,39.282227,3.34668,39.270508,3.34668z"/>
		<path style="fill:#A9CDA6;" d="M40.005859,3.203125c-0.038086,0-0.069336-0.023438-0.080078-0.060547L39.71875,2.493164
			c-0.012695-0.040039,0.005859-0.082031,0.041992-0.101563l0.069336-0.03418l0.074219-0.003906l0.048828,0.058594
			l0.205078,0.664063l-0.009766,0.068359l-0.052734,0.037109c-0.022461,0.007813-0.043945,0.013672-0.05957,0.016602
			L40.005859,3.203125z"/>
		<path style="fill:#A9CDA6;" d="M40.796875,2.095703l0.103516,0.913086l-0.021484,0.068359l-0.060547,0.035156
			c-0.043945,0.003906-0.083008,0.003906-0.094727,0.003906c-0.052734,0.003906-0.095703-0.03418-0.099609-0.085938
			l-0.085938-0.926758l0.025391-0.072266l0.078125-0.030273l0.072266,0.008789
			C40.757813,2.018555,40.792969,2.047852,40.796875,2.095703z"/>
		<path style="fill:#A9CDA6;" d="M41.436523,3.202148L41.37207,3.18457L41.31543,3.139648L41.30957,3.072266l0.207031-0.664063
			l0.025391-0.027344c0.007813-0.012695,0.015625-0.018555,0.024414-0.022461l0.041016-0.004883l0.033203,0.005859
			l0.064453,0.033203c0.036133,0.019531,0.054688,0.061523,0.041992,0.101563l-0.205078,0.649414
			c-0.013672,0.038086-0.043945,0.061523-0.081055,0.061523L41.436523,3.202148z"/>
		<path style="fill:#A9CDA6;" d="M42.196289,3.34668c-0.011719,0-0.023438-0.00293-0.033203-0.009766l-0.057617-0.030273
			l-0.041992-0.051758l0.017578-0.057617l0.191406-0.333984l0.050781-0.038086l0.060547,0.012695l0.047852,0.032227
			c0.036133,0.020508,0.047852,0.064453,0.02832,0.098633l-0.198242,0.34082
			C42.248047,3.332031,42.223633,3.34668,42.196289,3.34668z"/>
	</g>
</g>
<g id="heath_x5F_bd_4_" style="enable-background:new    ;">
	<g id="Heath_x5F_FC_6_">
		<path style="fill:#A9CDA6;" d="M36.009766,24.644531c-0.026367,0-0.051758-0.013672-0.064453-0.037109l-0.198242-0.34082
			c-0.008789-0.015625-0.011719-0.033203-0.006836-0.050781c0.003906-0.020508,0.018555-0.037109,0.035156-0.047852
			l0.055664-0.035156l0.066406-0.005859l0.041992,0.039063l0.19043,0.334961l0.005859,0.06543l-0.039063,0.041992
			l-0.049805,0.025391C36.033203,24.641602,36.021484,24.644531,36.009766,24.644531z"/>
		<path style="fill:#A9CDA6;" d="M36.745117,24.500977c-0.038086,0-0.069336-0.023438-0.080078-0.060547l-0.207031-0.649414
			c-0.012695-0.040039,0.005859-0.082031,0.041992-0.101563l0.069336-0.03418l0.074219-0.003906l0.048828,0.058594
			l0.205078,0.664063l-0.009766,0.068359l-0.052734,0.037109c-0.022461,0.007813-0.043945,0.013672-0.05957,0.016602
			L36.745117,24.500977z"/>
		<path style="fill:#A9CDA6;" d="M37.536133,23.393555l0.103516,0.913086L37.618164,24.375l-0.060547,0.035156
			c-0.043945,0.003906-0.083008,0.003906-0.094727,0.003906c-0.052734,0.003906-0.095703-0.03418-0.099609-0.085938
			l-0.085938-0.926758l0.025391-0.072266l0.078125-0.030273l0.072266,0.008789
			C37.49707,23.316406,37.532227,23.345703,37.536133,23.393555z"/>
		<path style="fill:#A9CDA6;" d="M38.175781,24.5l-0.064453-0.017578L38.054688,24.4375l-0.005859-0.067383l0.207031-0.664063
			l0.025391-0.027344c0.007813-0.012695,0.015625-0.018555,0.024414-0.022461l0.041016-0.004883l0.033203,0.005859
			l0.064453,0.033203c0.036133,0.019531,0.054688,0.061523,0.041992,0.101563l-0.205078,0.649414
			c-0.013672,0.038086-0.043945,0.061523-0.081055,0.061523L38.175781,24.5z"/>
		<path style="fill:#A9CDA6;" d="M38.935547,24.644531c-0.011719,0-0.023438-0.00293-0.033203-0.009766l-0.057617-0.030273
			l-0.041992-0.051758l0.017578-0.057617l0.191406-0.333984l0.050781-0.038086l0.060547,0.012695l0.047852,0.032227
			c0.036133,0.020508,0.047852,0.064453,0.02832,0.098633l-0.198242,0.34082
			C38.987305,24.629883,38.962891,24.644531,38.935547,24.644531z"/>
	</g>
</g>
<g id="scrub_x5F_bd_2_" style="enable-background:new    ;">
	<g id="Scrub_x5F_FC_4_">
		<g id="Deleted_Symbol_1_4_">
			<path style="fill:#A9CDA6;" d="M38.603516,22.679199c-0.029297,0-0.054688-0.019531-0.063477-0.046875l-0.148438-0.483887
				c-0.010742-0.032227,0.006836-0.067383,0.039063-0.081055l0.076172-0.029297
				c0.012695-0.000977,0.023438-0.001953,0.032227-0.001953c0.037109,0.011719,0.048828,0.026367,0.055664,0.043945
				l0.146484,0.493652c0.009766,0.035156-0.008789,0.071289-0.042969,0.082031
				c-0.041016,0.012695-0.068359,0.018555-0.081055,0.021484L38.603516,22.679199z"/>
			<path style="fill:#A9CDA6;" d="M39.522461,22.556152c-0.039063,0-0.070313-0.032227-0.071289-0.072266l-0.006836-0.496582
				c0-0.039063-0.013672-0.057617-0.024414-0.069336c-0.013672-0.014648-0.036133-0.022461-0.060547-0.022461
				c-0.023438,0-0.063477,0.007813-0.113281,0.048828c-0.013672,0.009766-0.02832,0.014648-0.044922,0.014648
				c-0.038086-0.004883-0.052734-0.019531-0.05957-0.03125l-0.045898-0.068359
				c-0.021484-0.033203-0.013672-0.076172,0.019531-0.099609c0.085938-0.060547,0.174805-0.09375,0.255859-0.09375
				c0.085938,0,0.162109,0.038086,0.217773,0.109375c0.047852,0.063477,0.073242,0.134766,0.073242,0.211914l0.005859,0.461426
				l0.005859,0.037109c0,0.037109-0.033203,0.069336-0.072266,0.070313H39.522461z"/>
			<path style="fill:#A9CDA6;" d="M41.662109,22.622559c-0.027344-0.005859-0.053711-0.012695-0.076172-0.019531
				c-0.03418-0.010742-0.053711-0.045898-0.043945-0.080078l0.143555-0.495605
				c0.004883-0.017578,0.017578-0.03125,0.033203-0.040039l0.133789,0.023438
				c0.033203,0.012695,0.051758,0.048828,0.041016,0.082031l-0.154297,0.48584
				c-0.009766,0.02832-0.03418,0.045898-0.061523,0.045898L41.662109,22.622559z"/>
			<path style="fill:#A9CDA6;" d="M40.567383,22.51416c-0.046875,0-0.09375-0.017578-0.139648-0.050781
				c0.006836-0.013672-0.174805-0.899902-0.364258-1.183105c-0.024414-0.046875-0.037109-0.09668-0.030273-0.105957
				c0.045898,0.007324,0.09375,0.025879,0.167969,0.071777c0.015625,0.012695,0.185547,0.107422,0.291016,0.600586
				l0.036133,0.116211c0.016602-0.027344,0.044922-1.037598,0.401367-1.193848
				c0.032227-0.020508,0.084961-0.045898,0.111328-0.050781c-0.005859,0.006836-0.013672,0.032227-0.053711,0.09375
				c-0.010742,0.016602-0.213867,0.339844-0.224609,0.79248v0.117188c0.022461-0.013672,0.171875-0.28418,0.448242-0.342773
				c0.033203-0.012695,0.051758-0.015625,0.0625-0.016602c-0.008789,0.004883-0.022461,0.035156-0.095703,0.115234
				c-0.000977,0.000977-0.167969,0.170898-0.461914,0.775879l-0.024414,0.234375
				C40.666992,22.489746,40.624023,22.51416,40.567383,22.51416z"/>
		</g>
	</g>
</g>
<g id="scrub_x5F_bd_3_" style="enable-background:new    ;">
	<g id="Scrub_x5F_FC_5_">
		<g id="Deleted_Symbol_1_5_">
			<path style="fill:#A9CDA6;" d="M34.177734,21.915527c-0.029297,0-0.054688-0.019531-0.063477-0.046875l-0.148438-0.483887
				c-0.010742-0.032227,0.006836-0.067383,0.039063-0.081055l0.076172-0.029297
				c0.012695-0.000977,0.023438-0.001953,0.032227-0.001953c0.037109,0.011719,0.048828,0.026367,0.055664,0.043945
				l0.146484,0.493652c0.009766,0.035156-0.008789,0.071289-0.042969,0.082031
				c-0.041016,0.012695-0.068359,0.018555-0.081055,0.021484L34.177734,21.915527z"/>
			<path style="fill:#A9CDA6;" d="M35.09668,21.79248c-0.039063,0-0.070313-0.032227-0.071289-0.072266l-0.006836-0.496582
				c0-0.039063-0.013672-0.057617-0.024414-0.069336c-0.013672-0.014648-0.036133-0.022461-0.060547-0.022461
				c-0.023438,0-0.063477,0.007813-0.113281,0.048828c-0.013672,0.009766-0.02832,0.014648-0.044922,0.014648
				c-0.038086-0.004883-0.052734-0.019531-0.05957-0.03125l-0.045898-0.068359
				c-0.021484-0.033203-0.013672-0.076172,0.019531-0.099609c0.085938-0.060547,0.174805-0.09375,0.255859-0.09375
				c0.085938,0,0.162109,0.038086,0.217773,0.109375c0.047852,0.063477,0.073242,0.134766,0.073242,0.211914l0.005859,0.461426
				l0.005859,0.037109c0,0.037109-0.033203,0.069336-0.072266,0.070313H35.09668z"/>
			<path style="fill:#A9CDA6;" d="M37.236328,21.858887c-0.027344-0.005859-0.053711-0.012695-0.076172-0.019531
				c-0.03418-0.010742-0.053711-0.045898-0.043945-0.080078l0.143555-0.495605
				c0.004883-0.017578,0.017578-0.03125,0.033203-0.040039l0.133789,0.023438
				c0.033203,0.012695,0.051758,0.048828,0.041016,0.082031l-0.154297,0.48584
				c-0.009766,0.02832-0.03418,0.045898-0.061523,0.045898L37.236328,21.858887z"/>
			<path style="fill:#A9CDA6;" d="M36.141602,21.750488c-0.046875,0-0.09375-0.017578-0.139648-0.050781
				c0.006836-0.013672-0.174805-0.899902-0.364258-1.183105c-0.024414-0.046875-0.037109-0.09668-0.030273-0.105957
				c0.045898,0.007324,0.09375,0.025879,0.167969,0.071777c0.015625,0.012695,0.185547,0.107422,0.291016,0.600586
				l0.036133,0.116211c0.016602-0.027344,0.044922-1.037598,0.401367-1.193848
				c0.032227-0.020508,0.084961-0.045898,0.111328-0.050781c-0.005859,0.006836-0.013672,0.032227-0.053711,0.09375
				c-0.010742,0.016602-0.213867,0.339844-0.224609,0.79248v0.117188c0.022461-0.013672,0.171875-0.28418,0.448242-0.342773
				c0.033203-0.012695,0.051758-0.015625,0.0625-0.016602c-0.008789,0.004883-0.022461,0.035156-0.095703,0.115234
				c-0.000977,0.000977-0.167969,0.170898-0.461914,0.775879l-0.024414,0.234375
				C36.241211,21.726074,36.198242,21.750488,36.141602,21.750488z"/>
		</g>
	</g>
</g>
<g id="heath_x5F_bd_7_" style="enable-background:new    ;">
	<g id="Heath_x5F_FC_9_">
		<path style="fill:#A9CDA6;" d="M41.27832,36.546875c-0.026367,0-0.051758-0.013672-0.064453-0.037109l-0.198242-0.34082
			c-0.008789-0.015625-0.011719-0.033203-0.006836-0.050781c0.003906-0.020508,0.018555-0.037109,0.035156-0.047852
			l0.055664-0.035156l0.066406-0.005859l0.041992,0.039063l0.19043,0.334961l0.005859,0.06543l-0.039063,0.041992
			l-0.049805,0.025391C41.301758,36.543945,41.290039,36.546875,41.27832,36.546875z"/>
		<path style="fill:#A9CDA6;" d="M42.013672,36.40332c-0.038086,0-0.069336-0.023438-0.080078-0.060547l-0.207031-0.649414
			c-0.012695-0.040039,0.005859-0.082031,0.041992-0.101563l0.069336-0.03418l0.074219-0.003906l0.048828,0.058594
			l0.205078,0.664063l-0.009766,0.068359l-0.052734,0.037109c-0.022461,0.007813-0.043945,0.013672-0.05957,0.016602
			L42.013672,36.40332z"/>
		<path style="fill:#A9CDA6;" d="M42.804688,35.295898l0.103516,0.913086l-0.021484,0.068359L42.826172,36.3125
			c-0.043945,0.003906-0.083008,0.003906-0.094727,0.003906c-0.052734,0.003906-0.095703-0.03418-0.099609-0.085938
			l-0.085938-0.926758l0.025391-0.072266l0.078125-0.030273l0.072266,0.008789
			C42.765625,35.21875,42.800781,35.248047,42.804688,35.295898z"/>
		<path style="fill:#A9CDA6;" d="M43.444336,36.402344l-0.064453-0.017578l-0.056641-0.044922l-0.005859-0.067383l0.207031-0.664063
			l0.025391-0.027344c0.007813-0.012695,0.015625-0.018555,0.024414-0.022461l0.041016-0.004883l0.033203,0.005859
			l0.064453,0.033203c0.036133,0.019531,0.054688,0.061523,0.041992,0.101563l-0.205078,0.649414
			c-0.013672,0.038086-0.043945,0.061523-0.081055,0.061523L43.444336,36.402344z"/>
		<path style="fill:#A9CDA6;" d="M44.204102,36.546875c-0.011719,0-0.023438-0.00293-0.033203-0.009766l-0.057617-0.030273
			l-0.041992-0.051758l0.017578-0.057617l0.191406-0.333984l0.050781-0.038086l0.060547,0.012695l0.047852,0.032227
			c0.036133,0.020508,0.047852,0.064453,0.02832,0.098633l-0.198242,0.34082
			C44.255859,36.532227,44.231445,36.546875,44.204102,36.546875z"/>
	</g>
</g>
<g id="scrub_x5F_bd_6_" style="enable-background:new    ;">
	<g id="Scrub_x5F_FC_8_">
		<g id="Deleted_Symbol_1_8_">
			<path style="fill:#A9CDA6;" d="M43.871094,34.582031c-0.029297,0-0.054688-0.019531-0.063477-0.046875l-0.148438-0.484375
				c-0.010742-0.032227,0.006836-0.067383,0.039063-0.081055l0.076172-0.029297
				c0.012695-0.000977,0.023438-0.001953,0.032227-0.001953c0.037109,0.011719,0.048828,0.026367,0.055664,0.043945
				l0.146484,0.494141C44.018555,34.511719,44,34.547852,43.96582,34.558594
				c-0.041016,0.012695-0.068359,0.018555-0.081055,0.021484L43.871094,34.582031z"/>
			<path style="fill:#A9CDA6;" d="M44.790039,34.458984c-0.039063,0-0.070313-0.032227-0.071289-0.072266l-0.006836-0.49707
				c0-0.039063-0.013672-0.057617-0.024414-0.069336c-0.013672-0.014648-0.036133-0.022461-0.060547-0.022461
				c-0.023438,0-0.063477,0.007813-0.113281,0.048828c-0.013672,0.009766-0.02832,0.014648-0.044922,0.014648
				c-0.038086-0.004883-0.052734-0.019531-0.05957-0.03125l-0.045898-0.068359
				c-0.021484-0.033203-0.013672-0.076172,0.019531-0.099609c0.085938-0.060547,0.174805-0.09375,0.255859-0.09375
				c0.085938,0,0.162109,0.038086,0.217773,0.109375c0.047852,0.063477,0.073242,0.134766,0.073242,0.211914l0.005859,0.461914
				l0.005859,0.037109c0,0.037109-0.033203,0.069336-0.072266,0.070313H44.790039z"/>
			<path style="fill:#A9CDA6;" d="M46.929688,34.525391c-0.027344-0.005859-0.053711-0.012695-0.076172-0.019531
				c-0.03418-0.010742-0.053711-0.045898-0.043945-0.080078l0.143555-0.496094
				c0.004883-0.017578,0.017578-0.03125,0.033203-0.040039l0.133789,0.023438
				c0.033203,0.012695,0.051758,0.048828,0.041016,0.082031l-0.154297,0.486328
				c-0.009766,0.02832-0.03418,0.045898-0.061523,0.045898L46.929688,34.525391z"/>
			<path style="fill:#A9CDA6;" d="M45.834961,34.416992c-0.046875,0-0.09375-0.017578-0.139648-0.050781
				c0.006836-0.013672-0.174805-0.900391-0.364258-1.183594c-0.024414-0.046875-0.037109-0.09668-0.030273-0.106445
				c0.045898,0.007813,0.09375,0.026367,0.167969,0.072266c0.015625,0.012695,0.185547,0.107422,0.291016,0.600586
				l0.036133,0.116211c0.016602-0.027344,0.044922-1.038086,0.401367-1.194336
				c0.032227-0.020508,0.084961-0.045898,0.111328-0.050781c-0.005859,0.006836-0.013672,0.032227-0.053711,0.09375
				c-0.010742,0.016602-0.213867,0.339844-0.224609,0.792969v0.117188c0.022461-0.013672,0.171875-0.28418,0.448242-0.342773
				c0.033203-0.012695,0.051758-0.015625,0.0625-0.016602c-0.008789,0.004883-0.022461,0.035156-0.095703,0.115234
				c-0.000977,0.000977-0.167969,0.170898-0.461914,0.776367l-0.024414,0.234375
				C45.93457,34.392578,45.891602,34.416992,45.834961,34.416992z"/>
		</g>
	</g>
</g>
<g id="heath_x5F_bd_6_" style="enable-background:new    ;">
	<g id="Heath_x5F_FC_8_">
		<path style="fill:#A9CDA6;" d="M39.522461,33.511719c-0.026367,0-0.051758-0.013672-0.064453-0.037109l-0.198242-0.34082
			c-0.008789-0.015625-0.011719-0.033203-0.006836-0.050781c0.003906-0.020508,0.018555-0.037109,0.035156-0.047852L39.34375,33
			l0.066406-0.005859l0.041992,0.039063l0.19043,0.334961l0.005859,0.06543l-0.039063,0.041992l-0.049805,0.025391
			C39.545898,33.508789,39.53418,33.511719,39.522461,33.511719z"/>
		<path style="fill:#A9CDA6;" d="M40.257813,33.368164c-0.038086,0-0.069336-0.023438-0.080078-0.060547l-0.207031-0.649414
			c-0.012695-0.040039,0.005859-0.082031,0.041992-0.101563l0.069336-0.03418l0.074219-0.003906l0.048828,0.058594
			l0.205078,0.664063l-0.009766,0.068359l-0.052734,0.037109c-0.022461,0.007813-0.043945,0.013672-0.05957,0.016602
			L40.257813,33.368164z"/>
		<path style="fill:#A9CDA6;" d="M41.048828,32.260742l0.103516,0.913086l-0.021484,0.068359l-0.060547,0.035156
			c-0.043945,0.003906-0.083008,0.003906-0.094727,0.003906c-0.052734,0.003906-0.095703-0.03418-0.099609-0.085938
			l-0.085938-0.926758l0.025391-0.072266l0.078125-0.030273l0.072266,0.008789
			C41.009766,32.183594,41.044922,32.212891,41.048828,32.260742z"/>
		<path style="fill:#A9CDA6;" d="M41.688477,33.367188l-0.064453-0.017578l-0.056641-0.044922l-0.005859-0.067383l0.207031-0.664063
			l0.025391-0.027344c0.007813-0.012695,0.015625-0.018555,0.024414-0.022461l0.041016-0.004883l0.033203,0.005859
			l0.064453,0.033203c0.036133,0.019531,0.054688,0.061523,0.041992,0.101563l-0.205078,0.649414
			c-0.013672,0.038086-0.043945,0.061523-0.081055,0.061523L41.688477,33.367188z"/>
		<path style="fill:#A9CDA6;" d="M42.448242,33.511719c-0.011719,0-0.023438-0.00293-0.033203-0.009766l-0.057617-0.030273
			l-0.041992-0.051758l0.017578-0.057617l0.191406-0.333984l0.050781-0.038086l0.060547,0.012695l0.047852,0.032227
			c0.036133,0.020508,0.047852,0.064453,0.02832,0.098633l-0.198242,0.34082C42.5,33.49707,42.475586,33.511719,42.448242,33.511719
			z"/>
	</g>
</g>
<g id="heath_x5F_bd_8_" style="enable-background:new    ;">
	<g id="Heath_x5F_FC_10_">
		<path style="fill:#A9CDA6;" d="M28.248047,47.148438c-0.026367,0-0.051758-0.013672-0.064453-0.037109l-0.198242-0.34082
			c-0.008789-0.015625-0.011719-0.033203-0.006836-0.050781c0.003906-0.020508,0.018555-0.037109,0.035156-0.047852
			l0.055664-0.035156l0.066406-0.005859l0.041992,0.039063l0.19043,0.334961l0.005859,0.06543l-0.039063,0.041992
			l-0.049805,0.025391C28.271484,47.145508,28.259766,47.148438,28.248047,47.148438z"/>
		<path style="fill:#A9CDA6;" d="M28.983398,47.004883c-0.038086,0-0.069336-0.023438-0.080078-0.060547l-0.207031-0.649414
			c-0.012695-0.040039,0.005859-0.082031,0.041992-0.101563l0.069336-0.03418l0.074219-0.003906l0.048828,0.058594
			l0.205078,0.664063l-0.009766,0.068359l-0.052734,0.037109C29.050781,46.991211,29.029297,46.99707,29.013672,47
			L28.983398,47.004883z"/>
		<path style="fill:#A9CDA6;" d="M29.774414,45.897461l0.103516,0.913086l-0.021484,0.068359l-0.060547,0.035156
			c-0.043945,0.003906-0.083008,0.003906-0.094727,0.003906c-0.052734,0.003906-0.095703-0.03418-0.099609-0.085938
			l-0.085938-0.926758l0.025391-0.072266l0.078125-0.030273l0.072266,0.008789
			C29.735352,45.820313,29.770508,45.849609,29.774414,45.897461z"/>
		<path style="fill:#A9CDA6;" d="M30.414063,47.003906l-0.064453-0.017578l-0.056641-0.044922l-0.005859-0.067383l0.207031-0.664063
			l0.025391-0.027344c0.007813-0.012695,0.015625-0.018555,0.024414-0.022461l0.041016-0.004883l0.033203,0.005859
			l0.064453,0.033203c0.036133,0.019531,0.054688,0.061523,0.041992,0.101563l-0.205078,0.649414
			c-0.013672,0.038086-0.043945,0.061523-0.081055,0.061523L30.414063,47.003906z"/>
		<path style="fill:#A9CDA6;" d="M31.173828,47.148438c-0.011719,0-0.023438-0.00293-0.033203-0.009766l-0.057617-0.030273
			l-0.041992-0.051758l0.017578-0.057617L31.25,46.665039l0.050781-0.038086l0.060547,0.012695l0.047852,0.032227
			c0.036133,0.020508,0.047852,0.064453,0.02832,0.098633l-0.198242,0.34082
			C31.225586,47.133789,31.201172,47.148438,31.173828,47.148438z"/>
	</g>
</g>
<g id="scrub_x5F_bd_7_" style="enable-background:new    ;">
	<g id="Scrub_x5F_FC_9_">
		<g id="Deleted_Symbol_1_9_">
			<path style="fill:#A9CDA6;" d="M30.839844,45.183594c-0.029297,0-0.054688-0.019531-0.063477-0.046875l-0.148438-0.484375
				c-0.010742-0.032227,0.006836-0.067383,0.039063-0.081055l0.076172-0.029297
				c0.012695-0.000977,0.023438-0.001953,0.032227-0.001953c0.037109,0.011719,0.048828,0.026367,0.055664,0.043945
				l0.146484,0.494141c0.009766,0.035156-0.008789,0.071289-0.042969,0.082031
				c-0.041016,0.012695-0.068359,0.018555-0.081055,0.021484L30.839844,45.183594z"/>
			<path style="fill:#A9CDA6;" d="M31.758789,45.060547c-0.039063,0-0.070313-0.032227-0.071289-0.072266l-0.006836-0.49707
				c0-0.039063-0.013672-0.057617-0.024414-0.069336c-0.013672-0.014648-0.036133-0.022461-0.060547-0.022461
				c-0.023438,0-0.063477,0.007813-0.113281,0.048828c-0.013672,0.009766-0.02832,0.014648-0.044922,0.014648
				c-0.038086-0.004883-0.052734-0.019531-0.05957-0.03125l-0.045898-0.068359
				c-0.021484-0.033203-0.013672-0.076172,0.019531-0.099609c0.085938-0.060547,0.174805-0.09375,0.255859-0.09375
				c0.085938,0,0.162109,0.038086,0.217773,0.109375c0.047852,0.063477,0.073242,0.134766,0.073242,0.211914l0.005859,0.461914
				l0.005859,0.037109c0,0.037109-0.033203,0.069336-0.072266,0.070313H31.758789z"/>
			<path style="fill:#A9CDA6;" d="M33.898438,45.126953c-0.027344-0.005859-0.053711-0.012695-0.076172-0.019531
				c-0.03418-0.010742-0.053711-0.045898-0.043945-0.080078l0.143555-0.496094
				c0.004883-0.017578,0.017578-0.03125,0.033203-0.040039l0.133789,0.023438
				c0.033203,0.012695,0.051758,0.048828,0.041016,0.082031l-0.154297,0.486328
				c-0.009766,0.02832-0.03418,0.045898-0.061523,0.045898L33.898438,45.126953z"/>
			<path style="fill:#A9CDA6;" d="M32.803711,45.018555c-0.046875,0-0.09375-0.017578-0.139648-0.050781
				c0.006836-0.013672-0.174805-0.900391-0.364258-1.183594c-0.024414-0.046875-0.037109-0.09668-0.030273-0.106445
				c0.045898,0.007813,0.09375,0.026367,0.167969,0.072266c0.015625,0.012695,0.185547,0.107422,0.291016,0.600586
				l0.036133,0.116211c0.016602-0.027344,0.044922-1.038086,0.401367-1.194336
				c0.032227-0.020508,0.084961-0.045898,0.111328-0.050781c-0.005859,0.006836-0.013672,0.032227-0.053711,0.09375
				c-0.010742,0.016602-0.213867,0.339844-0.224609,0.792969v0.117188c0.022461-0.013672,0.171875-0.28418,0.448242-0.342773
				c0.033203-0.012695,0.051758-0.015625,0.0625-0.016602c-0.008789,0.004883-0.022461,0.035156-0.095703,0.115234
				c-0.000977,0.000977-0.167969,0.170898-0.461914,0.776367l-0.024414,0.234375
				C32.90332,44.994141,32.860352,45.018555,32.803711,45.018555z"/>
		</g>
	</g>
</g>
<g id="heath_x5F_bd_9_" style="enable-background:new    ;">
	<g id="Heath_x5F_FC_11_">
		<path style="fill:#A9CDA6;" d="M26.492188,44.113281c-0.026367,0-0.051758-0.013672-0.064453-0.037109l-0.198242-0.34082
			c-0.008789-0.015625-0.011719-0.033203-0.006836-0.050781c0.003906-0.020508,0.018555-0.037109,0.035156-0.047852
			l0.055664-0.035156l0.066406-0.005859l0.041992,0.039063l0.19043,0.334961l0.005859,0.06543l-0.039063,0.041992
			l-0.049805,0.025391C26.515625,44.110352,26.503906,44.113281,26.492188,44.113281z"/>
		<path style="fill:#A9CDA6;" d="M27.227539,43.969727c-0.038086,0-0.069336-0.023438-0.080078-0.060547l-0.207031-0.649414
			c-0.012695-0.040039,0.005859-0.082031,0.041992-0.101563l0.069336-0.03418l0.074219-0.003906l0.048828,0.058594
			l0.205078,0.664063l-0.009766,0.068359l-0.052734,0.037109c-0.022461,0.007813-0.043945,0.013672-0.05957,0.016602
			L27.227539,43.969727z"/>
		<path style="fill:#A9CDA6;" d="M28.018555,42.862305l0.103516,0.913086l-0.021484,0.068359l-0.060547,0.035156
			c-0.043945,0.003906-0.083008,0.003906-0.094727,0.003906c-0.052734,0.003906-0.095703-0.03418-0.099609-0.085938
			l-0.085938-0.926758l0.025391-0.072266l0.078125-0.030273l0.072266,0.008789
			C27.979492,42.785156,28.014648,42.814453,28.018555,42.862305z"/>
		<path style="fill:#A9CDA6;" d="M28.658203,43.96875l-0.064453-0.017578l-0.056641-0.044922l-0.005859-0.067383l0.207031-0.664063
			l0.025391-0.027344c0.007813-0.012695,0.015625-0.018555,0.024414-0.022461l0.041016-0.004883l0.033203,0.005859
			l0.064453,0.033203c0.036133,0.019531,0.054688,0.061523,0.041992,0.101563l-0.205078,0.649414
			C28.75,43.948242,28.719727,43.97168,28.682617,43.97168L28.658203,43.96875z"/>
		<path style="fill:#A9CDA6;" d="M29.417969,44.113281c-0.011719,0-0.023438-0.00293-0.033203-0.009766l-0.057617-0.030273
			l-0.041992-0.051758l0.017578-0.057617l0.191406-0.333984l0.050781-0.038086l0.060547,0.012695l0.047852,0.032227
			c0.036133,0.020508,0.047852,0.064453,0.02832,0.098633l-0.198242,0.34082
			C29.469727,44.098633,29.445313,44.113281,29.417969,44.113281z"/>
	</g>
</g>
<g id="heath_x5F_bd_11_" style="enable-background:new    ;">
	<g id="Heath_x5F_FC_13_">
		<path style="fill:#A9CDA6;" d="M4.47168,48.563477c-0.025879,0-0.05127-0.013672-0.063965-0.037109l-0.198242-0.34082
			c-0.008789-0.015625-0.011719-0.033203-0.006836-0.050781c0.003906-0.020508,0.018066-0.037109,0.035156-0.047852
			l0.055664-0.035156l0.065918-0.005859l0.041992,0.039063l0.19043,0.334961l0.005859,0.06543l-0.039063,0.041992
			l-0.049805,0.025391C4.495605,48.560547,4.483398,48.563477,4.47168,48.563477z"/>
		<path style="fill:#A9CDA6;" d="M5.208008,48.419922c-0.038086,0-0.069824-0.023438-0.080078-0.060547l-0.207031-0.649414
			c-0.012695-0.040039,0.005371-0.082031,0.041992-0.101563l0.069336-0.03418l0.07373-0.003906l0.049316,0.058594l0.20459,0.664063
			l-0.009766,0.068359l-0.052246,0.037109c-0.022949,0.007813-0.043945,0.013672-0.05957,0.016602L5.208008,48.419922z"/>
		<path style="fill:#A9CDA6;" d="M5.998047,47.3125l0.104004,0.913086l-0.021973,0.068359L6.02002,48.329102
			c-0.043945,0.003906-0.083008,0.003906-0.094727,0.003906c-0.052246,0.003906-0.095215-0.03418-0.099121-0.085938
			l-0.085938-0.926758l0.024902-0.072266l0.078125-0.030273l0.072754,0.008789
			C5.958984,47.235352,5.994141,47.264648,5.998047,47.3125z"/>
		<path style="fill:#A9CDA6;" d="M6.638184,48.418945l-0.064941-0.017578L6.51709,48.356445L6.51123,48.289063L6.718262,47.625
			l0.024902-0.027344c0.007813-0.012695,0.016113-0.018555,0.024902-0.022461l0.041016-0.004883l0.033203,0.005859
			l0.063965,0.033203c0.036621,0.019531,0.054688,0.061523,0.041992,0.101563l-0.205078,0.649414
			c-0.013184,0.038086-0.043945,0.061523-0.081055,0.061523L6.638184,48.418945z"/>
		<path style="fill:#A9CDA6;" d="M7.398438,48.563477c-0.011719,0-0.023926-0.00293-0.033691-0.009766l-0.057129-0.030273
			L7.265625,48.47168l0.01709-0.057617l0.191895-0.333984l0.050781-0.038086l0.060059,0.012695l0.04834,0.032227
			c0.035645,0.020508,0.047852,0.064453,0.027832,0.098633l-0.198242,0.34082
			C7.449707,48.548828,7.425781,48.563477,7.398438,48.563477z"/>
	</g>
</g>
<g id="scrub_x5F_bd_10_" style="enable-background:new    ;">
	<g id="Scrub_x5F_FC_12_">
		<g id="Deleted_Symbol_1_12_">
			<path style="fill:#A9CDA6;" d="M7.064941,46.598633c-0.028809,0-0.053711-0.019531-0.0625-0.046875l-0.148926-0.484375
				C6.843262,46.035156,6.860352,46,6.892578,45.986328l0.07666-0.029297c0.012207-0.000977,0.023438-0.001953,0.032227-0.001953
				c0.036621,0.011719,0.04834,0.026367,0.054688,0.043945l0.146973,0.494141
				c0.009766,0.035156-0.009277,0.071289-0.042969,0.082031c-0.041016,0.012695-0.068359,0.018555-0.081055,0.021484
				L7.064941,46.598633z"/>
			<path style="fill:#A9CDA6;" d="M7.984863,46.475586c-0.039063,0-0.070801-0.032227-0.071777-0.072266l-0.006348-0.49707
				c0-0.039063-0.013672-0.057617-0.024902-0.069336c-0.013672-0.014648-0.035645-0.022461-0.060059-0.022461
				c-0.023926,0-0.063965,0.007813-0.11377,0.048828c-0.013184,0.009766-0.027832,0.014648-0.044922,0.014648
				C7.625,45.873047,7.61084,45.858398,7.604004,45.84668L7.558105,45.77832c-0.021973-0.033203-0.01416-0.076172,0.019043-0.099609
				c0.085938-0.060547,0.174805-0.09375,0.255859-0.09375c0.085938,0,0.162109,0.038086,0.217773,0.109375
				c0.047852,0.063477,0.072754,0.134766,0.072754,0.211914l0.005859,0.461914l0.005859,0.037109
				c0,0.037109-0.032715,0.069336-0.071289,0.070313H7.984863z"/>
			<path style="fill:#A9CDA6;" d="M10.124023,46.541992c-0.026855-0.005859-0.053223-0.012695-0.076172-0.019531
				c-0.033691-0.010742-0.053711-0.045898-0.043945-0.080078l0.144043-0.496094
				c0.004883-0.017578,0.01709-0.03125,0.032715-0.040039l0.133789,0.023438c0.033203,0.012695,0.05127,0.048828,0.041016,0.082031
				l-0.154785,0.486328c-0.009277,0.02832-0.033691,0.045898-0.060547,0.045898L10.124023,46.541992z"/>
			<path style="fill:#A9CDA6;" d="M9.029297,46.433594c-0.046875,0-0.09375-0.017578-0.139648-0.050781
				c0.006836-0.013672-0.174316-0.900391-0.364258-1.183594c-0.024902-0.046875-0.037109-0.09668-0.030762-0.106445
				c0.045898,0.007813,0.09375,0.026367,0.168945,0.072266c0.015137,0.012695,0.185059,0.107422,0.291016,0.600586
				l0.036133,0.116211c0.016602-0.027344,0.044922-1.038086,0.400391-1.194336
				c0.032715-0.020508,0.084961-0.045898,0.111816-0.050781c-0.005859,0.006836-0.01416,0.032227-0.053711,0.09375
				c-0.01123,0.016602-0.214355,0.339844-0.225098,0.792969v0.117188c0.022949-0.013672,0.171875-0.28418,0.44873-0.342773
				c0.033203-0.012695,0.052246-0.015625,0.062988-0.016602c-0.008789,0.004883-0.022949,0.035156-0.09668,0.115234
				c-0.000977,0.000977-0.167969,0.170898-0.461914,0.776367l-0.024414,0.234375
				C9.128906,46.40918,9.086426,46.433594,9.029297,46.433594z"/>
		</g>
	</g>
</g>
<g id="heath_x5F_bd_12_" style="enable-background:new    ;">
	<g id="Heath_x5F_FC_14_">
		<path style="fill:#A9CDA6;" d="M2.716797,45.52832c-0.025879,0-0.05127-0.013672-0.063965-0.037109l-0.198242-0.34082
			c-0.008789-0.015625-0.011719-0.033203-0.006836-0.050781C2.45166,45.079102,2.46582,45.0625,2.48291,45.051758l0.055664-0.035156
			l0.065918-0.005859l0.041992,0.039063l0.19043,0.334961l0.005859,0.06543l-0.039063,0.041992l-0.049805,0.025391
			C2.740723,45.525391,2.728516,45.52832,2.716797,45.52832z"/>
		<path style="fill:#A9CDA6;" d="M3.453125,45.384766c-0.038086,0-0.069824-0.023438-0.080078-0.060547l-0.207031-0.649414
			c-0.012695-0.040039,0.005371-0.082031,0.041992-0.101563l0.069336-0.03418l0.07373-0.003906l0.049316,0.058594l0.20459,0.664063
			l-0.009766,0.068359l-0.052246,0.037109c-0.022949,0.007813-0.043945,0.013672-0.05957,0.016602L3.453125,45.384766z"/>
		<path style="fill:#A9CDA6;" d="M4.243164,44.277344l0.104004,0.913086l-0.021973,0.068359l-0.060059,0.035156
			c-0.043945,0.003906-0.083008,0.003906-0.094727,0.003906c-0.052246,0.003906-0.095215-0.03418-0.099121-0.085938
			l-0.085938-0.926758l0.024902-0.072266l0.078125-0.030273l0.072754,0.008789
			C4.204102,44.200195,4.239258,44.229492,4.243164,44.277344z"/>
		<path style="fill:#A9CDA6;" d="M4.883301,45.383789l-0.064941-0.017578l-0.056152-0.044922l-0.005859-0.067383l0.207031-0.664063
			L4.988281,44.5625c0.007813-0.012695,0.016113-0.018555,0.024902-0.022461l0.041016-0.004883l0.033203,0.005859l0.063965,0.033203
			c0.036621,0.019531,0.054688,0.061523,0.041992,0.101563l-0.205078,0.649414
			c-0.013184,0.038086-0.043945,0.061523-0.081055,0.061523L4.883301,45.383789z"/>
		<path style="fill:#A9CDA6;" d="M5.643555,45.52832c-0.011719,0-0.023926-0.00293-0.033691-0.009766l-0.057129-0.030273
			l-0.041992-0.051758l0.01709-0.057617l0.191895-0.333984l0.050781-0.038086l0.060059,0.012695l0.04834,0.032227
			c0.035645,0.020508,0.047852,0.064453,0.027832,0.098633l-0.198242,0.34082
			C5.694824,45.513672,5.670898,45.52832,5.643555,45.52832z"/>
	</g>
</g>
</svg>
