<?xml version="1.0" encoding="utf-8"?>
<!-- Generator: Adobe Illustrator 15.0.2, SVG Export Plug-In . SVG Version: 6.00 Build 0)  -->
<!DOCTYPE svg PUBLIC "-//W3C//DTD SVG 1.1//EN" "http://www.w3.org/Graphics/SVG/1.1/DTD/svg11.dtd">
<svg version="1.1" id="Layer_1" xmlns="http://www.w3.org/2000/svg" xmlns:xlink="http://www.w3.org/1999/xlink" x="0px" y="0px"
	 width="12.004px" height="12.008px" viewBox="0 0 12.004 12.008" enable-background="new 0 0 12.004 12.008" xml:space="preserve">
<circle fill="#FFFFFF" cx="5.987" cy="5.985" r="4.75"/>
<g enable-background="new    ">
	<path fill="#6A70C7" d="M1.236,5.959c0-2.635,2.132-4.756,4.766-4.756s4.766,2.121,4.766,4.756c0,2.633-2.132,4.766-4.766,4.766
		C3.369,10.725,1.236,8.592,1.236,5.959z M6.002,1.61c-2.404,0-4.348,1.944-4.348,4.349c0,2.415,1.944,4.357,4.348,4.357
		c2.404,0,4.348-1.942,4.348-4.357C10.352,3.555,8.406,1.61,6.002,1.61z M6.149,9.135l1.139,0.305L7.215,8.948l-0.94-0.722
		l0.083-1.315c0.01-0.367-0.052-0.805,0.261-0.805c0.125,0,0.293,0.052,0.408,0.083L7.77,6.397l1.756,0.794V7.004
		c0-0.125,0.031-0.324-0.073-0.418c-0.054-0.084-0.21-0.189-0.293-0.251L6.431,4.308v-0.22L6.358,3.021
		C6.327,2.823,6.316,2.259,6.013,2.259c-0.303,0-0.314,0.564-0.345,0.763L5.595,4.088v0.22L2.867,6.335
		c-0.083,0.063-0.23,0.167-0.292,0.251C2.47,6.68,2.501,6.879,2.501,7.004v0.188l1.756-0.793l0.753-0.21
		c0.115-0.031,0.271-0.083,0.397-0.083c0.313,0,0.251,0.438,0.261,0.805l0.084,1.316L4.811,8.948L4.738,9.439l1.139-0.305H6.149z"/>
</g>
</svg>
