<?xml version="1.0" encoding="utf-8"?>
<!-- Generator: Adobe Illustrator 16.0.3, SVG Export Plug-In . SVG Version: 6.00 Build 0)  -->
<!DOCTYPE svg PUBLIC "-//W3C//DTD SVG 1.1//EN" "http://www.w3.org/Graphics/SVG/1.1/DTD/svg11.dtd">
<svg version="1.1" id="Layer_1" xmlns="http://www.w3.org/2000/svg" xmlns:xlink="http://www.w3.org/1999/xlink" x="0px" y="0px"
	 width="50px" height="50px" viewBox="0 0 50 50" style="enable-background:new 0 0 50 50;" xml:space="preserve">
<g id="marsh_x5F_bd_14_">
	<g id="Marsh_x5F_FC_16_">
		<g>
			<g>
				<g>
					<path style="fill:#95CDC7;" d="M7.875488,40.271484C7.900879,40.3125,7.87793,40.34668,7.82666,40.34668H6.663086
						c-0.050781,0-0.092773-0.03418-0.092773-0.075195c0-0.041992,0.041992-0.076172,0.092773-0.076172H7.47168
						c-0.003906-0.014648-0.008789-0.02832-0.027832-0.041992c-0.01416-0.013672-0.01416-0.013672-0.01416-0.013672
						c-0.033203-0.025391-0.025879-0.072266,0.015137-0.103516l0.041016-0.03125
						c0.037109,0.033203,0.068848,0.06543,0.087891,0.098633c0.021973,0.026367,0.021973,0.026367,0.021973,0.026367
						c0.004883,0.02832,0.009766,0.054688,0.009766,0.058594s0.039063,0.007813,0.087402,0.007813l0,0
						c0-0.074219-0.009277-0.129883-0.02832-0.175781c-0.022949-0.046875-0.031738-0.05957-0.031738-0.05957
						c-0.033203-0.039063-0.023926-0.09375,0.02002-0.121094l0.031738-0.019531
						c0.041992,0.037109,0.069336,0.078125,0.092285,0.120117s0.022949,0.041992,0.022949,0.041992
						c0.009766,0.047852,0.020996,0.115234,0.024902,0.149414C7.828613,40.166992,7.851563,40.229492,7.875488,40.271484z
						 M9.376465,40.706055c0,0.03125-0.041992,0.058594-0.092773,0.058594H7.362793c-0.05127,0-0.093262-0.026367-0.093262-0.058594
						s0.041992-0.057617,0.093262-0.057617h1.920898C9.334473,40.648438,9.376465,40.673828,9.376465,40.706055z M8.21582,40.324219
						c0,0-0.111328-0.351563-0.222168-0.458008c0,0-0.097168-0.115234,0.11084-0.032227c0,0,0.106445,0.051758,0.17627,0.259766
						c0,0,0.008789-0.379883,0.23584-0.443359c0,0,0.166992-0.06543,0.061035,0.037109c0,0-0.133789,0.142578-0.13916,0.317383
						c0,0,0.074219-0.09668,0.25-0.125c0,0,0.144043-0.035156,0,0.06543l-0.205566,0.22168
						c-0.03418,0.038086-0.067383,0.088867-0.070313,0.113281c-0.003906,0.024414-0.042969,0.066406-0.086914,0.092773
						C8.325684,40.373047,8.322754,40.375,8.21582,40.324219z M8.773926,40.271484
						c0.023926-0.041992,0.047852-0.118164,0.053711-0.168945l0.003906-0.032227
						c0.004395-0.046875,0.018066-0.087891,0.041992-0.129883c0.022949-0.041992,0.030273-0.049805,0.030273-0.049805
						c0.033691-0.039063,0.09668-0.047852,0.141113-0.020508l0.030762,0.020508
						c-0.045898,0.036133-0.074219,0.077148-0.091797,0.124023c-0.019043,0.045898-0.021973,0.086914-0.021973,0.086914
						c-0.003418,0.051758,0.032715,0.09375,0.082031,0.09375l0,0c0.004883-0.038086,0.018555-0.074219,0.036621-0.102539
						c0.019043-0.032227,0.019043-0.032227,0.019043-0.032227c0.036133-0.03125,0.098145-0.030273,0.13916,0.000977
						l0.041992,0.03125c-0.038086,0.023438-0.061035,0.041992-0.075195,0.055664
						c-0.019043,0.018555-0.019043,0.018555-0.019043,0.018555c-0.004883,0.015625,0.033203,0.02832,0.083984,0.02832h0.71582
						c0.050781,0,0.092773,0.03418,0.092773,0.076172c0,0.041016-0.041992,0.075195-0.092773,0.075195H8.822754
						C8.771484,40.34668,8.748535,40.3125,8.773926,40.271484z"/>
				</g>
			</g>
		</g>
	</g>
</g>
<g id="scrub_x5F_bd_11_">
	<g id="Scrub_x5F_FC_13_">
		<g id="Deleted_Symbol_1_13_">
			<path style="fill:#A5CDA6;" d="M9.454102,38.905273c-0.028809,0-0.053711-0.019531-0.0625-0.046875l-0.148926-0.484375
				c-0.010254-0.032227,0.006836-0.067383,0.039063-0.081055l0.07666-0.029297
				c0.012207-0.000977,0.023438-0.001953,0.032227-0.001953c0.036621,0.011719,0.04834,0.026367,0.054688,0.043945
				l0.146973,0.494141c0.009766,0.035156-0.009277,0.071289-0.042969,0.082031
				c-0.041016,0.012695-0.068359,0.018555-0.081055,0.021484L9.454102,38.905273z"/>
			<path style="fill:#A5CDA6;" d="M10.374023,38.782227c-0.039063,0-0.070801-0.032227-0.071777-0.072266l-0.006348-0.49707
				c0-0.039063-0.013672-0.057617-0.024902-0.069336c-0.013672-0.014648-0.035645-0.022461-0.060059-0.022461
				c-0.023926,0-0.063965,0.007813-0.11377,0.048828c-0.013184,0.009766-0.027832,0.014648-0.044922,0.014648
				C10.01416,38.179688,10,38.165039,9.993164,38.15332l-0.045898-0.068359c-0.021973-0.033203-0.01416-0.076172,0.019043-0.099609
				c0.085938-0.060547,0.174805-0.09375,0.255859-0.09375c0.085938,0,0.162109,0.038086,0.217773,0.109375
				c0.047852,0.063477,0.072754,0.134766,0.072754,0.211914l0.005859,0.461914l0.005859,0.037109
				c0,0.037109-0.032715,0.069336-0.071289,0.070313H10.374023z"/>
			<path style="fill:#A5CDA6;" d="M12.513184,38.848633c-0.026855-0.005859-0.053223-0.012695-0.076172-0.019531
				c-0.033691-0.010742-0.053711-0.045898-0.043945-0.080078l0.144043-0.496094
				c0.004883-0.017578,0.01709-0.03125,0.032715-0.040039l0.133789,0.023438c0.033203,0.012695,0.05127,0.048828,0.041016,0.082031
				l-0.154785,0.486328c-0.009277,0.02832-0.033691,0.045898-0.060547,0.045898L12.513184,38.848633z"/>
			<path style="fill:#A5CDA6;" d="M11.418457,38.740234c-0.046875,0-0.09375-0.017578-0.139648-0.050781
				c0.006836-0.013672-0.174316-0.900391-0.364258-1.183594c-0.024902-0.046875-0.037109-0.09668-0.030762-0.106445
				c0.045898,0.007813,0.09375,0.026367,0.168945,0.072266c0.015137,0.012695,0.185059,0.107422,0.291016,0.600586
				l0.036133,0.116211c0.016602-0.027344,0.044922-1.038086,0.400391-1.194336
				c0.032715-0.020508,0.084961-0.045898,0.111816-0.050781c-0.005859,0.006836-0.01416,0.032227-0.053711,0.09375
				c-0.01123,0.016602-0.214355,0.339844-0.225098,0.792969v0.117188c0.022949-0.013672,0.171875-0.28418,0.44873-0.342773
				c0.033203-0.012695,0.052246-0.015625,0.062988-0.016602c-0.008789,0.004883-0.022949,0.035156-0.09668,0.115234
				c-0.000977,0.000977-0.167969,0.170898-0.461914,0.776367l-0.024414,0.234375
				C11.518066,38.71582,11.475586,38.740234,11.418457,38.740234z"/>
		</g>
	</g>
</g>
<g id="scrub_x5F_bd_12_" style="enable-background:new    ;">
	<g id="Scrub_x5F_FC_14_">
		<g id="Deleted_Symbol_1_14_">
			<path style="fill:#A5CDA6;" d="M5.030273,38.141602c-0.028809,0-0.053711-0.019531-0.0625-0.046875l-0.148926-0.484375
				c-0.010254-0.032227,0.006836-0.067383,0.039063-0.081055L4.93457,37.5c0.012207-0.000977,0.023438-0.001953,0.032227-0.001953
				c0.036621,0.011719,0.04834,0.026367,0.054688,0.043945l0.146973,0.494141
				c0.009766,0.035156-0.009277,0.071289-0.042969,0.082031c-0.041016,0.012695-0.068359,0.018555-0.081055,0.021484
				L5.030273,38.141602z"/>
			<path style="fill:#A5CDA6;" d="M5.950195,38.018555c-0.039063,0-0.070801-0.032227-0.071777-0.072266l-0.006348-0.49707
				c0-0.039063-0.013672-0.057617-0.024902-0.069336c-0.013672-0.014648-0.035645-0.022461-0.060059-0.022461
				c-0.023926,0-0.063965,0.007813-0.11377,0.048828c-0.013184,0.009766-0.027832,0.014648-0.044922,0.014648
				c-0.038086-0.004883-0.052246-0.019531-0.059082-0.03125l-0.045898-0.068359
				c-0.021973-0.033203-0.01416-0.076172,0.019043-0.099609c0.085938-0.060547,0.174805-0.09375,0.255859-0.09375
				c0.085938,0,0.162109,0.038086,0.217773,0.109375c0.047852,0.063477,0.072754,0.134766,0.072754,0.211914l0.005859,0.461914
				l0.005859,0.037109c0,0.037109-0.032715,0.069336-0.071289,0.070313H5.950195z"/>
			<path style="fill:#A5CDA6;" d="M8.089355,38.084961C8.0625,38.079102,8.036133,38.072266,8.013184,38.06543
				c-0.033691-0.010742-0.053711-0.045898-0.043945-0.080078l0.144043-0.496094
				c0.004883-0.017578,0.01709-0.03125,0.032715-0.040039l0.133789,0.023438c0.033203,0.012695,0.05127,0.048828,0.041016,0.082031
				l-0.154785,0.486328c-0.009277,0.02832-0.033691,0.045898-0.060547,0.045898L8.089355,38.084961z"/>
			<path style="fill:#A5CDA6;" d="M6.994629,37.976563c-0.046875,0-0.09375-0.017578-0.139648-0.050781
				c0.006836-0.013672-0.174316-0.900391-0.364258-1.183594c-0.024902-0.046875-0.037109-0.09668-0.030762-0.106445
				c0.045898,0.007813,0.09375,0.026367,0.168945,0.072266c0.015137,0.012695,0.185059,0.107422,0.291016,0.600586
				l0.036133,0.116211c0.016602-0.027344,0.044922-1.038086,0.400391-1.194336
				c0.032715-0.020508,0.084961-0.045898,0.111816-0.050781c-0.005859,0.006836-0.01416,0.032227-0.053711,0.09375
				c-0.01123,0.016602-0.214355,0.339844-0.225098,0.792969v0.117188c0.022949-0.013672,0.171875-0.28418,0.44873-0.342773
				c0.033203-0.012695,0.052246-0.015625,0.062988-0.016602c-0.008789,0.004883-0.022949,0.035156-0.09668,0.115234
				c-0.000977,0.000977-0.167969,0.170898-0.461914,0.776367l-0.024414,0.234375
				C7.094238,37.952148,7.051758,37.976563,6.994629,37.976563z"/>
		</g>
	</g>
</g>
<g id="marsh_x5F_bd_10_" style="enable-background:new    ;">
	<g id="Marsh_x5F_FC_12_">
		<g>
			<g>
				<g>
					<path style="fill:#95CDC7;" d="M26.056641,34.996094c0.025391,0.041016,0.001953,0.075195-0.048828,0.075195h-1.163574
						c-0.050781,0-0.092773-0.03418-0.092773-0.075195c0-0.041992,0.041992-0.076172,0.092773-0.076172h0.808105
						c-0.003906-0.014648-0.008789-0.02832-0.027344-0.041992c-0.014648-0.013672-0.014648-0.013672-0.014648-0.013672
						c-0.033203-0.025391-0.025391-0.072266,0.015625-0.103516l0.041016-0.03125
						c0.037109,0.033203,0.068359,0.06543,0.087891,0.098633c0.021484,0.026367,0.021484,0.026367,0.021484,0.026367
						c0.004883,0.02832,0.009766,0.054688,0.009766,0.058594s0.039063,0.007813,0.087891,0.007813l0,0
						c0-0.074219-0.009766-0.129883-0.02832-0.175781c-0.023438-0.046875-0.032227-0.05957-0.032227-0.05957
						c-0.033203-0.039063-0.023438-0.09375,0.020508-0.121094l0.03125-0.019531
						c0.041992,0.037109,0.069336,0.078125,0.092773,0.120117c0.022461,0.041992,0.022461,0.041992,0.022461,0.041992
						c0.009766,0.047852,0.021484,0.115234,0.025391,0.149414C26.009766,34.891602,26.032227,34.954102,26.056641,34.996094z
						 M27.557617,35.430664c0,0.03125-0.041992,0.058594-0.092773,0.058594h-1.920898
						c-0.05127,0-0.093262-0.026367-0.093262-0.058594s0.041992-0.057617,0.093262-0.057617h1.920898
						C27.515625,35.373047,27.557617,35.398438,27.557617,35.430664z M26.396484,35.048828c0,0-0.111328-0.351563-0.22168-0.458008
						c0,0-0.097656-0.115234,0.110352-0.032227c0,0,0.106445,0.051758,0.176758,0.259766c0,0,0.008789-0.379883,0.236328-0.443359
						c0,0,0.166992-0.06543,0.060547,0.037109c0,0-0.133789,0.142578-0.138672,0.317383c0,0,0.074219-0.09668,0.25-0.125
						c0,0,0.143555-0.035156,0,0.06543l-0.206055,0.22168c-0.03418,0.038086-0.067383,0.088867-0.070313,0.113281
						c-0.003906,0.024414-0.042969,0.066406-0.086914,0.092773C26.506836,35.097656,26.503906,35.099609,26.396484,35.048828z
						 M26.955078,34.996094c0.024414-0.041992,0.047852-0.118164,0.053711-0.168945l0.003906-0.032227
						c0.004883-0.046875,0.018555-0.087891,0.041992-0.129883s0.030273-0.049805,0.030273-0.049805
						c0.03418-0.039063,0.09668-0.047852,0.141602-0.020508l0.030273,0.020508
						c-0.045898,0.036133-0.074219,0.077148-0.091797,0.124023c-0.018555,0.045898-0.021484,0.086914-0.021484,0.086914
						c-0.003906,0.051758,0.032227,0.09375,0.082031,0.09375l0,0c0.004883-0.038086,0.018555-0.074219,0.036133-0.102539
						c0.019531-0.032227,0.019531-0.032227,0.019531-0.032227c0.036133-0.03125,0.097656-0.030273,0.138672,0.000977
						l0.041992,0.03125c-0.038086,0.023438-0.060547,0.041992-0.075195,0.055664
						c-0.018555,0.018555-0.018555,0.018555-0.018555,0.018555c-0.004883,0.015625,0.033203,0.02832,0.083984,0.02832h0.714844
						c0.050781,0,0.092773,0.03418,0.092773,0.076172c0,0.041016-0.041992,0.075195-0.092773,0.075195h-1.163086
						C26.953125,35.071289,26.929688,35.037109,26.955078,34.996094z"/>
				</g>
			</g>
		</g>
	</g>
</g>
<g id="scrub_x5F_bd_8_" style="enable-background:new    ;">
	<g id="Scrub_x5F_FC_10_">
		<g id="Deleted_Symbol_1_10_">
			<path style="fill:#A5CDA6;" d="M27.634766,33.629883c-0.029297,0-0.054688-0.019531-0.063477-0.046875l-0.148438-0.484375
				c-0.010742-0.032227,0.006836-0.067383,0.039063-0.081055l0.076172-0.029297
				c0.012695-0.000977,0.023438-0.001953,0.032227-0.001953c0.037109,0.011719,0.048828,0.026367,0.055664,0.043945
				l0.146484,0.494141c0.009766,0.035156-0.008789,0.071289-0.042969,0.082031
				c-0.041016,0.012695-0.068359,0.018555-0.081055,0.021484L27.634766,33.629883z"/>
			<path style="fill:#A5CDA6;" d="M28.553711,33.506836c-0.039063,0-0.070313-0.032227-0.071289-0.072266l-0.006836-0.49707
				c0-0.039063-0.013672-0.057617-0.024414-0.069336c-0.013672-0.014648-0.036133-0.022461-0.060547-0.022461
				c-0.023438,0-0.063477,0.007813-0.113281,0.048828c-0.013672,0.009766-0.02832,0.014648-0.044922,0.014648
				c-0.038086-0.004883-0.052734-0.019531-0.05957-0.03125l-0.045898-0.068359
				c-0.021484-0.033203-0.013672-0.076172,0.019531-0.099609c0.085938-0.060547,0.174805-0.09375,0.255859-0.09375
				c0.085938,0,0.162109,0.038086,0.217773,0.109375c0.047852,0.063477,0.073242,0.134766,0.073242,0.211914l0.005859,0.461914
				l0.005859,0.037109c0,0.037109-0.033203,0.069336-0.072266,0.070313H28.553711z"/>
			<path style="fill:#A5CDA6;" d="M30.693359,33.573242c-0.027344-0.005859-0.053711-0.012695-0.076172-0.019531
				c-0.03418-0.010742-0.053711-0.045898-0.043945-0.080078l0.143555-0.496094
				c0.004883-0.017578,0.017578-0.03125,0.033203-0.040039l0.133789,0.023438
				c0.033203,0.012695,0.051758,0.048828,0.041016,0.082031l-0.154297,0.486328
				c-0.009766,0.02832-0.03418,0.045898-0.061523,0.045898L30.693359,33.573242z"/>
			<path style="fill:#A5CDA6;" d="M29.598633,33.464844c-0.046875,0-0.09375-0.017578-0.139648-0.050781
				c0.006836-0.013672-0.174805-0.900391-0.364258-1.183594c-0.024414-0.046875-0.037109-0.09668-0.030273-0.106445
				c0.045898,0.007813,0.09375,0.026367,0.167969,0.072266c0.015625,0.012695,0.185547,0.107422,0.291016,0.600586
				l0.036133,0.116211c0.016602-0.027344,0.044922-1.038086,0.401367-1.194336
				c0.032227-0.020508,0.084961-0.045898,0.111328-0.050781c-0.005859,0.006836-0.013672,0.032227-0.053711,0.09375
				c-0.010742,0.016602-0.213867,0.339844-0.224609,0.792969v0.117188c0.022461-0.013672,0.171875-0.28418,0.448242-0.342773
				c0.033203-0.012695,0.051758-0.015625,0.0625-0.016602c-0.008789,0.004883-0.022461,0.035156-0.095703,0.115234
				c-0.000977,0.000977-0.167969,0.170898-0.461914,0.776367l-0.024414,0.234375
				C29.698242,33.44043,29.655273,33.464844,29.598633,33.464844z"/>
		</g>
	</g>
</g>
<g id="scrub_x5F_bd_7_" style="enable-background:new    ;">
	<g id="Scrub_x5F_FC_9_">
		<g id="Deleted_Symbol_1_9_">
			<path style="fill:#A5CDA6;" d="M23.210938,32.866211c-0.028809,0-0.053711-0.019531-0.0625-0.046875l-0.148926-0.484375
				c-0.010254-0.032227,0.006836-0.067383,0.039063-0.081055l0.07666-0.029297
				c0.012207-0.000977,0.023438-0.001953,0.032227-0.001953c0.036621,0.011719,0.04834,0.026367,0.054688,0.043945
				l0.146973,0.494141c0.009766,0.035156-0.009277,0.071289-0.042969,0.082031
				c-0.041016,0.012695-0.068359,0.018555-0.081055,0.021484L23.210938,32.866211z"/>
			<path style="fill:#A5CDA6;" d="M24.130859,32.743164c-0.039063,0-0.070801-0.032227-0.071777-0.072266l-0.006348-0.49707
				c0-0.039063-0.013672-0.057617-0.024902-0.069336c-0.013672-0.014648-0.035645-0.022461-0.060059-0.022461
				c-0.023926,0-0.063965,0.007813-0.11377,0.048828c-0.013184,0.009766-0.027832,0.014648-0.044922,0.014648
				c-0.038086-0.004883-0.052246-0.019531-0.059082-0.03125l-0.045898-0.068359
				c-0.021973-0.033203-0.01416-0.076172,0.019043-0.099609c0.085938-0.060547,0.174805-0.09375,0.255859-0.09375
				c0.085938,0,0.162109,0.038086,0.217773,0.109375c0.047852,0.063477,0.072754,0.134766,0.072754,0.211914l0.005859,0.461914
				l0.005859,0.037109c0,0.037109-0.032715,0.069336-0.071289,0.070313H24.130859z"/>
			<path style="fill:#A5CDA6;" d="M26.269531,32.80957c-0.026367-0.005859-0.052734-0.012695-0.076172-0.019531
				c-0.033203-0.010742-0.053711-0.045898-0.043945-0.080078l0.144531-0.496094
				c0.004883-0.017578,0.016602-0.03125,0.033203-0.040039l0.133789,0.023438
				c0.033203,0.012695,0.050781,0.048828,0.041016,0.082031l-0.155273,0.486328
				c-0.008789,0.02832-0.03418,0.045898-0.060547,0.045898L26.269531,32.80957z"/>
			<path style="fill:#A5CDA6;" d="M25.175293,32.701172c-0.046875,0-0.09375-0.017578-0.139648-0.050781
				c0.006836-0.013672-0.174316-0.900391-0.364258-1.183594c-0.024902-0.046875-0.037109-0.09668-0.030762-0.106445
				c0.045898,0.007813,0.09375,0.026367,0.168945,0.072266c0.015137,0.012695,0.185059,0.107422,0.291016,0.600586
				l0.036133,0.116211c0.016602-0.027344,0.044922-1.038086,0.400391-1.194336
				c0.033203-0.020508,0.084961-0.045898,0.112305-0.050781c-0.005859,0.006836-0.014648,0.032227-0.053711,0.09375
				c-0.011719,0.016602-0.214844,0.339844-0.225586,0.792969v0.117188c0.022949-0.013672,0.171875-0.28418,0.448242-0.342773
				c0.033203-0.012695,0.052734-0.015625,0.063477-0.016602c-0.008789,0.004883-0.023438,0.035156-0.09668,0.115234
				c-0.000977,0.000977-0.167969,0.170898-0.461914,0.776367l-0.024414,0.234375
				C25.274902,32.676758,25.232422,32.701172,25.175293,32.701172z"/>
		</g>
	</g>
</g>
<g id="marsh_x5F_bd_13_" style="enable-background:new    ;">
	<g id="Marsh_x5F_FC_15_">
		<g>
			<g>
				<g>
					<path style="fill:#95CDC7;" d="M5.66748,26.314453c0.025391,0.041016,0.002441,0.075195-0.048828,0.075195H4.455078
						c-0.050781,0-0.092773-0.03418-0.092773-0.075195c0-0.041992,0.041992-0.076172,0.092773-0.076172h0.808594
						c-0.003906-0.014648-0.008789-0.02832-0.027832-0.041992c-0.01416-0.013672-0.01416-0.013672-0.01416-0.013672
						c-0.033203-0.025391-0.025879-0.072266,0.015137-0.103516l0.041016-0.03125
						c0.037109,0.033203,0.068848,0.06543,0.087891,0.098633c0.021973,0.026367,0.021973,0.026367,0.021973,0.026367
						c0.004883,0.02832,0.009766,0.054688,0.009766,0.058594s0.039063,0.007813,0.087402,0.007813l0,0
						c0-0.074219-0.009277-0.129883-0.02832-0.175781c-0.022949-0.046875-0.031738-0.05957-0.031738-0.05957
						c-0.033203-0.039063-0.023926-0.09375,0.02002-0.121094l0.031738-0.019531
						c0.041992,0.037109,0.069336,0.078125,0.092285,0.120117s0.022949,0.041992,0.022949,0.041992
						c0.009766,0.047852,0.020996,0.115234,0.024902,0.149414C5.620605,26.209961,5.643555,26.272461,5.66748,26.314453z
						 M7.168457,26.749023c0,0.03125-0.041992,0.058594-0.092773,0.058594H5.154785c-0.05127,0-0.093262-0.026367-0.093262-0.058594
						s0.041992-0.057617,0.093262-0.057617h1.920898C7.126465,26.691406,7.168457,26.716797,7.168457,26.749023z
						 M6.007813,26.367188c0,0-0.111328-0.351563-0.222168-0.458008c0,0-0.097168-0.115234,0.11084-0.032227
						c0,0,0.106445,0.051758,0.17627,0.259766c0,0,0.008789-0.379883,0.23584-0.443359c0,0,0.166992-0.06543,0.061035,0.037109
						c0,0-0.133789,0.142578-0.13916,0.317383c0,0,0.074219-0.09668,0.25-0.125c0,0,0.144043-0.035156,0,0.06543l-0.205566,0.22168
						c-0.03418,0.038086-0.067383,0.088867-0.070313,0.113281c-0.003906,0.024414-0.042969,0.066406-0.086914,0.092773
						C6.117676,26.416016,6.114746,26.417969,6.007813,26.367188z M6.565918,26.314453
						c0.023926-0.041992,0.047852-0.118164,0.053711-0.168945l0.003906-0.032227
						c0.004395-0.046875,0.018066-0.087891,0.041992-0.129883c0.022949-0.041992,0.030273-0.049805,0.030273-0.049805
						c0.033691-0.039063,0.09668-0.047852,0.141113-0.020508l0.030762,0.020508
						c-0.045898,0.036133-0.074219,0.077148-0.091797,0.124023c-0.019043,0.045898-0.021973,0.086914-0.021973,0.086914
						c-0.003418,0.051758,0.032715,0.09375,0.082031,0.09375l0,0c0.004883-0.038086,0.018555-0.074219,0.036621-0.102539
						c0.019043-0.032227,0.019043-0.032227,0.019043-0.032227c0.036133-0.03125,0.098145-0.030273,0.13916,0.000977
						l0.041992,0.03125c-0.038086,0.023438-0.061035,0.041992-0.075195,0.055664
						c-0.019043,0.018555-0.019043,0.018555-0.019043,0.018555c-0.004883,0.015625,0.033203,0.02832,0.083984,0.02832h0.71582
						c0.050781,0,0.092773,0.03418,0.092773,0.076172c0,0.041016-0.041992,0.075195-0.092773,0.075195H6.614746
						C6.563477,26.389648,6.540527,26.355469,6.565918,26.314453z"/>
				</g>
			</g>
		</g>
	</g>
</g>
<g id="scrub_x5F_bd_13_" style="enable-background:new    ;">
	<g id="Scrub_x5F_FC_15_">
		<g id="Deleted_Symbol_1_15_">
			<path style="fill:#A5CDA6;" d="M7.246094,24.947754c-0.028809,0-0.053711-0.019531-0.0625-0.046875l-0.148926-0.483887
				c-0.010254-0.032227,0.006836-0.067383,0.039063-0.081055l0.07666-0.029297
				c0.012207-0.000977,0.023438-0.001953,0.032227-0.001953c0.036621,0.011719,0.04834,0.026367,0.054688,0.043945
				l0.146973,0.493652c0.009766,0.035156-0.009277,0.071289-0.042969,0.082031
				c-0.041016,0.012695-0.068359,0.018555-0.081055,0.021484L7.246094,24.947754z"/>
			<path style="fill:#A5CDA6;" d="M8.166016,24.824707c-0.039063,0-0.070801-0.032227-0.071777-0.072266l-0.006348-0.496582
				c0-0.039063-0.013672-0.057617-0.024902-0.069336c-0.013672-0.014648-0.035645-0.022461-0.060059-0.022461
				c-0.023926,0-0.063965,0.007813-0.11377,0.048828c-0.013184,0.009766-0.027832,0.014648-0.044922,0.014648
				c-0.038086-0.004883-0.052246-0.019531-0.059082-0.03125L7.739258,24.12793
				c-0.021973-0.033203-0.01416-0.076172,0.019043-0.099609c0.085938-0.060547,0.174805-0.09375,0.255859-0.09375
				c0.085938,0,0.162109,0.038086,0.217773,0.109375c0.047852,0.063477,0.072754,0.134766,0.072754,0.211914l0.005859,0.461426
				l0.005859,0.037109c0,0.037109-0.032715,0.069336-0.071289,0.070313H8.166016z"/>
			<path style="fill:#A5CDA6;" d="M10.305176,24.891113c-0.026855-0.005859-0.053223-0.012695-0.076172-0.019531
				c-0.033691-0.010742-0.053711-0.045898-0.043945-0.080078l0.144043-0.495605
				c0.004883-0.017578,0.01709-0.03125,0.032715-0.040039l0.133789,0.023438c0.033203,0.012695,0.05127,0.048828,0.041016,0.082031
				l-0.154785,0.48584c-0.009277,0.02832-0.033691,0.045898-0.060547,0.045898L10.305176,24.891113z"/>
			<path style="fill:#A5CDA6;" d="M9.210449,24.782715c-0.046875,0-0.09375-0.017578-0.139648-0.050781
				c0.006836-0.013672-0.174316-0.899902-0.364258-1.183105c-0.024902-0.046875-0.037109-0.09668-0.030762-0.105957
				c0.045898,0.007324,0.09375,0.025879,0.168945,0.071777c0.015137,0.012695,0.185059,0.107422,0.291016,0.600586
				l0.036133,0.116211c0.016602-0.027344,0.044922-1.037598,0.400391-1.193848
				c0.032715-0.020508,0.084961-0.045898,0.111816-0.050781c-0.005859,0.006836-0.01416,0.032227-0.053711,0.09375
				c-0.01123,0.016602-0.214355,0.339844-0.225098,0.79248v0.117188c0.022949-0.013672,0.171875-0.28418,0.44873-0.342773
				c0.033203-0.012695,0.052246-0.015625,0.062988-0.016602c-0.008789,0.004883-0.022949,0.035156-0.09668,0.115234
				c-0.000977,0.000977-0.167969,0.170898-0.461914,0.775879l-0.024414,0.234375
				C9.310059,24.758301,9.267578,24.782715,9.210449,24.782715z"/>
		</g>
	</g>
</g>
<g id="marsh_x5F_bd_12_" style="enable-background:new    ;">
	<g id="Marsh_x5F_FC_14_">
		<g>
			<g>
				<g>
					<path style="fill:#95CDC7;" d="M3.912598,23.278809c0.025391,0.041016,0.002441,0.075195-0.048828,0.075195H2.700195
						c-0.050781,0-0.092773-0.03418-0.092773-0.075195c0-0.041992,0.041992-0.076172,0.092773-0.076172h0.808594
						C3.504883,23.187988,3.5,23.174316,3.480957,23.160645c-0.01416-0.013672-0.01416-0.013672-0.01416-0.013672
						c-0.033203-0.025391-0.025879-0.072266,0.015137-0.103516l0.041016-0.03125
						c0.037109,0.033203,0.068848,0.06543,0.087891,0.098633c0.021973,0.026367,0.021973,0.026367,0.021973,0.026367
						c0.004883,0.02832,0.009766,0.054688,0.009766,0.058594s0.039063,0.007813,0.087402,0.007813l0,0
						c0-0.074219-0.009277-0.129883-0.02832-0.175781c-0.022949-0.046875-0.031738-0.05957-0.031738-0.05957
						c-0.033203-0.039063-0.023926-0.09375,0.02002-0.121094l0.031738-0.019531
						c0.041992,0.037109,0.069336,0.078125,0.092285,0.120117s0.022949,0.041992,0.022949,0.041992
						C3.84668,23.037598,3.85791,23.10498,3.861816,23.13916C3.865723,23.174316,3.888672,23.236816,3.912598,23.278809z
						 M5.413574,23.713379c0,0.03125-0.041992,0.058594-0.092773,0.058594H3.399902c-0.05127,0-0.093262-0.026367-0.093262-0.058594
						s0.041992-0.057617,0.093262-0.057617h1.920898C5.371582,23.655762,5.413574,23.681152,5.413574,23.713379z M4.25293,23.331543
						c0,0-0.111328-0.351563-0.222168-0.458008c0,0-0.097168-0.115234,0.11084-0.032227c0,0,0.106445,0.051758,0.17627,0.259766
						c0,0,0.008789-0.379883,0.23584-0.443359c0,0,0.166992-0.06543,0.061035,0.037109c0,0-0.133789,0.142578-0.13916,0.317383
						c0,0,0.074219-0.09668,0.25-0.125c0,0,0.144043-0.035156,0,0.06543l-0.205566,0.22168
						c-0.03418,0.038086-0.067383,0.088867-0.070313,0.113281c-0.003906,0.024414-0.042969,0.066406-0.086914,0.092773
						C4.362793,23.380371,4.359863,23.382324,4.25293,23.331543z M4.811035,23.278809
						c0.023926-0.041992,0.047852-0.118164,0.053711-0.168945l0.003906-0.032227
						c0.004395-0.046875,0.018066-0.087891,0.041992-0.129883c0.022949-0.041992,0.030273-0.049805,0.030273-0.049805
						c0.033691-0.039063,0.09668-0.047852,0.141113-0.020508l0.030762,0.020508
						c-0.045898,0.036133-0.074219,0.077148-0.091797,0.124023c-0.019043,0.045898-0.021973,0.086914-0.021973,0.086914
						c-0.003418,0.051758,0.032715,0.09375,0.082031,0.09375l0,0c0.004883-0.038086,0.018555-0.074219,0.036621-0.102539
						c0.019043-0.032227,0.019043-0.032227,0.019043-0.032227c0.036133-0.03125,0.098145-0.030273,0.13916,0.000977
						l0.041992,0.03125c-0.038086,0.023438-0.061035,0.041992-0.075195,0.055664
						c-0.019043,0.018555-0.019043,0.018555-0.019043,0.018555c-0.004883,0.015625,0.033203,0.02832,0.083984,0.02832h0.71582
						c0.050781,0,0.092773,0.03418,0.092773,0.076172c0,0.041016-0.041992,0.075195-0.092773,0.075195H4.859863
						C4.808594,23.354004,4.785645,23.319824,4.811035,23.278809z"/>
				</g>
			</g>
		</g>
	</g>
</g>
<g id="marsh_x5F_bd_11_" style="enable-background:new    ;">
	<g id="Marsh_x5F_FC_13_">
		<g>
			<g>
				<g>
					<path style="fill:#95CDC7;" d="M10.060059,15.903809c0.025391,0.041016,0.002441,0.075195-0.048828,0.075195H8.847656
						c-0.050781,0-0.092773-0.03418-0.092773-0.075195c0-0.041992,0.041992-0.076172,0.092773-0.076172H9.65625
						c-0.003906-0.014648-0.008789-0.02832-0.027832-0.041992c-0.01416-0.013672-0.01416-0.013672-0.01416-0.013672
						c-0.033203-0.025391-0.025879-0.072266,0.015137-0.103516l0.041016-0.03125
						c0.037109,0.033203,0.068848,0.06543,0.087891,0.098633c0.021973,0.026367,0.021973,0.026367,0.021973,0.026367
						c0.004883,0.02832,0.009766,0.054688,0.009766,0.058594s0.039063,0.007813,0.087402,0.007813l0,0
						c0-0.074219-0.009277-0.129883-0.02832-0.175781c-0.022949-0.046875-0.031738-0.05957-0.031738-0.05957
						c-0.033203-0.039063-0.023926-0.09375,0.02002-0.121094l0.031738-0.019531
						c0.041992,0.037109,0.069336,0.078125,0.092285,0.120117s0.022949,0.041992,0.022949,0.041992
						c0.009766,0.047852,0.020996,0.115234,0.024902,0.149414C10.013184,15.799316,10.036133,15.861816,10.060059,15.903809z
						 M11.561035,16.338379c0,0.03125-0.041992,0.058594-0.092773,0.058594H9.547363
						c-0.05127,0-0.093262-0.026367-0.093262-0.058594s0.041992-0.057617,0.093262-0.057617h1.920898
						C11.519043,16.280762,11.561035,16.306152,11.561035,16.338379z M10.400391,15.956543c0,0-0.111328-0.351563-0.222168-0.458008
						c0,0-0.097168-0.115234,0.11084-0.032227c0,0,0.106445,0.051758,0.17627,0.259766c0,0,0.008789-0.379883,0.23584-0.443359
						c0,0,0.166992-0.06543,0.061035,0.037109c0,0-0.133789,0.142578-0.13916,0.317383c0,0,0.074219-0.09668,0.25-0.125
						c0,0,0.144043-0.035156,0,0.06543l-0.205566,0.22168c-0.03418,0.038086-0.067383,0.088867-0.070313,0.113281
						c-0.003906,0.024414-0.042969,0.066406-0.086914,0.092773C10.510254,16.005371,10.507324,16.007324,10.400391,15.956543z
						 M10.958496,15.903809c0.023926-0.041992,0.047852-0.118164,0.053711-0.168945l0.003906-0.032227
						c0.004395-0.046875,0.018066-0.087891,0.041992-0.129883c0.022949-0.041992,0.030273-0.049805,0.030273-0.049805
						c0.033691-0.039063,0.09668-0.047852,0.141113-0.020508l0.030762,0.020508
						c-0.045898,0.036133-0.074219,0.077148-0.091797,0.124023c-0.019043,0.045898-0.021973,0.086914-0.021973,0.086914
						c-0.003418,0.051758,0.032715,0.09375,0.082031,0.09375l0,0c0.004883-0.038086,0.018555-0.074219,0.036621-0.102539
						c0.019043-0.032227,0.019043-0.032227,0.019043-0.032227c0.036133-0.03125,0.098145-0.030273,0.13916,0.000977
						l0.041992,0.03125c-0.038086,0.023438-0.061035,0.041992-0.075195,0.055664
						c-0.019043,0.018555-0.019043,0.018555-0.019043,0.018555c-0.004883,0.015625,0.033203,0.02832,0.083984,0.02832h0.71582
						c0.050781,0,0.092773,0.03418,0.092773,0.076172c0,0.041016-0.041992,0.075195-0.092773,0.075195h-1.163574
						C10.956055,15.979004,10.933105,15.944824,10.958496,15.903809z"/>
				</g>
			</g>
		</g>
	</g>
</g>
<g id="scrub_x5F_bd_14_" style="enable-background:new    ;">
	<g id="Scrub_x5F_FC_16_">
		<g id="Deleted_Symbol_1_16_">
			<path style="fill:#A5CDA6;" d="M11.638672,14.537598c-0.028809,0-0.053711-0.019531-0.0625-0.046875l-0.148926-0.483887
				c-0.010254-0.032227,0.006836-0.067383,0.039063-0.081055l0.07666-0.029297
				c0.012207-0.000977,0.023438-0.001953,0.032227-0.001953c0.036621,0.011719,0.04834,0.026367,0.054688,0.043945
				l0.146973,0.493652c0.009766,0.035156-0.009277,0.071289-0.042969,0.082031
				c-0.041016,0.012695-0.068359,0.018555-0.081055,0.021484L11.638672,14.537598z"/>
			<path style="fill:#A5CDA6;" d="M12.558594,14.414551c-0.039063,0-0.070801-0.032227-0.071777-0.072266l-0.006348-0.496582
				c0-0.039063-0.013672-0.057617-0.024902-0.069336c-0.013672-0.014648-0.035645-0.022461-0.060059-0.022461
				c-0.023926,0-0.063965,0.007813-0.11377,0.048828c-0.013184,0.009766-0.027832,0.014648-0.044922,0.014648
				c-0.038086-0.004883-0.052246-0.019531-0.059082-0.03125l-0.045898-0.068359
				c-0.021973-0.033203-0.01416-0.076172,0.019043-0.099609c0.085938-0.060547,0.174805-0.09375,0.255859-0.09375
				c0.085938,0,0.162109,0.038086,0.217773,0.109375c0.047852,0.063477,0.072754,0.134766,0.072754,0.211914l0.005859,0.461426
				l0.005859,0.037109c0,0.037109-0.032715,0.069336-0.071289,0.070313H12.558594z"/>
			<path style="fill:#A5CDA6;" d="M14.697754,14.480957c-0.026855-0.005859-0.053223-0.012695-0.076172-0.019531
				c-0.033691-0.010742-0.053711-0.045898-0.043945-0.080078l0.144043-0.495605
				c0.004883-0.017578,0.01709-0.03125,0.032715-0.040039l0.133789,0.023438c0.033203,0.012695,0.05127,0.048828,0.041016,0.082031
				l-0.154785,0.48584c-0.009277,0.02832-0.033691,0.045898-0.060547,0.045898L14.697754,14.480957z"/>
			<path style="fill:#A5CDA6;" d="M13.603027,14.372559c-0.046875,0-0.09375-0.017578-0.139648-0.050781
				c0.006836-0.013672-0.174316-0.899902-0.364258-1.183105c-0.024902-0.046875-0.037109-0.09668-0.030762-0.105957
				c0.045898,0.007324,0.09375,0.025879,0.168945,0.071777c0.015137,0.012695,0.185059,0.107422,0.291016,0.600586
				l0.036133,0.116211c0.016602-0.027344,0.044922-1.037598,0.400391-1.193848
				c0.032715-0.020508,0.084961-0.045898,0.111816-0.050781c-0.005859,0.006836-0.01416,0.032227-0.053711,0.09375
				c-0.01123,0.016602-0.214355,0.339844-0.225098,0.79248v0.117188c0.022949-0.013672,0.171875-0.28418,0.44873-0.342773
				c0.033203-0.012695,0.052246-0.015625,0.062988-0.016602c-0.008789,0.004883-0.022949,0.035156-0.09668,0.115234
				c-0.000977,0.000977-0.167969,0.170898-0.461914,0.775879l-0.024414,0.234375
				C13.702637,14.348145,13.660156,14.372559,13.603027,14.372559z"/>
		</g>
	</g>
</g>
<g id="scrub_x5F_bd_15_" style="enable-background:new    ;">
	<g id="Scrub_x5F_FC_17_">
		<g id="Deleted_Symbol_1_17_">
			<path style="fill:#A5CDA6;" d="M7.214844,13.773926c-0.028809,0-0.053711-0.019531-0.0625-0.046875l-0.148926-0.483887
				c-0.010254-0.032227,0.006836-0.067383,0.039063-0.081055l0.07666-0.029297
				c0.012207-0.000977,0.023438-0.001953,0.032227-0.001953c0.036621,0.011719,0.04834,0.026367,0.054688,0.043945
				l0.146973,0.493652c0.009766,0.035156-0.009277,0.071289-0.042969,0.082031
				c-0.041016,0.012695-0.068359,0.018555-0.081055,0.021484L7.214844,13.773926z"/>
			<path style="fill:#A5CDA6;" d="M8.134766,13.650879c-0.039063,0-0.070801-0.032227-0.071777-0.072266l-0.006348-0.496582
				c0-0.039063-0.013672-0.057617-0.024902-0.069336c-0.013672-0.014648-0.035645-0.022461-0.060059-0.022461
				c-0.023926,0-0.063965,0.007813-0.11377,0.048828c-0.013184,0.009766-0.027832,0.014648-0.044922,0.014648
				c-0.038086-0.004883-0.052246-0.019531-0.059082-0.03125l-0.045898-0.068359
				c-0.021973-0.033203-0.01416-0.076172,0.019043-0.099609c0.085938-0.060547,0.174805-0.09375,0.255859-0.09375
				c0.085938,0,0.162109,0.038086,0.217773,0.109375c0.047852,0.063477,0.072754,0.134766,0.072754,0.211914l0.005859,0.461426
				l0.005859,0.037109c0,0.037109-0.032715,0.069336-0.071289,0.070313H8.134766z"/>
			<path style="fill:#A5CDA6;" d="M10.273926,13.717285c-0.026855-0.005859-0.053223-0.012695-0.076172-0.019531
				c-0.033691-0.010742-0.053711-0.045898-0.043945-0.080078l0.144043-0.495605
				c0.004883-0.017578,0.01709-0.03125,0.032715-0.040039l0.133789,0.023438c0.033203,0.012695,0.05127,0.048828,0.041016,0.082031
				l-0.154785,0.48584c-0.009277,0.02832-0.033691,0.045898-0.060547,0.045898L10.273926,13.717285z"/>
			<path style="fill:#A5CDA6;" d="M9.179199,13.608887c-0.046875,0-0.09375-0.017578-0.139648-0.050781
				c0.006836-0.013672-0.174316-0.899902-0.364258-1.183105c-0.024902-0.046875-0.037109-0.09668-0.030762-0.105957
				c0.045898,0.007324,0.09375,0.025879,0.168945,0.071777c0.015137,0.012695,0.185059,0.107422,0.291016,0.600586
				l0.036133,0.116211c0.016602-0.027344,0.044922-1.037598,0.400391-1.193848
				c0.032715-0.020508,0.084961-0.045898,0.111816-0.050781c-0.005859,0.006836-0.01416,0.032227-0.053711,0.09375
				c-0.01123,0.016602-0.214355,0.339844-0.225098,0.79248v0.117188c0.022949-0.013672,0.171875-0.28418,0.44873-0.342773
				c0.033203-0.012695,0.052246-0.015625,0.062988-0.016602c-0.008789,0.004883-0.022949,0.035156-0.09668,0.115234
				c-0.000977,0.000977-0.167969,0.170898-0.461914,0.775879L9.302734,13.58252
				C9.278809,13.584473,9.236328,13.608887,9.179199,13.608887z"/>
		</g>
	</g>
</g>
<g id="marsh_x5F_bd_2_" style="enable-background:new    ;">
	<g id="Marsh_x5F_FC_4_">
		<g>
			<g>
				<g>
					<path style="fill:#95CDC7;" d="M25.34375,6.120605c0.025391,0.041016,0.002441,0.075195-0.048828,0.075195h-1.163574
						c-0.050781,0-0.092773-0.03418-0.092773-0.075195c0-0.041992,0.041992-0.076172,0.092773-0.076172h0.808594
						c-0.003906-0.014648-0.008789-0.02832-0.027832-0.041992c-0.01416-0.013672-0.01416-0.013672-0.01416-0.013672
						c-0.033203-0.025391-0.025879-0.072266,0.015137-0.103516l0.041016-0.03125
						c0.037109,0.033203,0.068848,0.06543,0.087891,0.098633c0.021973,0.026367,0.021973,0.026367,0.021973,0.026367
						c0.004883,0.02832,0.009766,0.054688,0.009766,0.058594s0.039063,0.007813,0.087402,0.007813l0,0
						c0-0.074219-0.009277-0.129883-0.02832-0.175781c-0.022949-0.046875-0.031738-0.05957-0.031738-0.05957
						c-0.033203-0.039063-0.023926-0.09375,0.02002-0.121094l0.031738-0.019531
						c0.041992,0.037109,0.069336,0.078125,0.092285,0.120117s0.022949,0.041992,0.022949,0.041992
						c0.009766,0.047852,0.020996,0.115234,0.024902,0.149414C25.296875,6.016113,25.319824,6.078613,25.34375,6.120605z
						 M26.844727,6.555176c0,0.03125-0.041992,0.058594-0.092773,0.058594h-1.920898
						c-0.05127,0-0.093262-0.026367-0.093262-0.058594s0.041992-0.057617,0.093262-0.057617h1.920898
						C26.802734,6.497559,26.844727,6.522949,26.844727,6.555176z M25.683594,6.17334c0,0-0.111328-0.351563-0.22168-0.458008
						c0,0-0.097168-0.115234,0.110352-0.032227c0,0,0.106445,0.051758,0.176758,0.259766c0,0,0.008789-0.379883,0.236328-0.443359
						c0,0,0.166992-0.06543,0.060547,0.037109c0,0-0.133789,0.142578-0.138672,0.317383c0,0,0.074219-0.09668,0.25-0.125
						c0,0,0.143555-0.035156,0,0.06543l-0.206055,0.22168c-0.03418,0.038086-0.067383,0.088867-0.070313,0.113281
						c-0.003906,0.024414-0.042969,0.066406-0.086914,0.092773C25.793945,6.222168,25.791016,6.224121,25.683594,6.17334z
						 M26.242188,6.120605c0.024414-0.041992,0.047852-0.118164,0.053711-0.168945l0.003906-0.032227
						c0.004883-0.046875,0.018555-0.087891,0.041992-0.129883s0.030273-0.049805,0.030273-0.049805
						c0.03418-0.039063,0.09668-0.047852,0.141602-0.020508l0.030273,0.020508
						c-0.045898,0.036133-0.074219,0.077148-0.091797,0.124023c-0.018555,0.045898-0.021484,0.086914-0.021484,0.086914
						c-0.003906,0.051758,0.032227,0.09375,0.082031,0.09375l0,0c0.004883-0.038086,0.018555-0.074219,0.036133-0.102539
						c0.019531-0.032227,0.019531-0.032227,0.019531-0.032227c0.036133-0.03125,0.097656-0.030273,0.138672,0.000977
						l0.041992,0.03125c-0.038086,0.023438-0.060547,0.041992-0.075195,0.055664
						c-0.018555,0.018555-0.018555,0.018555-0.018555,0.018555c-0.004883,0.015625,0.033203,0.02832,0.083984,0.02832h0.714844
						c0.050781,0,0.092773,0.03418,0.092773,0.076172c0,0.041016-0.041992,0.075195-0.092773,0.075195h-1.163086
						C26.240234,6.195801,26.216797,6.161621,26.242188,6.120605z"/>
				</g>
			</g>
		</g>
	</g>
</g>
<g id="scrub_x5F_bd_1_" style="enable-background:new    ;">
	<g id="Scrub_x5F_FC_3_">
		<g id="Deleted_Symbol_1_3_">
			<path style="fill:#A5CDA6;" d="M26.923828,4.754395c-0.029297,0-0.054688-0.019531-0.063477-0.046875l-0.148438-0.483887
				c-0.010742-0.032227,0.006836-0.067383,0.039063-0.081055l0.076172-0.029297
				c0.012695-0.000977,0.023438-0.001953,0.032227-0.001953c0.037109,0.011719,0.048828,0.026367,0.055664,0.043945
				l0.146484,0.493652c0.009766,0.035156-0.008789,0.071289-0.042969,0.082031
				c-0.041016,0.012695-0.068359,0.018555-0.081055,0.021484L26.923828,4.754395z"/>
			<path style="fill:#A5CDA6;" d="M27.842773,4.631348c-0.039063,0-0.070313-0.032227-0.071289-0.072266L27.764648,4.0625
				c0-0.039063-0.013672-0.057617-0.024414-0.069336c-0.013672-0.014648-0.036133-0.022461-0.060547-0.022461
				c-0.023438,0-0.063477,0.007813-0.113281,0.048828c-0.013672,0.009766-0.02832,0.014648-0.044922,0.014648
				c-0.038086-0.004883-0.052734-0.019531-0.05957-0.03125L27.416016,3.93457
				c-0.021484-0.033203-0.013672-0.076172,0.019531-0.099609c0.085938-0.060547,0.174805-0.09375,0.255859-0.09375
				c0.085938,0,0.162109,0.038086,0.217773,0.109375c0.047852,0.063477,0.073242,0.134766,0.073242,0.211914l0.005859,0.461426
				l0.005859,0.037109c0,0.037109-0.033203,0.069336-0.072266,0.070313H27.842773z"/>
			<path style="fill:#A5CDA6;" d="M29.982422,4.697754c-0.027344-0.005859-0.053711-0.012695-0.076172-0.019531
				c-0.03418-0.010742-0.053711-0.045898-0.043945-0.080078l0.143555-0.495605
				c0.004883-0.017578,0.017578-0.03125,0.033203-0.040039l0.133789,0.023438
				c0.033203,0.012695,0.051758,0.048828,0.041016,0.082031l-0.154297,0.48584
				c-0.009766,0.02832-0.03418,0.045898-0.061523,0.045898L29.982422,4.697754z"/>
			<path style="fill:#A5CDA6;" d="M28.887695,4.589355c-0.046875,0-0.09375-0.017578-0.139648-0.050781
				c0.006836-0.013672-0.174805-0.899902-0.364258-1.183105c-0.024414-0.046875-0.037109-0.09668-0.030273-0.105957
				c0.045898,0.007324,0.09375,0.025879,0.167969,0.071777c0.015625,0.012695,0.185547,0.107422,0.291016,0.600586
				l0.036133,0.116211C28.865234,4.010742,28.893555,3.000488,29.25,2.844238
				c0.032227-0.020508,0.084961-0.045898,0.111328-0.050781c-0.005859,0.006836-0.013672,0.032227-0.053711,0.09375
				c-0.010742,0.016602-0.213867,0.339844-0.224609,0.79248v0.117188c0.022461-0.013672,0.171875-0.28418,0.448242-0.342773
				c0.033203-0.012695,0.051758-0.015625,0.0625-0.016602c-0.008789,0.004883-0.022461,0.035156-0.095703,0.115234
				c-0.000977,0.000977-0.167969,0.170898-0.461914,0.775879l-0.024414,0.234375
				C28.987305,4.564941,28.944336,4.589355,28.887695,4.589355z"/>
		</g>
	</g>
</g>
<g id="scrub_x5F_bd_2_" style="enable-background:new    ;">
	<g id="Scrub_x5F_FC_4_">
		<g id="Deleted_Symbol_1_4_">
			<path style="fill:#A5CDA6;" d="M22.498535,3.990723c-0.028809,0-0.053711-0.019531-0.0625-0.046875l-0.148926-0.483887
				c-0.010254-0.032227,0.006836-0.067383,0.039063-0.081055l0.07666-0.029297
				c0.012207-0.000977,0.023438-0.001953,0.032227-0.001953c0.036621,0.011719,0.04834,0.026367,0.054688,0.043945
				l0.146973,0.493652c0.009766,0.035156-0.009277,0.071289-0.042969,0.082031
				C22.552734,3.97998,22.525391,3.98584,22.512695,3.98877L22.498535,3.990723z"/>
			<path style="fill:#A5CDA6;" d="M23.418457,3.867676c-0.039063,0-0.070801-0.032227-0.071777-0.072266l-0.006348-0.496582
				c0-0.039063-0.013672-0.057617-0.024902-0.069336c-0.013672-0.014648-0.035645-0.022461-0.060059-0.022461
				c-0.023926,0-0.063965,0.007813-0.11377,0.048828c-0.013184,0.009766-0.027832,0.014648-0.044922,0.014648
				c-0.038086-0.004883-0.052246-0.019531-0.059082-0.03125l-0.045898-0.068359
				c-0.021973-0.033203-0.01416-0.076172,0.019043-0.099609c0.085938-0.060547,0.174805-0.09375,0.255859-0.09375
				c0.085938,0,0.162109,0.038086,0.217773,0.109375c0.047852,0.063477,0.072754,0.134766,0.072754,0.211914l0.005859,0.461426
				l0.005859,0.037109c0,0.037109-0.032715,0.069336-0.071289,0.070313H23.418457z"/>
			<path style="fill:#A5CDA6;" d="M25.557617,3.934082c-0.027344-0.005859-0.053711-0.012695-0.076172-0.019531
				c-0.033691-0.010742-0.053711-0.045898-0.043945-0.080078l0.143555-0.495605
				c0.004883-0.017578,0.017578-0.03125,0.033203-0.040039l0.133789,0.023438
				c0.033203,0.012695,0.051758,0.048828,0.041016,0.082031l-0.154297,0.48584
				c-0.009766,0.02832-0.03418,0.045898-0.061523,0.045898L25.557617,3.934082z"/>
			<path style="fill:#A5CDA6;" d="M24.462891,3.825684c-0.046875,0-0.09375-0.017578-0.139648-0.050781
				C24.330078,3.76123,24.148926,2.875,23.958984,2.591797c-0.024902-0.046875-0.037109-0.09668-0.030762-0.105957
				c0.045898,0.007324,0.09375,0.025879,0.168945,0.071777c0.015137,0.012695,0.185059,0.107422,0.291016,0.600586
				l0.036133,0.116211c0.016602-0.027344,0.044922-1.037598,0.400391-1.193848
				c0.032715-0.020508,0.084961-0.045898,0.111816-0.050781c-0.005859,0.006836-0.01416,0.032227-0.053711,0.09375
				c-0.01123,0.016602-0.214355,0.339844-0.225098,0.79248v0.117188c0.022949-0.013672,0.171875-0.28418,0.44873-0.342773
				c0.033203-0.012695,0.052246-0.015625,0.062988-0.016602c-0.008789,0.004883-0.022949,0.035156-0.09668,0.115234
				c-0.000977,0.000977-0.167969,0.170898-0.461914,0.775879l-0.024414,0.234375
				C24.5625,3.80127,24.52002,3.825684,24.462891,3.825684z"/>
		</g>
	</g>
</g>
<g id="marsh_x5F_bd_4_" style="enable-background:new    ;">
	<g id="Marsh_x5F_FC_6_">
		<g>
			<g>
				<g>
					<path style="fill:#95CDC7;" d="M36.527344,14.16748c0.025391,0.041016,0.001953,0.075195-0.048828,0.075195H35.31543
						c-0.050781,0-0.092773-0.03418-0.092773-0.075195c0-0.041992,0.041992-0.076172,0.092773-0.076172h0.807617
						c-0.003906-0.014648-0.008789-0.02832-0.027344-0.041992c-0.014648-0.013672-0.014648-0.013672-0.014648-0.013672
						c-0.033203-0.025391-0.025391-0.072266,0.015625-0.103516l0.041016-0.03125
						c0.037109,0.033203,0.068359,0.06543,0.087891,0.098633c0.021484,0.026367,0.021484,0.026367,0.021484,0.026367
						c0.004883,0.02832,0.009766,0.054688,0.009766,0.058594s0.039063,0.007813,0.087891,0.007813l0,0
						c0-0.074219-0.009766-0.129883-0.02832-0.175781c-0.023438-0.046875-0.032227-0.05957-0.032227-0.05957
						c-0.033203-0.039063-0.023438-0.09375,0.020508-0.121094l0.03125-0.019531
						c0.041992,0.037109,0.069336,0.078125,0.092773,0.120117c0.022461,0.041992,0.022461,0.041992,0.022461,0.041992
						c0.009766,0.047852,0.021484,0.115234,0.025391,0.149414C36.480469,14.062988,36.50293,14.125488,36.527344,14.16748z
						 M38.02832,14.602051c0,0.03125-0.041992,0.058594-0.092773,0.058594h-1.920898c-0.051758,0-0.09375-0.026367-0.09375-0.058594
						s0.041992-0.057617,0.09375-0.057617h1.920898C37.986328,14.544434,38.02832,14.569824,38.02832,14.602051z
						 M36.867188,14.220215c0,0-0.111328-0.351563-0.22168-0.458008c0,0-0.097656-0.115234,0.110352-0.032227
						c0,0,0.106445,0.051758,0.176758,0.259766c0,0,0.008789-0.379883,0.236328-0.443359c0,0,0.166992-0.06543,0.060547,0.037109
						c0,0-0.133789,0.142578-0.138672,0.317383c0,0,0.074219-0.09668,0.25-0.125c0,0,0.143555-0.035156,0,0.06543l-0.206055,0.22168
						c-0.03418,0.038086-0.067383,0.088867-0.070313,0.113281c-0.003906,0.024414-0.042969,0.066406-0.086914,0.092773
						C36.977539,14.269043,36.974609,14.270996,36.867188,14.220215z M37.425781,14.16748
						c0.024414-0.041992,0.047852-0.118164,0.053711-0.168945l0.003906-0.032227
						c0.004883-0.046875,0.018555-0.087891,0.041992-0.129883s0.030273-0.049805,0.030273-0.049805
						c0.03418-0.039063,0.09668-0.047852,0.141602-0.020508l0.030273,0.020508
						c-0.045898,0.036133-0.074219,0.077148-0.091797,0.124023c-0.018555,0.045898-0.021484,0.086914-0.021484,0.086914
						c-0.003906,0.051758,0.032227,0.09375,0.082031,0.09375l0,0c0.004883-0.038086,0.018555-0.074219,0.036133-0.102539
						c0.019531-0.032227,0.019531-0.032227,0.019531-0.032227c0.036133-0.03125,0.097656-0.030273,0.138672,0.000977
						l0.041992,0.03125c-0.038086,0.023438-0.060547,0.041992-0.075195,0.055664
						c-0.018555,0.018555-0.018555,0.018555-0.018555,0.018555c-0.004883,0.015625,0.033203,0.02832,0.083984,0.02832h0.714844
						c0.050781,0,0.092773,0.03418,0.092773,0.076172c0,0.041016-0.041992,0.075195-0.092773,0.075195h-1.163086
						C37.423828,14.242676,37.400391,14.208496,37.425781,14.16748z"/>
				</g>
			</g>
		</g>
	</g>
</g>
<g id="scrub_x5F_bd_3_" style="enable-background:new    ;">
	<g id="Scrub_x5F_FC_5_">
		<g id="Deleted_Symbol_1_5_">
			<path style="fill:#A5CDA6;" d="M38.105469,12.80127c-0.029297,0-0.054688-0.019531-0.063477-0.046875l-0.148438-0.483887
				c-0.010742-0.032227,0.006836-0.067383,0.039063-0.081055l0.076172-0.029297
				c0.012695-0.000977,0.023438-0.001953,0.032227-0.001953c0.037109,0.011719,0.048828,0.026367,0.055664,0.043945
				l0.146484,0.493652c0.009766,0.035156-0.008789,0.071289-0.042969,0.082031
				c-0.041016,0.012695-0.068359,0.018555-0.081055,0.021484L38.105469,12.80127z"/>
			<path style="fill:#A5CDA6;" d="M39.024414,12.678223c-0.039063,0-0.070313-0.032227-0.071289-0.072266l-0.006836-0.496582
				c0-0.039063-0.013672-0.057617-0.024414-0.069336c-0.013672-0.014648-0.036133-0.022461-0.060547-0.022461
				c-0.023438,0-0.063477,0.007813-0.113281,0.048828c-0.013672,0.009766-0.02832,0.014648-0.044922,0.014648
				c-0.038086-0.004883-0.052734-0.019531-0.05957-0.03125l-0.045898-0.068359
				c-0.021484-0.033203-0.013672-0.076172,0.019531-0.099609c0.085938-0.060547,0.174805-0.09375,0.255859-0.09375
				c0.085938,0,0.162109,0.038086,0.217773,0.109375c0.047852,0.063477,0.073242,0.134766,0.073242,0.211914l0.005859,0.461426
				l0.005859,0.037109c0,0.037109-0.033203,0.069336-0.072266,0.070313H39.024414z"/>
			<path style="fill:#A5CDA6;" d="M41.164063,12.744629c-0.027344-0.005859-0.053711-0.012695-0.076172-0.019531
				c-0.03418-0.010742-0.053711-0.045898-0.043945-0.080078l0.143555-0.495605
				c0.004883-0.017578,0.017578-0.03125,0.033203-0.040039l0.133789,0.023438
				c0.033203,0.012695,0.051758,0.048828,0.041016,0.082031l-0.154297,0.48584
				c-0.009766,0.02832-0.03418,0.045898-0.061523,0.045898L41.164063,12.744629z"/>
			<path style="fill:#A5CDA6;" d="M40.069336,12.63623c-0.046875,0-0.09375-0.017578-0.139648-0.050781
				c0.006836-0.013672-0.174805-0.899902-0.364258-1.183105c-0.024414-0.046875-0.037109-0.09668-0.030273-0.105957
				c0.045898,0.007324,0.09375,0.025879,0.167969,0.071777c0.015625,0.012695,0.185547,0.107422,0.291016,0.600586
				l0.036133,0.116211c0.016602-0.027344,0.044922-1.037598,0.401367-1.193848
				c0.032227-0.020508,0.084961-0.045898,0.111328-0.050781c-0.005859,0.006836-0.013672,0.032227-0.053711,0.09375
				c-0.010742,0.016602-0.213867,0.339844-0.224609,0.79248v0.117188c0.022461-0.013672,0.171875-0.28418,0.448242-0.342773
				c0.033203-0.012695,0.051758-0.015625,0.0625-0.016602c-0.008789,0.004883-0.022461,0.035156-0.095703,0.115234
				c-0.000977,0.000977-0.167969,0.170898-0.461914,0.775879l-0.024414,0.234375
				C40.168945,12.611816,40.125977,12.63623,40.069336,12.63623z"/>
		</g>
	</g>
</g>
<g id="marsh_x5F_bd_3_" style="enable-background:new    ;">
	<g id="Marsh_x5F_FC_5_">
		<g>
			<g>
				<g>
					<path style="fill:#95CDC7;" d="M34.771484,11.132324c0.025391,0.041016,0.001953,0.075195-0.048828,0.075195H33.55957
						c-0.050781,0-0.092773-0.03418-0.092773-0.075195c0-0.041992,0.041992-0.076172,0.092773-0.076172h0.807617
						c-0.003906-0.014648-0.008789-0.02832-0.027344-0.041992c-0.014648-0.013672-0.014648-0.013672-0.014648-0.013672
						c-0.033203-0.025391-0.025391-0.072266,0.015625-0.103516l0.041016-0.03125
						c0.037109,0.033203,0.068359,0.06543,0.087891,0.098633c0.021484,0.026367,0.021484,0.026367,0.021484,0.026367
						c0.004883,0.02832,0.009766,0.054688,0.009766,0.058594s0.039063,0.007813,0.087891,0.007813l0,0
						c0-0.074219-0.009766-0.129883-0.02832-0.175781c-0.023438-0.046875-0.032227-0.05957-0.032227-0.05957
						c-0.033203-0.039063-0.023438-0.09375,0.020508-0.121094l0.03125-0.019531
						c0.041992,0.037109,0.069336,0.078125,0.092773,0.120117c0.022461,0.041992,0.022461,0.041992,0.022461,0.041992
						c0.009766,0.047852,0.021484,0.115234,0.025391,0.149414C34.724609,11.027832,34.74707,11.090332,34.771484,11.132324z
						 M36.272461,11.566895c0,0.03125-0.041992,0.058594-0.092773,0.058594h-1.920898
						c-0.051758,0-0.09375-0.026367-0.09375-0.058594s0.041992-0.057617,0.09375-0.057617h1.920898
						C36.230469,11.509277,36.272461,11.534668,36.272461,11.566895z M35.111328,11.185059c0,0-0.111328-0.351563-0.22168-0.458008
						c0,0-0.097656-0.115234,0.110352-0.032227c0,0,0.106445,0.051758,0.176758,0.259766c0,0,0.008789-0.379883,0.236328-0.443359
						c0,0,0.166992-0.06543,0.060547,0.037109c0,0-0.133789,0.142578-0.138672,0.317383c0,0,0.074219-0.09668,0.25-0.125
						c0,0,0.143555-0.035156,0,0.06543l-0.206055,0.22168c-0.03418,0.038086-0.067383,0.088867-0.070313,0.113281
						c-0.003906,0.024414-0.042969,0.066406-0.086914,0.092773C35.22168,11.233887,35.21875,11.23584,35.111328,11.185059z
						 M35.669922,11.132324c0.024414-0.041992,0.047852-0.118164,0.053711-0.168945l0.003906-0.032227
						c0.004883-0.046875,0.018555-0.087891,0.041992-0.129883s0.030273-0.049805,0.030273-0.049805
						c0.03418-0.039063,0.09668-0.047852,0.141602-0.020508l0.030273,0.020508
						c-0.045898,0.036133-0.074219,0.077148-0.091797,0.124023c-0.018555,0.045898-0.021484,0.086914-0.021484,0.086914
						c-0.003906,0.051758,0.032227,0.09375,0.082031,0.09375l0,0c0.004883-0.038086,0.018555-0.074219,0.036133-0.102539
						c0.019531-0.032227,0.019531-0.032227,0.019531-0.032227c0.036133-0.03125,0.097656-0.030273,0.138672,0.000977
						l0.041992,0.03125c-0.038086,0.023438-0.060547,0.041992-0.075195,0.055664
						c-0.018555,0.018555-0.018555,0.018555-0.018555,0.018555c-0.004883,0.015625,0.033203,0.02832,0.083984,0.02832h0.714844
						c0.050781,0,0.092773,0.03418,0.092773,0.076172c0,0.041016-0.041992,0.075195-0.092773,0.075195H35.71875
						C35.667969,11.20752,35.644531,11.17334,35.669922,11.132324z"/>
				</g>
			</g>
		</g>
	</g>
</g>
<g id="marsh_x5F_bd_1_" style="enable-background:new    ;">
	<g id="Marsh_x5F_FC_3_">
		<g>
			<g>
				<g>
					<path style="fill:#95CDC7;" d="M42.041016,5.782715c0.025391,0.041016,0.001953,0.075195-0.048828,0.075195h-1.163086
						c-0.050781,0-0.092773-0.03418-0.092773-0.075195c0-0.041992,0.041992-0.076172,0.092773-0.076172h0.807617
						c-0.003906-0.014648-0.008789-0.02832-0.027344-0.041992c-0.014648-0.013672-0.014648-0.013672-0.014648-0.013672
						c-0.033203-0.025391-0.025391-0.072266,0.015625-0.103516l0.041016-0.03125
						c0.037109,0.033203,0.068359,0.06543,0.087891,0.098633c0.021484,0.026367,0.021484,0.026367,0.021484,0.026367
						c0.004883,0.02832,0.009766,0.054688,0.009766,0.058594S41.80957,5.70752,41.858398,5.70752l0,0
						c0-0.074219-0.009766-0.129883-0.02832-0.175781c-0.023438-0.046875-0.032227-0.05957-0.032227-0.05957
						c-0.033203-0.039063-0.023438-0.09375,0.020508-0.121094l0.03125-0.019531
						c0.041992,0.037109,0.069336,0.078125,0.092773,0.120117c0.022461,0.041992,0.022461,0.041992,0.022461,0.041992
						c0.009766,0.047852,0.021484,0.115234,0.025391,0.149414C41.994141,5.678223,42.016602,5.740723,42.041016,5.782715z
						 M43.541992,6.217285c0,0.03125-0.041992,0.058594-0.092773,0.058594H41.52832c-0.051758,0-0.09375-0.026367-0.09375-0.058594
						s0.041992-0.057617,0.09375-0.057617h1.920898C43.5,6.159668,43.541992,6.185059,43.541992,6.217285z M42.380859,5.835449
						c0,0-0.111328-0.351563-0.22168-0.458008c0,0-0.097656-0.115234,0.110352-0.032227c0,0,0.106445,0.051758,0.176758,0.259766
						c0,0,0.008789-0.379883,0.236328-0.443359c0,0,0.166992-0.06543,0.060547,0.037109c0,0-0.133789,0.142578-0.138672,0.317383
						c0,0,0.074219-0.09668,0.25-0.125c0,0,0.143555-0.035156,0,0.06543l-0.206055,0.22168
						c-0.03418,0.038086-0.067383,0.088867-0.070313,0.113281c-0.003906,0.024414-0.042969,0.066406-0.086914,0.092773
						C42.491211,5.884277,42.488281,5.88623,42.380859,5.835449z M42.939453,5.782715
						c0.024414-0.041992,0.047852-0.118164,0.053711-0.168945l0.003906-0.032227
						c0.004883-0.046875,0.018555-0.087891,0.041992-0.129883s0.030273-0.049805,0.030273-0.049805
						c0.03418-0.039063,0.09668-0.047852,0.141602-0.020508l0.030273,0.020508
						c-0.045898,0.036133-0.074219,0.077148-0.091797,0.124023c-0.018555,0.045898-0.021484,0.086914-0.021484,0.086914
						c-0.003906,0.051758,0.032227,0.09375,0.082031,0.09375l0,0c0.004883-0.038086,0.018555-0.074219,0.036133-0.102539
						c0.019531-0.032227,0.019531-0.032227,0.019531-0.032227c0.036133-0.03125,0.097656-0.030273,0.138672,0.000977
						l0.041992,0.03125c-0.038086,0.023438-0.060547,0.041992-0.075195,0.055664
						c-0.018555,0.018555-0.018555,0.018555-0.018555,0.018555c-0.004883,0.015625,0.033203,0.02832,0.083984,0.02832h0.714844
						c0.050781,0,0.092773,0.03418,0.092773,0.076172c0,0.041016-0.041992,0.075195-0.092773,0.075195h-1.163086
						C42.9375,5.85791,42.914063,5.82373,42.939453,5.782715z"/>
				</g>
			</g>
		</g>
	</g>
</g>
<g id="scrub_x5F_bd" style="enable-background:new    ;">
	<g id="Scrub_x5F_FC_2_">
		<g id="Deleted_Symbol_1_2_">
			<path style="fill:#A5CDA6;" d="M43.619141,4.416504c-0.029297,0-0.054688-0.019531-0.063477-0.046875l-0.148438-0.483887
				c-0.010742-0.032227,0.006836-0.067383,0.039063-0.081055l0.076172-0.029297
				c0.012695-0.000977,0.023438-0.001953,0.032227-0.001953c0.037109,0.011719,0.048828,0.026367,0.055664,0.043945
				l0.146484,0.493652c0.009766,0.035156-0.008789,0.071289-0.042969,0.082031
				c-0.041016,0.012695-0.068359,0.018555-0.081055,0.021484L43.619141,4.416504z"/>
			<path style="fill:#A5CDA6;" d="M44.538086,4.293457c-0.039063,0-0.070313-0.032227-0.071289-0.072266l-0.006836-0.496582
				c0-0.039063-0.013672-0.057617-0.024414-0.069336C44.421875,3.640625,44.399414,3.632813,44.375,3.632813
				c-0.023438,0-0.063477,0.007813-0.113281,0.048828c-0.013672,0.009766-0.02832,0.014648-0.044922,0.014648
				c-0.038086-0.004883-0.052734-0.019531-0.05957-0.03125L44.111328,3.59668
				c-0.021484-0.033203-0.013672-0.076172,0.019531-0.099609c0.085938-0.060547,0.174805-0.09375,0.255859-0.09375
				c0.085938,0,0.162109,0.038086,0.217773,0.109375c0.047852,0.063477,0.073242,0.134766,0.073242,0.211914l0.005859,0.461426
				l0.005859,0.037109c0,0.037109-0.033203,0.069336-0.072266,0.070313H44.538086z"/>
			<path style="fill:#A5CDA6;" d="M46.677734,4.359863c-0.027344-0.005859-0.053711-0.012695-0.076172-0.019531
				c-0.03418-0.010742-0.053711-0.045898-0.043945-0.080078l0.143555-0.495605
				c0.004883-0.017578,0.017578-0.03125,0.033203-0.040039l0.133789,0.023438
				c0.033203,0.012695,0.051758,0.048828,0.041016,0.082031l-0.154297,0.48584
				c-0.009766,0.02832-0.03418,0.045898-0.061523,0.045898L46.677734,4.359863z"/>
			<path style="fill:#A5CDA6;" d="M45.583008,4.251465c-0.046875,0-0.09375-0.017578-0.139648-0.050781
				c0.006836-0.013672-0.174805-0.899902-0.364258-1.183105c-0.024414-0.046875-0.037109-0.09668-0.030273-0.105957
				c0.045898,0.007324,0.09375,0.025879,0.167969,0.071777c0.015625,0.012695,0.185547,0.107422,0.291016,0.600586
				l0.036133,0.116211c0.016602-0.027344,0.044922-1.037598,0.401367-1.193848
				c0.032227-0.020508,0.084961-0.045898,0.111328-0.050781c-0.005859,0.006836-0.013672,0.032227-0.053711,0.09375
				c-0.010742,0.016602-0.213867,0.339844-0.224609,0.79248v0.117188c0.022461-0.013672,0.171875-0.28418,0.448242-0.342773
				c0.033203-0.012695,0.051758-0.015625,0.0625-0.016602c-0.008789,0.004883-0.022461,0.035156-0.095703,0.115234
				c-0.000977,0.000977-0.167969,0.170898-0.461914,0.775879l-0.024414,0.234375
				C45.682617,4.227051,45.639648,4.251465,45.583008,4.251465z"/>
		</g>
	</g>
</g>
<g id="marsh_x5F_bd" style="enable-background:new    ;">
	<g id="Marsh_x5F_FC_2_">
		<g>
			<g>
				<g>
					<path style="fill:#95CDC7;" d="M40.285156,2.747559c0.025391,0.041016,0.001953,0.075195-0.048828,0.075195h-1.163086
						c-0.050781,0-0.092773-0.03418-0.092773-0.075195c0-0.041992,0.041992-0.076172,0.092773-0.076172h0.807617
						c-0.003906-0.014648-0.008789-0.02832-0.027344-0.041992c-0.014648-0.013672-0.014648-0.013672-0.014648-0.013672
						c-0.033203-0.025391-0.025391-0.072266,0.015625-0.103516l0.041016-0.03125
						c0.037109,0.033203,0.068359,0.06543,0.087891,0.098633c0.021484,0.026367,0.021484,0.026367,0.021484,0.026367
						c0.004883,0.02832,0.009766,0.054688,0.009766,0.058594s0.039063,0.007813,0.087891,0.007813l0,0
						c0-0.074219-0.009766-0.129883-0.02832-0.175781c-0.023438-0.046875-0.032227-0.05957-0.032227-0.05957
						c-0.033203-0.039063-0.023438-0.09375,0.020508-0.121094l0.03125-0.019531
						c0.041992,0.037109,0.069336,0.078125,0.092773,0.120117c0.022461,0.041992,0.022461,0.041992,0.022461,0.041992
						c0.009766,0.047852,0.021484,0.115234,0.025391,0.149414C40.238281,2.643066,40.260742,2.705566,40.285156,2.747559z
						 M41.786133,3.182129c0,0.03125-0.041992,0.058594-0.092773,0.058594h-1.920898c-0.051758,0-0.09375-0.026367-0.09375-0.058594
						s0.041992-0.057617,0.09375-0.057617h1.920898C41.744141,3.124512,41.786133,3.149902,41.786133,3.182129z M40.625,2.800293
						c0,0-0.111328-0.351563-0.22168-0.458008c0,0-0.097656-0.115234,0.110352-0.032227c0,0,0.106445,0.051758,0.176758,0.259766
						c0,0,0.008789-0.379883,0.236328-0.443359c0,0,0.166992-0.06543,0.060547,0.037109c0,0-0.133789,0.142578-0.138672,0.317383
						c0,0,0.074219-0.09668,0.25-0.125c0,0,0.143555-0.035156,0,0.06543l-0.206055,0.22168
						c-0.03418,0.038086-0.067383,0.088867-0.070313,0.113281c-0.003906,0.024414-0.042969,0.066406-0.086914,0.092773
						C40.735352,2.849121,40.732422,2.851074,40.625,2.800293z M41.183594,2.747559
						c0.024414-0.041992,0.047852-0.118164,0.053711-0.168945l0.003906-0.032227
						c0.004883-0.046875,0.018555-0.087891,0.041992-0.129883s0.030273-0.049805,0.030273-0.049805
						c0.03418-0.039063,0.09668-0.047852,0.141602-0.020508l0.030273,0.020508
						c-0.045898,0.036133-0.074219,0.077148-0.091797,0.124023C41.375,2.536621,41.37207,2.577637,41.37207,2.577637
						c-0.003906,0.051758,0.032227,0.09375,0.082031,0.09375l0,0c0.004883-0.038086,0.018555-0.074219,0.036133-0.102539
						c0.019531-0.032227,0.019531-0.032227,0.019531-0.032227c0.036133-0.03125,0.097656-0.030273,0.138672,0.000977
						l0.041992,0.03125c-0.038086,0.023438-0.060547,0.041992-0.075195,0.055664
						C41.59668,2.643066,41.59668,2.643066,41.59668,2.643066c-0.004883,0.015625,0.033203,0.02832,0.083984,0.02832h0.714844
						c0.050781,0,0.092773,0.03418,0.092773,0.076172c0,0.041016-0.041992,0.075195-0.092773,0.075195h-1.163086
						C41.181641,2.822754,41.158203,2.788574,41.183594,2.747559z"/>
				</g>
			</g>
		</g>
	</g>
</g>
<g id="marsh_x5F_bd_5_" style="enable-background:new    ;">
	<g id="Marsh_x5F_FC_7_">
		<g>
			<g>
				<g>
					<path style="fill:#95CDC7;" d="M37.023438,24.04541c0.025391,0.041016,0.001953,0.075195-0.048828,0.075195h-1.163086
						c-0.050781,0-0.092773-0.03418-0.092773-0.075195c0-0.041992,0.041992-0.076172,0.092773-0.076172h0.807617
						c-0.003906-0.014648-0.008789-0.02832-0.027344-0.041992c-0.014648-0.013672-0.014648-0.013672-0.014648-0.013672
						c-0.033203-0.025391-0.025391-0.072266,0.015625-0.103516l0.041016-0.03125
						c0.037109,0.033203,0.068359,0.06543,0.087891,0.098633c0.021484,0.026367,0.021484,0.026367,0.021484,0.026367
						c0.004883,0.02832,0.009766,0.054688,0.009766,0.058594s0.039063,0.007813,0.087891,0.007813l0,0
						c0-0.074219-0.009766-0.129883-0.02832-0.175781c-0.023438-0.046875-0.032227-0.05957-0.032227-0.05957
						c-0.033203-0.039063-0.023438-0.09375,0.020508-0.121094l0.03125-0.019531
						c0.041992,0.037109,0.069336,0.078125,0.092773,0.120117c0.022461,0.041992,0.022461,0.041992,0.022461,0.041992
						c0.009766,0.047852,0.021484,0.115234,0.025391,0.149414C36.976563,23.940918,36.999023,24.003418,37.023438,24.04541z
						 M38.524414,24.47998c0,0.03125-0.041992,0.058594-0.092773,0.058594h-1.920898c-0.051758,0-0.09375-0.026367-0.09375-0.058594
						s0.041992-0.057617,0.09375-0.057617h1.920898C38.482422,24.422363,38.524414,24.447754,38.524414,24.47998z
						 M37.363281,24.098145c0,0-0.111328-0.351563-0.22168-0.458008c0,0-0.097656-0.115234,0.110352-0.032227
						c0,0,0.106445,0.051758,0.176758,0.259766c0,0,0.008789-0.379883,0.236328-0.443359c0,0,0.166992-0.06543,0.060547,0.037109
						c0,0-0.133789,0.142578-0.138672,0.317383c0,0,0.074219-0.09668,0.25-0.125c0,0,0.143555-0.035156,0,0.06543l-0.206055,0.22168
						c-0.03418,0.038086-0.067383,0.088867-0.070313,0.113281c-0.003906,0.024414-0.042969,0.066406-0.086914,0.092773
						C37.473633,24.146973,37.470703,24.148926,37.363281,24.098145z M37.921875,24.04541
						c0.024414-0.041992,0.047852-0.118164,0.053711-0.168945l0.003906-0.032227
						c0.004883-0.046875,0.018555-0.087891,0.041992-0.129883s0.030273-0.049805,0.030273-0.049805
						c0.03418-0.039063,0.09668-0.047852,0.141602-0.020508l0.030273,0.020508
						c-0.045898,0.036133-0.074219,0.077148-0.091797,0.124023c-0.018555,0.045898-0.021484,0.086914-0.021484,0.086914
						c-0.003906,0.051758,0.032227,0.09375,0.082031,0.09375l0,0c0.004883-0.038086,0.018555-0.074219,0.036133-0.102539
						c0.019531-0.032227,0.019531-0.032227,0.019531-0.032227c0.036133-0.03125,0.097656-0.030273,0.138672,0.000977
						l0.041992,0.03125c-0.038086,0.023438-0.060547,0.041992-0.075195,0.055664
						c-0.018555,0.018555-0.018555,0.018555-0.018555,0.018555c-0.004883,0.015625,0.033203,0.02832,0.083984,0.02832h0.714844
						c0.050781,0,0.092773,0.03418,0.092773,0.076172c0,0.041016-0.041992,0.075195-0.092773,0.075195h-1.163086
						C37.919922,24.120605,37.896484,24.086426,37.921875,24.04541z"/>
				</g>
			</g>
		</g>
	</g>
</g>
<g id="scrub_x5F_bd_5_" style="enable-background:new    ;">
	<g id="Scrub_x5F_FC_7_">
		<g id="Deleted_Symbol_1_7_">
			<path style="fill:#A5CDA6;" d="M38.603516,22.679199c-0.029297,0-0.054688-0.019531-0.063477-0.046875l-0.148438-0.483887
				c-0.010742-0.032227,0.006836-0.067383,0.039063-0.081055l0.076172-0.029297
				c0.012695-0.000977,0.023438-0.001953,0.032227-0.001953c0.037109,0.011719,0.048828,0.026367,0.055664,0.043945
				l0.146484,0.493652c0.009766,0.035156-0.008789,0.071289-0.042969,0.082031
				c-0.041016,0.012695-0.068359,0.018555-0.081055,0.021484L38.603516,22.679199z"/>
			<path style="fill:#A5CDA6;" d="M39.522461,22.556152c-0.039063,0-0.070313-0.032227-0.071289-0.072266l-0.006836-0.496582
				c0-0.039063-0.013672-0.057617-0.024414-0.069336c-0.013672-0.014648-0.036133-0.022461-0.060547-0.022461
				c-0.023438,0-0.063477,0.007813-0.113281,0.048828c-0.013672,0.009766-0.02832,0.014648-0.044922,0.014648
				c-0.038086-0.004883-0.052734-0.019531-0.05957-0.03125l-0.045898-0.068359
				c-0.021484-0.033203-0.013672-0.076172,0.019531-0.099609c0.085938-0.060547,0.174805-0.09375,0.255859-0.09375
				c0.085938,0,0.162109,0.038086,0.217773,0.109375c0.047852,0.063477,0.073242,0.134766,0.073242,0.211914l0.005859,0.461426
				l0.005859,0.037109c0,0.037109-0.033203,0.069336-0.072266,0.070313H39.522461z"/>
			<path style="fill:#A5CDA6;" d="M41.662109,22.622559c-0.027344-0.005859-0.053711-0.012695-0.076172-0.019531
				c-0.03418-0.010742-0.053711-0.045898-0.043945-0.080078l0.143555-0.495605
				c0.004883-0.017578,0.017578-0.03125,0.033203-0.040039l0.133789,0.023438
				c0.033203,0.012695,0.051758,0.048828,0.041016,0.082031l-0.154297,0.48584
				c-0.009766,0.02832-0.03418,0.045898-0.061523,0.045898L41.662109,22.622559z"/>
			<path style="fill:#A5CDA6;" d="M40.567383,22.51416c-0.046875,0-0.09375-0.017578-0.139648-0.050781
				c0.006836-0.013672-0.174805-0.899902-0.364258-1.183105c-0.024414-0.046875-0.037109-0.09668-0.030273-0.105957
				c0.045898,0.007324,0.09375,0.025879,0.167969,0.071777c0.015625,0.012695,0.185547,0.107422,0.291016,0.600586
				l0.036133,0.116211c0.016602-0.027344,0.044922-1.037598,0.401367-1.193848
				c0.032227-0.020508,0.084961-0.045898,0.111328-0.050781c-0.005859,0.006836-0.013672,0.032227-0.053711,0.09375
				c-0.010742,0.016602-0.213867,0.339844-0.224609,0.79248v0.117188c0.022461-0.013672,0.171875-0.28418,0.448242-0.342773
				c0.033203-0.012695,0.051758-0.015625,0.0625-0.016602c-0.008789,0.004883-0.022461,0.035156-0.095703,0.115234
				c-0.000977,0.000977-0.167969,0.170898-0.461914,0.775879l-0.024414,0.234375
				C40.666992,22.489746,40.624023,22.51416,40.567383,22.51416z"/>
		</g>
	</g>
</g>
<g id="scrub_x5F_bd_4_" style="enable-background:new    ;">
	<g id="Scrub_x5F_FC_6_">
		<g id="Deleted_Symbol_1_6_">
			<path style="fill:#A5CDA6;" d="M34.177734,21.915527c-0.029297,0-0.054688-0.019531-0.063477-0.046875l-0.148438-0.483887
				c-0.010742-0.032227,0.006836-0.067383,0.039063-0.081055l0.076172-0.029297
				c0.012695-0.000977,0.023438-0.001953,0.032227-0.001953c0.037109,0.011719,0.048828,0.026367,0.055664,0.043945
				l0.146484,0.493652c0.009766,0.035156-0.008789,0.071289-0.042969,0.082031
				c-0.041016,0.012695-0.068359,0.018555-0.081055,0.021484L34.177734,21.915527z"/>
			<path style="fill:#A5CDA6;" d="M35.09668,21.79248c-0.039063,0-0.070313-0.032227-0.071289-0.072266l-0.006836-0.496582
				c0-0.039063-0.013672-0.057617-0.024414-0.069336c-0.013672-0.014648-0.036133-0.022461-0.060547-0.022461
				c-0.023438,0-0.063477,0.007813-0.113281,0.048828c-0.013672,0.009766-0.02832,0.014648-0.044922,0.014648
				c-0.038086-0.004883-0.052734-0.019531-0.05957-0.03125l-0.045898-0.068359
				c-0.021484-0.033203-0.013672-0.076172,0.019531-0.099609c0.085938-0.060547,0.174805-0.09375,0.255859-0.09375
				c0.085938,0,0.162109,0.038086,0.217773,0.109375c0.047852,0.063477,0.073242,0.134766,0.073242,0.211914l0.005859,0.461426
				l0.005859,0.037109c0,0.037109-0.033203,0.069336-0.072266,0.070313H35.09668z"/>
			<path style="fill:#A5CDA6;" d="M37.236328,21.858887c-0.027344-0.005859-0.053711-0.012695-0.076172-0.019531
				c-0.03418-0.010742-0.053711-0.045898-0.043945-0.080078l0.143555-0.495605
				c0.004883-0.017578,0.017578-0.03125,0.033203-0.040039l0.133789,0.023438
				c0.033203,0.012695,0.051758,0.048828,0.041016,0.082031l-0.154297,0.48584
				c-0.009766,0.02832-0.03418,0.045898-0.061523,0.045898L37.236328,21.858887z"/>
			<path style="fill:#A5CDA6;" d="M36.141602,21.750488c-0.046875,0-0.09375-0.017578-0.139648-0.050781
				c0.006836-0.013672-0.174805-0.899902-0.364258-1.183105c-0.024414-0.046875-0.037109-0.09668-0.030273-0.105957
				c0.045898,0.007324,0.09375,0.025879,0.167969,0.071777c0.015625,0.012695,0.185547,0.107422,0.291016,0.600586
				l0.036133,0.116211c0.016602-0.027344,0.044922-1.037598,0.401367-1.193848
				c0.032227-0.020508,0.084961-0.045898,0.111328-0.050781c-0.005859,0.006836-0.013672,0.032227-0.053711,0.09375
				c-0.010742,0.016602-0.213867,0.339844-0.224609,0.79248v0.117188c0.022461-0.013672,0.171875-0.28418,0.448242-0.342773
				c0.033203-0.012695,0.051758-0.015625,0.0625-0.016602c-0.008789,0.004883-0.022461,0.035156-0.095703,0.115234
				c-0.000977,0.000977-0.167969,0.170898-0.461914,0.775879l-0.024414,0.234375
				C36.241211,21.726074,36.198242,21.750488,36.141602,21.750488z"/>
		</g>
	</g>
</g>
<g id="marsh_x5F_bd_7_" style="enable-background:new    ;">
	<g id="Marsh_x5F_FC_9_">
		<g>
			<g>
				<g>
					<path style="fill:#95CDC7;" d="M42.292969,35.947266c0.025391,0.041016,0.001953,0.075195-0.048828,0.075195h-1.163086
						c-0.050781,0-0.092773-0.03418-0.092773-0.075195c0-0.041992,0.041992-0.076172,0.092773-0.076172h0.807617
						c-0.003906-0.014648-0.008789-0.02832-0.027344-0.041992C41.84668,35.81543,41.84668,35.81543,41.84668,35.81543
						c-0.033203-0.025391-0.025391-0.072266,0.015625-0.103516l0.041016-0.03125
						c0.037109,0.033203,0.068359,0.06543,0.087891,0.098633c0.021484,0.026367,0.021484,0.026367,0.021484,0.026367
						c0.004883,0.02832,0.009766,0.054688,0.009766,0.058594s0.039063,0.007813,0.087891,0.007813l0,0
						c0-0.074219-0.009766-0.129883-0.02832-0.175781c-0.023438-0.046875-0.032227-0.05957-0.032227-0.05957
						c-0.033203-0.039063-0.023438-0.09375,0.020508-0.121094l0.03125-0.019531
						c0.041992,0.037109,0.069336,0.078125,0.092773,0.120117c0.022461,0.041992,0.022461,0.041992,0.022461,0.041992
						c0.009766,0.047852,0.021484,0.115234,0.025391,0.149414C42.246094,35.842773,42.268555,35.905273,42.292969,35.947266z
						 M43.793945,36.381836c0,0.03125-0.041992,0.058594-0.092773,0.058594h-1.920898
						c-0.051758,0-0.09375-0.026367-0.09375-0.058594s0.041992-0.057617,0.09375-0.057617h1.920898
						C43.751953,36.324219,43.793945,36.349609,43.793945,36.381836z M42.632813,36c0,0-0.111328-0.351563-0.22168-0.458008
						c0,0-0.097656-0.115234,0.110352-0.032227c0,0,0.106445,0.051758,0.176758,0.259766c0,0,0.008789-0.379883,0.236328-0.443359
						c0,0,0.166992-0.06543,0.060547,0.037109c0,0-0.133789,0.142578-0.138672,0.317383c0,0,0.074219-0.09668,0.25-0.125
						c0,0,0.143555-0.035156,0,0.06543l-0.206055,0.22168c-0.03418,0.038086-0.067383,0.088867-0.070313,0.113281
						c-0.003906,0.024414-0.042969,0.066406-0.086914,0.092773C42.743164,36.048828,42.740234,36.050781,42.632813,36z
						 M43.191406,35.947266c0.024414-0.041992,0.047852-0.118164,0.053711-0.168945l0.003906-0.032227
						c0.004883-0.046875,0.018555-0.087891,0.041992-0.129883s0.030273-0.049805,0.030273-0.049805
						c0.03418-0.039063,0.09668-0.047852,0.141602-0.020508l0.030273,0.020508
						c-0.045898,0.036133-0.074219,0.077148-0.091797,0.124023c-0.018555,0.045898-0.021484,0.086914-0.021484,0.086914
						c-0.003906,0.051758,0.032227,0.09375,0.082031,0.09375l0,0c0.004883-0.038086,0.018555-0.074219,0.036133-0.102539
						c0.019531-0.032227,0.019531-0.032227,0.019531-0.032227c0.036133-0.03125,0.097656-0.030273,0.138672,0.000977
						l0.041992,0.03125c-0.038086,0.023438-0.060547,0.041992-0.075195,0.055664
						c-0.018555,0.018555-0.018555,0.018555-0.018555,0.018555c-0.004883,0.015625,0.033203,0.02832,0.083984,0.02832h0.714844
						c0.050781,0,0.092773,0.03418,0.092773,0.076172c0,0.041016-0.041992,0.075195-0.092773,0.075195h-1.163086
						C43.189453,36.022461,43.166016,35.988281,43.191406,35.947266z"/>
				</g>
			</g>
		</g>
	</g>
</g>
<g id="scrub_x5F_bd_6_" style="enable-background:new    ;">
	<g id="Scrub_x5F_FC_8_">
		<g id="Deleted_Symbol_1_8_">
			<path style="fill:#A5CDA6;" d="M43.871094,34.582031c-0.029297,0-0.054688-0.019531-0.063477-0.046875l-0.148438-0.484375
				c-0.010742-0.032227,0.006836-0.067383,0.039063-0.081055l0.076172-0.029297
				c0.012695-0.000977,0.023438-0.001953,0.032227-0.001953c0.037109,0.011719,0.048828,0.026367,0.055664,0.043945
				l0.146484,0.494141C44.018555,34.511719,44,34.547852,43.96582,34.558594
				c-0.041016,0.012695-0.068359,0.018555-0.081055,0.021484L43.871094,34.582031z"/>
			<path style="fill:#A5CDA6;" d="M44.790039,34.458984c-0.039063,0-0.070313-0.032227-0.071289-0.072266l-0.006836-0.49707
				c0-0.039063-0.013672-0.057617-0.024414-0.069336c-0.013672-0.014648-0.036133-0.022461-0.060547-0.022461
				c-0.023438,0-0.063477,0.007813-0.113281,0.048828c-0.013672,0.009766-0.02832,0.014648-0.044922,0.014648
				c-0.038086-0.004883-0.052734-0.019531-0.05957-0.03125l-0.045898-0.068359
				c-0.021484-0.033203-0.013672-0.076172,0.019531-0.099609c0.085938-0.060547,0.174805-0.09375,0.255859-0.09375
				c0.085938,0,0.162109,0.038086,0.217773,0.109375c0.047852,0.063477,0.073242,0.134766,0.073242,0.211914l0.005859,0.461914
				l0.005859,0.037109c0,0.037109-0.033203,0.069336-0.072266,0.070313H44.790039z"/>
			<path style="fill:#A5CDA6;" d="M46.929688,34.525391c-0.027344-0.005859-0.053711-0.012695-0.076172-0.019531
				c-0.03418-0.010742-0.053711-0.045898-0.043945-0.080078l0.143555-0.496094
				c0.004883-0.017578,0.017578-0.03125,0.033203-0.040039l0.133789,0.023438
				c0.033203,0.012695,0.051758,0.048828,0.041016,0.082031l-0.154297,0.486328
				c-0.009766,0.02832-0.03418,0.045898-0.061523,0.045898L46.929688,34.525391z"/>
			<path style="fill:#A5CDA6;" d="M45.834961,34.416992c-0.046875,0-0.09375-0.017578-0.139648-0.050781
				c0.006836-0.013672-0.174805-0.900391-0.364258-1.183594c-0.024414-0.046875-0.037109-0.09668-0.030273-0.106445
				c0.045898,0.007813,0.09375,0.026367,0.167969,0.072266c0.015625,0.012695,0.185547,0.107422,0.291016,0.600586
				l0.036133,0.116211c0.016602-0.027344,0.044922-1.038086,0.401367-1.194336
				c0.032227-0.020508,0.084961-0.045898,0.111328-0.050781c-0.005859,0.006836-0.013672,0.032227-0.053711,0.09375
				c-0.010742,0.016602-0.213867,0.339844-0.224609,0.792969v0.117188c0.022461-0.013672,0.171875-0.28418,0.448242-0.342773
				c0.033203-0.012695,0.051758-0.015625,0.0625-0.016602c-0.008789,0.004883-0.022461,0.035156-0.095703,0.115234
				c-0.000977,0.000977-0.167969,0.170898-0.461914,0.776367l-0.024414,0.234375
				C45.93457,34.392578,45.891602,34.416992,45.834961,34.416992z"/>
		</g>
	</g>
</g>
<g id="marsh_x5F_bd_6_" style="enable-background:new    ;">
	<g id="Marsh_x5F_FC_8_">
		<g>
			<g>
				<g>
					<path style="fill:#95CDC7;" d="M40.537109,32.912109c0.025391,0.041016,0.001953,0.075195-0.048828,0.075195h-1.163086
						c-0.050781,0-0.092773-0.03418-0.092773-0.075195c0-0.041992,0.041992-0.076172,0.092773-0.076172h0.807617
						c-0.003906-0.014648-0.008789-0.02832-0.027344-0.041992c-0.014648-0.013672-0.014648-0.013672-0.014648-0.013672
						c-0.033203-0.025391-0.025391-0.072266,0.015625-0.103516l0.041016-0.03125
						c0.037109,0.033203,0.068359,0.06543,0.087891,0.098633c0.021484,0.026367,0.021484,0.026367,0.021484,0.026367
						c0.004883,0.02832,0.009766,0.054688,0.009766,0.058594s0.039063,0.007813,0.087891,0.007813l0,0
						c0-0.074219-0.009766-0.129883-0.02832-0.175781c-0.023438-0.046875-0.032227-0.05957-0.032227-0.05957
						c-0.033203-0.039063-0.023438-0.09375,0.020508-0.121094l0.03125-0.019531
						c0.041992,0.037109,0.069336,0.078125,0.092773,0.120117c0.022461,0.041992,0.022461,0.041992,0.022461,0.041992
						c0.009766,0.047852,0.021484,0.115234,0.025391,0.149414C40.490234,32.807617,40.512695,32.870117,40.537109,32.912109z
						 M42.038086,33.34668c0,0.03125-0.041992,0.058594-0.092773,0.058594h-1.920898c-0.051758,0-0.09375-0.026367-0.09375-0.058594
						s0.041992-0.057617,0.09375-0.057617h1.920898C41.996094,33.289063,42.038086,33.314453,42.038086,33.34668z
						 M40.876953,32.964844c0,0-0.111328-0.351563-0.22168-0.458008c0,0-0.097656-0.115234,0.110352-0.032227
						c0,0,0.106445,0.051758,0.176758,0.259766c0,0,0.008789-0.379883,0.236328-0.443359c0,0,0.166992-0.06543,0.060547,0.037109
						c0,0-0.133789,0.142578-0.138672,0.317383c0,0,0.074219-0.09668,0.25-0.125c0,0,0.143555-0.035156,0,0.06543l-0.206055,0.22168
						c-0.03418,0.038086-0.067383,0.088867-0.070313,0.113281c-0.003906,0.024414-0.042969,0.066406-0.086914,0.092773
						C40.987305,33.013672,40.984375,33.015625,40.876953,32.964844z M41.435547,32.912109
						c0.024414-0.041992,0.047852-0.118164,0.053711-0.168945l0.003906-0.032227
						c0.004883-0.046875,0.018555-0.087891,0.041992-0.129883s0.030273-0.049805,0.030273-0.049805
						c0.03418-0.039063,0.09668-0.047852,0.141602-0.020508l0.030273,0.020508
						c-0.045898,0.036133-0.074219,0.077148-0.091797,0.124023c-0.018555,0.045898-0.021484,0.086914-0.021484,0.086914
						c-0.003906,0.051758,0.032227,0.09375,0.082031,0.09375l0,0c0.004883-0.038086,0.018555-0.074219,0.036133-0.102539
						c0.019531-0.032227,0.019531-0.032227,0.019531-0.032227c0.036133-0.03125,0.097656-0.030273,0.138672,0.000977
						l0.041992,0.03125c-0.038086,0.023438-0.060547,0.041992-0.075195,0.055664
						c-0.018555,0.018555-0.018555,0.018555-0.018555,0.018555c-0.004883,0.015625,0.033203,0.02832,0.083984,0.02832h0.714844
						c0.050781,0,0.092773,0.03418,0.092773,0.076172c0,0.041016-0.041992,0.075195-0.092773,0.075195h-1.163086
						C41.433594,32.987305,41.410156,32.953125,41.435547,32.912109z"/>
				</g>
			</g>
		</g>
	</g>
</g>
<g id="marsh_x5F_bd_8_" style="enable-background:new    ;">
	<g id="Marsh_x5F_FC_10_">
		<g>
			<g>
				<g>
					<path style="fill:#95CDC7;" d="M29.261719,46.548828c0.025391,0.041016,0.001953,0.075195-0.048828,0.075195h-1.163086
						c-0.050781,0-0.092773-0.03418-0.092773-0.075195c0-0.041992,0.041992-0.076172,0.092773-0.076172h0.807617
						c-0.003906-0.014648-0.008789-0.02832-0.027344-0.041992c-0.014648-0.013672-0.014648-0.013672-0.014648-0.013672
						c-0.033203-0.025391-0.025391-0.072266,0.015625-0.103516l0.041016-0.03125
						c0.037109,0.033203,0.068359,0.06543,0.087891,0.098633c0.021484,0.026367,0.021484,0.026367,0.021484,0.026367
						c0.004883,0.02832,0.009766,0.054688,0.009766,0.058594s0.039063,0.007813,0.087891,0.007813l0,0
						c0-0.074219-0.009766-0.129883-0.02832-0.175781c-0.023438-0.046875-0.032227-0.05957-0.032227-0.05957
						c-0.033203-0.039063-0.023438-0.09375,0.020508-0.121094l0.03125-0.019531
						c0.041992,0.037109,0.069336,0.078125,0.092773,0.120117c0.022461,0.041992,0.022461,0.041992,0.022461,0.041992
						c0.009766,0.047852,0.021484,0.115234,0.025391,0.149414C29.214844,46.444336,29.237305,46.506836,29.261719,46.548828z
						 M30.762695,46.983398c0,0.03125-0.041992,0.058594-0.092773,0.058594h-1.920898
						c-0.051758,0-0.09375-0.026367-0.09375-0.058594s0.041992-0.057617,0.09375-0.057617h1.920898
						C30.720703,46.925781,30.762695,46.951172,30.762695,46.983398z M29.601563,46.601563c0,0-0.111328-0.351563-0.22168-0.458008
						c0,0-0.097656-0.115234,0.110352-0.032227c0,0,0.106445,0.051758,0.176758,0.259766c0,0,0.008789-0.379883,0.236328-0.443359
						c0,0,0.166992-0.06543,0.060547,0.037109c0,0-0.133789,0.142578-0.138672,0.317383c0,0,0.074219-0.09668,0.25-0.125
						c0,0,0.143555-0.035156,0,0.06543l-0.206055,0.22168c-0.03418,0.038086-0.067383,0.088867-0.070313,0.113281
						c-0.003906,0.024414-0.042969,0.066406-0.086914,0.092773C29.711914,46.650391,29.708984,46.652344,29.601563,46.601563z
						 M30.160156,46.548828c0.024414-0.041992,0.047852-0.118164,0.053711-0.168945l0.003906-0.032227
						c0.004883-0.046875,0.018555-0.087891,0.041992-0.129883s0.030273-0.049805,0.030273-0.049805
						c0.03418-0.039063,0.09668-0.047852,0.141602-0.020508l0.030273,0.020508
						c-0.045898,0.036133-0.074219,0.077148-0.091797,0.124023c-0.018555,0.045898-0.021484,0.086914-0.021484,0.086914
						c-0.003906,0.051758,0.032227,0.09375,0.082031,0.09375l0,0c0.004883-0.038086,0.018555-0.074219,0.036133-0.102539
						c0.019531-0.032227,0.019531-0.032227,0.019531-0.032227c0.036133-0.03125,0.097656-0.030273,0.138672,0.000977
						l0.041992,0.03125c-0.038086,0.023438-0.060547,0.041992-0.075195,0.055664
						c-0.018555,0.018555-0.018555,0.018555-0.018555,0.018555c-0.004883,0.015625,0.033203,0.02832,0.083984,0.02832h0.714844
						c0.050781,0,0.092773,0.03418,0.092773,0.076172c0,0.041016-0.041992,0.075195-0.092773,0.075195h-1.163086
						C30.158203,46.624023,30.134766,46.589844,30.160156,46.548828z"/>
				</g>
			</g>
		</g>
	</g>
</g>
<g id="scrub_x5F_bd_9_" style="enable-background:new    ;">
	<g id="Scrub_x5F_FC_11_">
		<g id="Deleted_Symbol_1_11_">
			<path style="fill:#A5CDA6;" d="M30.839844,45.183594c-0.029297,0-0.054688-0.019531-0.063477-0.046875l-0.148438-0.484375
				c-0.010742-0.032227,0.006836-0.067383,0.039063-0.081055l0.076172-0.029297
				c0.012695-0.000977,0.023438-0.001953,0.032227-0.001953c0.037109,0.011719,0.048828,0.026367,0.055664,0.043945
				l0.146484,0.494141c0.009766,0.035156-0.008789,0.071289-0.042969,0.082031
				c-0.041016,0.012695-0.068359,0.018555-0.081055,0.021484L30.839844,45.183594z"/>
			<path style="fill:#A5CDA6;" d="M31.758789,45.060547c-0.039063,0-0.070313-0.032227-0.071289-0.072266l-0.006836-0.49707
				c0-0.039063-0.013672-0.057617-0.024414-0.069336c-0.013672-0.014648-0.036133-0.022461-0.060547-0.022461
				c-0.023438,0-0.063477,0.007813-0.113281,0.048828c-0.013672,0.009766-0.02832,0.014648-0.044922,0.014648
				c-0.038086-0.004883-0.052734-0.019531-0.05957-0.03125l-0.045898-0.068359
				c-0.021484-0.033203-0.013672-0.076172,0.019531-0.099609c0.085938-0.060547,0.174805-0.09375,0.255859-0.09375
				c0.085938,0,0.162109,0.038086,0.217773,0.109375c0.047852,0.063477,0.073242,0.134766,0.073242,0.211914l0.005859,0.461914
				l0.005859,0.037109c0,0.037109-0.033203,0.069336-0.072266,0.070313H31.758789z"/>
			<path style="fill:#A5CDA6;" d="M33.898438,45.126953c-0.027344-0.005859-0.053711-0.012695-0.076172-0.019531
				c-0.03418-0.010742-0.053711-0.045898-0.043945-0.080078l0.143555-0.496094
				c0.004883-0.017578,0.017578-0.03125,0.033203-0.040039l0.133789,0.023438
				c0.033203,0.012695,0.051758,0.048828,0.041016,0.082031l-0.154297,0.486328
				c-0.009766,0.02832-0.03418,0.045898-0.061523,0.045898L33.898438,45.126953z"/>
			<path style="fill:#A5CDA6;" d="M32.803711,45.018555c-0.046875,0-0.09375-0.017578-0.139648-0.050781
				c0.006836-0.013672-0.174805-0.900391-0.364258-1.183594c-0.024414-0.046875-0.037109-0.09668-0.030273-0.106445
				c0.045898,0.007813,0.09375,0.026367,0.167969,0.072266c0.015625,0.012695,0.185547,0.107422,0.291016,0.600586
				l0.036133,0.116211c0.016602-0.027344,0.044922-1.038086,0.401367-1.194336
				c0.032227-0.020508,0.084961-0.045898,0.111328-0.050781c-0.005859,0.006836-0.013672,0.032227-0.053711,0.09375
				c-0.010742,0.016602-0.213867,0.339844-0.224609,0.792969v0.117188c0.022461-0.013672,0.171875-0.28418,0.448242-0.342773
				c0.033203-0.012695,0.051758-0.015625,0.0625-0.016602c-0.008789,0.004883-0.022461,0.035156-0.095703,0.115234
				c-0.000977,0.000977-0.167969,0.170898-0.461914,0.776367l-0.024414,0.234375
				C32.90332,44.994141,32.860352,45.018555,32.803711,45.018555z"/>
		</g>
	</g>
</g>
<g id="marsh_x5F_bd_9_" style="enable-background:new    ;">
	<g id="Marsh_x5F_FC_11_">
		<g>
			<g>
				<g>
					<path style="fill:#95CDC7;" d="M27.505859,43.513672c0.025391,0.041016,0.001953,0.075195-0.048828,0.075195h-1.163086
						c-0.050781,0-0.092773-0.03418-0.092773-0.075195c0-0.041992,0.041992-0.076172,0.092773-0.076172h0.807617
						c-0.003906-0.014648-0.008789-0.02832-0.027344-0.041992c-0.014648-0.013672-0.014648-0.013672-0.014648-0.013672
						c-0.033203-0.025391-0.025391-0.072266,0.015625-0.103516l0.041016-0.03125
						c0.037109,0.033203,0.068359,0.06543,0.087891,0.098633c0.021484,0.026367,0.021484,0.026367,0.021484,0.026367
						c0.004883,0.02832,0.009766,0.054688,0.009766,0.058594s0.039063,0.007813,0.087891,0.007813l0,0
						c0-0.074219-0.009766-0.129883-0.02832-0.175781c-0.023438-0.046875-0.032227-0.05957-0.032227-0.05957
						c-0.033203-0.039063-0.023438-0.09375,0.020508-0.121094l0.03125-0.019531
						c0.041992,0.037109,0.069336,0.078125,0.092773,0.120117c0.022461,0.041992,0.022461,0.041992,0.022461,0.041992
						c0.009766,0.047852,0.021484,0.115234,0.025391,0.149414C27.458984,43.40918,27.481445,43.47168,27.505859,43.513672z
						 M29.006836,43.948242c0,0.03125-0.041992,0.058594-0.092773,0.058594h-1.920898
						c-0.051758,0-0.09375-0.026367-0.09375-0.058594s0.041992-0.057617,0.09375-0.057617h1.920898
						C28.964844,43.890625,29.006836,43.916016,29.006836,43.948242z M27.845703,43.566406c0,0-0.111328-0.351563-0.22168-0.458008
						c0,0-0.097656-0.115234,0.110352-0.032227c0,0,0.106445,0.051758,0.176758,0.259766c0,0,0.008789-0.379883,0.236328-0.443359
						c0,0,0.166992-0.06543,0.060547,0.037109c0,0-0.133789,0.142578-0.138672,0.317383c0,0,0.074219-0.09668,0.25-0.125
						c0,0,0.143555-0.035156,0,0.06543l-0.206055,0.22168c-0.03418,0.038086-0.067383,0.088867-0.070313,0.113281
						C28.039063,43.546875,28,43.588867,27.956055,43.615234C27.956055,43.615234,27.953125,43.617188,27.845703,43.566406z
						 M28.404297,43.513672c0.024414-0.041992,0.047852-0.118164,0.053711-0.168945l0.003906-0.032227
						c0.004883-0.046875,0.018555-0.087891,0.041992-0.129883s0.030273-0.049805,0.030273-0.049805
						c0.03418-0.039063,0.09668-0.047852,0.141602-0.020508l0.030273,0.020508
						c-0.045898,0.036133-0.074219,0.077148-0.091797,0.124023c-0.018555,0.045898-0.021484,0.086914-0.021484,0.086914
						c-0.003906,0.051758,0.032227,0.09375,0.082031,0.09375l0,0c0.004883-0.038086,0.018555-0.074219,0.036133-0.102539
						c0.019531-0.032227,0.019531-0.032227,0.019531-0.032227c0.036133-0.03125,0.097656-0.030273,0.138672,0.000977
						l0.041992,0.03125c-0.038086,0.023438-0.060547,0.041992-0.075195,0.055664
						c-0.018555,0.018555-0.018555,0.018555-0.018555,0.018555c-0.004883,0.015625,0.033203,0.02832,0.083984,0.02832h0.714844
						c0.050781,0,0.092773,0.03418,0.092773,0.076172c0,0.041016-0.041992,0.075195-0.092773,0.075195h-1.163086
						C28.402344,43.588867,28.378906,43.554688,28.404297,43.513672z"/>
				</g>
			</g>
		</g>
	</g>
</g>
<g id="marsh_x5F_bd_16_" style="enable-background:new    ;">
	<g id="Marsh_x5F_FC_18_">
		<g>
			<g>
				<g>
					<path style="fill:#95CDC7;" d="M5.486328,47.964844c0.025391,0.041016,0.002441,0.075195-0.048828,0.075195H4.273926
						c-0.050781,0-0.092773-0.03418-0.092773-0.075195c0-0.041992,0.041992-0.076172,0.092773-0.076172H5.08252
						c-0.003906-0.014648-0.008789-0.02832-0.027832-0.041992c-0.01416-0.013672-0.01416-0.013672-0.01416-0.013672
						c-0.033203-0.025391-0.025879-0.072266,0.015137-0.103516l0.041016-0.03125
						c0.037109,0.033203,0.068848,0.06543,0.087891,0.098633c0.021973,0.026367,0.021973,0.026367,0.021973,0.026367
						c0.004883,0.02832,0.009766,0.054688,0.009766,0.058594s0.039063,0.007813,0.087402,0.007813l0,0
						c0-0.074219-0.009277-0.129883-0.02832-0.175781c-0.022949-0.046875-0.031738-0.05957-0.031738-0.05957
						c-0.033203-0.039063-0.023926-0.09375,0.02002-0.121094l0.031738-0.019531
						c0.041992,0.037109,0.069336,0.078125,0.092285,0.120117s0.022949,0.041992,0.022949,0.041992
						c0.009766,0.047852,0.020996,0.115234,0.024902,0.149414C5.439453,47.860352,5.462402,47.922852,5.486328,47.964844z
						 M6.987305,48.399414c0,0.03125-0.041992,0.058594-0.092773,0.058594H4.973633c-0.05127,0-0.093262-0.026367-0.093262-0.058594
						s0.041992-0.057617,0.093262-0.057617h1.920898C6.945313,48.341797,6.987305,48.367188,6.987305,48.399414z M5.82666,48.017578
						c0,0-0.111328-0.351563-0.222168-0.458008c0,0-0.097168-0.115234,0.11084-0.032227c0,0,0.106445,0.051758,0.17627,0.259766
						c0,0,0.008789-0.379883,0.23584-0.443359c0,0,0.166992-0.06543,0.061035,0.037109c0,0-0.133789,0.142578-0.13916,0.317383
						c0,0,0.074219-0.09668,0.25-0.125c0,0,0.144043-0.035156,0,0.06543l-0.205566,0.22168
						c-0.03418,0.038086-0.067383,0.088867-0.070313,0.113281c-0.003906,0.024414-0.042969,0.066406-0.086914,0.092773
						C5.936523,48.066406,5.933594,48.068359,5.82666,48.017578z M6.384766,47.964844
						c0.023926-0.041992,0.047852-0.118164,0.053711-0.168945l0.003906-0.032227
						c0.004395-0.046875,0.018066-0.087891,0.041992-0.129883c0.022949-0.041992,0.030273-0.049805,0.030273-0.049805
						c0.033691-0.039063,0.09668-0.047852,0.141113-0.020508l0.030762,0.020508
						c-0.045898,0.036133-0.074219,0.077148-0.091797,0.124023c-0.019043,0.045898-0.021973,0.086914-0.021973,0.086914
						c-0.003418,0.051758,0.032715,0.09375,0.082031,0.09375l0,0c0.004883-0.038086,0.018555-0.074219,0.036621-0.102539
						c0.019043-0.032227,0.019043-0.032227,0.019043-0.032227c0.036133-0.03125,0.098145-0.030273,0.13916,0.000977
						l0.041992,0.03125c-0.038086,0.023438-0.061035,0.041992-0.075195,0.055664
						c-0.019043,0.018555-0.019043,0.018555-0.019043,0.018555c-0.004883,0.015625,0.033203,0.02832,0.083984,0.02832h0.71582
						c0.050781,0,0.092773,0.03418,0.092773,0.076172c0,0.041016-0.041992,0.075195-0.092773,0.075195H6.433594
						C6.382324,48.040039,6.359375,48.005859,6.384766,47.964844z"/>
				</g>
			</g>
		</g>
	</g>
</g>
<g id="scrub_x5F_bd_10_" style="enable-background:new    ;">
	<g id="Scrub_x5F_FC_12_">
		<g id="Deleted_Symbol_1_12_">
			<path style="fill:#A5CDA6;" d="M7.064941,46.598633c-0.028809,0-0.053711-0.019531-0.0625-0.046875l-0.148926-0.484375
				C6.843262,46.035156,6.860352,46,6.892578,45.986328l0.07666-0.029297c0.012207-0.000977,0.023438-0.001953,0.032227-0.001953
				c0.036621,0.011719,0.04834,0.026367,0.054688,0.043945l0.146973,0.494141
				c0.009766,0.035156-0.009277,0.071289-0.042969,0.082031c-0.041016,0.012695-0.068359,0.018555-0.081055,0.021484
				L7.064941,46.598633z"/>
			<path style="fill:#A5CDA6;" d="M7.984863,46.475586c-0.039063,0-0.070801-0.032227-0.071777-0.072266l-0.006348-0.49707
				c0-0.039063-0.013672-0.057617-0.024902-0.069336c-0.013672-0.014648-0.035645-0.022461-0.060059-0.022461
				c-0.023926,0-0.063965,0.007813-0.11377,0.048828c-0.013184,0.009766-0.027832,0.014648-0.044922,0.014648
				C7.625,45.873047,7.61084,45.858398,7.604004,45.84668L7.558105,45.77832c-0.021973-0.033203-0.01416-0.076172,0.019043-0.099609
				c0.085938-0.060547,0.174805-0.09375,0.255859-0.09375c0.085938,0,0.162109,0.038086,0.217773,0.109375
				c0.047852,0.063477,0.072754,0.134766,0.072754,0.211914l0.005859,0.461914l0.005859,0.037109
				c0,0.037109-0.032715,0.069336-0.071289,0.070313H7.984863z"/>
			<path style="fill:#A5CDA6;" d="M10.124023,46.541992c-0.026855-0.005859-0.053223-0.012695-0.076172-0.019531
				c-0.033691-0.010742-0.053711-0.045898-0.043945-0.080078l0.144043-0.496094
				c0.004883-0.017578,0.01709-0.03125,0.032715-0.040039l0.133789,0.023438c0.033203,0.012695,0.05127,0.048828,0.041016,0.082031
				l-0.154785,0.486328c-0.009277,0.02832-0.033691,0.045898-0.060547,0.045898L10.124023,46.541992z"/>
			<path style="fill:#A5CDA6;" d="M9.029297,46.433594c-0.046875,0-0.09375-0.017578-0.139648-0.050781
				c0.006836-0.013672-0.174316-0.900391-0.364258-1.183594c-0.024902-0.046875-0.037109-0.09668-0.030762-0.106445
				c0.045898,0.007813,0.09375,0.026367,0.168945,0.072266c0.015137,0.012695,0.185059,0.107422,0.291016,0.600586
				l0.036133,0.116211c0.016602-0.027344,0.044922-1.038086,0.400391-1.194336
				c0.032715-0.020508,0.084961-0.045898,0.111816-0.050781c-0.005859,0.006836-0.01416,0.032227-0.053711,0.09375
				c-0.01123,0.016602-0.214355,0.339844-0.225098,0.792969v0.117188c0.022949-0.013672,0.171875-0.28418,0.44873-0.342773
				c0.033203-0.012695,0.052246-0.015625,0.062988-0.016602c-0.008789,0.004883-0.022949,0.035156-0.09668,0.115234
				c-0.000977,0.000977-0.167969,0.170898-0.461914,0.776367l-0.024414,0.234375
				C9.128906,46.40918,9.086426,46.433594,9.029297,46.433594z"/>
		</g>
	</g>
</g>
<g id="marsh_x5F_bd_15_" style="enable-background:new    ;">
	<g id="Marsh_x5F_FC_17_">
		<g>
			<g>
				<g>
					<path style="fill:#95CDC7;" d="M3.731445,44.929688c0.025391,0.041016,0.002441,0.075195-0.048828,0.075195H2.519043
						c-0.050781,0-0.092773-0.03418-0.092773-0.075195c0-0.041992,0.041992-0.076172,0.092773-0.076172h0.808594
						c-0.003906-0.014648-0.008789-0.02832-0.027832-0.041992c-0.01416-0.013672-0.01416-0.013672-0.01416-0.013672
						c-0.033203-0.025391-0.025879-0.072266,0.015137-0.103516l0.041016-0.03125
						c0.037109,0.033203,0.068848,0.06543,0.087891,0.098633c0.021973,0.026367,0.021973,0.026367,0.021973,0.026367
						c0.004883,0.02832,0.009766,0.054688,0.009766,0.058594s0.039063,0.007813,0.087402,0.007813l0,0
						c0-0.074219-0.009277-0.129883-0.02832-0.175781c-0.022949-0.046875-0.031738-0.05957-0.031738-0.05957
						c-0.033203-0.039063-0.023926-0.09375,0.02002-0.121094l0.031738-0.019531
						c0.041992,0.037109,0.069336,0.078125,0.092285,0.120117s0.022949,0.041992,0.022949,0.041992
						c0.009766,0.047852,0.020996,0.115234,0.024902,0.149414C3.68457,44.825195,3.70752,44.887695,3.731445,44.929688z
						 M5.232422,45.364258c0,0.03125-0.041992,0.058594-0.092773,0.058594H3.21875c-0.05127,0-0.093262-0.026367-0.093262-0.058594
						s0.041992-0.057617,0.093262-0.057617h1.920898C5.19043,45.306641,5.232422,45.332031,5.232422,45.364258z M4.071777,44.982422
						c0,0-0.111328-0.351563-0.222168-0.458008c0,0-0.097168-0.115234,0.11084-0.032227c0,0,0.106445,0.051758,0.17627,0.259766
						c0,0,0.008789-0.379883,0.23584-0.443359c0,0,0.166992-0.06543,0.061035,0.037109c0,0-0.133789,0.142578-0.13916,0.317383
						c0,0,0.074219-0.09668,0.25-0.125c0,0,0.144043-0.035156,0,0.06543l-0.205566,0.22168
						c-0.03418,0.038086-0.067383,0.088867-0.070313,0.113281c-0.003906,0.024414-0.042969,0.066406-0.086914,0.092773
						C4.181641,45.03125,4.178711,45.033203,4.071777,44.982422z M4.629883,44.929688
						c0.023926-0.041992,0.047852-0.118164,0.053711-0.168945L4.6875,44.728516
						c0.004395-0.046875,0.018066-0.087891,0.041992-0.129883c0.022949-0.041992,0.030273-0.049805,0.030273-0.049805
						c0.033691-0.039063,0.09668-0.047852,0.141113-0.020508l0.030762,0.020508
						c-0.045898,0.036133-0.074219,0.077148-0.091797,0.124023c-0.019043,0.045898-0.021973,0.086914-0.021973,0.086914
						c-0.003418,0.051758,0.032715,0.09375,0.082031,0.09375l0,0c0.004883-0.038086,0.018555-0.074219,0.036621-0.102539
						c0.019043-0.032227,0.019043-0.032227,0.019043-0.032227c0.036133-0.03125,0.098145-0.030273,0.13916,0.000977
						l0.041992,0.03125c-0.038086,0.023438-0.061035,0.041992-0.075195,0.055664
						C5.04248,44.825195,5.04248,44.825195,5.04248,44.825195c-0.004883,0.015625,0.033203,0.02832,0.083984,0.02832h0.71582
						c0.050781,0,0.092773,0.03418,0.092773,0.076172c0,0.041016-0.041992,0.075195-0.092773,0.075195H4.678711
						C4.627441,45.004883,4.604492,44.970703,4.629883,44.929688z"/>
				</g>
			</g>
		</g>
	</g>
</g>
</svg>
