<?xml version="1.0" encoding="utf-8"?>
<!-- Generator: Adobe Illustrator 16.0.3, SVG Export Plug-In . SVG Version: 6.00 Build 0)  -->
<!DOCTYPE svg PUBLIC "-//W3C//DTD SVG 1.1//EN" "http://www.w3.org/Graphics/SVG/1.1/DTD/svg11.dtd">
<svg version="1.1" id="Layer_1" xmlns="http://www.w3.org/2000/svg" xmlns:xlink="http://www.w3.org/1999/xlink" x="0px" y="0px"
	 width="50px" height="50px" viewBox="0 0 50 50" style="enable-background:new 0 0 50 50;" xml:space="preserve">
<g id="marsh_x5F_bd_14_">
	<g id="Marsh_x5F_FC_16_">
		<g>
			<g>
				<g>
					<path style="fill:#95CDC7;" d="M7.875488,40.271484C7.900879,40.3125,7.87793,40.34668,7.82666,40.34668H6.663086
						c-0.050781,0-0.092773-0.03418-0.092773-0.075195c0-0.041992,0.041992-0.076172,0.092773-0.076172H7.47168
						c-0.003906-0.014648-0.008789-0.02832-0.027832-0.041992c-0.01416-0.013672-0.01416-0.013672-0.01416-0.013672
						c-0.033203-0.025391-0.025879-0.072266,0.015137-0.103516l0.041016-0.03125
						c0.037109,0.033203,0.068848,0.06543,0.087891,0.098633c0.021973,0.026367,0.021973,0.026367,0.021973,0.026367
						c0.004883,0.02832,0.009766,0.054688,0.009766,0.058594s0.039063,0.007813,0.087402,0.007813l0,0
						c0-0.074219-0.009277-0.129883-0.02832-0.175781c-0.022949-0.046875-0.031738-0.05957-0.031738-0.05957
						c-0.033203-0.039063-0.023926-0.09375,0.02002-0.121094l0.031738-0.019531
						c0.041992,0.037109,0.069336,0.078125,0.092285,0.120117s0.022949,0.041992,0.022949,0.041992
						c0.009766,0.047852,0.020996,0.115234,0.024902,0.149414C7.828613,40.166992,7.851563,40.229492,7.875488,40.271484z
						 M9.376465,40.706055c0,0.03125-0.041992,0.058594-0.092773,0.058594H7.362793c-0.05127,0-0.093262-0.026367-0.093262-0.058594
						s0.041992-0.057617,0.093262-0.057617h1.920898C9.334473,40.648438,9.376465,40.673828,9.376465,40.706055z M8.21582,40.324219
						c0,0-0.111328-0.351563-0.222168-0.458008c0,0-0.097168-0.115234,0.11084-0.032227c0,0,0.106445,0.051758,0.17627,0.259766
						c0,0,0.008789-0.379883,0.23584-0.443359c0,0,0.166992-0.06543,0.061035,0.037109c0,0-0.133789,0.142578-0.13916,0.317383
						c0,0,0.074219-0.09668,0.25-0.125c0,0,0.144043-0.035156,0,0.06543l-0.205566,0.22168
						c-0.03418,0.038086-0.067383,0.088867-0.070313,0.113281c-0.003906,0.024414-0.042969,0.066406-0.086914,0.092773
						C8.325684,40.373047,8.322754,40.375,8.21582,40.324219z M8.773926,40.271484
						c0.023926-0.041992,0.047852-0.118164,0.053711-0.168945l0.003906-0.032227
						c0.004395-0.046875,0.018066-0.087891,0.041992-0.129883c0.022949-0.041992,0.030273-0.049805,0.030273-0.049805
						c0.033691-0.039063,0.09668-0.047852,0.141113-0.020508l0.030762,0.020508
						c-0.045898,0.036133-0.074219,0.077148-0.091797,0.124023c-0.019043,0.045898-0.021973,0.086914-0.021973,0.086914
						c-0.003418,0.051758,0.032715,0.09375,0.082031,0.09375l0,0c0.004883-0.038086,0.018555-0.074219,0.036621-0.102539
						c0.019043-0.032227,0.019043-0.032227,0.019043-0.032227c0.036133-0.03125,0.098145-0.030273,0.13916,0.000977
						l0.041992,0.03125c-0.038086,0.023438-0.061035,0.041992-0.075195,0.055664
						c-0.019043,0.018555-0.019043,0.018555-0.019043,0.018555c-0.004883,0.015625,0.033203,0.02832,0.083984,0.02832h0.71582
						c0.050781,0,0.092773,0.03418,0.092773,0.076172c0,0.041016-0.041992,0.075195-0.092773,0.075195H8.822754
						C8.771484,40.34668,8.748535,40.3125,8.773926,40.271484z"/>
				</g>
			</g>
		</g>
	</g>
</g>
<g id="heath_x5F_bd_11_">
	<g id="Heath_x5F_FC_13_">
		<path style="fill:#A9CDA6;" d="M9.529785,38.598633c-0.025879,0-0.05127-0.013672-0.063965-0.037109l-0.198242-0.34082
			c-0.008789-0.015625-0.011719-0.033203-0.006836-0.050781c0.003906-0.020508,0.018066-0.037109,0.035156-0.047852
			l0.055664-0.035156l0.065918-0.005859l0.041992,0.039063l0.19043,0.334961l0.005859,0.06543L9.616699,38.5625l-0.049805,0.025391
			C9.553711,38.595703,9.541504,38.598633,9.529785,38.598633z"/>
		<path style="fill:#A9CDA6;" d="M10.266113,38.455078c-0.038086,0-0.069824-0.023438-0.080078-0.060547l-0.207031-0.649414
			c-0.012695-0.040039,0.005371-0.082031,0.041992-0.101563l0.069336-0.03418l0.07373-0.003906l0.049316,0.058594l0.20459,0.664063
			l-0.009766,0.068359l-0.052246,0.037109c-0.022949,0.007813-0.043945,0.013672-0.05957,0.016602L10.266113,38.455078z"/>
		<path style="fill:#A9CDA6;" d="M11.056152,37.347656l0.104004,0.913086l-0.021973,0.068359l-0.060059,0.035156
			c-0.043945,0.003906-0.083008,0.003906-0.094727,0.003906c-0.052246,0.003906-0.095215-0.03418-0.099121-0.085938
			l-0.085938-0.926758l0.024902-0.072266l0.078125-0.030273l0.072754,0.008789
			C11.01709,37.270508,11.052246,37.299805,11.056152,37.347656z"/>
		<path style="fill:#A9CDA6;" d="M11.696289,38.454102l-0.064941-0.017578l-0.056152-0.044922l-0.005859-0.067383l0.207031-0.664063
			l0.024902-0.027344c0.007813-0.012695,0.016113-0.018555,0.024902-0.022461l0.041016-0.004883l0.033203,0.005859
			l0.063965,0.033203c0.036621,0.019531,0.054688,0.061523,0.041992,0.101563l-0.205078,0.649414
			c-0.013184,0.038086-0.043945,0.061523-0.081055,0.061523L11.696289,38.454102z"/>
		<path style="fill:#A9CDA6;" d="M12.456543,38.598633c-0.011719,0-0.023926-0.00293-0.033691-0.009766l-0.057129-0.030273
			l-0.041992-0.051758l0.01709-0.057617l0.191895-0.333984l0.050781-0.038086l0.060059,0.012695l0.04834,0.032227
			c0.035645,0.020508,0.047852,0.064453,0.027832,0.098633l-0.198242,0.34082
			C12.507813,38.583984,12.483887,38.598633,12.456543,38.598633z"/>
	</g>
</g>
<g id="heath_x5F_bd_12_" style="enable-background:new    ;">
	<g id="Heath_x5F_FC_14_">
		<path style="fill:#A9CDA6;" d="M5.105957,37.834961c-0.025879,0-0.05127-0.013672-0.063965-0.037109l-0.198242-0.34082
			c-0.008789-0.015625-0.011719-0.033203-0.006836-0.050781c0.003906-0.020508,0.018066-0.037109,0.035156-0.047852
			l0.055664-0.035156l0.065918-0.005859l0.041992,0.039063l0.19043,0.334961l0.005859,0.06543l-0.039063,0.041992
			l-0.049805,0.025391C5.129883,37.832031,5.117676,37.834961,5.105957,37.834961z"/>
		<path style="fill:#A9CDA6;" d="M5.842285,37.691406c-0.038086,0-0.069824-0.023438-0.080078-0.060547l-0.207031-0.649414
			c-0.012695-0.040039,0.005371-0.082031,0.041992-0.101563l0.069336-0.03418l0.07373-0.003906l0.049316,0.058594l0.20459,0.664063
			l-0.009766,0.068359l-0.052246,0.037109c-0.022949,0.007813-0.043945,0.013672-0.05957,0.016602L5.842285,37.691406z"/>
		<path style="fill:#A9CDA6;" d="M6.632324,36.583984l0.104004,0.913086L6.714355,37.56543l-0.060059,0.035156
			c-0.043945,0.003906-0.083008,0.003906-0.094727,0.003906c-0.052246,0.003906-0.095215-0.03418-0.099121-0.085938
			l-0.085938-0.926758l0.024902-0.072266l0.078125-0.030273l0.072754,0.008789
			C6.593262,36.506836,6.628418,36.536133,6.632324,36.583984z"/>
		<path style="fill:#A9CDA6;" d="M7.272461,37.69043L7.20752,37.672852L7.151367,37.62793l-0.005859-0.067383l0.207031-0.664063
			l0.024902-0.027344c0.007813-0.012695,0.016113-0.018555,0.024902-0.022461l0.041016-0.004883l0.033203,0.005859
			l0.063965,0.033203c0.036621,0.019531,0.054688,0.061523,0.041992,0.101563l-0.205078,0.649414
			c-0.013184,0.038086-0.043945,0.061523-0.081055,0.061523L7.272461,37.69043z"/>
		<path style="fill:#A9CDA6;" d="M8.032715,37.834961c-0.011719,0-0.023926-0.00293-0.033691-0.009766l-0.057129-0.030273
			l-0.041992-0.051758l0.01709-0.057617l0.191895-0.333984l0.050781-0.038086l0.060059,0.012695l0.04834,0.032227
			c0.035645,0.020508,0.047852,0.064453,0.027832,0.098633l-0.198242,0.34082
			C8.083984,37.820313,8.060059,37.834961,8.032715,37.834961z"/>
	</g>
</g>
<g id="marsh_x5F_bd_10_" style="enable-background:new    ;">
	<g id="Marsh_x5F_FC_12_">
		<g>
			<g>
				<g>
					<path style="fill:#95CDC7;" d="M26.056641,34.996094c0.025391,0.041016,0.001953,0.075195-0.048828,0.075195h-1.163574
						c-0.050781,0-0.092773-0.03418-0.092773-0.075195c0-0.041992,0.041992-0.076172,0.092773-0.076172h0.808105
						c-0.003906-0.014648-0.008789-0.02832-0.027344-0.041992c-0.014648-0.013672-0.014648-0.013672-0.014648-0.013672
						c-0.033203-0.025391-0.025391-0.072266,0.015625-0.103516l0.041016-0.03125
						c0.037109,0.033203,0.068359,0.06543,0.087891,0.098633c0.021484,0.026367,0.021484,0.026367,0.021484,0.026367
						c0.004883,0.02832,0.009766,0.054688,0.009766,0.058594s0.039063,0.007813,0.087891,0.007813l0,0
						c0-0.074219-0.009766-0.129883-0.02832-0.175781c-0.023438-0.046875-0.032227-0.05957-0.032227-0.05957
						c-0.033203-0.039063-0.023438-0.09375,0.020508-0.121094l0.03125-0.019531
						c0.041992,0.037109,0.069336,0.078125,0.092773,0.120117c0.022461,0.041992,0.022461,0.041992,0.022461,0.041992
						c0.009766,0.047852,0.021484,0.115234,0.025391,0.149414C26.009766,34.891602,26.032227,34.954102,26.056641,34.996094z
						 M27.557617,35.430664c0,0.03125-0.041992,0.058594-0.092773,0.058594h-1.920898
						c-0.05127,0-0.093262-0.026367-0.093262-0.058594s0.041992-0.057617,0.093262-0.057617h1.920898
						C27.515625,35.373047,27.557617,35.398438,27.557617,35.430664z M26.396484,35.048828c0,0-0.111328-0.351563-0.22168-0.458008
						c0,0-0.097656-0.115234,0.110352-0.032227c0,0,0.106445,0.051758,0.176758,0.259766c0,0,0.008789-0.379883,0.236328-0.443359
						c0,0,0.166992-0.06543,0.060547,0.037109c0,0-0.133789,0.142578-0.138672,0.317383c0,0,0.074219-0.09668,0.25-0.125
						c0,0,0.143555-0.035156,0,0.06543l-0.206055,0.22168c-0.03418,0.038086-0.067383,0.088867-0.070313,0.113281
						c-0.003906,0.024414-0.042969,0.066406-0.086914,0.092773C26.506836,35.097656,26.503906,35.099609,26.396484,35.048828z
						 M26.955078,34.996094c0.024414-0.041992,0.047852-0.118164,0.053711-0.168945l0.003906-0.032227
						c0.004883-0.046875,0.018555-0.087891,0.041992-0.129883s0.030273-0.049805,0.030273-0.049805
						c0.03418-0.039063,0.09668-0.047852,0.141602-0.020508l0.030273,0.020508
						c-0.045898,0.036133-0.074219,0.077148-0.091797,0.124023c-0.018555,0.045898-0.021484,0.086914-0.021484,0.086914
						c-0.003906,0.051758,0.032227,0.09375,0.082031,0.09375l0,0c0.004883-0.038086,0.018555-0.074219,0.036133-0.102539
						c0.019531-0.032227,0.019531-0.032227,0.019531-0.032227c0.036133-0.03125,0.097656-0.030273,0.138672,0.000977
						l0.041992,0.03125c-0.038086,0.023438-0.060547,0.041992-0.075195,0.055664
						c-0.018555,0.018555-0.018555,0.018555-0.018555,0.018555c-0.004883,0.015625,0.033203,0.02832,0.083984,0.02832h0.714844
						c0.050781,0,0.092773,0.03418,0.092773,0.076172c0,0.041016-0.041992,0.075195-0.092773,0.075195h-1.163086
						C26.953125,35.071289,26.929688,35.037109,26.955078,34.996094z"/>
				</g>
			</g>
		</g>
	</g>
</g>
<g id="heath_x5F_bd_7_" style="enable-background:new    ;">
	<g id="Heath_x5F_FC_9_">
		<path style="fill:#A9CDA6;" d="M27.710938,33.323242c-0.026367,0-0.051758-0.013672-0.064453-0.037109l-0.198242-0.34082
			c-0.008789-0.015625-0.011719-0.033203-0.006836-0.050781c0.003906-0.020508,0.018555-0.037109,0.035156-0.047852
			l0.055664-0.035156l0.066406-0.005859l0.041992,0.039063l0.19043,0.334961l0.005859,0.06543l-0.039063,0.041992L27.748047,33.3125
			C27.734375,33.320313,27.722656,33.323242,27.710938,33.323242z"/>
		<path style="fill:#A9CDA6;" d="M28.446289,33.179688c-0.038086,0-0.069336-0.023438-0.080078-0.060547l-0.207031-0.649414
			c-0.012695-0.040039,0.005859-0.082031,0.041992-0.101563l0.069336-0.03418l0.074219-0.003906l0.048828,0.058594
			l0.205078,0.664063l-0.009766,0.068359l-0.052734,0.037109c-0.022461,0.007813-0.043945,0.013672-0.05957,0.016602
			L28.446289,33.179688z"/>
		<path style="fill:#A9CDA6;" d="M29.237305,32.072266l0.103516,0.913086l-0.021484,0.068359l-0.060547,0.035156
			c-0.043945,0.003906-0.083008,0.003906-0.094727,0.003906c-0.052734,0.003906-0.095703-0.03418-0.099609-0.085938
			l-0.085938-0.926758l0.025391-0.072266l0.078125-0.030273l0.072266,0.008789
			C29.198242,31.995117,29.233398,32.024414,29.237305,32.072266z"/>
		<path style="fill:#A9CDA6;" d="M29.876953,33.178711L29.8125,33.161133l-0.056641-0.044922L29.75,33.048828l0.207031-0.664063
			l0.025391-0.027344c0.007813-0.012695,0.015625-0.018555,0.024414-0.022461l0.041016-0.004883l0.033203,0.005859
			l0.064453,0.033203c0.036133,0.019531,0.054688,0.061523,0.041992,0.101563l-0.205078,0.649414
			c-0.013672,0.038086-0.043945,0.061523-0.081055,0.061523L29.876953,33.178711z"/>
		<path style="fill:#A9CDA6;" d="M30.636719,33.323242c-0.011719,0-0.023438-0.00293-0.033203-0.009766l-0.057617-0.030273
			l-0.041992-0.051758l0.017578-0.057617l0.191406-0.333984l0.050781-0.038086l0.060547,0.012695l0.047852,0.032227
			c0.036133,0.020508,0.047852,0.064453,0.02832,0.098633l-0.198242,0.34082
			C30.688477,33.308594,30.664063,33.323242,30.636719,33.323242z"/>
	</g>
</g>
<g id="heath_x5F_bd_8_" style="enable-background:new    ;">
	<g id="Heath_x5F_FC_10_">
		<path style="fill:#A9CDA6;" d="M23.286621,32.55957c-0.025879,0-0.05127-0.013672-0.063965-0.037109l-0.198242-0.34082
			c-0.008789-0.015625-0.011719-0.033203-0.006836-0.050781c0.003906-0.020508,0.018066-0.037109,0.035156-0.047852
			l0.055664-0.035156l0.065918-0.005859l0.041992,0.039063l0.19043,0.334961l0.005859,0.06543l-0.039063,0.041992
			l-0.049805,0.025391C23.310547,32.556641,23.29834,32.55957,23.286621,32.55957z"/>
		<path style="fill:#A9CDA6;" d="M24.022949,32.416016c-0.038086,0-0.069824-0.023438-0.080078-0.060547l-0.207031-0.649414
			c-0.012695-0.040039,0.005371-0.082031,0.041992-0.101563l0.069336-0.03418l0.07373-0.003906L23.970215,31.625l0.20459,0.664063
			l-0.009766,0.068359l-0.052246,0.037109c-0.022949,0.007813-0.043945,0.013672-0.05957,0.016602L24.022949,32.416016z"/>
		<path style="fill:#A9CDA6;" d="M24.812988,31.308594l0.104004,0.913086l-0.021973,0.068359l-0.060059,0.035156
			c-0.043945,0.003906-0.083008,0.003906-0.094727,0.003906c-0.052246,0.003906-0.095215-0.03418-0.099121-0.085938
			l-0.085938-0.926758l0.024902-0.072266l0.078125-0.030273l0.072754,0.008789
			C24.773926,31.231445,24.809082,31.260742,24.812988,31.308594z"/>
		<path style="fill:#A9CDA6;" d="M25.453125,32.415039l-0.064941-0.017578l-0.056152-0.044922l-0.005859-0.067383l0.207031-0.664063
			l0.025391-0.027344c0.007813-0.012695,0.015625-0.018555,0.024414-0.022461l0.041016-0.004883l0.033203,0.005859
			l0.064453,0.033203c0.036133,0.019531,0.054688,0.061523,0.041992,0.101563l-0.205078,0.649414
			c-0.013672,0.038086-0.043945,0.061523-0.081543,0.061523L25.453125,32.415039z"/>
		<path style="fill:#A9CDA6;" d="M26.212891,32.55957c-0.011719,0-0.023438-0.00293-0.033203-0.009766l-0.057617-0.030273
			l-0.041992-0.051758l0.017578-0.057617l0.191406-0.333984l0.050781-0.038086l0.060547,0.012695l0.047852,0.032227
			c0.036133,0.020508,0.047852,0.064453,0.02832,0.098633l-0.198242,0.34082
			C26.264648,32.544922,26.240234,32.55957,26.212891,32.55957z"/>
	</g>
</g>
<g id="marsh_x5F_bd_13_" style="enable-background:new    ;">
	<g id="Marsh_x5F_FC_15_">
		<g>
			<g>
				<g>
					<path style="fill:#95CDC7;" d="M5.66748,26.314453c0.025391,0.041016,0.002441,0.075195-0.048828,0.075195H4.455078
						c-0.050781,0-0.092773-0.03418-0.092773-0.075195c0-0.041992,0.041992-0.076172,0.092773-0.076172h0.808594
						c-0.003906-0.014648-0.008789-0.02832-0.027832-0.041992c-0.01416-0.013672-0.01416-0.013672-0.01416-0.013672
						c-0.033203-0.025391-0.025879-0.072266,0.015137-0.103516l0.041016-0.03125
						c0.037109,0.033203,0.068848,0.06543,0.087891,0.098633c0.021973,0.026367,0.021973,0.026367,0.021973,0.026367
						c0.004883,0.02832,0.009766,0.054688,0.009766,0.058594s0.039063,0.007813,0.087402,0.007813l0,0
						c0-0.074219-0.009277-0.129883-0.02832-0.175781c-0.022949-0.046875-0.031738-0.05957-0.031738-0.05957
						c-0.033203-0.039063-0.023926-0.09375,0.02002-0.121094l0.031738-0.019531
						c0.041992,0.037109,0.069336,0.078125,0.092285,0.120117s0.022949,0.041992,0.022949,0.041992
						c0.009766,0.047852,0.020996,0.115234,0.024902,0.149414C5.620605,26.209961,5.643555,26.272461,5.66748,26.314453z
						 M7.168457,26.749023c0,0.03125-0.041992,0.058594-0.092773,0.058594H5.154785c-0.05127,0-0.093262-0.026367-0.093262-0.058594
						s0.041992-0.057617,0.093262-0.057617h1.920898C7.126465,26.691406,7.168457,26.716797,7.168457,26.749023z
						 M6.007813,26.367188c0,0-0.111328-0.351563-0.222168-0.458008c0,0-0.097168-0.115234,0.11084-0.032227
						c0,0,0.106445,0.051758,0.17627,0.259766c0,0,0.008789-0.379883,0.23584-0.443359c0,0,0.166992-0.06543,0.061035,0.037109
						c0,0-0.133789,0.142578-0.13916,0.317383c0,0,0.074219-0.09668,0.25-0.125c0,0,0.144043-0.035156,0,0.06543l-0.205566,0.22168
						c-0.03418,0.038086-0.067383,0.088867-0.070313,0.113281c-0.003906,0.024414-0.042969,0.066406-0.086914,0.092773
						C6.117676,26.416016,6.114746,26.417969,6.007813,26.367188z M6.565918,26.314453
						c0.023926-0.041992,0.047852-0.118164,0.053711-0.168945l0.003906-0.032227
						c0.004395-0.046875,0.018066-0.087891,0.041992-0.129883c0.022949-0.041992,0.030273-0.049805,0.030273-0.049805
						c0.033691-0.039063,0.09668-0.047852,0.141113-0.020508l0.030762,0.020508
						c-0.045898,0.036133-0.074219,0.077148-0.091797,0.124023c-0.019043,0.045898-0.021973,0.086914-0.021973,0.086914
						c-0.003418,0.051758,0.032715,0.09375,0.082031,0.09375l0,0c0.004883-0.038086,0.018555-0.074219,0.036621-0.102539
						c0.019043-0.032227,0.019043-0.032227,0.019043-0.032227c0.036133-0.03125,0.098145-0.030273,0.13916,0.000977
						l0.041992,0.03125c-0.038086,0.023438-0.061035,0.041992-0.075195,0.055664
						c-0.019043,0.018555-0.019043,0.018555-0.019043,0.018555c-0.004883,0.015625,0.033203,0.02832,0.083984,0.02832h0.71582
						c0.050781,0,0.092773,0.03418,0.092773,0.076172c0,0.041016-0.041992,0.075195-0.092773,0.075195H6.614746
						C6.563477,26.389648,6.540527,26.355469,6.565918,26.314453z"/>
				</g>
			</g>
		</g>
	</g>
</g>
<g id="heath_x5F_bd_13_" style="enable-background:new    ;">
	<g id="Heath_x5F_FC_15_">
		<path style="fill:#A9CDA6;" d="M7.321777,24.641602c-0.025879,0-0.05127-0.013672-0.063965-0.037109l-0.198242-0.34082
			c-0.008789-0.015625-0.011719-0.033203-0.006836-0.050781c0.003906-0.020508,0.018066-0.037109,0.035156-0.047852
			l0.055664-0.035156l0.065918-0.005859l0.041992,0.039063l0.19043,0.334961l0.005859,0.06543l-0.039063,0.041992
			l-0.049805,0.025391C7.345703,24.638672,7.333496,24.641602,7.321777,24.641602z"/>
		<path style="fill:#A9CDA6;" d="M8.058105,24.498047c-0.038086,0-0.069824-0.023438-0.080078-0.060547l-0.207031-0.649414
			c-0.012695-0.040039,0.005371-0.082031,0.041992-0.101563l0.069336-0.03418l0.07373-0.003906l0.049316,0.058594l0.20459,0.664063
			l-0.009766,0.068359l-0.052246,0.037109c-0.022949,0.007813-0.043945,0.013672-0.05957,0.016602L8.058105,24.498047z"/>
		<path style="fill:#A9CDA6;" d="M8.848145,23.390625l0.104004,0.913086L8.930176,24.37207l-0.060059,0.035156
			c-0.043945,0.003906-0.083008,0.003906-0.094727,0.003906c-0.052246,0.003906-0.095215-0.03418-0.099121-0.085938
			l-0.085938-0.926758l0.024902-0.072266l0.078125-0.030273l0.072754,0.008789
			C8.809082,23.313477,8.844238,23.342773,8.848145,23.390625z"/>
		<path style="fill:#A9CDA6;" d="M9.488281,24.49707L9.42334,24.479492L9.367188,24.43457l-0.005859-0.067383l0.207031-0.664063
			l0.024902-0.027344c0.007813-0.012695,0.016113-0.018555,0.024902-0.022461l0.041016-0.004883l0.033203,0.005859L9.756348,23.6875
			c0.036621,0.019531,0.054688,0.061523,0.041992,0.101563l-0.205078,0.649414C9.580078,24.476563,9.549316,24.5,9.512207,24.5
			L9.488281,24.49707z"/>
		<path style="fill:#A9CDA6;" d="M10.248535,24.641602c-0.011719,0-0.023926-0.00293-0.033691-0.009766l-0.057129-0.030273
			l-0.041992-0.051758l0.01709-0.057617l0.191895-0.333984l0.050781-0.038086l0.060059,0.012695l0.04834,0.032227
			c0.035645,0.020508,0.047852,0.064453,0.027832,0.098633l-0.198242,0.34082
			C10.299805,24.626953,10.275879,24.641602,10.248535,24.641602z"/>
	</g>
</g>
<g id="marsh_x5F_bd_12_" style="enable-background:new    ;">
	<g id="Marsh_x5F_FC_14_">
		<g>
			<g>
				<g>
					<path style="fill:#95CDC7;" d="M3.912598,23.278809c0.025391,0.041016,0.002441,0.075195-0.048828,0.075195H2.700195
						c-0.050781,0-0.092773-0.03418-0.092773-0.075195c0-0.041992,0.041992-0.076172,0.092773-0.076172h0.808594
						C3.504883,23.187988,3.5,23.174316,3.480957,23.160645c-0.01416-0.013672-0.01416-0.013672-0.01416-0.013672
						c-0.033203-0.025391-0.025879-0.072266,0.015137-0.103516l0.041016-0.03125
						c0.037109,0.033203,0.068848,0.06543,0.087891,0.098633c0.021973,0.026367,0.021973,0.026367,0.021973,0.026367
						c0.004883,0.02832,0.009766,0.054688,0.009766,0.058594s0.039063,0.007813,0.087402,0.007813l0,0
						c0-0.074219-0.009277-0.129883-0.02832-0.175781c-0.022949-0.046875-0.031738-0.05957-0.031738-0.05957
						c-0.033203-0.039063-0.023926-0.09375,0.02002-0.121094l0.031738-0.019531
						c0.041992,0.037109,0.069336,0.078125,0.092285,0.120117s0.022949,0.041992,0.022949,0.041992
						C3.84668,23.037598,3.85791,23.10498,3.861816,23.13916C3.865723,23.174316,3.888672,23.236816,3.912598,23.278809z
						 M5.413574,23.713379c0,0.03125-0.041992,0.058594-0.092773,0.058594H3.399902c-0.05127,0-0.093262-0.026367-0.093262-0.058594
						s0.041992-0.057617,0.093262-0.057617h1.920898C5.371582,23.655762,5.413574,23.681152,5.413574,23.713379z M4.25293,23.331543
						c0,0-0.111328-0.351563-0.222168-0.458008c0,0-0.097168-0.115234,0.11084-0.032227c0,0,0.106445,0.051758,0.17627,0.259766
						c0,0,0.008789-0.379883,0.23584-0.443359c0,0,0.166992-0.06543,0.061035,0.037109c0,0-0.133789,0.142578-0.13916,0.317383
						c0,0,0.074219-0.09668,0.25-0.125c0,0,0.144043-0.035156,0,0.06543l-0.205566,0.22168
						c-0.03418,0.038086-0.067383,0.088867-0.070313,0.113281c-0.003906,0.024414-0.042969,0.066406-0.086914,0.092773
						C4.362793,23.380371,4.359863,23.382324,4.25293,23.331543z M4.811035,23.278809
						c0.023926-0.041992,0.047852-0.118164,0.053711-0.168945l0.003906-0.032227
						c0.004395-0.046875,0.018066-0.087891,0.041992-0.129883c0.022949-0.041992,0.030273-0.049805,0.030273-0.049805
						c0.033691-0.039063,0.09668-0.047852,0.141113-0.020508l0.030762,0.020508
						c-0.045898,0.036133-0.074219,0.077148-0.091797,0.124023c-0.019043,0.045898-0.021973,0.086914-0.021973,0.086914
						c-0.003418,0.051758,0.032715,0.09375,0.082031,0.09375l0,0c0.004883-0.038086,0.018555-0.074219,0.036621-0.102539
						c0.019043-0.032227,0.019043-0.032227,0.019043-0.032227c0.036133-0.03125,0.098145-0.030273,0.13916,0.000977
						l0.041992,0.03125c-0.038086,0.023438-0.061035,0.041992-0.075195,0.055664
						c-0.019043,0.018555-0.019043,0.018555-0.019043,0.018555c-0.004883,0.015625,0.033203,0.02832,0.083984,0.02832h0.71582
						c0.050781,0,0.092773,0.03418,0.092773,0.076172c0,0.041016-0.041992,0.075195-0.092773,0.075195H4.859863
						C4.808594,23.354004,4.785645,23.319824,4.811035,23.278809z"/>
				</g>
			</g>
		</g>
	</g>
</g>
<g id="marsh_x5F_bd_11_" style="enable-background:new    ;">
	<g id="Marsh_x5F_FC_13_">
		<g>
			<g>
				<g>
					<path style="fill:#95CDC7;" d="M10.060059,15.903809c0.025391,0.041016,0.002441,0.075195-0.048828,0.075195H8.847656
						c-0.050781,0-0.092773-0.03418-0.092773-0.075195c0-0.041992,0.041992-0.076172,0.092773-0.076172H9.65625
						c-0.003906-0.014648-0.008789-0.02832-0.027832-0.041992c-0.01416-0.013672-0.01416-0.013672-0.01416-0.013672
						c-0.033203-0.025391-0.025879-0.072266,0.015137-0.103516l0.041016-0.03125
						c0.037109,0.033203,0.068848,0.06543,0.087891,0.098633c0.021973,0.026367,0.021973,0.026367,0.021973,0.026367
						c0.004883,0.02832,0.009766,0.054688,0.009766,0.058594s0.039063,0.007813,0.087402,0.007813l0,0
						c0-0.074219-0.009277-0.129883-0.02832-0.175781c-0.022949-0.046875-0.031738-0.05957-0.031738-0.05957
						c-0.033203-0.039063-0.023926-0.09375,0.02002-0.121094l0.031738-0.019531
						c0.041992,0.037109,0.069336,0.078125,0.092285,0.120117s0.022949,0.041992,0.022949,0.041992
						c0.009766,0.047852,0.020996,0.115234,0.024902,0.149414C10.013184,15.799316,10.036133,15.861816,10.060059,15.903809z
						 M11.561035,16.338379c0,0.03125-0.041992,0.058594-0.092773,0.058594H9.547363
						c-0.05127,0-0.093262-0.026367-0.093262-0.058594s0.041992-0.057617,0.093262-0.057617h1.920898
						C11.519043,16.280762,11.561035,16.306152,11.561035,16.338379z M10.400391,15.956543c0,0-0.111328-0.351563-0.222168-0.458008
						c0,0-0.097168-0.115234,0.11084-0.032227c0,0,0.106445,0.051758,0.17627,0.259766c0,0,0.008789-0.379883,0.23584-0.443359
						c0,0,0.166992-0.06543,0.061035,0.037109c0,0-0.133789,0.142578-0.13916,0.317383c0,0,0.074219-0.09668,0.25-0.125
						c0,0,0.144043-0.035156,0,0.06543l-0.205566,0.22168c-0.03418,0.038086-0.067383,0.088867-0.070313,0.113281
						c-0.003906,0.024414-0.042969,0.066406-0.086914,0.092773C10.510254,16.005371,10.507324,16.007324,10.400391,15.956543z
						 M10.958496,15.903809c0.023926-0.041992,0.047852-0.118164,0.053711-0.168945l0.003906-0.032227
						c0.004395-0.046875,0.018066-0.087891,0.041992-0.129883c0.022949-0.041992,0.030273-0.049805,0.030273-0.049805
						c0.033691-0.039063,0.09668-0.047852,0.141113-0.020508l0.030762,0.020508
						c-0.045898,0.036133-0.074219,0.077148-0.091797,0.124023c-0.019043,0.045898-0.021973,0.086914-0.021973,0.086914
						c-0.003418,0.051758,0.032715,0.09375,0.082031,0.09375l0,0c0.004883-0.038086,0.018555-0.074219,0.036621-0.102539
						c0.019043-0.032227,0.019043-0.032227,0.019043-0.032227c0.036133-0.03125,0.098145-0.030273,0.13916,0.000977
						l0.041992,0.03125c-0.038086,0.023438-0.061035,0.041992-0.075195,0.055664
						c-0.019043,0.018555-0.019043,0.018555-0.019043,0.018555c-0.004883,0.015625,0.033203,0.02832,0.083984,0.02832h0.71582
						c0.050781,0,0.092773,0.03418,0.092773,0.076172c0,0.041016-0.041992,0.075195-0.092773,0.075195h-1.163574
						C10.956055,15.979004,10.933105,15.944824,10.958496,15.903809z"/>
				</g>
			</g>
		</g>
	</g>
</g>
<g id="heath_x5F_bd_14_" style="enable-background:new    ;">
	<g id="Heath_x5F_FC_16_">
		<path style="fill:#A9CDA6;" d="M11.714355,14.231445c-0.025879,0-0.05127-0.013672-0.063965-0.037109l-0.198242-0.34082
			c-0.008789-0.015625-0.011719-0.033203-0.006836-0.050781c0.003906-0.020508,0.018066-0.037109,0.035156-0.047852
			l0.055664-0.035156l0.065918-0.005859l0.041992,0.039063l0.19043,0.334961l0.005859,0.06543l-0.039063,0.041992
			l-0.049805,0.025391C11.738281,14.228516,11.726074,14.231445,11.714355,14.231445z"/>
		<path style="fill:#A9CDA6;" d="M12.450684,14.087891c-0.038086,0-0.069824-0.023438-0.080078-0.060547l-0.207031-0.649414
			c-0.012695-0.040039,0.005371-0.082031,0.041992-0.101563l0.069336-0.03418l0.07373-0.003906l0.049316,0.058594l0.20459,0.664063
			l-0.009766,0.068359l-0.052246,0.037109c-0.022949,0.007813-0.043945,0.013672-0.05957,0.016602L12.450684,14.087891z"/>
		<path style="fill:#A9CDA6;" d="M13.240723,12.980469l0.104004,0.913086l-0.021973,0.068359l-0.060059,0.035156
			c-0.043945,0.003906-0.083008,0.003906-0.094727,0.003906c-0.052246,0.003906-0.095215-0.03418-0.099121-0.085938
			l-0.085938-0.926758l0.024902-0.072266l0.078125-0.030273l0.072754,0.008789
			C13.20166,12.90332,13.236816,12.932617,13.240723,12.980469z"/>
		<path style="fill:#A9CDA6;" d="M13.880859,14.086914l-0.064941-0.017578l-0.056152-0.044922l-0.005859-0.067383l0.207031-0.664063
			l0.024902-0.027344c0.007813-0.012695,0.016113-0.018555,0.024902-0.022461l0.041016-0.004883l0.033203,0.005859
			l0.063965,0.033203c0.036621,0.019531,0.054688,0.061523,0.041992,0.101563L13.98584,14.02832
			c-0.013184,0.038086-0.043945,0.061523-0.081055,0.061523L13.880859,14.086914z"/>
		<path style="fill:#A9CDA6;" d="M14.641113,14.231445c-0.011719,0-0.023926-0.00293-0.033691-0.009766l-0.057129-0.030273
			l-0.041992-0.051758l0.01709-0.057617l0.191895-0.333984l0.050781-0.038086l0.060059,0.012695l0.04834,0.032227
			c0.035645,0.020508,0.047852,0.064453,0.027832,0.098633l-0.198242,0.34082
			C14.692383,14.216797,14.668457,14.231445,14.641113,14.231445z"/>
	</g>
</g>
<g id="heath_x5F_bd_15_" style="enable-background:new    ;">
	<g id="Heath_x5F_FC_17_">
		<path style="fill:#A9CDA6;" d="M7.290527,13.467773c-0.025879,0-0.05127-0.013672-0.063965-0.037109l-0.198242-0.34082
			c-0.008789-0.015625-0.011719-0.033203-0.006836-0.050781c0.003906-0.020508,0.018066-0.037109,0.035156-0.047852
			l0.055664-0.035156l0.065918-0.005859l0.041992,0.039063l0.19043,0.334961l0.005859,0.06543l-0.039063,0.041992
			l-0.049805,0.025391C7.314453,13.464844,7.302246,13.467773,7.290527,13.467773z"/>
		<path style="fill:#A9CDA6;" d="M8.026855,13.324219c-0.038086,0-0.069824-0.023438-0.080078-0.060547l-0.207031-0.649414
			c-0.012695-0.040039,0.005371-0.082031,0.041992-0.101563l0.069336-0.03418l0.07373-0.003906l0.049316,0.058594l0.20459,0.664063
			l-0.009766,0.068359l-0.052246,0.037109c-0.022949,0.007813-0.043945,0.013672-0.05957,0.016602L8.026855,13.324219z"/>
		<path style="fill:#A9CDA6;" d="M8.816895,12.216797l0.104004,0.913086l-0.021973,0.068359l-0.060059,0.035156
			c-0.043945,0.003906-0.083008,0.003906-0.094727,0.003906c-0.052246,0.003906-0.095215-0.03418-0.099121-0.085938
			l-0.085938-0.926758l0.024902-0.072266l0.078125-0.030273l0.072754,0.008789
			C8.777832,12.139648,8.812988,12.168945,8.816895,12.216797z"/>
		<path style="fill:#A9CDA6;" d="M9.457031,13.323242L9.39209,13.305664l-0.056152-0.044922l-0.005859-0.067383l0.207031-0.664063
			l0.024902-0.027344c0.007813-0.012695,0.016113-0.018555,0.024902-0.022461l0.041016-0.004883l0.033203,0.005859
			l0.063965,0.033203c0.036621,0.019531,0.054688,0.061523,0.041992,0.101563l-0.205078,0.649414
			c-0.013184,0.038086-0.043945,0.061523-0.081055,0.061523L9.457031,13.323242z"/>
		<path style="fill:#A9CDA6;" d="M10.217285,13.467773c-0.011719,0-0.023926-0.00293-0.033691-0.009766l-0.057129-0.030273
			l-0.041992-0.051758l0.01709-0.057617l0.191895-0.333984l0.050781-0.038086l0.060059,0.012695l0.04834,0.032227
			c0.035645,0.020508,0.047852,0.064453,0.027832,0.098633l-0.198242,0.34082
			C10.268555,13.453125,10.244629,13.467773,10.217285,13.467773z"/>
	</g>
</g>
<g id="marsh_x5F_bd_2_" style="enable-background:new    ;">
	<g id="Marsh_x5F_FC_4_">
		<g>
			<g>
				<g>
					<path style="fill:#95CDC7;" d="M25.34375,6.120605c0.025391,0.041016,0.002441,0.075195-0.048828,0.075195h-1.163574
						c-0.050781,0-0.092773-0.03418-0.092773-0.075195c0-0.041992,0.041992-0.076172,0.092773-0.076172h0.808594
						c-0.003906-0.014648-0.008789-0.02832-0.027832-0.041992c-0.01416-0.013672-0.01416-0.013672-0.01416-0.013672
						c-0.033203-0.025391-0.025879-0.072266,0.015137-0.103516l0.041016-0.03125
						c0.037109,0.033203,0.068848,0.06543,0.087891,0.098633c0.021973,0.026367,0.021973,0.026367,0.021973,0.026367
						c0.004883,0.02832,0.009766,0.054688,0.009766,0.058594s0.039063,0.007813,0.087402,0.007813l0,0
						c0-0.074219-0.009277-0.129883-0.02832-0.175781c-0.022949-0.046875-0.031738-0.05957-0.031738-0.05957
						c-0.033203-0.039063-0.023926-0.09375,0.02002-0.121094l0.031738-0.019531
						c0.041992,0.037109,0.069336,0.078125,0.092285,0.120117s0.022949,0.041992,0.022949,0.041992
						c0.009766,0.047852,0.020996,0.115234,0.024902,0.149414C25.296875,6.016113,25.319824,6.078613,25.34375,6.120605z
						 M26.844727,6.555176c0,0.03125-0.041992,0.058594-0.092773,0.058594h-1.920898
						c-0.05127,0-0.093262-0.026367-0.093262-0.058594s0.041992-0.057617,0.093262-0.057617h1.920898
						C26.802734,6.497559,26.844727,6.522949,26.844727,6.555176z M25.683594,6.17334c0,0-0.111328-0.351563-0.22168-0.458008
						c0,0-0.097168-0.115234,0.110352-0.032227c0,0,0.106445,0.051758,0.176758,0.259766c0,0,0.008789-0.379883,0.236328-0.443359
						c0,0,0.166992-0.06543,0.060547,0.037109c0,0-0.133789,0.142578-0.138672,0.317383c0,0,0.074219-0.09668,0.25-0.125
						c0,0,0.143555-0.035156,0,0.06543l-0.206055,0.22168c-0.03418,0.038086-0.067383,0.088867-0.070313,0.113281
						c-0.003906,0.024414-0.042969,0.066406-0.086914,0.092773C25.793945,6.222168,25.791016,6.224121,25.683594,6.17334z
						 M26.242188,6.120605c0.024414-0.041992,0.047852-0.118164,0.053711-0.168945l0.003906-0.032227
						c0.004883-0.046875,0.018555-0.087891,0.041992-0.129883s0.030273-0.049805,0.030273-0.049805
						c0.03418-0.039063,0.09668-0.047852,0.141602-0.020508l0.030273,0.020508
						c-0.045898,0.036133-0.074219,0.077148-0.091797,0.124023c-0.018555,0.045898-0.021484,0.086914-0.021484,0.086914
						c-0.003906,0.051758,0.032227,0.09375,0.082031,0.09375l0,0c0.004883-0.038086,0.018555-0.074219,0.036133-0.102539
						c0.019531-0.032227,0.019531-0.032227,0.019531-0.032227c0.036133-0.03125,0.097656-0.030273,0.138672,0.000977
						l0.041992,0.03125c-0.038086,0.023438-0.060547,0.041992-0.075195,0.055664
						c-0.018555,0.018555-0.018555,0.018555-0.018555,0.018555c-0.004883,0.015625,0.033203,0.02832,0.083984,0.02832h0.714844
						c0.050781,0,0.092773,0.03418,0.092773,0.076172c0,0.041016-0.041992,0.075195-0.092773,0.075195h-1.163086
						C26.240234,6.195801,26.216797,6.161621,26.242188,6.120605z"/>
				</g>
			</g>
		</g>
	</g>
</g>
<g id="heath_x5F_bd_5_" style="enable-background:new    ;">
	<g id="Heath_x5F_FC_7_">
		<path style="fill:#A9CDA6;" d="M26.999023,4.448242c-0.026367,0-0.051758-0.013672-0.064453-0.037109l-0.198242-0.34082
			c-0.008789-0.015625-0.011719-0.033203-0.006836-0.050781c0.003906-0.020508,0.018555-0.037109,0.035156-0.047852
			l0.055664-0.035156l0.066406-0.005859l0.041992,0.039063l0.19043,0.334961L27.125,4.370117l-0.039063,0.041992L27.036133,4.4375
			C27.022461,4.445313,27.010742,4.448242,26.999023,4.448242z"/>
		<path style="fill:#A9CDA6;" d="M27.734375,4.304688c-0.038086,0-0.069336-0.023438-0.080078-0.060547l-0.207031-0.649414
			c-0.012695-0.040039,0.005859-0.082031,0.041992-0.101563l0.069336-0.03418l0.074219-0.003906l0.048828,0.058594
			l0.205078,0.664063l-0.009766,0.068359l-0.052734,0.037109c-0.022461,0.007813-0.043945,0.013672-0.05957,0.016602
			L27.734375,4.304688z"/>
		<path style="fill:#A9CDA6;" d="M28.525391,3.197266l0.103516,0.913086l-0.021484,0.068359l-0.060547,0.035156
			c-0.043945,0.003906-0.083008,0.003906-0.094727,0.003906c-0.052734,0.003906-0.095703-0.03418-0.099609-0.085938
			l-0.085938-0.926758l0.025391-0.072266l0.078125-0.030273l0.072266,0.008789
			C28.486328,3.120117,28.521484,3.149414,28.525391,3.197266z"/>
		<path style="fill:#A9CDA6;" d="M29.165039,4.303711l-0.064453-0.017578l-0.056641-0.044922l-0.005859-0.067383l0.207031-0.664063
			l0.025391-0.027344c0.007813-0.012695,0.015625-0.018555,0.024414-0.022461l0.041016-0.004883l0.033203,0.005859
			l0.064453,0.033203c0.036133,0.019531,0.054688,0.061523,0.041992,0.101563l-0.205078,0.649414
			c-0.013672,0.038086-0.043945,0.061523-0.081055,0.061523L29.165039,4.303711z"/>
		<path style="fill:#A9CDA6;" d="M29.924805,4.448242c-0.011719,0-0.023438-0.00293-0.033203-0.009766l-0.057617-0.030273
			l-0.041992-0.051758l0.017578-0.057617l0.191406-0.333984l0.050781-0.038086l0.060547,0.012695l0.047852,0.032227
			c0.036133,0.020508,0.047852,0.064453,0.02832,0.098633l-0.198242,0.34082
			C29.976563,4.433594,29.952148,4.448242,29.924805,4.448242z"/>
	</g>
</g>
<g id="heath_x5F_bd_6_" style="enable-background:new    ;">
	<g id="Heath_x5F_FC_8_">
		<path style="fill:#A9CDA6;" d="M22.574219,3.68457c-0.025879,0-0.05127-0.013672-0.063965-0.037109l-0.198242-0.34082
			c-0.008789-0.015625-0.011719-0.033203-0.006836-0.050781c0.003906-0.020508,0.018066-0.037109,0.035156-0.047852
			l0.055664-0.035156l0.065918-0.005859l0.041992,0.039063l0.19043,0.334961l0.005859,0.06543l-0.039063,0.041992
			l-0.049805,0.025391C22.598145,3.681641,22.585938,3.68457,22.574219,3.68457z"/>
		<path style="fill:#A9CDA6;" d="M23.310547,3.541016c-0.038086,0-0.069824-0.023438-0.080078-0.060547l-0.207031-0.649414
			c-0.012695-0.040039,0.005371-0.082031,0.041992-0.101563l0.069336-0.03418l0.07373-0.003906L23.257813,2.75l0.20459,0.664063
			l-0.009766,0.068359l-0.052246,0.037109c-0.022949,0.007813-0.043945,0.013672-0.05957,0.016602L23.310547,3.541016z"/>
		<path style="fill:#A9CDA6;" d="M24.100586,2.433594L24.20459,3.34668l-0.021973,0.068359l-0.060059,0.035156
			c-0.043945,0.003906-0.083008,0.003906-0.094727,0.003906c-0.052246,0.003906-0.095215-0.03418-0.099121-0.085938
			l-0.085938-0.926758l0.024902-0.072266l0.078125-0.030273l0.072754,0.008789
			C24.061523,2.356445,24.09668,2.385742,24.100586,2.433594z"/>
		<path style="fill:#A9CDA6;" d="M24.740723,3.540039l-0.064941-0.017578l-0.056152-0.044922L24.61377,3.410156l0.207031-0.664063
			l0.024902-0.027344c0.007813-0.012695,0.016113-0.018555,0.024902-0.022461l0.041016-0.004883l0.033203,0.005859
			l0.063965,0.033203C25.04541,2.75,25.063477,2.791992,25.050781,2.832031l-0.205078,0.649414
			c-0.013184,0.038086-0.043945,0.061523-0.081055,0.061523L24.740723,3.540039z"/>
		<path style="fill:#A9CDA6;" d="M25.500977,3.68457c-0.011719,0-0.023926-0.00293-0.033691-0.009766l-0.057129-0.030273
			l-0.041992-0.051758l0.01709-0.057617l0.191895-0.333984l0.050781-0.038086l0.05957,0.012695l0.048828,0.032227
			c0.035156,0.020508,0.047852,0.064453,0.027344,0.098633l-0.198242,0.34082
			C25.551758,3.669922,25.52832,3.68457,25.500977,3.68457z"/>
	</g>
</g>
<g id="marsh_x5F_bd_4_" style="enable-background:new    ;">
	<g id="Marsh_x5F_FC_6_">
		<g>
			<g>
				<g>
					<path style="fill:#95CDC7;" d="M36.527344,14.16748c0.025391,0.041016,0.001953,0.075195-0.048828,0.075195H35.31543
						c-0.050781,0-0.092773-0.03418-0.092773-0.075195c0-0.041992,0.041992-0.076172,0.092773-0.076172h0.807617
						c-0.003906-0.014648-0.008789-0.02832-0.027344-0.041992c-0.014648-0.013672-0.014648-0.013672-0.014648-0.013672
						c-0.033203-0.025391-0.025391-0.072266,0.015625-0.103516l0.041016-0.03125
						c0.037109,0.033203,0.068359,0.06543,0.087891,0.098633c0.021484,0.026367,0.021484,0.026367,0.021484,0.026367
						c0.004883,0.02832,0.009766,0.054688,0.009766,0.058594s0.039063,0.007813,0.087891,0.007813l0,0
						c0-0.074219-0.009766-0.129883-0.02832-0.175781c-0.023438-0.046875-0.032227-0.05957-0.032227-0.05957
						c-0.033203-0.039063-0.023438-0.09375,0.020508-0.121094l0.03125-0.019531
						c0.041992,0.037109,0.069336,0.078125,0.092773,0.120117c0.022461,0.041992,0.022461,0.041992,0.022461,0.041992
						c0.009766,0.047852,0.021484,0.115234,0.025391,0.149414C36.480469,14.062988,36.50293,14.125488,36.527344,14.16748z
						 M38.02832,14.602051c0,0.03125-0.041992,0.058594-0.092773,0.058594h-1.920898c-0.051758,0-0.09375-0.026367-0.09375-0.058594
						s0.041992-0.057617,0.09375-0.057617h1.920898C37.986328,14.544434,38.02832,14.569824,38.02832,14.602051z
						 M36.867188,14.220215c0,0-0.111328-0.351563-0.22168-0.458008c0,0-0.097656-0.115234,0.110352-0.032227
						c0,0,0.106445,0.051758,0.176758,0.259766c0,0,0.008789-0.379883,0.236328-0.443359c0,0,0.166992-0.06543,0.060547,0.037109
						c0,0-0.133789,0.142578-0.138672,0.317383c0,0,0.074219-0.09668,0.25-0.125c0,0,0.143555-0.035156,0,0.06543l-0.206055,0.22168
						c-0.03418,0.038086-0.067383,0.088867-0.070313,0.113281c-0.003906,0.024414-0.042969,0.066406-0.086914,0.092773
						C36.977539,14.269043,36.974609,14.270996,36.867188,14.220215z M37.425781,14.16748
						c0.024414-0.041992,0.047852-0.118164,0.053711-0.168945l0.003906-0.032227
						c0.004883-0.046875,0.018555-0.087891,0.041992-0.129883s0.030273-0.049805,0.030273-0.049805
						c0.03418-0.039063,0.09668-0.047852,0.141602-0.020508l0.030273,0.020508
						c-0.045898,0.036133-0.074219,0.077148-0.091797,0.124023c-0.018555,0.045898-0.021484,0.086914-0.021484,0.086914
						c-0.003906,0.051758,0.032227,0.09375,0.082031,0.09375l0,0c0.004883-0.038086,0.018555-0.074219,0.036133-0.102539
						c0.019531-0.032227,0.019531-0.032227,0.019531-0.032227c0.036133-0.03125,0.097656-0.030273,0.138672,0.000977
						l0.041992,0.03125c-0.038086,0.023438-0.060547,0.041992-0.075195,0.055664
						c-0.018555,0.018555-0.018555,0.018555-0.018555,0.018555c-0.004883,0.015625,0.033203,0.02832,0.083984,0.02832h0.714844
						c0.050781,0,0.092773,0.03418,0.092773,0.076172c0,0.041016-0.041992,0.075195-0.092773,0.075195h-1.163086
						C37.423828,14.242676,37.400391,14.208496,37.425781,14.16748z"/>
				</g>
			</g>
		</g>
	</g>
</g>
<g id="heath_x5F_bd_1_" style="enable-background:new    ;">
	<g id="Heath_x5F_FC_3_">
		<path style="fill:#A9CDA6;" d="M38.181641,12.495117c-0.026367,0-0.051758-0.013672-0.064453-0.037109l-0.198242-0.34082
			c-0.008789-0.015625-0.011719-0.033203-0.006836-0.050781c0.003906-0.020508,0.018555-0.037109,0.035156-0.047852
			l0.055664-0.035156l0.066406-0.005859l0.041992,0.039063l0.19043,0.334961l0.005859,0.06543l-0.039063,0.041992
			l-0.049805,0.025391C38.205078,12.492188,38.193359,12.495117,38.181641,12.495117z"/>
		<path style="fill:#A9CDA6;" d="M38.916992,12.351563c-0.038086,0-0.069336-0.023438-0.080078-0.060547l-0.207031-0.649414
			c-0.012695-0.040039,0.005859-0.082031,0.041992-0.101563l0.069336-0.03418l0.074219-0.003906l0.048828,0.058594
			l0.205078,0.664063l-0.009766,0.068359l-0.052734,0.037109c-0.022461,0.007813-0.043945,0.013672-0.05957,0.016602
			L38.916992,12.351563z"/>
		<path style="fill:#A9CDA6;" d="M39.708008,11.244141l0.103516,0.913086l-0.021484,0.068359l-0.060547,0.035156
			c-0.043945,0.003906-0.083008,0.003906-0.094727,0.003906c-0.052734,0.003906-0.095703-0.03418-0.099609-0.085938
			l-0.085938-0.926758l0.025391-0.072266l0.078125-0.030273L39.625,11.158203
			C39.668945,11.166992,39.704102,11.196289,39.708008,11.244141z"/>
		<path style="fill:#A9CDA6;" d="M40.347656,12.350586l-0.064453-0.017578l-0.056641-0.044922l-0.005859-0.067383l0.207031-0.664063
			l0.025391-0.027344c0.007813-0.012695,0.015625-0.018555,0.024414-0.022461l0.041016-0.004883l0.033203,0.005859
			l0.064453,0.033203c0.036133,0.019531,0.054688,0.061523,0.041992,0.101563l-0.205078,0.649414
			c-0.013672,0.038086-0.043945,0.061523-0.081055,0.061523L40.347656,12.350586z"/>
		<path style="fill:#A9CDA6;" d="M41.107422,12.495117c-0.011719,0-0.023438-0.00293-0.033203-0.009766l-0.057617-0.030273
			l-0.041992-0.051758l0.017578-0.057617l0.191406-0.333984l0.050781-0.038086l0.060547,0.012695l0.047852,0.032227
			c0.036133,0.020508,0.047852,0.064453,0.02832,0.098633l-0.198242,0.34082
			C41.15918,12.480469,41.134766,12.495117,41.107422,12.495117z"/>
	</g>
</g>
<g id="marsh_x5F_bd_3_" style="enable-background:new    ;">
	<g id="Marsh_x5F_FC_5_">
		<g>
			<g>
				<g>
					<path style="fill:#95CDC7;" d="M34.771484,11.132324c0.025391,0.041016,0.001953,0.075195-0.048828,0.075195H33.55957
						c-0.050781,0-0.092773-0.03418-0.092773-0.075195c0-0.041992,0.041992-0.076172,0.092773-0.076172h0.807617
						c-0.003906-0.014648-0.008789-0.02832-0.027344-0.041992c-0.014648-0.013672-0.014648-0.013672-0.014648-0.013672
						c-0.033203-0.025391-0.025391-0.072266,0.015625-0.103516l0.041016-0.03125
						c0.037109,0.033203,0.068359,0.06543,0.087891,0.098633c0.021484,0.026367,0.021484,0.026367,0.021484,0.026367
						c0.004883,0.02832,0.009766,0.054688,0.009766,0.058594s0.039063,0.007813,0.087891,0.007813l0,0
						c0-0.074219-0.009766-0.129883-0.02832-0.175781c-0.023438-0.046875-0.032227-0.05957-0.032227-0.05957
						c-0.033203-0.039063-0.023438-0.09375,0.020508-0.121094l0.03125-0.019531
						c0.041992,0.037109,0.069336,0.078125,0.092773,0.120117c0.022461,0.041992,0.022461,0.041992,0.022461,0.041992
						c0.009766,0.047852,0.021484,0.115234,0.025391,0.149414C34.724609,11.027832,34.74707,11.090332,34.771484,11.132324z
						 M36.272461,11.566895c0,0.03125-0.041992,0.058594-0.092773,0.058594h-1.920898
						c-0.051758,0-0.09375-0.026367-0.09375-0.058594s0.041992-0.057617,0.09375-0.057617h1.920898
						C36.230469,11.509277,36.272461,11.534668,36.272461,11.566895z M35.111328,11.185059c0,0-0.111328-0.351563-0.22168-0.458008
						c0,0-0.097656-0.115234,0.110352-0.032227c0,0,0.106445,0.051758,0.176758,0.259766c0,0,0.008789-0.379883,0.236328-0.443359
						c0,0,0.166992-0.06543,0.060547,0.037109c0,0-0.133789,0.142578-0.138672,0.317383c0,0,0.074219-0.09668,0.25-0.125
						c0,0,0.143555-0.035156,0,0.06543l-0.206055,0.22168c-0.03418,0.038086-0.067383,0.088867-0.070313,0.113281
						c-0.003906,0.024414-0.042969,0.066406-0.086914,0.092773C35.22168,11.233887,35.21875,11.23584,35.111328,11.185059z
						 M35.669922,11.132324c0.024414-0.041992,0.047852-0.118164,0.053711-0.168945l0.003906-0.032227
						c0.004883-0.046875,0.018555-0.087891,0.041992-0.129883s0.030273-0.049805,0.030273-0.049805
						c0.03418-0.039063,0.09668-0.047852,0.141602-0.020508l0.030273,0.020508
						c-0.045898,0.036133-0.074219,0.077148-0.091797,0.124023c-0.018555,0.045898-0.021484,0.086914-0.021484,0.086914
						c-0.003906,0.051758,0.032227,0.09375,0.082031,0.09375l0,0c0.004883-0.038086,0.018555-0.074219,0.036133-0.102539
						c0.019531-0.032227,0.019531-0.032227,0.019531-0.032227c0.036133-0.03125,0.097656-0.030273,0.138672,0.000977
						l0.041992,0.03125c-0.038086,0.023438-0.060547,0.041992-0.075195,0.055664
						c-0.018555,0.018555-0.018555,0.018555-0.018555,0.018555c-0.004883,0.015625,0.033203,0.02832,0.083984,0.02832h0.714844
						c0.050781,0,0.092773,0.03418,0.092773,0.076172c0,0.041016-0.041992,0.075195-0.092773,0.075195H35.71875
						C35.667969,11.20752,35.644531,11.17334,35.669922,11.132324z"/>
				</g>
			</g>
		</g>
	</g>
</g>
<g id="marsh_x5F_bd_1_" style="enable-background:new    ;">
	<g id="Marsh_x5F_FC_3_">
		<g>
			<g>
				<g>
					<path style="fill:#95CDC7;" d="M42.041016,5.782715c0.025391,0.041016,0.001953,0.075195-0.048828,0.075195h-1.163086
						c-0.050781,0-0.092773-0.03418-0.092773-0.075195c0-0.041992,0.041992-0.076172,0.092773-0.076172h0.807617
						c-0.003906-0.014648-0.008789-0.02832-0.027344-0.041992c-0.014648-0.013672-0.014648-0.013672-0.014648-0.013672
						c-0.033203-0.025391-0.025391-0.072266,0.015625-0.103516l0.041016-0.03125
						c0.037109,0.033203,0.068359,0.06543,0.087891,0.098633c0.021484,0.026367,0.021484,0.026367,0.021484,0.026367
						c0.004883,0.02832,0.009766,0.054688,0.009766,0.058594S41.80957,5.70752,41.858398,5.70752l0,0
						c0-0.074219-0.009766-0.129883-0.02832-0.175781c-0.023438-0.046875-0.032227-0.05957-0.032227-0.05957
						c-0.033203-0.039063-0.023438-0.09375,0.020508-0.121094l0.03125-0.019531
						c0.041992,0.037109,0.069336,0.078125,0.092773,0.120117c0.022461,0.041992,0.022461,0.041992,0.022461,0.041992
						c0.009766,0.047852,0.021484,0.115234,0.025391,0.149414C41.994141,5.678223,42.016602,5.740723,42.041016,5.782715z
						 M43.541992,6.217285c0,0.03125-0.041992,0.058594-0.092773,0.058594H41.52832c-0.051758,0-0.09375-0.026367-0.09375-0.058594
						s0.041992-0.057617,0.09375-0.057617h1.920898C43.5,6.159668,43.541992,6.185059,43.541992,6.217285z M42.380859,5.835449
						c0,0-0.111328-0.351563-0.22168-0.458008c0,0-0.097656-0.115234,0.110352-0.032227c0,0,0.106445,0.051758,0.176758,0.259766
						c0,0,0.008789-0.379883,0.236328-0.443359c0,0,0.166992-0.06543,0.060547,0.037109c0,0-0.133789,0.142578-0.138672,0.317383
						c0,0,0.074219-0.09668,0.25-0.125c0,0,0.143555-0.035156,0,0.06543l-0.206055,0.22168
						c-0.03418,0.038086-0.067383,0.088867-0.070313,0.113281c-0.003906,0.024414-0.042969,0.066406-0.086914,0.092773
						C42.491211,5.884277,42.488281,5.88623,42.380859,5.835449z M42.939453,5.782715
						c0.024414-0.041992,0.047852-0.118164,0.053711-0.168945l0.003906-0.032227
						c0.004883-0.046875,0.018555-0.087891,0.041992-0.129883s0.030273-0.049805,0.030273-0.049805
						c0.03418-0.039063,0.09668-0.047852,0.141602-0.020508l0.030273,0.020508
						c-0.045898,0.036133-0.074219,0.077148-0.091797,0.124023c-0.018555,0.045898-0.021484,0.086914-0.021484,0.086914
						c-0.003906,0.051758,0.032227,0.09375,0.082031,0.09375l0,0c0.004883-0.038086,0.018555-0.074219,0.036133-0.102539
						c0.019531-0.032227,0.019531-0.032227,0.019531-0.032227c0.036133-0.03125,0.097656-0.030273,0.138672,0.000977
						l0.041992,0.03125c-0.038086,0.023438-0.060547,0.041992-0.075195,0.055664
						c-0.018555,0.018555-0.018555,0.018555-0.018555,0.018555c-0.004883,0.015625,0.033203,0.02832,0.083984,0.02832h0.714844
						c0.050781,0,0.092773,0.03418,0.092773,0.076172c0,0.041016-0.041992,0.075195-0.092773,0.075195h-1.163086
						C42.9375,5.85791,42.914063,5.82373,42.939453,5.782715z"/>
				</g>
			</g>
		</g>
	</g>
</g>
<g id="heath_x5F_bd" style="enable-background:new    ;">
	<g id="Heath_x5F_FC_2_">
		<path style="fill:#A9CDA6;" d="M43.695313,4.110352c-0.026367,0-0.051758-0.013672-0.064453-0.037109l-0.198242-0.34082
			c-0.008789-0.015625-0.011719-0.033203-0.006836-0.050781c0.003906-0.020508,0.018555-0.037109,0.035156-0.047852
			l0.055664-0.035156l0.066406-0.005859L43.625,3.631836l0.19043,0.334961l0.005859,0.06543l-0.039063,0.041992l-0.049805,0.025391
			C43.71875,4.107422,43.707031,4.110352,43.695313,4.110352z"/>
		<path style="fill:#A9CDA6;" d="M44.430664,3.966797c-0.038086,0-0.069336-0.023438-0.080078-0.060547l-0.207031-0.649414
			c-0.012695-0.040039,0.005859-0.082031,0.041992-0.101563l0.069336-0.03418l0.074219-0.003906l0.048828,0.058594
			l0.205078,0.664063l-0.009766,0.068359l-0.052734,0.037109c-0.022461,0.007813-0.043945,0.013672-0.05957,0.016602
			L44.430664,3.966797z"/>
		<path style="fill:#A9CDA6;" d="M45.22168,2.859375l0.103516,0.913086L45.303711,3.84082l-0.060547,0.035156
			c-0.043945,0.003906-0.083008,0.003906-0.094727,0.003906c-0.052734,0.003906-0.095703-0.03418-0.099609-0.085938
			l-0.085938-0.926758l0.025391-0.072266l0.078125-0.030273l0.072266,0.008789
			C45.182617,2.782227,45.217773,2.811523,45.22168,2.859375z"/>
		<path style="fill:#A9CDA6;" d="M45.861328,3.96582l-0.064453-0.017578L45.740234,3.90332l-0.005859-0.067383l0.207031-0.664063
			l0.025391-0.027344c0.007813-0.012695,0.015625-0.018555,0.024414-0.022461l0.041016-0.004883l0.033203,0.005859
			l0.064453,0.033203c0.036133,0.019531,0.054688,0.061523,0.041992,0.101563l-0.205078,0.649414
			c-0.013672,0.038086-0.043945,0.061523-0.081055,0.061523L45.861328,3.96582z"/>
		<path style="fill:#A9CDA6;" d="M46.621094,4.110352c-0.011719,0-0.023438-0.00293-0.033203-0.009766l-0.057617-0.030273
			l-0.041992-0.051758l0.017578-0.057617l0.191406-0.333984l0.050781-0.038086l0.060547,0.012695l0.047852,0.032227
			c0.036133,0.020508,0.047852,0.064453,0.02832,0.098633l-0.198242,0.34082
			C46.672852,4.095703,46.648438,4.110352,46.621094,4.110352z"/>
	</g>
</g>
<g id="marsh_x5F_bd" style="enable-background:new    ;">
	<g id="Marsh_x5F_FC_2_">
		<g>
			<g>
				<g>
					<path style="fill:#95CDC7;" d="M40.285156,2.747559c0.025391,0.041016,0.001953,0.075195-0.048828,0.075195h-1.163086
						c-0.050781,0-0.092773-0.03418-0.092773-0.075195c0-0.041992,0.041992-0.076172,0.092773-0.076172h0.807617
						c-0.003906-0.014648-0.008789-0.02832-0.027344-0.041992c-0.014648-0.013672-0.014648-0.013672-0.014648-0.013672
						c-0.033203-0.025391-0.025391-0.072266,0.015625-0.103516l0.041016-0.03125
						c0.037109,0.033203,0.068359,0.06543,0.087891,0.098633c0.021484,0.026367,0.021484,0.026367,0.021484,0.026367
						c0.004883,0.02832,0.009766,0.054688,0.009766,0.058594s0.039063,0.007813,0.087891,0.007813l0,0
						c0-0.074219-0.009766-0.129883-0.02832-0.175781c-0.023438-0.046875-0.032227-0.05957-0.032227-0.05957
						c-0.033203-0.039063-0.023438-0.09375,0.020508-0.121094l0.03125-0.019531
						c0.041992,0.037109,0.069336,0.078125,0.092773,0.120117c0.022461,0.041992,0.022461,0.041992,0.022461,0.041992
						c0.009766,0.047852,0.021484,0.115234,0.025391,0.149414C40.238281,2.643066,40.260742,2.705566,40.285156,2.747559z
						 M41.786133,3.182129c0,0.03125-0.041992,0.058594-0.092773,0.058594h-1.920898c-0.051758,0-0.09375-0.026367-0.09375-0.058594
						s0.041992-0.057617,0.09375-0.057617h1.920898C41.744141,3.124512,41.786133,3.149902,41.786133,3.182129z M40.625,2.800293
						c0,0-0.111328-0.351563-0.22168-0.458008c0,0-0.097656-0.115234,0.110352-0.032227c0,0,0.106445,0.051758,0.176758,0.259766
						c0,0,0.008789-0.379883,0.236328-0.443359c0,0,0.166992-0.06543,0.060547,0.037109c0,0-0.133789,0.142578-0.138672,0.317383
						c0,0,0.074219-0.09668,0.25-0.125c0,0,0.143555-0.035156,0,0.06543l-0.206055,0.22168
						c-0.03418,0.038086-0.067383,0.088867-0.070313,0.113281c-0.003906,0.024414-0.042969,0.066406-0.086914,0.092773
						C40.735352,2.849121,40.732422,2.851074,40.625,2.800293z M41.183594,2.747559
						c0.024414-0.041992,0.047852-0.118164,0.053711-0.168945l0.003906-0.032227
						c0.004883-0.046875,0.018555-0.087891,0.041992-0.129883s0.030273-0.049805,0.030273-0.049805
						c0.03418-0.039063,0.09668-0.047852,0.141602-0.020508l0.030273,0.020508
						c-0.045898,0.036133-0.074219,0.077148-0.091797,0.124023C41.375,2.536621,41.37207,2.577637,41.37207,2.577637
						c-0.003906,0.051758,0.032227,0.09375,0.082031,0.09375l0,0c0.004883-0.038086,0.018555-0.074219,0.036133-0.102539
						c0.019531-0.032227,0.019531-0.032227,0.019531-0.032227c0.036133-0.03125,0.097656-0.030273,0.138672,0.000977
						l0.041992,0.03125c-0.038086,0.023438-0.060547,0.041992-0.075195,0.055664
						C41.59668,2.643066,41.59668,2.643066,41.59668,2.643066c-0.004883,0.015625,0.033203,0.02832,0.083984,0.02832h0.714844
						c0.050781,0,0.092773,0.03418,0.092773,0.076172c0,0.041016-0.041992,0.075195-0.092773,0.075195h-1.163086
						C41.181641,2.822754,41.158203,2.788574,41.183594,2.747559z"/>
				</g>
			</g>
		</g>
	</g>
</g>
<g id="marsh_x5F_bd_5_" style="enable-background:new    ;">
	<g id="Marsh_x5F_FC_7_">
		<g>
			<g>
				<g>
					<path style="fill:#95CDC7;" d="M37.023438,24.04541c0.025391,0.041016,0.001953,0.075195-0.048828,0.075195h-1.163086
						c-0.050781,0-0.092773-0.03418-0.092773-0.075195c0-0.041992,0.041992-0.076172,0.092773-0.076172h0.807617
						c-0.003906-0.014648-0.008789-0.02832-0.027344-0.041992c-0.014648-0.013672-0.014648-0.013672-0.014648-0.013672
						c-0.033203-0.025391-0.025391-0.072266,0.015625-0.103516l0.041016-0.03125
						c0.037109,0.033203,0.068359,0.06543,0.087891,0.098633c0.021484,0.026367,0.021484,0.026367,0.021484,0.026367
						c0.004883,0.02832,0.009766,0.054688,0.009766,0.058594s0.039063,0.007813,0.087891,0.007813l0,0
						c0-0.074219-0.009766-0.129883-0.02832-0.175781c-0.023438-0.046875-0.032227-0.05957-0.032227-0.05957
						c-0.033203-0.039063-0.023438-0.09375,0.020508-0.121094l0.03125-0.019531
						c0.041992,0.037109,0.069336,0.078125,0.092773,0.120117c0.022461,0.041992,0.022461,0.041992,0.022461,0.041992
						c0.009766,0.047852,0.021484,0.115234,0.025391,0.149414C36.976563,23.940918,36.999023,24.003418,37.023438,24.04541z
						 M38.524414,24.47998c0,0.03125-0.041992,0.058594-0.092773,0.058594h-1.920898c-0.051758,0-0.09375-0.026367-0.09375-0.058594
						s0.041992-0.057617,0.09375-0.057617h1.920898C38.482422,24.422363,38.524414,24.447754,38.524414,24.47998z
						 M37.363281,24.098145c0,0-0.111328-0.351563-0.22168-0.458008c0,0-0.097656-0.115234,0.110352-0.032227
						c0,0,0.106445,0.051758,0.176758,0.259766c0,0,0.008789-0.379883,0.236328-0.443359c0,0,0.166992-0.06543,0.060547,0.037109
						c0,0-0.133789,0.142578-0.138672,0.317383c0,0,0.074219-0.09668,0.25-0.125c0,0,0.143555-0.035156,0,0.06543l-0.206055,0.22168
						c-0.03418,0.038086-0.067383,0.088867-0.070313,0.113281c-0.003906,0.024414-0.042969,0.066406-0.086914,0.092773
						C37.473633,24.146973,37.470703,24.148926,37.363281,24.098145z M37.921875,24.04541
						c0.024414-0.041992,0.047852-0.118164,0.053711-0.168945l0.003906-0.032227
						c0.004883-0.046875,0.018555-0.087891,0.041992-0.129883s0.030273-0.049805,0.030273-0.049805
						c0.03418-0.039063,0.09668-0.047852,0.141602-0.020508l0.030273,0.020508
						c-0.045898,0.036133-0.074219,0.077148-0.091797,0.124023c-0.018555,0.045898-0.021484,0.086914-0.021484,0.086914
						c-0.003906,0.051758,0.032227,0.09375,0.082031,0.09375l0,0c0.004883-0.038086,0.018555-0.074219,0.036133-0.102539
						c0.019531-0.032227,0.019531-0.032227,0.019531-0.032227c0.036133-0.03125,0.097656-0.030273,0.138672,0.000977
						l0.041992,0.03125c-0.038086,0.023438-0.060547,0.041992-0.075195,0.055664
						c-0.018555,0.018555-0.018555,0.018555-0.018555,0.018555c-0.004883,0.015625,0.033203,0.02832,0.083984,0.02832h0.714844
						c0.050781,0,0.092773,0.03418,0.092773,0.076172c0,0.041016-0.041992,0.075195-0.092773,0.075195h-1.163086
						C37.919922,24.120605,37.896484,24.086426,37.921875,24.04541z"/>
				</g>
			</g>
		</g>
	</g>
</g>
<g id="heath_x5F_bd_3_" style="enable-background:new    ;">
	<g id="Heath_x5F_FC_5_">
		<path style="fill:#A9CDA6;" d="M38.678711,22.373047c-0.026367,0-0.051758-0.013672-0.064453-0.037109l-0.198242-0.34082
			c-0.008789-0.015625-0.011719-0.033203-0.006836-0.050781c0.003906-0.020508,0.018555-0.037109,0.035156-0.047852L38.5,21.861328
			l0.066406-0.005859l0.041992,0.039063l0.19043,0.334961l0.005859,0.06543l-0.039063,0.041992l-0.049805,0.025391
			C38.702148,22.370117,38.69043,22.373047,38.678711,22.373047z"/>
		<path style="fill:#A9CDA6;" d="M39.414063,22.229492c-0.038086,0-0.069336-0.023438-0.080078-0.060547l-0.207031-0.649414
			c-0.012695-0.040039,0.005859-0.082031,0.041992-0.101563l0.069336-0.03418l0.074219-0.003906l0.048828,0.058594
			l0.205078,0.664063l-0.009766,0.068359l-0.052734,0.037109c-0.022461,0.007813-0.043945,0.013672-0.05957,0.016602
			L39.414063,22.229492z"/>
		<path style="fill:#A9CDA6;" d="M40.205078,21.12207l0.103516,0.913086l-0.021484,0.068359l-0.060547,0.035156
			c-0.043945,0.003906-0.083008,0.003906-0.094727,0.003906c-0.052734,0.003906-0.095703-0.03418-0.099609-0.085938
			l-0.085938-0.926758l0.025391-0.072266l0.078125-0.030273l0.072266,0.008789
			C40.166016,21.044922,40.201172,21.074219,40.205078,21.12207z"/>
		<path style="fill:#A9CDA6;" d="M40.844727,22.228516l-0.064453-0.017578l-0.056641-0.044922l-0.005859-0.067383l0.207031-0.664063
			l0.025391-0.027344c0.007813-0.012695,0.015625-0.018555,0.024414-0.022461l0.041016-0.004883l0.033203,0.005859
			l0.064453,0.033203c0.036133,0.019531,0.054688,0.061523,0.041992,0.101563l-0.205078,0.649414
			c-0.013672,0.038086-0.043945,0.061523-0.081055,0.061523L40.844727,22.228516z"/>
		<path style="fill:#A9CDA6;" d="M41.604492,22.373047c-0.011719,0-0.023438-0.00293-0.033203-0.009766l-0.057617-0.030273
			L41.47168,22.28125l0.017578-0.057617l0.191406-0.333984l0.050781-0.038086l0.060547,0.012695l0.047852,0.032227
			c0.036133,0.020508,0.047852,0.064453,0.02832,0.098633l-0.198242,0.34082
			C41.65625,22.358398,41.631836,22.373047,41.604492,22.373047z"/>
	</g>
</g>
<g id="heath_x5F_bd_2_" style="enable-background:new    ;">
	<g id="Heath_x5F_FC_4_">
		<path style="fill:#A9CDA6;" d="M34.253906,21.609375c-0.026367,0-0.051758-0.013672-0.064453-0.037109l-0.198242-0.34082
			c-0.008789-0.015625-0.011719-0.033203-0.006836-0.050781c0.003906-0.020508,0.018555-0.037109,0.035156-0.047852
			l0.055664-0.035156l0.066406-0.005859l0.041992,0.039063l0.19043,0.334961l0.005859,0.06543l-0.039063,0.041992
			l-0.049805,0.025391C34.277344,21.606445,34.265625,21.609375,34.253906,21.609375z"/>
		<path style="fill:#A9CDA6;" d="M34.989258,21.46582c-0.038086,0-0.069336-0.023438-0.080078-0.060547l-0.207031-0.649414
			c-0.012695-0.040039,0.005859-0.082031,0.041992-0.101563l0.069336-0.03418l0.074219-0.003906l0.048828,0.058594
			l0.205078,0.664063l-0.009766,0.068359l-0.052734,0.037109c-0.022461,0.007813-0.043945,0.013672-0.05957,0.016602
			L34.989258,21.46582z"/>
		<path style="fill:#A9CDA6;" d="M35.780273,20.358398l0.103516,0.913086l-0.021484,0.068359L35.801758,21.375
			c-0.043945,0.003906-0.083008,0.003906-0.094727,0.003906c-0.052734,0.003906-0.095703-0.03418-0.099609-0.085938
			l-0.085938-0.926758l0.025391-0.072266L35.625,20.263672l0.072266,0.008789
			C35.741211,20.28125,35.776367,20.310547,35.780273,20.358398z"/>
		<path style="fill:#A9CDA6;" d="M36.419922,21.464844l-0.064453-0.017578l-0.056641-0.044922l-0.005859-0.067383L36.5,20.670898
			l0.025391-0.027344c0.007813-0.012695,0.015625-0.018555,0.024414-0.022461l0.041016-0.004883l0.033203,0.005859
			l0.064453,0.033203c0.036133,0.019531,0.054688,0.061523,0.041992,0.101563l-0.205078,0.649414
			c-0.013672,0.038086-0.043945,0.061523-0.081055,0.061523L36.419922,21.464844z"/>
		<path style="fill:#A9CDA6;" d="M37.179688,21.609375c-0.011719,0-0.023438-0.00293-0.033203-0.009766l-0.057617-0.030273
			l-0.041992-0.051758l0.017578-0.057617l0.191406-0.333984l0.050781-0.038086l0.060547,0.012695l0.047852,0.032227
			c0.036133,0.020508,0.047852,0.064453,0.02832,0.098633l-0.198242,0.34082
			C37.231445,21.594727,37.207031,21.609375,37.179688,21.609375z"/>
	</g>
</g>
<g id="marsh_x5F_bd_7_" style="enable-background:new    ;">
	<g id="Marsh_x5F_FC_9_">
		<g>
			<g>
				<g>
					<path style="fill:#95CDC7;" d="M42.292969,35.947266c0.025391,0.041016,0.001953,0.075195-0.048828,0.075195h-1.163086
						c-0.050781,0-0.092773-0.03418-0.092773-0.075195c0-0.041992,0.041992-0.076172,0.092773-0.076172h0.807617
						c-0.003906-0.014648-0.008789-0.02832-0.027344-0.041992C41.84668,35.81543,41.84668,35.81543,41.84668,35.81543
						c-0.033203-0.025391-0.025391-0.072266,0.015625-0.103516l0.041016-0.03125
						c0.037109,0.033203,0.068359,0.06543,0.087891,0.098633c0.021484,0.026367,0.021484,0.026367,0.021484,0.026367
						c0.004883,0.02832,0.009766,0.054688,0.009766,0.058594s0.039063,0.007813,0.087891,0.007813l0,0
						c0-0.074219-0.009766-0.129883-0.02832-0.175781c-0.023438-0.046875-0.032227-0.05957-0.032227-0.05957
						c-0.033203-0.039063-0.023438-0.09375,0.020508-0.121094l0.03125-0.019531
						c0.041992,0.037109,0.069336,0.078125,0.092773,0.120117c0.022461,0.041992,0.022461,0.041992,0.022461,0.041992
						c0.009766,0.047852,0.021484,0.115234,0.025391,0.149414C42.246094,35.842773,42.268555,35.905273,42.292969,35.947266z
						 M43.793945,36.381836c0,0.03125-0.041992,0.058594-0.092773,0.058594h-1.920898
						c-0.051758,0-0.09375-0.026367-0.09375-0.058594s0.041992-0.057617,0.09375-0.057617h1.920898
						C43.751953,36.324219,43.793945,36.349609,43.793945,36.381836z M42.632813,36c0,0-0.111328-0.351563-0.22168-0.458008
						c0,0-0.097656-0.115234,0.110352-0.032227c0,0,0.106445,0.051758,0.176758,0.259766c0,0,0.008789-0.379883,0.236328-0.443359
						c0,0,0.166992-0.06543,0.060547,0.037109c0,0-0.133789,0.142578-0.138672,0.317383c0,0,0.074219-0.09668,0.25-0.125
						c0,0,0.143555-0.035156,0,0.06543l-0.206055,0.22168c-0.03418,0.038086-0.067383,0.088867-0.070313,0.113281
						c-0.003906,0.024414-0.042969,0.066406-0.086914,0.092773C42.743164,36.048828,42.740234,36.050781,42.632813,36z
						 M43.191406,35.947266c0.024414-0.041992,0.047852-0.118164,0.053711-0.168945l0.003906-0.032227
						c0.004883-0.046875,0.018555-0.087891,0.041992-0.129883s0.030273-0.049805,0.030273-0.049805
						c0.03418-0.039063,0.09668-0.047852,0.141602-0.020508l0.030273,0.020508
						c-0.045898,0.036133-0.074219,0.077148-0.091797,0.124023c-0.018555,0.045898-0.021484,0.086914-0.021484,0.086914
						c-0.003906,0.051758,0.032227,0.09375,0.082031,0.09375l0,0c0.004883-0.038086,0.018555-0.074219,0.036133-0.102539
						c0.019531-0.032227,0.019531-0.032227,0.019531-0.032227c0.036133-0.03125,0.097656-0.030273,0.138672,0.000977
						l0.041992,0.03125c-0.038086,0.023438-0.060547,0.041992-0.075195,0.055664
						c-0.018555,0.018555-0.018555,0.018555-0.018555,0.018555c-0.004883,0.015625,0.033203,0.02832,0.083984,0.02832h0.714844
						c0.050781,0,0.092773,0.03418,0.092773,0.076172c0,0.041016-0.041992,0.075195-0.092773,0.075195h-1.163086
						C43.189453,36.022461,43.166016,35.988281,43.191406,35.947266z"/>
				</g>
			</g>
		</g>
	</g>
</g>
<g id="heath_x5F_bd_4_" style="enable-background:new    ;">
	<g id="Heath_x5F_FC_6_">
		<path style="fill:#A9CDA6;" d="M43.946289,34.275391c-0.026367,0-0.051758-0.013672-0.064453-0.037109l-0.198242-0.34082
			c-0.008789-0.015625-0.011719-0.033203-0.006836-0.050781c0.003906-0.020508,0.018555-0.037109,0.035156-0.047852
			l0.055664-0.035156l0.066406-0.005859l0.041992,0.039063l0.19043,0.334961l0.005859,0.06543l-0.039063,0.041992
			l-0.049805,0.025391C43.969727,34.272461,43.958008,34.275391,43.946289,34.275391z"/>
		<path style="fill:#A9CDA6;" d="M44.681641,34.131836c-0.038086,0-0.069336-0.023438-0.080078-0.060547l-0.207031-0.649414
			c-0.012695-0.040039,0.005859-0.082031,0.041992-0.101563l0.069336-0.03418l0.074219-0.003906l0.048828,0.058594
			l0.205078,0.664063l-0.009766,0.068359l-0.052734,0.037109c-0.022461,0.007813-0.043945,0.013672-0.05957,0.016602
			L44.681641,34.131836z"/>
		<path style="fill:#A9CDA6;" d="M45.472656,33.024414l0.103516,0.913086l-0.021484,0.068359l-0.060547,0.035156
			c-0.043945,0.003906-0.083008,0.003906-0.094727,0.003906c-0.052734,0.003906-0.095703-0.03418-0.099609-0.085938
			l-0.085938-0.926758l0.025391-0.072266l0.078125-0.030273l0.072266,0.008789
			C45.433594,32.947266,45.46875,32.976563,45.472656,33.024414z"/>
		<path style="fill:#A9CDA6;" d="M46.112305,34.130859l-0.064453-0.017578l-0.056641-0.044922l-0.005859-0.067383l0.207031-0.664063
			l0.025391-0.027344c0.007813-0.012695,0.015625-0.018555,0.024414-0.022461l0.041016-0.004883l0.033203,0.005859
			l0.064453,0.033203c0.036133,0.019531,0.054688,0.061523,0.041992,0.101563l-0.205078,0.649414
			c-0.013672,0.038086-0.043945,0.061523-0.081055,0.061523L46.112305,34.130859z"/>
		<path style="fill:#A9CDA6;" d="M46.87207,34.275391c-0.011719,0-0.023438-0.00293-0.033203-0.009766l-0.057617-0.030273
			l-0.041992-0.051758l0.017578-0.057617l0.191406-0.333984l0.050781-0.038086l0.060547,0.012695l0.047852,0.032227
			c0.036133,0.020508,0.047852,0.064453,0.02832,0.098633l-0.198242,0.34082
			C46.923828,34.260742,46.899414,34.275391,46.87207,34.275391z"/>
	</g>
</g>
<g id="marsh_x5F_bd_6_" style="enable-background:new    ;">
	<g id="Marsh_x5F_FC_8_">
		<g>
			<g>
				<g>
					<path style="fill:#95CDC7;" d="M40.537109,32.912109c0.025391,0.041016,0.001953,0.075195-0.048828,0.075195h-1.163086
						c-0.050781,0-0.092773-0.03418-0.092773-0.075195c0-0.041992,0.041992-0.076172,0.092773-0.076172h0.807617
						c-0.003906-0.014648-0.008789-0.02832-0.027344-0.041992c-0.014648-0.013672-0.014648-0.013672-0.014648-0.013672
						c-0.033203-0.025391-0.025391-0.072266,0.015625-0.103516l0.041016-0.03125
						c0.037109,0.033203,0.068359,0.06543,0.087891,0.098633c0.021484,0.026367,0.021484,0.026367,0.021484,0.026367
						c0.004883,0.02832,0.009766,0.054688,0.009766,0.058594s0.039063,0.007813,0.087891,0.007813l0,0
						c0-0.074219-0.009766-0.129883-0.02832-0.175781c-0.023438-0.046875-0.032227-0.05957-0.032227-0.05957
						c-0.033203-0.039063-0.023438-0.09375,0.020508-0.121094l0.03125-0.019531
						c0.041992,0.037109,0.069336,0.078125,0.092773,0.120117c0.022461,0.041992,0.022461,0.041992,0.022461,0.041992
						c0.009766,0.047852,0.021484,0.115234,0.025391,0.149414C40.490234,32.807617,40.512695,32.870117,40.537109,32.912109z
						 M42.038086,33.34668c0,0.03125-0.041992,0.058594-0.092773,0.058594h-1.920898c-0.051758,0-0.09375-0.026367-0.09375-0.058594
						s0.041992-0.057617,0.09375-0.057617h1.920898C41.996094,33.289063,42.038086,33.314453,42.038086,33.34668z
						 M40.876953,32.964844c0,0-0.111328-0.351563-0.22168-0.458008c0,0-0.097656-0.115234,0.110352-0.032227
						c0,0,0.106445,0.051758,0.176758,0.259766c0,0,0.008789-0.379883,0.236328-0.443359c0,0,0.166992-0.06543,0.060547,0.037109
						c0,0-0.133789,0.142578-0.138672,0.317383c0,0,0.074219-0.09668,0.25-0.125c0,0,0.143555-0.035156,0,0.06543l-0.206055,0.22168
						c-0.03418,0.038086-0.067383,0.088867-0.070313,0.113281c-0.003906,0.024414-0.042969,0.066406-0.086914,0.092773
						C40.987305,33.013672,40.984375,33.015625,40.876953,32.964844z M41.435547,32.912109
						c0.024414-0.041992,0.047852-0.118164,0.053711-0.168945l0.003906-0.032227
						c0.004883-0.046875,0.018555-0.087891,0.041992-0.129883s0.030273-0.049805,0.030273-0.049805
						c0.03418-0.039063,0.09668-0.047852,0.141602-0.020508l0.030273,0.020508
						c-0.045898,0.036133-0.074219,0.077148-0.091797,0.124023c-0.018555,0.045898-0.021484,0.086914-0.021484,0.086914
						c-0.003906,0.051758,0.032227,0.09375,0.082031,0.09375l0,0c0.004883-0.038086,0.018555-0.074219,0.036133-0.102539
						c0.019531-0.032227,0.019531-0.032227,0.019531-0.032227c0.036133-0.03125,0.097656-0.030273,0.138672,0.000977
						l0.041992,0.03125c-0.038086,0.023438-0.060547,0.041992-0.075195,0.055664
						c-0.018555,0.018555-0.018555,0.018555-0.018555,0.018555c-0.004883,0.015625,0.033203,0.02832,0.083984,0.02832h0.714844
						c0.050781,0,0.092773,0.03418,0.092773,0.076172c0,0.041016-0.041992,0.075195-0.092773,0.075195h-1.163086
						C41.433594,32.987305,41.410156,32.953125,41.435547,32.912109z"/>
				</g>
			</g>
		</g>
	</g>
</g>
<g id="marsh_x5F_bd_8_" style="enable-background:new    ;">
	<g id="Marsh_x5F_FC_10_">
		<g>
			<g>
				<g>
					<path style="fill:#95CDC7;" d="M29.261719,46.548828c0.025391,0.041016,0.001953,0.075195-0.048828,0.075195h-1.163086
						c-0.050781,0-0.092773-0.03418-0.092773-0.075195c0-0.041992,0.041992-0.076172,0.092773-0.076172h0.807617
						c-0.003906-0.014648-0.008789-0.02832-0.027344-0.041992c-0.014648-0.013672-0.014648-0.013672-0.014648-0.013672
						c-0.033203-0.025391-0.025391-0.072266,0.015625-0.103516l0.041016-0.03125
						c0.037109,0.033203,0.068359,0.06543,0.087891,0.098633c0.021484,0.026367,0.021484,0.026367,0.021484,0.026367
						c0.004883,0.02832,0.009766,0.054688,0.009766,0.058594s0.039063,0.007813,0.087891,0.007813l0,0
						c0-0.074219-0.009766-0.129883-0.02832-0.175781c-0.023438-0.046875-0.032227-0.05957-0.032227-0.05957
						c-0.033203-0.039063-0.023438-0.09375,0.020508-0.121094l0.03125-0.019531
						c0.041992,0.037109,0.069336,0.078125,0.092773,0.120117c0.022461,0.041992,0.022461,0.041992,0.022461,0.041992
						c0.009766,0.047852,0.021484,0.115234,0.025391,0.149414C29.214844,46.444336,29.237305,46.506836,29.261719,46.548828z
						 M30.762695,46.983398c0,0.03125-0.041992,0.058594-0.092773,0.058594h-1.920898
						c-0.051758,0-0.09375-0.026367-0.09375-0.058594s0.041992-0.057617,0.09375-0.057617h1.920898
						C30.720703,46.925781,30.762695,46.951172,30.762695,46.983398z M29.601563,46.601563c0,0-0.111328-0.351563-0.22168-0.458008
						c0,0-0.097656-0.115234,0.110352-0.032227c0,0,0.106445,0.051758,0.176758,0.259766c0,0,0.008789-0.379883,0.236328-0.443359
						c0,0,0.166992-0.06543,0.060547,0.037109c0,0-0.133789,0.142578-0.138672,0.317383c0,0,0.074219-0.09668,0.25-0.125
						c0,0,0.143555-0.035156,0,0.06543l-0.206055,0.22168c-0.03418,0.038086-0.067383,0.088867-0.070313,0.113281
						c-0.003906,0.024414-0.042969,0.066406-0.086914,0.092773C29.711914,46.650391,29.708984,46.652344,29.601563,46.601563z
						 M30.160156,46.548828c0.024414-0.041992,0.047852-0.118164,0.053711-0.168945l0.003906-0.032227
						c0.004883-0.046875,0.018555-0.087891,0.041992-0.129883s0.030273-0.049805,0.030273-0.049805
						c0.03418-0.039063,0.09668-0.047852,0.141602-0.020508l0.030273,0.020508
						c-0.045898,0.036133-0.074219,0.077148-0.091797,0.124023c-0.018555,0.045898-0.021484,0.086914-0.021484,0.086914
						c-0.003906,0.051758,0.032227,0.09375,0.082031,0.09375l0,0c0.004883-0.038086,0.018555-0.074219,0.036133-0.102539
						c0.019531-0.032227,0.019531-0.032227,0.019531-0.032227c0.036133-0.03125,0.097656-0.030273,0.138672,0.000977
						l0.041992,0.03125c-0.038086,0.023438-0.060547,0.041992-0.075195,0.055664
						c-0.018555,0.018555-0.018555,0.018555-0.018555,0.018555c-0.004883,0.015625,0.033203,0.02832,0.083984,0.02832h0.714844
						c0.050781,0,0.092773,0.03418,0.092773,0.076172c0,0.041016-0.041992,0.075195-0.092773,0.075195h-1.163086
						C30.158203,46.624023,30.134766,46.589844,30.160156,46.548828z"/>
				</g>
			</g>
		</g>
	</g>
</g>
<g id="heath_x5F_bd_9_" style="enable-background:new    ;">
	<g id="Heath_x5F_FC_11_">
		<path style="fill:#A9CDA6;" d="M30.916016,44.876953c-0.026367,0-0.051758-0.013672-0.064453-0.037109l-0.198242-0.34082
			c-0.008789-0.015625-0.011719-0.033203-0.006836-0.050781c0.003906-0.020508,0.018555-0.037109,0.035156-0.047852
			l0.055664-0.035156l0.066406-0.005859l0.041992,0.039063l0.19043,0.334961l0.005859,0.06543L31.00293,44.84082l-0.049805,0.025391
			C30.939453,44.874023,30.927734,44.876953,30.916016,44.876953z"/>
		<path style="fill:#A9CDA6;" d="M31.651367,44.733398c-0.038086,0-0.069336-0.023438-0.080078-0.060547l-0.207031-0.649414
			c-0.012695-0.040039,0.005859-0.082031,0.041992-0.101563l0.069336-0.03418l0.074219-0.003906l0.048828,0.058594
			l0.205078,0.664063l-0.009766,0.068359l-0.052734,0.037109c-0.022461,0.007813-0.043945,0.013672-0.05957,0.016602
			L31.651367,44.733398z"/>
		<path style="fill:#A9CDA6;" d="M32.442383,43.625977l0.103516,0.913086l-0.021484,0.068359l-0.060547,0.035156
			c-0.043945,0.003906-0.083008,0.003906-0.094727,0.003906c-0.052734,0.003906-0.095703-0.03418-0.099609-0.085938
			l-0.085938-0.926758l0.025391-0.072266l0.078125-0.030273l0.072266,0.008789
			C32.40332,43.548828,32.438477,43.578125,32.442383,43.625977z"/>
		<path style="fill:#A9CDA6;" d="M33.082031,44.732422l-0.064453-0.017578l-0.056641-0.044922l-0.005859-0.067383l0.207031-0.664063
			l0.025391-0.027344c0.007813-0.012695,0.015625-0.018555,0.024414-0.022461l0.041016-0.004883l0.033203,0.005859
			l0.064453,0.033203c0.036133,0.019531,0.054688,0.061523,0.041992,0.101563L33.1875,44.673828
			c-0.013672,0.038086-0.043945,0.061523-0.081055,0.061523L33.082031,44.732422z"/>
		<path style="fill:#A9CDA6;" d="M33.841797,44.876953c-0.011719,0-0.023438-0.00293-0.033203-0.009766l-0.057617-0.030273
			l-0.041992-0.051758l0.017578-0.057617l0.191406-0.333984l0.050781-0.038086l0.060547,0.012695l0.047852,0.032227
			c0.036133,0.020508,0.047852,0.064453,0.02832,0.098633l-0.198242,0.34082
			C33.893555,44.862305,33.869141,44.876953,33.841797,44.876953z"/>
	</g>
</g>
<g id="marsh_x5F_bd_9_" style="enable-background:new    ;">
	<g id="Marsh_x5F_FC_11_">
		<g>
			<g>
				<g>
					<path style="fill:#95CDC7;" d="M27.505859,43.513672c0.025391,0.041016,0.001953,0.075195-0.048828,0.075195h-1.163086
						c-0.050781,0-0.092773-0.03418-0.092773-0.075195c0-0.041992,0.041992-0.076172,0.092773-0.076172h0.807617
						c-0.003906-0.014648-0.008789-0.02832-0.027344-0.041992c-0.014648-0.013672-0.014648-0.013672-0.014648-0.013672
						c-0.033203-0.025391-0.025391-0.072266,0.015625-0.103516l0.041016-0.03125
						c0.037109,0.033203,0.068359,0.06543,0.087891,0.098633c0.021484,0.026367,0.021484,0.026367,0.021484,0.026367
						c0.004883,0.02832,0.009766,0.054688,0.009766,0.058594s0.039063,0.007813,0.087891,0.007813l0,0
						c0-0.074219-0.009766-0.129883-0.02832-0.175781c-0.023438-0.046875-0.032227-0.05957-0.032227-0.05957
						c-0.033203-0.039063-0.023438-0.09375,0.020508-0.121094l0.03125-0.019531
						c0.041992,0.037109,0.069336,0.078125,0.092773,0.120117c0.022461,0.041992,0.022461,0.041992,0.022461,0.041992
						c0.009766,0.047852,0.021484,0.115234,0.025391,0.149414C27.458984,43.40918,27.481445,43.47168,27.505859,43.513672z
						 M29.006836,43.948242c0,0.03125-0.041992,0.058594-0.092773,0.058594h-1.920898
						c-0.051758,0-0.09375-0.026367-0.09375-0.058594s0.041992-0.057617,0.09375-0.057617h1.920898
						C28.964844,43.890625,29.006836,43.916016,29.006836,43.948242z M27.845703,43.566406c0,0-0.111328-0.351563-0.22168-0.458008
						c0,0-0.097656-0.115234,0.110352-0.032227c0,0,0.106445,0.051758,0.176758,0.259766c0,0,0.008789-0.379883,0.236328-0.443359
						c0,0,0.166992-0.06543,0.060547,0.037109c0,0-0.133789,0.142578-0.138672,0.317383c0,0,0.074219-0.09668,0.25-0.125
						c0,0,0.143555-0.035156,0,0.06543l-0.206055,0.22168c-0.03418,0.038086-0.067383,0.088867-0.070313,0.113281
						C28.039063,43.546875,28,43.588867,27.956055,43.615234C27.956055,43.615234,27.953125,43.617188,27.845703,43.566406z
						 M28.404297,43.513672c0.024414-0.041992,0.047852-0.118164,0.053711-0.168945l0.003906-0.032227
						c0.004883-0.046875,0.018555-0.087891,0.041992-0.129883s0.030273-0.049805,0.030273-0.049805
						c0.03418-0.039063,0.09668-0.047852,0.141602-0.020508l0.030273,0.020508
						c-0.045898,0.036133-0.074219,0.077148-0.091797,0.124023c-0.018555,0.045898-0.021484,0.086914-0.021484,0.086914
						c-0.003906,0.051758,0.032227,0.09375,0.082031,0.09375l0,0c0.004883-0.038086,0.018555-0.074219,0.036133-0.102539
						c0.019531-0.032227,0.019531-0.032227,0.019531-0.032227c0.036133-0.03125,0.097656-0.030273,0.138672,0.000977
						l0.041992,0.03125c-0.038086,0.023438-0.060547,0.041992-0.075195,0.055664
						c-0.018555,0.018555-0.018555,0.018555-0.018555,0.018555c-0.004883,0.015625,0.033203,0.02832,0.083984,0.02832h0.714844
						c0.050781,0,0.092773,0.03418,0.092773,0.076172c0,0.041016-0.041992,0.075195-0.092773,0.075195h-1.163086
						C28.402344,43.588867,28.378906,43.554688,28.404297,43.513672z"/>
				</g>
			</g>
		</g>
	</g>
</g>
<g id="marsh_x5F_bd_16_" style="enable-background:new    ;">
	<g id="Marsh_x5F_FC_18_">
		<g>
			<g>
				<g>
					<path style="fill:#95CDC7;" d="M5.486328,47.964844c0.025391,0.041016,0.002441,0.075195-0.048828,0.075195H4.273926
						c-0.050781,0-0.092773-0.03418-0.092773-0.075195c0-0.041992,0.041992-0.076172,0.092773-0.076172H5.08252
						c-0.003906-0.014648-0.008789-0.02832-0.027832-0.041992c-0.01416-0.013672-0.01416-0.013672-0.01416-0.013672
						c-0.033203-0.025391-0.025879-0.072266,0.015137-0.103516l0.041016-0.03125
						c0.037109,0.033203,0.068848,0.06543,0.087891,0.098633c0.021973,0.026367,0.021973,0.026367,0.021973,0.026367
						c0.004883,0.02832,0.009766,0.054688,0.009766,0.058594s0.039063,0.007813,0.087402,0.007813l0,0
						c0-0.074219-0.009277-0.129883-0.02832-0.175781c-0.022949-0.046875-0.031738-0.05957-0.031738-0.05957
						c-0.033203-0.039063-0.023926-0.09375,0.02002-0.121094l0.031738-0.019531
						c0.041992,0.037109,0.069336,0.078125,0.092285,0.120117s0.022949,0.041992,0.022949,0.041992
						c0.009766,0.047852,0.020996,0.115234,0.024902,0.149414C5.439453,47.860352,5.462402,47.922852,5.486328,47.964844z
						 M6.987305,48.399414c0,0.03125-0.041992,0.058594-0.092773,0.058594H4.973633c-0.05127,0-0.093262-0.026367-0.093262-0.058594
						s0.041992-0.057617,0.093262-0.057617h1.920898C6.945313,48.341797,6.987305,48.367188,6.987305,48.399414z M5.82666,48.017578
						c0,0-0.111328-0.351563-0.222168-0.458008c0,0-0.097168-0.115234,0.11084-0.032227c0,0,0.106445,0.051758,0.17627,0.259766
						c0,0,0.008789-0.379883,0.23584-0.443359c0,0,0.166992-0.06543,0.061035,0.037109c0,0-0.133789,0.142578-0.13916,0.317383
						c0,0,0.074219-0.09668,0.25-0.125c0,0,0.144043-0.035156,0,0.06543l-0.205566,0.22168
						c-0.03418,0.038086-0.067383,0.088867-0.070313,0.113281c-0.003906,0.024414-0.042969,0.066406-0.086914,0.092773
						C5.936523,48.066406,5.933594,48.068359,5.82666,48.017578z M6.384766,47.964844
						c0.023926-0.041992,0.047852-0.118164,0.053711-0.168945l0.003906-0.032227
						c0.004395-0.046875,0.018066-0.087891,0.041992-0.129883c0.022949-0.041992,0.030273-0.049805,0.030273-0.049805
						c0.033691-0.039063,0.09668-0.047852,0.141113-0.020508l0.030762,0.020508
						c-0.045898,0.036133-0.074219,0.077148-0.091797,0.124023c-0.019043,0.045898-0.021973,0.086914-0.021973,0.086914
						c-0.003418,0.051758,0.032715,0.09375,0.082031,0.09375l0,0c0.004883-0.038086,0.018555-0.074219,0.036621-0.102539
						c0.019043-0.032227,0.019043-0.032227,0.019043-0.032227c0.036133-0.03125,0.098145-0.030273,0.13916,0.000977
						l0.041992,0.03125c-0.038086,0.023438-0.061035,0.041992-0.075195,0.055664
						c-0.019043,0.018555-0.019043,0.018555-0.019043,0.018555c-0.004883,0.015625,0.033203,0.02832,0.083984,0.02832h0.71582
						c0.050781,0,0.092773,0.03418,0.092773,0.076172c0,0.041016-0.041992,0.075195-0.092773,0.075195H6.433594
						C6.382324,48.040039,6.359375,48.005859,6.384766,47.964844z"/>
				</g>
			</g>
		</g>
	</g>
</g>
<g id="heath_x5F_bd_10_" style="enable-background:new    ;">
	<g id="Heath_x5F_FC_12_">
		<path style="fill:#A9CDA6;" d="M7.140625,46.291992c-0.025879,0-0.05127-0.013672-0.063965-0.037109l-0.198242-0.34082
			c-0.008789-0.015625-0.011719-0.033203-0.006836-0.050781c0.003906-0.020508,0.018066-0.037109,0.035156-0.047852
			l0.055664-0.035156l0.065918-0.005859l0.041992,0.039063l0.19043,0.334961l0.005859,0.06543l-0.039063,0.041992L7.177734,46.28125
			C7.164551,46.289063,7.152344,46.291992,7.140625,46.291992z"/>
		<path style="fill:#A9CDA6;" d="M7.876953,46.148438c-0.038086,0-0.069824-0.023438-0.080078-0.060547l-0.207031-0.649414
			c-0.012695-0.040039,0.005371-0.082031,0.041992-0.101563l0.069336-0.03418l0.07373-0.003906l0.049316,0.058594l0.20459,0.664063
			l-0.009766,0.068359l-0.052246,0.037109c-0.022949,0.007813-0.043945,0.013672-0.05957,0.016602L7.876953,46.148438z"/>
		<path style="fill:#A9CDA6;" d="M8.666992,45.041016l0.104004,0.913086l-0.021973,0.068359l-0.060059,0.035156
			c-0.043945,0.003906-0.083008,0.003906-0.094727,0.003906c-0.052246,0.003906-0.095215-0.03418-0.099121-0.085938
			L8.40918,45.048828l0.024902-0.072266l0.078125-0.030273l0.072754,0.008789
			C8.62793,44.963867,8.663086,44.993164,8.666992,45.041016z"/>
		<path style="fill:#A9CDA6;" d="M9.307129,46.147461l-0.064941-0.017578l-0.056152-0.044922l-0.005859-0.067383l0.207031-0.664063
			l0.024902-0.027344c0.007813-0.012695,0.016113-0.018555,0.024902-0.022461l0.041016-0.004883l0.033203,0.005859
			l0.063965,0.033203c0.036621,0.019531,0.054688,0.061523,0.041992,0.101563l-0.205078,0.649414
			c-0.013184,0.038086-0.043945,0.061523-0.081055,0.061523L9.307129,46.147461z"/>
		<path style="fill:#A9CDA6;" d="M10.067383,46.291992c-0.011719,0-0.023926-0.00293-0.033691-0.009766l-0.057129-0.030273
			L9.93457,46.200195l0.01709-0.057617l0.191895-0.333984l0.050781-0.038086l0.060059,0.012695l0.04834,0.032227
			c0.035645,0.020508,0.047852,0.064453,0.027832,0.098633l-0.198242,0.34082
			C10.118652,46.277344,10.094727,46.291992,10.067383,46.291992z"/>
	</g>
</g>
<g id="marsh_x5F_bd_15_" style="enable-background:new    ;">
	<g id="Marsh_x5F_FC_17_">
		<g>
			<g>
				<g>
					<path style="fill:#95CDC7;" d="M3.731445,44.929688c0.025391,0.041016,0.002441,0.075195-0.048828,0.075195H2.519043
						c-0.050781,0-0.092773-0.03418-0.092773-0.075195c0-0.041992,0.041992-0.076172,0.092773-0.076172h0.808594
						c-0.003906-0.014648-0.008789-0.02832-0.027832-0.041992c-0.01416-0.013672-0.01416-0.013672-0.01416-0.013672
						c-0.033203-0.025391-0.025879-0.072266,0.015137-0.103516l0.041016-0.03125
						c0.037109,0.033203,0.068848,0.06543,0.087891,0.098633c0.021973,0.026367,0.021973,0.026367,0.021973,0.026367
						c0.004883,0.02832,0.009766,0.054688,0.009766,0.058594s0.039063,0.007813,0.087402,0.007813l0,0
						c0-0.074219-0.009277-0.129883-0.02832-0.175781c-0.022949-0.046875-0.031738-0.05957-0.031738-0.05957
						c-0.033203-0.039063-0.023926-0.09375,0.02002-0.121094l0.031738-0.019531
						c0.041992,0.037109,0.069336,0.078125,0.092285,0.120117s0.022949,0.041992,0.022949,0.041992
						c0.009766,0.047852,0.020996,0.115234,0.024902,0.149414C3.68457,44.825195,3.70752,44.887695,3.731445,44.929688z
						 M5.232422,45.364258c0,0.03125-0.041992,0.058594-0.092773,0.058594H3.21875c-0.05127,0-0.093262-0.026367-0.093262-0.058594
						s0.041992-0.057617,0.093262-0.057617h1.920898C5.19043,45.306641,5.232422,45.332031,5.232422,45.364258z M4.071777,44.982422
						c0,0-0.111328-0.351563-0.222168-0.458008c0,0-0.097168-0.115234,0.11084-0.032227c0,0,0.106445,0.051758,0.17627,0.259766
						c0,0,0.008789-0.379883,0.23584-0.443359c0,0,0.166992-0.06543,0.061035,0.037109c0,0-0.133789,0.142578-0.13916,0.317383
						c0,0,0.074219-0.09668,0.25-0.125c0,0,0.144043-0.035156,0,0.06543l-0.205566,0.22168
						c-0.03418,0.038086-0.067383,0.088867-0.070313,0.113281c-0.003906,0.024414-0.042969,0.066406-0.086914,0.092773
						C4.181641,45.03125,4.178711,45.033203,4.071777,44.982422z M4.629883,44.929688
						c0.023926-0.041992,0.047852-0.118164,0.053711-0.168945L4.6875,44.728516
						c0.004395-0.046875,0.018066-0.087891,0.041992-0.129883c0.022949-0.041992,0.030273-0.049805,0.030273-0.049805
						c0.033691-0.039063,0.09668-0.047852,0.141113-0.020508l0.030762,0.020508
						c-0.045898,0.036133-0.074219,0.077148-0.091797,0.124023c-0.019043,0.045898-0.021973,0.086914-0.021973,0.086914
						c-0.003418,0.051758,0.032715,0.09375,0.082031,0.09375l0,0c0.004883-0.038086,0.018555-0.074219,0.036621-0.102539
						c0.019043-0.032227,0.019043-0.032227,0.019043-0.032227c0.036133-0.03125,0.098145-0.030273,0.13916,0.000977
						l0.041992,0.03125c-0.038086,0.023438-0.061035,0.041992-0.075195,0.055664
						C5.04248,44.825195,5.04248,44.825195,5.04248,44.825195c-0.004883,0.015625,0.033203,0.02832,0.083984,0.02832h0.71582
						c0.050781,0,0.092773,0.03418,0.092773,0.076172c0,0.041016-0.041992,0.075195-0.092773,0.075195H4.678711
						C4.627441,45.004883,4.604492,44.970703,4.629883,44.929688z"/>
				</g>
			</g>
		</g>
	</g>
</g>
</svg>
