<?xml version="1.0" encoding="utf-8"?>
<!-- Generator: Adobe Illustrator 16.0.0, SVG Export Plug-In . SVG Version: 6.00 Build 0)  -->
<!DOCTYPE svg PUBLIC "-//W3C//DTD SVG 1.1//EN" "http://www.w3.org/Graphics/SVG/1.1/DTD/svg11.dtd">
<svg version="1.1" id="Layer_1" xmlns="http://www.w3.org/2000/svg" xmlns:xlink="http://www.w3.org/1999/xlink" x="0px" y="0px"
	 width="7.625px" height="7.1464844px" viewBox="0 -0.0002441 7.625 7.1464844"
	 enable-background="new 0 -0.0002441 7.625 7.1464844" xml:space="preserve">
<g id="Layer_2">
	<g id="NonConiferousTree_x5F_FC">
	</g>
	<g>
		<path fill="#BEBEB4" d="M7.5097656,3.392334c0,0.2060547-0.0537109,0.5869141-0.1201172,0.9697266
			C7.3798828,4.4157715,7.4746094,4.5935059,7.4658203,4.6491699C7.4482422,4.7390137,7.3291016,4.7077637,7.3125,4.7937012
			C7.2490234,5.1325684,7.1894531,5.4108887,7.1748047,5.4772949C7.1455078,5.6237793,7.0595703,5.776123,6.9277344,5.776123
			c-0.0205078,0-0.0751953-0.0566406-0.0966797-0.0615234c-0.1494141-0.0410156-0.1904297-0.4892578-0.15625-0.65625
			C6.7363281,4.7819824,6.78125,4.8718262,6.8427734,4.5339355c0,0-0.0546875-0.671875,0.0351563-0.6162109l0.0654297-0.171875
			C6.9794922,3.5183105,6.9384766,3.4987793,6.9384766,3.392334c0-0.1669922-0.0292969-0.3076172-0.0546875-0.4091797
			c-0.2988281,0.0302734-0.5761719,0.0859375-0.65625,0.1367188c-0.2480469,0.2519531-0.53125,0.0205078-0.6367188-0.0664063
			c-0.015625-0.0087891-0.0351563-0.0292969-0.0507813-0.0400391C5.484375,3.0632324,5.4541016,3.104248,5.4033203,3.1706543
			C5.3535156,3.2351074,5.2880859,3.3171387,5.1816406,3.4382324C5.1376953,3.4890137,5.15625,3.6608887,5.2021484,3.8063965
			L5.0751953,4.0710449C5.1298828,4.2312012,4.9072266,4.4733887,4.765625,4.5446777S4.5634766,4.3659668,4.4970703,4.2145996
			C4.4873047,4.1940918,4.6708984,4.0378418,4.6455078,3.9519043L4.5498047,3.5534668
			C4.4746094,3.3063965,4.3134766,3.104248,4.2475586,3.0446777C4.1625977,3.0036621,4.121582,2.8933105,4.03125,2.8688965
			C3.7734375,2.7956543,3.8095703,2.6452637,3.5117188,2.979248c-0.293457,0.3320313-0.4140625,0.3300781-0.2294922,1.0712891
			c0.0424805,0.1708984,0.3842773,1,0.2270508,0.9892578C3.3525391,5.0339355,3.0302734,4.6813965,3.0356445,4.5046387
			C3.0405273,4.3933105,2.621582,3.5651855,2.6323242,3.4831543L2.03125,2.7819824L1.7495117,2.8884277l0.0131836,0.3779297
			c0,0,0.0708008,0.3945313,0.0209961,0.4541016l0.206543,0.3916016c-0.034668,0.046875-0.2998047-0.1435547-0.3505859-0.1435547
			c-0.0449219,0-0.2333984,0.0556641-0.2680664,0.0205078C1.2915039,3.9089355,1.2553711,3.8522949,1.3305664,3.7653809
			l0.0830078-0.3134766L1.3505859,3.0339355L0.6533203,3.2858887C0.5014648,3.3415527,0.3457031,3.251709,0.2944336,3.0847168
			C0.2446289,2.9147949,0.6923828,2.6804199,0.840332,2.6257324l0.5419922-0.1328125
			C1.4584961,2.463623,1.9785156,2.1081543,2.0493164,2.1550293l0.3261719,0.0566406
			c0.0351563,0.0214844-0.0112305,0.1279297,0.1147461,0.3710938l0.3955078,0.3076172
			c0.1157227-0.0771484,0.1328125-0.2675781,0.2226563-0.3603516c0.5400391-0.5507813,0.78125-0.4101563,0.9682617-0.2246094
			c0.0249023,0.0253906,0.3950195,0.1484375,0.409668,0.1591797c0.1435547,0.0634766,0.3974609,0.3037109,0.4921875,0.4960938
			C5.0292969,2.9001465,5.1201172,2.697998,5.1552734,2.6569824c0.0761719-0.0957031,0.0605469-0.1044922,0.2011719-0.2255859
			c0.2783203-0.2373047,0.4521484,0.0068359,0.5732422,0.1074219c0.0039063,0.0048828,0.0146484,0.015625,0.0244141,0.0205078
			c0.2519531-0.1464844,0.5341797-0.2910156,0.7871094-0.1523438c0.0878906,0.0488281,0.4970703-0.0957031,0.5527344,0
			C7.3134766,2.4421387,7.5097656,2.8591309,7.5097656,3.392334z"/>
	</g>
</g>
<g id="Layer_3">
</g>
</svg>
