<?xml version="1.0" encoding="utf-8"?>
<!-- Generator: Adobe Illustrator 15.0.2, SVG Export Plug-In . SVG Version: 6.00 Build 0)  -->
<!DOCTYPE svg PUBLIC "-//W3C//DTD SVG 1.1//EN" "http://www.w3.org/Graphics/SVG/1.1/DTD/svg11.dtd">
<svg version="1.1" id="Layer_1" xmlns="http://www.w3.org/2000/svg" xmlns:xlink="http://www.w3.org/1999/xlink" x="0px" y="0px"
	 width="12.004px" height="12.008px" viewBox="0 0 12.004 12.008" enable-background="new 0 0 12.004 12.008" xml:space="preserve">
<g>
	<g>
		<g>
			<path fill="#FFFFFF" d="M6.002,9.038l-3.766,2.718l1.429-4.427l-3.767-2.738h4.656l1.447-4.427l1.446,4.427h4.654L8.338,7.346
				l1.432,4.411L6.002,9.038z M4.854,6.945L4.145,9.145l1.856-1.359l1.872,1.359L7.148,6.947l1.875-1.362H6.711L6,3.398L5.276,5.585
				H2.98L4.854,6.945z"/>
		</g>
	</g>
</g>
<polygon fill="#FFFFFF" points="1.738,5.193 4.251,7.16 3.243,10.374 6.002,8.493 8.697,10.374 7.757,7.126 10.424,5.193 
	7.105,5.108 6.002,1.518 5.004,5.091 "/>
<g>
	<path fill="#DE6266" d="M8.174,7.293l1.329,4.1L6.002,8.865l-3.501,2.527L3.83,7.275L0.329,4.731h4.327l1.346-4.117l1.346,4.117
		h4.327L8.174,7.293z M6.813,5.445L6.002,2.949L5.175,5.445H2.55L4.689,7l-0.81,2.512l2.123-1.555l2.141,1.555L7.314,7l2.14-1.555
		H6.813z"/>
</g>
</svg>
