<?xml version="1.0" encoding="utf-8"?>
<!-- Generator: Adobe Illustrator 15.0.2, SVG Export Plug-In . SVG Version: 6.00 Build 0)  -->
<!DOCTYPE svg PUBLIC "-//W3C//DTD SVG 1.1//EN" "http://www.w3.org/Graphics/SVG/1.1/DTD/svg11.dtd">
<svg version="1.1" id="Layer_1" xmlns="http://www.w3.org/2000/svg" xmlns:xlink="http://www.w3.org/1999/xlink" x="0px" y="0px"
	 width="12.004px" height="12.008px" viewBox="0 0 12.004 12.008" enable-background="new 0 0 12.004 12.008" xml:space="preserve">
<circle fill="#FFFFFF" cx="6.002" cy="5.899" r="4.623"/>
<g enable-background="new    ">
	<path fill="#6A70C7" d="M6,10.542c-2.552,0-4.622-2.069-4.622-4.634c0-2.553,2.069-4.622,4.622-4.622
		c2.553,0,4.622,2.069,4.622,4.622C10.621,8.473,8.552,10.542,6,10.542z M6,10.146c2.342,0,4.236-1.896,4.236-4.237
		c0-2.329-1.895-4.226-4.236-4.226S1.763,3.579,1.763,5.909C1.762,8.25,3.658,10.146,6,10.146z M8.465,3.331L6.557,4.917
		L6.272,5.103c-0.037,0.272-0.037,0.558,0,0.855c0,0,0.062,0.297,0.186,0.471c0.187,0.26,0.954,0.854,0.954,0.854L8.75,8.139
		L8.391,8.659l-2.02-1.188L5.987,7.186c0,0-0.124-0.025-0.186,0C5.677,7.232,5.615,7.471,5.615,7.471L5.467,9.639L4.711,9.464
		l0.235-3.407c-0.05-0.36-0.111-0.608-0.186-0.756L4.562,4.917L3.41,3.355l0.495-0.396L4.76,4.062c0,0,0.161,0.137,0.285,0.187
		C5.206,4.336,5.33,4.336,5.516,4.348c0.372,0.025,0.942-0.186,0.942-0.186L8.02,2.885L8.465,3.331z M4.958,3.12
		c0-0.384,0.297-0.682,0.682-0.682c0.385,0,0.682,0.298,0.682,0.682c0,0.385-0.297,0.682-0.682,0.682
		C5.255,3.802,4.958,3.505,4.958,3.12z"/>
</g>
</svg>
