<?xml version="1.0" encoding="utf-8"?>
<!-- Generator: Adobe Illustrator 16.0.3, SVG Export Plug-In . SVG Version: 6.00 Build 0)  -->
<!DOCTYPE svg PUBLIC "-//W3C//DTD SVG 1.1//EN" "http://www.w3.org/Graphics/SVG/1.1/DTD/svg11.dtd">
<svg version="1.1" id="Layer_1" xmlns="http://www.w3.org/2000/svg" xmlns:xlink="http://www.w3.org/1999/xlink" x="0px" y="0px"
	 width="50px" height="50px" viewBox="0 0 50 50" style="enable-background:new 0 0 50 50;" xml:space="preserve">
<g id="coniferoustree_x5F_bd_13_">
	<g id="ConiferousTree_x5F_FC_15_">
		<g id="Deleted_Symbol_15_">
			<path style="fill:#A9CDA6;" d="M9.237793,41.392578c-0.390137-0.071289-0.817871-0.762695-0.817871-0.762695l0.040039,1.092773
				c-0.047363,0.176758-0.291992,0.040039-0.291992,0.040039l0.024902-1.032227
				c-0.313965,0.494141-0.78418,0.693359-0.78418,0.693359c-0.142578-0.012695-0.036621-0.09375-0.036621-0.09375
				c0.730469-0.697266,0.783691-0.985352,0.783691-0.985352c0.083008-0.287109,0.056152-0.803711,0.056152-0.803711
				c-0.361328,0.522461-0.601074,0.557617-0.601074,0.557617c-0.064941,0.014648-0.090332,0-0.090332,0
				c-0.064941-0.043945,0.043457-0.140625,0.043457-0.140625c0.092773-0.078125,0.173828-0.151367,0.242676-0.223633
				c0.005859-0.005859,0.009277-0.008789,0.012207-0.012695c-0.00293,0.00293-0.007324,0.005859-0.013184,0.012695
				c0.35791-0.368164,0.398926-0.617188,0.398926-0.617188l0.083984-0.506836c0,0,0.020996-0.06543,0.040039,0l0.064941,0.533203
				c0.083984,0.257813,0.588379,0.787109,0.588379,0.787109c0.067871,0.064453-0.025391,0.0625-0.025391,0.0625
				c-0.282715-0.041992-0.543945-0.458984-0.543945-0.458984l0.038086,0.842773
				c0.132813,0.34375,0.787109,0.831055,0.787109,0.831055C9.411133,41.292969,9.237793,41.392578,9.237793,41.392578z
				 M7.585938,39.939453c-0.007324,0.005859-0.016113,0.011719-0.021973,0.018555
				C7.563965,39.958008,7.572754,39.951172,7.585938,39.939453z M7.666504,39.864258
				c-0.031738,0.02832-0.062988,0.056641-0.080566,0.075195C7.615723,39.911133,7.641602,39.886719,7.666504,39.864258z
				 M7.734863,39.798828c-0.019043,0.019531-0.043945,0.041016-0.068359,0.06543
				C7.688965,39.84375,7.712891,39.821289,7.734863,39.798828z M7.787598,39.751953
				c-0.015625,0.016602-0.033691,0.032227-0.052734,0.046875C7.753906,39.780273,7.771973,39.765625,7.787598,39.751953z
				 M7.787598,39.751953c0.006348-0.005859,0.012207-0.011719,0.019043-0.018555
				C7.799805,39.740234,7.793945,39.746094,7.787598,39.751953z M7.855957,39.6875
				c-0.003418,0.005859-0.012207,0.011719-0.019043,0.017578C7.84668,39.697266,7.852539,39.69043,7.855957,39.6875z"/>
		</g>
	</g>
</g>
<g id="nonconiferoustree_x5F_bd_11_">
	<g id="NonConiferousTree_x5F_FC_13_">
		<g id="Deleted_Symbol_2_13_">
			<path style="fill:#A9CDA6;" d="M12.373047,38.114258c0,0.318359-0.260742,0.579102-0.57666,0.579102
				c-0.104004,0-0.205078-0.035156-0.296387-0.100586c-0.074707,0.132813-0.206055,0.231445-0.355957,0.269531
				c0.00293,0.036133,0.013184,0.137695,0.036133,0.424805v0.00293c0,0.039063-0.025879,0.067383-0.058105,0.087891
				c-0.032715,0.015625-0.071777,0.026367-0.11084,0.026367c-0.032227,0-0.067871-0.009766-0.098145-0.025391
				c-0.028809-0.020508-0.051758-0.048828-0.051758-0.087891c0,0,0-0.00293,0.015625-0.431641
				c-0.11377-0.035156-0.224609-0.100586-0.308594-0.195313c-0.095215,0.103516-0.239258,0.169922-0.39502,0.169922
				c-0.300293,0-0.561035-0.260742-0.561035-0.577148c0-0.198242,0.104004-0.37793,0.263672-0.475586
				c-0.012695-0.052734-0.015625-0.105469-0.015625-0.166992c0-0.254883,0.162598-0.456055,0.39502-0.53418
				c0-0.023438,0-0.041992,0-0.072266c0-0.15918,0.058594-0.298828,0.159668-0.401367
				c0.102051-0.100586,0.242188-0.15918,0.401367-0.15918c0.289551,0,0.523926,0.207031,0.556641,0.478516
				c0.025879,0,0.052246,0,0.064941,0c0.319336,0,0.580078,0.260742,0.580078,0.560547
				c0,0.041992-0.012695,0.072266-0.016113,0.111328C12.217285,37.679688,12.373047,37.875977,12.373047,38.114258z
				 M12.178223,38.114258c0-0.163086-0.133301-0.333008-0.315918-0.365234c0,0,0,0-0.072266-0.020508L11.76416,37.72168
				l0.005859-0.026367c0,0,0,0,0.016113-0.071289c0.02002-0.055664,0.037109-0.087891,0.037109-0.136719
				c0-0.195313-0.166992-0.364258-0.385254-0.364258c-0.032715,0-0.083984,0.00293-0.11084,0.016602h-0.00293h-0.003906
				c0,0,0,0-0.104004,0.036133l-0.041992,0.014648l0.005859-0.044922c0,0,0,0,0.01709-0.103516v-0.033203
				c0-0.198242-0.163086-0.365234-0.380859-0.365234c-0.199219,0-0.365234,0.166992-0.365234,0.365234
				c0,0.036133,0,0.084961,0.013184,0.111328l0.00293,0.00293v0.005859c0,0,0,0,0.01709,0.086914l0.005859,0.033203h-0.033203
				c0,0,0,0-0.084961,0c-0.183105,0.016602-0.315918,0.182617-0.315918,0.365234c0,0.071289,0,0.117188,0.032227,0.162109v0.004883
				c0,0,0,0,0.035645,0.071289l0.016113,0.029297l-0.033203,0.005859c0,0,0,0-0.067871,0.020508
				c-0.149902,0.064453-0.230957,0.198242-0.230957,0.348633c0,0.21875,0.166016,0.381836,0.365234,0.381836
				c0.132813,0,0.248047-0.064453,0.332031-0.182617c0.00293-0.006836,0.013672-0.026367,0.051758-0.104492l0.022949-0.041992
				l0.021973,0.039063c0,0,0,0,0.072266,0.108398l0.00293,0.00293c0.048828,0.133789,0.183105,0.233398,0.333008,0.233398
				c0.166992,0,0.315918-0.116211,0.349121-0.263672v-0.003906c0,0,0,0,0.035645-0.124023l0.013184-0.041992l0.033203,0.030273
				c0,0,0,0,0.087891,0.09082c0.064941,0.064453,0.166016,0.117188,0.26709,0.117188
				C12.012207,38.495117,12.178223,38.332031,12.178223,38.114258z"/>
		</g>
	</g>
</g>
<g id="nonconiferoustree_x5F_bd_12_" style="enable-background:new    ;">
	<g id="NonConiferousTree_x5F_FC_14_">
		<g id="Deleted_Symbol_2_14_">
			<path style="fill:#A9CDA6;" d="M7.949219,37.350586c0,0.318359-0.260742,0.579102-0.57666,0.579102
				c-0.104004,0-0.205078-0.035156-0.296387-0.100586c-0.074707,0.132813-0.206055,0.231445-0.355957,0.269531
				c0.00293,0.036133,0.013184,0.137695,0.036133,0.424805v0.00293c0,0.039063-0.025879,0.067383-0.058105,0.087891
				c-0.032715,0.015625-0.071777,0.026367-0.11084,0.026367c-0.032227,0-0.067871-0.009766-0.098145-0.025391
				C6.460449,38.594727,6.4375,38.566406,6.4375,38.527344c0,0,0-0.00293,0.015625-0.431641
				c-0.11377-0.035156-0.224609-0.100586-0.308594-0.195313c-0.095215,0.103516-0.239258,0.169922-0.39502,0.169922
				c-0.300293,0-0.561035-0.260742-0.561035-0.577148c0-0.198242,0.104004-0.37793,0.263672-0.475586
				c-0.012695-0.052734-0.015625-0.105469-0.015625-0.166992c0-0.254883,0.162598-0.456055,0.39502-0.53418
				c0-0.023438,0-0.041992,0-0.072266c0-0.15918,0.058594-0.298828,0.159668-0.401367
				c0.102051-0.100586,0.242188-0.15918,0.401367-0.15918c0.289551,0,0.523926,0.207031,0.556641,0.478516
				c0.025879,0,0.052246,0,0.064941,0c0.319336,0,0.580078,0.260742,0.580078,0.560547
				c0,0.041992-0.012695,0.072266-0.016113,0.111328C7.793457,36.916016,7.949219,37.112305,7.949219,37.350586z
				 M7.754395,37.350586c0-0.163086-0.133301-0.333008-0.315918-0.365234c0,0,0,0-0.072266-0.020508l-0.025879-0.006836
				l0.005859-0.026367c0,0,0,0,0.016113-0.071289c0.02002-0.055664,0.037109-0.087891,0.037109-0.136719
				c0-0.195313-0.166992-0.364258-0.385254-0.364258c-0.032715,0-0.083984,0.00293-0.11084,0.016602h-0.00293H6.896484
				c0,0,0,0-0.104004,0.036133l-0.041992,0.014648l0.005859-0.044922c0,0,0,0,0.01709-0.103516v-0.033203
				c0-0.198242-0.163086-0.365234-0.380859-0.365234c-0.199219,0-0.365234,0.166992-0.365234,0.365234
				c0,0.036133,0,0.084961,0.013184,0.111328l0.00293,0.00293v0.005859c0,0,0,0,0.01709,0.086914l0.005859,0.033203H6.033203
				c0,0,0,0-0.084961,0c-0.183105,0.016602-0.315918,0.182617-0.315918,0.365234c0,0.071289,0,0.117188,0.032227,0.162109v0.004883
				c0,0,0,0,0.035645,0.071289l0.016113,0.029297l-0.033203,0.005859c0,0,0,0-0.067871,0.020508
				c-0.149902,0.064453-0.230957,0.198242-0.230957,0.348633c0,0.21875,0.166016,0.381836,0.365234,0.381836
				c0.132813,0,0.248047-0.064453,0.332031-0.182617c0.00293-0.006836,0.013672-0.026367,0.051758-0.104492l0.022949-0.041992
				l0.021973,0.039063c0,0,0,0,0.072266,0.108398l0.00293,0.00293c0.048828,0.133789,0.183105,0.233398,0.333008,0.233398
				c0.166992,0,0.315918-0.116211,0.349121-0.263672v-0.003906c0,0,0,0,0.035645-0.124023l0.013184-0.041992l0.033203,0.030273
				c0,0,0,0,0.087891,0.09082c0.064941,0.064453,0.166016,0.117188,0.26709,0.117188
				C7.588379,37.731445,7.754395,37.568359,7.754395,37.350586z"/>
		</g>
	</g>
</g>
<g id="coniferoustree_x5F_bd_10_" style="enable-background:new    ;">
	<g id="ConiferousTree_x5F_FC_12_">
		<g id="Deleted_Symbol_12_">
			<path style="fill:#A9CDA6;" d="M27.418945,36.117188c-0.390625-0.071289-0.818359-0.762695-0.818359-0.762695l0.040039,1.092773
				c-0.046875,0.176758-0.291016,0.040039-0.291016,0.040039l0.024414-1.032227
				c-0.313477,0.494141-0.78418,0.693359-0.78418,0.693359c-0.142578-0.012695-0.037109-0.09375-0.037109-0.09375
				c0.731445-0.697266,0.78418-0.985352,0.78418-0.985352c0.083008-0.287109,0.056641-0.803711,0.056641-0.803711
				c-0.361328,0.522461-0.601563,0.557617-0.601563,0.557617c-0.064453,0.014648-0.089844,0-0.089844,0
				c-0.06543-0.043945,0.042969-0.140625,0.042969-0.140625c0.092773-0.078125,0.173828-0.151367,0.243164-0.223633
				C25.994141,34.453125,25.99707,34.450195,26,34.446289c-0.00293,0.00293-0.006836,0.005859-0.012695,0.012695
				c0.357422-0.368164,0.398438-0.617188,0.398438-0.617188l0.083984-0.506836c0,0,0.021484-0.06543,0.040039,0l0.064453,0.533203
				c0.083984,0.257813,0.588867,0.787109,0.588867,0.787109c0.067383,0.064453-0.025391,0.0625-0.025391,0.0625
				c-0.283203-0.041992-0.543945-0.458984-0.543945-0.458984l0.038086,0.842773
				c0.132813,0.34375,0.787109,0.831055,0.787109,0.831055C27.592773,36.017578,27.418945,36.117188,27.418945,36.117188z
				 M25.767578,34.664063c-0.007813,0.005859-0.016602,0.011719-0.022461,0.018555
				C25.745117,34.682617,25.753906,34.675781,25.767578,34.664063z M25.847656,34.588867
				c-0.03125,0.02832-0.0625,0.056641-0.080078,0.075195C25.796875,34.635742,25.823242,34.611328,25.847656,34.588867z
				 M25.916016,34.523438c-0.018555,0.019531-0.043945,0.041016-0.068359,0.06543
				C25.870117,34.568359,25.894531,34.545898,25.916016,34.523438z M25.96875,34.476563
				c-0.015625,0.016602-0.033203,0.032227-0.052734,0.046875C25.935547,34.504883,25.953125,34.490234,25.96875,34.476563z
				 M25.96875,34.476563c0.006836-0.005859,0.012695-0.011719,0.019531-0.018555
				C25.981445,34.464844,25.975586,34.470703,25.96875,34.476563z M26.037109,34.412109
				c-0.00293,0.005859-0.011719,0.011719-0.018555,0.017578C26.02832,34.421875,26.03418,34.415039,26.037109,34.412109z"/>
		</g>
	</g>
</g>
<g id="nonconiferoustree_x5F_bd_8_" style="enable-background:new    ;">
	<g id="NonConiferousTree_x5F_FC_10_">
		<g id="Deleted_Symbol_2_10_">
			<path style="fill:#A9CDA6;" d="M30.554688,32.838867c0,0.318359-0.261719,0.579102-0.577148,0.579102
				c-0.104492,0-0.205078-0.035156-0.295898-0.100586c-0.075195,0.132813-0.207031,0.231445-0.356445,0.269531
				c0.00293,0.036133,0.012695,0.137695,0.036133,0.424805v0.00293c0,0.039063-0.025391,0.067383-0.058594,0.087891
				c-0.032227,0.015625-0.071289,0.026367-0.110352,0.026367c-0.032227,0-0.067383-0.009766-0.098633-0.025391
				c-0.02832-0.020508-0.050781-0.048828-0.050781-0.087891c0,0,0-0.00293,0.015625-0.431641
				c-0.114258-0.035156-0.224609-0.100586-0.308594-0.195313c-0.095703,0.103516-0.240234,0.169922-0.395508,0.169922
				c-0.299805,0-0.561523-0.260742-0.561523-0.577148c0-0.198242,0.104492-0.37793,0.263672-0.475586
				c-0.011719-0.052734-0.015625-0.105469-0.015625-0.166992c0-0.254883,0.163086-0.456055,0.395508-0.53418
				c0-0.023438,0-0.041992,0-0.072266c0-0.15918,0.058594-0.298828,0.15918-0.401367
				c0.102539-0.100586,0.242188-0.15918,0.402344-0.15918c0.289063,0,0.523438,0.207031,0.556641,0.478516
				c0.025391,0,0.051758,0,0.064453,0c0.319336,0,0.580078,0.260742,0.580078,0.560547
				c0,0.041992-0.012695,0.072266-0.015625,0.111328C30.398438,32.404297,30.554688,32.600586,30.554688,32.838867z
				 M30.359375,32.838867c0-0.163086-0.132813-0.333008-0.316406-0.365234c0,0,0,0-0.072266-0.020508l-0.025391-0.006836
				l0.005859-0.026367c0,0,0,0,0.015625-0.071289c0.020508-0.055664,0.037109-0.087891,0.037109-0.136719
				c0-0.195313-0.166016-0.364258-0.384766-0.364258c-0.033203,0-0.083984,0.00293-0.111328,0.016602h-0.001953h-0.003906
				c0,0,0,0-0.104492,0.036133l-0.041992,0.014648l0.005859-0.044922c0,0,0,0,0.017578-0.103516v-0.033203
				c0-0.198242-0.164063-0.365234-0.380859-0.365234c-0.199219,0-0.365234,0.166992-0.365234,0.365234
				c0,0.036133,0,0.084961,0.012695,0.111328l0.00293,0.00293v0.005859c0,0,0,0,0.017578,0.086914l0.005859,0.033203h-0.033203
				c0,0,0,0-0.085938,0c-0.182617,0.016602-0.31543,0.182617-0.31543,0.365234c0,0.071289,0,0.117188,0.032227,0.162109v0.004883
				c0,0,0,0,0.035156,0.071289l0.016602,0.029297l-0.033203,0.005859c0,0,0,0-0.067383,0.020508
				c-0.150391,0.064453-0.231445,0.198242-0.231445,0.348633c0,0.21875,0.166016,0.381836,0.365234,0.381836
				c0.132813,0,0.248047-0.064453,0.332031-0.182617c0.00293-0.006836,0.013672-0.026367,0.051758-0.104492l0.023438-0.041992
				l0.021484,0.039063c0,0,0,0,0.072266,0.108398l0.00293,0.00293c0.048828,0.133789,0.182617,0.233398,0.333008,0.233398
				c0.166992,0,0.316406-0.116211,0.349609-0.263672v-0.003906c0,0,0,0,0.035156-0.124023l0.013672-0.041992l0.033203,0.030273
				c0,0,0,0,0.087891,0.09082c0.064453,0.064453,0.166016,0.117188,0.266602,0.117188
				C30.193359,33.219727,30.359375,33.056641,30.359375,32.838867z"/>
		</g>
	</g>
</g>
<g id="nonconiferoustree_x5F_bd_9_" style="enable-background:new    ;">
	<g id="NonConiferousTree_x5F_FC_11_">
		<g id="Deleted_Symbol_2_11_">
			<path style="fill:#A9CDA6;" d="M26.129883,32.075195c0,0.318359-0.260742,0.579102-0.577148,0.579102
				c-0.103516,0-0.20459-0.035156-0.295898-0.100586c-0.074707,0.132813-0.206055,0.231445-0.355957,0.269531
				c0.00293,0.036133,0.013184,0.137695,0.036133,0.424805v0.00293c0,0.039063-0.025879,0.067383-0.058105,0.087891
				c-0.032715,0.015625-0.071777,0.026367-0.11084,0.026367c-0.032227,0-0.067871-0.009766-0.098145-0.025391
				c-0.028809-0.020508-0.051758-0.048828-0.051758-0.087891c0,0,0-0.00293,0.015625-0.431641
				c-0.11377-0.035156-0.224609-0.100586-0.308594-0.195313c-0.095215,0.103516-0.239258,0.169922-0.39502,0.169922
				c-0.300293,0-0.561035-0.260742-0.561035-0.577148c0-0.198242,0.104004-0.37793,0.263672-0.475586
				c-0.012695-0.052734-0.015625-0.105469-0.015625-0.166992c0-0.254883,0.162598-0.456055,0.39502-0.53418
				c0-0.023438,0-0.041992,0-0.072266c0-0.15918,0.058594-0.298828,0.159668-0.401367
				c0.102051-0.100586,0.242188-0.15918,0.401367-0.15918c0.289551,0,0.523926,0.207031,0.556641,0.478516
				c0.025879,0,0.052246,0,0.064941,0c0.318848,0,0.580566,0.260742,0.580566,0.560547
				c0,0.041992-0.013672,0.072266-0.016602,0.111328C25.974609,31.640625,26.129883,31.836914,26.129883,32.075195z
				 M25.935547,32.075195c0-0.163086-0.133789-0.333008-0.316406-0.365234c0,0,0,0-0.072266-0.020508l-0.025391-0.006836
				l0.005859-0.026367c0,0,0,0,0.015625-0.071289c0.019531-0.055664,0.037109-0.087891,0.037109-0.136719
				c0-0.195313-0.166992-0.364258-0.385254-0.364258c-0.032715,0-0.083984,0.00293-0.11084,0.016602h-0.00293h-0.003906
				c0,0,0,0-0.104004,0.036133l-0.041992,0.014648l0.005859-0.044922c0,0,0,0,0.01709-0.103516v-0.033203
				c0-0.198242-0.163086-0.365234-0.380859-0.365234c-0.199219,0-0.365234,0.166992-0.365234,0.365234
				c0,0.036133,0,0.084961,0.013184,0.111328l0.00293,0.00293v0.005859c0,0,0,0,0.01709,0.086914l0.005859,0.033203h-0.033203
				c0,0,0,0-0.084961,0c-0.183105,0.016602-0.315918,0.182617-0.315918,0.365234c0,0.071289,0,0.117188,0.032227,0.162109v0.004883
				c0,0,0,0,0.035645,0.071289l0.016113,0.029297l-0.033203,0.005859c0,0,0,0-0.067871,0.020508
				c-0.149902,0.064453-0.230957,0.198242-0.230957,0.348633c0,0.21875,0.166016,0.381836,0.365234,0.381836
				c0.132813,0,0.248047-0.064453,0.332031-0.182617c0.00293-0.006836,0.013672-0.026367,0.051758-0.104492l0.022949-0.041992
				l0.021973,0.039063c0,0,0,0,0.072266,0.108398l0.00293,0.00293c0.048828,0.133789,0.183105,0.233398,0.333008,0.233398
				c0.166992,0,0.315918-0.116211,0.349121-0.263672v-0.003906c0,0,0,0,0.035645-0.124023l0.013184-0.041992l0.033203,0.030273
				c0,0,0,0,0.087891,0.09082c0.064941,0.064453,0.166016,0.117188,0.266602,0.117188
				C25.769531,32.456055,25.935547,32.292969,25.935547,32.075195z"/>
		</g>
	</g>
</g>
<g id="coniferoustree_x5F_bd_14_" style="enable-background:new    ;">
	<g id="ConiferousTree_x5F_FC_16_">
		<g id="Deleted_Symbol_16_">
			<path style="fill:#A9CDA6;" d="M7.029785,27.435547c-0.390137-0.071289-0.817871-0.762695-0.817871-0.762695l0.040039,1.092773
				c-0.047363,0.176758-0.291992,0.040039-0.291992,0.040039l0.024902-1.032227
				c-0.313965,0.494141-0.78418,0.693359-0.78418,0.693359c-0.142578-0.012695-0.036621-0.09375-0.036621-0.09375
				c0.730469-0.697266,0.783691-0.985352,0.783691-0.985352c0.083008-0.287109,0.056152-0.803711,0.056152-0.803711
				c-0.361328,0.522461-0.601074,0.557617-0.601074,0.557617c-0.064941,0.014648-0.090332,0-0.090332,0
				c-0.064941-0.043945,0.043457-0.140625,0.043457-0.140625c0.092773-0.078125,0.173828-0.151367,0.242676-0.223633
				c0.005859-0.005859,0.009277-0.008789,0.012207-0.012695c-0.00293,0.00293-0.007324,0.005859-0.013184,0.012695
				c0.35791-0.368164,0.398926-0.616699,0.398926-0.616699l0.083984-0.506836c0,0,0.020996-0.06543,0.040039,0l0.064941,0.533203
				c0.083984,0.257324,0.588379,0.786621,0.588379,0.786621c0.067871,0.064453-0.025391,0.0625-0.025391,0.0625
				C6.46582,25.994141,6.20459,25.577148,6.20459,25.577148l0.038086,0.842773
				c0.132813,0.34375,0.787109,0.831055,0.787109,0.831055C7.203125,27.335938,7.029785,27.435547,7.029785,27.435547z
				 M5.37793,25.982422c-0.007324,0.005859-0.016113,0.011719-0.021973,0.018555
				C5.355957,26.000977,5.364746,25.994141,5.37793,25.982422z M5.458496,25.907227
				c-0.031738,0.02832-0.062988,0.056641-0.080566,0.075195C5.407715,25.954102,5.433594,25.929688,5.458496,25.907227z
				 M5.526855,25.841797c-0.019043,0.019531-0.043945,0.041016-0.068359,0.06543
				C5.480957,25.886719,5.504883,25.864258,5.526855,25.841797z M5.57959,25.794922
				c-0.015625,0.016602-0.033691,0.032227-0.052734,0.046875C5.545898,25.823242,5.563965,25.808594,5.57959,25.794922z
				 M5.57959,25.794922c0.006348-0.005859,0.012207-0.011719,0.019043-0.018555
				C5.591797,25.783203,5.585938,25.789063,5.57959,25.794922z M5.647949,25.730469
				c-0.003418,0.005859-0.012207,0.011719-0.019043,0.017578C5.638672,25.740234,5.644531,25.733398,5.647949,25.730469z"/>
		</g>
	</g>
</g>
<g id="nonconiferoustree_x5F_bd_13_" style="enable-background:new    ;">
	<g id="NonConiferousTree_x5F_FC_15_">
		<g id="Deleted_Symbol_2_15_">
			<path style="fill:#A9CDA6;" d="M10.165039,24.157715c0,0.318359-0.260742,0.579102-0.57666,0.579102
				c-0.104004,0-0.205078-0.035156-0.296387-0.100586c-0.074707,0.132813-0.206055,0.231445-0.355957,0.269531
				c0.00293,0.036133,0.013184,0.137695,0.036133,0.424805v0.00293c0,0.039063-0.025879,0.067383-0.058105,0.087891
				c-0.032715,0.015625-0.071777,0.026367-0.11084,0.026367c-0.032227,0-0.067871-0.009766-0.098145-0.025391
				C8.67627,25.401855,8.65332,25.373535,8.65332,25.334473c0,0,0-0.00293,0.015625-0.431641
				c-0.11377-0.035156-0.224609-0.100586-0.308594-0.195313c-0.095215,0.103516-0.239258,0.169922-0.39502,0.169922
				c-0.300293,0-0.561035-0.260742-0.561035-0.577148c0-0.198242,0.104004-0.37793,0.263672-0.475586
				c-0.012695-0.052734-0.015625-0.105469-0.015625-0.166992c0-0.254883,0.162598-0.456055,0.39502-0.53418
				c0-0.023438,0-0.041992,0-0.072266c0-0.15918,0.058594-0.298828,0.159668-0.401367
				c0.102051-0.100586,0.242188-0.15918,0.401367-0.15918c0.289551,0,0.523926,0.207031,0.556641,0.478516
				c0.025879,0,0.052246,0,0.064941,0c0.319336,0,0.580078,0.260742,0.580078,0.560547
				c0,0.041992-0.012695,0.072266-0.016113,0.111328C10.009277,23.723145,10.165039,23.919434,10.165039,24.157715z
				 M9.970215,24.157715c0-0.163086-0.133301-0.333008-0.315918-0.365234c0,0,0,0-0.072266-0.020508l-0.025879-0.006836
				l0.005859-0.026367c0,0,0,0,0.016113-0.071289c0.02002-0.055664,0.037109-0.087891,0.037109-0.136719
				c0-0.195313-0.166992-0.364258-0.385254-0.364258c-0.032715,0-0.083984,0.00293-0.11084,0.016602h-0.00293H9.112305
				c0,0,0,0-0.104004,0.036133l-0.041992,0.014648l0.005859-0.044922c0,0,0,0,0.01709-0.103516v-0.033203
				c0-0.198242-0.163086-0.365234-0.380859-0.365234c-0.199219,0-0.365234,0.166992-0.365234,0.365234
				c0,0.036133,0,0.084961,0.013184,0.111328l0.00293,0.00293v0.005859c0,0,0,0,0.01709,0.086914l0.005859,0.033203H8.249023
				c0,0,0,0-0.084961,0c-0.183105,0.016602-0.315918,0.182617-0.315918,0.365234c0,0.071289,0,0.117188,0.032227,0.162109v0.004883
				c0,0,0,0,0.035645,0.071289l0.016113,0.029297l-0.033203,0.005859c0,0,0,0-0.067871,0.020508
				c-0.149902,0.064453-0.230957,0.198242-0.230957,0.348633c0,0.21875,0.166016,0.381836,0.365234,0.381836
				c0.132813,0,0.248047-0.064453,0.332031-0.182617c0.00293-0.006836,0.013672-0.026367,0.051758-0.104492l0.022949-0.041992
				l0.021973,0.039063c0,0,0,0,0.072266,0.108398l0.00293,0.00293c0.048828,0.133789,0.183105,0.233398,0.333008,0.233398
				c0.166992,0,0.315918-0.116211,0.349121-0.263672v-0.003906c0,0,0,0,0.035645-0.124023l0.013184-0.041992l0.033203,0.030273
				c0,0,0,0,0.087891,0.09082c0.064941,0.064453,0.166016,0.117188,0.26709,0.117188
				C9.804199,24.538574,9.970215,24.375488,9.970215,24.157715z"/>
		</g>
	</g>
</g>
<g id="coniferoustree_x5F_bd_15_" style="enable-background:new    ;">
	<g id="ConiferousTree_x5F_FC_17_">
		<g id="Deleted_Symbol_17_">
			<path style="fill:#A9CDA6;" d="M5.274414,24.400391c-0.390137-0.071289-0.817871-0.762207-0.817871-0.762207l0.040039,1.092285
				c-0.047363,0.176758-0.291992,0.040039-0.291992,0.040039l0.024902-1.031738
				c-0.313965,0.493652-0.78418,0.692871-0.78418,0.692871c-0.142578-0.012695-0.036621-0.09375-0.036621-0.09375
				c0.730469-0.696777,0.783691-0.984863,0.783691-0.984863c0.083008-0.287109,0.056152-0.803711,0.056152-0.803711
				c-0.361328,0.522461-0.601074,0.557617-0.601074,0.557617c-0.064941,0.014648-0.090332,0-0.090332,0
				c-0.064941-0.043945,0.043457-0.140625,0.043457-0.140625c0.092773-0.078125,0.173828-0.151367,0.242676-0.223633
				c0.005859-0.005859,0.009277-0.008789,0.012207-0.012695c-0.00293,0.00293-0.007324,0.005859-0.013184,0.012695
				c0.35791-0.368164,0.398926-0.616699,0.398926-0.616699l0.083984-0.506836c0,0,0.020996-0.06543,0.040039,0l0.064941,0.533203
				c0.083984,0.257324,0.588379,0.786621,0.588379,0.786621c0.067871,0.064453-0.025391,0.0625-0.025391,0.0625
				c-0.282715-0.041992-0.543945-0.458984-0.543945-0.458984l0.038086,0.842773
				c0.132813,0.34375,0.787109,0.830566,0.787109,0.830566C5.447754,24.300781,5.274414,24.400391,5.274414,24.400391z
				 M3.622559,22.947754c-0.007324,0.005859-0.016113,0.011719-0.021973,0.018555
				C3.600586,22.966309,3.609375,22.959473,3.622559,22.947754z M3.703125,22.872559
				c-0.031738,0.02832-0.062988,0.056641-0.080566,0.075195C3.652344,22.919434,3.678223,22.89502,3.703125,22.872559z
				 M3.771484,22.807129c-0.019043,0.019531-0.043945,0.041016-0.068359,0.06543
				C3.725586,22.852051,3.749512,22.82959,3.771484,22.807129z M3.824219,22.760254
				c-0.015625,0.016602-0.033691,0.032227-0.052734,0.046875C3.790527,22.788574,3.808594,22.773926,3.824219,22.760254z
				 M3.824219,22.760254c0.006348-0.005859,0.012207-0.011719,0.019043-0.018555
				C3.836426,22.748535,3.830566,22.754395,3.824219,22.760254z M3.892578,22.695801
				C3.88916,22.70166,3.880371,22.70752,3.873535,22.713379C3.883301,22.705566,3.88916,22.69873,3.892578,22.695801z"/>
		</g>
	</g>
</g>
<g id="coniferoustree_x5F_bd_16_" style="enable-background:new    ;">
	<g id="ConiferousTree_x5F_FC_18_">
		<g id="Deleted_Symbol_18_">
			<path style="fill:#A9CDA6;" d="M11.422363,17.025391c-0.390137-0.071289-0.817871-0.762207-0.817871-0.762207l0.040039,1.092285
				c-0.047363,0.176758-0.291992,0.040039-0.291992,0.040039l0.024902-1.031738
				c-0.313965,0.493652-0.78418,0.692871-0.78418,0.692871c-0.142578-0.012695-0.036621-0.09375-0.036621-0.09375
				c0.730469-0.696777,0.783691-0.984863,0.783691-0.984863c0.083008-0.287109,0.056152-0.803711,0.056152-0.803711
				c-0.361328,0.522461-0.601074,0.557617-0.601074,0.557617c-0.064941,0.014648-0.090332,0-0.090332,0
				c-0.064941-0.043945,0.043457-0.140625,0.043457-0.140625c0.092773-0.078125,0.173828-0.151367,0.242676-0.223633
				c0.005859-0.005859,0.009277-0.008789,0.012207-0.012695c-0.00293,0.00293-0.007324,0.005859-0.013184,0.012695
				c0.35791-0.368164,0.398926-0.616699,0.398926-0.616699l0.083984-0.506836c0,0,0.020996-0.06543,0.040039,0l0.064941,0.533203
				c0.083984,0.257324,0.588379,0.786621,0.588379,0.786621c0.067871,0.064453-0.025391,0.0625-0.025391,0.0625
				c-0.282715-0.041992-0.543945-0.458984-0.543945-0.458984l0.038086,0.842773
				c0.132813,0.34375,0.787109,0.830566,0.787109,0.830566C11.595703,16.925781,11.422363,17.025391,11.422363,17.025391z
				 M9.770508,15.572754c-0.007324,0.005859-0.016113,0.011719-0.021973,0.018555
				C9.748535,15.591309,9.757324,15.584473,9.770508,15.572754z M9.851074,15.497559
				c-0.031738,0.02832-0.062988,0.056641-0.080566,0.075195C9.800293,15.544434,9.826172,15.52002,9.851074,15.497559z
				 M9.919434,15.432129c-0.019043,0.019531-0.043945,0.041016-0.068359,0.06543
				C9.873535,15.477051,9.897461,15.45459,9.919434,15.432129z M9.972168,15.385254
				c-0.015625,0.016602-0.033691,0.032227-0.052734,0.046875C9.938477,15.413574,9.956543,15.398926,9.972168,15.385254z
				 M9.972168,15.385254c0.006348-0.005859,0.012207-0.011719,0.019043-0.018555
				C9.984375,15.373535,9.978516,15.379395,9.972168,15.385254z M10.040527,15.320801
				c-0.003418,0.005859-0.012207,0.011719-0.019043,0.017578C10.03125,15.330566,10.037109,15.32373,10.040527,15.320801z"/>
		</g>
	</g>
</g>
<g id="nonconiferoustree_x5F_bd_14_" style="enable-background:new    ;">
	<g id="NonConiferousTree_x5F_FC_16_">
		<g id="Deleted_Symbol_2_16_">
			<path style="fill:#A9CDA6;" d="M14.557617,13.747559c0,0.318359-0.260742,0.579102-0.57666,0.579102
				c-0.104004,0-0.205078-0.035156-0.296387-0.100586c-0.074707,0.132813-0.206055,0.231445-0.355957,0.269531
				c0.00293,0.036133,0.013184,0.137695,0.036133,0.424805v0.00293c0,0.039063-0.025879,0.067383-0.058105,0.087891
				c-0.032715,0.015625-0.071777,0.026367-0.11084,0.026367c-0.032227,0-0.067871-0.009766-0.098145-0.025391
				c-0.028809-0.020508-0.051758-0.048828-0.051758-0.087891c0,0,0-0.00293,0.015625-0.431641
				c-0.11377-0.035156-0.224609-0.100586-0.308594-0.195313c-0.095215,0.103516-0.239258,0.169922-0.39502,0.169922
				c-0.300293,0-0.561035-0.260742-0.561035-0.577148c0-0.198242,0.104004-0.37793,0.263672-0.475586
				c-0.012695-0.052734-0.015625-0.105469-0.015625-0.166992c0-0.254883,0.162598-0.456055,0.39502-0.53418
				c0-0.023438,0-0.041992,0-0.072266c0-0.15918,0.058594-0.298828,0.159668-0.401367
				c0.102051-0.100586,0.242188-0.15918,0.401367-0.15918c0.289551,0,0.523926,0.207031,0.556641,0.478516
				c0.025879,0,0.052246,0,0.064941,0c0.319336,0,0.580078,0.260742,0.580078,0.560547
				c0,0.041992-0.012695,0.072266-0.016113,0.111328C14.401855,13.312988,14.557617,13.509277,14.557617,13.747559z
				 M14.362793,13.747559c0-0.163086-0.133301-0.333008-0.315918-0.365234c0,0,0,0-0.072266-0.020508L13.94873,13.35498
				l0.005859-0.026367c0,0,0,0,0.016113-0.071289c0.02002-0.055664,0.037109-0.087891,0.037109-0.136719
				c0-0.195313-0.166992-0.364258-0.385254-0.364258c-0.032715,0-0.083984,0.00293-0.11084,0.016602h-0.00293h-0.003906
				c0,0,0,0-0.104004,0.036133l-0.041992,0.014648l0.005859-0.044922c0,0,0,0,0.01709-0.103516V12.64209
				c0-0.198242-0.163086-0.365234-0.380859-0.365234c-0.199219,0-0.365234,0.166992-0.365234,0.365234
				c0,0.036133,0,0.084961,0.013184,0.111328l0.00293,0.00293v0.005859c0,0,0,0,0.01709,0.086914l0.005859,0.033203h-0.033203
				c0,0,0,0-0.084961,0c-0.183105,0.016602-0.315918,0.182617-0.315918,0.365234c0,0.071289,0,0.117188,0.032227,0.162109v0.004883
				c0,0,0,0,0.035645,0.071289l0.016113,0.029297l-0.033203,0.005859c0,0,0,0-0.067871,0.020508
				c-0.149902,0.064453-0.230957,0.198242-0.230957,0.348633c0,0.21875,0.166016,0.381836,0.365234,0.381836
				c0.132813,0,0.248047-0.064453,0.332031-0.182617c0.00293-0.006836,0.013672-0.026367,0.051758-0.104492l0.022949-0.041992
				l0.021973,0.039063c0,0,0,0,0.072266,0.108398l0.00293,0.00293c0.048828,0.133789,0.183105,0.233398,0.333008,0.233398
				c0.166992,0,0.315918-0.116211,0.349121-0.263672v-0.003906c0,0,0,0,0.035645-0.124023l0.013184-0.041992l0.033203,0.030273
				c0,0,0,0,0.087891,0.09082c0.064941,0.064453,0.166016,0.117188,0.26709,0.117188
				C14.196777,14.128418,14.362793,13.965332,14.362793,13.747559z"/>
		</g>
	</g>
</g>
<g id="nonconiferoustree_x5F_bd_15_" style="enable-background:new    ;">
	<g id="NonConiferousTree_x5F_FC_17_">
		<g id="Deleted_Symbol_2_17_">
			<path style="fill:#A9CDA6;" d="M10.133789,12.983887c0,0.318359-0.260742,0.579102-0.57666,0.579102
				c-0.104004,0-0.205078-0.035156-0.296387-0.100586c-0.074707,0.132813-0.206055,0.231445-0.355957,0.269531
				c0.00293,0.036133,0.013184,0.137695,0.036133,0.424805v0.00293c0,0.039063-0.025879,0.067383-0.058105,0.087891
				c-0.032715,0.015625-0.071777,0.026367-0.11084,0.026367c-0.032227,0-0.067871-0.009766-0.098145-0.025391
				C8.64502,14.228027,8.62207,14.199707,8.62207,14.160645c0,0,0-0.00293,0.015625-0.431641
				c-0.11377-0.035156-0.224609-0.100586-0.308594-0.195313c-0.095215,0.103516-0.239258,0.169922-0.39502,0.169922
				c-0.300293,0-0.561035-0.260742-0.561035-0.577148c0-0.198242,0.104004-0.37793,0.263672-0.475586
				c-0.012695-0.052734-0.015625-0.105469-0.015625-0.166992c0-0.254883,0.162598-0.456055,0.39502-0.53418
				c0-0.023438,0-0.041992,0-0.072266c0-0.15918,0.058594-0.298828,0.159668-0.401367
				c0.102051-0.100586,0.242188-0.15918,0.401367-0.15918c0.289551,0,0.523926,0.207031,0.556641,0.478516
				c0.025879,0,0.052246,0,0.064941,0c0.319336,0,0.580078,0.260742,0.580078,0.560547
				c0,0.041992-0.012695,0.072266-0.016113,0.111328C9.978027,12.549316,10.133789,12.745605,10.133789,12.983887z
				 M9.938965,12.983887c0-0.163086-0.133301-0.333008-0.315918-0.365234c0,0,0,0-0.072266-0.020508l-0.025879-0.006836
				l0.005859-0.026367c0,0,0,0,0.016113-0.071289c0.02002-0.055664,0.037109-0.087891,0.037109-0.136719
				c0-0.195313-0.166992-0.364258-0.385254-0.364258c-0.032715,0-0.083984,0.00293-0.11084,0.016602h-0.00293H9.081055
				c0,0,0,0-0.104004,0.036133l-0.041992,0.014648l0.005859-0.044922c0,0,0,0,0.01709-0.103516v-0.033203
				c0-0.198242-0.163086-0.365234-0.380859-0.365234c-0.199219,0-0.365234,0.166992-0.365234,0.365234
				c0,0.036133,0,0.084961,0.013184,0.111328l0.00293,0.00293v0.005859c0,0,0,0,0.01709,0.086914l0.005859,0.033203H8.217773
				c0,0,0,0-0.084961,0c-0.183105,0.016602-0.315918,0.182617-0.315918,0.365234c0,0.071289,0,0.117188,0.032227,0.162109v0.004883
				c0,0,0,0,0.035645,0.071289l0.016113,0.029297l-0.033203,0.005859c0,0,0,0-0.067871,0.020508
				c-0.149902,0.064453-0.230957,0.198242-0.230957,0.348633c0,0.21875,0.166016,0.381836,0.365234,0.381836
				c0.132813,0,0.248047-0.064453,0.332031-0.182617c0.00293-0.006836,0.013672-0.026367,0.051758-0.104492l0.022949-0.041992
				l0.021973,0.039063c0,0,0,0,0.072266,0.108398l0.00293,0.00293c0.048828,0.133789,0.183105,0.233398,0.333008,0.233398
				c0.166992,0,0.315918-0.116211,0.349121-0.263672V13.29541c0,0,0,0,0.035645-0.124023l0.013184-0.041992l0.033203,0.030273
				c0,0,0,0,0.087891,0.09082c0.064941,0.064453,0.166016,0.117188,0.26709,0.117188
				C9.772949,13.364746,9.938965,13.20166,9.938965,12.983887z"/>
		</g>
	</g>
</g>
<g id="coniferoustree_x5F_bd_2_" style="enable-background:new    ;">
	<g id="ConiferousTree_x5F_FC_4_">
		<g id="Deleted_Symbol_4_">
			<path style="fill:#A9CDA6;" d="M26.706055,7.242188C26.31543,7.170898,25.887695,6.47998,25.887695,6.47998l0.040039,1.092285
				c-0.046875,0.176758-0.291016,0.040039-0.291016,0.040039l0.024414-1.031738
				c-0.313965,0.493652-0.78418,0.692871-0.78418,0.692871c-0.142578-0.012695-0.036621-0.09375-0.036621-0.09375
				c0.730957-0.696777,0.783691-0.984863,0.783691-0.984863c0.083008-0.287109,0.056641-0.803711,0.056641-0.803711
				c-0.361816,0.522461-0.601563,0.557617-0.601563,0.557617c-0.064941,0.014648-0.090332,0-0.090332,0
				c-0.064941-0.043945,0.043457-0.140625,0.043457-0.140625C25.125,5.72998,25.206055,5.656738,25.274902,5.584473
				c0.005859-0.005859,0.009277-0.008789,0.012207-0.012695c-0.00293,0.00293-0.007324,0.005859-0.013184,0.012695
				c0.35791-0.368164,0.398926-0.616699,0.398926-0.616699l0.083984-0.506836c0,0,0.021484-0.06543,0.040039,0l0.064453,0.533203
				c0.083984,0.257324,0.588867,0.786621,0.588867,0.786621c0.067383,0.064453-0.025391,0.0625-0.025391,0.0625
				c-0.283203-0.041992-0.543945-0.458984-0.543945-0.458984l0.038086,0.842773
				c0.132813,0.34375,0.787109,0.830566,0.787109,0.830566C26.879883,7.142578,26.706055,7.242188,26.706055,7.242188z
				 M25.054199,5.789551c-0.007324,0.005859-0.016113,0.011719-0.021973,0.018555
				C25.032227,5.808105,25.041016,5.80127,25.054199,5.789551z M25.134766,5.714355
				c-0.031738,0.02832-0.062988,0.056641-0.080566,0.075195C25.083984,5.76123,25.109863,5.736816,25.134766,5.714355z
				 M25.203125,5.648926c-0.019043,0.019531-0.043945,0.041016-0.068359,0.06543
				C25.157227,5.693848,25.181152,5.671387,25.203125,5.648926z M25.255859,5.602051
				c-0.015625,0.016602-0.033691,0.032227-0.052734,0.046875C25.222168,5.630371,25.240234,5.615723,25.255859,5.602051z
				 M25.255859,5.602051c0.006348-0.005859,0.012207-0.011719,0.019043-0.018555
				C25.268066,5.590332,25.262207,5.596191,25.255859,5.602051z M25.324219,5.537598
				c-0.003418,0.005859-0.012207,0.011719-0.019043,0.017578C25.314941,5.547363,25.320801,5.540527,25.324219,5.537598z"/>
		</g>
	</g>
</g>
<g id="nonconiferoustree_x5F_bd_1_" style="enable-background:new    ;">
	<g id="NonConiferousTree_x5F_FC_3_">
		<g id="Deleted_Symbol_2_3_">
			<path style="fill:#A9CDA6;" d="M29.841797,3.964355c0,0.318359-0.261719,0.579102-0.577148,0.579102
				c-0.104492,0-0.205078-0.035156-0.295898-0.100586c-0.075195,0.132813-0.207031,0.231445-0.356445,0.269531
				c0.00293,0.036133,0.012695,0.137695,0.036133,0.424805v0.00293c0,0.039063-0.025391,0.067383-0.058594,0.087891
				c-0.032227,0.015625-0.071289,0.026367-0.110352,0.026367c-0.032227,0-0.067383-0.009766-0.098633-0.025391
				c-0.02832-0.020508-0.050781-0.048828-0.050781-0.087891c0,0,0-0.00293,0.015625-0.431641
				c-0.114258-0.035156-0.224609-0.100586-0.308594-0.195313c-0.095703,0.103516-0.240234,0.169922-0.395508,0.169922
				c-0.299805,0-0.561523-0.260742-0.561523-0.577148c0-0.198242,0.104492-0.37793,0.263672-0.475586
				c-0.011719-0.052734-0.015625-0.105469-0.015625-0.166992c0-0.254883,0.163086-0.456055,0.395508-0.53418
				c0-0.023438,0-0.041992,0-0.072266c0-0.15918,0.058594-0.298828,0.15918-0.401367
				c0.102539-0.100586,0.242188-0.15918,0.402344-0.15918c0.289063,0,0.523438,0.207031,0.556641,0.478516
				c0.025391,0,0.051758,0,0.064453,0c0.319336,0,0.580078,0.260742,0.580078,0.560547
				c0,0.041992-0.012695,0.072266-0.015625,0.111328C29.685547,3.529785,29.841797,3.726074,29.841797,3.964355z
				 M29.646484,3.964355c0-0.163086-0.132813-0.333008-0.316406-0.365234c0,0,0,0-0.072266-0.020508l-0.025391-0.006836
				l0.005859-0.026367c0,0,0,0,0.015625-0.071289c0.020508-0.055664,0.037109-0.087891,0.037109-0.136719
				c0-0.195313-0.166016-0.364258-0.384766-0.364258c-0.033203,0-0.083984,0.00293-0.111328,0.016602h-0.001953h-0.003906
				c0,0,0,0-0.104492,0.036133l-0.041992,0.014648l0.005859-0.044922c0,0,0,0,0.017578-0.103516V2.858887
				c0-0.198242-0.164063-0.365234-0.380859-0.365234c-0.199219,0-0.365234,0.166992-0.365234,0.365234
				c0,0.036133,0,0.084961,0.012695,0.111328l0.00293,0.00293v0.005859c0,0,0,0,0.017578,0.086914l0.005859,0.033203h-0.033203
				c0,0,0,0-0.085938,0c-0.182617,0.016602-0.31543,0.182617-0.31543,0.365234c0,0.071289,0,0.117188,0.032227,0.162109v0.004883
				c0,0,0,0,0.035156,0.071289l0.016602,0.029297l-0.033203,0.005859c0,0,0,0-0.067383,0.020508
				c-0.150391,0.064453-0.231445,0.198242-0.231445,0.348633c0,0.21875,0.166016,0.381836,0.365234,0.381836
				c0.132813,0,0.248047-0.064453,0.332031-0.182617c0.00293-0.006836,0.013672-0.026367,0.051758-0.104492l0.023438-0.041992
				l0.021484,0.039063c0,0,0,0,0.072266,0.108398l0.00293,0.00293c0.048828,0.133789,0.182617,0.233398,0.333008,0.233398
				c0.166992,0,0.316406-0.116211,0.349609-0.263672V4.275879c0,0,0,0,0.035156-0.124023l0.013672-0.041992l0.033203,0.030273
				c0,0,0,0,0.087891,0.09082c0.064453,0.064453,0.166016,0.117188,0.266602,0.117188
				C29.480469,4.345215,29.646484,4.182129,29.646484,3.964355z"/>
		</g>
	</g>
</g>
<g id="nonconiferoustree_x5F_bd_2_" style="enable-background:new    ;">
	<g id="NonConiferousTree_x5F_FC_4_">
		<g id="Deleted_Symbol_2_4_">
			<path style="fill:#A9CDA6;" d="M25.41748,3.200684c0,0.318359-0.260742,0.579102-0.57666,0.579102
				c-0.104004,0-0.205078-0.035156-0.296387-0.100586c-0.074707,0.132813-0.206055,0.231445-0.355957,0.269531
				c0.00293,0.036133,0.013184,0.137695,0.036133,0.424805v0.00293c0,0.039063-0.025879,0.067383-0.058105,0.087891
				c-0.032715,0.015625-0.071777,0.026367-0.11084,0.026367c-0.032227,0-0.067871-0.009766-0.098145-0.025391
				c-0.028809-0.020508-0.051758-0.048828-0.051758-0.087891c0,0,0-0.00293,0.015625-0.431641
				c-0.11377-0.035156-0.224609-0.100586-0.308594-0.195313c-0.095215,0.103516-0.239258,0.169922-0.39502,0.169922
				c-0.300293,0-0.561035-0.260742-0.561035-0.577148c0-0.198242,0.104004-0.37793,0.263672-0.475586
				c-0.012695-0.052734-0.015625-0.105469-0.015625-0.166992c0-0.254883,0.162598-0.456055,0.39502-0.53418
				c0-0.023438,0-0.041992,0-0.072266c0-0.15918,0.058594-0.298828,0.159668-0.401367
				c0.102051-0.100586,0.242188-0.15918,0.401367-0.15918c0.289551,0,0.523926,0.207031,0.556641,0.478516
				c0.025879,0,0.052246,0,0.064941,0c0.319336,0,0.580078,0.260742,0.580078,0.560547
				c0,0.041992-0.012695,0.072266-0.016113,0.111328C25.261719,2.766113,25.41748,2.962402,25.41748,3.200684z M25.222656,3.200684
				c0-0.163086-0.133301-0.333008-0.315918-0.365234c0,0,0,0-0.072266-0.020508l-0.025879-0.006836l0.005859-0.026367
				c0,0,0,0,0.016113-0.071289c0.02002-0.055664,0.037109-0.087891,0.037109-0.136719
				c0-0.195313-0.166992-0.364258-0.385254-0.364258c-0.032715,0-0.083984,0.00293-0.11084,0.016602h-0.00293h-0.003906
				c0,0,0,0-0.104004,0.036133L24.21875,2.276855l0.005859-0.044922c0,0,0,0,0.01709-0.103516V2.095215
				c0-0.198242-0.163086-0.365234-0.380859-0.365234c-0.199219,0-0.365234,0.166992-0.365234,0.365234
				c0,0.036133,0,0.084961,0.013184,0.111328l0.00293,0.00293v0.005859c0,0,0,0,0.01709,0.086914l0.005859,0.033203h-0.033203
				c0,0,0,0-0.084961,0c-0.183105,0.016602-0.315918,0.182617-0.315918,0.365234c0,0.071289,0,0.117188,0.032227,0.162109v0.004883
				c0,0,0,0,0.035645,0.071289l0.016113,0.029297l-0.033203,0.005859c0,0,0,0-0.067871,0.020508
				c-0.149902,0.064453-0.230957,0.198242-0.230957,0.348633c0,0.21875,0.166016,0.381836,0.365234,0.381836
				c0.132813,0,0.248047-0.064453,0.332031-0.182617c0.00293-0.006836,0.013672-0.026367,0.051758-0.104492l0.022949-0.041992
				l0.021973,0.039063c0,0,0,0,0.072266,0.108398l0.00293,0.00293c0.048828,0.133789,0.183105,0.233398,0.333008,0.233398
				c0.166992,0,0.315918-0.116211,0.349121-0.263672V3.512207c0,0,0,0,0.035645-0.124023l0.013184-0.041992l0.033203,0.030273
				c0,0,0,0,0.087891,0.09082c0.064941,0.064453,0.166016,0.117188,0.26709,0.117188
				C25.056641,3.581543,25.222656,3.418457,25.222656,3.200684z"/>
		</g>
	</g>
</g>
<g id="coniferoustree_x5F_bd_4_" style="enable-background:new    ;">
	<g id="ConiferousTree_x5F_FC_6_">
		<g id="Deleted_Symbol_6_">
			<path style="fill:#A9CDA6;" d="M37.889648,15.289063c-0.390625-0.071289-0.818359-0.762207-0.818359-0.762207l0.040039,1.092285
				c-0.046875,0.176758-0.291016,0.040039-0.291016,0.040039l0.024414-1.031738
				c-0.313477,0.493652-0.78418,0.692871-0.78418,0.692871c-0.142578-0.012695-0.037109-0.09375-0.037109-0.09375
				c0.731445-0.696777,0.78418-0.984863,0.78418-0.984863c0.083008-0.287109,0.056641-0.803711,0.056641-0.803711
				c-0.361328,0.522461-0.601563,0.557617-0.601563,0.557617c-0.064453,0.014648-0.089844,0-0.089844,0
				c-0.06543-0.043945,0.042969-0.140625,0.042969-0.140625c0.092773-0.078125,0.173828-0.151367,0.243164-0.223633
				c0.005859-0.005859,0.008789-0.008789,0.011719-0.012695c-0.00293,0.00293-0.006836,0.005859-0.012695,0.012695
				c0.357422-0.368164,0.398438-0.616699,0.398438-0.616699l0.083984-0.506836c0,0,0.021484-0.06543,0.040039,0l0.064453,0.533203
				c0.083984,0.257324,0.588867,0.786621,0.588867,0.786621c0.067383,0.064453-0.025391,0.0625-0.025391,0.0625
				c-0.283203-0.041992-0.543945-0.458984-0.543945-0.458984l0.038086,0.842773
				c0.132813,0.34375,0.787109,0.830566,0.787109,0.830566C38.063477,15.189453,37.889648,15.289063,37.889648,15.289063z
				 M36.238281,13.836426c-0.007813,0.005859-0.016602,0.011719-0.022461,0.018555
				C36.21582,13.85498,36.224609,13.848145,36.238281,13.836426z M36.318359,13.76123
				c-0.03125,0.02832-0.0625,0.056641-0.080078,0.075195C36.267578,13.808105,36.293945,13.783691,36.318359,13.76123z
				 M36.386719,13.695801c-0.018555,0.019531-0.043945,0.041016-0.068359,0.06543
				C36.34082,13.740723,36.365234,13.718262,36.386719,13.695801z M36.439453,13.648926
				c-0.015625,0.016602-0.033203,0.032227-0.052734,0.046875C36.40625,13.677246,36.423828,13.662598,36.439453,13.648926z
				 M36.439453,13.648926c0.006836-0.005859,0.012695-0.011719,0.019531-0.018555
				C36.452148,13.637207,36.446289,13.643066,36.439453,13.648926z M36.507813,13.584473
				c-0.00293,0.005859-0.011719,0.011719-0.018555,0.017578C36.499023,13.594238,36.504883,13.587402,36.507813,13.584473z"/>
		</g>
	</g>
</g>
<g id="nonconiferoustree_x5F_bd_3_" style="enable-background:new    ;">
	<g id="NonConiferousTree_x5F_FC_5_">
		<g id="Deleted_Symbol_2_5_">
			<path style="fill:#A9CDA6;" d="M41.025391,12.01123c0,0.318359-0.261719,0.579102-0.577148,0.579102
				c-0.104492,0-0.205078-0.035156-0.295898-0.100586c-0.075195,0.132813-0.207031,0.231445-0.356445,0.269531
				c0.00293,0.036133,0.012695,0.137695,0.036133,0.424805v0.00293c0,0.039063-0.025391,0.067383-0.058594,0.087891
				c-0.032227,0.015625-0.071289,0.026367-0.110352,0.026367c-0.032227,0-0.067383-0.009766-0.098633-0.025391
				c-0.02832-0.020508-0.050781-0.048828-0.050781-0.087891c0,0,0-0.00293,0.015625-0.431641
				c-0.114258-0.035156-0.224609-0.100586-0.308594-0.195313c-0.095703,0.103516-0.240234,0.169922-0.395508,0.169922
				c-0.299805,0-0.561523-0.260742-0.561523-0.577148c0-0.198242,0.104492-0.37793,0.263672-0.475586
				c-0.011719-0.052734-0.015625-0.105469-0.015625-0.166992c0-0.254883,0.163086-0.456055,0.395508-0.53418
				c0-0.023438,0-0.041992,0-0.072266c0-0.15918,0.058594-0.298828,0.15918-0.401367
				c0.102539-0.100586,0.242188-0.15918,0.402344-0.15918c0.289063,0,0.523438,0.207031,0.556641,0.478516
				c0.025391,0,0.051758,0,0.064453,0c0.319336,0,0.580078,0.260742,0.580078,0.560547
				c0,0.041992-0.012695,0.072266-0.015625,0.111328C40.869141,11.57666,41.025391,11.772949,41.025391,12.01123z
				 M40.830078,12.01123c0-0.163086-0.132813-0.333008-0.316406-0.365234c0,0,0,0-0.072266-0.020508l-0.025391-0.006836
				l0.005859-0.026367c0,0,0,0,0.015625-0.071289c0.020508-0.055664,0.037109-0.087891,0.037109-0.136719
				c0-0.195313-0.166016-0.364258-0.384766-0.364258c-0.033203,0-0.083984,0.00293-0.111328,0.016602h-0.001953h-0.003906
				c0,0,0,0-0.104492,0.036133l-0.041992,0.014648l0.005859-0.044922c0,0,0,0,0.017578-0.103516v-0.033203
				c0-0.198242-0.164063-0.365234-0.380859-0.365234c-0.199219,0-0.365234,0.166992-0.365234,0.365234
				c0,0.036133,0,0.084961,0.012695,0.111328l0.00293,0.00293v0.005859c0,0,0,0,0.017578,0.086914l0.005859,0.033203h-0.033203
				c0,0,0,0-0.085938,0c-0.182617,0.016602-0.31543,0.182617-0.31543,0.365234c0,0.071289,0,0.117188,0.032227,0.162109v0.004883
				c0,0,0,0,0.035156,0.071289l0.016602,0.029297l-0.033203,0.005859c0,0,0,0-0.067383,0.020508
				c-0.150391,0.064453-0.231445,0.198242-0.231445,0.348633c0,0.21875,0.166016,0.381836,0.365234,0.381836
				c0.132813,0,0.248047-0.064453,0.332031-0.182617c0.00293-0.006836,0.013672-0.026367,0.051758-0.104492l0.023438-0.041992
				l0.021484,0.039063c0,0,0,0,0.072266,0.108398l0.00293,0.00293c0.048828,0.133789,0.182617,0.233398,0.333008,0.233398
				c0.166992,0,0.316406-0.116211,0.349609-0.263672v-0.003906c0,0,0,0,0.035156-0.124023l0.013672-0.041992l0.033203,0.030273
				c0,0,0,0,0.087891,0.09082c0.064453,0.064453,0.166016,0.117188,0.266602,0.117188
				C40.664063,12.39209,40.830078,12.229004,40.830078,12.01123z"/>
		</g>
	</g>
</g>
<g id="coniferoustree_x5F_bd_3_" style="enable-background:new    ;">
	<g id="ConiferousTree_x5F_FC_5_">
		<g id="Deleted_Symbol_5_">
			<path style="fill:#A9CDA6;" d="M36.133789,12.253906c-0.390625-0.071289-0.818359-0.762207-0.818359-0.762207l0.040039,1.092285
				c-0.046875,0.176758-0.291016,0.040039-0.291016,0.040039l0.024414-1.031738
				c-0.313477,0.493652-0.78418,0.692871-0.78418,0.692871c-0.142578-0.012695-0.037109-0.09375-0.037109-0.09375
				c0.731445-0.696777,0.78418-0.984863,0.78418-0.984863c0.083008-0.287109,0.056641-0.803711,0.056641-0.803711
				c-0.361328,0.522461-0.601563,0.557617-0.601563,0.557617c-0.064453,0.014648-0.089844,0-0.089844,0
				c-0.06543-0.043945,0.042969-0.140625,0.042969-0.140625c0.092773-0.078125,0.173828-0.151367,0.243164-0.223633
				c0.005859-0.005859,0.008789-0.008789,0.011719-0.012695c-0.00293,0.00293-0.006836,0.005859-0.012695,0.012695
				c0.357422-0.368164,0.398438-0.616699,0.398438-0.616699l0.083984-0.506836c0,0,0.021484-0.06543,0.040039,0l0.064453,0.533203
				c0.083984,0.257324,0.588867,0.786621,0.588867,0.786621c0.067383,0.064453-0.025391,0.0625-0.025391,0.0625
				c-0.283203-0.041992-0.543945-0.458984-0.543945-0.458984l0.038086,0.842773
				c0.132813,0.34375,0.787109,0.830566,0.787109,0.830566C36.307617,12.154297,36.133789,12.253906,36.133789,12.253906z
				 M34.482422,10.80127c-0.007813,0.005859-0.016602,0.011719-0.022461,0.018555
				C34.459961,10.819824,34.46875,10.812988,34.482422,10.80127z M34.5625,10.726074
				c-0.03125,0.02832-0.0625,0.056641-0.080078,0.075195C34.511719,10.772949,34.538086,10.748535,34.5625,10.726074z
				 M34.630859,10.660645c-0.018555,0.019531-0.043945,0.041016-0.068359,0.06543
				C34.584961,10.705566,34.609375,10.683105,34.630859,10.660645z M34.683594,10.61377
				c-0.015625,0.016602-0.033203,0.032227-0.052734,0.046875C34.650391,10.64209,34.667969,10.627441,34.683594,10.61377z
				 M34.683594,10.61377c0.006836-0.005859,0.012695-0.011719,0.019531-0.018555
				C34.696289,10.602051,34.69043,10.60791,34.683594,10.61377z M34.751953,10.549316
				c-0.00293,0.005859-0.011719,0.011719-0.018555,0.017578C34.743164,10.559082,34.749023,10.552246,34.751953,10.549316z"/>
		</g>
	</g>
</g>
<g id="coniferoustree_x5F_bd" style="enable-background:new    ;">
	<g id="ConiferousTree_x5F_FC_2_">
		<g id="Deleted_Symbol_2_">
			<path style="fill:#A9CDA6;" d="M43.40332,6.904297c-0.390625-0.071289-0.818359-0.762207-0.818359-0.762207L42.625,7.234375
				c-0.046875,0.176758-0.291016,0.040039-0.291016,0.040039l0.024414-1.031738
				c-0.313477,0.493652-0.78418,0.692871-0.78418,0.692871c-0.142578-0.012695-0.037109-0.09375-0.037109-0.09375
				c0.731445-0.696777,0.78418-0.984863,0.78418-0.984863c0.083008-0.287109,0.056641-0.803711,0.056641-0.803711
				c-0.361328,0.522461-0.601563,0.557617-0.601563,0.557617c-0.064453,0.014648-0.089844,0-0.089844,0
				c-0.06543-0.043945,0.042969-0.140625,0.042969-0.140625c0.092773-0.078125,0.173828-0.151367,0.243164-0.223633
				c0.005859-0.005859,0.008789-0.008789,0.011719-0.012695c-0.00293,0.00293-0.006836,0.005859-0.012695,0.012695
				c0.357422-0.368164,0.398438-0.616699,0.398438-0.616699l0.083984-0.506836c0,0,0.021484-0.06543,0.040039,0l0.064453,0.533203
				c0.083984,0.257324,0.588867,0.786621,0.588867,0.786621c0.067383,0.064453-0.025391,0.0625-0.025391,0.0625
				c-0.283203-0.041992-0.543945-0.458984-0.543945-0.458984l0.038086,0.842773
				c0.132813,0.34375,0.787109,0.830566,0.787109,0.830566C43.577148,6.804688,43.40332,6.904297,43.40332,6.904297z
				 M41.751953,5.45166c-0.007813,0.005859-0.016602,0.011719-0.022461,0.018555
				C41.729492,5.470215,41.738281,5.463379,41.751953,5.45166z M41.832031,5.376465
				c-0.03125,0.02832-0.0625,0.056641-0.080078,0.075195C41.78125,5.42334,41.807617,5.398926,41.832031,5.376465z
				 M41.900391,5.311035c-0.018555,0.019531-0.043945,0.041016-0.068359,0.06543
				C41.854492,5.355957,41.878906,5.333496,41.900391,5.311035z M41.953125,5.26416
				c-0.015625,0.016602-0.033203,0.032227-0.052734,0.046875C41.919922,5.29248,41.9375,5.277832,41.953125,5.26416z
				 M41.953125,5.26416c0.006836-0.005859,0.012695-0.011719,0.019531-0.018555
				C41.96582,5.252441,41.959961,5.258301,41.953125,5.26416z M42.021484,5.199707
				c-0.00293,0.005859-0.011719,0.011719-0.018555,0.017578C42.012695,5.209473,42.018555,5.202637,42.021484,5.199707z"/>
		</g>
	</g>
</g>
<g id="nonconiferoustree_x5F_bd" style="enable-background:new    ;">
	<g id="NonConiferousTree_x5F_FC_2_">
		<g id="Deleted_Symbol_2_2_">
			<path style="fill:#A9CDA6;" d="M46.539063,3.626465c0,0.318359-0.261719,0.579102-0.577148,0.579102
				c-0.104492,0-0.205078-0.035156-0.295898-0.100586c-0.075195,0.132813-0.207031,0.231445-0.356445,0.269531
				c0.00293,0.036133,0.012695,0.137695,0.036133,0.424805v0.00293c0,0.039063-0.025391,0.067383-0.058594,0.087891
				c-0.032227,0.015625-0.071289,0.026367-0.110352,0.026367c-0.032227,0-0.067383-0.009766-0.098633-0.025391
				c-0.02832-0.020508-0.050781-0.048828-0.050781-0.087891c0,0,0-0.00293,0.015625-0.431641
				c-0.114258-0.035156-0.224609-0.100586-0.308594-0.195313c-0.095703,0.103516-0.240234,0.169922-0.395508,0.169922
				c-0.299805,0-0.561523-0.260742-0.561523-0.577148c0-0.198242,0.104492-0.37793,0.263672-0.475586
				c-0.011719-0.052734-0.015625-0.105469-0.015625-0.166992c0-0.254883,0.163086-0.456055,0.395508-0.53418
				c0-0.023438,0-0.041992,0-0.072266c0-0.15918,0.058594-0.298828,0.15918-0.401367
				c0.102539-0.100586,0.242188-0.15918,0.402344-0.15918c0.289063,0,0.523438,0.207031,0.556641,0.478516
				c0.025391,0,0.051758,0,0.064453,0c0.319336,0,0.580078,0.260742,0.580078,0.560547
				c0,0.041992-0.012695,0.072266-0.015625,0.111328C46.382813,3.191895,46.539063,3.388184,46.539063,3.626465z M46.34375,3.626465
				c0-0.163086-0.132813-0.333008-0.316406-0.365234c0,0,0,0-0.072266-0.020508l-0.025391-0.006836l0.005859-0.026367
				c0,0,0,0,0.015625-0.071289c0.020508-0.055664,0.037109-0.087891,0.037109-0.136719
				c0-0.195313-0.166016-0.364258-0.384766-0.364258c-0.033203,0-0.083984,0.00293-0.111328,0.016602h-0.001953h-0.003906
				c0,0,0,0-0.104492,0.036133l-0.041992,0.014648l0.005859-0.044922c0,0,0,0,0.017578-0.103516V2.520996
				c0-0.198242-0.164063-0.365234-0.380859-0.365234c-0.199219,0-0.365234,0.166992-0.365234,0.365234
				c0,0.036133,0,0.084961,0.012695,0.111328l0.00293,0.00293v0.005859c0,0,0,0,0.017578,0.086914L44.65625,2.76123h-0.033203
				c0,0,0,0-0.085938,0c-0.182617,0.016602-0.31543,0.182617-0.31543,0.365234c0,0.071289,0,0.117188,0.032227,0.162109v0.004883
				c0,0,0,0,0.035156,0.071289l0.016602,0.029297l-0.033203,0.005859c0,0,0,0-0.067383,0.020508
				c-0.150391,0.064453-0.231445,0.198242-0.231445,0.348633c0,0.21875,0.166016,0.381836,0.365234,0.381836
				c0.132813,0,0.248047-0.064453,0.332031-0.182617c0.00293-0.006836,0.013672-0.026367,0.051758-0.104492l0.023438-0.041992
				l0.021484,0.039063c0,0,0,0,0.072266,0.108398l0.00293,0.00293c0.048828,0.133789,0.182617,0.233398,0.333008,0.233398
				c0.166992,0,0.316406-0.116211,0.349609-0.263672V3.937988c0,0,0,0,0.035156-0.124023l0.013672-0.041992l0.033203,0.030273
				c0,0,0,0,0.087891,0.09082c0.064453,0.064453,0.166016,0.117188,0.266602,0.117188
				C46.177734,4.007324,46.34375,3.844238,46.34375,3.626465z"/>
		</g>
	</g>
</g>
<g id="coniferoustree_x5F_bd_1_" style="enable-background:new    ;">
	<g id="ConiferousTree_x5F_FC_3_">
		<g id="Deleted_Symbol_3_">
			<path style="fill:#A9CDA6;" d="M41.647461,3.869141c-0.390625-0.071289-0.818359-0.762207-0.818359-0.762207l0.040039,1.092285
				c-0.046875,0.176758-0.291016,0.040039-0.291016,0.040039l0.024414-1.031738
				c-0.313477,0.493652-0.78418,0.692871-0.78418,0.692871c-0.142578-0.012695-0.037109-0.09375-0.037109-0.09375
				c0.731445-0.696777,0.78418-0.984863,0.78418-0.984863c0.083008-0.287109,0.056641-0.803711,0.056641-0.803711
				c-0.361328,0.522461-0.601563,0.557617-0.601563,0.557617c-0.064453,0.014648-0.089844,0-0.089844,0
				c-0.06543-0.043945,0.042969-0.140625,0.042969-0.140625c0.092773-0.078125,0.173828-0.151367,0.243164-0.223633
				c0.005859-0.005859,0.008789-0.008789,0.011719-0.012695c-0.00293,0.00293-0.006836,0.005859-0.012695,0.012695
				c0.357422-0.368164,0.398438-0.616699,0.398438-0.616699l0.083984-0.506836c0,0,0.021484-0.06543,0.040039,0l0.064453,0.533203
				c0.083984,0.257324,0.588867,0.786621,0.588867,0.786621c0.067383,0.064453-0.025391,0.0625-0.025391,0.0625
				c-0.283203-0.041992-0.543945-0.458984-0.543945-0.458984l0.038086,0.842773
				c0.132813,0.34375,0.787109,0.830566,0.787109,0.830566C41.821289,3.769531,41.647461,3.869141,41.647461,3.869141z
				 M39.996094,2.416504c-0.007813,0.005859-0.016602,0.011719-0.022461,0.018555
				C39.973633,2.435059,39.982422,2.428223,39.996094,2.416504z M40.076172,2.341309
				c-0.03125,0.02832-0.0625,0.056641-0.080078,0.075195C40.025391,2.388184,40.051758,2.36377,40.076172,2.341309z
				 M40.144531,2.275879c-0.018555,0.019531-0.043945,0.041016-0.068359,0.06543
				C40.098633,2.320801,40.123047,2.29834,40.144531,2.275879z M40.197266,2.229004
				c-0.015625,0.016602-0.033203,0.032227-0.052734,0.046875C40.164063,2.257324,40.181641,2.242676,40.197266,2.229004z
				 M40.197266,2.229004c0.006836-0.005859,0.012695-0.011719,0.019531-0.018555
				C40.209961,2.217285,40.204102,2.223145,40.197266,2.229004z M40.265625,2.164551
				c-0.00293,0.005859-0.011719,0.011719-0.018555,0.017578C40.256836,2.174316,40.262695,2.16748,40.265625,2.164551z"/>
		</g>
	</g>
</g>
<g id="coniferoustree_x5F_bd_5_" style="enable-background:new    ;">
	<g id="ConiferousTree_x5F_FC_7_">
		<g id="Deleted_Symbol_7_">
			<path style="fill:#A9CDA6;" d="M38.385742,25.166992c-0.390625-0.071289-0.818359-0.762207-0.818359-0.762207l0.040039,1.092285
				c-0.046875,0.176758-0.291016,0.040039-0.291016,0.040039l0.024414-1.031738
				c-0.313477,0.493652-0.78418,0.692871-0.78418,0.692871c-0.142578-0.012695-0.037109-0.09375-0.037109-0.09375
				c0.731445-0.696777,0.78418-0.984863,0.78418-0.984863c0.083008-0.287109,0.056641-0.803711,0.056641-0.803711
				c-0.361328,0.522461-0.601563,0.557617-0.601563,0.557617c-0.064453,0.014648-0.089844,0-0.089844,0
				c-0.06543-0.043945,0.042969-0.140625,0.042969-0.140625c0.092773-0.078125,0.173828-0.151367,0.243164-0.223633
				c0.005859-0.005859,0.008789-0.008789,0.011719-0.012695c-0.00293,0.00293-0.006836,0.005859-0.012695,0.012695
				c0.357422-0.368164,0.398438-0.616699,0.398438-0.616699l0.083984-0.506836c0,0,0.021484-0.06543,0.040039,0l0.064453,0.533203
				c0.083984,0.257324,0.588867,0.786621,0.588867,0.786621c0.067383,0.064453-0.025391,0.0625-0.025391,0.0625
				c-0.283203-0.041992-0.543945-0.458984-0.543945-0.458984l0.038086,0.842773
				c0.132813,0.34375,0.787109,0.830566,0.787109,0.830566C38.55957,25.067383,38.385742,25.166992,38.385742,25.166992z
				 M36.734375,23.714355c-0.007813,0.005859-0.016602,0.011719-0.022461,0.018555
				C36.711914,23.73291,36.720703,23.726074,36.734375,23.714355z M36.814453,23.63916
				c-0.03125,0.02832-0.0625,0.056641-0.080078,0.075195C36.763672,23.686035,36.790039,23.661621,36.814453,23.63916z
				 M36.882813,23.57373c-0.018555,0.019531-0.043945,0.041016-0.068359,0.06543
				C36.836914,23.618652,36.861328,23.596191,36.882813,23.57373z M36.935547,23.526855
				c-0.015625,0.016602-0.033203,0.032227-0.052734,0.046875C36.902344,23.555176,36.919922,23.540527,36.935547,23.526855z
				 M36.935547,23.526855c0.006836-0.005859,0.012695-0.011719,0.019531-0.018555
				C36.948242,23.515137,36.942383,23.520996,36.935547,23.526855z M37.003906,23.462402
				c-0.00293,0.005859-0.011719,0.011719-0.018555,0.017578C36.995117,23.472168,37.000977,23.465332,37.003906,23.462402z"/>
		</g>
	</g>
</g>
<g id="nonconiferoustree_x5F_bd_4_" style="enable-background:new    ;">
	<g id="NonConiferousTree_x5F_FC_6_">
		<g id="Deleted_Symbol_2_6_">
			<path style="fill:#A9CDA6;" d="M41.521484,21.88916c0,0.318359-0.261719,0.579102-0.577148,0.579102
				c-0.104492,0-0.205078-0.035156-0.295898-0.100586c-0.075195,0.132813-0.207031,0.231445-0.356445,0.269531
				c0.00293,0.036133,0.012695,0.137695,0.036133,0.424805v0.00293c0,0.039063-0.025391,0.067383-0.058594,0.087891
				c-0.032227,0.015625-0.071289,0.026367-0.110352,0.026367c-0.032227,0-0.067383-0.009766-0.098633-0.025391
				c-0.02832-0.020508-0.050781-0.048828-0.050781-0.087891c0,0,0-0.00293,0.015625-0.431641
				c-0.114258-0.035156-0.224609-0.100586-0.308594-0.195313c-0.095703,0.103516-0.240234,0.169922-0.395508,0.169922
				c-0.299805,0-0.561523-0.260742-0.561523-0.577148c0-0.198242,0.104492-0.37793,0.263672-0.475586
				c-0.011719-0.052734-0.015625-0.105469-0.015625-0.166992c0-0.254883,0.163086-0.456055,0.395508-0.53418
				c0-0.023438,0-0.041992,0-0.072266c0-0.15918,0.058594-0.298828,0.15918-0.401367
				c0.102539-0.100586,0.242188-0.15918,0.402344-0.15918c0.289063,0,0.523438,0.207031,0.556641,0.478516
				c0.025391,0,0.051758,0,0.064453,0c0.319336,0,0.580078,0.260742,0.580078,0.560547
				c0,0.041992-0.012695,0.072266-0.015625,0.111328C41.365234,21.45459,41.521484,21.650879,41.521484,21.88916z
				 M41.326172,21.88916c0-0.163086-0.132813-0.333008-0.316406-0.365234c0,0,0,0-0.072266-0.020508l-0.025391-0.006836
				l0.005859-0.026367c0,0,0,0,0.015625-0.071289c0.020508-0.055664,0.037109-0.087891,0.037109-0.136719
				c0-0.195313-0.166016-0.364258-0.384766-0.364258c-0.033203,0-0.083984,0.00293-0.111328,0.016602h-0.001953H40.46875
				c0,0,0,0-0.104492,0.036133l-0.041992,0.014648l0.005859-0.044922c0,0,0,0,0.017578-0.103516v-0.033203
				c0-0.198242-0.164063-0.365234-0.380859-0.365234c-0.199219,0-0.365234,0.166992-0.365234,0.365234
				c0,0.036133,0,0.084961,0.012695,0.111328l0.00293,0.00293v0.005859c0,0,0,0,0.017578,0.086914l0.005859,0.033203h-0.033203
				c0,0,0,0-0.085938,0c-0.182617,0.016602-0.31543,0.182617-0.31543,0.365234c0,0.071289,0,0.117188,0.032227,0.162109v0.004883
				c0,0,0,0,0.035156,0.071289l0.016602,0.029297l-0.033203,0.005859c0,0,0,0-0.067383,0.020508
				c-0.150391,0.064453-0.231445,0.198242-0.231445,0.348633c0,0.21875,0.166016,0.381836,0.365234,0.381836
				c0.132813,0,0.248047-0.064453,0.332031-0.182617c0.00293-0.006836,0.013672-0.026367,0.051758-0.104492l0.023438-0.041992
				L39.75,22.123535c0,0,0,0,0.072266,0.108398l0.00293,0.00293c0.048828,0.133789,0.182617,0.233398,0.333008,0.233398
				c0.166992,0,0.316406-0.116211,0.349609-0.263672v-0.003906c0,0,0,0,0.035156-0.124023l0.013672-0.041992l0.033203,0.030273
				c0,0,0,0,0.087891,0.09082c0.064453,0.064453,0.166016,0.117188,0.266602,0.117188
				C41.160156,22.27002,41.326172,22.106934,41.326172,21.88916z"/>
		</g>
	</g>
</g>
<g id="nonconiferoustree_x5F_bd_5_" style="enable-background:new    ;">
	<g id="NonConiferousTree_x5F_FC_7_">
		<g id="Deleted_Symbol_2_7_">
			<path style="fill:#A9CDA6;" d="M37.097656,21.125488c0,0.318359-0.261719,0.579102-0.577148,0.579102
				c-0.104492,0-0.205078-0.035156-0.295898-0.100586c-0.075195,0.132813-0.207031,0.231445-0.356445,0.269531
				c0.00293,0.036133,0.012695,0.137695,0.036133,0.424805v0.00293c0,0.039063-0.025391,0.067383-0.058594,0.087891
				c-0.032227,0.015625-0.071289,0.026367-0.110352,0.026367c-0.032227,0-0.067383-0.009766-0.098633-0.025391
				c-0.02832-0.020508-0.050781-0.048828-0.050781-0.087891c0,0,0-0.00293,0.015625-0.431641
				c-0.114258-0.035156-0.224609-0.100586-0.308594-0.195313c-0.095703,0.103516-0.240234,0.169922-0.395508,0.169922
				c-0.299805,0-0.561523-0.260742-0.561523-0.577148c0-0.198242,0.104492-0.37793,0.263672-0.475586
				c-0.011719-0.052734-0.015625-0.105469-0.015625-0.166992c0-0.254883,0.163086-0.456055,0.395508-0.53418
				c0-0.023438,0-0.041992,0-0.072266c0-0.15918,0.058594-0.298828,0.15918-0.401367
				c0.102539-0.100586,0.242188-0.15918,0.402344-0.15918c0.289063,0,0.523438,0.207031,0.556641,0.478516
				c0.025391,0,0.051758,0,0.064453,0c0.319336,0,0.580078,0.260742,0.580078,0.560547
				c0,0.041992-0.012695,0.072266-0.015625,0.111328C36.941406,20.690918,37.097656,20.887207,37.097656,21.125488z
				 M36.902344,21.125488c0-0.163086-0.132813-0.333008-0.316406-0.365234c0,0,0,0-0.072266-0.020508l-0.025391-0.006836
				l0.005859-0.026367c0,0,0,0,0.015625-0.071289c0.020508-0.055664,0.037109-0.087891,0.037109-0.136719
				c0-0.195313-0.166016-0.364258-0.384766-0.364258c-0.033203,0-0.083984,0.00293-0.111328,0.016602h-0.001953h-0.003906
				c0,0,0,0-0.104492,0.036133l-0.041992,0.014648l0.005859-0.044922c0,0,0,0,0.017578-0.103516V20.02002
				c0-0.198242-0.164063-0.365234-0.380859-0.365234c-0.199219,0-0.365234,0.166992-0.365234,0.365234
				c0,0.036133,0,0.084961,0.012695,0.111328l0.00293,0.00293v0.005859c0,0,0,0,0.017578,0.086914l0.005859,0.033203h-0.033203
				c0,0,0,0-0.085938,0c-0.182617,0.016602-0.31543,0.182617-0.31543,0.365234c0,0.071289,0,0.117188,0.032227,0.162109v0.004883
				c0,0,0,0,0.035156,0.071289l0.016602,0.029297l-0.033203,0.005859c0,0,0,0-0.067383,0.020508
				c-0.150391,0.064453-0.231445,0.198242-0.231445,0.348633c0,0.21875,0.166016,0.381836,0.365234,0.381836
				c0.132813,0,0.248047-0.064453,0.332031-0.182617c0.00293-0.006836,0.013672-0.026367,0.051758-0.104492l0.023438-0.041992
				l0.021484,0.039063c0,0,0,0,0.072266,0.108398l0.00293,0.00293c0.048828,0.133789,0.182617,0.233398,0.333008,0.233398
				c0.166992,0,0.316406-0.116211,0.349609-0.263672v-0.003906c0,0,0,0,0.035156-0.124023l0.013672-0.041992l0.033203,0.030273
				c0,0,0,0,0.087891,0.09082c0.064453,0.064453,0.166016,0.117188,0.266602,0.117188
				C36.736328,21.506348,36.902344,21.343262,36.902344,21.125488z"/>
		</g>
	</g>
</g>
<g id="coniferoustree_x5F_bd_6_" style="enable-background:new    ;">
	<g id="ConiferousTree_x5F_FC_8_">
		<g id="Deleted_Symbol_8_">
			<path style="fill:#A9CDA6;" d="M43.655273,37.070313c-0.390625-0.071289-0.818359-0.762695-0.818359-0.762695l0.040039,1.092773
				c-0.046875,0.176758-0.291016,0.040039-0.291016,0.040039l0.024414-1.032227
				c-0.313477,0.494141-0.78418,0.693359-0.78418,0.693359c-0.142578-0.012695-0.037109-0.09375-0.037109-0.09375
				c0.731445-0.697266,0.78418-0.985352,0.78418-0.985352c0.083008-0.287109,0.056641-0.803711,0.056641-0.803711
				c-0.361328,0.522461-0.601563,0.557617-0.601563,0.557617c-0.064453,0.014648-0.089844,0-0.089844,0
				c-0.06543-0.043945,0.042969-0.140625,0.042969-0.140625c0.092773-0.078125,0.173828-0.151367,0.243164-0.223633
				c0.005859-0.005859,0.008789-0.008789,0.011719-0.012695c-0.00293,0.00293-0.006836,0.005859-0.012695,0.012695
				c0.357422-0.368164,0.398438-0.617188,0.398438-0.617188l0.083984-0.506836c0,0,0.021484-0.06543,0.040039,0l0.064453,0.533203
				c0.083984,0.257813,0.588867,0.787109,0.588867,0.787109c0.067383,0.064453-0.025391,0.0625-0.025391,0.0625
				c-0.283203-0.041992-0.543945-0.458984-0.543945-0.458984l0.038086,0.842773
				c0.132813,0.34375,0.787109,0.831055,0.787109,0.831055C43.829102,36.970703,43.655273,37.070313,43.655273,37.070313z
				 M42.003906,35.617188c-0.007813,0.005859-0.016602,0.011719-0.022461,0.018555
				C41.981445,35.635742,41.990234,35.628906,42.003906,35.617188z M42.083984,35.541992
				c-0.03125,0.02832-0.0625,0.056641-0.080078,0.075195C42.033203,35.588867,42.05957,35.564453,42.083984,35.541992z
				 M42.152344,35.476563c-0.018555,0.019531-0.043945,0.041016-0.068359,0.06543
				C42.106445,35.521484,42.130859,35.499023,42.152344,35.476563z M42.205078,35.429688
				c-0.015625,0.016602-0.033203,0.032227-0.052734,0.046875C42.171875,35.458008,42.189453,35.443359,42.205078,35.429688z
				 M42.205078,35.429688c0.006836-0.005859,0.012695-0.011719,0.019531-0.018555
				C42.217773,35.417969,42.211914,35.423828,42.205078,35.429688z M42.273438,35.365234
				c-0.00293,0.005859-0.011719,0.011719-0.018555,0.017578C42.264648,35.375,42.270508,35.368164,42.273438,35.365234z"/>
		</g>
	</g>
</g>
<g id="nonconiferoustree_x5F_bd_6_" style="enable-background:new    ;">
	<g id="NonConiferousTree_x5F_FC_8_">
		<g id="Deleted_Symbol_2_8_">
			<path style="fill:#A9CDA6;" d="M46.789063,33.791992c0,0.318359-0.261719,0.579102-0.577148,0.579102
				c-0.104492,0-0.205078-0.035156-0.295898-0.100586c-0.075195,0.132813-0.207031,0.231445-0.356445,0.269531
				c0.00293,0.036133,0.012695,0.137695,0.036133,0.424805v0.00293c0,0.039063-0.025391,0.067383-0.058594,0.087891
				c-0.032227,0.015625-0.071289,0.026367-0.110352,0.026367c-0.032227,0-0.067383-0.009766-0.098633-0.025391
				c-0.02832-0.020508-0.050781-0.048828-0.050781-0.087891c0,0,0-0.00293,0.015625-0.431641
				c-0.114258-0.035156-0.224609-0.100586-0.308594-0.195313c-0.095703,0.103516-0.240234,0.169922-0.395508,0.169922
				c-0.299805,0-0.561523-0.260742-0.561523-0.577148c0-0.198242,0.104492-0.37793,0.263672-0.475586
				c-0.011719-0.052734-0.015625-0.105469-0.015625-0.166992c0-0.254883,0.163086-0.456055,0.395508-0.53418
				c0-0.023438,0-0.041992,0-0.072266c0-0.15918,0.058594-0.298828,0.15918-0.401367
				c0.102539-0.100586,0.242188-0.15918,0.402344-0.15918c0.289063,0,0.523438,0.207031,0.556641,0.478516
				c0.025391,0,0.051758,0,0.064453,0c0.319336,0,0.580078,0.260742,0.580078,0.560547
				c0,0.041992-0.012695,0.072266-0.015625,0.111328C46.632813,33.357422,46.789063,33.553711,46.789063,33.791992z
				 M46.59375,33.791992c0-0.163086-0.132813-0.333008-0.316406-0.365234c0,0,0,0-0.072266-0.020508l-0.025391-0.006836
				l0.005859-0.026367c0,0,0,0,0.015625-0.071289c0.020508-0.055664,0.037109-0.087891,0.037109-0.136719
				c0-0.195313-0.166016-0.364258-0.384766-0.364258c-0.033203,0-0.083984,0.00293-0.111328,0.016602h-0.001953h-0.003906
				c0,0,0,0-0.104492,0.036133l-0.041992,0.014648l0.005859-0.044922c0,0,0,0,0.017578-0.103516v-0.033203
				c0-0.198242-0.164063-0.365234-0.380859-0.365234c-0.199219,0-0.365234,0.166992-0.365234,0.365234
				c0,0.036133,0,0.084961,0.012695,0.111328l0.00293,0.00293v0.005859c0,0,0,0,0.017578,0.086914l0.005859,0.033203h-0.033203
				c0,0,0,0-0.085938,0c-0.182617,0.016602-0.31543,0.182617-0.31543,0.365234c0,0.071289,0,0.117188,0.032227,0.162109v0.004883
				c0,0,0,0,0.035156,0.071289l0.016602,0.029297l-0.033203,0.005859c0,0,0,0-0.067383,0.020508
				c-0.150391,0.064453-0.231445,0.198242-0.231445,0.348633c0,0.21875,0.166016,0.381836,0.365234,0.381836
				c0.132813,0,0.248047-0.064453,0.332031-0.182617c0.00293-0.006836,0.013672-0.026367,0.051758-0.104492l0.023438-0.041992
				l0.021484,0.039063c0,0,0,0,0.072266,0.108398l0.00293,0.00293c0.048828,0.133789,0.182617,0.233398,0.333008,0.233398
				c0.166992,0,0.316406-0.116211,0.349609-0.263672v-0.003906c0,0,0,0,0.035156-0.124023l0.013672-0.041992l0.033203,0.030273
				c0,0,0,0,0.087891,0.09082c0.064453,0.064453,0.166016,0.117188,0.266602,0.117188
				C46.427734,34.172852,46.59375,34.009766,46.59375,33.791992z"/>
		</g>
	</g>
</g>
<g id="coniferoustree_x5F_bd_7_" style="enable-background:new    ;">
	<g id="ConiferousTree_x5F_FC_9_">
		<g id="Deleted_Symbol_9_">
			<path style="fill:#A9CDA6;" d="M41.899414,34.035156c-0.390625-0.071289-0.818359-0.762695-0.818359-0.762695l0.040039,1.092773
				c-0.046875,0.176758-0.291016,0.040039-0.291016,0.040039l0.024414-1.032227
				c-0.313477,0.494141-0.78418,0.693359-0.78418,0.693359c-0.142578-0.012695-0.037109-0.09375-0.037109-0.09375
				c0.731445-0.697266,0.78418-0.985352,0.78418-0.985352c0.083008-0.287109,0.056641-0.803711,0.056641-0.803711
				c-0.361328,0.522461-0.601563,0.557617-0.601563,0.557617c-0.064453,0.014648-0.089844,0-0.089844,0
				c-0.06543-0.043945,0.042969-0.140625,0.042969-0.140625c0.092773-0.078125,0.173828-0.151367,0.243164-0.223633
				c0.005859-0.005859,0.008789-0.008789,0.011719-0.012695c-0.00293,0.00293-0.006836,0.005859-0.012695,0.012695
				c0.357422-0.368164,0.398438-0.617188,0.398438-0.617188l0.083984-0.506836c0,0,0.021484-0.06543,0.040039,0l0.064453,0.533203
				c0.083984,0.257813,0.588867,0.787109,0.588867,0.787109c0.067383,0.064453-0.025391,0.0625-0.025391,0.0625
				c-0.283203-0.041992-0.543945-0.458984-0.543945-0.458984l0.038086,0.842773
				c0.132813,0.34375,0.787109,0.831055,0.787109,0.831055C42.073242,33.935547,41.899414,34.035156,41.899414,34.035156z
				 M40.248047,32.582031c-0.007813,0.005859-0.016602,0.011719-0.022461,0.018555
				C40.225586,32.600586,40.234375,32.59375,40.248047,32.582031z M40.328125,32.506836
				c-0.03125,0.02832-0.0625,0.056641-0.080078,0.075195C40.277344,32.553711,40.303711,32.529297,40.328125,32.506836z
				 M40.396484,32.441406c-0.018555,0.019531-0.043945,0.041016-0.068359,0.06543
				C40.350586,32.486328,40.375,32.463867,40.396484,32.441406z M40.449219,32.394531
				c-0.015625,0.016602-0.033203,0.032227-0.052734,0.046875C40.416016,32.422852,40.433594,32.408203,40.449219,32.394531z
				 M40.449219,32.394531c0.006836-0.005859,0.012695-0.011719,0.019531-0.018555
				C40.461914,32.382813,40.456055,32.388672,40.449219,32.394531z M40.517578,32.330078
				c-0.00293,0.005859-0.011719,0.011719-0.018555,0.017578C40.508789,32.339844,40.514648,32.333008,40.517578,32.330078z"/>
		</g>
	</g>
</g>
<g id="coniferoustree_x5F_bd_8_" style="enable-background:new    ;">
	<g id="ConiferousTree_x5F_FC_10_">
		<g id="Deleted_Symbol_10_">
			<path style="fill:#A9CDA6;" d="M30.624023,47.671875c-0.390625-0.071289-0.818359-0.762695-0.818359-0.762695l0.040039,1.092773
				c-0.046875,0.176758-0.291016,0.040039-0.291016,0.040039l0.024414-1.032227
				c-0.313477,0.494141-0.78418,0.693359-0.78418,0.693359c-0.142578-0.012695-0.037109-0.09375-0.037109-0.09375
				c0.731445-0.697266,0.78418-0.985352,0.78418-0.985352c0.083008-0.287109,0.056641-0.803711,0.056641-0.803711
				c-0.361328,0.522461-0.601563,0.557617-0.601563,0.557617c-0.064453,0.014648-0.089844,0-0.089844,0
				c-0.06543-0.043945,0.042969-0.140625,0.042969-0.140625c0.092773-0.078125,0.173828-0.151367,0.243164-0.223633
				c0.005859-0.005859,0.008789-0.008789,0.011719-0.012695c-0.00293,0.00293-0.006836,0.005859-0.012695,0.012695
				c0.357422-0.368164,0.398438-0.617188,0.398438-0.617188l0.083984-0.506836c0,0,0.021484-0.06543,0.040039,0l0.064453,0.533203
				c0.083984,0.257813,0.588867,0.787109,0.588867,0.787109c0.067383,0.064453-0.025391,0.0625-0.025391,0.0625
				c-0.283203-0.041992-0.543945-0.458984-0.543945-0.458984l0.038086,0.842773
				c0.132813,0.34375,0.787109,0.831055,0.787109,0.831055C30.797852,47.572266,30.624023,47.671875,30.624023,47.671875z
				 M28.972656,46.21875c-0.007813,0.005859-0.016602,0.011719-0.022461,0.018555
				C28.950195,46.237305,28.958984,46.230469,28.972656,46.21875z M29.052734,46.143555
				c-0.03125,0.02832-0.0625,0.056641-0.080078,0.075195C29.001953,46.19043,29.02832,46.166016,29.052734,46.143555z
				 M29.121094,46.078125c-0.018555,0.019531-0.043945,0.041016-0.068359,0.06543
				C29.075195,46.123047,29.099609,46.100586,29.121094,46.078125z M29.173828,46.03125
				c-0.015625,0.016602-0.033203,0.032227-0.052734,0.046875C29.140625,46.05957,29.158203,46.044922,29.173828,46.03125z
				 M29.173828,46.03125c0.006836-0.005859,0.012695-0.011719,0.019531-0.018555
				C29.186523,46.019531,29.180664,46.025391,29.173828,46.03125z M29.242188,45.966797
				c-0.00293,0.005859-0.011719,0.011719-0.018555,0.017578C29.233398,45.976563,29.239258,45.969727,29.242188,45.966797z"/>
		</g>
	</g>
</g>
<g id="nonconiferoustree_x5F_bd_7_" style="enable-background:new    ;">
	<g id="NonConiferousTree_x5F_FC_9_">
		<g id="Deleted_Symbol_2_9_">
			<path style="fill:#A9CDA6;" d="M33.759766,44.393555c0,0.318359-0.261719,0.579102-0.577148,0.579102
				c-0.104492,0-0.205078-0.035156-0.295898-0.100586c-0.075195,0.132813-0.207031,0.231445-0.356445,0.269531
				c0.00293,0.036133,0.012695,0.137695,0.036133,0.424805v0.00293c0,0.039063-0.025391,0.067383-0.058594,0.087891
				c-0.032227,0.015625-0.071289,0.026367-0.110352,0.026367c-0.032227,0-0.067383-0.009766-0.098633-0.025391
				c-0.02832-0.020508-0.050781-0.048828-0.050781-0.087891c0,0,0-0.00293,0.015625-0.431641
				c-0.114258-0.035156-0.224609-0.100586-0.308594-0.195313c-0.095703,0.103516-0.240234,0.169922-0.395508,0.169922
				c-0.299805,0-0.561523-0.260742-0.561523-0.577148c0-0.198242,0.104492-0.37793,0.263672-0.475586
				c-0.011719-0.052734-0.015625-0.105469-0.015625-0.166992c0-0.254883,0.163086-0.456055,0.395508-0.53418
				c0-0.023438,0-0.041992,0-0.072266c0-0.15918,0.058594-0.298828,0.15918-0.401367
				c0.102539-0.100586,0.242188-0.15918,0.402344-0.15918c0.289063,0,0.523438,0.207031,0.556641,0.478516
				c0.025391,0,0.051758,0,0.064453,0c0.319336,0,0.580078,0.260742,0.580078,0.560547
				c0,0.041992-0.012695,0.072266-0.015625,0.111328C33.603516,43.958984,33.759766,44.155273,33.759766,44.393555z
				 M33.564453,44.393555c0-0.163086-0.132813-0.333008-0.316406-0.365234c0,0,0,0-0.072266-0.020508l-0.025391-0.006836
				l0.005859-0.026367c0,0,0,0,0.015625-0.071289c0.020508-0.055664,0.037109-0.087891,0.037109-0.136719
				c0-0.195313-0.166016-0.364258-0.384766-0.364258c-0.033203,0-0.083984,0.00293-0.111328,0.016602h-0.001953h-0.003906
				c0,0,0,0-0.104492,0.036133l-0.041992,0.014648l0.005859-0.044922c0,0,0,0,0.017578-0.103516v-0.033203
				c0-0.198242-0.164063-0.365234-0.380859-0.365234c-0.199219,0-0.365234,0.166992-0.365234,0.365234
				c0,0.036133,0,0.084961,0.012695,0.111328l0.00293,0.00293v0.005859c0,0,0,0,0.017578,0.086914l0.005859,0.033203H31.84375
				c0,0,0,0-0.085938,0c-0.182617,0.016602-0.31543,0.182617-0.31543,0.365234c0,0.071289,0,0.117188,0.032227,0.162109v0.004883
				c0,0,0,0,0.035156,0.071289l0.016602,0.029297l-0.033203,0.005859c0,0,0,0-0.067383,0.020508
				c-0.150391,0.064453-0.231445,0.198242-0.231445,0.348633c0,0.21875,0.166016,0.381836,0.365234,0.381836
				c0.132813,0,0.248047-0.064453,0.332031-0.182617c0.00293-0.006836,0.013672-0.026367,0.051758-0.104492l0.023438-0.041992
				l0.021484,0.039063c0,0,0,0,0.072266,0.108398l0.00293,0.00293c0.048828,0.133789,0.182617,0.233398,0.333008,0.233398
				c0.166992,0,0.316406-0.116211,0.349609-0.263672v-0.003906c0,0,0,0,0.035156-0.124023l0.013672-0.041992l0.033203,0.030273
				c0,0,0,0,0.087891,0.09082c0.064453,0.064453,0.166016,0.117188,0.266602,0.117188
				C33.398438,44.774414,33.564453,44.611328,33.564453,44.393555z"/>
		</g>
	</g>
</g>
<g id="coniferoustree_x5F_bd_9_" style="enable-background:new    ;">
	<g id="ConiferousTree_x5F_FC_11_">
		<g id="Deleted_Symbol_11_">
			<path style="fill:#A9CDA6;" d="M28.868164,44.636719c-0.390625-0.071289-0.818359-0.762695-0.818359-0.762695l0.040039,1.092773
				c-0.046875,0.176758-0.291016,0.040039-0.291016,0.040039l0.024414-1.032227
				c-0.313477,0.494141-0.78418,0.693359-0.78418,0.693359c-0.142578-0.012695-0.037109-0.09375-0.037109-0.09375
				c0.731445-0.697266,0.78418-0.985352,0.78418-0.985352c0.083008-0.287109,0.056641-0.803711,0.056641-0.803711
				c-0.361328,0.522461-0.601563,0.557617-0.601563,0.557617c-0.064453,0.014648-0.089844,0-0.089844,0
				c-0.06543-0.043945,0.042969-0.140625,0.042969-0.140625c0.092773-0.078125,0.173828-0.151367,0.243164-0.223633
				c0.005859-0.005859,0.008789-0.008789,0.011719-0.012695c-0.00293,0.00293-0.006836,0.005859-0.012695,0.012695
				c0.357422-0.368164,0.398438-0.617188,0.398438-0.617188l0.083984-0.506836c0,0,0.021484-0.06543,0.040039,0l0.064453,0.533203
				c0.083984,0.257813,0.588867,0.787109,0.588867,0.787109c0.067383,0.064453-0.025391,0.0625-0.025391,0.0625
				c-0.283203-0.041992-0.543945-0.458984-0.543945-0.458984l0.038086,0.842773
				c0.132813,0.34375,0.787109,0.831055,0.787109,0.831055C29.041992,44.537109,28.868164,44.636719,28.868164,44.636719z
				 M27.216797,43.183594c-0.007813,0.005859-0.016602,0.011719-0.022461,0.018555
				C27.194336,43.202148,27.203125,43.195313,27.216797,43.183594z M27.296875,43.108398
				c-0.03125,0.02832-0.0625,0.056641-0.080078,0.075195C27.246094,43.155273,27.272461,43.130859,27.296875,43.108398z
				 M27.365234,43.042969c-0.018555,0.019531-0.043945,0.041016-0.068359,0.06543
				C27.319336,43.087891,27.34375,43.06543,27.365234,43.042969z M27.417969,42.996094
				c-0.015625,0.016602-0.033203,0.032227-0.052734,0.046875C27.384766,43.024414,27.402344,43.009766,27.417969,42.996094z
				 M27.417969,42.996094c0.006836-0.005859,0.012695-0.011719,0.019531-0.018555
				C27.430664,42.984375,27.424805,42.990234,27.417969,42.996094z M27.486328,42.931641
				c-0.00293,0.005859-0.011719,0.011719-0.018555,0.017578C27.477539,42.941406,27.483398,42.93457,27.486328,42.931641z"/>
		</g>
	</g>
</g>
<g id="coniferoustree_x5F_bd_11_" style="enable-background:new    ;">
	<g id="ConiferousTree_x5F_FC_13_">
		<g id="Deleted_Symbol_13_">
			<path style="fill:#A9CDA6;" d="M6.848633,49.085938c-0.390137-0.071289-0.817871-0.762695-0.817871-0.762695l0.040039,1.092773
				c-0.047363,0.176758-0.291992,0.040039-0.291992,0.040039l0.024902-1.032227
				c-0.313965,0.494141-0.78418,0.693359-0.78418,0.693359c-0.142578-0.012695-0.036621-0.09375-0.036621-0.09375
				c0.730469-0.697266,0.783691-0.985352,0.783691-0.985352c0.083008-0.287109,0.056152-0.803711,0.056152-0.803711
				c-0.361328,0.522461-0.601074,0.557617-0.601074,0.557617c-0.064941,0.014648-0.090332,0-0.090332,0
				c-0.064941-0.043945,0.043457-0.140625,0.043457-0.140625C5.267578,47.573242,5.348633,47.5,5.41748,47.427734
				c0.005859-0.005859,0.009277-0.008789,0.012207-0.012695c-0.00293,0.00293-0.007324,0.005859-0.013184,0.012695
				c0.35791-0.368164,0.398926-0.617188,0.398926-0.617188l0.083984-0.506836c0,0,0.020996-0.06543,0.040039,0l0.064941,0.533203
				c0.083984,0.257813,0.588379,0.787109,0.588379,0.787109c0.067871,0.064453-0.025391,0.0625-0.025391,0.0625
				c-0.282715-0.041992-0.543945-0.458984-0.543945-0.458984l0.038086,0.842773
				c0.132813,0.34375,0.787109,0.831055,0.787109,0.831055C7.021973,48.986328,6.848633,49.085938,6.848633,49.085938z
				 M5.196777,47.632813c-0.007324,0.005859-0.016113,0.011719-0.021973,0.018555
				C5.174805,47.651367,5.183594,47.644531,5.196777,47.632813z M5.277344,47.557617
				c-0.031738,0.02832-0.062988,0.056641-0.080566,0.075195C5.226563,47.604492,5.252441,47.580078,5.277344,47.557617z
				 M5.345703,47.492188c-0.019043,0.019531-0.043945,0.041016-0.068359,0.06543
				C5.299805,47.537109,5.32373,47.514648,5.345703,47.492188z M5.398438,47.445313
				c-0.015625,0.016602-0.033691,0.032227-0.052734,0.046875C5.364746,47.473633,5.382813,47.458984,5.398438,47.445313z
				 M5.398438,47.445313c0.006348-0.005859,0.012207-0.011719,0.019043-0.018555
				C5.410645,47.433594,5.404785,47.439453,5.398438,47.445313z M5.466797,47.380859
				c-0.003418,0.005859-0.012207,0.011719-0.019043,0.017578C5.45752,47.390625,5.463379,47.383789,5.466797,47.380859z"/>
		</g>
	</g>
</g>
<g id="nonconiferoustree_x5F_bd_10_" style="enable-background:new    ;">
	<g id="NonConiferousTree_x5F_FC_12_">
		<g id="Deleted_Symbol_2_12_">
			<path style="fill:#A9CDA6;" d="M9.983887,45.807617c0,0.318359-0.260742,0.579102-0.57666,0.579102
				c-0.104004,0-0.205078-0.035156-0.296387-0.100586c-0.074707,0.132813-0.206055,0.231445-0.355957,0.269531
				c0.00293,0.036133,0.013184,0.137695,0.036133,0.424805v0.00293c0,0.039063-0.025879,0.067383-0.058105,0.087891
				c-0.032715,0.015625-0.071777,0.026367-0.11084,0.026367c-0.032227,0-0.067871-0.009766-0.098145-0.025391
				c-0.028809-0.020508-0.051758-0.048828-0.051758-0.087891c0,0,0-0.00293,0.015625-0.431641
				c-0.11377-0.035156-0.224609-0.100586-0.308594-0.195313c-0.095215,0.103516-0.239258,0.169922-0.39502,0.169922
				c-0.300293,0-0.561035-0.260742-0.561035-0.577148c0-0.198242,0.104004-0.37793,0.263672-0.475586
				c-0.012695-0.052734-0.015625-0.105469-0.015625-0.166992c0-0.254883,0.162598-0.456055,0.39502-0.53418
				c0-0.023438,0-0.041992,0-0.072266c0-0.15918,0.058594-0.298828,0.159668-0.401367
				c0.102051-0.100586,0.242188-0.15918,0.401367-0.15918c0.289551,0,0.523926,0.207031,0.556641,0.478516
				c0.025879,0,0.052246,0,0.064941,0c0.319336,0,0.580078,0.260742,0.580078,0.560547
				c0,0.041992-0.012695,0.072266-0.016113,0.111328C9.828125,45.373047,9.983887,45.569336,9.983887,45.807617z
				 M9.789063,45.807617c0-0.163086-0.133301-0.333008-0.315918-0.365234c0,0,0,0-0.072266-0.020508L9.375,45.415039
				l0.005859-0.026367c0,0,0,0,0.016113-0.071289c0.02002-0.055664,0.037109-0.087891,0.037109-0.136719
				c0-0.195313-0.166992-0.364258-0.385254-0.364258c-0.032715,0-0.083984,0.00293-0.11084,0.016602h-0.00293H8.931152
				c0,0,0,0-0.104004,0.036133l-0.041992,0.014648l0.005859-0.044922c0,0,0,0,0.01709-0.103516v-0.033203
				c0-0.198242-0.163086-0.365234-0.380859-0.365234c-0.199219,0-0.365234,0.166992-0.365234,0.365234
				c0,0.036133,0,0.084961,0.013184,0.111328l0.00293,0.00293v0.005859c0,0,0,0,0.01709,0.086914l0.005859,0.033203H8.067871
				c0,0,0,0-0.084961,0C7.799805,44.958984,7.666992,45.125,7.666992,45.307617c0,0.071289,0,0.117188,0.032227,0.162109v0.004883
				c0,0,0,0,0.035645,0.071289l0.016113,0.029297l-0.033203,0.005859c0,0,0,0-0.067871,0.020508
				C7.5,45.666016,7.418945,45.799805,7.418945,45.950195c0,0.21875,0.166016,0.381836,0.365234,0.381836
				c0.132813,0,0.248047-0.064453,0.332031-0.182617c0.00293-0.006836,0.013672-0.026367,0.051758-0.104492l0.022949-0.041992
				l0.021973,0.039063c0,0,0,0,0.072266,0.108398l0.00293,0.00293c0.048828,0.133789,0.183105,0.233398,0.333008,0.233398
				c0.166992,0,0.315918-0.116211,0.349121-0.263672v-0.003906c0,0,0,0,0.035645-0.124023l0.013184-0.041992l0.033203,0.030273
				c0,0,0,0,0.087891,0.09082c0.064941,0.064453,0.166016,0.117188,0.26709,0.117188
				C9.623047,46.188477,9.789063,46.025391,9.789063,45.807617z"/>
		</g>
	</g>
</g>
<g id="coniferoustree_x5F_bd_12_" style="enable-background:new    ;">
	<g id="ConiferousTree_x5F_FC_14_">
		<g id="Deleted_Symbol_14_">
			<path style="fill:#A9CDA6;" d="M5.09375,46.050781c-0.390137-0.071289-0.817871-0.762695-0.817871-0.762695l0.040039,1.092773
				c-0.047363,0.176758-0.291992,0.040039-0.291992,0.040039l0.024902-1.032227
				c-0.313965,0.494141-0.78418,0.693359-0.78418,0.693359c-0.142578-0.012695-0.036621-0.09375-0.036621-0.09375
				c0.730469-0.697266,0.783691-0.985352,0.783691-0.985352c0.083008-0.287109,0.056152-0.803711,0.056152-0.803711
				c-0.361328,0.522461-0.601074,0.557617-0.601074,0.557617c-0.064941,0.014648-0.090332,0-0.090332,0
				c-0.064941-0.043945,0.043457-0.140625,0.043457-0.140625c0.092773-0.078125,0.173828-0.151367,0.242676-0.223633
				c0.005859-0.005859,0.009277-0.008789,0.012207-0.012695c-0.00293,0.00293-0.007324,0.005859-0.013184,0.012695
				c0.35791-0.368164,0.398926-0.617188,0.398926-0.617188l0.083984-0.506836c0,0,0.020996-0.06543,0.040039,0l0.064941,0.533203
				c0.083984,0.257813,0.588379,0.787109,0.588379,0.787109c0.067871,0.064453-0.025391,0.0625-0.025391,0.0625
				c-0.282715-0.041992-0.543945-0.458984-0.543945-0.458984l0.038086,0.842773
				c0.132813,0.34375,0.787109,0.831055,0.787109,0.831055C5.26709,45.951172,5.09375,46.050781,5.09375,46.050781z
				 M3.441895,44.597656c-0.007324,0.005859-0.016113,0.011719-0.021973,0.018555
				C3.419922,44.616211,3.428711,44.609375,3.441895,44.597656z M3.522461,44.522461
				c-0.031738,0.02832-0.062988,0.056641-0.080566,0.075195C3.47168,44.569336,3.497559,44.544922,3.522461,44.522461z
				 M3.59082,44.457031c-0.019043,0.019531-0.043945,0.041016-0.068359,0.06543
				C3.544922,44.501953,3.568848,44.479492,3.59082,44.457031z M3.643555,44.410156
				c-0.015625,0.016602-0.033691,0.032227-0.052734,0.046875C3.609863,44.438477,3.62793,44.423828,3.643555,44.410156z
				 M3.643555,44.410156c0.006348-0.005859,0.012207-0.011719,0.019043-0.018555
				C3.655762,44.398438,3.649902,44.404297,3.643555,44.410156z M3.711914,44.345703
				c-0.003418,0.005859-0.012207,0.011719-0.019043,0.017578C3.702637,44.355469,3.708496,44.348633,3.711914,44.345703z"/>
		</g>
	</g>
</g>
</svg>
