<?xml version="1.0" encoding="utf-8"?>
<!-- Generator: Adobe Illustrator 16.0.3, SVG Export Plug-In . SVG Version: 6.00 Build 0)  -->
<!DOCTYPE svg PUBLIC "-//W3C//DTD SVG 1.1//EN" "http://www.w3.org/Graphics/SVG/1.1/DTD/svg11.dtd">
<svg version="1.1" id="Layer_1" xmlns="http://www.w3.org/2000/svg" xmlns:xlink="http://www.w3.org/1999/xlink" x="0px" y="0px"
	 width="7.625px" height="7.1465px" viewBox="0 0 7.625 7.1465" style="enable-background:new 0 0 7.625 7.1465;"
	 xml:space="preserve">
<g id="Layer_3">
</g>
<g>
	<path style="fill:#9A9A90;" d="M7.2852,3.4155c0,0.4805-0.2988,1.9233-0.334,2.0854C6.9199,5.6494,6.834,5.7998,6.7031,5.7998
		c-0.0195,0-0.0762-0.0547-0.0957-0.0605C6.457,5.6982,6.416,5.249,6.4492,5.0811c0.0625-0.2773,0.1074-0.1875,0.168-0.5254
		L6.4707,4.3135C6.3789,4.2588,6.3633,4.0908,6.416,3.9917c0.0508-0.1055,0.1465-0.1055,0.2363-0.0498L6.7188,3.77
		c0.0352-0.2275-0.0039-0.2471-0.0039-0.3525c0-0.168-0.0313-0.3086-0.0547-0.4102C6.3613,3.0376,6.084,3.0933,6.002,3.144
		c-0.248,0.252-0.5313,0.0195-0.6367-0.0674c-0.0156-0.0088-0.0352-0.0283-0.0508-0.04C5.2598,3.0874,5.2285,3.1284,5.1777,3.1938
		C5.1289,3.2593,5.0605,3.3394,4.9551,3.4624C4.9102,3.5112,4.9297,3.6831,4.9766,3.8296l0.0449,0.127
		c0.0566,0.1616,0.0449,0.3979-0.0957,0.4683C4.7852,4.4971,4.7031,4.3955,4.6387,4.2432C4.6289,4.2217,4.4453,4.062,4.4219,3.9761
		L4.3242,3.5767C4.2495,3.3315,4.0874,3.1284,4.0225,3.0679c-0.0859-0.041-0.1509-0.1113-0.2183-0.1768
		C3.6484,2.7349,3.5835,2.6694,3.2856,3.0015c-0.2944,0.334-0.4902,0.8848-0.5215,1.4897C2.7593,4.667,2.5186,5.3232,2.3613,5.3135
		C2.2046,5.3096,2.2393,5.167,2.2456,4.9893c0.0039-0.1094,0.1509-1.4019,0.1606-1.4819L1.8052,2.8052L1.5234,2.9116l0.1909,0.5898
		c0.0259,0.0752,0.0103,0.1563-0.04,0.2168l-0.293,0.3589c-0.0361,0.0449-0.0908,0-0.1421,0c-0.0449,0-0.0908,0.0508-0.126,0.0156
		C1.0322,4.0132,1.0273,3.8765,1.1035,3.7905l0.2891-0.334L1.1245,3.0581l-0.6973,0.252C0.2754,3.3657,0.1196,3.2749,0.0684,3.1079
		C0.0186,2.937,0.4663,2.7036,0.6133,2.6489L1.5674,2.27c0.0771-0.0313,0.3892-0.1572,0.46-0.1113l0.1211,0.0752
		c0.0361,0.0215,0.0811,0.2285,0.207,0.4697l0.3027,0.208c0.1162-0.0762,0.1372-0.2627,0.2222-0.3584
		C3.5625,1.7847,4.0024,2.23,4.188,2.4165c0.0254,0.0244,0.0566,0.0605,0.0718,0.0703C4.4043,2.5532,4.5313,2.729,4.6289,2.9214
		C4.6777,2.8599,4.7148,2.8159,4.75,2.7749c0.0742-0.0957,0.1348-0.1816,0.2754-0.3027C5.3027,2.2349,5.582,2.4624,5.7031,2.563
		C5.709,2.5679,5.7188,2.5776,5.7285,2.5835c0.252-0.1465,0.6016-0.2383,0.9746-0.2637c0.1016-0.0049,0.3184,0.085,0.375,0.1826
		C7.0977,2.5366,7.2852,2.8813,7.2852,3.4155z"/>
</g>
</svg>
