<?xml version="1.0" encoding="utf-8"?>
<!-- Generator: Adobe Illustrator 16.0.3, SVG Export Plug-In . SVG Version: 6.00 Build 0)  -->
<!DOCTYPE svg PUBLIC "-//W3C//DTD SVG 1.1//EN" "http://www.w3.org/Graphics/SVG/1.1/DTD/svg11.dtd">
<svg version="1.1" id="Layer_1" xmlns="http://www.w3.org/2000/svg" xmlns:xlink="http://www.w3.org/1999/xlink" x="0px" y="0px"
	 width="12.0039px" height="12.0078px" viewBox="0 0 12.0039 12.0078" style="enable-background:new 0 0 12.0039 12.0078;"
	 xml:space="preserve">
<polygon style="fill:#FFFFFF;" points="0.8721,5.229 6.7949,6.7793 11.167,4.647 5.7549,3.7651 "/>
<g style="enable-background:new    ;">
	<path style="fill:#2837C6;" d="M10.3203,5.4302c0.082,0.1616,0.041,0.2827,0.0205,0.4448c0,0-0.0205,0.1021-0.0205,0.2021
		c-0.0215,0.1216,0,0.2637,0.041,0.4658c0.1416,0.0605,0.2422,0.2021,0.2422,0.3633c0,0.0625-0.0215,0.1016-0.0215,0.1621
		c0.1621,0.4863,0.3438,1.1738-0.0625,1.5371l-0.543,0.041C9.5313,8.4844,9.6133,8,9.6934,7.6367
		c0.0205-0.1836,0.1016-0.4063,0.1621-0.5684c-0.0205-0.0605-0.041-0.0996-0.041-0.1621c0-0.1406,0.082-0.2637,0.1826-0.3232
		c-0.04-0.2632-0.0615-0.5459,0-0.769c0.0205-0.1021,0.0205-0.1421-0.0205-0.2432L8.54,6.2388
		c0.0205,0.1021,0.0205,0.2432,0.04,0.4663c0.041,0.3633,0.1016,0.9102,0.041,1.2539C7.2852,9.2539,4.959,8.8906,3.563,7.8984
		C3.4009,7.4531,3.522,6.583,3.644,6.1987L0.6899,5.4102L0.71,5.248L0.3052,5.146L5.748,3.6489l5.9883,0.9102l-0.3027,0.1431
		l0.0801,0.2017L10.3203,5.4302z M10.8867,4.6821L5.748,3.8931L1.2559,5.146l5.5039,1.437l2.5488-1.1929l-0.3242-0.021
		c-0.3633-0.02-0.748-0.0811-1.0918-0.2231c-0.1211-0.02-0.3447-0.061-0.4844-0.1211l-0.0215-0.02
		c-0.0391,0.021-0.1211,0.021-0.2627,0.021c-0.2832,0.04-0.7891,0.04-1.0522-0.0811C5.8291,4.7632,5.8701,4.6611,6.1929,4.6211
		c0,0,0.061,0.02,0.2021,0.04c0.1616,0.021,0.3843,0.041,0.688,0.021c0.1211,0,0.3623-0.061,0.4834,0.021
		c0.1025,0.061,0.3057,0.0801,0.4268,0.1011c0,0,0.1201,0.0605,0.2822,0.1016c0.1826,0.04,0.4258,0.1011,0.7285,0.1211
		c0,0,0.627,0.04,0.9727,0.061L10.8867,4.6821z"/>
</g>
</svg>
