<?xml version="1.0" encoding="utf-8"?>
<!-- Generator: Adobe Illustrator 16.0.3, SVG Export Plug-In . SVG Version: 6.00 Build 0)  -->
<!DOCTYPE svg PUBLIC "-//W3C//DTD SVG 1.1//EN" "http://www.w3.org/Graphics/SVG/1.1/DTD/svg11.dtd" [
	<!ENTITY st0 "fill:#6BBE66;">
]>
<svg version="1.1" id="Layer_1" xmlns="http://www.w3.org/2000/svg" xmlns:xlink="http://www.w3.org/1999/xlink" x="0px" y="0px"
	 width="50px" height="50px" viewBox="0 0 50 50" style="enable-background:new 0 0 50 50;" xml:space="preserve">
<g>
	<g id="Deleted_Symbol_8_30_">
		<g id="Deleted_Symbol_4_30_">
			<path style="&st0;" d="M3.305664,4.795898C3.162598,4.791992,3.122559,4.695313,3.121582,4.691406l0.039063-0.449219
				C3.048828,4.264648,2.966797,4.264648,2.861816,4.264648c-0.166504,0-0.29541-0.039063-0.338379-0.050781
				C2.157227,4.09668,2.116211,3.722168,2.143066,3.540527C2.22998,3.205566,2.464355,3.063965,2.596191,3.009766
				c-0.033203-0.333984,0.168945-0.5625,0.294434-0.646484c0.115234-0.083008,0.248047-0.125,0.39502-0.125
				c0.183105,0,0.333008,0.070313,0.388184,0.100586C4.010254,2.550781,3.99707,2.871094,3.976074,3
				c0.229004,0.086426,0.310059,0.156738,0.338379,0.202637C4.594238,3.521973,4.434082,3.88916,4.311035,4.039063
				C4.161133,4.177734,3.960449,4.245117,3.72168,4.245117c-0.11377,0-0.194824-0.005859-0.253906-0.018555L3.48877,4.702148
				c-0.044922,0.083984-0.132813,0.09375-0.167969,0.09375H3.305664z M3.284668,2.464844
				c-0.101074,0-0.187988,0.027344-0.270996,0.083984C3.011719,2.550781,2.745117,2.731445,2.839844,3.046387
				c0.010742,0.032227,0.006836,0.064453-0.01123,0.09082C2.813965,3.164551,2.78418,3.185059,2.757324,3.187988
				C2.682129,3.210449,2.441406,3.297363,2.366211,3.580566c-0.008789,0.104492-0.005859,0.349609,0.21582,0.418945
				c0.05127,0.01416,0.149414,0.043457,0.279785,0.043457L2.95166,4.043945c0.067871,0,0.138184-0.004883,0.188965-0.05127
				c0.055176-0.048828,0.141113-0.068359,0.14209-0.068359c0.087891,0.005859,0.143066,0.048828,0.164063,0.063477
				c0.104004,0.025879,0.189941,0.034668,0.273926,0.034668c0.121582,0,0.293457-0.020996,0.421387-0.128418
				c0.023926-0.032227,0.220215-0.302734,0.000977-0.551758C4.119141,3.317871,4.05127,3.257324,3.806152,3.188965
				C3.773926,3.177246,3.750977,3.156738,3.736816,3.130371c-0.01416-0.02832-0.015137-0.060547-0.00293-0.095703
				c0.000977-0.00293,0.129395-0.311035-0.174316-0.501465C3.553711,2.530273,3.432617,2.464844,3.284668,2.464844z"/>
		</g>
	</g>
</g>
<g>
	<g id="Deleted_Symbol_8_22_">
		<g id="Deleted_Symbol_4_22_">
			<path style="&st0;" d="M15.705078,4.795898c-0.143066-0.003906-0.183105-0.100586-0.184082-0.104492l0.039063-0.449219
				c-0.111816,0.022461-0.193848,0.022461-0.298828,0.022461c-0.166504,0-0.29541-0.039063-0.338379-0.050781
				c-0.366211-0.117188-0.407227-0.491699-0.380371-0.67334c0.086914-0.334961,0.321289-0.476563,0.453125-0.530762
				c-0.033203-0.333984,0.168945-0.5625,0.294434-0.646484c0.115234-0.083008,0.248047-0.125,0.39502-0.125
				c0.183105,0,0.333008,0.070313,0.388184,0.100586C16.409668,2.550781,16.396484,2.871094,16.375488,3
				c0.229004,0.086426,0.310059,0.156738,0.338379,0.202637c0.279785,0.319336,0.119629,0.686523-0.003418,0.836426
				c-0.149902,0.138672-0.350586,0.206055-0.589355,0.206055c-0.11377,0-0.194824-0.005859-0.253906-0.018555l0.020996,0.475586
				c-0.044922,0.083984-0.132813,0.09375-0.167969,0.09375H15.705078z M15.684082,2.464844
				c-0.101074,0-0.187988,0.027344-0.270996,0.083984c-0.001953,0.001953-0.268555,0.182617-0.173828,0.497559
				c0.010742,0.032227,0.006836,0.064453-0.01123,0.09082c-0.014648,0.027344-0.044434,0.047852-0.071289,0.050781
				c-0.075195,0.022461-0.315918,0.109375-0.391113,0.392578c-0.008789,0.104492-0.005859,0.349609,0.21582,0.418945
				c0.05127,0.01416,0.149414,0.043457,0.279785,0.043457l0.089844,0.000977c0.067871,0,0.138184-0.004883,0.188965-0.05127
				c0.055176-0.048828,0.141113-0.068359,0.14209-0.068359c0.087891,0.005859,0.143066,0.048828,0.164063,0.063477
				c0.104004,0.025879,0.189941,0.034668,0.273926,0.034668c0.121582,0,0.293457-0.020996,0.421387-0.128418
				c0.023926-0.032227,0.220215-0.302734,0.000977-0.551758c-0.023926-0.024414-0.091797-0.084961-0.336914-0.15332
				c-0.032227-0.011719-0.055176-0.032227-0.069336-0.058594c-0.01416-0.02832-0.015137-0.060547-0.00293-0.095703
				c0.000977-0.00293,0.129395-0.311035-0.174316-0.501465C15.953125,2.530273,15.832031,2.464844,15.684082,2.464844z"/>
		</g>
	</g>
</g>
<g>
	<g id="Deleted_Symbol_8_14_">
		<g id="Deleted_Symbol_4_14_">
			<path style="&st0;" d="M28.102539,4.795898c-0.142578-0.003906-0.182617-0.100586-0.183594-0.104492l0.039063-0.449219
				c-0.112305,0.022461-0.194336,0.022461-0.298828,0.022461c-0.166992,0-0.295898-0.039063-0.338867-0.050781
				c-0.366211-0.117188-0.407227-0.491699-0.379883-0.67334c0.086914-0.334961,0.320313-0.476563,0.452148-0.530762
				c-0.033203-0.333984,0.168945-0.5625,0.294922-0.646484c0.115234-0.083008,0.248047-0.125,0.395508-0.125
				c0.182617,0,0.332031,0.070313,0.387695,0.100586C28.807617,2.550781,28.793945,2.871094,28.773438,3
				c0.228516,0.086426,0.30957,0.156738,0.337891,0.202637c0.279297,0.319336,0.119141,0.686523-0.003906,0.836426
				c-0.149414,0.138672-0.349609,0.206055-0.588867,0.206055c-0.114258,0-0.195313-0.005859-0.253906-0.018555l0.020508,0.475586
				c-0.044922,0.083984-0.132813,0.09375-0.167969,0.09375H28.102539z M28.082031,2.464844
				c-0.101563,0-0.188477,0.027344-0.271484,0.083984c-0.001953,0.001953-0.268555,0.182617-0.173828,0.497559
				c0.010742,0.032227,0.006836,0.064453-0.010742,0.09082c-0.014648,0.027344-0.044922,0.047852-0.072266,0.050781
				c-0.075195,0.022461-0.31543,0.109375-0.390625,0.392578c-0.008789,0.104492-0.005859,0.349609,0.21582,0.418945
				c0.050781,0.01416,0.149414,0.043457,0.280273,0.043457l0.089844,0.000977c0.067383,0,0.137695-0.004883,0.188477-0.05127
				c0.055664-0.048828,0.141602-0.068359,0.142578-0.068359c0.086914,0.005859,0.142578,0.048828,0.163086,0.063477
				c0.104492,0.025879,0.19043,0.034668,0.274414,0.034668c0.12207,0,0.293945-0.020996,0.421875-0.128418
				c0.023438-0.032227,0.219727-0.302734,0.000977-0.551758c-0.024414-0.024414-0.091797-0.084961-0.336914-0.15332
				c-0.033203-0.011719-0.055664-0.032227-0.070313-0.058594c-0.013672-0.02832-0.014648-0.060547-0.00293-0.095703
				c0.000977-0.00293,0.129883-0.311035-0.173828-0.501465C28.350586,2.530273,28.229492,2.464844,28.082031,2.464844z"/>
		</g>
	</g>
</g>
<g>
	<g id="Deleted_Symbol_8_2_">
		<g id="Deleted_Symbol_4_2_">
			<path style="&st0;" d="M40.50293,4.795898c-0.142578-0.003906-0.182617-0.100586-0.183594-0.104492l0.039063-0.449219
				c-0.112305,0.022461-0.194336,0.022461-0.298828,0.022461c-0.166992,0-0.295898-0.039063-0.338867-0.050781
				c-0.366211-0.117188-0.407227-0.491699-0.379883-0.67334c0.086914-0.334961,0.320313-0.476563,0.452148-0.530762
				c-0.033203-0.333984,0.168945-0.5625,0.294922-0.646484c0.115234-0.083008,0.248047-0.125,0.395508-0.125
				c0.182617,0,0.332031,0.070313,0.387695,0.100586C41.208008,2.550781,41.194336,2.871094,41.173828,3
				c0.228516,0.086426,0.30957,0.156738,0.337891,0.202637c0.279297,0.319336,0.119141,0.686523-0.003906,0.836426
				c-0.149414,0.138672-0.349609,0.206055-0.588867,0.206055c-0.114258,0-0.195313-0.005859-0.253906-0.018555l0.020508,0.475586
				c-0.044922,0.083984-0.132813,0.09375-0.167969,0.09375H40.50293z M40.482422,2.464844
				c-0.101563,0-0.188477,0.027344-0.271484,0.083984c-0.001953,0.001953-0.268555,0.182617-0.173828,0.497559
				c0.010742,0.032227,0.006836,0.064453-0.010742,0.09082c-0.014648,0.027344-0.044922,0.047852-0.072266,0.050781
				c-0.075195,0.022461-0.31543,0.109375-0.390625,0.392578c-0.008789,0.104492-0.005859,0.349609,0.21582,0.418945
				c0.050781,0.01416,0.149414,0.043457,0.280273,0.043457l0.089844,0.000977c0.067383,0,0.137695-0.004883,0.188477-0.05127
				c0.055664-0.048828,0.141602-0.068359,0.142578-0.068359c0.086914,0.005859,0.142578,0.048828,0.163086,0.063477
				c0.104492,0.025879,0.19043,0.034668,0.274414,0.034668c0.12207,0,0.293945-0.020996,0.421875-0.128418
				c0.023438-0.032227,0.219727-0.302734,0.000977-0.551758c-0.024414-0.024414-0.091797-0.084961-0.336914-0.15332
				c-0.033203-0.011719-0.055664-0.032227-0.070313-0.058594c-0.013672-0.02832-0.014648-0.060547-0.00293-0.095703
				c0.000977-0.00293,0.129883-0.311035-0.173828-0.501465C40.750977,2.530273,40.629883,2.464844,40.482422,2.464844z"/>
		</g>
	</g>
</g>
<g>
	<g id="Deleted_Symbol_8_29_">
		<g id="Deleted_Symbol_4_29_">
			<path style="&st0;" d="M9.503906,10.933105c-0.143066-0.003906-0.183105-0.100586-0.184082-0.104492l0.039063-0.449219
				c-0.111816,0.022461-0.193848,0.022461-0.298828,0.022461c-0.166504,0-0.29541-0.039063-0.338379-0.050781
				c-0.366211-0.117188-0.407227-0.491699-0.380371-0.67334c0.086914-0.334961,0.321289-0.476563,0.453125-0.530762
				c-0.033203-0.333984,0.168945-0.5625,0.294434-0.646484c0.115234-0.083008,0.248047-0.125,0.39502-0.125
				c0.183105,0,0.333008,0.070313,0.388184,0.100586c0.336426,0.211914,0.323242,0.532227,0.302246,0.661133
				c0.229004,0.086426,0.310059,0.156738,0.338379,0.202637c0.279785,0.319336,0.119629,0.686523-0.003418,0.836426
				c-0.149902,0.138672-0.350586,0.206055-0.589355,0.206055c-0.11377,0-0.194824-0.005859-0.253906-0.018555l0.020996,0.475586
				c-0.044922,0.083984-0.132813,0.09375-0.167969,0.09375H9.503906z M9.48291,8.602051
				c-0.101074,0-0.187988,0.027344-0.270996,0.083984C9.209961,8.687988,8.943359,8.868652,9.038086,9.183594
				c0.010742,0.032227,0.006836,0.064453-0.01123,0.09082C9.012207,9.301758,8.982422,9.322266,8.955566,9.325195
				C8.880371,9.347656,8.639648,9.43457,8.564453,9.717773c-0.008789,0.104492-0.005859,0.349609,0.21582,0.418945
				c0.05127,0.01416,0.149414,0.043457,0.279785,0.043457l0.089844,0.000977c0.067871,0,0.138184-0.004883,0.188965-0.05127
				c0.055176-0.048828,0.141113-0.068359,0.14209-0.068359C9.568848,10.067383,9.624023,10.110352,9.64502,10.125
				c0.104004,0.025879,0.189941,0.034668,0.273926,0.034668c0.121582,0,0.293457-0.020996,0.421387-0.128418
				c0.023926-0.032227,0.220215-0.302734,0.000977-0.551758c-0.023926-0.024414-0.091797-0.084961-0.336914-0.15332
				C9.972168,9.314453,9.949219,9.293945,9.935059,9.267578c-0.01416-0.02832-0.015137-0.060547-0.00293-0.095703
				c0.000977-0.00293,0.129395-0.311035-0.174316-0.501465C9.751953,8.66748,9.630859,8.602051,9.48291,8.602051z"/>
		</g>
	</g>
</g>
<g>
	<g id="Deleted_Symbol_8_21_">
		<g id="Deleted_Symbol_4_21_">
			<path style="&st0;" d="M21.90332,10.933105c-0.143066-0.003906-0.183105-0.100586-0.184082-0.104492l0.039063-0.449219
				c-0.111816,0.022461-0.193848,0.022461-0.298828,0.022461c-0.166504,0-0.29541-0.039063-0.338379-0.050781
				c-0.366211-0.117188-0.407227-0.491699-0.380371-0.67334c0.086914-0.334961,0.321289-0.476563,0.453125-0.530762
				c-0.033203-0.333984,0.168945-0.5625,0.294434-0.646484c0.115234-0.083008,0.248047-0.125,0.39502-0.125
				c0.183105,0,0.333008,0.070313,0.388184,0.100586c0.336426,0.211914,0.323242,0.532227,0.302246,0.661133
				c0.229004,0.086426,0.310059,0.156738,0.338379,0.202637c0.279785,0.319336,0.119629,0.686523-0.003418,0.836426
				c-0.149902,0.138672-0.350586,0.206055-0.589355,0.206055c-0.11377,0-0.194824-0.005859-0.253906-0.018555l0.020996,0.475586
				c-0.044922,0.083984-0.132813,0.09375-0.167969,0.09375H21.90332z M21.882324,8.602051
				c-0.101074,0-0.187988,0.027344-0.270996,0.083984c-0.001953,0.001953-0.268555,0.182617-0.173828,0.497559
				c0.010742,0.032227,0.006836,0.064453-0.01123,0.09082c-0.014648,0.027344-0.044434,0.047852-0.071289,0.050781
				c-0.075195,0.022461-0.315918,0.109375-0.391113,0.392578c-0.008789,0.104492-0.005859,0.349609,0.21582,0.418945
				c0.05127,0.01416,0.149414,0.043457,0.279785,0.043457l0.089844,0.000977c0.067871,0,0.138184-0.004883,0.188965-0.05127
				c0.055176-0.048828,0.141113-0.068359,0.14209-0.068359c0.087891,0.005859,0.143066,0.048828,0.164063,0.063477
				c0.104004,0.025879,0.189941,0.034668,0.273926,0.034668c0.121582,0,0.293457-0.020996,0.421387-0.128418
				c0.023926-0.032227,0.220215-0.302734,0.000977-0.551758c-0.023926-0.024414-0.091797-0.084961-0.336914-0.15332
				c-0.032227-0.011719-0.055176-0.032227-0.069336-0.058594c-0.01416-0.02832-0.015137-0.060547-0.00293-0.095703
				c0.000977-0.00293,0.129395-0.311035-0.174316-0.501465C22.151367,8.66748,22.030273,8.602051,21.882324,8.602051z"/>
		</g>
	</g>
</g>
<g>
	<g id="Deleted_Symbol_8_13_">
		<g id="Deleted_Symbol_4_13_">
			<path style="&st0;" d="M34.301758,10.933105c-0.142578-0.003906-0.182617-0.100586-0.183594-0.104492l0.039063-0.449219
				c-0.112305,0.022461-0.194336,0.022461-0.298828,0.022461c-0.166992,0-0.295898-0.039063-0.338867-0.050781
				c-0.366211-0.117188-0.407227-0.491699-0.379883-0.67334c0.086914-0.334961,0.320313-0.476563,0.452148-0.530762
				c-0.033203-0.333984,0.168945-0.5625,0.294922-0.646484c0.115234-0.083008,0.248047-0.125,0.395508-0.125
				c0.182617,0,0.332031,0.070313,0.387695,0.100586c0.336914,0.211914,0.323242,0.532227,0.302734,0.661133
				c0.228516,0.086426,0.30957,0.156738,0.337891,0.202637c0.279297,0.319336,0.119141,0.686523-0.003906,0.836426
				c-0.149414,0.138672-0.349609,0.206055-0.588867,0.206055c-0.114258,0-0.195313-0.005859-0.253906-0.018555l0.020508,0.475586
				c-0.044922,0.083984-0.132813,0.09375-0.167969,0.09375H34.301758z M34.28125,8.602051
				c-0.101563,0-0.188477,0.027344-0.271484,0.083984c-0.001953,0.001953-0.268555,0.182617-0.173828,0.497559
				c0.010742,0.032227,0.006836,0.064453-0.010742,0.09082c-0.014648,0.027344-0.044922,0.047852-0.072266,0.050781
				c-0.075195,0.022461-0.31543,0.109375-0.390625,0.392578c-0.008789,0.104492-0.005859,0.349609,0.21582,0.418945
				c0.050781,0.01416,0.149414,0.043457,0.280273,0.043457l0.089844,0.000977c0.067383,0,0.137695-0.004883,0.188477-0.05127
				c0.055664-0.048828,0.141602-0.068359,0.142578-0.068359c0.086914,0.005859,0.142578,0.048828,0.163086,0.063477
				c0.104492,0.025879,0.19043,0.034668,0.274414,0.034668c0.12207,0,0.293945-0.020996,0.421875-0.128418
				c0.023438-0.032227,0.219727-0.302734,0.000977-0.551758c-0.024414-0.024414-0.091797-0.084961-0.336914-0.15332
				c-0.033203-0.011719-0.055664-0.032227-0.070313-0.058594c-0.013672-0.02832-0.014648-0.060547-0.00293-0.095703
				c0.000977-0.00293,0.129883-0.311035-0.173828-0.501465C34.549805,8.66748,34.428711,8.602051,34.28125,8.602051z"/>
		</g>
	</g>
</g>
<g>
	<g id="Deleted_Symbol_8_3_">
		<g id="Deleted_Symbol_4_3_">
			<path style="&st0;" d="M46.700195,10.933105c-0.142578-0.003906-0.182617-0.100586-0.183594-0.104492l0.039063-0.449219
				c-0.112305,0.022461-0.194336,0.022461-0.298828,0.022461c-0.166992,0-0.295898-0.039063-0.338867-0.050781
				c-0.366211-0.117188-0.407227-0.491699-0.379883-0.67334c0.086914-0.334961,0.320313-0.476563,0.452148-0.530762
				c-0.033203-0.333984,0.168945-0.5625,0.294922-0.646484c0.115234-0.083008,0.248047-0.125,0.395508-0.125
				c0.182617,0,0.332031,0.070313,0.387695,0.100586c0.336914,0.211914,0.323242,0.532227,0.302734,0.661133
				c0.228516,0.086426,0.30957,0.156738,0.337891,0.202637c0.279297,0.319336,0.119141,0.686523-0.003906,0.836426
				c-0.149414,0.138672-0.349609,0.206055-0.588867,0.206055c-0.114258,0-0.195313-0.005859-0.253906-0.018555l0.020508,0.475586
				c-0.044922,0.083984-0.132813,0.09375-0.167969,0.09375H46.700195z M46.679688,8.602051
				c-0.101563,0-0.188477,0.027344-0.271484,0.083984c-0.001953,0.001953-0.268555,0.182617-0.173828,0.497559
				c0.010742,0.032227,0.006836,0.064453-0.010742,0.09082c-0.014648,0.027344-0.044922,0.047852-0.072266,0.050781
				c-0.075195,0.022461-0.31543,0.109375-0.390625,0.392578c-0.008789,0.104492-0.005859,0.349609,0.21582,0.418945
				c0.050781,0.01416,0.149414,0.043457,0.280273,0.043457l0.089844,0.000977c0.067383,0,0.137695-0.004883,0.188477-0.05127
				c0.055664-0.048828,0.141602-0.068359,0.142578-0.068359c0.086914,0.005859,0.142578,0.048828,0.163086,0.063477
				c0.104492,0.025879,0.19043,0.034668,0.274414,0.034668c0.12207,0,0.293945-0.020996,0.421875-0.128418
				c0.023438-0.032227,0.219727-0.302734,0.000977-0.551758c-0.024414-0.024414-0.091797-0.084961-0.336914-0.15332
				c-0.033203-0.011719-0.055664-0.032227-0.070313-0.058594c-0.013672-0.02832-0.014648-0.060547-0.00293-0.095703
				c0.000977-0.00293,0.129883-0.311035-0.173828-0.501465C46.948242,8.66748,46.827148,8.602051,46.679688,8.602051z"/>
		</g>
	</g>
</g>
<g>
	<g id="Deleted_Symbol_8_31_">
		<g id="Deleted_Symbol_4_31_">
			<path style="&st0;" d="M3.305664,17.071289c-0.143066-0.003906-0.183105-0.100586-0.184082-0.104492l0.039063-0.449219
				c-0.111816,0.022461-0.193848,0.022461-0.298828,0.022461c-0.166504,0-0.29541-0.039063-0.338379-0.050781
				c-0.366211-0.117188-0.407227-0.491699-0.380371-0.67334c0.086914-0.334961,0.321289-0.476563,0.453125-0.530762
				c-0.033203-0.333984,0.168945-0.5625,0.294434-0.646484c0.115234-0.083008,0.248047-0.125,0.39502-0.125
				c0.183105,0,0.333008,0.070313,0.388184,0.100586c0.336426,0.211914,0.323242,0.532227,0.302246,0.661133
				c0.229004,0.086426,0.310059,0.156738,0.338379,0.202637c0.279785,0.319336,0.119629,0.686523-0.003418,0.836426
				c-0.149902,0.138672-0.350586,0.206055-0.589355,0.206055c-0.11377,0-0.194824-0.005859-0.253906-0.018555l0.020996,0.475586
				c-0.044922,0.083984-0.132813,0.09375-0.167969,0.09375H3.305664z M3.284668,14.740234
				c-0.101074,0-0.187988,0.027344-0.270996,0.083984c-0.001953,0.001953-0.268555,0.182617-0.173828,0.497559
				c0.010742,0.032227,0.006836,0.064453-0.01123,0.09082c-0.014648,0.027344-0.044434,0.047852-0.071289,0.050781
				c-0.075195,0.022461-0.315918,0.109375-0.391113,0.392578c-0.008789,0.104492-0.005859,0.349609,0.21582,0.418945
				c0.05127,0.01416,0.149414,0.043457,0.279785,0.043457l0.089844,0.000977c0.067871,0,0.138184-0.004883,0.188965-0.05127
				c0.055176-0.048828,0.141113-0.068359,0.14209-0.068359c0.087891,0.005859,0.143066,0.048828,0.164063,0.063477
				c0.104004,0.025879,0.189941,0.034668,0.273926,0.034668c0.121582,0,0.293457-0.020996,0.421387-0.128418
				c0.023926-0.032227,0.220215-0.302734,0.000977-0.551758c-0.023926-0.024414-0.091797-0.084961-0.336914-0.15332
				c-0.032227-0.011719-0.055176-0.032227-0.069336-0.058594c-0.01416-0.02832-0.015137-0.060547-0.00293-0.095703
				c0.000977-0.00293,0.129395-0.311035-0.174316-0.501465C3.553711,14.805664,3.432617,14.740234,3.284668,14.740234z"/>
		</g>
	</g>
</g>
<g>
	<g id="Deleted_Symbol_8_23_">
		<g id="Deleted_Symbol_4_23_">
			<path style="&st0;" d="M15.705078,17.071289c-0.143066-0.003906-0.183105-0.100586-0.184082-0.104492l0.039063-0.449219
				c-0.111816,0.022461-0.193848,0.022461-0.298828,0.022461c-0.166504,0-0.29541-0.039063-0.338379-0.050781
				c-0.366211-0.117188-0.407227-0.491699-0.380371-0.67334c0.086914-0.334961,0.321289-0.476563,0.453125-0.530762
				c-0.033203-0.333984,0.168945-0.5625,0.294434-0.646484c0.115234-0.083008,0.248047-0.125,0.39502-0.125
				c0.183105,0,0.333008,0.070313,0.388184,0.100586c0.336426,0.211914,0.323242,0.532227,0.302246,0.661133
				c0.229004,0.086426,0.310059,0.156738,0.338379,0.202637c0.279785,0.319336,0.119629,0.686523-0.003418,0.836426
				c-0.149902,0.138672-0.350586,0.206055-0.589355,0.206055c-0.11377,0-0.194824-0.005859-0.253906-0.018555l0.020996,0.475586
				c-0.044922,0.083984-0.132813,0.09375-0.167969,0.09375H15.705078z M15.684082,14.740234
				c-0.101074,0-0.187988,0.027344-0.270996,0.083984c-0.001953,0.001953-0.268555,0.182617-0.173828,0.497559
				c0.010742,0.032227,0.006836,0.064453-0.01123,0.09082c-0.014648,0.027344-0.044434,0.047852-0.071289,0.050781
				c-0.075195,0.022461-0.315918,0.109375-0.391113,0.392578c-0.008789,0.104492-0.005859,0.349609,0.21582,0.418945
				c0.05127,0.01416,0.149414,0.043457,0.279785,0.043457l0.089844,0.000977c0.067871,0,0.138184-0.004883,0.188965-0.05127
				c0.055176-0.048828,0.141113-0.068359,0.14209-0.068359c0.087891,0.005859,0.143066,0.048828,0.164063,0.063477
				c0.104004,0.025879,0.189941,0.034668,0.273926,0.034668c0.121582,0,0.293457-0.020996,0.421387-0.128418
				c0.023926-0.032227,0.220215-0.302734,0.000977-0.551758c-0.023926-0.024414-0.091797-0.084961-0.336914-0.15332
				c-0.032227-0.011719-0.055176-0.032227-0.069336-0.058594c-0.01416-0.02832-0.015137-0.060547-0.00293-0.095703
				c0.000977-0.00293,0.129395-0.311035-0.174316-0.501465C15.953125,14.805664,15.832031,14.740234,15.684082,14.740234z"/>
		</g>
	</g>
</g>
<g>
	<g id="Deleted_Symbol_8_15_">
		<g id="Deleted_Symbol_4_15_">
			<path style="&st0;" d="M28.102539,17.071289c-0.142578-0.003906-0.182617-0.100586-0.183594-0.104492l0.039063-0.449219
				c-0.112305,0.022461-0.194336,0.022461-0.298828,0.022461c-0.166992,0-0.295898-0.039063-0.338867-0.050781
				c-0.366211-0.117188-0.407227-0.491699-0.379883-0.67334c0.086914-0.334961,0.320313-0.476563,0.452148-0.530762
				c-0.033203-0.333984,0.168945-0.5625,0.294922-0.646484c0.115234-0.083008,0.248047-0.125,0.395508-0.125
				c0.182617,0,0.332031,0.070313,0.387695,0.100586c0.336914,0.211914,0.323242,0.532227,0.302734,0.661133
				c0.228516,0.086426,0.30957,0.156738,0.337891,0.202637c0.279297,0.319336,0.119141,0.686523-0.003906,0.836426
				c-0.149414,0.138672-0.349609,0.206055-0.588867,0.206055c-0.114258,0-0.195313-0.005859-0.253906-0.018555l0.020508,0.475586
				c-0.044922,0.083984-0.132813,0.09375-0.167969,0.09375H28.102539z M28.082031,14.740234
				c-0.101563,0-0.188477,0.027344-0.271484,0.083984c-0.001953,0.001953-0.268555,0.182617-0.173828,0.497559
				c0.010742,0.032227,0.006836,0.064453-0.010742,0.09082c-0.014648,0.027344-0.044922,0.047852-0.072266,0.050781
				c-0.075195,0.022461-0.31543,0.109375-0.390625,0.392578c-0.008789,0.104492-0.005859,0.349609,0.21582,0.418945
				c0.050781,0.01416,0.149414,0.043457,0.280273,0.043457l0.089844,0.000977c0.067383,0,0.137695-0.004883,0.188477-0.05127
				c0.055664-0.048828,0.141602-0.068359,0.142578-0.068359c0.086914,0.005859,0.142578,0.048828,0.163086,0.063477
				c0.104492,0.025879,0.19043,0.034668,0.274414,0.034668c0.12207,0,0.293945-0.020996,0.421875-0.128418
				c0.023438-0.032227,0.219727-0.302734,0.000977-0.551758c-0.024414-0.024414-0.091797-0.084961-0.336914-0.15332
				c-0.033203-0.011719-0.055664-0.032227-0.070313-0.058594c-0.013672-0.02832-0.014648-0.060547-0.00293-0.095703
				c0.000977-0.00293,0.129883-0.311035-0.173828-0.501465C28.350586,14.805664,28.229492,14.740234,28.082031,14.740234z"/>
		</g>
	</g>
</g>
<g>
	<g id="Deleted_Symbol_8_4_">
		<g id="Deleted_Symbol_4_4_">
			<path style="&st0;" d="M40.50293,17.071289c-0.142578-0.003906-0.182617-0.100586-0.183594-0.104492l0.039063-0.449219
				c-0.112305,0.022461-0.194336,0.022461-0.298828,0.022461c-0.166992,0-0.295898-0.039063-0.338867-0.050781
				c-0.366211-0.117188-0.407227-0.491699-0.379883-0.67334c0.086914-0.334961,0.320313-0.476563,0.452148-0.530762
				c-0.033203-0.333984,0.168945-0.5625,0.294922-0.646484c0.115234-0.083008,0.248047-0.125,0.395508-0.125
				c0.182617,0,0.332031,0.070313,0.387695,0.100586c0.336914,0.211914,0.323242,0.532227,0.302734,0.661133
				c0.228516,0.086426,0.30957,0.156738,0.337891,0.202637c0.279297,0.319336,0.119141,0.686523-0.003906,0.836426
				c-0.149414,0.138672-0.349609,0.206055-0.588867,0.206055c-0.114258,0-0.195313-0.005859-0.253906-0.018555l0.020508,0.475586
				c-0.044922,0.083984-0.132813,0.09375-0.167969,0.09375H40.50293z M40.482422,14.740234
				c-0.101563,0-0.188477,0.027344-0.271484,0.083984c-0.001953,0.001953-0.268555,0.182617-0.173828,0.497559
				c0.010742,0.032227,0.006836,0.064453-0.010742,0.09082c-0.014648,0.027344-0.044922,0.047852-0.072266,0.050781
				c-0.075195,0.022461-0.31543,0.109375-0.390625,0.392578c-0.008789,0.104492-0.005859,0.349609,0.21582,0.418945
				c0.050781,0.01416,0.149414,0.043457,0.280273,0.043457l0.089844,0.000977c0.067383,0,0.137695-0.004883,0.188477-0.05127
				c0.055664-0.048828,0.141602-0.068359,0.142578-0.068359c0.086914,0.005859,0.142578,0.048828,0.163086,0.063477
				c0.104492,0.025879,0.19043,0.034668,0.274414,0.034668c0.12207,0,0.293945-0.020996,0.421875-0.128418
				c0.023438-0.032227,0.219727-0.302734,0.000977-0.551758c-0.024414-0.024414-0.091797-0.084961-0.336914-0.15332
				c-0.033203-0.011719-0.055664-0.032227-0.070313-0.058594c-0.013672-0.02832-0.014648-0.060547-0.00293-0.095703
				c0.000977-0.00293,0.129883-0.311035-0.173828-0.501465C40.750977,14.805664,40.629883,14.740234,40.482422,14.740234z"/>
		</g>
	</g>
</g>
<g>
	<g id="Deleted_Symbol_8_28_">
		<g id="Deleted_Symbol_4_28_">
			<path style="&st0;" d="M9.503906,23.208496C9.36084,23.20459,9.320801,23.10791,9.319824,23.104004l0.039063-0.449219
				c-0.111816,0.022461-0.193848,0.022461-0.298828,0.022461c-0.166504,0-0.29541-0.039063-0.338379-0.050781
				c-0.366211-0.117188-0.407227-0.491699-0.380371-0.67334c0.086914-0.334961,0.321289-0.476563,0.453125-0.530762
				c-0.033203-0.333984,0.168945-0.5625,0.294434-0.646484c0.115234-0.083008,0.248047-0.125,0.39502-0.125
				c0.183105,0,0.333008,0.070313,0.388184,0.100586c0.336426,0.211914,0.323242,0.532227,0.302246,0.661133
				c0.229004,0.086426,0.310059,0.156738,0.338379,0.202637c0.279785,0.319336,0.119629,0.686523-0.003418,0.836426
				c-0.149902,0.138672-0.350586,0.206055-0.589355,0.206055c-0.11377,0-0.194824-0.005859-0.253906-0.018555l0.020996,0.475586
				c-0.044922,0.083984-0.132813,0.09375-0.167969,0.09375H9.503906z M9.48291,20.877441
				c-0.101074,0-0.187988,0.027344-0.270996,0.083984c-0.001953,0.001953-0.268555,0.182617-0.173828,0.497559
				c0.010742,0.032227,0.006836,0.064453-0.01123,0.09082c-0.014648,0.027344-0.044434,0.047852-0.071289,0.050781
				c-0.075195,0.022461-0.315918,0.109375-0.391113,0.392578c-0.008789,0.104492-0.005859,0.349609,0.21582,0.418945
				c0.05127,0.01416,0.149414,0.043457,0.279785,0.043457l0.089844,0.000977c0.067871,0,0.138184-0.004883,0.188965-0.05127
				c0.055176-0.048828,0.141113-0.068359,0.14209-0.068359c0.087891,0.005859,0.143066,0.048828,0.164063,0.063477
				c0.104004,0.025879,0.189941,0.034668,0.273926,0.034668c0.121582,0,0.293457-0.020996,0.421387-0.128418
				c0.023926-0.032227,0.220215-0.302734,0.000977-0.551758c-0.023926-0.024414-0.091797-0.084961-0.336914-0.15332
				c-0.032227-0.011719-0.055176-0.032227-0.069336-0.058594c-0.01416-0.02832-0.015137-0.060547-0.00293-0.095703
				c0.000977-0.00293,0.129395-0.311035-0.174316-0.501465C9.751953,20.942871,9.630859,20.877441,9.48291,20.877441z"/>
		</g>
	</g>
</g>
<g>
	<g id="Deleted_Symbol_8_20_">
		<g id="Deleted_Symbol_4_20_">
			<path style="&st0;" d="M21.90332,23.208496c-0.143066-0.003906-0.183105-0.100586-0.184082-0.104492l0.039063-0.449219
				c-0.111816,0.022461-0.193848,0.022461-0.298828,0.022461c-0.166504,0-0.29541-0.039063-0.338379-0.050781
				c-0.366211-0.117188-0.407227-0.491699-0.380371-0.67334c0.086914-0.334961,0.321289-0.476563,0.453125-0.530762
				c-0.033203-0.333984,0.168945-0.5625,0.294434-0.646484c0.115234-0.083008,0.248047-0.125,0.39502-0.125
				c0.183105,0,0.333008,0.070313,0.388184,0.100586c0.336426,0.211914,0.323242,0.532227,0.302246,0.661133
				c0.229004,0.086426,0.310059,0.156738,0.338379,0.202637c0.279785,0.319336,0.119629,0.686523-0.003418,0.836426
				c-0.149902,0.138672-0.350586,0.206055-0.589355,0.206055c-0.11377,0-0.194824-0.005859-0.253906-0.018555l0.020996,0.475586
				c-0.044922,0.083984-0.132813,0.09375-0.167969,0.09375H21.90332z M21.882324,20.877441
				c-0.101074,0-0.187988,0.027344-0.270996,0.083984c-0.001953,0.001953-0.268555,0.182617-0.173828,0.497559
				c0.010742,0.032227,0.006836,0.064453-0.01123,0.09082c-0.014648,0.027344-0.044434,0.047852-0.071289,0.050781
				c-0.075195,0.022461-0.315918,0.109375-0.391113,0.392578c-0.008789,0.104492-0.005859,0.349609,0.21582,0.418945
				c0.05127,0.01416,0.149414,0.043457,0.279785,0.043457l0.089844,0.000977c0.067871,0,0.138184-0.004883,0.188965-0.05127
				c0.055176-0.048828,0.141113-0.068359,0.14209-0.068359c0.087891,0.005859,0.143066,0.048828,0.164063,0.063477
				c0.104004,0.025879,0.189941,0.034668,0.273926,0.034668c0.121582,0,0.293457-0.020996,0.421387-0.128418
				c0.023926-0.032227,0.220215-0.302734,0.000977-0.551758c-0.023926-0.024414-0.091797-0.084961-0.336914-0.15332
				c-0.032227-0.011719-0.055176-0.032227-0.069336-0.058594c-0.01416-0.02832-0.015137-0.060547-0.00293-0.095703
				c0.000977-0.00293,0.129395-0.311035-0.174316-0.501465C22.151367,20.942871,22.030273,20.877441,21.882324,20.877441z"/>
		</g>
	</g>
</g>
<g>
	<g id="Deleted_Symbol_8_12_">
		<g id="Deleted_Symbol_4_12_">
			<path style="&st0;" d="M34.301758,23.208496c-0.142578-0.003906-0.182617-0.100586-0.183594-0.104492l0.039063-0.449219
				c-0.112305,0.022461-0.194336,0.022461-0.298828,0.022461c-0.166992,0-0.295898-0.039063-0.338867-0.050781
				c-0.366211-0.117188-0.407227-0.491699-0.379883-0.67334c0.086914-0.334961,0.320313-0.476563,0.452148-0.530762
				c-0.033203-0.333984,0.168945-0.5625,0.294922-0.646484c0.115234-0.083008,0.248047-0.125,0.395508-0.125
				c0.182617,0,0.332031,0.070313,0.387695,0.100586c0.336914,0.211914,0.323242,0.532227,0.302734,0.661133
				c0.228516,0.086426,0.30957,0.156738,0.337891,0.202637c0.279297,0.319336,0.119141,0.686523-0.003906,0.836426
				c-0.149414,0.138672-0.349609,0.206055-0.588867,0.206055c-0.114258,0-0.195313-0.005859-0.253906-0.018555l0.020508,0.475586
				c-0.044922,0.083984-0.132813,0.09375-0.167969,0.09375H34.301758z M34.28125,20.877441
				c-0.101563,0-0.188477,0.027344-0.271484,0.083984c-0.001953,0.001953-0.268555,0.182617-0.173828,0.497559
				c0.010742,0.032227,0.006836,0.064453-0.010742,0.09082c-0.014648,0.027344-0.044922,0.047852-0.072266,0.050781
				c-0.075195,0.022461-0.31543,0.109375-0.390625,0.392578c-0.008789,0.104492-0.005859,0.349609,0.21582,0.418945
				c0.050781,0.01416,0.149414,0.043457,0.280273,0.043457l0.089844,0.000977c0.067383,0,0.137695-0.004883,0.188477-0.05127
				c0.055664-0.048828,0.141602-0.068359,0.142578-0.068359c0.086914,0.005859,0.142578,0.048828,0.163086,0.063477
				c0.104492,0.025879,0.19043,0.034668,0.274414,0.034668c0.12207,0,0.293945-0.020996,0.421875-0.128418
				c0.023438-0.032227,0.219727-0.302734,0.000977-0.551758c-0.024414-0.024414-0.091797-0.084961-0.336914-0.15332
				c-0.033203-0.011719-0.055664-0.032227-0.070313-0.058594c-0.013672-0.02832-0.014648-0.060547-0.00293-0.095703
				c0.000977-0.00293,0.129883-0.311035-0.173828-0.501465C34.549805,20.942871,34.428711,20.877441,34.28125,20.877441z"/>
		</g>
	</g>
</g>
<g>
	<g id="Deleted_Symbol_8_5_">
		<g id="Deleted_Symbol_4_5_">
			<path style="&st0;" d="M46.700195,23.208496c-0.142578-0.003906-0.182617-0.100586-0.183594-0.104492l0.039063-0.449219
				c-0.112305,0.022461-0.194336,0.022461-0.298828,0.022461c-0.166992,0-0.295898-0.039063-0.338867-0.050781
				c-0.366211-0.117188-0.407227-0.491699-0.379883-0.67334c0.086914-0.334961,0.320313-0.476563,0.452148-0.530762
				c-0.033203-0.333984,0.168945-0.5625,0.294922-0.646484c0.115234-0.083008,0.248047-0.125,0.395508-0.125
				c0.182617,0,0.332031,0.070313,0.387695,0.100586c0.336914,0.211914,0.323242,0.532227,0.302734,0.661133
				c0.228516,0.086426,0.30957,0.156738,0.337891,0.202637c0.279297,0.319336,0.119141,0.686523-0.003906,0.836426
				c-0.149414,0.138672-0.349609,0.206055-0.588867,0.206055c-0.114258,0-0.195313-0.005859-0.253906-0.018555l0.020508,0.475586
				c-0.044922,0.083984-0.132813,0.09375-0.167969,0.09375H46.700195z M46.679688,20.877441
				c-0.101563,0-0.188477,0.027344-0.271484,0.083984c-0.001953,0.001953-0.268555,0.182617-0.173828,0.497559
				c0.010742,0.032227,0.006836,0.064453-0.010742,0.09082c-0.014648,0.027344-0.044922,0.047852-0.072266,0.050781
				c-0.075195,0.022461-0.31543,0.109375-0.390625,0.392578c-0.008789,0.104492-0.005859,0.349609,0.21582,0.418945
				c0.050781,0.01416,0.149414,0.043457,0.280273,0.043457l0.089844,0.000977c0.067383,0,0.137695-0.004883,0.188477-0.05127
				c0.055664-0.048828,0.141602-0.068359,0.142578-0.068359c0.086914,0.005859,0.142578,0.048828,0.163086,0.063477
				c0.104492,0.025879,0.19043,0.034668,0.274414,0.034668c0.12207,0,0.293945-0.020996,0.421875-0.128418
				c0.023438-0.032227,0.219727-0.302734,0.000977-0.551758c-0.024414-0.024414-0.091797-0.084961-0.336914-0.15332
				c-0.033203-0.011719-0.055664-0.032227-0.070313-0.058594c-0.013672-0.02832-0.014648-0.060547-0.00293-0.095703
				c0.000977-0.00293,0.129883-0.311035-0.173828-0.501465C46.948242,20.942871,46.827148,20.877441,46.679688,20.877441z"/>
		</g>
	</g>
</g>
<g>
	<g id="Deleted_Symbol_8_32_">
		<g id="Deleted_Symbol_4_32_">
			<path style="&st0;" d="M3.305664,29.34668c-0.143066-0.003906-0.183105-0.100586-0.184082-0.104492l0.039063-0.448242
				c-0.111816,0.022461-0.193848,0.022461-0.298828,0.022461c-0.166504,0-0.29541-0.039063-0.338379-0.050781
				c-0.366211-0.117188-0.407227-0.492188-0.380371-0.673828c0.086914-0.334961,0.321289-0.476563,0.453125-0.53125
				c-0.033203-0.333984,0.168945-0.561523,0.294434-0.645508c0.115234-0.083008,0.248047-0.125,0.39502-0.125
				c0.183105,0,0.333008,0.070313,0.388184,0.100586c0.336426,0.210938,0.323242,0.53125,0.302246,0.660156
				c0.229004,0.086914,0.310059,0.157227,0.338379,0.203125c0.279785,0.319336,0.119629,0.686523-0.003418,0.836914
				c-0.149902,0.138672-0.350586,0.206055-0.589355,0.206055c-0.11377,0-0.194824-0.005859-0.253906-0.018555L3.48877,29.25293
				c-0.044922,0.083984-0.132813,0.09375-0.167969,0.09375H3.305664z M3.284668,27.016602
				c-0.101074,0-0.187988,0.027344-0.270996,0.083008c-0.001953,0.001953-0.268555,0.182617-0.173828,0.498047
				c0.010742,0.032227,0.006836,0.064453-0.01123,0.09082c-0.014648,0.027344-0.044434,0.047852-0.071289,0.050781
				c-0.075195,0.022461-0.315918,0.109375-0.391113,0.392578c-0.008789,0.104492-0.005859,0.349609,0.21582,0.418945
				c0.05127,0.014648,0.149414,0.043945,0.279785,0.043945l0.089844,0.000977c0.067871,0,0.138184-0.004883,0.188965-0.051758
				c0.055176-0.048828,0.141113-0.068359,0.14209-0.068359c0.087891,0.005859,0.143066,0.048828,0.164063,0.063477
				c0.104004,0.026367,0.189941,0.035156,0.273926,0.035156c0.121582,0,0.293457-0.021484,0.421387-0.128906
				c0.023926-0.032227,0.220215-0.302734,0.000977-0.551758c-0.023926-0.024414-0.091797-0.084961-0.336914-0.15332
				c-0.032227-0.011719-0.055176-0.032227-0.069336-0.058594c-0.01416-0.02832-0.015137-0.060547-0.00293-0.095703
				c0.000977-0.00293,0.129395-0.311523-0.174316-0.501953C3.553711,27.082031,3.432617,27.016602,3.284668,27.016602z"/>
		</g>
	</g>
</g>
<g>
	<g id="Deleted_Symbol_8_24_">
		<g id="Deleted_Symbol_4_24_">
			<path style="&st0;" d="M15.705078,29.34668c-0.143066-0.003906-0.183105-0.100586-0.184082-0.104492l0.039063-0.448242
				c-0.111816,0.022461-0.193848,0.022461-0.298828,0.022461c-0.166504,0-0.29541-0.039063-0.338379-0.050781
				c-0.366211-0.117188-0.407227-0.492188-0.380371-0.673828c0.086914-0.334961,0.321289-0.476563,0.453125-0.53125
				c-0.033203-0.333984,0.168945-0.561523,0.294434-0.645508c0.115234-0.083008,0.248047-0.125,0.39502-0.125
				c0.183105,0,0.333008,0.070313,0.388184,0.100586c0.336426,0.210938,0.323242,0.53125,0.302246,0.660156
				c0.229004,0.086914,0.310059,0.157227,0.338379,0.203125c0.279785,0.319336,0.119629,0.686523-0.003418,0.836914
				c-0.149902,0.138672-0.350586,0.206055-0.589355,0.206055c-0.11377,0-0.194824-0.005859-0.253906-0.018555l0.020996,0.474609
				c-0.044922,0.083984-0.132813,0.09375-0.167969,0.09375H15.705078z M15.684082,27.016602
				c-0.101074,0-0.187988,0.027344-0.270996,0.083008c-0.001953,0.001953-0.268555,0.182617-0.173828,0.498047
				c0.010742,0.032227,0.006836,0.064453-0.01123,0.09082c-0.014648,0.027344-0.044434,0.047852-0.071289,0.050781
				c-0.075195,0.022461-0.315918,0.109375-0.391113,0.392578c-0.008789,0.104492-0.005859,0.349609,0.21582,0.418945
				c0.05127,0.014648,0.149414,0.043945,0.279785,0.043945l0.089844,0.000977c0.067871,0,0.138184-0.004883,0.188965-0.051758
				c0.055176-0.048828,0.141113-0.068359,0.14209-0.068359c0.087891,0.005859,0.143066,0.048828,0.164063,0.063477
				c0.104004,0.026367,0.189941,0.035156,0.273926,0.035156c0.121582,0,0.293457-0.021484,0.421387-0.128906
				c0.023926-0.032227,0.220215-0.302734,0.000977-0.551758c-0.023926-0.024414-0.091797-0.084961-0.336914-0.15332
				c-0.032227-0.011719-0.055176-0.032227-0.069336-0.058594c-0.01416-0.02832-0.015137-0.060547-0.00293-0.095703
				c0.000977-0.00293,0.129395-0.311523-0.174316-0.501953C15.953125,27.082031,15.832031,27.016602,15.684082,27.016602z"/>
		</g>
	</g>
</g>
<g>
	<g id="Deleted_Symbol_8_16_">
		<g id="Deleted_Symbol_4_16_">
			<path style="&st0;" d="M28.102539,29.34668c-0.142578-0.003906-0.182617-0.100586-0.183594-0.104492l0.039063-0.448242
				c-0.112305,0.022461-0.194336,0.022461-0.298828,0.022461c-0.166992,0-0.295898-0.039063-0.338867-0.050781
				c-0.366211-0.117188-0.407227-0.492188-0.379883-0.673828c0.086914-0.334961,0.320313-0.476563,0.452148-0.53125
				c-0.033203-0.333984,0.168945-0.561523,0.294922-0.645508c0.115234-0.083008,0.248047-0.125,0.395508-0.125
				c0.182617,0,0.332031,0.070313,0.387695,0.100586c0.336914,0.210938,0.323242,0.53125,0.302734,0.660156
				c0.228516,0.086914,0.30957,0.157227,0.337891,0.203125c0.279297,0.319336,0.119141,0.686523-0.003906,0.836914
				c-0.149414,0.138672-0.349609,0.206055-0.588867,0.206055c-0.114258,0-0.195313-0.005859-0.253906-0.018555l0.020508,0.474609
				c-0.044922,0.083984-0.132813,0.09375-0.167969,0.09375H28.102539z M28.082031,27.016602
				c-0.101563,0-0.188477,0.027344-0.271484,0.083008c-0.001953,0.001953-0.268555,0.182617-0.173828,0.498047
				c0.010742,0.032227,0.006836,0.064453-0.010742,0.09082c-0.014648,0.027344-0.044922,0.047852-0.072266,0.050781
				c-0.075195,0.022461-0.31543,0.109375-0.390625,0.392578c-0.008789,0.104492-0.005859,0.349609,0.21582,0.418945
				c0.050781,0.014648,0.149414,0.043945,0.280273,0.043945l0.089844,0.000977c0.067383,0,0.137695-0.004883,0.188477-0.051758
				c0.055664-0.048828,0.141602-0.068359,0.142578-0.068359c0.086914,0.005859,0.142578,0.048828,0.163086,0.063477
				c0.104492,0.026367,0.19043,0.035156,0.274414,0.035156c0.12207,0,0.293945-0.021484,0.421875-0.128906
				c0.023438-0.032227,0.219727-0.302734,0.000977-0.551758c-0.024414-0.024414-0.091797-0.084961-0.336914-0.15332
				c-0.033203-0.011719-0.055664-0.032227-0.070313-0.058594c-0.013672-0.02832-0.014648-0.060547-0.00293-0.095703
				c0.000977-0.00293,0.129883-0.311523-0.173828-0.501953C28.350586,27.082031,28.229492,27.016602,28.082031,27.016602z"/>
		</g>
	</g>
</g>
<g>
	<g id="Deleted_Symbol_8_6_">
		<g id="Deleted_Symbol_4_6_">
			<path style="&st0;" d="M40.50293,29.34668c-0.142578-0.003906-0.182617-0.100586-0.183594-0.104492l0.039063-0.448242
				c-0.112305,0.022461-0.194336,0.022461-0.298828,0.022461c-0.166992,0-0.295898-0.039063-0.338867-0.050781
				c-0.366211-0.117188-0.407227-0.492188-0.379883-0.673828c0.086914-0.334961,0.320313-0.476563,0.452148-0.53125
				c-0.033203-0.333984,0.168945-0.561523,0.294922-0.645508c0.115234-0.083008,0.248047-0.125,0.395508-0.125
				c0.182617,0,0.332031,0.070313,0.387695,0.100586c0.336914,0.210938,0.323242,0.53125,0.302734,0.660156
				c0.228516,0.086914,0.30957,0.157227,0.337891,0.203125c0.279297,0.319336,0.119141,0.686523-0.003906,0.836914
				c-0.149414,0.138672-0.349609,0.206055-0.588867,0.206055c-0.114258,0-0.195313-0.005859-0.253906-0.018555l0.020508,0.474609
				c-0.044922,0.083984-0.132813,0.09375-0.167969,0.09375H40.50293z M40.482422,27.016602
				c-0.101563,0-0.188477,0.027344-0.271484,0.083008c-0.001953,0.001953-0.268555,0.182617-0.173828,0.498047
				c0.010742,0.032227,0.006836,0.064453-0.010742,0.09082c-0.014648,0.027344-0.044922,0.047852-0.072266,0.050781
				c-0.075195,0.022461-0.31543,0.109375-0.390625,0.392578c-0.008789,0.104492-0.005859,0.349609,0.21582,0.418945
				c0.050781,0.014648,0.149414,0.043945,0.280273,0.043945l0.089844,0.000977c0.067383,0,0.137695-0.004883,0.188477-0.051758
				c0.055664-0.048828,0.141602-0.068359,0.142578-0.068359c0.086914,0.005859,0.142578,0.048828,0.163086,0.063477
				c0.104492,0.026367,0.19043,0.035156,0.274414,0.035156c0.12207,0,0.293945-0.021484,0.421875-0.128906
				c0.023438-0.032227,0.219727-0.302734,0.000977-0.551758c-0.024414-0.024414-0.091797-0.084961-0.336914-0.15332
				c-0.033203-0.011719-0.055664-0.032227-0.070313-0.058594c-0.013672-0.02832-0.014648-0.060547-0.00293-0.095703
				c0.000977-0.00293,0.129883-0.311523-0.173828-0.501953C40.750977,27.082031,40.629883,27.016602,40.482422,27.016602z"/>
		</g>
	</g>
</g>
<g>
	<g id="Deleted_Symbol_8_27_">
		<g id="Deleted_Symbol_4_27_">
			<path style="&st0;" d="M9.503906,35.485352c-0.143066-0.003906-0.183105-0.100586-0.184082-0.104492l0.039063-0.448242
				c-0.111816,0.022461-0.193848,0.022461-0.298828,0.022461c-0.166504,0-0.29541-0.039063-0.338379-0.050781
				c-0.366211-0.117188-0.407227-0.492188-0.380371-0.673828c0.086914-0.334961,0.321289-0.476563,0.453125-0.53125
				c-0.033203-0.333984,0.168945-0.561523,0.294434-0.645508c0.115234-0.083008,0.248047-0.125,0.39502-0.125
				c0.183105,0,0.333008,0.070313,0.388184,0.100586c0.336426,0.210938,0.323242,0.53125,0.302246,0.660156
				c0.229004,0.086914,0.310059,0.157227,0.338379,0.203125c0.279785,0.319336,0.119629,0.686523-0.003418,0.836914
				c-0.149902,0.138672-0.350586,0.206055-0.589355,0.206055c-0.11377,0-0.194824-0.005859-0.253906-0.018555l0.020996,0.474609
				c-0.044922,0.083984-0.132813,0.09375-0.167969,0.09375H9.503906z M9.48291,33.155273
				c-0.101074,0-0.187988,0.027344-0.270996,0.083008c-0.001953,0.001953-0.268555,0.182617-0.173828,0.498047
				c0.010742,0.032227,0.006836,0.064453-0.01123,0.09082C9.012207,33.854492,8.982422,33.875,8.955566,33.87793
				c-0.075195,0.022461-0.315918,0.109375-0.391113,0.392578c-0.008789,0.104492-0.005859,0.349609,0.21582,0.418945
				c0.05127,0.014648,0.149414,0.043945,0.279785,0.043945l0.089844,0.000977c0.067871,0,0.138184-0.004883,0.188965-0.051758
				c0.055176-0.048828,0.141113-0.068359,0.14209-0.068359c0.087891,0.005859,0.143066,0.048828,0.164063,0.063477
				c0.104004,0.026367,0.189941,0.035156,0.273926,0.035156c0.121582,0,0.293457-0.021484,0.421387-0.128906
				c0.023926-0.032227,0.220215-0.302734,0.000977-0.551758c-0.023926-0.024414-0.091797-0.084961-0.336914-0.15332
				c-0.032227-0.011719-0.055176-0.032227-0.069336-0.058594c-0.01416-0.02832-0.015137-0.060547-0.00293-0.095703
				c0.000977-0.00293,0.129395-0.311523-0.174316-0.501953C9.751953,33.220703,9.630859,33.155273,9.48291,33.155273z"/>
		</g>
	</g>
</g>
<g>
	<g id="Deleted_Symbol_8_19_">
		<g id="Deleted_Symbol_4_19_">
			<path style="&st0;" d="M21.90332,35.485352c-0.143066-0.003906-0.183105-0.100586-0.184082-0.104492l0.039063-0.448242
				c-0.111816,0.022461-0.193848,0.022461-0.298828,0.022461c-0.166504,0-0.29541-0.039063-0.338379-0.050781
				c-0.366211-0.117188-0.407227-0.492188-0.380371-0.673828c0.086914-0.334961,0.321289-0.476563,0.453125-0.53125
				c-0.033203-0.333984,0.168945-0.561523,0.294434-0.645508c0.115234-0.083008,0.248047-0.125,0.39502-0.125
				c0.183105,0,0.333008,0.070313,0.388184,0.100586c0.336426,0.210938,0.323242,0.53125,0.302246,0.660156
				c0.229004,0.086914,0.310059,0.157227,0.338379,0.203125c0.279785,0.319336,0.119629,0.686523-0.003418,0.836914
				c-0.149902,0.138672-0.350586,0.206055-0.589355,0.206055c-0.11377,0-0.194824-0.005859-0.253906-0.018555l0.020996,0.474609
				c-0.044922,0.083984-0.132813,0.09375-0.167969,0.09375H21.90332z M21.882324,33.155273
				c-0.101074,0-0.187988,0.027344-0.270996,0.083008c-0.001953,0.001953-0.268555,0.182617-0.173828,0.498047
				c0.010742,0.032227,0.006836,0.064453-0.01123,0.09082c-0.014648,0.027344-0.044434,0.047852-0.071289,0.050781
				c-0.075195,0.022461-0.315918,0.109375-0.391113,0.392578c-0.008789,0.104492-0.005859,0.349609,0.21582,0.418945
				c0.05127,0.014648,0.149414,0.043945,0.279785,0.043945l0.089844,0.000977c0.067871,0,0.138184-0.004883,0.188965-0.051758
				c0.055176-0.048828,0.141113-0.068359,0.14209-0.068359c0.087891,0.005859,0.143066,0.048828,0.164063,0.063477
				c0.104004,0.026367,0.189941,0.035156,0.273926,0.035156c0.121582,0,0.293457-0.021484,0.421387-0.128906
				c0.023926-0.032227,0.220215-0.302734,0.000977-0.551758c-0.023926-0.024414-0.091797-0.084961-0.336914-0.15332
				c-0.032227-0.011719-0.055176-0.032227-0.069336-0.058594c-0.01416-0.02832-0.015137-0.060547-0.00293-0.095703
				c0.000977-0.00293,0.129395-0.311523-0.174316-0.501953C22.151367,33.220703,22.030273,33.155273,21.882324,33.155273z"/>
		</g>
	</g>
</g>
<g>
	<g id="Deleted_Symbol_8_11_">
		<g id="Deleted_Symbol_4_11_">
			<path style="&st0;" d="M34.301758,35.485352c-0.142578-0.003906-0.182617-0.100586-0.183594-0.104492l0.039063-0.448242
				c-0.112305,0.022461-0.194336,0.022461-0.298828,0.022461c-0.166992,0-0.295898-0.039063-0.338867-0.050781
				c-0.366211-0.117188-0.407227-0.492188-0.379883-0.673828c0.086914-0.334961,0.320313-0.476563,0.452148-0.53125
				c-0.033203-0.333984,0.168945-0.561523,0.294922-0.645508c0.115234-0.083008,0.248047-0.125,0.395508-0.125
				c0.182617,0,0.332031,0.070313,0.387695,0.100586c0.336914,0.210938,0.323242,0.53125,0.302734,0.660156
				c0.228516,0.086914,0.30957,0.157227,0.337891,0.203125c0.279297,0.319336,0.119141,0.686523-0.003906,0.836914
				c-0.149414,0.138672-0.349609,0.206055-0.588867,0.206055c-0.114258,0-0.195313-0.005859-0.253906-0.018555l0.020508,0.474609
				c-0.044922,0.083984-0.132813,0.09375-0.167969,0.09375H34.301758z M34.28125,33.155273
				c-0.101563,0-0.188477,0.027344-0.271484,0.083008c-0.001953,0.001953-0.268555,0.182617-0.173828,0.498047
				c0.010742,0.032227,0.006836,0.064453-0.010742,0.09082c-0.014648,0.027344-0.044922,0.047852-0.072266,0.050781
				c-0.075195,0.022461-0.31543,0.109375-0.390625,0.392578c-0.008789,0.104492-0.005859,0.349609,0.21582,0.418945
				c0.050781,0.014648,0.149414,0.043945,0.280273,0.043945l0.089844,0.000977c0.067383,0,0.137695-0.004883,0.188477-0.051758
				c0.055664-0.048828,0.141602-0.068359,0.142578-0.068359c0.086914,0.005859,0.142578,0.048828,0.163086,0.063477
				c0.104492,0.026367,0.19043,0.035156,0.274414,0.035156c0.12207,0,0.293945-0.021484,0.421875-0.128906
				c0.023438-0.032227,0.219727-0.302734,0.000977-0.551758c-0.024414-0.024414-0.091797-0.084961-0.336914-0.15332
				c-0.033203-0.011719-0.055664-0.032227-0.070313-0.058594c-0.013672-0.02832-0.014648-0.060547-0.00293-0.095703
				c0.000977-0.00293,0.129883-0.311523-0.173828-0.501953C34.549805,33.220703,34.428711,33.155273,34.28125,33.155273z"/>
		</g>
	</g>
</g>
<g>
	<g id="Deleted_Symbol_8_7_">
		<g id="Deleted_Symbol_4_7_">
			<path style="&st0;" d="M46.700195,35.485352c-0.142578-0.003906-0.182617-0.100586-0.183594-0.104492l0.039063-0.448242
				c-0.112305,0.022461-0.194336,0.022461-0.298828,0.022461c-0.166992,0-0.295898-0.039063-0.338867-0.050781
				c-0.366211-0.117188-0.407227-0.492188-0.379883-0.673828c0.086914-0.334961,0.320313-0.476563,0.452148-0.53125
				c-0.033203-0.333984,0.168945-0.561523,0.294922-0.645508c0.115234-0.083008,0.248047-0.125,0.395508-0.125
				c0.182617,0,0.332031,0.070313,0.387695,0.100586c0.336914,0.210938,0.323242,0.53125,0.302734,0.660156
				c0.228516,0.086914,0.30957,0.157227,0.337891,0.203125c0.279297,0.319336,0.119141,0.686523-0.003906,0.836914
				c-0.149414,0.138672-0.349609,0.206055-0.588867,0.206055c-0.114258,0-0.195313-0.005859-0.253906-0.018555l0.020508,0.474609
				c-0.044922,0.083984-0.132813,0.09375-0.167969,0.09375H46.700195z M46.679688,33.155273
				c-0.101563,0-0.188477,0.027344-0.271484,0.083008c-0.001953,0.001953-0.268555,0.182617-0.173828,0.498047
				c0.010742,0.032227,0.006836,0.064453-0.010742,0.09082c-0.014648,0.027344-0.044922,0.047852-0.072266,0.050781
				c-0.075195,0.022461-0.31543,0.109375-0.390625,0.392578c-0.008789,0.104492-0.005859,0.349609,0.21582,0.418945
				c0.050781,0.014648,0.149414,0.043945,0.280273,0.043945l0.089844,0.000977c0.067383,0,0.137695-0.004883,0.188477-0.051758
				c0.055664-0.048828,0.141602-0.068359,0.142578-0.068359c0.086914,0.005859,0.142578,0.048828,0.163086,0.063477
				c0.104492,0.026367,0.19043,0.035156,0.274414,0.035156c0.12207,0,0.293945-0.021484,0.421875-0.128906
				c0.023438-0.032227,0.219727-0.302734,0.000977-0.551758c-0.024414-0.024414-0.091797-0.084961-0.336914-0.15332
				c-0.033203-0.011719-0.055664-0.032227-0.070313-0.058594c-0.013672-0.02832-0.014648-0.060547-0.00293-0.095703
				c0.000977-0.00293,0.129883-0.311523-0.173828-0.501953C46.948242,33.220703,46.827148,33.155273,46.679688,33.155273z"/>
		</g>
	</g>
</g>
<g>
	<g id="Deleted_Symbol_8_33_">
		<g id="Deleted_Symbol_4_33_">
			<path style="&st0;" d="M3.305664,41.62207c-0.143066-0.003906-0.183105-0.100586-0.184082-0.104492l0.039063-0.448242
				c-0.111816,0.022461-0.193848,0.022461-0.298828,0.022461c-0.166504,0-0.29541-0.039063-0.338379-0.050781
				c-0.366211-0.117188-0.407227-0.492188-0.380371-0.673828c0.086914-0.334961,0.321289-0.476563,0.453125-0.53125
				c-0.033203-0.333984,0.168945-0.561523,0.294434-0.645508c0.115234-0.083008,0.248047-0.125,0.39502-0.125
				c0.183105,0,0.333008,0.070313,0.388184,0.100586c0.336426,0.210938,0.323242,0.53125,0.302246,0.660156
				c0.229004,0.086914,0.310059,0.157227,0.338379,0.203125c0.279785,0.319336,0.119629,0.686523-0.003418,0.836914
				c-0.149902,0.138672-0.350586,0.206055-0.589355,0.206055c-0.11377,0-0.194824-0.005859-0.253906-0.018555L3.48877,41.52832
				c-0.044922,0.083984-0.132813,0.09375-0.167969,0.09375H3.305664z M3.284668,39.291992
				c-0.101074,0-0.187988,0.027344-0.270996,0.083008c-0.001953,0.001953-0.268555,0.182617-0.173828,0.498047
				c0.010742,0.032227,0.006836,0.064453-0.01123,0.09082c-0.014648,0.027344-0.044434,0.047852-0.071289,0.050781
				c-0.075195,0.022461-0.315918,0.109375-0.391113,0.392578c-0.008789,0.104492-0.005859,0.349609,0.21582,0.418945
				c0.05127,0.014648,0.149414,0.043945,0.279785,0.043945l0.089844,0.000977c0.067871,0,0.138184-0.004883,0.188965-0.051758
				c0.055176-0.048828,0.141113-0.068359,0.14209-0.068359c0.087891,0.005859,0.143066,0.048828,0.164063,0.063477
				c0.104004,0.026367,0.189941,0.035156,0.273926,0.035156c0.121582,0,0.293457-0.021484,0.421387-0.128906
				c0.023926-0.032227,0.220215-0.302734,0.000977-0.551758c-0.023926-0.024414-0.091797-0.084961-0.336914-0.15332
				c-0.032227-0.011719-0.055176-0.032227-0.069336-0.058594c-0.01416-0.02832-0.015137-0.060547-0.00293-0.095703
				c0.000977-0.00293,0.129395-0.311523-0.174316-0.501953C3.553711,39.357422,3.432617,39.291992,3.284668,39.291992z"/>
		</g>
	</g>
</g>
<g>
	<g id="Deleted_Symbol_8_25_">
		<g id="Deleted_Symbol_4_25_">
			<path style="&st0;" d="M15.705078,41.62207c-0.143066-0.003906-0.183105-0.100586-0.184082-0.104492l0.039063-0.448242
				c-0.111816,0.022461-0.193848,0.022461-0.298828,0.022461c-0.166504,0-0.29541-0.039063-0.338379-0.050781
				c-0.366211-0.117188-0.407227-0.492188-0.380371-0.673828c0.086914-0.334961,0.321289-0.476563,0.453125-0.53125
				c-0.033203-0.333984,0.168945-0.561523,0.294434-0.645508c0.115234-0.083008,0.248047-0.125,0.39502-0.125
				c0.183105,0,0.333008,0.070313,0.388184,0.100586c0.336426,0.210938,0.323242,0.53125,0.302246,0.660156
				c0.229004,0.086914,0.310059,0.157227,0.338379,0.203125c0.279785,0.319336,0.119629,0.686523-0.003418,0.836914
				c-0.149902,0.138672-0.350586,0.206055-0.589355,0.206055c-0.11377,0-0.194824-0.005859-0.253906-0.018555l0.020996,0.474609
				c-0.044922,0.083984-0.132813,0.09375-0.167969,0.09375H15.705078z M15.684082,39.291992
				c-0.101074,0-0.187988,0.027344-0.270996,0.083008c-0.001953,0.001953-0.268555,0.182617-0.173828,0.498047
				c0.010742,0.032227,0.006836,0.064453-0.01123,0.09082c-0.014648,0.027344-0.044434,0.047852-0.071289,0.050781
				c-0.075195,0.022461-0.315918,0.109375-0.391113,0.392578c-0.008789,0.104492-0.005859,0.349609,0.21582,0.418945
				c0.05127,0.014648,0.149414,0.043945,0.279785,0.043945l0.089844,0.000977c0.067871,0,0.138184-0.004883,0.188965-0.051758
				c0.055176-0.048828,0.141113-0.068359,0.14209-0.068359c0.087891,0.005859,0.143066,0.048828,0.164063,0.063477
				c0.104004,0.026367,0.189941,0.035156,0.273926,0.035156c0.121582,0,0.293457-0.021484,0.421387-0.128906
				c0.023926-0.032227,0.220215-0.302734,0.000977-0.551758c-0.023926-0.024414-0.091797-0.084961-0.336914-0.15332
				c-0.032227-0.011719-0.055176-0.032227-0.069336-0.058594c-0.01416-0.02832-0.015137-0.060547-0.00293-0.095703
				c0.000977-0.00293,0.129395-0.311523-0.174316-0.501953C15.953125,39.357422,15.832031,39.291992,15.684082,39.291992z"/>
		</g>
	</g>
</g>
<g>
	<g id="Deleted_Symbol_8_17_">
		<g id="Deleted_Symbol_4_17_">
			<path style="&st0;" d="M28.102539,41.62207c-0.142578-0.003906-0.182617-0.100586-0.183594-0.104492l0.039063-0.448242
				c-0.112305,0.022461-0.194336,0.022461-0.298828,0.022461c-0.166992,0-0.295898-0.039063-0.338867-0.050781
				c-0.366211-0.117188-0.407227-0.492188-0.379883-0.673828c0.086914-0.334961,0.320313-0.476563,0.452148-0.53125
				c-0.033203-0.333984,0.168945-0.561523,0.294922-0.645508c0.115234-0.083008,0.248047-0.125,0.395508-0.125
				c0.182617,0,0.332031,0.070313,0.387695,0.100586c0.336914,0.210938,0.323242,0.53125,0.302734,0.660156
				c0.228516,0.086914,0.30957,0.157227,0.337891,0.203125c0.279297,0.319336,0.119141,0.686523-0.003906,0.836914
				c-0.149414,0.138672-0.349609,0.206055-0.588867,0.206055c-0.114258,0-0.195313-0.005859-0.253906-0.018555l0.020508,0.474609
				c-0.044922,0.083984-0.132813,0.09375-0.167969,0.09375H28.102539z M28.082031,39.291992
				c-0.101563,0-0.188477,0.027344-0.271484,0.083008c-0.001953,0.001953-0.268555,0.182617-0.173828,0.498047
				c0.010742,0.032227,0.006836,0.064453-0.010742,0.09082c-0.014648,0.027344-0.044922,0.047852-0.072266,0.050781
				c-0.075195,0.022461-0.31543,0.109375-0.390625,0.392578c-0.008789,0.104492-0.005859,0.349609,0.21582,0.418945
				c0.050781,0.014648,0.149414,0.043945,0.280273,0.043945l0.089844,0.000977c0.067383,0,0.137695-0.004883,0.188477-0.051758
				c0.055664-0.048828,0.141602-0.068359,0.142578-0.068359c0.086914,0.005859,0.142578,0.048828,0.163086,0.063477
				c0.104492,0.026367,0.19043,0.035156,0.274414,0.035156c0.12207,0,0.293945-0.021484,0.421875-0.128906
				c0.023438-0.032227,0.219727-0.302734,0.000977-0.551758c-0.024414-0.024414-0.091797-0.084961-0.336914-0.15332
				c-0.033203-0.011719-0.055664-0.032227-0.070313-0.058594c-0.013672-0.02832-0.014648-0.060547-0.00293-0.095703
				c0.000977-0.00293,0.129883-0.311523-0.173828-0.501953C28.350586,39.357422,28.229492,39.291992,28.082031,39.291992z"/>
		</g>
	</g>
</g>
<g>
	<g id="Deleted_Symbol_8_8_">
		<g id="Deleted_Symbol_4_8_">
			<path style="&st0;" d="M40.50293,41.62207c-0.142578-0.003906-0.182617-0.100586-0.183594-0.104492l0.039063-0.448242
				c-0.112305,0.022461-0.194336,0.022461-0.298828,0.022461c-0.166992,0-0.295898-0.039063-0.338867-0.050781
				c-0.366211-0.117188-0.407227-0.492188-0.379883-0.673828c0.086914-0.334961,0.320313-0.476563,0.452148-0.53125
				c-0.033203-0.333984,0.168945-0.561523,0.294922-0.645508c0.115234-0.083008,0.248047-0.125,0.395508-0.125
				c0.182617,0,0.332031,0.070313,0.387695,0.100586c0.336914,0.210938,0.323242,0.53125,0.302734,0.660156
				c0.228516,0.086914,0.30957,0.157227,0.337891,0.203125c0.279297,0.319336,0.119141,0.686523-0.003906,0.836914
				c-0.149414,0.138672-0.349609,0.206055-0.588867,0.206055c-0.114258,0-0.195313-0.005859-0.253906-0.018555l0.020508,0.474609
				c-0.044922,0.083984-0.132813,0.09375-0.167969,0.09375H40.50293z M40.482422,39.291992
				c-0.101563,0-0.188477,0.027344-0.271484,0.083008c-0.001953,0.001953-0.268555,0.182617-0.173828,0.498047
				c0.010742,0.032227,0.006836,0.064453-0.010742,0.09082c-0.014648,0.027344-0.044922,0.047852-0.072266,0.050781
				c-0.075195,0.022461-0.31543,0.109375-0.390625,0.392578c-0.008789,0.104492-0.005859,0.349609,0.21582,0.418945
				c0.050781,0.014648,0.149414,0.043945,0.280273,0.043945l0.089844,0.000977c0.067383,0,0.137695-0.004883,0.188477-0.051758
				c0.055664-0.048828,0.141602-0.068359,0.142578-0.068359c0.086914,0.005859,0.142578,0.048828,0.163086,0.063477
				c0.104492,0.026367,0.19043,0.035156,0.274414,0.035156c0.12207,0,0.293945-0.021484,0.421875-0.128906
				c0.023438-0.032227,0.219727-0.302734,0.000977-0.551758c-0.024414-0.024414-0.091797-0.084961-0.336914-0.15332
				c-0.033203-0.011719-0.055664-0.032227-0.070313-0.058594c-0.013672-0.02832-0.014648-0.060547-0.00293-0.095703
				c0.000977-0.00293,0.129883-0.311523-0.173828-0.501953C40.750977,39.357422,40.629883,39.291992,40.482422,39.291992z"/>
		</g>
	</g>
</g>
<g>
	<g id="Deleted_Symbol_8_26_">
		<g id="Deleted_Symbol_4_26_">
			<path style="&st0;" d="M9.503906,47.760742c-0.143066-0.003906-0.183105-0.100586-0.184082-0.104492l0.039063-0.448242
				c-0.111816,0.022461-0.193848,0.022461-0.298828,0.022461c-0.166504,0-0.29541-0.039063-0.338379-0.050781
				C8.355469,47.0625,8.314453,46.6875,8.341309,46.505859c0.086914-0.334961,0.321289-0.476563,0.453125-0.53125
				c-0.033203-0.333984,0.168945-0.561523,0.294434-0.645508c0.115234-0.083008,0.248047-0.125,0.39502-0.125
				c0.183105,0,0.333008,0.070313,0.388184,0.100586c0.336426,0.210938,0.323242,0.53125,0.302246,0.660156
				c0.229004,0.086914,0.310059,0.157227,0.338379,0.203125c0.279785,0.319336,0.119629,0.686523-0.003418,0.836914
				c-0.149902,0.138672-0.350586,0.206055-0.589355,0.206055c-0.11377,0-0.194824-0.005859-0.253906-0.018555l0.020996,0.474609
				c-0.044922,0.083984-0.132813,0.09375-0.167969,0.09375H9.503906z M9.48291,45.430664
				c-0.101074,0-0.187988,0.027344-0.270996,0.083008c-0.001953,0.001953-0.268555,0.182617-0.173828,0.498047
				c0.010742,0.032227,0.006836,0.064453-0.01123,0.09082c-0.014648,0.027344-0.044434,0.047852-0.071289,0.050781
				c-0.075195,0.022461-0.315918,0.109375-0.391113,0.392578c-0.008789,0.104492-0.005859,0.349609,0.21582,0.418945
				c0.05127,0.014648,0.149414,0.043945,0.279785,0.043945l0.089844,0.000977c0.067871,0,0.138184-0.004883,0.188965-0.051758
				c0.055176-0.048828,0.141113-0.068359,0.14209-0.068359c0.087891,0.005859,0.143066,0.048828,0.164063,0.063477
				c0.104004,0.026367,0.189941,0.035156,0.273926,0.035156c0.121582,0,0.293457-0.021484,0.421387-0.128906
				c0.023926-0.032227,0.220215-0.302734,0.000977-0.551758c-0.023926-0.024414-0.091797-0.084961-0.336914-0.15332
				c-0.032227-0.011719-0.055176-0.032227-0.069336-0.058594C9.920898,46.067383,9.919922,46.035156,9.932129,46
				c0.000977-0.00293,0.129395-0.311523-0.174316-0.501953C9.751953,45.496094,9.630859,45.430664,9.48291,45.430664z"/>
		</g>
	</g>
</g>
<g>
	<g id="Deleted_Symbol_8_18_">
		<g id="Deleted_Symbol_4_18_">
			<path style="&st0;" d="M21.90332,47.760742c-0.143066-0.003906-0.183105-0.100586-0.184082-0.104492l0.039063-0.448242
				c-0.111816,0.022461-0.193848,0.022461-0.298828,0.022461c-0.166504,0-0.29541-0.039063-0.338379-0.050781
				c-0.366211-0.117188-0.407227-0.492188-0.380371-0.673828c0.086914-0.334961,0.321289-0.476563,0.453125-0.53125
				c-0.033203-0.333984,0.168945-0.561523,0.294434-0.645508c0.115234-0.083008,0.248047-0.125,0.39502-0.125
				c0.183105,0,0.333008,0.070313,0.388184,0.100586c0.336426,0.210938,0.323242,0.53125,0.302246,0.660156
				c0.229004,0.086914,0.310059,0.157227,0.338379,0.203125c0.279785,0.319336,0.119629,0.686523-0.003418,0.836914
				c-0.149902,0.138672-0.350586,0.206055-0.589355,0.206055c-0.11377,0-0.194824-0.005859-0.253906-0.018555l0.020996,0.474609
				c-0.044922,0.083984-0.132813,0.09375-0.167969,0.09375H21.90332z M21.882324,45.430664
				c-0.101074,0-0.187988,0.027344-0.270996,0.083008c-0.001953,0.001953-0.268555,0.182617-0.173828,0.498047
				c0.010742,0.032227,0.006836,0.064453-0.01123,0.09082c-0.014648,0.027344-0.044434,0.047852-0.071289,0.050781
				c-0.075195,0.022461-0.315918,0.109375-0.391113,0.392578c-0.008789,0.104492-0.005859,0.349609,0.21582,0.418945
				c0.05127,0.014648,0.149414,0.043945,0.279785,0.043945l0.089844,0.000977c0.067871,0,0.138184-0.004883,0.188965-0.051758
				c0.055176-0.048828,0.141113-0.068359,0.14209-0.068359c0.087891,0.005859,0.143066,0.048828,0.164063,0.063477
				c0.104004,0.026367,0.189941,0.035156,0.273926,0.035156c0.121582,0,0.293457-0.021484,0.421387-0.128906
				c0.023926-0.032227,0.220215-0.302734,0.000977-0.551758c-0.023926-0.024414-0.091797-0.084961-0.336914-0.15332
				c-0.032227-0.011719-0.055176-0.032227-0.069336-0.058594c-0.01416-0.02832-0.015137-0.060547-0.00293-0.095703
				c0.000977-0.00293,0.129395-0.311523-0.174316-0.501953C22.151367,45.496094,22.030273,45.430664,21.882324,45.430664z"/>
		</g>
	</g>
</g>
<g>
	<g id="Deleted_Symbol_8_10_">
		<g id="Deleted_Symbol_4_10_">
			<path style="&st0;" d="M34.301758,47.760742c-0.142578-0.003906-0.182617-0.100586-0.183594-0.104492l0.039063-0.448242
				c-0.112305,0.022461-0.194336,0.022461-0.298828,0.022461c-0.166992,0-0.295898-0.039063-0.338867-0.050781
				c-0.366211-0.117188-0.407227-0.492188-0.379883-0.673828c0.086914-0.334961,0.320313-0.476563,0.452148-0.53125
				c-0.033203-0.333984,0.168945-0.561523,0.294922-0.645508c0.115234-0.083008,0.248047-0.125,0.395508-0.125
				c0.182617,0,0.332031,0.070313,0.387695,0.100586c0.336914,0.210938,0.323242,0.53125,0.302734,0.660156
				c0.228516,0.086914,0.30957,0.157227,0.337891,0.203125c0.279297,0.319336,0.119141,0.686523-0.003906,0.836914
				c-0.149414,0.138672-0.349609,0.206055-0.588867,0.206055c-0.114258,0-0.195313-0.005859-0.253906-0.018555l0.020508,0.474609
				c-0.044922,0.083984-0.132813,0.09375-0.167969,0.09375H34.301758z M34.28125,45.430664
				c-0.101563,0-0.188477,0.027344-0.271484,0.083008c-0.001953,0.001953-0.268555,0.182617-0.173828,0.498047
				c0.010742,0.032227,0.006836,0.064453-0.010742,0.09082c-0.014648,0.027344-0.044922,0.047852-0.072266,0.050781
				c-0.075195,0.022461-0.31543,0.109375-0.390625,0.392578c-0.008789,0.104492-0.005859,0.349609,0.21582,0.418945
				c0.050781,0.014648,0.149414,0.043945,0.280273,0.043945l0.089844,0.000977c0.067383,0,0.137695-0.004883,0.188477-0.051758
				c0.055664-0.048828,0.141602-0.068359,0.142578-0.068359c0.086914,0.005859,0.142578,0.048828,0.163086,0.063477
				c0.104492,0.026367,0.19043,0.035156,0.274414,0.035156c0.12207,0,0.293945-0.021484,0.421875-0.128906
				c0.023438-0.032227,0.219727-0.302734,0.000977-0.551758c-0.024414-0.024414-0.091797-0.084961-0.336914-0.15332
				c-0.033203-0.011719-0.055664-0.032227-0.070313-0.058594C34.71875,46.067383,34.717773,46.035156,34.729492,46
				c0.000977-0.00293,0.129883-0.311523-0.173828-0.501953C34.549805,45.496094,34.428711,45.430664,34.28125,45.430664z"/>
		</g>
	</g>
</g>
<g>
	<g id="Deleted_Symbol_8_9_">
		<g id="Deleted_Symbol_4_9_">
			<path style="&st0;" d="M46.700195,47.760742c-0.142578-0.003906-0.182617-0.100586-0.183594-0.104492l0.039063-0.448242
				c-0.112305,0.022461-0.194336,0.022461-0.298828,0.022461c-0.166992,0-0.295898-0.039063-0.338867-0.050781
				c-0.366211-0.117188-0.407227-0.492188-0.379883-0.673828c0.086914-0.334961,0.320313-0.476563,0.452148-0.53125
				c-0.033203-0.333984,0.168945-0.561523,0.294922-0.645508c0.115234-0.083008,0.248047-0.125,0.395508-0.125
				c0.182617,0,0.332031,0.070313,0.387695,0.100586c0.336914,0.210938,0.323242,0.53125,0.302734,0.660156
				c0.228516,0.086914,0.30957,0.157227,0.337891,0.203125c0.279297,0.319336,0.119141,0.686523-0.003906,0.836914
				c-0.149414,0.138672-0.349609,0.206055-0.588867,0.206055c-0.114258,0-0.195313-0.005859-0.253906-0.018555l0.020508,0.474609
				c-0.044922,0.083984-0.132813,0.09375-0.167969,0.09375H46.700195z M46.679688,45.430664
				c-0.101563,0-0.188477,0.027344-0.271484,0.083008c-0.001953,0.001953-0.268555,0.182617-0.173828,0.498047
				c0.010742,0.032227,0.006836,0.064453-0.010742,0.09082c-0.014648,0.027344-0.044922,0.047852-0.072266,0.050781
				c-0.075195,0.022461-0.31543,0.109375-0.390625,0.392578c-0.008789,0.104492-0.005859,0.349609,0.21582,0.418945
				c0.050781,0.014648,0.149414,0.043945,0.280273,0.043945l0.089844,0.000977c0.067383,0,0.137695-0.004883,0.188477-0.051758
				c0.055664-0.048828,0.141602-0.068359,0.142578-0.068359c0.086914,0.005859,0.142578,0.048828,0.163086,0.063477
				c0.104492,0.026367,0.19043,0.035156,0.274414,0.035156c0.12207,0,0.293945-0.021484,0.421875-0.128906
				c0.023438-0.032227,0.219727-0.302734,0.000977-0.551758c-0.024414-0.024414-0.091797-0.084961-0.336914-0.15332
				c-0.033203-0.011719-0.055664-0.032227-0.070313-0.058594C47.117188,46.067383,47.116211,46.035156,47.12793,46
				c0.000977-0.00293,0.129883-0.311523-0.173828-0.501953C46.948242,45.496094,46.827148,45.430664,46.679688,45.430664z"/>
		</g>
	</g>
</g>
</svg>
