<?xml version="1.0" encoding="utf-8"?>
<!-- Generator: Adobe Illustrator 16.0.3, SVG Export Plug-In . SVG Version: 6.00 Build 0)  -->
<!DOCTYPE svg PUBLIC "-//W3C//DTD SVG 1.1//EN" "http://www.w3.org/Graphics/SVG/1.1/DTD/svg11.dtd">
<svg version="1.1" id="Layer_1" xmlns="http://www.w3.org/2000/svg" xmlns:xlink="http://www.w3.org/1999/xlink" x="0px" y="0px"
	 width="50px" height="50px" viewBox="0 0 50 50" style="enable-background:new 0 0 50 50;" xml:space="preserve">
<g id="scrub_x5F_bd_6_">
	<g id="Scrub_x5F_FC_8_">
		<g id="Deleted_Symbol_1_8_">
			<path style="fill:#A9CDA6;" d="M6.785156,41.176758c-0.028809,0-0.053711-0.019531-0.0625-0.046875L6.57373,40.645508
				c-0.010254-0.032227,0.006836-0.067383,0.039063-0.081055l0.07666-0.029297
				c0.012207-0.000977,0.023438-0.001953,0.032227-0.001953c0.036621,0.011719,0.04834,0.026367,0.054688,0.043945
				l0.146973,0.494141c0.009766,0.035156-0.009277,0.071289-0.042969,0.082031
				c-0.041016,0.012695-0.068359,0.018555-0.081055,0.021484L6.785156,41.176758z"/>
			<path style="fill:#A9CDA6;" d="M7.705078,41.053711c-0.039063,0-0.070801-0.032227-0.071777-0.072266l-0.006348-0.49707
				c0-0.039063-0.013672-0.057617-0.024902-0.069336c-0.013672-0.014648-0.035645-0.022461-0.060059-0.022461
				c-0.023926,0-0.063965,0.007813-0.11377,0.048828c-0.013184,0.009766-0.027832,0.014648-0.044922,0.014648
				c-0.038086-0.004883-0.052246-0.019531-0.059082-0.03125L7.27832,40.356445
				c-0.021973-0.033203-0.01416-0.076172,0.019043-0.099609c0.085938-0.060547,0.174805-0.09375,0.255859-0.09375
				c0.085938,0,0.162109,0.038086,0.217773,0.109375c0.047852,0.063477,0.072754,0.134766,0.072754,0.211914l0.005859,0.461914
				l0.005859,0.037109c0,0.037109-0.032715,0.069336-0.071289,0.070313H7.705078z"/>
			<path style="fill:#A9CDA6;" d="M9.844238,41.120117c-0.026855-0.005859-0.053223-0.012695-0.076172-0.019531
				c-0.033691-0.010742-0.053711-0.045898-0.043945-0.080078l0.144043-0.496094
				c0.004883-0.017578,0.01709-0.03125,0.032715-0.040039l0.133789,0.023438c0.033203,0.012695,0.05127,0.048828,0.041016,0.082031
				l-0.154785,0.486328c-0.009277,0.02832-0.033691,0.045898-0.060547,0.045898L9.844238,41.120117z"/>
			<path style="fill:#A9CDA6;" d="M8.749512,41.011719c-0.046875,0-0.09375-0.017578-0.139648-0.050781
				c0.006836-0.013672-0.174316-0.900391-0.364258-1.183594c-0.024902-0.046875-0.037109-0.09668-0.030762-0.106445
				c0.045898,0.007813,0.09375,0.026367,0.168945,0.072266c0.015137,0.012695,0.185059,0.107422,0.291016,0.600586
				l0.036133,0.116211c0.016602-0.027344,0.044922-1.038086,0.400391-1.194336
				c0.032715-0.020508,0.084961-0.045898,0.111816-0.050781c-0.005859,0.006836-0.01416,0.032227-0.053711,0.09375
				c-0.01123,0.016602-0.214355,0.339844-0.225098,0.792969v0.117188c0.022949-0.013672,0.171875-0.28418,0.44873-0.342773
				c0.033203-0.012695,0.052246-0.015625,0.062988-0.016602c-0.008789,0.004883-0.022949,0.035156-0.09668,0.115234
				c-0.000977,0.000977-0.167969,0.170898-0.461914,0.776367l-0.024414,0.234375
				C8.849121,40.987305,8.806641,41.011719,8.749512,41.011719z"/>
		</g>
	</g>
</g>
<g id="boulder_x5F_bd_2_">
	<path style="fill:#BEBEB4;" d="M5.250977,37.74707c-0.008301,0.000977-0.040039,0.038086-0.037109,0.076172
		s0.032715,0.088867,0.079102,0.085938c0.045898-0.00293,0.210938,0.006836,0.362305,0.019531
		c0.151855,0.012695,0.507324-0.004883,0.662598-0.012695c0.154297-0.007813,0.365234-0.030273,0.492188-0.041016
		c0.125977-0.010742,0.303711-0.010742,0.428223-0.010742c0.125,0,0.322266,0.023438,0.447754,0.035156
		c0.125977,0.010742,0.214844-0.027344,0.217773-0.06543s-0.044922-0.089844-0.108887-0.095703s-0.102051-0.02832-0.083008-0.049805
		s0.058105-0.081055,0.085938-0.131836c0.027832-0.051758,0.065918-0.144531,0.083984-0.208984
		c0.018066-0.063477,0.036133-0.166992,0.040039-0.227539s0.000977-0.164063-0.008789-0.229492
		c-0.008301-0.063477-0.038086-0.148438-0.064453-0.19043c-0.025879-0.041992-0.077637-0.103516-0.11377-0.135742
		c-0.037109-0.032227-0.102051-0.078125-0.145508-0.100586c-0.042969-0.021484-0.119141-0.048828-0.166992-0.058594
		s-0.12793-0.016602-0.177246-0.014648c-0.049805,0.003906-0.127441,0.018555-0.17334,0.033203
		c-0.045898,0.015625-0.12793,0.047852-0.181152,0.072266c-0.051758,0.023438-0.112793,0.061523-0.133301,0.083984
		c-0.02002,0.022461-0.084961,0.060547-0.145996,0.074219c-0.460449,0.102539-0.613281,0.333008-0.701172,0.40918
		c-0.087891,0.075195-0.150879,0.171875-0.152832,0.171875s-0.007813,0.003906-0.013184,0.009766
		C5.739258,37.25,5.732422,37.254883,5.728516,37.256836c-0.003418,0.000977-0.008301,0.004883-0.009277,0.006836
		s-0.004883,0.006836-0.008789,0.008789c-0.00293,0.001953-0.007324,0.007813-0.009277,0.011719
		s-0.003906,0.007813-0.005859,0.009766s-0.004883,0.007813-0.006836,0.012695
		c-0.001953,0.005859-0.04834,0.032227-0.102051,0.060547c-0.054688,0.02832-0.145508,0.091797-0.203613,0.142578
		c-0.057129,0.050781-0.106934,0.124023-0.109863,0.164063C5.269043,37.712891,5.258789,37.746094,5.250977,37.74707z
		 M5.409668,37.735352c-0.001953,0-0.00293-0.015625-0.000977-0.033203c0.000977-0.018555,0.037109-0.064453,0.080078-0.101563
		c0.041992-0.037109,0.105469-0.083008,0.142578-0.102539c0.038086-0.018555,0.067871-0.033203,0.068848-0.03125
		s0.004883,0.006836,0.009277,0.011719c0.004883,0.003906,0.039063,0.033203,0.07666,0.064453
		c0.038086,0.030273,0.108398,0.073242,0.157227,0.092773c0.047363,0.021484,0.130371,0.041016,0.182617,0.044922
		c0.051758,0.004883,0.133789,0,0.182617-0.010742c0.050293-0.008789,0.08252-0.048828,0.074707-0.084961
		s-0.049316-0.058594-0.093262-0.048828c-0.043457,0.009766-0.111328,0.014648-0.151367,0.010742
		s-0.104004-0.019531-0.143066-0.036133c-0.037598-0.014648-0.096191-0.046875-0.124512-0.075195
		c-0.087891-0.09375,0.062988-0.229492,0.153809-0.306641c0.09082-0.079102,0.290039-0.311523,0.580566-0.330078
		c0.025879-0.000977,0.043945,0.010742,0.042969,0.038086c-0.000977,0.02832,0.027832,0.120117,0.038086,0.152344
		c0.010742,0.032227,0.16748,0.149414,0.222168,0.0625c0.02002-0.032227-0.09375-0.086914-0.103027-0.111328
		c-0.007813-0.025391-0.020996-0.089844-0.020996-0.113281c0.000977-0.023438,0.008301-0.056641,0.01709-0.075195
		c0.007324-0.019531,0.026855-0.049805,0.042969-0.066406c0.01709-0.018555,0.066895-0.048828,0.112305-0.068359
		c0.044922-0.021484,0.11377-0.046875,0.152832-0.061523c0.039063-0.013672,0.102539-0.024414,0.141602-0.026367
		s0.103027,0.00293,0.141113,0.010742c0.038574,0.007813,0.098633,0.029297,0.132813,0.045898
		c0.035156,0.018555,0.086426,0.052734,0.115723,0.080078c0.029785,0.027344,0.069824,0.073242,0.088867,0.102539
		c0.02002,0.030273,0.041992,0.097656,0.048828,0.148438c0.006836,0.051758,0.010254,0.139648,0.005859,0.196289
		C7.780762,37.167969,7.764648,37.257813,7.75,37.3125c-0.016113,0.054688-0.050293,0.135742-0.076172,0.181641
		s-0.072754,0.112305-0.104492,0.150391c-0.033203,0.038086-0.072754,0.067383-0.09082,0.06543
		c-0.016113-0.000977-0.13623-0.001953-0.265137-0.001953c-0.128418,0-0.338379,0.009766-0.463867,0.022461
		c-0.125977,0.011719-0.354004,0.026367-0.505859,0.033203c-0.150879,0.008789-0.399414,0.004883-0.552246-0.007813
		C5.538574,37.745117,5.411621,37.735352,5.409668,37.735352z"/>
</g>
<g id="scrub_x5F_bd_9_" style="enable-background:new    ;">
	<g id="Scrub_x5F_FC_11_">
		<g id="Deleted_Symbol_1_11_">
			<path style="fill:#A9CDA6;" d="M24.966309,35.901367c-0.028809,0-0.053711-0.019531-0.0625-0.046875l-0.148926-0.484375
				c-0.010254-0.032227,0.006836-0.067383,0.039063-0.081055l0.07666-0.029297
				c0.012207-0.000977,0.023438-0.001953,0.032227-0.001953c0.036621,0.011719,0.04834,0.026367,0.054688,0.043945
				l0.146973,0.494141c0.009766,0.035156-0.009277,0.071289-0.042969,0.082031
				c-0.041016,0.012695-0.068359,0.018555-0.081055,0.021484L24.966309,35.901367z"/>
			<path style="fill:#A9CDA6;" d="M25.885742,35.77832c-0.039063,0-0.070313-0.032227-0.071289-0.072266l-0.006836-0.49707
				c0-0.039063-0.013672-0.057617-0.024414-0.069336c-0.013672-0.014648-0.036133-0.022461-0.060547-0.022461
				c-0.023438,0-0.063477,0.007813-0.113281,0.048828c-0.013672,0.009766-0.02832,0.014648-0.044922,0.014648
				c-0.038086-0.004883-0.052734-0.019531-0.05957-0.03125l-0.04541-0.068359
				c-0.021973-0.033203-0.01416-0.076172,0.019043-0.099609c0.085938-0.060547,0.174805-0.09375,0.255859-0.09375
				c0.085938,0,0.162109,0.038086,0.217773,0.109375C26,35.060547,26.025391,35.131836,26.025391,35.208984l0.005859,0.461914
				l0.005859,0.037109c0,0.037109-0.033203,0.069336-0.072266,0.070313H25.885742z"/>
			<path style="fill:#A9CDA6;" d="M28.025391,35.844727c-0.027344-0.005859-0.053711-0.012695-0.076172-0.019531
				c-0.03418-0.010742-0.053711-0.045898-0.043945-0.080078l0.143555-0.496094
				c0.004883-0.017578,0.017578-0.03125,0.033203-0.040039l0.133789,0.023438
				c0.033203,0.012695,0.051758,0.048828,0.041016,0.082031l-0.154297,0.486328
				c-0.009766,0.02832-0.03418,0.045898-0.061523,0.045898L28.025391,35.844727z"/>
			<path style="fill:#A9CDA6;" d="M26.930664,35.736328c-0.046875,0-0.09375-0.017578-0.139648-0.050781
				c0.006836-0.013672-0.174805-0.900391-0.364258-1.183594c-0.024414-0.046875-0.037109-0.09668-0.030273-0.106445
				c0.045898,0.007813,0.09375,0.026367,0.167969,0.072266c0.015625,0.012695,0.185547,0.107422,0.291016,0.600586
				l0.036133,0.116211c0.016602-0.027344,0.044922-1.038086,0.401367-1.194336
				c0.032227-0.020508,0.084961-0.045898,0.111328-0.050781c-0.005859,0.006836-0.013672,0.032227-0.053711,0.09375
				c-0.010742,0.016602-0.213867,0.339844-0.224609,0.792969v0.117188c0.022461-0.013672,0.171875-0.28418,0.448242-0.342773
				c0.033203-0.012695,0.051758-0.015625,0.0625-0.016602c-0.008789,0.004883-0.022461,0.035156-0.095703,0.115234
				c-0.000977,0.000977-0.167969,0.170898-0.461914,0.776367l-0.024414,0.234375
				C27.030273,35.711914,26.987305,35.736328,26.930664,35.736328z"/>
		</g>
	</g>
</g>
<g id="boulder_x5F_bd_5_" style="enable-background:new    ;">
	<path style="fill:#BEBEB4;" d="M23.431641,32.47168c-0.008301,0.000977-0.040039,0.038086-0.037109,0.076172
		s0.032715,0.088867,0.079102,0.085938c0.045898-0.00293,0.210938,0.006836,0.362305,0.019531
		c0.151855,0.012695,0.507324-0.004883,0.662598-0.012695c0.154297-0.007813,0.365234-0.030273,0.492188-0.041016
		c0.125977-0.010742,0.303711-0.010742,0.428223-0.010742c0.125,0,0.322266,0.023438,0.448242,0.035156
		c0.125,0.010742,0.213867-0.027344,0.216797-0.06543s-0.044922-0.089844-0.108398-0.095703s-0.101563-0.02832-0.083008-0.049805
		c0.019531-0.021484,0.058594-0.081055,0.085938-0.131836c0.027344-0.051758,0.06543-0.144531,0.083984-0.208984
		c0.017578-0.063477,0.036133-0.166992,0.040039-0.227539s0.000977-0.164063-0.008789-0.229492
		c-0.008789-0.063477-0.038086-0.148438-0.064453-0.19043s-0.077148-0.103516-0.113281-0.135742
		c-0.037109-0.032227-0.102539-0.078125-0.146484-0.100586c-0.042969-0.021484-0.119141-0.048828-0.166992-0.058594
		c-0.046875-0.009766-0.127441-0.016602-0.176758-0.014648c-0.049805,0.003906-0.127441,0.018555-0.17334,0.033203
		c-0.045898,0.015625-0.12793,0.047852-0.181152,0.072266c-0.051758,0.023438-0.112793,0.061523-0.133301,0.083984
		c-0.02002,0.022461-0.084961,0.060547-0.145996,0.074219c-0.460449,0.102539-0.613281,0.333008-0.701172,0.40918
		c-0.087891,0.075195-0.150879,0.171875-0.152832,0.171875s-0.007813,0.003906-0.013184,0.009766
		c-0.004883,0.004883-0.011719,0.009766-0.015625,0.011719c-0.003418,0.000977-0.008301,0.004883-0.009277,0.006836
		s-0.004883,0.006836-0.008789,0.008789c-0.00293,0.001953-0.007324,0.007813-0.009277,0.011719
		s-0.003906,0.007813-0.005859,0.009766s-0.004883,0.007813-0.006836,0.012695
		c-0.001953,0.005859-0.04834,0.032227-0.102051,0.060547c-0.054688,0.02832-0.145508,0.091797-0.203613,0.142578
		c-0.057129,0.050781-0.106934,0.124023-0.109863,0.164063C23.449707,32.4375,23.439453,32.470703,23.431641,32.47168z
		 M23.590332,32.459961c-0.001953,0-0.00293-0.015625-0.000977-0.033203c0.000977-0.018555,0.037109-0.064453,0.080078-0.101563
		c0.041992-0.037109,0.105469-0.083008,0.142578-0.102539c0.038086-0.018555,0.067871-0.033203,0.068848-0.03125
		s0.004883,0.006836,0.009277,0.011719c0.004883,0.003906,0.039063,0.033203,0.07666,0.064453
		c0.038086,0.030273,0.108398,0.073242,0.157227,0.092773c0.047363,0.021484,0.130371,0.041016,0.182617,0.044922
		c0.051758,0.004883,0.133789,0,0.182617-0.010742c0.050293-0.008789,0.08252-0.048828,0.074707-0.084961
		s-0.049316-0.058594-0.093262-0.048828c-0.043457,0.009766-0.111328,0.014648-0.151367,0.010742
		s-0.104004-0.019531-0.143066-0.036133c-0.037598-0.014648-0.096191-0.046875-0.124512-0.075195
		c-0.087891-0.09375,0.062988-0.229492,0.153809-0.306641c0.09082-0.079102,0.290039-0.311523,0.580566-0.330078
		c0.025879-0.000977,0.043945,0.010742,0.042969,0.038086c-0.000977,0.02832,0.027832,0.120117,0.038086,0.152344
		c0.010742,0.032227,0.16748,0.149414,0.222168,0.0625c0.02002-0.032227-0.09375-0.086914-0.103027-0.111328
		c-0.007813-0.025391-0.020996-0.089844-0.020996-0.113281c0.000977-0.023438,0.008301-0.056641,0.01709-0.075195
		c0.007324-0.019531,0.026855-0.049805,0.042969-0.066406c0.01709-0.018555,0.066895-0.048828,0.112305-0.068359
		c0.044922-0.021484,0.11377-0.046875,0.152832-0.061523c0.039063-0.013672,0.102539-0.024414,0.141602-0.026367
		s0.103027,0.00293,0.141113,0.010742s0.098633,0.029297,0.132813,0.045898c0.035156,0.018555,0.086914,0.052734,0.116211,0.080078
		s0.069336,0.073242,0.088867,0.102539c0.019531,0.030273,0.041992,0.097656,0.048828,0.148438
		c0.006836,0.051758,0.009766,0.139648,0.005859,0.196289c-0.003906,0.054688-0.020508,0.144531-0.035156,0.199219
		c-0.015625,0.054688-0.049805,0.135742-0.076172,0.181641c-0.025391,0.045898-0.072266,0.112305-0.104492,0.150391
		c-0.033203,0.038086-0.073242,0.067383-0.09082,0.06543c-0.016602-0.000977-0.135742-0.001953-0.265137-0.001953
		c-0.128418,0-0.338379,0.009766-0.463867,0.022461c-0.125977,0.011719-0.354004,0.026367-0.505859,0.033203
		c-0.150879,0.008789-0.399414,0.004883-0.552246-0.007813C23.719238,32.469727,23.592285,32.459961,23.590332,32.459961z"/>
</g>
<g id="scrub_x5F_bd_4_" style="enable-background:new    ;">
	<g id="Scrub_x5F_FC_6_">
		<g id="Deleted_Symbol_1_6_">
			<path style="fill:#A9CDA6;" d="M4.577148,27.219727c-0.028809,0-0.053711-0.019531-0.0625-0.046875l-0.148926-0.484375
				c-0.010254-0.032227,0.006836-0.067383,0.039063-0.081055l0.07666-0.029297
				c0.012207-0.000977,0.023438-0.001953,0.032227-0.001953c0.036621,0.011719,0.04834,0.026367,0.054688,0.043945
				l0.146973,0.494141c0.009766,0.035156-0.009277,0.071289-0.042969,0.082031
				c-0.041016,0.012695-0.068359,0.018555-0.081055,0.021484L4.577148,27.219727z"/>
			<path style="fill:#A9CDA6;" d="M5.49707,27.09668c-0.039063,0-0.070801-0.032227-0.071777-0.072266l-0.006348-0.49707
				c0-0.039063-0.013672-0.057617-0.024902-0.069336c-0.013672-0.014648-0.035645-0.022461-0.060059-0.022461
				c-0.023926,0-0.063965,0.007813-0.11377,0.048828c-0.013184,0.009766-0.027832,0.014648-0.044922,0.014648
				c-0.038086-0.004883-0.052246-0.019531-0.059082-0.03125l-0.045898-0.068359
				c-0.021973-0.033203-0.01416-0.076172,0.019043-0.099609c0.085938-0.060547,0.174805-0.09375,0.255859-0.09375
				c0.085938,0,0.162109,0.038086,0.217773,0.109375c0.047852,0.063477,0.072754,0.134766,0.072754,0.211914l0.005859,0.461914
				l0.005859,0.037109c0,0.037109-0.032715,0.069336-0.071289,0.070313H5.49707z"/>
			<path style="fill:#A9CDA6;" d="M7.63623,27.163086c-0.026855-0.005859-0.053223-0.012695-0.076172-0.019531
				c-0.033691-0.010742-0.053711-0.045898-0.043945-0.080078l0.144043-0.496094
				c0.004883-0.017578,0.01709-0.03125,0.032715-0.040039l0.133789,0.023438c0.033203,0.012695,0.05127,0.048828,0.041016,0.082031
				l-0.154785,0.486328c-0.009277,0.02832-0.033691,0.045898-0.060547,0.045898L7.63623,27.163086z"/>
			<path style="fill:#A9CDA6;" d="M6.541504,27.054688c-0.046875,0-0.09375-0.017578-0.139648-0.050781
				c0.006836-0.013672-0.174316-0.900391-0.364258-1.183594c-0.024902-0.046875-0.037109-0.09668-0.030762-0.106445
				c0.045898,0.007813,0.09375,0.026367,0.168945,0.072266c0.015137,0.012695,0.185059,0.107422,0.291016,0.600586L6.50293,26.50293
				c0.016602-0.027344,0.044922-1.037598,0.400391-1.193848c0.032715-0.020508,0.084961-0.045898,0.111816-0.050781
				c-0.005859,0.006836-0.01416,0.032227-0.053711,0.09375c-0.01123,0.016602-0.214355,0.339355-0.225098,0.79248v0.117188
				c0.022949-0.013672,0.171875-0.28418,0.44873-0.342773c0.033203-0.012695,0.052246-0.015625,0.062988-0.016602
				c-0.008789,0.004883-0.022949,0.035156-0.09668,0.115234c-0.000977,0.000977-0.167969,0.170898-0.461914,0.776367
				L6.665039,27.02832C6.641113,27.030273,6.598633,27.054688,6.541504,27.054688z"/>
		</g>
	</g>
</g>
<g id="boulder_x5F_bd_3_" style="enable-background:new    ;">
	<path style="fill:#BEBEB4;" d="M3.042969,23.790527c-0.008301,0.000977-0.040039,0.037598-0.037109,0.075684
		s0.032715,0.088867,0.079102,0.085938c0.045898-0.00293,0.210938,0.006836,0.362305,0.019531
		c0.151855,0.012695,0.507324-0.004883,0.662598-0.012695c0.154297-0.007813,0.365234-0.030273,0.492188-0.041016
		c0.125977-0.010742,0.303711-0.010742,0.428223-0.010742c0.125,0,0.322266,0.023438,0.447754,0.035156
		c0.125977,0.010742,0.214844-0.027344,0.217773-0.06543s-0.044922-0.089355-0.108887-0.095215s-0.102051-0.02832-0.083008-0.049805
		s0.058105-0.081055,0.085938-0.132813s0.065918-0.144531,0.083984-0.208496c0.018066-0.063477,0.036133-0.166992,0.040039-0.227539
		s0.000977-0.163574-0.008789-0.229004c-0.008301-0.063477-0.038086-0.149414-0.064453-0.191406
		c-0.025879-0.041992-0.077637-0.103516-0.11377-0.135742c-0.037109-0.031738-0.102051-0.077637-0.145508-0.100098
		c-0.042969-0.021484-0.119141-0.048828-0.166992-0.058594s-0.12793-0.016602-0.177246-0.014648
		c-0.049805,0.003906-0.127441,0.018555-0.17334,0.033203c-0.045898,0.015625-0.12793,0.047852-0.181152,0.072266
		c-0.051758,0.023438-0.112793,0.061035-0.133301,0.083496c-0.02002,0.022461-0.084961,0.060547-0.145996,0.074219
		c-0.460449,0.103516-0.613281,0.333496-0.701172,0.409668C3.614258,23.181641,3.55127,23.27832,3.549316,23.27832
		s-0.007813,0.003906-0.013184,0.009766c-0.004883,0.004883-0.011719,0.009766-0.015625,0.011719
		c-0.003418,0.000977-0.008301,0.004883-0.009277,0.006836s-0.004883,0.006836-0.008789,0.008789
		c-0.00293,0.001953-0.007324,0.007813-0.009277,0.011719s-0.003906,0.007813-0.005859,0.009766
		s-0.004883,0.007813-0.006836,0.012695c-0.001953,0.005859-0.04834,0.032227-0.102051,0.060059
		c-0.054688,0.02832-0.145508,0.091797-0.203613,0.142578c-0.057129,0.050781-0.106934,0.125-0.109863,0.165039
		C3.061035,23.756348,3.050781,23.789551,3.042969,23.790527z M3.20166,23.778809c-0.001953,0-0.00293-0.015625-0.000977-0.033203
		c0.000977-0.018555,0.037109-0.064453,0.080078-0.101563c0.041992-0.038086,0.105469-0.083984,0.142578-0.103516
		c0.038086-0.018555,0.067871-0.033203,0.068848-0.03125s0.004883,0.006836,0.009277,0.011719
		c0.004883,0.003906,0.039063,0.033203,0.07666,0.064453c0.038086,0.03125,0.108398,0.074219,0.157227,0.09375
		c0.047363,0.021484,0.130371,0.041016,0.182617,0.044922c0.051758,0.004883,0.133789,0,0.182617-0.010742
		c0.050293-0.008789,0.08252-0.048828,0.074707-0.084961c-0.007813-0.037109-0.049316-0.05957-0.093262-0.049805
		c-0.043457,0.009766-0.111328,0.014648-0.151367,0.010742s-0.104004-0.019531-0.143066-0.036133
		C3.75,23.538574,3.691406,23.506348,3.663086,23.478027c-0.087891-0.093262,0.062988-0.229004,0.153809-0.306152
		c0.09082-0.079102,0.290039-0.311035,0.580566-0.32959c0.025879-0.000977,0.043945,0.010742,0.042969,0.038086
		c-0.000977,0.02832,0.027832,0.120117,0.038086,0.151855c0.010742,0.032227,0.16748,0.149414,0.222168,0.0625
		c0.02002-0.032227-0.09375-0.086914-0.103027-0.11084c-0.007813-0.025391-0.020996-0.089844-0.020996-0.113281
		c0.000977-0.023438,0.008301-0.056641,0.01709-0.076172c0.007324-0.019531,0.026855-0.049805,0.042969-0.066406
		c0.01709-0.018555,0.066895-0.048828,0.112305-0.068359c0.044922-0.021484,0.11377-0.046875,0.152832-0.061523
		c0.039063-0.013184,0.102539-0.023926,0.141602-0.025879s0.103027,0.00293,0.141113,0.010742
		c0.038574,0.007813,0.098633,0.028809,0.132813,0.04541c0.035156,0.018555,0.086426,0.052734,0.115723,0.080078
		c0.029785,0.027344,0.069824,0.073242,0.088867,0.103516c0.02002,0.030273,0.041992,0.097656,0.048828,0.148438
		c0.006836,0.05127,0.010254,0.13916,0.005859,0.195801c-0.003906,0.054688-0.02002,0.144531-0.034668,0.199219
		c-0.016113,0.054199-0.050293,0.135254-0.076172,0.181152s-0.072754,0.113281-0.104492,0.151367
		c-0.033203,0.038086-0.072754,0.067383-0.09082,0.06543c-0.016113-0.000977-0.13623-0.001953-0.265137-0.001953
		c-0.128418,0-0.338379,0.009766-0.463867,0.022461c-0.125977,0.011719-0.354004,0.026367-0.505859,0.033203
		c-0.150879,0.008789-0.399414,0.004883-0.552246-0.007813C3.330566,23.788574,3.203613,23.778809,3.20166,23.778809z"/>
</g>
<g id="scrub_x5F_bd_3_" style="enable-background:new    ;">
	<g id="Scrub_x5F_FC_5_">
		<g id="Deleted_Symbol_1_5_">
			<path style="fill:#A9CDA6;" d="M8.969727,16.809082c-0.028809,0-0.053711-0.019531-0.0625-0.046875L8.758301,16.27832
				c-0.010254-0.032227,0.006836-0.067383,0.039063-0.081055l0.07666-0.029297
				c0.012207-0.000977,0.023438-0.001953,0.032227-0.001953c0.036621,0.011719,0.04834,0.026367,0.054688,0.043945
				l0.146973,0.493652c0.009766,0.035156-0.009277,0.071289-0.042969,0.082031
				c-0.041016,0.012695-0.068359,0.018555-0.081055,0.021484L8.969727,16.809082z"/>
			<path style="fill:#A9CDA6;" d="M9.889648,16.686035c-0.039063,0-0.070801-0.032227-0.071777-0.072266l-0.006348-0.496582
				c0-0.039063-0.013672-0.057617-0.024902-0.069336c-0.013672-0.014648-0.035645-0.022461-0.060059-0.022461
				c-0.023926,0-0.063965,0.007813-0.11377,0.048828c-0.013184,0.009766-0.027832,0.014648-0.044922,0.014648
				c-0.038086-0.004883-0.052246-0.019531-0.059082-0.03125l-0.045898-0.068359
				c-0.021973-0.033203-0.01416-0.076172,0.019043-0.099609c0.085938-0.060547,0.174805-0.09375,0.255859-0.09375
				c0.085938,0,0.162109,0.038086,0.217773,0.109375c0.047852,0.063477,0.072754,0.134766,0.072754,0.211914l0.005859,0.461426
				l0.005859,0.037109c0,0.037109-0.032715,0.069336-0.071289,0.070313H9.889648z"/>
			<path style="fill:#A9CDA6;" d="M12.028809,16.752441c-0.026855-0.005859-0.053223-0.012695-0.076172-0.019531
				c-0.033691-0.010742-0.053711-0.045898-0.043945-0.080078l0.144043-0.495605
				c0.004883-0.017578,0.01709-0.03125,0.032715-0.040039l0.133789,0.023438c0.033203,0.012695,0.05127,0.048828,0.041016,0.082031
				l-0.154785,0.48584c-0.009277,0.02832-0.033691,0.045898-0.060547,0.045898L12.028809,16.752441z"/>
			<path style="fill:#A9CDA6;" d="M10.934082,16.644043c-0.046875,0-0.09375-0.017578-0.139648-0.050781
				c0.006836-0.013672-0.174316-0.899902-0.364258-1.183105c-0.024902-0.046875-0.037109-0.09668-0.030762-0.105957
				c0.045898,0.007324,0.09375,0.025879,0.168945,0.071777c0.015137,0.012695,0.185059,0.107422,0.291016,0.600586
				l0.036133,0.116211c0.016602-0.027344,0.044922-1.037598,0.400391-1.193848
				c0.032715-0.020508,0.084961-0.045898,0.111816-0.050781c-0.005859,0.006836-0.01416,0.032227-0.053711,0.09375
				c-0.01123,0.016602-0.214355,0.339844-0.225098,0.79248v0.117188c0.022949-0.013672,0.171875-0.28418,0.44873-0.342773
				c0.033203-0.012695,0.052246-0.015625,0.062988-0.016602c-0.008789,0.004883-0.022949,0.035156-0.09668,0.115234
				c-0.000977,0.000977-0.167969,0.170898-0.461914,0.775879l-0.024414,0.234375
				C11.033691,16.619629,10.991211,16.644043,10.934082,16.644043z"/>
		</g>
	</g>
</g>
<g id="boulder_x5F_bd_4_" style="enable-background:new    ;">
	<path style="fill:#BEBEB4;" d="M7.435547,13.380371c-0.008301,0.000977-0.040039,0.037598-0.037109,0.075684
		s0.032715,0.088867,0.079102,0.085938c0.045898-0.00293,0.210938,0.006836,0.362305,0.019531
		c0.151855,0.012695,0.507324-0.004883,0.662598-0.012695c0.154297-0.007813,0.365234-0.030273,0.492188-0.041016
		C9.120605,13.49707,9.29834,13.49707,9.422852,13.49707c0.125,0,0.322266,0.023438,0.447754,0.035156
		c0.125977,0.010742,0.214844-0.027344,0.217773-0.06543s-0.044922-0.089355-0.108887-0.095215s-0.102051-0.02832-0.083008-0.049805
		s0.058105-0.081055,0.085938-0.132813s0.065918-0.144531,0.083984-0.208496c0.018066-0.063477,0.036133-0.166992,0.040039-0.227539
		s0.000977-0.163574-0.008789-0.229004c-0.008301-0.063477-0.038086-0.149414-0.064453-0.191406
		c-0.025879-0.041992-0.077637-0.103516-0.11377-0.135742c-0.037109-0.031738-0.102051-0.077637-0.145508-0.100098
		c-0.042969-0.021484-0.119141-0.048828-0.166992-0.058594s-0.12793-0.016602-0.177246-0.014648
		c-0.049805,0.003906-0.127441,0.018555-0.17334,0.033203c-0.045898,0.015625-0.12793,0.047852-0.181152,0.072266
		c-0.051758,0.023438-0.112793,0.061035-0.133301,0.083496c-0.02002,0.022461-0.084961,0.060547-0.145996,0.074219
		c-0.460449,0.103516-0.613281,0.333496-0.701172,0.409668c-0.087891,0.075195-0.150879,0.171875-0.152832,0.171875
		S7.934082,12.87207,7.928711,12.87793c-0.004883,0.004883-0.011719,0.009766-0.015625,0.011719
		c-0.003418,0.000977-0.008301,0.004883-0.009277,0.006836S7.898926,12.90332,7.89502,12.905273
		c-0.00293,0.001953-0.007324,0.007813-0.009277,0.011719s-0.003906,0.007813-0.005859,0.009766S7.875,12.93457,7.873047,12.939453
		c-0.001953,0.005859-0.04834,0.032227-0.102051,0.060059c-0.054688,0.02832-0.145508,0.091797-0.203613,0.142578
		c-0.057129,0.050781-0.106934,0.125-0.109863,0.165039C7.453613,13.346191,7.443359,13.379395,7.435547,13.380371z
		 M7.594238,13.368652c-0.001953,0-0.00293-0.015625-0.000977-0.033203c0.000977-0.018555,0.037109-0.064453,0.080078-0.101563
		c0.041992-0.038086,0.105469-0.083984,0.142578-0.103516c0.038086-0.018555,0.067871-0.033203,0.068848-0.03125
		s0.004883,0.006836,0.009277,0.011719c0.004883,0.003906,0.039063,0.033203,0.07666,0.064453
		c0.038086,0.03125,0.108398,0.074219,0.157227,0.09375c0.047363,0.021484,0.130371,0.041016,0.182617,0.044922
		c0.051758,0.004883,0.133789,0,0.182617-0.010742c0.050293-0.008789,0.08252-0.048828,0.074707-0.084961
		c-0.007813-0.037109-0.049316-0.05957-0.093262-0.049805c-0.043457,0.009766-0.111328,0.014648-0.151367,0.010742
		s-0.104004-0.019531-0.143066-0.036133c-0.037598-0.014648-0.096191-0.046875-0.124512-0.075195
		c-0.087891-0.093262,0.062988-0.229004,0.153809-0.306152c0.09082-0.079102,0.290039-0.311035,0.580566-0.32959
		c0.025879-0.000977,0.043945,0.010742,0.042969,0.038086c-0.000977,0.02832,0.027832,0.120117,0.038086,0.151855
		c0.010742,0.032227,0.16748,0.149414,0.222168,0.0625c0.02002-0.032227-0.09375-0.086914-0.103027-0.11084
		c-0.007813-0.025391-0.020996-0.089844-0.020996-0.113281c0.000977-0.023438,0.008301-0.056641,0.01709-0.076172
		c0.007324-0.019531,0.026855-0.049805,0.042969-0.066406c0.01709-0.018555,0.066895-0.048828,0.112305-0.068359
		c0.044922-0.021484,0.11377-0.046875,0.152832-0.061523c0.039063-0.013184,0.102539-0.023926,0.141602-0.025879
		s0.103027,0.00293,0.141113,0.010742c0.038574,0.007813,0.098633,0.028809,0.132813,0.04541
		c0.035156,0.018555,0.086426,0.052734,0.115723,0.080078c0.029785,0.027344,0.069824,0.073242,0.088867,0.103516
		c0.02002,0.030273,0.041992,0.097656,0.048828,0.148438c0.006836,0.05127,0.010254,0.13916,0.005859,0.195801
		c-0.003906,0.054688-0.02002,0.144531-0.034668,0.199219c-0.016113,0.054199-0.050293,0.135254-0.076172,0.181152
		s-0.072754,0.113281-0.104492,0.151367c-0.033203,0.038086-0.072754,0.067383-0.09082,0.06543
		c-0.016113-0.000977-0.13623-0.001953-0.265137-0.001953c-0.128418,0-0.338379,0.009766-0.463867,0.022461
		c-0.125977,0.011719-0.354004,0.026367-0.505859,0.033203c-0.150879,0.008789-0.399414,0.004883-0.552246-0.007813
		C7.723145,13.378418,7.596191,13.368652,7.594238,13.368652z"/>
</g>
<g id="scrub_x5F_bd" style="enable-background:new    ;">
	<g id="Scrub_x5F_FC_2_">
		<g id="Deleted_Symbol_1_2_">
			<path style="fill:#A9CDA6;" d="M24.253418,7.025879c-0.028809,0-0.053711-0.019531-0.0625-0.046875l-0.148926-0.483887
				c-0.010254-0.032227,0.006836-0.067383,0.039063-0.081055l0.07666-0.029297
				c0.012207-0.000977,0.023438-0.001953,0.032227-0.001953c0.036621,0.011719,0.04834,0.026367,0.054688,0.043945
				l0.146973,0.493652c0.009766,0.035156-0.009277,0.071289-0.042969,0.082031
				c-0.041016,0.012695-0.068359,0.018555-0.081055,0.021484L24.253418,7.025879z"/>
			<path style="fill:#A9CDA6;" d="M25.17334,6.902832c-0.039063,0-0.070801-0.032227-0.071777-0.072266l-0.006348-0.496582
				c0-0.039063-0.013672-0.057617-0.024902-0.069336C25.056641,6.25,25.034668,6.242188,25.010254,6.242188
				c-0.023926,0-0.063965,0.007813-0.11377,0.048828c-0.013184,0.009766-0.027832,0.014648-0.044922,0.014648
				c-0.038086-0.004883-0.052246-0.019531-0.059082-0.03125l-0.045898-0.068359
				c-0.021973-0.033203-0.01416-0.076172,0.019043-0.099609c0.085938-0.060547,0.174805-0.09375,0.255859-0.09375
				c0.085938,0,0.162109,0.038086,0.217773,0.109375c0.047852,0.063477,0.072754,0.134766,0.072754,0.211914l0.005859,0.461426
				L25.32373,6.83252c0,0.037109-0.032715,0.069336-0.071289,0.070313H25.17334z"/>
			<path style="fill:#A9CDA6;" d="M27.3125,6.969238c-0.027344-0.005859-0.053711-0.012695-0.076172-0.019531
				c-0.03418-0.010742-0.053711-0.045898-0.043945-0.080078l0.143555-0.495605
				c0.004883-0.017578,0.017578-0.03125,0.033203-0.040039l0.133789,0.023438
				c0.033203,0.012695,0.051758,0.048828,0.041016,0.082031l-0.154297,0.48584
				c-0.009766,0.02832-0.03418,0.045898-0.061523,0.045898L27.3125,6.969238z"/>
			<path style="fill:#A9CDA6;" d="M26.217773,6.86084c-0.046875,0-0.09375-0.017578-0.139648-0.050781
				c0.006836-0.013672-0.174805-0.899902-0.364258-1.183105c-0.024414-0.046875-0.037109-0.09668-0.030273-0.105957
				c0.045898,0.007324,0.09375,0.025879,0.167969,0.071777c0.015625,0.012695,0.185547,0.107422,0.291016,0.600586
				l0.036133,0.116211c0.016602-0.027344,0.044922-1.037598,0.401367-1.193848
				c0.032227-0.020508,0.084961-0.045898,0.111328-0.050781c-0.005859,0.006836-0.013672,0.032227-0.053711,0.09375
				c-0.010742,0.016602-0.213867,0.339844-0.224609,0.79248v0.117188c0.022461-0.013672,0.171875-0.28418,0.448242-0.342773
				c0.033203-0.012695,0.051758-0.015625,0.0625-0.016602c-0.008789,0.004883-0.022461,0.035156-0.095703,0.115234
				c-0.000977,0.000977-0.167969,0.170898-0.461914,0.775879l-0.024414,0.234375
				C26.317383,6.836426,26.274414,6.86084,26.217773,6.86084z"/>
		</g>
	</g>
</g>
<g id="boulder_x5F_bd_9_" style="enable-background:new    ;">
	<path style="fill:#BEBEB4;" d="M22.719238,3.597168c-0.008301,0.000977-0.040039,0.037598-0.037109,0.075684
		s0.032715,0.088867,0.079102,0.085938c0.045898-0.00293,0.210938,0.006836,0.362305,0.019531
		c0.151855,0.012695,0.507324-0.004883,0.662598-0.012695c0.154297-0.007813,0.365234-0.030273,0.492188-0.041016
		c0.125977-0.010742,0.303711-0.010742,0.428223-0.010742c0.125,0,0.322266,0.023438,0.447754,0.035156
		c0.125977,0.010742,0.214844-0.027344,0.217773-0.06543s-0.044922-0.089355-0.108887-0.095215s-0.102051-0.02832-0.083008-0.049805
		s0.058105-0.081055,0.085938-0.132813s0.065918-0.144531,0.083984-0.208496c0.018066-0.063477,0.036133-0.166992,0.040039-0.227539
		s0.000977-0.163574-0.008789-0.229004c-0.008301-0.063477-0.038086-0.149414-0.064453-0.191406
		c-0.025879-0.041992-0.077637-0.103516-0.11377-0.135742c-0.037109-0.031738-0.102051-0.077637-0.145508-0.100098
		c-0.042969-0.021484-0.119141-0.048828-0.166992-0.058594s-0.12793-0.016602-0.177246-0.014648
		c-0.049805,0.003906-0.127441,0.018555-0.17334,0.033203c-0.045898,0.015625-0.12793,0.047852-0.181152,0.072266
		c-0.051758,0.023438-0.112793,0.061035-0.133301,0.083496c-0.02002,0.022461-0.084961,0.060547-0.145996,0.074219
		c-0.460449,0.103516-0.613281,0.333496-0.701172,0.409668c-0.087891,0.075195-0.150879,0.171875-0.152832,0.171875
		s-0.007813,0.003906-0.013184,0.009766c-0.004883,0.004883-0.011719,0.009766-0.015625,0.011719
		c-0.003418,0.000977-0.008301,0.004883-0.009277,0.006836s-0.004883,0.006836-0.008789,0.008789
		c-0.00293,0.001953-0.007324,0.007813-0.009277,0.011719s-0.003906,0.007813-0.005859,0.009766
		s-0.004883,0.007813-0.006836,0.012695c-0.001953,0.005859-0.04834,0.032227-0.102051,0.060059
		C23,3.244629,22.90918,3.308105,22.851074,3.358887c-0.057129,0.050781-0.106934,0.125-0.109863,0.165039
		C22.737305,3.562988,22.727051,3.596191,22.719238,3.597168z M22.87793,3.585449c-0.001953,0-0.00293-0.015625-0.000977-0.033203
		c0.000977-0.018555,0.037109-0.064453,0.080078-0.101563c0.041992-0.038086,0.105469-0.083984,0.142578-0.103516
		c0.038086-0.018555,0.067871-0.033203,0.068848-0.03125s0.004883,0.006836,0.009277,0.011719
		c0.004883,0.003906,0.039063,0.033203,0.07666,0.064453c0.038086,0.03125,0.108398,0.074219,0.157227,0.09375
		c0.047363,0.021484,0.130371,0.041016,0.182617,0.044922c0.051758,0.004883,0.133789,0,0.182617-0.010742
		c0.050293-0.008789,0.08252-0.048828,0.074707-0.084961c-0.007813-0.037109-0.049316-0.05957-0.093262-0.049805
		c-0.043457,0.009766-0.111328,0.014648-0.151367,0.010742s-0.104004-0.019531-0.143066-0.036133
		c-0.037598-0.014648-0.096191-0.046875-0.124512-0.075195c-0.087891-0.093262,0.062988-0.229004,0.153809-0.306152
		c0.09082-0.079102,0.290039-0.311035,0.580566-0.32959c0.025879-0.000977,0.043945,0.010742,0.042969,0.038086
		c-0.000977,0.02832,0.027832,0.120117,0.038086,0.151855c0.010742,0.032227,0.16748,0.149414,0.222168,0.0625
		c0.02002-0.032227-0.09375-0.086914-0.103027-0.11084c-0.007813-0.025391-0.020996-0.089844-0.020996-0.113281
		c0.000977-0.023438,0.008301-0.056641,0.01709-0.076172c0.007324-0.019531,0.026855-0.049805,0.042969-0.066406
		c0.01709-0.018555,0.066895-0.048828,0.112305-0.068359c0.044922-0.021484,0.11377-0.046875,0.152832-0.061523
		c0.039063-0.013184,0.102539-0.023926,0.141602-0.025879s0.103027,0.00293,0.141113,0.010742
		c0.038574,0.007813,0.098633,0.028809,0.132813,0.04541c0.035156,0.018555,0.086426,0.052734,0.115723,0.080078
		c0.029785,0.027344,0.069824,0.073242,0.088867,0.103516c0.02002,0.030273,0.041992,0.097656,0.048828,0.148438
		c0.006836,0.05127,0.010254,0.13916,0.005859,0.195801c-0.003906,0.054688-0.02002,0.144531-0.034668,0.199219
		c-0.016113,0.054199-0.050293,0.135254-0.076172,0.181152s-0.072754,0.113281-0.104492,0.151367
		c-0.033203,0.038086-0.072754,0.067383-0.09082,0.06543c-0.016113-0.000977-0.13623-0.001953-0.265137-0.001953
		c-0.128418,0-0.338379,0.009766-0.463867,0.022461c-0.125977,0.011719-0.354004,0.026367-0.505859,0.033203
		c-0.150879,0.008789-0.399414,0.004883-0.552246-0.007813C23.006836,3.595215,22.879883,3.585449,22.87793,3.585449z"/>
</g>
<g id="scrub_x5F_bd_2_" style="enable-background:new    ;">
	<g id="Scrub_x5F_FC_4_">
		<g id="Deleted_Symbol_1_4_">
			<path style="fill:#A9CDA6;" d="M35.4375,15.072754c-0.029297,0-0.054688-0.019531-0.063477-0.046875l-0.148438-0.483887
				c-0.010742-0.032227,0.006836-0.067383,0.039063-0.081055l0.076172-0.029297
				c0.012695-0.000977,0.023438-0.001953,0.032227-0.001953c0.037109,0.011719,0.048828,0.026367,0.055664,0.043945
				l0.146484,0.493652c0.009766,0.035156-0.008789,0.071289-0.042969,0.082031
				c-0.041016,0.012695-0.068359,0.018555-0.081055,0.021484L35.4375,15.072754z"/>
			<path style="fill:#A9CDA6;" d="M36.356445,14.949707c-0.039063,0-0.070313-0.032227-0.071289-0.072266l-0.006836-0.496582
				c0-0.039063-0.013672-0.057617-0.024414-0.069336c-0.013672-0.014648-0.036133-0.022461-0.060547-0.022461
				c-0.023438,0-0.063477,0.007813-0.113281,0.048828c-0.013672,0.009766-0.02832,0.014648-0.044922,0.014648
				c-0.038086-0.004883-0.052734-0.019531-0.05957-0.03125l-0.045898-0.068359
				c-0.021484-0.033203-0.013672-0.076172,0.019531-0.099609c0.085938-0.060547,0.174805-0.09375,0.255859-0.09375
				c0.085938,0,0.162109,0.038086,0.217773,0.109375c0.047852,0.063477,0.073242,0.134766,0.073242,0.211914l0.005859,0.461426
				l0.005859,0.037109c0,0.037109-0.033203,0.069336-0.072266,0.070313H36.356445z"/>
			<path style="fill:#A9CDA6;" d="M38.496094,15.016113c-0.027344-0.005859-0.053711-0.012695-0.076172-0.019531
				c-0.03418-0.010742-0.053711-0.045898-0.043945-0.080078l0.143555-0.495605
				c0.004883-0.017578,0.017578-0.03125,0.033203-0.040039l0.133789,0.023438
				c0.033203,0.012695,0.051758,0.048828,0.041016,0.082031l-0.154297,0.48584
				c-0.009766,0.02832-0.03418,0.045898-0.061523,0.045898L38.496094,15.016113z"/>
			<path style="fill:#A9CDA6;" d="M37.401367,14.907715c-0.046875,0-0.09375-0.017578-0.139648-0.050781
				c0.006836-0.013672-0.174805-0.899902-0.364258-1.183105c-0.024414-0.046875-0.037109-0.09668-0.030273-0.105957
				c0.045898,0.007324,0.09375,0.025879,0.167969,0.071777c0.015625,0.012695,0.185547,0.107422,0.291016,0.600586
				l0.036133,0.116211c0.016602-0.027344,0.044922-1.037598,0.401367-1.193848
				c0.032227-0.020508,0.084961-0.045898,0.111328-0.050781c-0.005859,0.006836-0.013672,0.032227-0.053711,0.09375
				c-0.010742,0.016602-0.213867,0.339844-0.224609,0.79248v0.117188c0.022461-0.013672,0.171875-0.28418,0.448242-0.342773
				c0.033203-0.012695,0.051758-0.015625,0.0625-0.016602c-0.008789,0.004883-0.022461,0.035156-0.095703,0.115234
				c-0.000977,0.000977-0.167969,0.170898-0.461914,0.775879l-0.024414,0.234375
				C37.500977,14.883301,37.458008,14.907715,37.401367,14.907715z"/>
		</g>
	</g>
</g>
<g id="boulder_x5F_bd_8_" style="enable-background:new    ;">
	<path style="fill:#BEBEB4;" d="M33.901367,11.644043c-0.008789,0.000977-0.040039,0.037598-0.037109,0.075684
		s0.032227,0.088867,0.079102,0.085938c0.045898-0.00293,0.209961,0.006836,0.362305,0.019531
		c0.151367,0.012695,0.506836-0.004883,0.662109-0.012695c0.154297-0.007813,0.365234-0.030273,0.492188-0.041016
		c0.125977-0.010742,0.303711-0.010742,0.428711-0.010742s0.321289,0.023438,0.447266,0.035156
		c0.125977,0.010742,0.214844-0.027344,0.217773-0.06543s-0.044922-0.089355-0.109375-0.095215
		c-0.063477-0.005859-0.101563-0.02832-0.082031-0.049805c0.018555-0.021484,0.057617-0.081055,0.084961-0.132813
		c0.02832-0.051758,0.066406-0.144531,0.083984-0.208496c0.018555-0.063477,0.036133-0.166992,0.040039-0.227539
		s0.000977-0.163574-0.008789-0.229004c-0.007813-0.063477-0.038086-0.149414-0.064453-0.191406
		c-0.025391-0.041992-0.077148-0.103516-0.113281-0.135742c-0.037109-0.031738-0.101563-0.077637-0.145508-0.100098
		c-0.042969-0.021484-0.119141-0.048828-0.166992-0.058594s-0.12793-0.016602-0.176758-0.014648
		c-0.049805,0.003906-0.12793,0.018555-0.173828,0.033203c-0.045898,0.015625-0.12793,0.047852-0.180664,0.072266
		c-0.051758,0.023438-0.113281,0.061035-0.133789,0.083496s-0.084961,0.060547-0.146484,0.074219
		c-0.459961,0.103516-0.612305,0.333496-0.701172,0.409668c-0.087891,0.075195-0.150391,0.171875-0.152344,0.171875
		s-0.007813,0.003906-0.012695,0.009766c-0.004883,0.004883-0.011719,0.009766-0.015625,0.011719
		c-0.003906,0.000977-0.008789,0.004883-0.009766,0.006836s-0.004883,0.006836-0.008789,0.008789
		c-0.00293,0.001953-0.006836,0.007813-0.008789,0.011719s-0.003906,0.007813-0.005859,0.009766
		s-0.004883,0.007813-0.006836,0.012695c-0.001953,0.005859-0.048828,0.032227-0.102539,0.060059
		c-0.054688,0.02832-0.145508,0.091797-0.204102,0.142578c-0.056641,0.050781-0.106445,0.125-0.109375,0.165039
		C33.918945,11.609863,33.90918,11.643066,33.901367,11.644043z M34.05957,11.632324
		c-0.001953,0-0.00293-0.015625-0.000977-0.033203c0.000977-0.018555,0.037109-0.064453,0.080078-0.101563
		c0.041992-0.038086,0.105469-0.083984,0.142578-0.103516c0.038086-0.018555,0.068359-0.033203,0.069336-0.03125
		s0.004883,0.006836,0.008789,0.011719c0.004883,0.003906,0.039063,0.033203,0.076172,0.064453
		c0.038086,0.03125,0.108398,0.074219,0.157227,0.09375c0.047852,0.021484,0.130859,0.041016,0.183594,0.044922
		c0.050781,0.004883,0.132813,0,0.181641-0.010742c0.050781-0.008789,0.083008-0.048828,0.075195-0.084961
		c-0.007813-0.037109-0.049805-0.05957-0.09375-0.049805c-0.042969,0.009766-0.111328,0.014648-0.150391,0.010742
		c-0.040039-0.003906-0.104492-0.019531-0.143555-0.036133c-0.037109-0.014648-0.09668-0.046875-0.125-0.075195
		c-0.087891-0.093262,0.063477-0.229004,0.154297-0.306152c0.09082-0.079102,0.290039-0.311035,0.580078-0.32959
		c0.026367-0.000977,0.043945,0.010742,0.042969,0.038086c-0.000977,0.02832,0.02832,0.120117,0.038086,0.151855
		c0.010742,0.032227,0.167969,0.149414,0.222656,0.0625c0.020508-0.032227-0.09375-0.086914-0.102539-0.11084
		c-0.007813-0.025391-0.021484-0.089844-0.021484-0.113281c0.000977-0.023438,0.008789-0.056641,0.017578-0.076172
		c0.006836-0.019531,0.026367-0.049805,0.042969-0.066406c0.016602-0.018555,0.066406-0.048828,0.112305-0.068359
		c0.043945-0.021484,0.113281-0.046875,0.152344-0.061523c0.039063-0.013184,0.102539-0.023926,0.141602-0.025879
		s0.103516,0.00293,0.140625,0.010742c0.039063,0.007813,0.098633,0.028809,0.132813,0.04541
		c0.035156,0.018555,0.086914,0.052734,0.116211,0.080078c0.030273,0.027344,0.070313,0.073242,0.088867,0.103516
		c0.020508,0.030273,0.041992,0.097656,0.048828,0.148438c0.006836,0.05127,0.010742,0.13916,0.005859,0.195801
		c-0.003906,0.054688-0.019531,0.144531-0.03418,0.199219c-0.016602,0.054199-0.050781,0.135254-0.076172,0.181152
		c-0.026367,0.045898-0.073242,0.113281-0.105469,0.151367c-0.033203,0.038086-0.072266,0.067383-0.09082,0.06543
		c-0.015625-0.000977-0.135742-0.001953-0.264648-0.001953s-0.337891,0.009766-0.463867,0.022461
		c-0.125977,0.011719-0.353516,0.026367-0.505859,0.033203c-0.150391,0.008789-0.399414,0.004883-0.551758-0.007813
		C34.188477,11.64209,34.061523,11.632324,34.05957,11.632324z"/>
</g>
<g id="scrub_x5F_bd_1_" style="enable-background:new    ;">
	<g id="Scrub_x5F_FC_3_">
		<g id="Deleted_Symbol_1_3_">
			<path style="fill:#A9CDA6;" d="M40.951172,6.687988c-0.029297,0-0.054688-0.019531-0.063477-0.046875l-0.148438-0.483887
				C40.728516,6.125,40.746094,6.089844,40.77832,6.076172l0.076172-0.029297
				c0.012695-0.000977,0.023438-0.001953,0.032227-0.001953c0.037109,0.011719,0.048828,0.026367,0.055664,0.043945
				l0.146484,0.493652c0.009766,0.035156-0.008789,0.071289-0.042969,0.082031
				c-0.041016,0.012695-0.068359,0.018555-0.081055,0.021484L40.951172,6.687988z"/>
			<path style="fill:#A9CDA6;" d="M41.870117,6.564941c-0.039063,0-0.070313-0.032227-0.071289-0.072266l-0.006836-0.496582
				c0-0.039063-0.013672-0.057617-0.024414-0.069336c-0.013672-0.014648-0.036133-0.022461-0.060547-0.022461
				c-0.023438,0-0.063477,0.007813-0.113281,0.048828c-0.013672,0.009766-0.02832,0.014648-0.044922,0.014648
				c-0.038086-0.004883-0.052734-0.019531-0.05957-0.03125l-0.045898-0.068359
				c-0.021484-0.033203-0.013672-0.076172,0.019531-0.099609c0.085938-0.060547,0.174805-0.09375,0.255859-0.09375
				c0.085938,0,0.162109,0.038086,0.217773,0.109375c0.047852,0.063477,0.073242,0.134766,0.073242,0.211914l0.005859,0.461426
				l0.005859,0.037109c0,0.037109-0.033203,0.069336-0.072266,0.070313H41.870117z"/>
			<path style="fill:#A9CDA6;" d="M44.009766,6.631348c-0.027344-0.005859-0.053711-0.012695-0.076172-0.019531
				c-0.03418-0.010742-0.053711-0.045898-0.043945-0.080078l0.143555-0.495605
				c0.004883-0.017578,0.017578-0.03125,0.033203-0.040039l0.133789,0.023438
				c0.033203,0.012695,0.051758,0.048828,0.041016,0.082031l-0.154297,0.48584
				c-0.009766,0.02832-0.03418,0.045898-0.061523,0.045898L44.009766,6.631348z"/>
			<path style="fill:#A9CDA6;" d="M42.915039,6.522949c-0.046875,0-0.09375-0.017578-0.139648-0.050781
				c0.006836-0.013672-0.174805-0.899902-0.364258-1.183105c-0.024414-0.046875-0.037109-0.09668-0.030273-0.105957
				c0.045898,0.007324,0.09375,0.025879,0.167969,0.071777c0.015625,0.012695,0.185547,0.107422,0.291016,0.600586
				l0.036133,0.116211c0.016602-0.027344,0.044922-1.037598,0.401367-1.193848
				c0.032227-0.020508,0.084961-0.045898,0.111328-0.050781c-0.005859,0.006836-0.013672,0.032227-0.053711,0.09375
				c-0.010742,0.016602-0.213867,0.339844-0.224609,0.79248v0.117188c0.022461-0.013672,0.171875-0.28418,0.448242-0.342773
				c0.033203-0.012695,0.051758-0.015625,0.0625-0.016602c-0.008789,0.004883-0.022461,0.035156-0.095703,0.115234
				c-0.000977,0.000977-0.167969,0.170898-0.461914,0.775879l-0.024414,0.234375
				C43.014648,6.498535,42.97168,6.522949,42.915039,6.522949z"/>
		</g>
	</g>
</g>
<g id="boulder_x5F_bd_10_" style="enable-background:new    ;">
	<path style="fill:#BEBEB4;" d="M39.415039,3.259277C39.40625,3.260254,39.375,3.296875,39.37793,3.334961
		s0.032227,0.088867,0.079102,0.085938c0.045898-0.00293,0.209961,0.006836,0.362305,0.019531
		c0.151367,0.012695,0.506836-0.004883,0.662109-0.012695c0.154297-0.007813,0.365234-0.030273,0.492188-0.041016
		c0.125977-0.010742,0.303711-0.010742,0.428711-0.010742s0.321289,0.023438,0.447266,0.035156
		c0.125977,0.010742,0.214844-0.027344,0.217773-0.06543s-0.044922-0.089355-0.109375-0.095215
		c-0.063477-0.005859-0.101563-0.02832-0.082031-0.049805c0.018555-0.021484,0.057617-0.081055,0.084961-0.132813
		c0.02832-0.051758,0.066406-0.144531,0.083984-0.208496c0.018555-0.063477,0.036133-0.166992,0.040039-0.227539
		s0.000977-0.163574-0.008789-0.229004c-0.007813-0.063477-0.038086-0.149414-0.064453-0.191406
		c-0.025391-0.041992-0.077148-0.103516-0.113281-0.135742c-0.037109-0.031738-0.101563-0.077637-0.145508-0.100098
		c-0.042969-0.021484-0.119141-0.048828-0.166992-0.058594s-0.12793-0.016602-0.176758-0.014648
		c-0.049805,0.003906-0.12793,0.018555-0.173828,0.033203c-0.045898,0.015625-0.12793,0.047852-0.180664,0.072266
		c-0.051758,0.023438-0.113281,0.061035-0.133789,0.083496s-0.084961,0.060547-0.146484,0.074219
		c-0.459961,0.103516-0.612305,0.333496-0.701172,0.409668c-0.087891,0.075195-0.150391,0.171875-0.152344,0.171875
		s-0.007813,0.003906-0.012695,0.009766c-0.004883,0.004883-0.011719,0.009766-0.015625,0.011719
		c-0.003906,0.000977-0.008789,0.004883-0.009766,0.006836S39.87793,2.782227,39.874023,2.78418
		c-0.00293,0.001953-0.006836,0.007813-0.008789,0.011719s-0.003906,0.007813-0.005859,0.009766
		s-0.004883,0.007813-0.006836,0.012695C39.850586,2.824219,39.803711,2.850586,39.75,2.878418
		c-0.054688,0.02832-0.145508,0.091797-0.204102,0.142578c-0.056641,0.050781-0.106445,0.125-0.109375,0.165039
		C39.432617,3.225098,39.422852,3.258301,39.415039,3.259277z M39.573242,3.247559c-0.001953,0-0.00293-0.015625-0.000977-0.033203
		c0.000977-0.018555,0.037109-0.064453,0.080078-0.101563c0.041992-0.038086,0.105469-0.083984,0.142578-0.103516
		c0.038086-0.018555,0.068359-0.033203,0.069336-0.03125s0.004883,0.006836,0.008789,0.011719
		c0.004883,0.003906,0.039063,0.033203,0.076172,0.064453c0.038086,0.03125,0.108398,0.074219,0.157227,0.09375
		c0.047852,0.021484,0.130859,0.041016,0.183594,0.044922c0.050781,0.004883,0.132813,0,0.181641-0.010742
		c0.050781-0.008789,0.083008-0.048828,0.075195-0.084961c-0.007813-0.037109-0.049805-0.05957-0.09375-0.049805
		c-0.042969,0.009766-0.111328,0.014648-0.150391,0.010742c-0.040039-0.003906-0.104492-0.019531-0.143555-0.036133
		c-0.037109-0.014648-0.09668-0.046875-0.125-0.075195c-0.087891-0.093262,0.063477-0.229004,0.154297-0.306152
		c0.09082-0.079102,0.290039-0.311035,0.580078-0.32959c0.026367-0.000977,0.043945,0.010742,0.042969,0.038086
		c-0.000977,0.02832,0.02832,0.120117,0.038086,0.151855c0.010742,0.032227,0.167969,0.149414,0.222656,0.0625
		c0.020508-0.032227-0.09375-0.086914-0.102539-0.11084c-0.007813-0.025391-0.021484-0.089844-0.021484-0.113281
		c0.000977-0.023438,0.008789-0.056641,0.017578-0.076172c0.006836-0.019531,0.026367-0.049805,0.042969-0.066406
		c0.016602-0.018555,0.066406-0.048828,0.112305-0.068359c0.043945-0.021484,0.113281-0.046875,0.152344-0.061523
		c0.039063-0.013184,0.102539-0.023926,0.141602-0.025879s0.103516,0.00293,0.140625,0.010742
		c0.039063,0.007813,0.098633,0.028809,0.132813,0.04541c0.035156,0.018555,0.086914,0.052734,0.116211,0.080078
		C41.834961,2.20459,41.875,2.250488,41.893555,2.280762c0.020508,0.030273,0.041992,0.097656,0.048828,0.148438
		c0.006836,0.05127,0.010742,0.13916,0.005859,0.195801c-0.003906,0.054688-0.019531,0.144531-0.03418,0.199219
		c-0.016602,0.054199-0.050781,0.135254-0.076172,0.181152c-0.026367,0.045898-0.073242,0.113281-0.105469,0.151367
		c-0.033203,0.038086-0.072266,0.067383-0.09082,0.06543c-0.015625-0.000977-0.135742-0.001953-0.264648-0.001953
		s-0.337891,0.009766-0.463867,0.022461c-0.125977,0.011719-0.353516,0.026367-0.505859,0.033203
		c-0.150391,0.008789-0.399414,0.004883-0.551758-0.007813C39.702148,3.257324,39.575195,3.247559,39.573242,3.247559z"/>
</g>
<g id="scrub_x5F_bd_5_" style="enable-background:new    ;">
	<g id="Scrub_x5F_FC_7_">
		<g id="Deleted_Symbol_1_7_">
			<path style="fill:#A9CDA6;" d="M35.933594,24.950684c-0.029297,0-0.054688-0.019531-0.063477-0.046875l-0.148438-0.483887
				c-0.010742-0.032227,0.006836-0.067383,0.039063-0.081055l0.076172-0.029297
				c0.012695-0.000977,0.023438-0.001953,0.032227-0.001953c0.037109,0.011719,0.048828,0.026367,0.055664,0.043945
				l0.146484,0.493652c0.009766,0.035156-0.008789,0.071289-0.042969,0.082031
				c-0.041016,0.012695-0.068359,0.018555-0.081055,0.021484L35.933594,24.950684z"/>
			<path style="fill:#A9CDA6;" d="M36.852539,24.827637c-0.039063,0-0.070313-0.032227-0.071289-0.072266l-0.006836-0.496582
				c0-0.039063-0.013672-0.057617-0.024414-0.069336c-0.013672-0.014648-0.036133-0.022461-0.060547-0.022461
				c-0.023438,0-0.063477,0.007813-0.113281,0.048828c-0.013672,0.009766-0.02832,0.014648-0.044922,0.014648
				c-0.038086-0.004883-0.052734-0.019531-0.05957-0.03125l-0.045898-0.068359
				c-0.021484-0.033203-0.013672-0.076172,0.019531-0.099609c0.085938-0.060547,0.174805-0.09375,0.255859-0.09375
				c0.085938,0,0.162109,0.038086,0.217773,0.109375c0.047852,0.063477,0.073242,0.134766,0.073242,0.211914l0.005859,0.461426
				l0.005859,0.037109c0,0.037109-0.033203,0.069336-0.072266,0.070313H36.852539z"/>
			<path style="fill:#A9CDA6;" d="M38.992188,24.894043c-0.027344-0.005859-0.053711-0.012695-0.076172-0.019531
				c-0.03418-0.010742-0.053711-0.045898-0.043945-0.080078l0.143555-0.495605
				c0.004883-0.017578,0.017578-0.03125,0.033203-0.040039l0.133789,0.023438
				c0.033203,0.012695,0.051758,0.048828,0.041016,0.082031l-0.154297,0.48584
				c-0.009766,0.02832-0.03418,0.045898-0.061523,0.045898L38.992188,24.894043z"/>
			<path style="fill:#A9CDA6;" d="M37.897461,24.785645c-0.046875,0-0.09375-0.017578-0.139648-0.050781
				c0.006836-0.013672-0.174805-0.899902-0.364258-1.183105c-0.024414-0.046875-0.037109-0.09668-0.030273-0.105957
				c0.045898,0.007324,0.09375,0.025879,0.167969,0.071777c0.015625,0.012695,0.185547,0.107422,0.291016,0.600586
				l0.036133,0.116211c0.016602-0.027344,0.044922-1.037598,0.401367-1.193848
				c0.032227-0.020508,0.084961-0.045898,0.111328-0.050781c-0.005859,0.006836-0.013672,0.032227-0.053711,0.09375
				c-0.010742,0.016602-0.213867,0.339844-0.224609,0.79248v0.117188c0.022461-0.013672,0.171875-0.28418,0.448242-0.342773
				c0.033203-0.012695,0.051758-0.015625,0.0625-0.016602c-0.008789,0.004883-0.022461,0.035156-0.095703,0.115234
				c-0.000977,0.000977-0.167969,0.170898-0.461914,0.775879l-0.024414,0.234375
				C37.99707,24.76123,37.954102,24.785645,37.897461,24.785645z"/>
		</g>
	</g>
</g>
<g id="boulder_x5F_bd_7_" style="enable-background:new    ;">
	<path style="fill:#BEBEB4;" d="M34.399414,21.521973c-0.008789,0.000977-0.040039,0.037598-0.037109,0.075684
		s0.032227,0.088867,0.079102,0.085938c0.045898-0.00293,0.209961,0.006836,0.362305,0.019531
		c0.151367,0.012695,0.506836-0.004883,0.662109-0.012695c0.154297-0.007813,0.365234-0.030273,0.492188-0.041016
		c0.125977-0.010742,0.303711-0.010742,0.428711-0.010742s0.321289,0.023438,0.447266,0.035156
		c0.125977,0.010742,0.214844-0.027344,0.217773-0.06543s-0.044922-0.089355-0.109375-0.095215
		c-0.063477-0.005859-0.101563-0.02832-0.082031-0.049805c0.018555-0.021484,0.057617-0.081055,0.084961-0.132813
		c0.02832-0.051758,0.066406-0.144531,0.083984-0.208496c0.018555-0.063477,0.036133-0.166992,0.040039-0.227539
		s0.000977-0.163574-0.008789-0.229004c-0.007813-0.063477-0.038086-0.149414-0.064453-0.191406
		c-0.025391-0.041992-0.077148-0.103516-0.113281-0.135742c-0.037109-0.031738-0.101563-0.077637-0.145508-0.100098
		c-0.042969-0.021484-0.119141-0.048828-0.166992-0.058594s-0.12793-0.016602-0.176758-0.014648
		c-0.049805,0.003906-0.12793,0.018555-0.173828,0.033203c-0.045898,0.015625-0.12793,0.047852-0.180664,0.072266
		c-0.051758,0.023438-0.113281,0.061035-0.133789,0.083496s-0.084961,0.060547-0.146484,0.074219
		c-0.459961,0.103516-0.612305,0.333496-0.701172,0.409668c-0.087891,0.075195-0.150391,0.171875-0.152344,0.171875
		s-0.007813,0.003906-0.012695,0.009766c-0.004883,0.004883-0.011719,0.009766-0.015625,0.011719
		c-0.003906,0.000977-0.008789,0.004883-0.009766,0.006836s-0.004883,0.006836-0.008789,0.008789
		c-0.00293,0.001953-0.006836,0.007813-0.008789,0.011719s-0.003906,0.007813-0.005859,0.009766
		s-0.004883,0.007813-0.006836,0.012695c-0.001953,0.005859-0.048828,0.032227-0.102539,0.060059
		c-0.054688,0.02832-0.145508,0.091797-0.204102,0.142578c-0.056641,0.050781-0.106445,0.125-0.109375,0.165039
		C34.416992,21.487793,34.407227,21.520996,34.399414,21.521973z M34.557617,21.510254
		c-0.001953,0-0.00293-0.015625-0.000977-0.033203c0.000977-0.018555,0.037109-0.064453,0.080078-0.101563
		c0.041992-0.038086,0.105469-0.083984,0.142578-0.103516c0.038086-0.018555,0.068359-0.033203,0.069336-0.03125
		s0.004883,0.006836,0.008789,0.011719c0.004883,0.003906,0.039063,0.033203,0.076172,0.064453
		c0.038086,0.03125,0.108398,0.074219,0.157227,0.09375c0.047852,0.021484,0.130859,0.041016,0.183594,0.044922
		c0.050781,0.004883,0.132813,0,0.181641-0.010742c0.050781-0.008789,0.083008-0.048828,0.075195-0.084961
		c-0.007813-0.037109-0.049805-0.05957-0.09375-0.049805c-0.042969,0.009766-0.111328,0.014648-0.150391,0.010742
		c-0.040039-0.003906-0.104492-0.019531-0.143555-0.036133c-0.037109-0.014648-0.09668-0.046875-0.125-0.075195
		c-0.087891-0.093262,0.063477-0.229004,0.154297-0.306152c0.09082-0.079102,0.290039-0.311035,0.580078-0.32959
		c0.026367-0.000977,0.043945,0.010742,0.042969,0.038086c-0.000977,0.02832,0.02832,0.120117,0.038086,0.151855
		c0.010742,0.032227,0.167969,0.149414,0.222656,0.0625c0.020508-0.032227-0.09375-0.086914-0.102539-0.11084
		c-0.007813-0.025391-0.021484-0.089844-0.021484-0.113281c0.000977-0.023438,0.008789-0.056641,0.017578-0.076172
		c0.006836-0.019531,0.026367-0.049805,0.042969-0.066406c0.016602-0.018555,0.066406-0.048828,0.112305-0.068359
		c0.043945-0.021484,0.113281-0.046875,0.152344-0.061523c0.039063-0.013184,0.102539-0.023926,0.141602-0.025879
		s0.103516,0.00293,0.140625,0.010742c0.039063,0.007813,0.098633,0.028809,0.132813,0.04541
		c0.035156,0.018555,0.086914,0.052734,0.116211,0.080078c0.030273,0.027344,0.070313,0.073242,0.088867,0.103516
		c0.020508,0.030273,0.041992,0.097656,0.048828,0.148438c0.006836,0.05127,0.010742,0.13916,0.005859,0.195801
		c-0.003906,0.054688-0.019531,0.144531-0.03418,0.199219c-0.016602,0.054199-0.050781,0.135254-0.076172,0.181152
		c-0.026367,0.045898-0.073242,0.113281-0.105469,0.151367c-0.033203,0.038086-0.072266,0.067383-0.09082,0.06543
		c-0.015625-0.000977-0.135742-0.001953-0.264648-0.001953s-0.337891,0.009766-0.463867,0.022461
		c-0.125977,0.011719-0.353516,0.026367-0.505859,0.033203c-0.150391,0.008789-0.399414,0.004883-0.551758-0.007813
		C34.686523,21.52002,34.55957,21.510254,34.557617,21.510254z"/>
</g>
<g id="scrub_x5F_bd_10_" style="enable-background:new    ;">
	<g id="Scrub_x5F_FC_12_">
		<g id="Deleted_Symbol_1_12_">
			<path style="fill:#A9CDA6;" d="M41.203125,36.853516c-0.029297,0-0.054688-0.019531-0.063477-0.046875l-0.148438-0.484375
				c-0.010742-0.032227,0.006836-0.067383,0.039063-0.081055l0.076172-0.029297
				c0.012695-0.000977,0.023438-0.001953,0.032227-0.001953c0.037109,0.011719,0.048828,0.026367,0.055664,0.043945
				l0.146484,0.494141c0.009766,0.035156-0.008789,0.071289-0.042969,0.082031
				c-0.041016,0.012695-0.068359,0.018555-0.081055,0.021484L41.203125,36.853516z"/>
			<path style="fill:#A9CDA6;" d="M42.12207,36.730469c-0.039063,0-0.070313-0.032227-0.071289-0.072266l-0.006836-0.49707
				c0-0.039063-0.013672-0.057617-0.024414-0.069336c-0.013672-0.014648-0.036133-0.022461-0.060547-0.022461
				c-0.023438,0-0.063477,0.007813-0.113281,0.048828c-0.013672,0.009766-0.02832,0.014648-0.044922,0.014648
				c-0.038086-0.004883-0.052734-0.019531-0.05957-0.03125l-0.045898-0.068359
				C41.673828,36,41.681641,35.957031,41.714844,35.933594c0.085938-0.060547,0.174805-0.09375,0.255859-0.09375
				c0.085938,0,0.162109,0.038086,0.217773,0.109375c0.047852,0.063477,0.073242,0.134766,0.073242,0.211914l0.005859,0.461914
				l0.005859,0.037109c0,0.037109-0.033203,0.069336-0.072266,0.070313H42.12207z"/>
			<path style="fill:#A9CDA6;" d="M44.261719,36.796875c-0.027344-0.005859-0.053711-0.012695-0.076172-0.019531
				c-0.03418-0.010742-0.053711-0.045898-0.043945-0.080078l0.143555-0.496094
				c0.004883-0.017578,0.017578-0.03125,0.033203-0.040039l0.133789,0.023438
				c0.033203,0.012695,0.051758,0.048828,0.041016,0.082031l-0.154297,0.486328
				c-0.009766,0.02832-0.03418,0.045898-0.061523,0.045898L44.261719,36.796875z"/>
			<path style="fill:#A9CDA6;" d="M43.166992,36.688477c-0.046875,0-0.09375-0.017578-0.139648-0.050781
				c0.006836-0.013672-0.174805-0.900391-0.364258-1.183594c-0.024414-0.046875-0.037109-0.09668-0.030273-0.106445
				c0.045898,0.007813,0.09375,0.026367,0.167969,0.072266c0.015625,0.012695,0.185547,0.107422,0.291016,0.600586
				l0.036133,0.116211c0.016602-0.027344,0.044922-1.038086,0.401367-1.194336
				c0.032227-0.020508,0.084961-0.045898,0.111328-0.050781c-0.005859,0.006836-0.013672,0.032227-0.053711,0.09375
				c-0.010742,0.016602-0.213867,0.339844-0.224609,0.792969v0.117188c0.022461-0.013672,0.171875-0.28418,0.448242-0.342773
				c0.033203-0.012695,0.051758-0.015625,0.0625-0.016602c-0.008789,0.004883-0.022461,0.035156-0.095703,0.115234
				c-0.000977,0.000977-0.167969,0.170898-0.461914,0.776367l-0.024414,0.234375
				C43.266602,36.664063,43.223633,36.688477,43.166992,36.688477z"/>
		</g>
	</g>
</g>
<g id="boulder_x5F_bd_6_" style="enable-background:new    ;">
	<path style="fill:#BEBEB4;" d="M39.667969,33.423828C39.65918,33.424805,39.62793,33.461914,39.630859,33.5
		s0.032227,0.088867,0.079102,0.085938c0.045898-0.00293,0.209961,0.006836,0.362305,0.019531
		c0.151367,0.012695,0.506836-0.004883,0.662109-0.012695c0.154297-0.007813,0.365234-0.030273,0.492188-0.041016
		c0.125977-0.010742,0.303711-0.010742,0.428711-0.010742s0.321289,0.023438,0.447266,0.035156
		c0.125977,0.010742,0.214844-0.027344,0.217773-0.06543s-0.044922-0.089844-0.109375-0.095703
		c-0.063477-0.005859-0.101563-0.02832-0.082031-0.049805c0.018555-0.021484,0.057617-0.081055,0.084961-0.131836
		c0.02832-0.051758,0.066406-0.144531,0.083984-0.208984c0.018555-0.063477,0.036133-0.166992,0.040039-0.227539
		s0.000977-0.164063-0.008789-0.229492c-0.007813-0.063477-0.038086-0.148438-0.064453-0.19043
		c-0.025391-0.041992-0.077148-0.103516-0.113281-0.135742c-0.037109-0.032227-0.101563-0.078125-0.145508-0.100586
		c-0.042969-0.021484-0.119141-0.048828-0.166992-0.058594s-0.12793-0.016602-0.176758-0.014648
		c-0.049805,0.003906-0.12793,0.018555-0.173828,0.033203c-0.045898,0.015625-0.12793,0.047852-0.180664,0.072266
		c-0.051758,0.023438-0.113281,0.061523-0.133789,0.083984s-0.084961,0.060547-0.146484,0.074219
		c-0.459961,0.102539-0.612305,0.333008-0.701172,0.40918c-0.087891,0.075195-0.150391,0.171875-0.152344,0.171875
		s-0.007813,0.003906-0.012695,0.009766c-0.004883,0.004883-0.011719,0.009766-0.015625,0.011719
		c-0.003906,0.000977-0.008789,0.004883-0.009766,0.006836s-0.004883,0.006836-0.008789,0.008789
		c-0.00293,0.001953-0.006836,0.007813-0.008789,0.011719s-0.003906,0.007813-0.005859,0.009766
		s-0.004883,0.007813-0.006836,0.012695c-0.001953,0.005859-0.048828,0.032227-0.102539,0.060547
		c-0.054688,0.02832-0.145508,0.091797-0.204102,0.142578c-0.056641,0.050781-0.106445,0.124023-0.109375,0.164063
		C39.685547,33.389648,39.675781,33.422852,39.667969,33.423828z M39.826172,33.412109
		c-0.001953,0-0.00293-0.015625-0.000977-0.033203c0.000977-0.018555,0.037109-0.064453,0.080078-0.101563
		c0.041992-0.037109,0.105469-0.083008,0.142578-0.102539c0.038086-0.018555,0.068359-0.033203,0.069336-0.03125
		s0.004883,0.006836,0.008789,0.011719c0.004883,0.003906,0.039063,0.033203,0.076172,0.064453
		c0.038086,0.030273,0.108398,0.073242,0.157227,0.092773c0.047852,0.021484,0.130859,0.041016,0.183594,0.044922
		c0.050781,0.004883,0.132813,0,0.181641-0.010742c0.050781-0.008789,0.083008-0.048828,0.075195-0.084961
		s-0.049805-0.058594-0.09375-0.048828c-0.042969,0.009766-0.111328,0.014648-0.150391,0.010742
		c-0.040039-0.003906-0.104492-0.019531-0.143555-0.036133c-0.037109-0.014648-0.09668-0.046875-0.125-0.075195
		c-0.087891-0.09375,0.063477-0.229492,0.154297-0.306641c0.09082-0.079102,0.290039-0.311523,0.580078-0.330078
		c0.026367-0.000977,0.043945,0.010742,0.042969,0.038086c-0.000977,0.02832,0.02832,0.120117,0.038086,0.152344
		c0.010742,0.032227,0.167969,0.149414,0.222656,0.0625c0.020508-0.032227-0.09375-0.086914-0.102539-0.111328
		c-0.007813-0.025391-0.021484-0.089844-0.021484-0.113281c0.000977-0.023438,0.008789-0.056641,0.017578-0.075195
		c0.006836-0.019531,0.026367-0.049805,0.042969-0.066406c0.016602-0.018555,0.066406-0.048828,0.112305-0.068359
		c0.043945-0.021484,0.113281-0.046875,0.152344-0.061523c0.039063-0.013672,0.102539-0.024414,0.141602-0.026367
		s0.103516,0.00293,0.140625,0.010742c0.039063,0.007813,0.098633,0.029297,0.132813,0.045898
		c0.035156,0.018555,0.086914,0.052734,0.116211,0.080078c0.030273,0.027344,0.070313,0.073242,0.088867,0.102539
		c0.020508,0.030273,0.041992,0.097656,0.048828,0.148438c0.006836,0.051758,0.010742,0.139648,0.005859,0.196289
		c-0.003906,0.054688-0.019531,0.144531-0.03418,0.199219c-0.016602,0.054688-0.050781,0.135742-0.076172,0.181641
		c-0.026367,0.045898-0.073242,0.112305-0.105469,0.150391c-0.033203,0.038086-0.072266,0.067383-0.09082,0.06543
		c-0.015625-0.000977-0.135742-0.001953-0.264648-0.001953s-0.337891,0.009766-0.463867,0.022461
		c-0.125977,0.011719-0.353516,0.026367-0.505859,0.033203c-0.150391,0.008789-0.399414,0.004883-0.551758-0.007813
		C39.955078,33.421875,39.828125,33.412109,39.826172,33.412109z"/>
</g>
<g id="scrub_x5F_bd_8_" style="enable-background:new    ;">
	<g id="Scrub_x5F_FC_10_">
		<g id="Deleted_Symbol_1_10_">
			<path style="fill:#A9CDA6;" d="M28.171875,47.455078c-0.029297,0-0.054688-0.019531-0.063477-0.046875l-0.148438-0.484375
				c-0.010742-0.032227,0.006836-0.067383,0.039063-0.081055l0.076172-0.029297
				c0.012695-0.000977,0.023438-0.001953,0.032227-0.001953c0.037109,0.011719,0.048828,0.026367,0.055664,0.043945
				l0.146484,0.494141c0.009766,0.035156-0.008789,0.071289-0.042969,0.082031
				c-0.041016,0.012695-0.068359,0.018555-0.081055,0.021484L28.171875,47.455078z"/>
			<path style="fill:#A9CDA6;" d="M29.09082,47.332031c-0.039063,0-0.070313-0.032227-0.071289-0.072266l-0.006836-0.49707
				c0-0.039063-0.013672-0.057617-0.024414-0.069336c-0.013672-0.014648-0.036133-0.022461-0.060547-0.022461
				c-0.023438,0-0.063477,0.007813-0.113281,0.048828c-0.013672,0.009766-0.02832,0.014648-0.044922,0.014648
				c-0.038086-0.004883-0.052734-0.019531-0.05957-0.03125l-0.045898-0.068359
				c-0.021484-0.033203-0.013672-0.076172,0.019531-0.099609c0.085938-0.060547,0.174805-0.09375,0.255859-0.09375
				c0.085938,0,0.162109,0.038086,0.217773,0.109375c0.047852,0.063477,0.073242,0.134766,0.073242,0.211914l0.005859,0.461914
				l0.005859,0.037109c0,0.037109-0.033203,0.069336-0.072266,0.070313H29.09082z"/>
			<path style="fill:#A9CDA6;" d="M31.230469,47.398438c-0.027344-0.005859-0.053711-0.012695-0.076172-0.019531
				c-0.03418-0.010742-0.053711-0.045898-0.043945-0.080078l0.143555-0.496094
				c0.004883-0.017578,0.017578-0.03125,0.033203-0.040039l0.133789,0.023438
				c0.033203,0.012695,0.051758,0.048828,0.041016,0.082031l-0.154297,0.486328
				c-0.009766,0.02832-0.03418,0.045898-0.061523,0.045898L31.230469,47.398438z"/>
			<path style="fill:#A9CDA6;" d="M30.135742,47.290039c-0.046875,0-0.09375-0.017578-0.139648-0.050781
				c0.006836-0.013672-0.174805-0.900391-0.364258-1.183594c-0.024414-0.046875-0.037109-0.09668-0.030273-0.106445
				c0.045898,0.007813,0.09375,0.026367,0.167969,0.072266c0.015625,0.012695,0.185547,0.107422,0.291016,0.600586
				l0.036133,0.116211c0.016602-0.027344,0.044922-1.038086,0.401367-1.194336
				c0.032227-0.020508,0.084961-0.045898,0.111328-0.050781c-0.005859,0.006836-0.013672,0.032227-0.053711,0.09375
				c-0.010742,0.016602-0.213867,0.339844-0.224609,0.792969v0.117188c0.022461-0.013672,0.171875-0.28418,0.448242-0.342773
				c0.033203-0.012695,0.051758-0.015625,0.0625-0.016602c-0.008789,0.004883-0.022461,0.035156-0.095703,0.115234
				c-0.000977,0.000977-0.167969,0.170898-0.461914,0.776367l-0.024414,0.234375
				C30.235352,47.265625,30.192383,47.290039,30.135742,47.290039z"/>
		</g>
	</g>
</g>
<g id="boulder_x5F_bd" style="enable-background:new    ;">
	<path style="fill:#BEBEB4;" d="M26.637695,44.025391c-0.008789,0.000977-0.040039,0.038086-0.037109,0.076172
		s0.032227,0.088867,0.079102,0.085938c0.045898-0.00293,0.209961,0.006836,0.362305,0.019531
		c0.151367,0.012695,0.506836-0.004883,0.662109-0.012695c0.154297-0.007813,0.365234-0.030273,0.492188-0.041016
		C28.322266,44.142578,28.5,44.142578,28.625,44.142578s0.321289,0.023438,0.447266,0.035156
		c0.125977,0.010742,0.214844-0.027344,0.217773-0.06543s-0.044922-0.089844-0.109375-0.095703
		c-0.063477-0.005859-0.101563-0.02832-0.082031-0.049805c0.018555-0.021484,0.057617-0.081055,0.084961-0.131836
		c0.02832-0.051758,0.066406-0.144531,0.083984-0.208984c0.018555-0.063477,0.036133-0.166992,0.040039-0.227539
		s0.000977-0.164063-0.008789-0.229492c-0.007813-0.063477-0.038086-0.148438-0.064453-0.19043
		c-0.025391-0.041992-0.077148-0.103516-0.113281-0.135742c-0.037109-0.032227-0.101563-0.078125-0.145508-0.100586
		c-0.042969-0.021484-0.119141-0.048828-0.166992-0.058594s-0.12793-0.016602-0.176758-0.014648
		c-0.049805,0.003906-0.12793,0.018555-0.173828,0.033203c-0.045898,0.015625-0.12793,0.047852-0.180664,0.072266
		c-0.051758,0.023438-0.113281,0.061523-0.133789,0.083984s-0.084961,0.060547-0.146484,0.074219
		c-0.459961,0.102539-0.612305,0.333008-0.701172,0.40918c-0.087891,0.075195-0.150391,0.171875-0.152344,0.171875
		s-0.007813,0.003906-0.012695,0.009766c-0.004883,0.004883-0.011719,0.009766-0.015625,0.011719
		c-0.003906,0.000977-0.008789,0.004883-0.009766,0.006836s-0.004883,0.006836-0.008789,0.008789
		c-0.00293,0.001953-0.006836,0.007813-0.008789,0.011719s-0.003906,0.007813-0.005859,0.009766
		s-0.004883,0.007813-0.006836,0.012695c-0.001953,0.005859-0.048828,0.032227-0.102539,0.060547
		c-0.054688,0.02832-0.145508,0.091797-0.204102,0.142578c-0.056641,0.050781-0.106445,0.124023-0.109375,0.164063
		C26.655273,43.991211,26.645508,44.024414,26.637695,44.025391z M26.795898,44.013672
		c-0.001953,0-0.00293-0.015625-0.000977-0.033203c0.000977-0.018555,0.037109-0.064453,0.080078-0.101563
		c0.041992-0.037109,0.105469-0.083008,0.142578-0.102539c0.038086-0.018555,0.068359-0.033203,0.069336-0.03125
		s0.004883,0.006836,0.008789,0.011719c0.004883,0.003906,0.039063,0.033203,0.076172,0.064453
		c0.038086,0.030273,0.108398,0.073242,0.157227,0.092773c0.047852,0.021484,0.130859,0.041016,0.183594,0.044922
		c0.050781,0.004883,0.132813,0,0.181641-0.010742c0.050781-0.008789,0.083008-0.048828,0.075195-0.084961
		s-0.049805-0.058594-0.09375-0.048828c-0.042969,0.009766-0.111328,0.014648-0.150391,0.010742
		c-0.040039-0.003906-0.104492-0.019531-0.143555-0.036133c-0.037109-0.014648-0.09668-0.046875-0.125-0.075195
		c-0.087891-0.09375,0.063477-0.229492,0.154297-0.306641c0.09082-0.079102,0.290039-0.311523,0.580078-0.330078
		c0.026367-0.000977,0.043945,0.010742,0.042969,0.038086c-0.000977,0.02832,0.02832,0.120117,0.038086,0.152344
		c0.010742,0.032227,0.167969,0.149414,0.222656,0.0625c0.020508-0.032227-0.09375-0.086914-0.102539-0.111328
		c-0.007813-0.025391-0.021484-0.089844-0.021484-0.113281c0.000977-0.023438,0.008789-0.056641,0.017578-0.075195
		c0.006836-0.019531,0.026367-0.049805,0.042969-0.066406c0.016602-0.018555,0.066406-0.048828,0.112305-0.068359
		c0.043945-0.021484,0.113281-0.046875,0.152344-0.061523c0.039063-0.013672,0.102539-0.024414,0.141602-0.026367
		s0.103516,0.00293,0.140625,0.010742c0.039063,0.007813,0.098633,0.029297,0.132813,0.045898
		c0.035156,0.018555,0.086914,0.052734,0.116211,0.080078c0.030273,0.027344,0.070313,0.073242,0.088867,0.102539
		c0.020508,0.030273,0.041992,0.097656,0.048828,0.148438c0.006836,0.051758,0.010742,0.139648,0.005859,0.196289
		c-0.003906,0.054688-0.019531,0.144531-0.03418,0.199219c-0.016602,0.054688-0.050781,0.135742-0.076172,0.181641
		c-0.026367,0.045898-0.073242,0.112305-0.105469,0.150391c-0.033203,0.038086-0.072266,0.067383-0.09082,0.06543
		c-0.015625-0.000977-0.135742-0.001953-0.264648-0.001953s-0.337891,0.009766-0.463867,0.022461
		c-0.125977,0.011719-0.353516,0.026367-0.505859,0.033203c-0.150391,0.008789-0.399414,0.004883-0.551758-0.007813
		C26.924805,44.023438,26.797852,44.013672,26.795898,44.013672z"/>
</g>
<g id="scrub_x5F_bd_7_" style="enable-background:new    ;">
	<g id="Scrub_x5F_FC_9_">
		<g id="Deleted_Symbol_1_9_">
			<path style="fill:#A9CDA6;" d="M4.395996,48.870117c-0.028809,0-0.053711-0.019531-0.0625-0.046875L4.18457,48.338867
				c-0.010254-0.032227,0.006836-0.067383,0.039063-0.081055l0.07666-0.029297
				C4.3125,48.227539,4.32373,48.226563,4.33252,48.226563c0.036621,0.011719,0.04834,0.026367,0.054688,0.043945l0.146973,0.494141
				c0.009766,0.035156-0.009277,0.071289-0.042969,0.082031c-0.041016,0.012695-0.068359,0.018555-0.081055,0.021484
				L4.395996,48.870117z"/>
			<path style="fill:#A9CDA6;" d="M5.315918,48.74707c-0.039063,0-0.070801-0.032227-0.071777-0.072266l-0.006348-0.49707
				c0-0.039063-0.013672-0.057617-0.024902-0.069336c-0.013672-0.014648-0.035645-0.022461-0.060059-0.022461
				c-0.023926,0-0.063965,0.007813-0.11377,0.048828c-0.013184,0.009766-0.027832,0.014648-0.044922,0.014648
				c-0.038086-0.004883-0.052246-0.019531-0.059082-0.03125L4.88916,48.049805
				c-0.021973-0.033203-0.01416-0.076172,0.019043-0.099609c0.085938-0.060547,0.174805-0.09375,0.255859-0.09375
				c0.085938,0,0.162109,0.038086,0.217773,0.109375c0.047852,0.063477,0.072754,0.134766,0.072754,0.211914l0.005859,0.461914
				l0.005859,0.037109c0,0.037109-0.032715,0.069336-0.071289,0.070313H5.315918z"/>
			<path style="fill:#A9CDA6;" d="M7.455078,48.813477c-0.026855-0.005859-0.053223-0.012695-0.076172-0.019531
				c-0.033691-0.010742-0.053711-0.045898-0.043945-0.080078l0.144043-0.496094
				c0.004883-0.017578,0.01709-0.03125,0.032715-0.040039l0.133789,0.023438c0.033203,0.012695,0.05127,0.048828,0.041016,0.082031
				l-0.154785,0.486328c-0.009277,0.02832-0.033691,0.045898-0.060547,0.045898L7.455078,48.813477z"/>
			<path style="fill:#A9CDA6;" d="M6.360352,48.705078c-0.046875,0-0.09375-0.017578-0.139648-0.050781
				c0.006836-0.013672-0.174316-0.900391-0.364258-1.183594c-0.024902-0.046875-0.037109-0.09668-0.030762-0.106445
				c0.045898,0.007813,0.09375,0.026367,0.168945,0.072266c0.015137,0.012695,0.185059,0.107422,0.291016,0.600586
				l0.036133,0.116211c0.016602-0.027344,0.044922-1.038086,0.400391-1.194336
				c0.032715-0.020508,0.084961-0.045898,0.111816-0.050781c-0.005859,0.006836-0.01416,0.032227-0.053711,0.09375
				c-0.01123,0.016602-0.214355,0.339844-0.225098,0.792969v0.117188c0.022949-0.013672,0.171875-0.28418,0.44873-0.342773
				c0.033203-0.012695,0.052246-0.015625,0.062988-0.016602c-0.008789,0.004883-0.022949,0.035156-0.09668,0.115234
				c-0.000977,0.000977-0.167969,0.170898-0.461914,0.776367l-0.024414,0.234375
				C6.459961,48.680664,6.41748,48.705078,6.360352,48.705078z"/>
		</g>
	</g>
</g>
<g id="boulder_x5F_bd_1_" style="enable-background:new    ;">
	<path style="fill:#BEBEB4;" d="M2.862305,45.44043c-0.008301,0.000977-0.040039,0.038086-0.037109,0.076172
		s0.032715,0.088867,0.079102,0.085938c0.045898-0.00293,0.210938,0.006836,0.362305,0.019531
		c0.151855,0.012695,0.507324-0.004883,0.662598-0.012695c0.154297-0.007813,0.365234-0.030273,0.492188-0.041016
		c0.125977-0.010742,0.303711-0.010742,0.428223-0.010742c0.125,0,0.322266,0.023438,0.447754,0.035156
		c0.125977,0.010742,0.214844-0.027344,0.217773-0.06543S5.470215,45.4375,5.40625,45.431641s-0.102051-0.02832-0.083008-0.049805
		S5.381348,45.300781,5.40918,45.25c0.027832-0.051758,0.065918-0.144531,0.083984-0.208984
		c0.018066-0.063477,0.036133-0.166992,0.040039-0.227539s0.000977-0.164063-0.008789-0.229492
		c-0.008301-0.063477-0.038086-0.148438-0.064453-0.19043c-0.025879-0.041992-0.077637-0.103516-0.11377-0.135742
		c-0.037109-0.032227-0.102051-0.078125-0.145508-0.100586c-0.042969-0.021484-0.119141-0.048828-0.166992-0.058594
		s-0.12793-0.016602-0.177246-0.014648c-0.049805,0.003906-0.127441,0.018555-0.17334,0.033203
		c-0.045898,0.015625-0.12793,0.047852-0.181152,0.072266c-0.051758,0.023438-0.112793,0.061523-0.133301,0.083984
		c-0.02002,0.022461-0.084961,0.060547-0.145996,0.074219c-0.460449,0.102539-0.613281,0.333008-0.701172,0.40918
		c-0.087891,0.075195-0.150879,0.171875-0.152832,0.171875s-0.007813,0.003906-0.013184,0.009766
		c-0.004883,0.004883-0.011719,0.009766-0.015625,0.011719c-0.003418,0.000977-0.008301,0.004883-0.009277,0.006836
		s-0.004883,0.006836-0.008789,0.008789c-0.00293,0.001953-0.007324,0.007813-0.009277,0.011719
		s-0.003906,0.007813-0.005859,0.009766S3.301758,44.995117,3.299805,45c-0.001953,0.005859-0.04834,0.032227-0.102051,0.060547
		c-0.054688,0.02832-0.145508,0.091797-0.203613,0.142578c-0.057129,0.050781-0.106934,0.124023-0.109863,0.164063
		C2.880371,45.40625,2.870117,45.439453,2.862305,45.44043z M3.020996,45.428711c-0.001953,0-0.00293-0.015625-0.000977-0.033203
		c0.000977-0.018555,0.037109-0.064453,0.080078-0.101563c0.041992-0.037109,0.105469-0.083008,0.142578-0.102539
		c0.038086-0.018555,0.067871-0.033203,0.068848-0.03125s0.004883,0.006836,0.009277,0.011719
		c0.004883,0.003906,0.039063,0.033203,0.07666,0.064453c0.038086,0.030273,0.108398,0.073242,0.157227,0.092773
		c0.047363,0.021484,0.130371,0.041016,0.182617,0.044922c0.051758,0.004883,0.133789,0,0.182617-0.010742
		c0.050293-0.008789,0.08252-0.048828,0.074707-0.084961s-0.049316-0.058594-0.093262-0.048828
		C3.85791,45.239258,3.790039,45.244141,3.75,45.240234s-0.104004-0.019531-0.143066-0.036133
		c-0.037598-0.014648-0.096191-0.046875-0.124512-0.075195c-0.087891-0.09375,0.062988-0.229492,0.153809-0.306641
		c0.09082-0.079102,0.290039-0.311523,0.580566-0.330078c0.025879-0.000977,0.043945,0.010742,0.042969,0.038086
		c-0.000977,0.02832,0.027832,0.120117,0.038086,0.152344c0.010742,0.032227,0.16748,0.149414,0.222168,0.0625
		c0.02002-0.032227-0.09375-0.086914-0.103027-0.111328c-0.007813-0.025391-0.020996-0.089844-0.020996-0.113281
		c0.000977-0.023438,0.008301-0.056641,0.01709-0.075195c0.007324-0.019531,0.026855-0.049805,0.042969-0.066406
		c0.01709-0.018555,0.066895-0.048828,0.112305-0.068359c0.044922-0.021484,0.11377-0.046875,0.152832-0.061523
		c0.039063-0.013672,0.102539-0.024414,0.141602-0.026367s0.103027,0.00293,0.141113,0.010742
		c0.038574,0.007813,0.098633,0.029297,0.132813,0.045898c0.035156,0.018555,0.086426,0.052734,0.115723,0.080078
		c0.029785,0.027344,0.069824,0.073242,0.088867,0.102539c0.02002,0.030273,0.041992,0.097656,0.048828,0.148438
		C5.396973,44.662109,5.400391,44.75,5.395996,44.806641c-0.003906,0.054688-0.02002,0.144531-0.034668,0.199219
		c-0.016113,0.054688-0.050293,0.135742-0.076172,0.181641s-0.072754,0.112305-0.104492,0.150391
		c-0.033203,0.038086-0.072754,0.067383-0.09082,0.06543c-0.016113-0.000977-0.13623-0.001953-0.265137-0.001953
		c-0.128418,0-0.338379,0.009766-0.463867,0.022461c-0.125977,0.011719-0.354004,0.026367-0.505859,0.033203
		c-0.150879,0.008789-0.399414,0.004883-0.552246-0.007813C3.149902,45.438477,3.022949,45.428711,3.020996,45.428711z"/>
</g>
<g id="heath_x5F_bd_25_" style="enable-background:new    ;">
	<g id="Heath_x5F_FC_27_">
		<path style="fill:#A9CDA6;" d="M9.529785,38.598633c-0.025879,0-0.05127-0.013672-0.063965-0.037109l-0.198242-0.34082
			c-0.008789-0.015625-0.011719-0.033203-0.006836-0.050781c0.003906-0.020508,0.018066-0.037109,0.035156-0.047852
			l0.055664-0.035156l0.065918-0.005859l0.041992,0.039063l0.19043,0.334961l0.005859,0.06543L9.616699,38.5625l-0.049805,0.025391
			C9.553711,38.595703,9.541504,38.598633,9.529785,38.598633z"/>
		<path style="fill:#A9CDA6;" d="M10.266113,38.455078c-0.038086,0-0.069824-0.023438-0.080078-0.060547l-0.207031-0.649414
			c-0.012695-0.040039,0.005371-0.082031,0.041992-0.101563l0.069336-0.03418l0.07373-0.003906l0.049316,0.058594l0.20459,0.664063
			l-0.009766,0.068359l-0.052246,0.037109c-0.022949,0.007813-0.043945,0.013672-0.05957,0.016602L10.266113,38.455078z"/>
		<path style="fill:#A9CDA6;" d="M11.056152,37.347656l0.104004,0.913086l-0.021973,0.068359l-0.060059,0.035156
			c-0.043945,0.003906-0.083008,0.003906-0.094727,0.003906c-0.052246,0.003906-0.095215-0.03418-0.099121-0.085938
			l-0.085938-0.926758l0.024902-0.072266l0.078125-0.030273l0.072754,0.008789
			C11.01709,37.270508,11.052246,37.299805,11.056152,37.347656z"/>
		<path style="fill:#A9CDA6;" d="M11.696289,38.454102l-0.064941-0.017578l-0.056152-0.044922l-0.005859-0.067383l0.207031-0.664063
			l0.024902-0.027344c0.007813-0.012695,0.016113-0.018555,0.024902-0.022461l0.041016-0.004883l0.033203,0.005859
			l0.063965,0.033203c0.036621,0.019531,0.054688,0.061523,0.041992,0.101563l-0.205078,0.649414
			c-0.013184,0.038086-0.043945,0.061523-0.081055,0.061523L11.696289,38.454102z"/>
		<path style="fill:#A9CDA6;" d="M12.456543,38.598633c-0.011719,0-0.023926-0.00293-0.033691-0.009766l-0.057129-0.030273
			l-0.041992-0.051758l0.01709-0.057617l0.191895-0.333984l0.050781-0.038086l0.060059,0.012695l0.04834,0.032227
			c0.035645,0.020508,0.047852,0.064453,0.027832,0.098633l-0.198242,0.34082
			C12.507813,38.583984,12.483887,38.598633,12.456543,38.598633z"/>
	</g>
</g>
<g id="heath_x5F_bd_16_" style="enable-background:new    ;">
	<g id="Heath_x5F_FC_18_">
		<path style="fill:#A9CDA6;" d="M27.710938,33.323242c-0.026367,0-0.051758-0.013672-0.064453-0.037109l-0.198242-0.34082
			c-0.008789-0.015625-0.011719-0.033203-0.006836-0.050781c0.003906-0.020508,0.018555-0.037109,0.035156-0.047852
			l0.055664-0.035156l0.066406-0.005859l0.041992,0.039063l0.19043,0.334961l0.005859,0.06543l-0.039063,0.041992L27.748047,33.3125
			C27.734375,33.320313,27.722656,33.323242,27.710938,33.323242z"/>
		<path style="fill:#A9CDA6;" d="M28.446289,33.179688c-0.038086,0-0.069336-0.023438-0.080078-0.060547l-0.207031-0.649414
			c-0.012695-0.040039,0.005859-0.082031,0.041992-0.101563l0.069336-0.03418l0.074219-0.003906l0.048828,0.058594
			l0.205078,0.664063l-0.009766,0.068359l-0.052734,0.037109c-0.022461,0.007813-0.043945,0.013672-0.05957,0.016602
			L28.446289,33.179688z"/>
		<path style="fill:#A9CDA6;" d="M29.237305,32.072266l0.103516,0.913086l-0.021484,0.068359l-0.060547,0.035156
			c-0.043945,0.003906-0.083008,0.003906-0.094727,0.003906c-0.052734,0.003906-0.095703-0.03418-0.099609-0.085938
			l-0.085938-0.926758l0.025391-0.072266l0.078125-0.030273l0.072266,0.008789
			C29.198242,31.995117,29.233398,32.024414,29.237305,32.072266z"/>
		<path style="fill:#A9CDA6;" d="M29.876953,33.178711L29.8125,33.161133l-0.056641-0.044922L29.75,33.048828l0.207031-0.664063
			l0.025391-0.027344c0.007813-0.012695,0.015625-0.018555,0.024414-0.022461l0.041016-0.004883l0.033203,0.005859
			l0.064453,0.033203c0.036133,0.019531,0.054688,0.061523,0.041992,0.101563l-0.205078,0.649414
			c-0.013672,0.038086-0.043945,0.061523-0.081055,0.061523L29.876953,33.178711z"/>
		<path style="fill:#A9CDA6;" d="M30.636719,33.323242c-0.011719,0-0.023438-0.00293-0.033203-0.009766l-0.057617-0.030273
			l-0.041992-0.051758l0.017578-0.057617l0.191406-0.333984l0.050781-0.038086l0.060547,0.012695l0.047852,0.032227
			c0.036133,0.020508,0.047852,0.064453,0.02832,0.098633l-0.198242,0.34082
			C30.688477,33.308594,30.664063,33.323242,30.636719,33.323242z"/>
	</g>
</g>
<g id="heath_x5F_bd_28_" style="enable-background:new    ;">
	<g id="Heath_x5F_FC_30_">
		<path style="fill:#A9CDA6;" d="M7.321777,24.641602c-0.025879,0-0.05127-0.013672-0.063965-0.037109l-0.198242-0.34082
			c-0.008789-0.015625-0.011719-0.033203-0.006836-0.050781c0.003906-0.020508,0.018066-0.037109,0.035156-0.047852
			l0.055664-0.035156l0.065918-0.005859l0.041992,0.039063l0.19043,0.334961l0.005859,0.06543l-0.039063,0.041992
			l-0.049805,0.025391C7.345703,24.638672,7.333496,24.641602,7.321777,24.641602z"/>
		<path style="fill:#A9CDA6;" d="M8.058105,24.498047c-0.038086,0-0.069824-0.023438-0.080078-0.060547l-0.207031-0.649414
			c-0.012695-0.040039,0.005371-0.082031,0.041992-0.101563l0.069336-0.03418l0.07373-0.003906l0.049316,0.058594l0.20459,0.664063
			l-0.009766,0.068359l-0.052246,0.037109c-0.022949,0.007813-0.043945,0.013672-0.05957,0.016602L8.058105,24.498047z"/>
		<path style="fill:#A9CDA6;" d="M8.848145,23.390625l0.104004,0.913086L8.930176,24.37207l-0.060059,0.035156
			c-0.043945,0.003906-0.083008,0.003906-0.094727,0.003906c-0.052246,0.003906-0.095215-0.03418-0.099121-0.085938
			l-0.085938-0.926758l0.024902-0.072266l0.078125-0.030273l0.072754,0.008789
			C8.809082,23.313477,8.844238,23.342773,8.848145,23.390625z"/>
		<path style="fill:#A9CDA6;" d="M9.488281,24.49707L9.42334,24.479492L9.367188,24.43457l-0.005859-0.067383l0.207031-0.664063
			l0.024902-0.027344c0.007813-0.012695,0.016113-0.018555,0.024902-0.022461l0.041016-0.004883l0.033203,0.005859L9.756348,23.6875
			c0.036621,0.019531,0.054688,0.061523,0.041992,0.101563l-0.205078,0.649414C9.580078,24.476563,9.549316,24.5,9.512207,24.5
			L9.488281,24.49707z"/>
		<path style="fill:#A9CDA6;" d="M10.248535,24.641602c-0.011719,0-0.023926-0.00293-0.033691-0.009766l-0.057129-0.030273
			l-0.041992-0.051758l0.01709-0.057617l0.191895-0.333984l0.050781-0.038086l0.060059,0.012695l0.04834,0.032227
			c0.035645,0.020508,0.047852,0.064453,0.027832,0.098633l-0.198242,0.34082
			C10.299805,24.626953,10.275879,24.641602,10.248535,24.641602z"/>
	</g>
</g>
<g id="heath_x5F_bd_31_" style="enable-background:new    ;">
	<g id="Heath_x5F_FC_33_">
		<path style="fill:#A9CDA6;" d="M11.714355,14.231445c-0.025879,0-0.05127-0.013672-0.063965-0.037109l-0.198242-0.34082
			c-0.008789-0.015625-0.011719-0.033203-0.006836-0.050781c0.003906-0.020508,0.018066-0.037109,0.035156-0.047852
			l0.055664-0.035156l0.065918-0.005859l0.041992,0.039063l0.19043,0.334961l0.005859,0.06543l-0.039063,0.041992
			l-0.049805,0.025391C11.738281,14.228516,11.726074,14.231445,11.714355,14.231445z"/>
		<path style="fill:#A9CDA6;" d="M12.450684,14.087891c-0.038086,0-0.069824-0.023438-0.080078-0.060547l-0.207031-0.649414
			c-0.012695-0.040039,0.005371-0.082031,0.041992-0.101563l0.069336-0.03418l0.07373-0.003906l0.049316,0.058594l0.20459,0.664063
			l-0.009766,0.068359l-0.052246,0.037109c-0.022949,0.007813-0.043945,0.013672-0.05957,0.016602L12.450684,14.087891z"/>
		<path style="fill:#A9CDA6;" d="M13.240723,12.980469l0.104004,0.913086l-0.021973,0.068359l-0.060059,0.035156
			c-0.043945,0.003906-0.083008,0.003906-0.094727,0.003906c-0.052246,0.003906-0.095215-0.03418-0.099121-0.085938
			l-0.085938-0.926758l0.024902-0.072266l0.078125-0.030273l0.072754,0.008789
			C13.20166,12.90332,13.236816,12.932617,13.240723,12.980469z"/>
		<path style="fill:#A9CDA6;" d="M13.880859,14.086914l-0.064941-0.017578l-0.056152-0.044922l-0.005859-0.067383l0.207031-0.664063
			l0.024902-0.027344c0.007813-0.012695,0.016113-0.018555,0.024902-0.022461l0.041016-0.004883l0.033203,0.005859
			l0.063965,0.033203c0.036621,0.019531,0.054688,0.061523,0.041992,0.101563L13.98584,14.02832
			c-0.013184,0.038086-0.043945,0.061523-0.081055,0.061523L13.880859,14.086914z"/>
		<path style="fill:#A9CDA6;" d="M14.641113,14.231445c-0.011719,0-0.023926-0.00293-0.033691-0.009766l-0.057129-0.030273
			l-0.041992-0.051758l0.01709-0.057617l0.191895-0.333984l0.050781-0.038086l0.060059,0.012695l0.04834,0.032227
			c0.035645,0.020508,0.047852,0.064453,0.027832,0.098633l-0.198242,0.34082
			C14.692383,14.216797,14.668457,14.231445,14.641113,14.231445z"/>
	</g>
</g>
<g id="heath_x5F_bd_12_" style="enable-background:new    ;">
	<g id="Heath_x5F_FC_14_">
		<path style="fill:#A9CDA6;" d="M26.999023,4.448242c-0.026367,0-0.051758-0.013672-0.064453-0.037109l-0.198242-0.34082
			c-0.008789-0.015625-0.011719-0.033203-0.006836-0.050781c0.003906-0.020508,0.018555-0.037109,0.035156-0.047852
			l0.055664-0.035156l0.066406-0.005859l0.041992,0.039063l0.19043,0.334961L27.125,4.370117l-0.039063,0.041992L27.036133,4.4375
			C27.022461,4.445313,27.010742,4.448242,26.999023,4.448242z"/>
		<path style="fill:#A9CDA6;" d="M27.734375,4.304688c-0.038086,0-0.069336-0.023438-0.080078-0.060547l-0.207031-0.649414
			c-0.012695-0.040039,0.005859-0.082031,0.041992-0.101563l0.069336-0.03418l0.074219-0.003906l0.048828,0.058594
			l0.205078,0.664063l-0.009766,0.068359l-0.052734,0.037109c-0.022461,0.007813-0.043945,0.013672-0.05957,0.016602
			L27.734375,4.304688z"/>
		<path style="fill:#A9CDA6;" d="M28.525391,3.197266l0.103516,0.913086l-0.021484,0.068359l-0.060547,0.035156
			c-0.043945,0.003906-0.083008,0.003906-0.094727,0.003906c-0.052734,0.003906-0.095703-0.03418-0.099609-0.085938
			l-0.085938-0.926758l0.025391-0.072266l0.078125-0.030273l0.072266,0.008789
			C28.486328,3.120117,28.521484,3.149414,28.525391,3.197266z"/>
		<path style="fill:#A9CDA6;" d="M29.165039,4.303711l-0.064453-0.017578l-0.056641-0.044922l-0.005859-0.067383l0.207031-0.664063
			l0.025391-0.027344c0.007813-0.012695,0.015625-0.018555,0.024414-0.022461l0.041016-0.004883l0.033203,0.005859
			l0.064453,0.033203c0.036133,0.019531,0.054688,0.061523,0.041992,0.101563l-0.205078,0.649414
			c-0.013672,0.038086-0.043945,0.061523-0.081055,0.061523L29.165039,4.303711z"/>
		<path style="fill:#A9CDA6;" d="M29.924805,4.448242c-0.011719,0-0.023438-0.00293-0.033203-0.009766l-0.057617-0.030273
			l-0.041992-0.051758l0.017578-0.057617l0.191406-0.333984l0.050781-0.038086l0.060547,0.012695l0.047852,0.032227
			c0.036133,0.020508,0.047852,0.064453,0.02832,0.098633l-0.198242,0.34082
			C29.976563,4.433594,29.952148,4.448242,29.924805,4.448242z"/>
	</g>
</g>
<g id="heath_x5F_bd_3_" style="enable-background:new    ;">
	<g id="Heath_x5F_FC_5_">
		<path style="fill:#A9CDA6;" d="M38.181641,12.495117c-0.026367,0-0.051758-0.013672-0.064453-0.037109l-0.198242-0.34082
			c-0.008789-0.015625-0.011719-0.033203-0.006836-0.050781c0.003906-0.020508,0.018555-0.037109,0.035156-0.047852
			l0.055664-0.035156l0.066406-0.005859l0.041992,0.039063l0.19043,0.334961l0.005859,0.06543l-0.039063,0.041992
			l-0.049805,0.025391C38.205078,12.492188,38.193359,12.495117,38.181641,12.495117z"/>
		<path style="fill:#A9CDA6;" d="M38.916992,12.351563c-0.038086,0-0.069336-0.023438-0.080078-0.060547l-0.207031-0.649414
			c-0.012695-0.040039,0.005859-0.082031,0.041992-0.101563l0.069336-0.03418l0.074219-0.003906l0.048828,0.058594
			l0.205078,0.664063l-0.009766,0.068359l-0.052734,0.037109c-0.022461,0.007813-0.043945,0.013672-0.05957,0.016602
			L38.916992,12.351563z"/>
		<path style="fill:#A9CDA6;" d="M39.708008,11.244141l0.103516,0.913086l-0.021484,0.068359l-0.060547,0.035156
			c-0.043945,0.003906-0.083008,0.003906-0.094727,0.003906c-0.052734,0.003906-0.095703-0.03418-0.099609-0.085938
			l-0.085938-0.926758l0.025391-0.072266l0.078125-0.030273L39.625,11.158203
			C39.668945,11.166992,39.704102,11.196289,39.708008,11.244141z"/>
		<path style="fill:#A9CDA6;" d="M40.347656,12.350586l-0.064453-0.017578l-0.056641-0.044922l-0.005859-0.067383l0.207031-0.664063
			l0.025391-0.027344c0.007813-0.012695,0.015625-0.018555,0.024414-0.022461l0.041016-0.004883l0.033203,0.005859
			l0.064453,0.033203c0.036133,0.019531,0.054688,0.061523,0.041992,0.101563l-0.205078,0.649414
			c-0.013672,0.038086-0.043945,0.061523-0.081055,0.061523L40.347656,12.350586z"/>
		<path style="fill:#A9CDA6;" d="M41.107422,12.495117c-0.011719,0-0.023438-0.00293-0.033203-0.009766l-0.057617-0.030273
			l-0.041992-0.051758l0.017578-0.057617l0.191406-0.333984l0.050781-0.038086l0.060547,0.012695l0.047852,0.032227
			c0.036133,0.020508,0.047852,0.064453,0.02832,0.098633l-0.198242,0.34082
			C41.15918,12.480469,41.134766,12.495117,41.107422,12.495117z"/>
	</g>
</g>
<g id="heath_x5F_bd" style="enable-background:new    ;">
	<g id="Heath_x5F_FC_2_">
		<path style="fill:#A9CDA6;" d="M43.695313,4.110352c-0.026367,0-0.051758-0.013672-0.064453-0.037109l-0.198242-0.34082
			c-0.008789-0.015625-0.011719-0.033203-0.006836-0.050781c0.003906-0.020508,0.018555-0.037109,0.035156-0.047852
			l0.055664-0.035156l0.066406-0.005859L43.625,3.631836l0.19043,0.334961l0.005859,0.06543l-0.039063,0.041992l-0.049805,0.025391
			C43.71875,4.107422,43.707031,4.110352,43.695313,4.110352z"/>
		<path style="fill:#A9CDA6;" d="M44.430664,3.966797c-0.038086,0-0.069336-0.023438-0.080078-0.060547l-0.207031-0.649414
			c-0.012695-0.040039,0.005859-0.082031,0.041992-0.101563l0.069336-0.03418l0.074219-0.003906l0.048828,0.058594
			l0.205078,0.664063l-0.009766,0.068359l-0.052734,0.037109c-0.022461,0.007813-0.043945,0.013672-0.05957,0.016602
			L44.430664,3.966797z"/>
		<path style="fill:#A9CDA6;" d="M45.22168,2.859375l0.103516,0.913086L45.303711,3.84082l-0.060547,0.035156
			c-0.043945,0.003906-0.083008,0.003906-0.094727,0.003906c-0.052734,0.003906-0.095703-0.03418-0.099609-0.085938
			l-0.085938-0.926758l0.025391-0.072266l0.078125-0.030273l0.072266,0.008789
			C45.182617,2.782227,45.217773,2.811523,45.22168,2.859375z"/>
		<path style="fill:#A9CDA6;" d="M45.861328,3.96582l-0.064453-0.017578L45.740234,3.90332l-0.005859-0.067383l0.207031-0.664063
			l0.025391-0.027344c0.007813-0.012695,0.015625-0.018555,0.024414-0.022461l0.041016-0.004883l0.033203,0.005859
			l0.064453,0.033203c0.036133,0.019531,0.054688,0.061523,0.041992,0.101563l-0.205078,0.649414
			c-0.013672,0.038086-0.043945,0.061523-0.081055,0.061523L45.861328,3.96582z"/>
		<path style="fill:#A9CDA6;" d="M46.621094,4.110352c-0.011719,0-0.023438-0.00293-0.033203-0.009766l-0.057617-0.030273
			l-0.041992-0.051758l0.017578-0.057617l0.191406-0.333984l0.050781-0.038086l0.060547,0.012695l0.047852,0.032227
			c0.036133,0.020508,0.047852,0.064453,0.02832,0.098633l-0.198242,0.34082
			C46.672852,4.095703,46.648438,4.110352,46.621094,4.110352z"/>
	</g>
</g>
<g id="heath_x5F_bd_7_" style="enable-background:new    ;">
	<g id="Heath_x5F_FC_9_">
		<path style="fill:#A9CDA6;" d="M38.678711,22.373047c-0.026367,0-0.051758-0.013672-0.064453-0.037109l-0.198242-0.34082
			c-0.008789-0.015625-0.011719-0.033203-0.006836-0.050781c0.003906-0.020508,0.018555-0.037109,0.035156-0.047852L38.5,21.861328
			l0.066406-0.005859l0.041992,0.039063l0.19043,0.334961l0.005859,0.06543l-0.039063,0.041992l-0.049805,0.025391
			C38.702148,22.370117,38.69043,22.373047,38.678711,22.373047z"/>
		<path style="fill:#A9CDA6;" d="M39.414063,22.229492c-0.038086,0-0.069336-0.023438-0.080078-0.060547l-0.207031-0.649414
			c-0.012695-0.040039,0.005859-0.082031,0.041992-0.101563l0.069336-0.03418l0.074219-0.003906l0.048828,0.058594
			l0.205078,0.664063l-0.009766,0.068359l-0.052734,0.037109c-0.022461,0.007813-0.043945,0.013672-0.05957,0.016602
			L39.414063,22.229492z"/>
		<path style="fill:#A9CDA6;" d="M40.205078,21.12207l0.103516,0.913086l-0.021484,0.068359l-0.060547,0.035156
			c-0.043945,0.003906-0.083008,0.003906-0.094727,0.003906c-0.052734,0.003906-0.095703-0.03418-0.099609-0.085938
			l-0.085938-0.926758l0.025391-0.072266l0.078125-0.030273l0.072266,0.008789
			C40.166016,21.044922,40.201172,21.074219,40.205078,21.12207z"/>
		<path style="fill:#A9CDA6;" d="M40.844727,22.228516l-0.064453-0.017578l-0.056641-0.044922l-0.005859-0.067383l0.207031-0.664063
			l0.025391-0.027344c0.007813-0.012695,0.015625-0.018555,0.024414-0.022461l0.041016-0.004883l0.033203,0.005859
			l0.064453,0.033203c0.036133,0.019531,0.054688,0.061523,0.041992,0.101563l-0.205078,0.649414
			c-0.013672,0.038086-0.043945,0.061523-0.081055,0.061523L40.844727,22.228516z"/>
		<path style="fill:#A9CDA6;" d="M41.604492,22.373047c-0.011719,0-0.023438-0.00293-0.033203-0.009766l-0.057617-0.030273
			L41.47168,22.28125l0.017578-0.057617l0.191406-0.333984l0.050781-0.038086l0.060547,0.012695l0.047852,0.032227
			c0.036133,0.020508,0.047852,0.064453,0.02832,0.098633l-0.198242,0.34082
			C41.65625,22.358398,41.631836,22.373047,41.604492,22.373047z"/>
	</g>
</g>
<g id="heath_x5F_bd_10_" style="enable-background:new    ;">
	<g id="Heath_x5F_FC_12_">
		<path style="fill:#A9CDA6;" d="M43.946289,34.275391c-0.026367,0-0.051758-0.013672-0.064453-0.037109l-0.198242-0.34082
			c-0.008789-0.015625-0.011719-0.033203-0.006836-0.050781c0.003906-0.020508,0.018555-0.037109,0.035156-0.047852
			l0.055664-0.035156l0.066406-0.005859l0.041992,0.039063l0.19043,0.334961l0.005859,0.06543l-0.039063,0.041992
			l-0.049805,0.025391C43.969727,34.272461,43.958008,34.275391,43.946289,34.275391z"/>
		<path style="fill:#A9CDA6;" d="M44.681641,34.131836c-0.038086,0-0.069336-0.023438-0.080078-0.060547l-0.207031-0.649414
			c-0.012695-0.040039,0.005859-0.082031,0.041992-0.101563l0.069336-0.03418l0.074219-0.003906l0.048828,0.058594
			l0.205078,0.664063l-0.009766,0.068359l-0.052734,0.037109c-0.022461,0.007813-0.043945,0.013672-0.05957,0.016602
			L44.681641,34.131836z"/>
		<path style="fill:#A9CDA6;" d="M45.472656,33.024414l0.103516,0.913086l-0.021484,0.068359l-0.060547,0.035156
			c-0.043945,0.003906-0.083008,0.003906-0.094727,0.003906c-0.052734,0.003906-0.095703-0.03418-0.099609-0.085938
			l-0.085938-0.926758l0.025391-0.072266l0.078125-0.030273l0.072266,0.008789
			C45.433594,32.947266,45.46875,32.976563,45.472656,33.024414z"/>
		<path style="fill:#A9CDA6;" d="M46.112305,34.130859l-0.064453-0.017578l-0.056641-0.044922l-0.005859-0.067383l0.207031-0.664063
			l0.025391-0.027344c0.007813-0.012695,0.015625-0.018555,0.024414-0.022461l0.041016-0.004883l0.033203,0.005859
			l0.064453,0.033203c0.036133,0.019531,0.054688,0.061523,0.041992,0.101563l-0.205078,0.649414
			c-0.013672,0.038086-0.043945,0.061523-0.081055,0.061523L46.112305,34.130859z"/>
		<path style="fill:#A9CDA6;" d="M46.87207,34.275391c-0.011719,0-0.023438-0.00293-0.033203-0.009766l-0.057617-0.030273
			l-0.041992-0.051758l0.017578-0.057617l0.191406-0.333984l0.050781-0.038086l0.060547,0.012695l0.047852,0.032227
			c0.036133,0.020508,0.047852,0.064453,0.02832,0.098633l-0.198242,0.34082
			C46.923828,34.260742,46.899414,34.275391,46.87207,34.275391z"/>
	</g>
</g>
<g id="heath_x5F_bd_19_" style="enable-background:new    ;">
	<g id="Heath_x5F_FC_21_">
		<path style="fill:#A9CDA6;" d="M30.916016,44.876953c-0.026367,0-0.051758-0.013672-0.064453-0.037109l-0.198242-0.34082
			c-0.008789-0.015625-0.011719-0.033203-0.006836-0.050781c0.003906-0.020508,0.018555-0.037109,0.035156-0.047852
			l0.055664-0.035156l0.066406-0.005859l0.041992,0.039063l0.19043,0.334961l0.005859,0.06543L31.00293,44.84082l-0.049805,0.025391
			C30.939453,44.874023,30.927734,44.876953,30.916016,44.876953z"/>
		<path style="fill:#A9CDA6;" d="M31.651367,44.733398c-0.038086,0-0.069336-0.023438-0.080078-0.060547l-0.207031-0.649414
			c-0.012695-0.040039,0.005859-0.082031,0.041992-0.101563l0.069336-0.03418l0.074219-0.003906l0.048828,0.058594
			l0.205078,0.664063l-0.009766,0.068359l-0.052734,0.037109c-0.022461,0.007813-0.043945,0.013672-0.05957,0.016602
			L31.651367,44.733398z"/>
		<path style="fill:#A9CDA6;" d="M32.442383,43.625977l0.103516,0.913086l-0.021484,0.068359l-0.060547,0.035156
			c-0.043945,0.003906-0.083008,0.003906-0.094727,0.003906c-0.052734,0.003906-0.095703-0.03418-0.099609-0.085938
			l-0.085938-0.926758l0.025391-0.072266l0.078125-0.030273l0.072266,0.008789
			C32.40332,43.548828,32.438477,43.578125,32.442383,43.625977z"/>
		<path style="fill:#A9CDA6;" d="M33.082031,44.732422l-0.064453-0.017578l-0.056641-0.044922l-0.005859-0.067383l0.207031-0.664063
			l0.025391-0.027344c0.007813-0.012695,0.015625-0.018555,0.024414-0.022461l0.041016-0.004883l0.033203,0.005859
			l0.064453,0.033203c0.036133,0.019531,0.054688,0.061523,0.041992,0.101563L33.1875,44.673828
			c-0.013672,0.038086-0.043945,0.061523-0.081055,0.061523L33.082031,44.732422z"/>
		<path style="fill:#A9CDA6;" d="M33.841797,44.876953c-0.011719,0-0.023438-0.00293-0.033203-0.009766l-0.057617-0.030273
			l-0.041992-0.051758l0.017578-0.057617l0.191406-0.333984l0.050781-0.038086l0.060547,0.012695l0.047852,0.032227
			c0.036133,0.020508,0.047852,0.064453,0.02832,0.098633l-0.198242,0.34082
			C33.893555,44.862305,33.869141,44.876953,33.841797,44.876953z"/>
	</g>
</g>
<g id="heath_x5F_bd_22_" style="enable-background:new    ;">
	<g id="Heath_x5F_FC_24_">
		<path style="fill:#A9CDA6;" d="M7.140625,46.291992c-0.025879,0-0.05127-0.013672-0.063965-0.037109l-0.198242-0.34082
			c-0.008789-0.015625-0.011719-0.033203-0.006836-0.050781c0.003906-0.020508,0.018066-0.037109,0.035156-0.047852
			l0.055664-0.035156l0.065918-0.005859l0.041992,0.039063l0.19043,0.334961l0.005859,0.06543l-0.039063,0.041992L7.177734,46.28125
			C7.164551,46.289063,7.152344,46.291992,7.140625,46.291992z"/>
		<path style="fill:#A9CDA6;" d="M7.876953,46.148438c-0.038086,0-0.069824-0.023438-0.080078-0.060547l-0.207031-0.649414
			c-0.012695-0.040039,0.005371-0.082031,0.041992-0.101563l0.069336-0.03418l0.07373-0.003906l0.049316,0.058594l0.20459,0.664063
			l-0.009766,0.068359l-0.052246,0.037109c-0.022949,0.007813-0.043945,0.013672-0.05957,0.016602L7.876953,46.148438z"/>
		<path style="fill:#A9CDA6;" d="M8.666992,45.041016l0.104004,0.913086l-0.021973,0.068359l-0.060059,0.035156
			c-0.043945,0.003906-0.083008,0.003906-0.094727,0.003906c-0.052246,0.003906-0.095215-0.03418-0.099121-0.085938
			L8.40918,45.048828l0.024902-0.072266l0.078125-0.030273l0.072754,0.008789
			C8.62793,44.963867,8.663086,44.993164,8.666992,45.041016z"/>
		<path style="fill:#A9CDA6;" d="M9.307129,46.147461l-0.064941-0.017578l-0.056152-0.044922l-0.005859-0.067383l0.207031-0.664063
			l0.024902-0.027344c0.007813-0.012695,0.016113-0.018555,0.024902-0.022461l0.041016-0.004883l0.033203,0.005859
			l0.063965,0.033203c0.036621,0.019531,0.054688,0.061523,0.041992,0.101563l-0.205078,0.649414
			c-0.013184,0.038086-0.043945,0.061523-0.081055,0.061523L9.307129,46.147461z"/>
		<path style="fill:#A9CDA6;" d="M10.067383,46.291992c-0.011719,0-0.023926-0.00293-0.033691-0.009766l-0.057129-0.030273
			L9.93457,46.200195l0.01709-0.057617l0.191895-0.333984l0.050781-0.038086l0.060059,0.012695l0.04834,0.032227
			c0.035645,0.020508,0.047852,0.064453,0.027832,0.098633l-0.198242,0.34082
			C10.118652,46.277344,10.094727,46.291992,10.067383,46.291992z"/>
	</g>
</g>
</svg>
