<?xml version="1.0" encoding="utf-8"?>
<!-- Generator: Adobe Illustrator 16.0.3, SVG Export Plug-In . SVG Version: 6.00 Build 0)  -->
<!DOCTYPE svg PUBLIC "-//W3C//DTD SVG 1.1//EN" "http://www.w3.org/Graphics/SVG/1.1/DTD/svg11.dtd">
<svg version="1.1" id="Layer_1" xmlns="http://www.w3.org/2000/svg" xmlns:xlink="http://www.w3.org/1999/xlink" x="0px" y="0px"
	 width="50px" height="50px" viewBox="0 0 50 50" style="enable-background:new 0 0 50 50;" xml:space="preserve">
<g id="scrub_x5F_bd_14_">
	<g id="Scrub_x5F_FC_16_">
		<g id="Deleted_Symbol_1_16_">
			<path style="fill:#A9CDA6;" d="M6.785156,41.175781c-0.028809,0-0.054199-0.020508-0.062988-0.047852L6.57373,40.644531
				c-0.010254-0.032227,0.006836-0.067383,0.039063-0.081055l0.07666-0.029297
				c0.012207-0.000977,0.023438-0.001953,0.031738-0.001953c0.037109,0.011719,0.048828,0.026367,0.055176,0.043945
				l0.146973,0.494141c0.009766,0.035156-0.009277,0.071289-0.042969,0.082031
				c-0.041016,0.012695-0.068359,0.018555-0.081055,0.021484L6.785156,41.175781z"/>
			<path style="fill:#A9CDA6;" d="M7.705078,41.052734c-0.039063,0-0.070801-0.032227-0.071777-0.072266l-0.006348-0.49707
				c0-0.039063-0.013672-0.057617-0.024902-0.069336c-0.013672-0.014648-0.035645-0.021484-0.060059-0.021484
				c-0.023926,0-0.063965,0.007813-0.11377,0.048828c-0.013184,0.008789-0.027832,0.013672-0.044922,0.013672
				c-0.038086-0.004883-0.052246-0.019531-0.059082-0.03125L7.27832,40.355469
				c-0.021973-0.033203-0.01416-0.076172,0.019043-0.100586c0.085938-0.05957,0.174805-0.092773,0.255859-0.092773
				c0.085938,0,0.162109,0.038086,0.217773,0.109375c0.047852,0.0625,0.072754,0.134766,0.072754,0.211914l0.005859,0.461914
				l0.005859,0.037109c0,0.037109-0.032715,0.069336-0.071289,0.070313H7.705078z"/>
			<path style="fill:#A9CDA6;" d="M9.844238,41.119141c-0.026855-0.005859-0.053223-0.012695-0.076172-0.019531
				c-0.033691-0.010742-0.053711-0.045898-0.043945-0.080078l0.144043-0.496094
				c0.004883-0.018555,0.01709-0.03125,0.033203-0.040039l0.133301,0.022461c0.033203,0.013672,0.05127,0.049805,0.041016,0.083008
				l-0.154297,0.486328c-0.009277,0.02832-0.03418,0.045898-0.061035,0.045898L9.844238,41.119141z"/>
			<path style="fill:#A9CDA6;" d="M8.749512,41.010742c-0.046875,0-0.09375-0.018555-0.139648-0.051758
				c0.006836-0.013672-0.174316-0.899414-0.364258-1.183594c-0.024902-0.045898-0.037109-0.095703-0.030762-0.105469
				c0.045898,0.008789,0.09375,0.026367,0.168945,0.072266c0.015137,0.012695,0.185059,0.107422,0.291016,0.600586
				l0.036133,0.115234c0.016602-0.026367,0.044922-1.038086,0.400391-1.193359
				c0.032715-0.020508,0.084961-0.045898,0.111816-0.050781c-0.005859,0.006836-0.01416,0.032227-0.053711,0.09375
				c-0.01123,0.016602-0.214355,0.339844-0.225098,0.792969v0.117188c0.022949-0.013672,0.171875-0.28418,0.44873-0.342773
				c0.033203-0.012695,0.052246-0.015625,0.062988-0.016602c-0.008789,0.004883-0.022949,0.035156-0.09668,0.115234
				C9.358398,39.974609,9.191406,40.144531,8.897461,40.75l-0.024414,0.234375
				C8.849609,40.986328,8.806641,41.010742,8.749512,41.010742z"/>
		</g>
	</g>
</g>
<g id="nonconiferoustree_x5F_bd_14_">
	<g id="NonConiferousTree_x5F_FC_16_">
		<g id="Deleted_Symbol_2_16_">
			<path style="fill:#A9CDA6;" d="M12.373535,38.115234c0,0.317383-0.260742,0.578125-0.57666,0.578125
				c-0.104492,0-0.205566-0.03418-0.296875-0.100586c-0.07373,0.133789-0.206055,0.232422-0.355957,0.270508
				c0.00293,0.036133,0.013184,0.138672,0.036133,0.425781v0.00293c0,0.039063-0.025879,0.066406-0.058105,0.087891
				c-0.031738,0.014648-0.070801,0.025391-0.109863,0.025391c-0.032227,0-0.067871-0.009766-0.098145-0.024414
				c-0.028809-0.021484-0.051758-0.048828-0.051758-0.087891c0,0,0-0.00293,0.015625-0.432617
				c-0.11377-0.035156-0.224609-0.100586-0.308594-0.195313c-0.095215,0.103516-0.239258,0.169922-0.395508,0.169922
				c-0.300293,0-0.561035-0.260742-0.561035-0.577148c0-0.198242,0.104004-0.37793,0.263672-0.475586
				C9.86377,37.729492,9.86084,37.676758,9.86084,37.615234c0-0.255859,0.162598-0.456055,0.395508-0.53418
				c0-0.023438,0-0.041992,0-0.072266c0-0.15918,0.058594-0.298828,0.159668-0.401367
				c0.102051-0.100586,0.242188-0.158203,0.401367-0.158203c0.289551,0,0.523926,0.206055,0.556641,0.478516
				c0.026367,0,0.052246,0,0.064941,0c0.319824,0,0.580566,0.260742,0.580566,0.560547
				c0,0.041992-0.012695,0.072266-0.016113,0.111328C12.21875,37.680664,12.373535,37.876953,12.373535,38.115234z
				 M12.179688,38.115234c0-0.163086-0.132813-0.333008-0.315918-0.365234c0,0,0,0-0.072266-0.021484l-0.026855-0.005859
				l0.005859-0.026367c0,0,0,0,0.016113-0.070313c0.02002-0.056641,0.037109-0.087891,0.037109-0.137695
				c0-0.194336-0.16748-0.363281-0.385742-0.363281c-0.032715,0-0.083984,0.00293-0.11084,0.016602h-0.001953h-0.003906
				c0,0,0,0-0.104004,0.036133l-0.041992,0.013672l0.005859-0.044922c0,0,0,0,0.01709-0.103516v-0.033203
				c0-0.198242-0.163086-0.365234-0.380859-0.365234c-0.199219,0-0.365234,0.166992-0.365234,0.365234
				c0,0.036133,0,0.084961,0.013184,0.111328l0.00293,0.00293v0.005859c0,0,0,0,0.01709,0.086914L10.491211,37.25h-0.033203
				c0,0,0,0-0.084961,0c-0.18457,0.016602-0.317383,0.182617-0.317383,0.365234c0,0.070313,0,0.116211,0.032227,0.161133v0.005859
				c0,0,0,0,0.035645,0.070313l0.016113,0.029297l-0.033203,0.005859c0,0,0,0-0.067871,0.021484
				c-0.149902,0.063477-0.230957,0.197266-0.230957,0.348633c0,0.21875,0.166016,0.381836,0.365234,0.381836
				c0.133301,0,0.248535-0.063477,0.33252-0.182617c0.00293-0.006836,0.013672-0.026367,0.051758-0.104492l0.022949-0.041992
				l0.021973,0.039063c0,0,0,0,0.072266,0.108398l0.00293,0.00293c0.048828,0.133789,0.183105,0.232422,0.333008,0.232422
				c0.166992,0,0.315918-0.115234,0.349121-0.263672v-0.00293c0,0,0,0,0.035645-0.124023l0.013184-0.041992l0.033203,0.030273
				c0,0,0,0,0.087891,0.09082c0.065918,0.064453,0.166992,0.117188,0.268555,0.117188
				C12.013672,38.496094,12.179688,38.333008,12.179688,38.115234z"/>
		</g>
	</g>
</g>
<g id="nonconiferoustree_x5F_bd_13_" style="enable-background:new    ;">
	<g id="NonConiferousTree_x5F_FC_15_">
		<g id="Deleted_Symbol_2_15_">
			<path style="fill:#A9CDA6;" d="M7.949707,37.351563c0,0.317383-0.260742,0.578125-0.57666,0.578125
				c-0.104492,0-0.205566-0.03418-0.296875-0.100586c-0.07373,0.133789-0.206055,0.232422-0.355957,0.270508
				c0.00293,0.036133,0.013184,0.138672,0.036133,0.425781v0.00293c0,0.039063-0.025879,0.066406-0.058105,0.087891
				c-0.031738,0.014648-0.070801,0.025391-0.109863,0.025391c-0.032227,0-0.067871-0.009766-0.098145-0.024414
				c-0.028809-0.021484-0.051758-0.048828-0.051758-0.087891c0,0,0-0.00293,0.015625-0.432617
				c-0.11377-0.035156-0.224609-0.100586-0.308594-0.195313C6.050293,38.004883,5.90625,38.071289,5.75,38.071289
				c-0.300293,0-0.561035-0.260742-0.561035-0.577148c0-0.198242,0.104004-0.37793,0.263672-0.475586
				c-0.012695-0.052734-0.015625-0.105469-0.015625-0.166992c0-0.255859,0.162598-0.456055,0.395508-0.53418
				c0-0.023438,0-0.041992,0-0.072266c0-0.15918,0.058594-0.298828,0.159668-0.401367
				c0.102051-0.100586,0.242188-0.158203,0.401367-0.158203c0.289551,0,0.523926,0.206055,0.556641,0.478516
				c0.026367,0,0.052246,0,0.064941,0c0.319824,0,0.580566,0.260742,0.580566,0.560547
				c0,0.041992-0.012695,0.072266-0.016113,0.111328C7.794922,36.916992,7.949707,37.113281,7.949707,37.351563z
				 M7.755859,37.351563c0-0.163086-0.132813-0.333008-0.315918-0.365234c0,0,0,0-0.072266-0.021484L7.34082,36.958984
				l0.005859-0.026367c0,0,0,0,0.016113-0.070313c0.02002-0.056641,0.037109-0.087891,0.037109-0.137695
				c0-0.194336-0.16748-0.363281-0.385742-0.363281c-0.032715,0-0.083984,0.00293-0.11084,0.016602H6.901367H6.897461
				c0,0,0,0-0.104004,0.036133l-0.041992,0.013672l0.005859-0.044922c0,0,0,0,0.01709-0.103516v-0.033203
				c0-0.198242-0.163086-0.365234-0.380859-0.365234c-0.199219,0-0.365234,0.166992-0.365234,0.365234
				c0,0.036133,0,0.084961,0.013184,0.111328l0.00293,0.00293v0.005859c0,0,0,0,0.01709,0.086914l0.005859,0.033203H6.03418
				c0,0,0,0-0.084961,0c-0.18457,0.016602-0.317383,0.182617-0.317383,0.365234c0,0.070313,0,0.116211,0.032227,0.161133v0.005859
				c0,0,0,0,0.035645,0.070313l0.016113,0.029297l-0.033203,0.005859c0,0,0,0-0.067871,0.021484
				c-0.149902,0.063477-0.230957,0.197266-0.230957,0.348633c0,0.21875,0.166016,0.381836,0.365234,0.381836
				c0.133301,0,0.248535-0.063477,0.33252-0.182617c0.00293-0.006836,0.013672-0.026367,0.051758-0.104492l0.022949-0.041992
				l0.021973,0.039063c0,0,0,0,0.072266,0.108398l0.00293,0.00293c0.048828,0.133789,0.183105,0.232422,0.333008,0.232422
				c0.166992,0,0.315918-0.115234,0.349121-0.263672v-0.00293c0,0,0,0,0.035645-0.124023l0.013184-0.041992l0.033203,0.030273
				c0,0,0,0,0.087891,0.09082c0.065918,0.064453,0.166992,0.117188,0.268555,0.117188
				C7.589844,37.732422,7.755859,37.569336,7.755859,37.351563z"/>
		</g>
	</g>
</g>
<g id="scrub_x5F_bd_10_" style="enable-background:new    ;">
	<g id="Scrub_x5F_FC_12_">
		<g id="Deleted_Symbol_1_12_">
			<path style="fill:#A9CDA6;" d="M24.966309,35.900391c-0.028809,0-0.054199-0.020508-0.062988-0.047852l-0.148438-0.483398
				c-0.010254-0.032227,0.006836-0.067383,0.039063-0.081055l0.07666-0.029297
				c0.012207-0.000977,0.023438-0.001953,0.031738-0.001953c0.037109,0.011719,0.048828,0.026367,0.055176,0.043945
				l0.146973,0.494141c0.009766,0.035156-0.009277,0.071289-0.042969,0.082031
				c-0.041016,0.012695-0.068359,0.018555-0.081055,0.021484L24.966309,35.900391z"/>
			<path style="fill:#A9CDA6;" d="M25.885742,35.777344c-0.039063,0-0.070313-0.032227-0.071289-0.072266l-0.006836-0.49707
				c0-0.039063-0.013672-0.057617-0.024414-0.069336c-0.013672-0.014648-0.036133-0.021484-0.060547-0.021484
				c-0.023438,0-0.063477,0.007813-0.113281,0.048828c-0.013672,0.008789-0.02832,0.013672-0.044922,0.013672
				c-0.038086-0.004883-0.052734-0.019531-0.05957-0.03125l-0.04541-0.068359
				c-0.021973-0.033203-0.01416-0.076172,0.019043-0.100586c0.085938-0.05957,0.174805-0.092773,0.255859-0.092773
				c0.085938,0,0.162109,0.038086,0.217773,0.109375c0.047852,0.0625,0.073242,0.134766,0.073242,0.211914l0.005859,0.461914
				l0.005859,0.037109c0,0.037109-0.033203,0.069336-0.072266,0.070313H25.885742z"/>
			<path style="fill:#A9CDA6;" d="M28.025391,35.84375c-0.027344-0.005859-0.053711-0.012695-0.076172-0.019531
				c-0.03418-0.010742-0.053711-0.045898-0.043945-0.080078l0.143555-0.496094
				c0.004883-0.018555,0.017578-0.03125,0.033203-0.040039l0.133789,0.022461
				c0.033203,0.013672,0.051758,0.049805,0.041016,0.083008l-0.154297,0.486328
				c-0.009766,0.02832-0.03418,0.045898-0.061523,0.045898L28.025391,35.84375z"/>
			<path style="fill:#A9CDA6;" d="M26.930664,35.735352c-0.046875,0-0.09375-0.018555-0.139648-0.051758
				c0.006836-0.013672-0.174805-0.899414-0.364258-1.183594c-0.024414-0.045898-0.037109-0.095703-0.030273-0.105469
				c0.045898,0.008789,0.09375,0.026367,0.167969,0.072266c0.015625,0.012695,0.185547,0.107422,0.291016,0.600586
				l0.036133,0.115234c0.016602-0.026367,0.044922-1.038086,0.401367-1.193359
				c0.032227-0.020508,0.084961-0.045898,0.111328-0.050781c-0.005859,0.006836-0.013672,0.032227-0.053711,0.09375
				c-0.010742,0.016602-0.213867,0.339844-0.224609,0.792969v0.117188c0.022461-0.013672,0.171875-0.28418,0.448242-0.342773
				c0.033203-0.012695,0.051758-0.015625,0.0625-0.016602c-0.008789,0.004883-0.022461,0.035156-0.095703,0.115234
				c-0.000977,0.000977-0.167969,0.170898-0.461914,0.776367l-0.024414,0.234375
				C27.030273,35.710938,26.987305,35.735352,26.930664,35.735352z"/>
		</g>
	</g>
</g>
<g id="nonconiferoustree_x5F_bd_8_" style="enable-background:new    ;">
	<g id="NonConiferousTree_x5F_FC_10_">
		<g id="Deleted_Symbol_2_10_">
			<path style="fill:#A9CDA6;" d="M30.553711,32.839844c0,0.317383-0.260742,0.578125-0.576172,0.578125
				c-0.104492,0-0.205078-0.03418-0.296875-0.100586c-0.073242,0.133789-0.206055,0.232422-0.355469,0.270508
				c0.00293,0.036133,0.012695,0.138672,0.036133,0.425781v0.00293c0,0.039063-0.026367,0.066406-0.058594,0.087891
				c-0.03125,0.014648-0.070313,0.025391-0.109375,0.025391c-0.033203,0-0.068359-0.009766-0.098633-0.024414
				c-0.029297-0.021484-0.051758-0.048828-0.051758-0.087891c0,0,0-0.00293,0.015625-0.432617
				c-0.114258-0.035156-0.224609-0.100586-0.308594-0.195313c-0.095703,0.103516-0.239258,0.169922-0.395508,0.169922
				c-0.299805,0-0.560547-0.260742-0.560547-0.577148c0-0.198242,0.103516-0.37793,0.263672-0.475586
				c-0.012695-0.052734-0.015625-0.105469-0.015625-0.166992c0-0.255859,0.162109-0.456055,0.394531-0.53418
				c0-0.023438,0-0.041992,0-0.072266c0-0.15918,0.058594-0.298828,0.160156-0.401367
				c0.101563-0.100586,0.242188-0.158203,0.401367-0.158203c0.290039,0,0.524414,0.206055,0.556641,0.478516
				c0.026367,0,0.052734,0,0.06543,0c0.319336,0,0.580078,0.260742,0.580078,0.560547
				c0,0.041992-0.012695,0.072266-0.016602,0.111328C30.399414,32.405273,30.553711,32.601563,30.553711,32.839844z
				 M30.360352,32.839844c0-0.163086-0.132813-0.333008-0.316406-0.365234c0,0,0,0-0.072266-0.021484l-0.026367-0.005859
				l0.005859-0.026367c0,0,0,0,0.015625-0.070313c0.020508-0.056641,0.037109-0.087891,0.037109-0.137695
				c0-0.194336-0.166992-0.363281-0.384766-0.363281c-0.033203,0-0.083984,0.00293-0.111328,0.016602h-0.001953h-0.003906
				c0,0,0,0-0.103516,0.036133l-0.041992,0.013672l0.005859-0.044922c0,0,0,0,0.016602-0.103516v-0.033203
				c0-0.198242-0.163086-0.365234-0.380859-0.365234c-0.199219,0-0.365234,0.166992-0.365234,0.365234
				c0,0.036133,0,0.084961,0.012695,0.111328l0.00293,0.00293v0.005859c0,0,0,0,0.017578,0.086914l0.005859,0.033203h-0.033203
				c0,0,0,0-0.084961,0c-0.18457,0.016602-0.317383,0.182617-0.317383,0.365234c0,0.070313,0,0.116211,0.032227,0.161133v0.005859
				c0,0,0,0,0.036133,0.070313l0.015625,0.029297l-0.033203,0.005859c0,0,0,0-0.067383,0.021484
				c-0.150391,0.063477-0.231445,0.197266-0.231445,0.348633c0,0.21875,0.166016,0.381836,0.365234,0.381836
				c0.132813,0,0.248047-0.063477,0.332031-0.182617c0.00293-0.006836,0.013672-0.026367,0.051758-0.104492l0.023438-0.041992
				l0.021484,0.039063c0,0,0,0,0.072266,0.108398l0.00293,0.00293c0.048828,0.133789,0.183594,0.232422,0.333984,0.232422
				c0.166992,0,0.31543-0.115234,0.348633-0.263672v-0.00293c0,0,0,0,0.036133-0.124023l0.012695-0.041992l0.033203,0.030273
				c0,0,0,0,0.087891,0.09082c0.066406,0.064453,0.166992,0.117188,0.268555,0.117188
				C30.194336,33.220703,30.360352,33.057617,30.360352,32.839844z"/>
		</g>
	</g>
</g>
<g id="nonconiferoustree_x5F_bd_9_" style="enable-background:new    ;">
	<g id="NonConiferousTree_x5F_FC_11_">
		<g id="Deleted_Symbol_2_11_">
			<path style="fill:#A9CDA6;" d="M26.129883,32.076172c0,0.317383-0.260742,0.578125-0.576172,0.578125
				c-0.104492,0-0.205566-0.03418-0.296875-0.100586c-0.07373,0.133789-0.206055,0.232422-0.355957,0.270508
				c0.00293,0.036133,0.013184,0.138672,0.036133,0.425781v0.00293c0,0.039063-0.025879,0.066406-0.058105,0.087891
				c-0.031738,0.014648-0.070801,0.025391-0.109863,0.025391c-0.032227,0-0.067871-0.009766-0.098145-0.024414
				c-0.028809-0.021484-0.051758-0.048828-0.051758-0.087891c0,0,0-0.00293,0.015625-0.432617
				c-0.11377-0.035156-0.224609-0.100586-0.308594-0.195313c-0.095215,0.103516-0.239258,0.169922-0.395508,0.169922
				c-0.300293,0-0.561035-0.260742-0.561035-0.577148c0-0.198242,0.104004-0.37793,0.263672-0.475586
				c-0.012695-0.052734-0.015625-0.105469-0.015625-0.166992c0-0.255859,0.162598-0.456055,0.395508-0.53418
				c0-0.023438,0-0.041992,0-0.072266c0-0.15918,0.058594-0.298828,0.159668-0.401367
				c0.102051-0.100586,0.242188-0.158203,0.401367-0.158203c0.289551,0,0.523926,0.206055,0.556641,0.478516
				c0.026367,0,0.052246,0,0.064941,0c0.319824,0,0.580566,0.260742,0.580566,0.560547
				c0,0.041992-0.012695,0.072266-0.016602,0.111328C25.975586,31.641602,26.129883,31.837891,26.129883,32.076172z
				 M25.936523,32.076172c0-0.163086-0.132813-0.333008-0.316406-0.365234c0,0,0,0-0.072266-0.021484l-0.026367-0.005859
				l0.005859-0.026367c0,0,0,0,0.015625-0.070313c0.020508-0.056641,0.037109-0.087891,0.037109-0.137695
				c0-0.194336-0.166992-0.363281-0.385254-0.363281c-0.032715,0-0.083984,0.00293-0.11084,0.016602h-0.001953h-0.003906
				c0,0,0,0-0.104004,0.036133l-0.041992,0.013672l0.005859-0.044922c0,0,0,0,0.01709-0.103516v-0.033203
				c0-0.198242-0.163086-0.365234-0.380859-0.365234c-0.199219,0-0.365234,0.166992-0.365234,0.365234
				c0,0.036133,0,0.084961,0.013184,0.111328l0.00293,0.00293v0.005859c0,0,0,0,0.01709,0.086914l0.005859,0.033203h-0.033203
				c0,0,0,0-0.084961,0c-0.18457,0.016602-0.317383,0.182617-0.317383,0.365234c0,0.070313,0,0.116211,0.032227,0.161133v0.005859
				c0,0,0,0,0.035645,0.070313l0.016113,0.029297l-0.033203,0.005859c0,0,0,0-0.067871,0.021484
				c-0.149902,0.063477-0.230957,0.197266-0.230957,0.348633c0,0.21875,0.166016,0.381836,0.365234,0.381836
				c0.133301,0,0.248535-0.063477,0.33252-0.182617c0.00293-0.006836,0.013672-0.026367,0.051758-0.104492l0.022949-0.041992
				l0.021973,0.039063c0,0,0,0,0.072266,0.108398l0.00293,0.00293c0.048828,0.133789,0.183105,0.232422,0.333008,0.232422
				c0.166992,0,0.315918-0.115234,0.349121-0.263672v-0.00293c0,0,0,0,0.035645-0.124023l0.013184-0.041992l0.033203,0.030273
				c0,0,0,0,0.087891,0.09082c0.065918,0.064453,0.166992,0.117188,0.268555,0.117188
				C25.770508,32.457031,25.936523,32.293945,25.936523,32.076172z"/>
		</g>
	</g>
</g>
<g id="scrub_x5F_bd_13_" style="enable-background:new    ;">
	<g id="Scrub_x5F_FC_15_">
		<g id="Deleted_Symbol_1_15_">
			<path style="fill:#A9CDA6;" d="M4.577148,27.21875c-0.028809,0-0.054199-0.020508-0.062988-0.047852L4.365723,26.6875
				c-0.010254-0.032227,0.006836-0.067383,0.039063-0.081055l0.07666-0.029297
				c0.012207-0.000977,0.023438-0.001953,0.031738-0.001953c0.037109,0.011719,0.048828,0.026367,0.055176,0.043945
				l0.146973,0.494141c0.009766,0.035156-0.009277,0.071289-0.042969,0.082031
				c-0.041016,0.012695-0.068359,0.018555-0.081055,0.021484L4.577148,27.21875z"/>
			<path style="fill:#A9CDA6;" d="M5.49707,27.095703c-0.039063,0-0.070801-0.032227-0.071777-0.072266l-0.006348-0.49707
				c0-0.039063-0.013672-0.057617-0.024902-0.069336c-0.013672-0.014648-0.035645-0.021484-0.060059-0.021484
				c-0.023926,0-0.063965,0.007813-0.11377,0.048828c-0.013184,0.008789-0.027832,0.013672-0.044922,0.013672
				c-0.038086-0.004883-0.052246-0.019531-0.059082-0.03125l-0.045898-0.068359
				c-0.021973-0.033203-0.01416-0.076172,0.019043-0.100586c0.085938-0.05957,0.174805-0.092773,0.255859-0.092773
				c0.085938,0,0.162109,0.038086,0.217773,0.109375c0.047852,0.0625,0.072754,0.134766,0.072754,0.211914l0.005859,0.461914
				l0.005859,0.037109c0,0.037109-0.032715,0.069336-0.071289,0.070313H5.49707z"/>
			<path style="fill:#A9CDA6;" d="M7.63623,27.162109c-0.026855-0.005859-0.053223-0.012695-0.076172-0.019531
				C7.526367,27.131836,7.506348,27.09668,7.516113,27.0625l0.144043-0.496094c0.004883-0.018555,0.01709-0.03125,0.033203-0.040039
				l0.133301,0.022461c0.033203,0.013672,0.05127,0.049805,0.041016,0.083008l-0.154297,0.486328
				c-0.009277,0.02832-0.03418,0.045898-0.061035,0.045898L7.63623,27.162109z"/>
			<path style="fill:#A9CDA6;" d="M6.541504,27.053711c-0.046875,0-0.09375-0.018555-0.139648-0.051758
				c0.006836-0.013672-0.174316-0.899414-0.364258-1.183594c-0.024902-0.045898-0.037109-0.095703-0.030762-0.105469
				c0.045898,0.008789,0.09375,0.026367,0.168945,0.072266c0.015137,0.012695,0.185059,0.107422,0.291016,0.600586
				l0.036133,0.115234c0.016602-0.026367,0.044922-1.037598,0.400391-1.192871
				c0.032715-0.020508,0.084961-0.045898,0.111816-0.050781c-0.005859,0.006836-0.01416,0.032227-0.053711,0.09375
				c-0.01123,0.016602-0.214355,0.339355-0.225098,0.79248v0.117188c0.022949-0.013672,0.171875-0.28418,0.44873-0.342773
				c0.033203-0.012695,0.052246-0.015625,0.062988-0.016602c-0.008789,0.004883-0.022949,0.035156-0.09668,0.115234
				c-0.000977,0.000977-0.167969,0.170898-0.461914,0.776367l-0.024414,0.234375
				C6.641602,27.029297,6.598633,27.053711,6.541504,27.053711z"/>
		</g>
	</g>
</g>
<g id="nonconiferoustree_x5F_bd_12_" style="enable-background:new    ;">
	<g id="NonConiferousTree_x5F_FC_14_">
		<g id="Deleted_Symbol_2_14_">
			<path style="fill:#A9CDA6;" d="M10.165527,24.158691c0,0.317383-0.260742,0.578613-0.57666,0.578613
				c-0.104492,0-0.205566-0.034668-0.296875-0.101074c-0.07373,0.134277-0.206055,0.23291-0.355957,0.270996
				c0.00293,0.036133,0.013184,0.138672,0.036133,0.425781v0.00293c0,0.039063-0.025879,0.066406-0.058105,0.087891
				c-0.031738,0.014648-0.070801,0.025391-0.109863,0.025391c-0.032227,0-0.067871-0.009766-0.098145-0.024414
				c-0.028809-0.021484-0.051758-0.048828-0.051758-0.087891c0,0,0-0.00293,0.015625-0.432617
				c-0.11377-0.035156-0.224609-0.100586-0.308594-0.195801c-0.095215,0.104004-0.239258,0.17041-0.395508,0.17041
				c-0.300293,0-0.561035-0.26123-0.561035-0.577637c0-0.198242,0.104004-0.37793,0.263672-0.475586
				c-0.012695-0.052734-0.015625-0.105469-0.015625-0.166992c0-0.255859,0.162598-0.456543,0.395508-0.534668
				c0-0.023438,0-0.041992,0-0.072266c0-0.15918,0.058594-0.298828,0.159668-0.401367
				c0.102051-0.100586,0.242188-0.158203,0.401367-0.158203c0.289551,0,0.523926,0.206055,0.556641,0.478516
				c0.026367,0,0.052246,0,0.064941,0c0.319824,0,0.580566,0.26123,0.580566,0.561035
				c0,0.041992-0.012695,0.072266-0.016113,0.111328C10.010742,23.724121,10.165527,23.92041,10.165527,24.158691z
				 M9.97168,24.158691c0-0.163086-0.132813-0.333008-0.315918-0.365234c0,0,0,0-0.072266-0.021484l-0.026855-0.005859
				L9.5625,23.739746c0,0,0,0,0.016113-0.070313c0.02002-0.056641,0.037109-0.087891,0.037109-0.137695
				c0-0.194336-0.16748-0.36377-0.385742-0.36377c-0.032715,0-0.083984,0.00293-0.11084,0.016602H9.117188H9.113281
				c0,0,0,0-0.104004,0.036621l-0.041992,0.013672l0.005859-0.04541c0,0,0,0,0.01709-0.103516v-0.033203
				c0-0.198242-0.163086-0.365234-0.380859-0.365234c-0.199219,0-0.365234,0.166992-0.365234,0.365234
				c0,0.036133,0,0.084961,0.013184,0.111328l0.00293,0.00293v0.005859c0,0,0,0,0.01709,0.087402l0.005859,0.033203H8.25
				c0,0,0,0-0.084961,0c-0.18457,0.016602-0.317383,0.182617-0.317383,0.365234c0,0.070313,0,0.116211,0.032227,0.161133v0.005859
				c0,0,0,0,0.035645,0.070313l0.016113,0.029297l-0.033203,0.005859c0,0,0,0-0.067871,0.021484
				c-0.149902,0.063477-0.230957,0.197266-0.230957,0.348633c0,0.21875,0.166016,0.381836,0.365234,0.381836
				c0.133301,0,0.248535-0.063477,0.33252-0.182617c0.00293-0.006836,0.013672-0.026367,0.051758-0.104492l0.022949-0.041992
				l0.021973,0.039063c0,0,0,0,0.072266,0.108398l0.00293,0.00293c0.048828,0.133789,0.183105,0.23291,0.333008,0.23291
				c0.166992,0,0.315918-0.115723,0.349121-0.26416v-0.00293c0,0,0,0,0.035645-0.124023l0.013184-0.041992l0.033203,0.030273
				c0,0,0,0,0.087891,0.09082c0.065918,0.064453,0.166992,0.117188,0.268555,0.117188
				C9.805664,24.539551,9.97168,24.376465,9.97168,24.158691z"/>
		</g>
	</g>
</g>
<g id="scrub_x5F_bd_12_" style="enable-background:new    ;">
	<g id="Scrub_x5F_FC_14_">
		<g id="Deleted_Symbol_1_14_">
			<path style="fill:#A9CDA6;" d="M2.822266,24.182617c-0.028809,0-0.054199-0.020508-0.062988-0.047852l-0.148438-0.48291
				c-0.010254-0.032227,0.006836-0.067383,0.039063-0.081055l0.07666-0.029297C2.73877,23.540527,2.75,23.539551,2.758301,23.539551
				c0.037109,0.011719,0.048828,0.026367,0.055176,0.043945l0.146973,0.493652
				c0.009766,0.035156-0.009277,0.071289-0.042969,0.082031c-0.041016,0.012695-0.068359,0.018555-0.081055,0.021484
				L2.822266,24.182617z"/>
			<path style="fill:#A9CDA6;" d="M3.742188,24.05957c-0.039063,0-0.070801-0.032227-0.071777-0.072266l-0.006348-0.496582
				c0-0.039063-0.013672-0.057617-0.024902-0.069336c-0.013672-0.014648-0.035645-0.021484-0.060059-0.021484
				c-0.023926,0-0.063965,0.007813-0.11377,0.048828C3.452148,23.45752,3.4375,23.462402,3.42041,23.462402
				c-0.038086-0.004883-0.052246-0.019531-0.059082-0.03125L3.31543,23.362793
				c-0.021973-0.033203-0.01416-0.076172,0.019043-0.100586c0.085938-0.05957,0.174805-0.092773,0.255859-0.092773
				c0.085938,0,0.162109,0.038086,0.217773,0.109375c0.047852,0.0625,0.072754,0.134766,0.072754,0.211914l0.005859,0.461426
				l0.005859,0.037109c0,0.037109-0.032715,0.069336-0.071289,0.070313H3.742188z"/>
			<path style="fill:#A9CDA6;" d="M5.881348,24.125977c-0.026855-0.005859-0.053223-0.012695-0.076172-0.019531
				c-0.033691-0.010742-0.053711-0.045898-0.043945-0.080078l0.144043-0.495605
				c0.004883-0.018555,0.01709-0.03125,0.033203-0.040039l0.133301,0.022461c0.033203,0.013672,0.05127,0.049805,0.041016,0.083008
				l-0.154297,0.48584c-0.009277,0.02832-0.03418,0.045898-0.061035,0.045898L5.881348,24.125977z"/>
			<path style="fill:#A9CDA6;" d="M4.786621,24.017578c-0.046875,0-0.09375-0.018555-0.139648-0.051758
				c0.006836-0.013672-0.174316-0.898926-0.364258-1.183105c-0.024902-0.045898-0.037109-0.095703-0.030762-0.105469
				c0.045898,0.008789,0.09375,0.026367,0.168945,0.072266c0.015137,0.012695,0.185059,0.107422,0.291016,0.600586
				l0.036133,0.115234c0.016602-0.026367,0.044922-1.037598,0.400391-1.192871
				c0.032715-0.020508,0.084961-0.045898,0.111816-0.050781c-0.005859,0.006836-0.01416,0.032227-0.053711,0.09375
				c-0.01123,0.016602-0.214355,0.339844-0.225098,0.79248v0.117188c0.022949-0.013672,0.171875-0.28418,0.44873-0.342773
				c0.033203-0.012695,0.052246-0.015625,0.062988-0.016602c-0.008789,0.004883-0.022949,0.035156-0.09668,0.115234
				c-0.000977,0.000977-0.167969,0.170898-0.461914,0.775879l-0.024414,0.234375
				C4.886719,23.993164,4.84375,24.017578,4.786621,24.017578z"/>
		</g>
	</g>
</g>
<g id="scrub_x5F_bd_11_" style="enable-background:new    ;">
	<g id="Scrub_x5F_FC_13_">
		<g id="Deleted_Symbol_1_13_">
			<path style="fill:#A9CDA6;" d="M8.969727,16.807617c-0.028809,0-0.054199-0.020508-0.062988-0.047852l-0.148438-0.48291
				c-0.010254-0.032227,0.006836-0.067383,0.039063-0.081055l0.07666-0.029297
				c0.012207-0.000977,0.023438-0.001953,0.031738-0.001953c0.037109,0.011719,0.048828,0.026367,0.055176,0.043945
				l0.146973,0.493652c0.009766,0.035156-0.009277,0.071289-0.042969,0.082031
				c-0.041016,0.012695-0.068359,0.018555-0.081055,0.021484L8.969727,16.807617z"/>
			<path style="fill:#A9CDA6;" d="M9.889648,16.68457c-0.039063,0-0.070801-0.032227-0.071777-0.072266l-0.006348-0.496582
				c0-0.039063-0.013672-0.057617-0.024902-0.069336c-0.013672-0.014648-0.035645-0.021484-0.060059-0.021484
				c-0.023926,0-0.063965,0.007813-0.11377,0.048828c-0.013184,0.008789-0.027832,0.013672-0.044922,0.013672
				c-0.038086-0.004883-0.052246-0.019531-0.059082-0.03125l-0.045898-0.068359
				c-0.021973-0.033203-0.01416-0.076172,0.019043-0.100586c0.085938-0.05957,0.174805-0.092773,0.255859-0.092773
				c0.085938,0,0.162109,0.038086,0.217773,0.109375c0.047852,0.0625,0.072754,0.134766,0.072754,0.211914l0.005859,0.461426
				l0.005859,0.037109c0,0.037109-0.032715,0.069336-0.071289,0.070313H9.889648z"/>
			<path style="fill:#A9CDA6;" d="M12.028809,16.750977c-0.026855-0.005859-0.053223-0.012695-0.076172-0.019531
				c-0.033691-0.010742-0.053711-0.045898-0.043945-0.080078l0.144043-0.495605
				c0.004883-0.018555,0.01709-0.03125,0.033203-0.040039l0.133301,0.022461c0.033203,0.013672,0.05127,0.049805,0.041016,0.083008
				l-0.154297,0.48584c-0.009277,0.02832-0.03418,0.045898-0.061035,0.045898L12.028809,16.750977z"/>
			<path style="fill:#A9CDA6;" d="M10.934082,16.642578c-0.046875,0-0.09375-0.018555-0.139648-0.051758
				c0.006836-0.013672-0.174316-0.898926-0.364258-1.183105c-0.024902-0.045898-0.037109-0.095703-0.030762-0.105469
				c0.045898,0.008789,0.09375,0.026367,0.168945,0.072266c0.015137,0.012695,0.185059,0.107422,0.291016,0.600586
				l0.036133,0.115234c0.016602-0.026367,0.044922-1.037598,0.400391-1.192871
				c0.032715-0.020508,0.084961-0.045898,0.111816-0.050781c-0.005859,0.006836-0.01416,0.032227-0.053711,0.09375
				c-0.01123,0.016602-0.214355,0.339844-0.225098,0.79248v0.117188c0.022949-0.013672,0.171875-0.28418,0.44873-0.342773
				c0.033203-0.012695,0.052246-0.015625,0.062988-0.016602c-0.008789,0.004883-0.022949,0.035156-0.09668,0.115234
				c-0.000977,0.000977-0.167969,0.170898-0.461914,0.775879l-0.024414,0.234375
				C11.03418,16.618164,10.991211,16.642578,10.934082,16.642578z"/>
		</g>
	</g>
</g>
<g id="nonconiferoustree_x5F_bd_10_" style="enable-background:new    ;">
	<g id="NonConiferousTree_x5F_FC_12_">
		<g id="Deleted_Symbol_2_12_">
			<path style="fill:#A9CDA6;" d="M14.558105,13.748535c0,0.317383-0.260742,0.578613-0.57666,0.578613
				c-0.104492,0-0.205566-0.034668-0.296875-0.101074c-0.07373,0.134277-0.206055,0.23291-0.355957,0.270996
				c0.00293,0.036133,0.013184,0.138672,0.036133,0.425781v0.00293c0,0.039063-0.025879,0.066406-0.058105,0.087891
				c-0.031738,0.014648-0.070801,0.025391-0.109863,0.025391c-0.032227,0-0.067871-0.009766-0.098145-0.024414
				c-0.028809-0.021484-0.051758-0.048828-0.051758-0.087891c0,0,0-0.00293,0.015625-0.432617
				c-0.11377-0.035156-0.224609-0.100586-0.308594-0.195801c-0.095215,0.104004-0.239258,0.17041-0.395508,0.17041
				c-0.300293,0-0.561035-0.26123-0.561035-0.577637c0-0.198242,0.104004-0.37793,0.263672-0.475586
				c-0.012695-0.052734-0.015625-0.105469-0.015625-0.166992c0-0.255859,0.162598-0.456543,0.395508-0.534668
				c0-0.023438,0-0.041992,0-0.072266c0-0.15918,0.058594-0.298828,0.159668-0.401367
				c0.102051-0.100586,0.242188-0.158203,0.401367-0.158203c0.289551,0,0.523926,0.206055,0.556641,0.478516
				c0.026367,0,0.052246,0,0.064941,0c0.319824,0,0.580566,0.26123,0.580566,0.561035
				c0,0.041992-0.012695,0.072266-0.016113,0.111328C14.40332,13.313965,14.558105,13.510254,14.558105,13.748535z
				 M14.364258,13.748535c0-0.163086-0.132813-0.333008-0.315918-0.365234c0,0,0,0-0.072266-0.021484l-0.026855-0.005859
				l0.005859-0.026367c0,0,0,0,0.016113-0.070313c0.02002-0.056641,0.037109-0.087891,0.037109-0.137695
				c0-0.194336-0.16748-0.36377-0.385742-0.36377c-0.032715,0-0.083984,0.00293-0.11084,0.016602h-0.001953h-0.003906
				c0,0,0,0-0.104004,0.036621l-0.041992,0.013672l0.005859-0.04541c0,0,0,0,0.01709-0.103516v-0.033203
				c0-0.198242-0.163086-0.365234-0.380859-0.365234c-0.199219,0-0.365234,0.166992-0.365234,0.365234
				c0,0.036133,0,0.084961,0.013184,0.111328l0.00293,0.00293v0.005859c0,0,0,0,0.01709,0.087402l0.005859,0.033203h-0.033203
				c0,0,0,0-0.084961,0c-0.18457,0.016602-0.317383,0.182617-0.317383,0.365234c0,0.070313,0,0.116211,0.032227,0.161133v0.005859
				c0,0,0,0,0.035645,0.070313l0.016113,0.029297l-0.033203,0.005859c0,0,0,0-0.067871,0.021484
				c-0.149902,0.063477-0.230957,0.197266-0.230957,0.348633c0,0.21875,0.166016,0.381836,0.365234,0.381836
				c0.133301,0,0.248535-0.063477,0.33252-0.182617c0.00293-0.006836,0.013672-0.026367,0.051758-0.104492l0.022949-0.041992
				l0.021973,0.039063c0,0,0,0,0.072266,0.108398l0.00293,0.00293c0.048828,0.133789,0.183105,0.23291,0.333008,0.23291
				c0.166992,0,0.315918-0.115723,0.349121-0.26416v-0.00293c0,0,0,0,0.035645-0.124023l0.013184-0.041992l0.033203,0.030273
				c0,0,0,0,0.087891,0.09082c0.065918,0.064453,0.166992,0.117188,0.268555,0.117188
				C14.198242,14.129395,14.364258,13.966309,14.364258,13.748535z"/>
		</g>
	</g>
</g>
<g id="nonconiferoustree_x5F_bd_11_" style="enable-background:new    ;">
	<g id="NonConiferousTree_x5F_FC_13_">
		<g id="Deleted_Symbol_2_13_">
			<path style="fill:#A9CDA6;" d="M10.134277,12.984863c0,0.317383-0.260742,0.578613-0.57666,0.578613
				c-0.104492,0-0.205566-0.034668-0.296875-0.101074c-0.07373,0.134277-0.206055,0.23291-0.355957,0.270996
				c0.00293,0.036133,0.013184,0.138672,0.036133,0.425781v0.00293c0,0.039063-0.025879,0.066406-0.058105,0.087891
				c-0.031738,0.014648-0.070801,0.025391-0.109863,0.025391c-0.032227,0-0.067871-0.009766-0.098145-0.024414
				c-0.028809-0.021484-0.051758-0.048828-0.051758-0.087891c0,0,0-0.00293,0.015625-0.432617
				c-0.11377-0.035156-0.224609-0.100586-0.308594-0.195801c-0.095215,0.104004-0.239258,0.17041-0.395508,0.17041
				c-0.300293,0-0.561035-0.26123-0.561035-0.577637c0-0.198242,0.104004-0.37793,0.263672-0.475586
				c-0.012695-0.052734-0.015625-0.105469-0.015625-0.166992c0-0.255859,0.162598-0.456543,0.395508-0.534668
				c0-0.023438,0-0.041992,0-0.072266c0-0.15918,0.058594-0.298828,0.159668-0.401367
				c0.102051-0.100586,0.242188-0.158203,0.401367-0.158203c0.289551,0,0.523926,0.206055,0.556641,0.478516
				c0.026367,0,0.052246,0,0.064941,0c0.319824,0,0.580566,0.26123,0.580566,0.561035
				c0,0.041992-0.012695,0.072266-0.016113,0.111328C9.979492,12.550293,10.134277,12.746582,10.134277,12.984863z
				 M9.94043,12.984863c0-0.163086-0.132813-0.333008-0.315918-0.365234c0,0,0,0-0.072266-0.021484l-0.026855-0.005859
				l0.005859-0.026367c0,0,0,0,0.016113-0.070313c0.02002-0.056641,0.037109-0.087891,0.037109-0.137695
				c0-0.194336-0.16748-0.36377-0.385742-0.36377c-0.032715,0-0.083984,0.00293-0.11084,0.016602H9.085938H9.082031
				c0,0,0,0-0.104004,0.036621l-0.041992,0.013672l0.005859-0.04541c0,0,0,0,0.01709-0.103516v-0.033203
				c0-0.198242-0.163086-0.365234-0.380859-0.365234c-0.199219,0-0.365234,0.166992-0.365234,0.365234
				c0,0.036133,0,0.084961,0.013184,0.111328l0.00293,0.00293v0.005859c0,0,0,0,0.01709,0.087402l0.005859,0.033203H8.21875
				c0,0,0,0-0.084961,0c-0.18457,0.016602-0.317383,0.182617-0.317383,0.365234c0,0.070313,0,0.116211,0.032227,0.161133v0.005859
				c0,0,0,0,0.035645,0.070313l0.016113,0.029297l-0.033203,0.005859c0,0,0,0-0.067871,0.021484
				c-0.149902,0.063477-0.230957,0.197266-0.230957,0.348633c0,0.21875,0.166016,0.381836,0.365234,0.381836
				c0.133301,0,0.248535-0.063477,0.33252-0.182617c0.00293-0.006836,0.013672-0.026367,0.051758-0.104492l0.022949-0.041992
				l0.021973,0.039063c0,0,0,0,0.072266,0.108398l0.00293,0.00293c0.048828,0.133789,0.183105,0.23291,0.333008,0.23291
				c0.166992,0,0.315918-0.115723,0.349121-0.26416v-0.00293c0,0,0,0,0.035645-0.124023l0.013184-0.041992l0.033203,0.030273
				c0,0,0,0,0.087891,0.09082c0.065918,0.064453,0.166992,0.117188,0.268555,0.117188
				C9.774414,13.365723,9.94043,13.202637,9.94043,12.984863z"/>
		</g>
	</g>
</g>
<g id="scrub_x5F_bd_2_" style="enable-background:new    ;">
	<g id="Scrub_x5F_FC_4_">
		<g id="Deleted_Symbol_1_4_">
			<path style="fill:#A9CDA6;" d="M24.253418,7.024414c-0.028809,0-0.054199-0.020508-0.062988-0.047852l-0.148438-0.48291
				c-0.010254-0.032227,0.006836-0.067383,0.039063-0.081055l0.07666-0.029297
				c0.012207-0.000977,0.023438-0.001953,0.031738-0.001953c0.037109,0.011719,0.048828,0.026367,0.055176,0.043945
				l0.146973,0.493652c0.009766,0.035156-0.009277,0.071289-0.042969,0.082031
				c-0.041016,0.012695-0.068359,0.018555-0.081055,0.021484L24.253418,7.024414z"/>
			<path style="fill:#A9CDA6;" d="M25.17334,6.901367c-0.039063,0-0.070801-0.032227-0.071777-0.072266L25.095215,6.33252
				c0-0.039063-0.013672-0.057617-0.024902-0.069336c-0.013672-0.014648-0.035645-0.021484-0.060059-0.021484
				c-0.023926,0-0.063965,0.007813-0.11377,0.048828c-0.013184,0.008789-0.027832,0.013672-0.044922,0.013672
				c-0.038086-0.004883-0.052246-0.019531-0.059082-0.03125L24.746582,6.20459
				c-0.021973-0.033203-0.01416-0.076172,0.019043-0.100586c0.085938-0.05957,0.174805-0.092773,0.255859-0.092773
				c0.085938,0,0.162109,0.038086,0.217773,0.109375c0.047852,0.0625,0.072754,0.134766,0.072754,0.211914l0.005859,0.461426
				l0.005859,0.037109c0,0.037109-0.032715,0.069336-0.071289,0.070313H25.17334z"/>
			<path style="fill:#A9CDA6;" d="M27.3125,6.967773c-0.027344-0.005859-0.053711-0.012695-0.076172-0.019531
				c-0.03418-0.010742-0.053711-0.045898-0.043945-0.080078l0.143555-0.495605
				c0.004883-0.018555,0.017578-0.03125,0.033203-0.040039L27.50293,6.35498c0.033203,0.013672,0.051758,0.049805,0.041016,0.083008
				l-0.154297,0.48584c-0.009766,0.02832-0.03418,0.045898-0.061523,0.045898L27.3125,6.967773z"/>
			<path style="fill:#A9CDA6;" d="M26.217773,6.859375c-0.046875,0-0.09375-0.018555-0.139648-0.051758
				c0.006836-0.013672-0.174805-0.898926-0.364258-1.183105c-0.024414-0.045898-0.037109-0.095703-0.030273-0.105469
				c0.045898,0.008789,0.09375,0.026367,0.167969,0.072266c0.015625,0.012695,0.185547,0.107422,0.291016,0.600586
				l0.036133,0.115234c0.016602-0.026367,0.044922-1.037598,0.401367-1.192871
				c0.032227-0.020508,0.084961-0.045898,0.111328-0.050781c-0.005859,0.006836-0.013672,0.032227-0.053711,0.09375
				c-0.010742,0.016602-0.213867,0.339844-0.224609,0.79248v0.117188c0.022461-0.013672,0.171875-0.28418,0.448242-0.342773
				c0.033203-0.012695,0.051758-0.015625,0.0625-0.016602c-0.008789,0.004883-0.022461,0.035156-0.095703,0.115234
				c-0.000977,0.000977-0.167969,0.170898-0.461914,0.775879l-0.024414,0.234375
				C26.317383,6.834961,26.274414,6.859375,26.217773,6.859375z"/>
		</g>
	</g>
</g>
<g id="nonconiferoustree_x5F_bd_2_" style="enable-background:new    ;">
	<g id="NonConiferousTree_x5F_FC_4_">
		<g id="Deleted_Symbol_2_4_">
			<path style="fill:#A9CDA6;" d="M29.84082,3.965332c0,0.317383-0.260742,0.578613-0.576172,0.578613
				c-0.104492,0-0.205078-0.034668-0.296875-0.101074c-0.073242,0.134277-0.206055,0.23291-0.355469,0.270996
				C28.615234,4.75,28.625,4.852539,28.648438,5.139648v0.00293c0,0.039063-0.026367,0.066406-0.058594,0.087891
				c-0.03125,0.014648-0.070313,0.025391-0.109375,0.025391c-0.033203,0-0.068359-0.009766-0.098633-0.024414
				c-0.029297-0.021484-0.051758-0.048828-0.051758-0.087891c0,0,0-0.00293,0.015625-0.432617
				c-0.114258-0.035156-0.224609-0.100586-0.308594-0.195801c-0.095703,0.104004-0.239258,0.17041-0.395508,0.17041
				c-0.299805,0-0.560547-0.26123-0.560547-0.577637c0-0.198242,0.103516-0.37793,0.263672-0.475586
				c-0.012695-0.052734-0.015625-0.105469-0.015625-0.166992c0-0.255859,0.162109-0.456543,0.394531-0.534668
				c0-0.023438,0-0.041992,0-0.072266c0-0.15918,0.058594-0.298828,0.160156-0.401367
				c0.101563-0.100586,0.242188-0.158203,0.401367-0.158203c0.290039,0,0.524414,0.206055,0.556641,0.478516
				c0.026367,0,0.052734,0,0.06543,0c0.319336,0,0.580078,0.26123,0.580078,0.561035
				c0,0.041992-0.012695,0.072266-0.016602,0.111328C29.686523,3.530762,29.84082,3.727051,29.84082,3.965332z M29.647461,3.965332
				c0-0.163086-0.132813-0.333008-0.316406-0.365234c0,0,0,0-0.072266-0.021484l-0.026367-0.005859l0.005859-0.026367
				c0,0,0,0,0.015625-0.070313c0.020508-0.056641,0.037109-0.087891,0.037109-0.137695
				c0-0.194336-0.166992-0.36377-0.384766-0.36377c-0.033203,0-0.083984,0.00293-0.111328,0.016602h-0.001953h-0.003906
				c0,0,0,0-0.103516,0.036621l-0.041992,0.013672l0.005859-0.04541c0,0,0,0,0.016602-0.103516V2.859375
				c0-0.198242-0.163086-0.365234-0.380859-0.365234c-0.199219,0-0.365234,0.166992-0.365234,0.365234
				c0,0.036133,0,0.084961,0.012695,0.111328l0.00293,0.00293v0.005859c0,0,0,0,0.017578,0.087402l0.005859,0.033203h-0.033203
				c0,0,0,0-0.084961,0c-0.18457,0.016602-0.317383,0.182617-0.317383,0.365234c0,0.070313,0,0.116211,0.032227,0.161133v0.005859
				c0,0,0,0,0.036133,0.070313l0.015625,0.029297l-0.033203,0.005859c0,0,0,0-0.067383,0.021484
				c-0.150391,0.063477-0.231445,0.197266-0.231445,0.348633c0,0.21875,0.166016,0.381836,0.365234,0.381836
				c0.132813,0,0.248047-0.063477,0.332031-0.182617c0.00293-0.006836,0.013672-0.026367,0.051758-0.104492l0.023438-0.041992
				l0.021484,0.039063c0,0,0,0,0.072266,0.108398l0.00293,0.00293c0.048828,0.133789,0.183594,0.23291,0.333984,0.23291
				c0.166992,0,0.31543-0.115723,0.348633-0.26416v-0.00293c0,0,0,0,0.036133-0.124023l0.012695-0.041992l0.033203,0.030273
				c0,0,0,0,0.087891,0.09082c0.066406,0.064453,0.166992,0.117188,0.268555,0.117188
				C29.481445,4.346191,29.647461,4.183105,29.647461,3.965332z"/>
		</g>
	</g>
</g>
<g id="nonconiferoustree_x5F_bd_1_" style="enable-background:new    ;">
	<g id="NonConiferousTree_x5F_FC_3_">
		<g id="Deleted_Symbol_2_3_">
			<path style="fill:#A9CDA6;" d="M25.417969,3.20166c0,0.317383-0.260742,0.578613-0.57666,0.578613
				c-0.104492,0-0.205566-0.034668-0.296875-0.101074c-0.07373,0.134277-0.206055,0.23291-0.355957,0.270996
				c0.00293,0.036133,0.013184,0.138672,0.036133,0.425781v0.00293c0,0.039063-0.025879,0.066406-0.058105,0.087891
				c-0.031738,0.014648-0.070801,0.025391-0.109863,0.025391c-0.032227,0-0.067871-0.009766-0.098145-0.024414
				c-0.028809-0.021484-0.051758-0.048828-0.051758-0.087891c0,0,0-0.00293,0.015625-0.432617
				c-0.11377-0.035156-0.224609-0.100586-0.308594-0.195801c-0.095215,0.104004-0.239258,0.17041-0.395508,0.17041
				c-0.300293,0-0.561035-0.26123-0.561035-0.577637c0-0.198242,0.104004-0.37793,0.263672-0.475586
				c-0.012695-0.052734-0.015625-0.105469-0.015625-0.166992c0-0.255859,0.162598-0.456543,0.395508-0.534668
				c0-0.023438,0-0.041992,0-0.072266c0-0.15918,0.058594-0.298828,0.159668-0.401367
				c0.102051-0.100586,0.242188-0.158203,0.401367-0.158203c0.289551,0,0.523926,0.206055,0.556641,0.478516
				c0.026367,0,0.052246,0,0.064941,0c0.319824,0,0.580566,0.26123,0.580566,0.561035
				c0,0.041992-0.012695,0.072266-0.016113,0.111328C25.263184,2.76709,25.417969,2.963379,25.417969,3.20166z M25.224121,3.20166
				c0-0.163086-0.132813-0.333008-0.315918-0.365234c0,0,0,0-0.072266-0.021484l-0.026855-0.005859l0.005859-0.026367
				c0,0,0,0,0.016113-0.070313c0.02002-0.056641,0.037109-0.087891,0.037109-0.137695c0-0.194336-0.16748-0.36377-0.385742-0.36377
				c-0.032715,0-0.083984,0.00293-0.11084,0.016602h-0.001953h-0.003906c0,0,0,0-0.104004,0.036621l-0.041992,0.013672
				l0.005859-0.04541c0,0,0,0,0.01709-0.103516V2.095703c0-0.198242-0.163086-0.365234-0.380859-0.365234
				c-0.199219,0-0.365234,0.166992-0.365234,0.365234c0,0.036133,0,0.084961,0.013184,0.111328l0.00293,0.00293V2.21582
				c0,0,0,0,0.01709,0.087402l0.005859,0.033203h-0.033203c0,0,0,0-0.084961,0
				c-0.18457,0.016602-0.317383,0.182617-0.317383,0.365234c0,0.070313,0,0.116211,0.032227,0.161133v0.005859
				c0,0,0,0,0.035645,0.070313l0.016113,0.029297l-0.033203,0.005859c0,0,0,0-0.067871,0.021484
				c-0.149902,0.063477-0.230957,0.197266-0.230957,0.348633c0,0.21875,0.166016,0.381836,0.365234,0.381836
				c0.133301,0,0.248535-0.063477,0.33252-0.182617c0.00293-0.006836,0.013672-0.026367,0.051758-0.104492l0.022949-0.041992
				l0.021973,0.039063c0,0,0,0,0.072266,0.108398l0.00293,0.00293c0.048828,0.133789,0.183105,0.23291,0.333008,0.23291
				c0.166992,0,0.315918-0.115723,0.349121-0.26416v-0.00293c0,0,0,0,0.035645-0.124023l0.013184-0.041992l0.033203,0.030273
				c0,0,0,0,0.087891,0.09082c0.065918,0.064453,0.166992,0.117188,0.268555,0.117188
				C25.058105,3.58252,25.224121,3.419434,25.224121,3.20166z"/>
		</g>
	</g>
</g>
<g id="scrub_x5F_bd_4_" style="enable-background:new    ;">
	<g id="Scrub_x5F_FC_6_">
		<g id="Deleted_Symbol_1_6_">
			<path style="fill:#A9CDA6;" d="M35.4375,15.071289c-0.029297,0-0.054688-0.020508-0.063477-0.047852l-0.148438-0.48291
				c-0.010742-0.032227,0.006836-0.067383,0.039063-0.081055l0.076172-0.029297
				c0.012695-0.000977,0.023438-0.001953,0.032227-0.001953c0.037109,0.011719,0.048828,0.026367,0.055664,0.043945
				l0.146484,0.493652c0.009766,0.035156-0.008789,0.071289-0.042969,0.082031
				c-0.041016,0.012695-0.068359,0.018555-0.081055,0.021484L35.4375,15.071289z"/>
			<path style="fill:#A9CDA6;" d="M36.356445,14.948242c-0.039063,0-0.070313-0.032227-0.071289-0.072266l-0.006836-0.496582
				c0-0.039063-0.013672-0.057617-0.024414-0.069336c-0.013672-0.014648-0.036133-0.021484-0.060547-0.021484
				c-0.023438,0-0.063477,0.007813-0.113281,0.048828c-0.013672,0.008789-0.02832,0.013672-0.044922,0.013672
				c-0.038086-0.004883-0.052734-0.019531-0.05957-0.03125l-0.045898-0.068359
				c-0.021484-0.033203-0.013672-0.076172,0.019531-0.100586c0.085938-0.05957,0.174805-0.092773,0.255859-0.092773
				c0.085938,0,0.162109,0.038086,0.217773,0.109375c0.047852,0.0625,0.073242,0.134766,0.073242,0.211914l0.005859,0.461426
				l0.005859,0.037109c0,0.037109-0.033203,0.069336-0.072266,0.070313H36.356445z"/>
			<path style="fill:#A9CDA6;" d="M38.496094,15.014648c-0.027344-0.005859-0.053711-0.012695-0.076172-0.019531
				c-0.03418-0.010742-0.053711-0.045898-0.043945-0.080078l0.143555-0.495605
				c0.004883-0.018555,0.017578-0.03125,0.033203-0.040039l0.133789,0.022461
				c0.033203,0.013672,0.051758,0.049805,0.041016,0.083008l-0.154297,0.48584
				c-0.009766,0.02832-0.03418,0.045898-0.061523,0.045898L38.496094,15.014648z"/>
			<path style="fill:#A9CDA6;" d="M37.401367,14.90625c-0.046875,0-0.09375-0.018555-0.139648-0.051758
				c0.006836-0.013672-0.174805-0.898926-0.364258-1.183105c-0.024414-0.045898-0.037109-0.095703-0.030273-0.105469
				c0.045898,0.008789,0.09375,0.026367,0.167969,0.072266c0.015625,0.012695,0.185547,0.107422,0.291016,0.600586
				l0.036133,0.115234c0.016602-0.026367,0.044922-1.037598,0.401367-1.192871
				c0.032227-0.020508,0.084961-0.045898,0.111328-0.050781c-0.005859,0.006836-0.013672,0.032227-0.053711,0.09375
				c-0.010742,0.016602-0.213867,0.339844-0.224609,0.79248v0.117188c0.022461-0.013672,0.171875-0.28418,0.448242-0.342773
				c0.033203-0.012695,0.051758-0.015625,0.0625-0.016602c-0.008789,0.004883-0.022461,0.035156-0.095703,0.115234
				c-0.000977,0.000977-0.167969,0.170898-0.461914,0.775879l-0.024414,0.234375
				C37.500977,14.881836,37.458008,14.90625,37.401367,14.90625z"/>
		</g>
	</g>
</g>
<g id="nonconiferoustree_x5F_bd_3_" style="enable-background:new    ;">
	<g id="NonConiferousTree_x5F_FC_5_">
		<g id="Deleted_Symbol_2_5_">
			<path style="fill:#A9CDA6;" d="M41.024414,12.012207c0,0.317383-0.260742,0.578613-0.576172,0.578613
				c-0.104492,0-0.205078-0.034668-0.296875-0.101074c-0.073242,0.134277-0.206055,0.23291-0.355469,0.270996
				c0.00293,0.036133,0.012695,0.138672,0.036133,0.425781v0.00293c0,0.039063-0.026367,0.066406-0.058594,0.087891
				c-0.03125,0.014648-0.070313,0.025391-0.109375,0.025391c-0.033203,0-0.068359-0.009766-0.098633-0.024414
				c-0.029297-0.021484-0.051758-0.048828-0.051758-0.087891c0,0,0-0.00293,0.015625-0.432617
				c-0.114258-0.035156-0.224609-0.100586-0.308594-0.195801c-0.095703,0.104004-0.239258,0.17041-0.395508,0.17041
				c-0.299805,0-0.560547-0.26123-0.560547-0.577637c0-0.198242,0.103516-0.37793,0.263672-0.475586
				c-0.012695-0.052734-0.015625-0.105469-0.015625-0.166992c0-0.255859,0.162109-0.456543,0.394531-0.534668
				c0-0.023438,0-0.041992,0-0.072266c0-0.15918,0.058594-0.298828,0.160156-0.401367
				c0.101563-0.100586,0.242188-0.158203,0.401367-0.158203c0.290039,0,0.524414,0.206055,0.556641,0.478516
				c0.026367,0,0.052734,0,0.06543,0c0.319336,0,0.580078,0.26123,0.580078,0.561035
				c0,0.041992-0.012695,0.072266-0.016602,0.111328C40.870117,11.577637,41.024414,11.773926,41.024414,12.012207z
				 M40.831055,12.012207c0-0.163086-0.132813-0.333008-0.316406-0.365234c0,0,0,0-0.072266-0.021484l-0.026367-0.005859
				l0.005859-0.026367c0,0,0,0,0.015625-0.070313c0.020508-0.056641,0.037109-0.087891,0.037109-0.137695
				c0-0.194336-0.166992-0.36377-0.384766-0.36377c-0.033203,0-0.083984,0.00293-0.111328,0.016602h-0.001953h-0.003906
				c0,0,0,0-0.103516,0.036621l-0.041992,0.013672l0.005859-0.04541c0,0,0,0,0.016602-0.103516V10.90625
				c0-0.198242-0.163086-0.365234-0.380859-0.365234c-0.199219,0-0.365234,0.166992-0.365234,0.365234
				c0,0.036133,0,0.084961,0.012695,0.111328l0.00293,0.00293v0.005859c0,0,0,0,0.017578,0.087402l0.005859,0.033203h-0.033203
				c0,0,0,0-0.084961,0c-0.18457,0.016602-0.317383,0.182617-0.317383,0.365234c0,0.070313,0,0.116211,0.032227,0.161133v0.005859
				c0,0,0,0,0.036133,0.070313l0.015625,0.029297l-0.033203,0.005859c0,0,0,0-0.067383,0.021484
				c-0.150391,0.063477-0.231445,0.197266-0.231445,0.348633c0,0.21875,0.166016,0.381836,0.365234,0.381836
				c0.132813,0,0.248047-0.063477,0.332031-0.182617c0.00293-0.006836,0.013672-0.026367,0.051758-0.104492l0.023438-0.041992
				l0.021484,0.039063c0,0,0,0,0.072266,0.108398l0.00293,0.00293c0.048828,0.133789,0.183594,0.23291,0.333984,0.23291
				c0.166992,0,0.31543-0.115723,0.348633-0.26416v-0.00293c0,0,0,0,0.036133-0.124023l0.012695-0.041992l0.033203,0.030273
				c0,0,0,0,0.087891,0.09082c0.066406,0.064453,0.166992,0.117188,0.268555,0.117188
				C40.665039,12.393066,40.831055,12.22998,40.831055,12.012207z"/>
		</g>
	</g>
</g>
<g id="scrub_x5F_bd_3_" style="enable-background:new    ;">
	<g id="Scrub_x5F_FC_5_">
		<g id="Deleted_Symbol_1_5_">
			<path style="fill:#A9CDA6;" d="M33.681641,12.036133c-0.029297,0-0.054688-0.020508-0.063477-0.047852l-0.148438-0.48291
				c-0.010742-0.032227,0.006836-0.067383,0.039063-0.081055l0.076172-0.029297
				c0.012695-0.000977,0.023438-0.001953,0.032227-0.001953c0.037109,0.011719,0.048828,0.026367,0.055664,0.043945
				l0.146484,0.493652c0.009766,0.035156-0.008789,0.071289-0.042969,0.082031
				c-0.041016,0.012695-0.068359,0.018555-0.081055,0.021484L33.681641,12.036133z"/>
			<path style="fill:#A9CDA6;" d="M34.600586,11.913086c-0.039063,0-0.070313-0.032227-0.071289-0.072266l-0.006836-0.496582
				c0-0.039063-0.013672-0.057617-0.024414-0.069336c-0.013672-0.014648-0.036133-0.021484-0.060547-0.021484
				c-0.023438,0-0.063477,0.007813-0.113281,0.048828c-0.013672,0.008789-0.02832,0.013672-0.044922,0.013672
				c-0.038086-0.004883-0.052734-0.019531-0.05957-0.03125l-0.045898-0.068359
				c-0.021484-0.033203-0.013672-0.076172,0.019531-0.100586c0.085938-0.05957,0.174805-0.092773,0.255859-0.092773
				c0.085938,0,0.162109,0.038086,0.217773,0.109375c0.047852,0.0625,0.073242,0.134766,0.073242,0.211914l0.005859,0.461426
				l0.005859,0.037109c0,0.037109-0.033203,0.069336-0.072266,0.070313H34.600586z"/>
			<path style="fill:#A9CDA6;" d="M36.740234,11.979492c-0.027344-0.005859-0.053711-0.012695-0.076172-0.019531
				c-0.03418-0.010742-0.053711-0.045898-0.043945-0.080078l0.143555-0.495605
				c0.004883-0.018555,0.017578-0.03125,0.033203-0.040039l0.133789,0.022461
				c0.033203,0.013672,0.051758,0.049805,0.041016,0.083008l-0.154297,0.48584
				c-0.009766,0.02832-0.03418,0.045898-0.061523,0.045898L36.740234,11.979492z"/>
			<path style="fill:#A9CDA6;" d="M35.645508,11.871094c-0.046875,0-0.09375-0.018555-0.139648-0.051758
				c0.006836-0.013672-0.174805-0.898926-0.364258-1.183105c-0.024414-0.045898-0.037109-0.095703-0.030273-0.105469
				c0.045898,0.008789,0.09375,0.026367,0.167969,0.072266c0.015625,0.012695,0.185547,0.107422,0.291016,0.600586
				l0.036133,0.115234c0.016602-0.026367,0.044922-1.037598,0.401367-1.192871
				c0.032227-0.020508,0.084961-0.045898,0.111328-0.050781c-0.005859,0.006836-0.013672,0.032227-0.053711,0.09375
				c-0.010742,0.016602-0.213867,0.339844-0.224609,0.79248v0.117188c0.022461-0.013672,0.171875-0.28418,0.448242-0.342773
				c0.033203-0.012695,0.051758-0.015625,0.0625-0.016602c-0.008789,0.004883-0.022461,0.035156-0.095703,0.115234
				c-0.000977,0.000977-0.167969,0.170898-0.461914,0.775879l-0.024414,0.234375
				C35.745117,11.84668,35.702148,11.871094,35.645508,11.871094z"/>
		</g>
	</g>
</g>
<g id="scrub_x5F_bd_1_" style="enable-background:new    ;">
	<g id="Scrub_x5F_FC_3_">
		<g id="Deleted_Symbol_1_3_">
			<path style="fill:#A9CDA6;" d="M40.951172,6.686523c-0.029297,0-0.054688-0.020508-0.063477-0.047852l-0.148438-0.48291
				c-0.010742-0.032227,0.006836-0.067383,0.039063-0.081055l0.076172-0.029297
				c0.012695-0.000977,0.023438-0.001953,0.032227-0.001953c0.037109,0.011719,0.048828,0.026367,0.055664,0.043945
				l0.146484,0.493652c0.009766,0.035156-0.008789,0.071289-0.042969,0.082031
				c-0.041016,0.012695-0.068359,0.018555-0.081055,0.021484L40.951172,6.686523z"/>
			<path style="fill:#A9CDA6;" d="M41.870117,6.563477c-0.039063,0-0.070313-0.032227-0.071289-0.072266l-0.006836-0.496582
				c0-0.039063-0.013672-0.057617-0.024414-0.069336c-0.013672-0.014648-0.036133-0.021484-0.060547-0.021484
				c-0.023438,0-0.063477,0.007813-0.113281,0.048828c-0.013672,0.008789-0.02832,0.013672-0.044922,0.013672
				c-0.038086-0.004883-0.052734-0.019531-0.05957-0.03125l-0.045898-0.068359
				c-0.021484-0.033203-0.013672-0.076172,0.019531-0.100586c0.085938-0.05957,0.174805-0.092773,0.255859-0.092773
				c0.085938,0,0.162109,0.038086,0.217773,0.109375c0.047852,0.0625,0.073242,0.134766,0.073242,0.211914l0.005859,0.461426
				l0.005859,0.037109c0,0.037109-0.033203,0.069336-0.072266,0.070313H41.870117z"/>
			<path style="fill:#A9CDA6;" d="M44.009766,6.629883c-0.027344-0.005859-0.053711-0.012695-0.076172-0.019531
				c-0.03418-0.010742-0.053711-0.045898-0.043945-0.080078l0.143555-0.495605
				c0.004883-0.018555,0.017578-0.03125,0.033203-0.040039l0.133789,0.022461
				c0.033203,0.013672,0.051758,0.049805,0.041016,0.083008l-0.154297,0.48584
				c-0.009766,0.02832-0.03418,0.045898-0.061523,0.045898L44.009766,6.629883z"/>
			<path style="fill:#A9CDA6;" d="M42.915039,6.521484c-0.046875,0-0.09375-0.018555-0.139648-0.051758
				c0.006836-0.013672-0.174805-0.898926-0.364258-1.183105c-0.024414-0.045898-0.037109-0.095703-0.030273-0.105469
				c0.045898,0.008789,0.09375,0.026367,0.167969,0.072266c0.015625,0.012695,0.185547,0.107422,0.291016,0.600586
				l0.036133,0.115234c0.016602-0.026367,0.044922-1.037598,0.401367-1.192871
				c0.032227-0.020508,0.084961-0.045898,0.111328-0.050781c-0.005859,0.006836-0.013672,0.032227-0.053711,0.09375
				c-0.010742,0.016602-0.213867,0.339844-0.224609,0.79248v0.117188c0.022461-0.013672,0.171875-0.28418,0.448242-0.342773
				c0.033203-0.012695,0.051758-0.015625,0.0625-0.016602c-0.008789,0.004883-0.022461,0.035156-0.095703,0.115234
				c-0.000977,0.000977-0.167969,0.170898-0.461914,0.775879l-0.024414,0.234375
				C43.014648,6.49707,42.97168,6.521484,42.915039,6.521484z"/>
		</g>
	</g>
</g>
<g id="nonconiferoustree_x5F_bd" style="enable-background:new    ;">
	<g id="NonConiferousTree_x5F_FC_1_">
		<g id="Deleted_Symbol_2_1_">
			<path style="fill:#A9CDA6;" d="M46.538086,3.627441c0,0.317383-0.260742,0.578613-0.576172,0.578613
				c-0.104492,0-0.205078-0.034668-0.296875-0.101074c-0.073242,0.134277-0.206055,0.23291-0.355469,0.270996
				c0.00293,0.036133,0.012695,0.138672,0.036133,0.425781v0.00293c0,0.039063-0.026367,0.066406-0.058594,0.087891
				c-0.03125,0.014648-0.070313,0.025391-0.109375,0.025391c-0.033203,0-0.068359-0.009766-0.098633-0.024414
				c-0.029297-0.021484-0.051758-0.048828-0.051758-0.087891c0,0,0-0.00293,0.015625-0.432617
				c-0.114258-0.035156-0.224609-0.100586-0.308594-0.195801c-0.095703,0.104004-0.239258,0.17041-0.395508,0.17041
				c-0.299805,0-0.560547-0.26123-0.560547-0.577637c0-0.198242,0.103516-0.37793,0.263672-0.475586
				c-0.012695-0.052734-0.015625-0.105469-0.015625-0.166992c0-0.255859,0.162109-0.456543,0.394531-0.534668
				c0-0.023438,0-0.041992,0-0.072266c0-0.15918,0.058594-0.298828,0.160156-0.401367
				c0.101563-0.100586,0.242188-0.158203,0.401367-0.158203c0.290039,0,0.524414,0.206055,0.556641,0.478516
				c0.026367,0,0.052734,0,0.06543,0c0.319336,0,0.580078,0.26123,0.580078,0.561035
				c0,0.041992-0.012695,0.072266-0.016602,0.111328C46.383789,3.192871,46.538086,3.38916,46.538086,3.627441z M46.344727,3.627441
				c0-0.163086-0.132813-0.333008-0.316406-0.365234c0,0,0,0-0.072266-0.021484l-0.026367-0.005859l0.005859-0.026367
				c0,0,0,0,0.015625-0.070313c0.020508-0.056641,0.037109-0.087891,0.037109-0.137695
				c0-0.194336-0.166992-0.36377-0.384766-0.36377c-0.033203,0-0.083984,0.00293-0.111328,0.016602h-0.001953h-0.003906
				c0,0,0,0-0.103516,0.036621L45.34082,2.703613l0.005859-0.04541c0,0,0,0,0.016602-0.103516V2.521484
				c0-0.198242-0.163086-0.365234-0.380859-0.365234c-0.199219,0-0.365234,0.166992-0.365234,0.365234
				c0,0.036133,0,0.084961,0.012695,0.111328l0.00293,0.00293v0.005859c0,0,0,0,0.017578,0.087402l0.005859,0.033203h-0.033203
				c0,0,0,0-0.084961,0c-0.18457,0.016602-0.317383,0.182617-0.317383,0.365234c0,0.070313,0,0.116211,0.032227,0.161133v0.005859
				c0,0,0,0,0.036133,0.070313l0.015625,0.029297l-0.033203,0.005859c0,0,0,0-0.067383,0.021484
				c-0.150391,0.063477-0.231445,0.197266-0.231445,0.348633c0,0.21875,0.166016,0.381836,0.365234,0.381836
				c0.132813,0,0.248047-0.063477,0.332031-0.182617c0.00293-0.006836,0.013672-0.026367,0.051758-0.104492l0.023438-0.041992
				l0.021484,0.039063c0,0,0,0,0.072266,0.108398l0.00293,0.00293c0.048828,0.133789,0.183594,0.23291,0.333984,0.23291
				c0.166992,0,0.31543-0.115723,0.348633-0.26416v-0.00293c0,0,0,0,0.036133-0.124023l0.012695-0.041992l0.033203,0.030273
				c0,0,0,0,0.087891,0.09082c0.066406,0.064453,0.166992,0.117188,0.268555,0.117188
				C46.178711,4.008301,46.344727,3.845215,46.344727,3.627441z"/>
		</g>
	</g>
</g>
<g id="scrub_x5F_bd" style="enable-background:new    ;">
	<g id="Scrub_x5F_FC_1_">
		<g id="Deleted_Symbol_1_1_">
			<path style="fill:#A9CDA6;" d="M39.195313,3.651367c-0.029297,0-0.054688-0.020508-0.063477-0.047852l-0.148438-0.48291
				c-0.010742-0.032227,0.006836-0.067383,0.039063-0.081055l0.076172-0.029297
				c0.012695-0.000977,0.023438-0.001953,0.032227-0.001953c0.037109,0.011719,0.048828,0.026367,0.055664,0.043945
				l0.146484,0.493652c0.009766,0.035156-0.008789,0.071289-0.042969,0.082031
				c-0.041016,0.012695-0.068359,0.018555-0.081055,0.021484L39.195313,3.651367z"/>
			<path style="fill:#A9CDA6;" d="M40.114258,3.52832c-0.039063,0-0.070313-0.032227-0.071289-0.072266l-0.006836-0.496582
				c0-0.039063-0.013672-0.057617-0.024414-0.069336c-0.013672-0.014648-0.036133-0.021484-0.060547-0.021484
				c-0.023438,0-0.063477,0.007813-0.113281,0.048828c-0.013672,0.008789-0.02832,0.013672-0.044922,0.013672
				c-0.038086-0.004883-0.052734-0.019531-0.05957-0.03125L39.6875,2.831543
				c-0.021484-0.033203-0.013672-0.076172,0.019531-0.100586c0.085938-0.05957,0.174805-0.092773,0.255859-0.092773
				c0.085938,0,0.162109,0.038086,0.217773,0.109375c0.047852,0.0625,0.073242,0.134766,0.073242,0.211914l0.005859,0.461426
				l0.005859,0.037109c0,0.037109-0.033203,0.069336-0.072266,0.070313H40.114258z"/>
			<path style="fill:#A9CDA6;" d="M42.253906,3.594727c-0.027344-0.005859-0.053711-0.012695-0.076172-0.019531
				c-0.03418-0.010742-0.053711-0.045898-0.043945-0.080078l0.143555-0.495605
				c0.004883-0.018555,0.017578-0.03125,0.033203-0.040039l0.133789,0.022461
				c0.033203,0.013672,0.051758,0.049805,0.041016,0.083008l-0.154297,0.48584
				c-0.009766,0.02832-0.03418,0.045898-0.061523,0.045898L42.253906,3.594727z"/>
			<path style="fill:#A9CDA6;" d="M41.15918,3.486328c-0.046875,0-0.09375-0.018555-0.139648-0.051758
				c0.006836-0.013672-0.174805-0.898926-0.364258-1.183105C40.630859,2.205566,40.618164,2.155762,40.625,2.145996
				c0.045898,0.008789,0.09375,0.026367,0.167969,0.072266c0.015625,0.012695,0.185547,0.107422,0.291016,0.600586
				l0.036133,0.115234c0.016602-0.026367,0.044922-1.037598,0.401367-1.192871
				c0.032227-0.020508,0.084961-0.045898,0.111328-0.050781c-0.005859,0.006836-0.013672,0.032227-0.053711,0.09375
				c-0.010742,0.016602-0.213867,0.339844-0.224609,0.79248v0.117188c0.022461-0.013672,0.171875-0.28418,0.448242-0.342773
				c0.033203-0.012695,0.051758-0.015625,0.0625-0.016602c-0.008789,0.004883-0.022461,0.035156-0.095703,0.115234
				c-0.000977,0.000977-0.167969,0.170898-0.461914,0.775879l-0.024414,0.234375
				C41.258789,3.461914,41.21582,3.486328,41.15918,3.486328z"/>
		</g>
	</g>
</g>
<g id="scrub_x5F_bd_5_" style="enable-background:new    ;">
	<g id="Scrub_x5F_FC_7_">
		<g id="Deleted_Symbol_1_7_">
			<path style="fill:#A9CDA6;" d="M35.933594,24.949219c-0.029297,0-0.054688-0.020508-0.063477-0.047852l-0.148438-0.48291
				c-0.010742-0.032227,0.006836-0.067383,0.039063-0.081055l0.076172-0.029297
				c0.012695-0.000977,0.023438-0.001953,0.032227-0.001953c0.037109,0.011719,0.048828,0.026367,0.055664,0.043945
				l0.146484,0.493652c0.009766,0.035156-0.008789,0.071289-0.042969,0.082031
				c-0.041016,0.012695-0.068359,0.018555-0.081055,0.021484L35.933594,24.949219z"/>
			<path style="fill:#A9CDA6;" d="M36.852539,24.826172c-0.039063,0-0.070313-0.032227-0.071289-0.072266l-0.006836-0.496582
				c0-0.039063-0.013672-0.057617-0.024414-0.069336c-0.013672-0.014648-0.036133-0.021484-0.060547-0.021484
				c-0.023438,0-0.063477,0.007813-0.113281,0.048828c-0.013672,0.008789-0.02832,0.013672-0.044922,0.013672
				c-0.038086-0.004883-0.052734-0.019531-0.05957-0.03125l-0.045898-0.068359
				c-0.021484-0.033203-0.013672-0.076172,0.019531-0.100586c0.085938-0.05957,0.174805-0.092773,0.255859-0.092773
				c0.085938,0,0.162109,0.038086,0.217773,0.109375c0.047852,0.0625,0.073242,0.134766,0.073242,0.211914l0.005859,0.461426
				l0.005859,0.037109c0,0.037109-0.033203,0.069336-0.072266,0.070313H36.852539z"/>
			<path style="fill:#A9CDA6;" d="M38.992188,24.892578c-0.027344-0.005859-0.053711-0.012695-0.076172-0.019531
				c-0.03418-0.010742-0.053711-0.045898-0.043945-0.080078l0.143555-0.495605
				c0.004883-0.018555,0.017578-0.03125,0.033203-0.040039l0.133789,0.022461
				c0.033203,0.013672,0.051758,0.049805,0.041016,0.083008l-0.154297,0.48584
				c-0.009766,0.02832-0.03418,0.045898-0.061523,0.045898L38.992188,24.892578z"/>
			<path style="fill:#A9CDA6;" d="M37.897461,24.78418c-0.046875,0-0.09375-0.018555-0.139648-0.051758
				c0.006836-0.013672-0.174805-0.898926-0.364258-1.183105c-0.024414-0.045898-0.037109-0.095703-0.030273-0.105469
				c0.045898,0.008789,0.09375,0.026367,0.167969,0.072266c0.015625,0.012695,0.185547,0.107422,0.291016,0.600586
				l0.036133,0.115234c0.016602-0.026367,0.044922-1.037598,0.401367-1.192871
				c0.032227-0.020508,0.084961-0.045898,0.111328-0.050781c-0.005859,0.006836-0.013672,0.032227-0.053711,0.09375
				c-0.010742,0.016602-0.213867,0.339844-0.224609,0.79248v0.117188c0.022461-0.013672,0.171875-0.28418,0.448242-0.342773
				c0.033203-0.012695,0.051758-0.015625,0.0625-0.016602c-0.008789,0.004883-0.022461,0.035156-0.095703,0.115234
				c-0.000977,0.000977-0.167969,0.170898-0.461914,0.775879l-0.024414,0.234375
				C37.99707,24.759766,37.954102,24.78418,37.897461,24.78418z"/>
		</g>
	</g>
</g>
<g id="nonconiferoustree_x5F_bd_5_" style="enable-background:new    ;">
	<g id="NonConiferousTree_x5F_FC_7_">
		<g id="Deleted_Symbol_2_7_">
			<path style="fill:#A9CDA6;" d="M41.520508,21.890137c0,0.317383-0.260742,0.578613-0.576172,0.578613
				c-0.104492,0-0.205078-0.034668-0.296875-0.101074c-0.073242,0.134277-0.206055,0.23291-0.355469,0.270996
				c0.00293,0.036133,0.012695,0.138672,0.036133,0.425781v0.00293c0,0.039063-0.026367,0.066406-0.058594,0.087891
				c-0.03125,0.014648-0.070313,0.025391-0.109375,0.025391c-0.033203,0-0.068359-0.009766-0.098633-0.024414
				c-0.029297-0.021484-0.051758-0.048828-0.051758-0.087891c0,0,0-0.00293,0.015625-0.432617
				c-0.114258-0.035156-0.224609-0.100586-0.308594-0.195801c-0.095703,0.104004-0.239258,0.17041-0.395508,0.17041
				c-0.299805,0-0.560547-0.26123-0.560547-0.577637c0-0.198242,0.103516-0.37793,0.263672-0.475586
				c-0.012695-0.052734-0.015625-0.105469-0.015625-0.166992c0-0.255859,0.162109-0.456543,0.394531-0.534668
				c0-0.023438,0-0.041992,0-0.072266c0-0.15918,0.058594-0.298828,0.160156-0.401367
				c0.101563-0.100586,0.242188-0.158203,0.401367-0.158203c0.290039,0,0.524414,0.206055,0.556641,0.478516
				c0.026367,0,0.052734,0,0.06543,0c0.319336,0,0.580078,0.26123,0.580078,0.561035
				c0,0.041992-0.012695,0.072266-0.016602,0.111328C41.366211,21.455566,41.520508,21.651855,41.520508,21.890137z
				 M41.327148,21.890137c0-0.163086-0.132813-0.333008-0.316406-0.365234c0,0,0,0-0.072266-0.021484l-0.026367-0.005859
				l0.005859-0.026367c0,0,0,0,0.015625-0.070313c0.020508-0.056641,0.037109-0.087891,0.037109-0.137695
				c0-0.194336-0.166992-0.36377-0.384766-0.36377c-0.033203,0-0.083984,0.00293-0.111328,0.016602h-0.001953H40.46875
				c0,0,0,0-0.103516,0.036621l-0.041992,0.013672l0.005859-0.04541c0,0,0,0,0.016602-0.103516V20.78418
				c0-0.198242-0.163086-0.365234-0.380859-0.365234c-0.199219,0-0.365234,0.166992-0.365234,0.365234
				c0,0.036133,0,0.084961,0.012695,0.111328l0.00293,0.00293v0.005859c0,0,0,0,0.017578,0.087402l0.005859,0.033203h-0.033203
				c0,0,0,0-0.084961,0c-0.18457,0.016602-0.317383,0.182617-0.317383,0.365234c0,0.070313,0,0.116211,0.032227,0.161133v0.005859
				c0,0,0,0,0.036133,0.070313l0.015625,0.029297l-0.033203,0.005859c0,0,0,0-0.067383,0.021484
				c-0.150391,0.063477-0.231445,0.197266-0.231445,0.348633c0,0.21875,0.166016,0.381836,0.365234,0.381836
				c0.132813,0,0.248047-0.063477,0.332031-0.182617c0.00293-0.006836,0.013672-0.026367,0.051758-0.104492l0.023438-0.041992
				l0.021484,0.039063c0,0,0,0,0.072266,0.108398l0.00293,0.00293c0.048828,0.133789,0.183594,0.23291,0.333984,0.23291
				c0.166992,0,0.31543-0.115723,0.348633-0.26416v-0.00293c0,0,0,0,0.036133-0.124023l0.012695-0.041992l0.033203,0.030273
				c0,0,0,0,0.087891,0.09082c0.066406,0.064453,0.166992,0.117188,0.268555,0.117188
				C41.161133,22.270996,41.327148,22.10791,41.327148,21.890137z"/>
		</g>
	</g>
</g>
<g id="nonconiferoustree_x5F_bd_4_" style="enable-background:new    ;">
	<g id="NonConiferousTree_x5F_FC_6_">
		<g id="Deleted_Symbol_2_6_">
			<path style="fill:#A9CDA6;" d="M37.09668,21.126465c0,0.317383-0.260742,0.578613-0.576172,0.578613
				c-0.104492,0-0.205078-0.034668-0.296875-0.101074c-0.073242,0.134277-0.206055,0.23291-0.355469,0.270996
				c0.00293,0.036133,0.012695,0.138672,0.036133,0.425781v0.00293c0,0.039063-0.026367,0.066406-0.058594,0.087891
				c-0.03125,0.014648-0.070313,0.025391-0.109375,0.025391c-0.033203,0-0.068359-0.009766-0.098633-0.024414
				c-0.029297-0.021484-0.051758-0.048828-0.051758-0.087891c0,0,0-0.00293,0.015625-0.432617
				c-0.114258-0.035156-0.224609-0.100586-0.308594-0.195801c-0.095703,0.104004-0.239258,0.17041-0.395508,0.17041
				c-0.299805,0-0.560547-0.26123-0.560547-0.577637c0-0.198242,0.103516-0.37793,0.263672-0.475586
				c-0.012695-0.052734-0.015625-0.105469-0.015625-0.166992c0-0.255859,0.162109-0.456543,0.394531-0.534668
				c0-0.023438,0-0.041992,0-0.072266c0-0.15918,0.058594-0.298828,0.160156-0.401367
				c0.101563-0.100586,0.242188-0.158203,0.401367-0.158203c0.290039,0,0.524414,0.206055,0.556641,0.478516
				c0.026367,0,0.052734,0,0.06543,0c0.319336,0,0.580078,0.26123,0.580078,0.561035
				c0,0.041992-0.012695,0.072266-0.016602,0.111328C36.942383,20.691895,37.09668,20.888184,37.09668,21.126465z
				 M36.90332,21.126465c0-0.163086-0.132813-0.333008-0.316406-0.365234c0,0,0,0-0.072266-0.021484l-0.026367-0.005859
				l0.005859-0.026367c0,0,0,0,0.015625-0.070313c0.020508-0.056641,0.037109-0.087891,0.037109-0.137695
				c0-0.194336-0.166992-0.36377-0.384766-0.36377c-0.033203,0-0.083984,0.00293-0.111328,0.016602h-0.001953h-0.003906
				c0,0,0,0-0.103516,0.036621l-0.041992,0.013672l0.005859-0.04541c0,0,0,0,0.016602-0.103516v-0.033203
				c0-0.198242-0.163086-0.365234-0.380859-0.365234c-0.199219,0-0.365234,0.166992-0.365234,0.365234
				c0,0.036133,0,0.084961,0.012695,0.111328l0.00293,0.00293v0.005859c0,0,0,0,0.017578,0.087402l0.005859,0.033203h-0.033203
				c0,0,0,0-0.084961,0c-0.18457,0.016602-0.317383,0.182617-0.317383,0.365234c0,0.070313,0,0.116211,0.032227,0.161133v0.005859
				c0,0,0,0,0.036133,0.070313l0.015625,0.029297l-0.033203,0.005859c0,0,0,0-0.067383,0.021484
				c-0.150391,0.063477-0.231445,0.197266-0.231445,0.348633c0,0.21875,0.166016,0.381836,0.365234,0.381836
				c0.132813,0,0.248047-0.063477,0.332031-0.182617c0.00293-0.006836,0.013672-0.026367,0.051758-0.104492l0.023438-0.041992
				l0.021484,0.039063c0,0,0,0,0.072266,0.108398l0.00293,0.00293c0.048828,0.133789,0.183594,0.23291,0.333984,0.23291
				c0.166992,0,0.31543-0.115723,0.348633-0.26416v-0.00293c0,0,0,0,0.036133-0.124023l0.012695-0.041992l0.033203,0.030273
				c0,0,0,0,0.087891,0.09082c0.066406,0.064453,0.166992,0.117188,0.268555,0.117188
				C36.737305,21.507324,36.90332,21.344238,36.90332,21.126465z"/>
		</g>
	</g>
</g>
<g id="scrub_x5F_bd_7_" style="enable-background:new    ;">
	<g id="Scrub_x5F_FC_9_">
		<g id="Deleted_Symbol_1_9_">
			<path style="fill:#A9CDA6;" d="M41.203125,36.851563c-0.029297,0-0.054688-0.020508-0.063477-0.047852l-0.148438-0.483398
				c-0.010742-0.032227,0.006836-0.067383,0.039063-0.081055l0.076172-0.029297
				c0.012695-0.000977,0.023438-0.001953,0.032227-0.001953c0.037109,0.011719,0.048828,0.026367,0.055664,0.043945
				l0.146484,0.494141c0.009766,0.035156-0.008789,0.071289-0.042969,0.082031
				c-0.041016,0.012695-0.068359,0.018555-0.081055,0.021484L41.203125,36.851563z"/>
			<path style="fill:#A9CDA6;" d="M42.12207,36.728516c-0.039063,0-0.070313-0.032227-0.071289-0.072266l-0.006836-0.49707
				c0-0.039063-0.013672-0.057617-0.024414-0.069336c-0.013672-0.014648-0.036133-0.021484-0.060547-0.021484
				c-0.023438,0-0.063477,0.007813-0.113281,0.048828c-0.013672,0.008789-0.02832,0.013672-0.044922,0.013672
				c-0.038086-0.004883-0.052734-0.019531-0.05957-0.03125l-0.045898-0.068359
				c-0.021484-0.033203-0.013672-0.076172,0.019531-0.100586c0.085938-0.05957,0.174805-0.092773,0.255859-0.092773
				c0.085938,0,0.162109,0.038086,0.217773,0.109375c0.047852,0.0625,0.073242,0.134766,0.073242,0.211914l0.005859,0.461914
				l0.005859,0.037109c0,0.037109-0.033203,0.069336-0.072266,0.070313H42.12207z"/>
			<path style="fill:#A9CDA6;" d="M44.261719,36.794922c-0.027344-0.005859-0.053711-0.012695-0.076172-0.019531
				c-0.03418-0.010742-0.053711-0.045898-0.043945-0.080078l0.143555-0.496094
				c0.004883-0.018555,0.017578-0.03125,0.033203-0.040039l0.133789,0.022461
				c0.033203,0.013672,0.051758,0.049805,0.041016,0.083008l-0.154297,0.486328
				c-0.009766,0.02832-0.03418,0.045898-0.061523,0.045898L44.261719,36.794922z"/>
			<path style="fill:#A9CDA6;" d="M43.166992,36.686523c-0.046875,0-0.09375-0.018555-0.139648-0.051758
				c0.006836-0.013672-0.174805-0.899414-0.364258-1.183594c-0.024414-0.045898-0.037109-0.095703-0.030273-0.105469
				c0.045898,0.008789,0.09375,0.026367,0.167969,0.072266c0.015625,0.012695,0.185547,0.107422,0.291016,0.600586
				l0.036133,0.115234c0.016602-0.026367,0.044922-1.038086,0.401367-1.193359
				c0.032227-0.020508,0.084961-0.045898,0.111328-0.050781c-0.005859,0.006836-0.013672,0.032227-0.053711,0.09375
				C43.576172,35,43.373047,35.323242,43.362305,35.776367v0.117188c0.022461-0.013672,0.171875-0.28418,0.448242-0.342773
				c0.033203-0.012695,0.051758-0.015625,0.0625-0.016602c-0.008789,0.004883-0.022461,0.035156-0.095703,0.115234
				c-0.000977,0.000977-0.167969,0.170898-0.461914,0.776367l-0.024414,0.234375
				C43.266602,36.662109,43.223633,36.686523,43.166992,36.686523z"/>
		</g>
	</g>
</g>
<g id="nonconiferoustree_x5F_bd_6_" style="enable-background:new    ;">
	<g id="NonConiferousTree_x5F_FC_8_">
		<g id="Deleted_Symbol_2_8_">
			<path style="fill:#A9CDA6;" d="M46.788086,33.792969c0,0.317383-0.260742,0.578125-0.576172,0.578125
				c-0.104492,0-0.205078-0.03418-0.296875-0.100586c-0.073242,0.133789-0.206055,0.232422-0.355469,0.270508
				c0.00293,0.036133,0.012695,0.138672,0.036133,0.425781v0.00293c0,0.039063-0.026367,0.066406-0.058594,0.087891
				c-0.03125,0.014648-0.070313,0.025391-0.109375,0.025391c-0.033203,0-0.068359-0.009766-0.098633-0.024414
				c-0.029297-0.021484-0.051758-0.048828-0.051758-0.087891c0,0,0-0.00293,0.015625-0.432617
				c-0.114258-0.035156-0.224609-0.100586-0.308594-0.195313c-0.095703,0.103516-0.239258,0.169922-0.395508,0.169922
				c-0.299805,0-0.560547-0.260742-0.560547-0.577148c0-0.198242,0.103516-0.37793,0.263672-0.475586
				c-0.012695-0.052734-0.015625-0.105469-0.015625-0.166992c0-0.255859,0.162109-0.456055,0.394531-0.53418
				c0-0.023438,0-0.041992,0-0.072266c0-0.15918,0.058594-0.298828,0.160156-0.401367
				c0.101563-0.100586,0.242188-0.158203,0.401367-0.158203c0.290039,0,0.524414,0.206055,0.556641,0.478516
				c0.026367,0,0.052734,0,0.06543,0c0.319336,0,0.580078,0.260742,0.580078,0.560547
				c0,0.041992-0.012695,0.072266-0.016602,0.111328C46.633789,33.358398,46.788086,33.554688,46.788086,33.792969z
				 M46.594727,33.792969c0-0.163086-0.132813-0.333008-0.316406-0.365234c0,0,0,0-0.072266-0.021484l-0.026367-0.005859
				l0.005859-0.026367c0,0,0,0,0.015625-0.070313c0.020508-0.056641,0.037109-0.087891,0.037109-0.137695
				c0-0.194336-0.166992-0.363281-0.384766-0.363281c-0.033203,0-0.083984,0.00293-0.111328,0.016602h-0.001953h-0.003906
				c0,0,0,0-0.103516,0.036133l-0.041992,0.013672l0.005859-0.044922c0,0,0,0,0.016602-0.103516V32.6875
				c0-0.198242-0.163086-0.365234-0.380859-0.365234c-0.199219,0-0.365234,0.166992-0.365234,0.365234
				c0,0.036133,0,0.084961,0.012695,0.111328l0.00293,0.00293v0.005859c0,0,0,0,0.017578,0.086914l0.005859,0.033203h-0.033203
				c0,0,0,0-0.084961,0c-0.18457,0.016602-0.317383,0.182617-0.317383,0.365234c0,0.070313,0,0.116211,0.032227,0.161133v0.005859
				c0,0,0,0,0.036133,0.070313l0.015625,0.029297l-0.033203,0.005859c0,0,0,0-0.067383,0.021484
				c-0.150391,0.063477-0.231445,0.197266-0.231445,0.348633c0,0.21875,0.166016,0.381836,0.365234,0.381836
				c0.132813,0,0.248047-0.063477,0.332031-0.182617c0.00293-0.006836,0.013672-0.026367,0.051758-0.104492l0.023438-0.041992
				l0.021484,0.039063c0,0,0,0,0.072266,0.108398l0.00293,0.00293c0.048828,0.133789,0.183594,0.232422,0.333984,0.232422
				c0.166992,0,0.31543-0.115234,0.348633-0.263672v-0.00293c0,0,0,0,0.036133-0.124023l0.012695-0.041992l0.033203,0.030273
				c0,0,0,0,0.087891,0.09082c0.066406,0.064453,0.166992,0.117188,0.268555,0.117188
				C46.428711,34.173828,46.594727,34.010742,46.594727,33.792969z"/>
		</g>
	</g>
</g>
<g id="scrub_x5F_bd_6_" style="enable-background:new    ;">
	<g id="Scrub_x5F_FC_8_">
		<g id="Deleted_Symbol_1_8_">
			<path style="fill:#A9CDA6;" d="M39.447266,33.816406c-0.029297,0-0.054688-0.020508-0.063477-0.047852l-0.148438-0.483398
				c-0.010742-0.032227,0.006836-0.067383,0.039063-0.081055l0.076172-0.029297
				c0.012695-0.000977,0.023438-0.001953,0.032227-0.001953c0.037109,0.011719,0.048828,0.026367,0.055664,0.043945
				l0.146484,0.494141c0.009766,0.035156-0.008789,0.071289-0.042969,0.082031
				c-0.041016,0.012695-0.068359,0.018555-0.081055,0.021484L39.447266,33.816406z"/>
			<path style="fill:#A9CDA6;" d="M40.366211,33.693359c-0.039063,0-0.070313-0.032227-0.071289-0.072266l-0.006836-0.49707
				c0-0.039063-0.013672-0.057617-0.024414-0.069336c-0.013672-0.014648-0.036133-0.021484-0.060547-0.021484
				c-0.023438,0-0.063477,0.007813-0.113281,0.048828c-0.013672,0.008789-0.02832,0.013672-0.044922,0.013672
				c-0.038086-0.004883-0.052734-0.019531-0.05957-0.03125l-0.045898-0.068359
				c-0.021484-0.033203-0.013672-0.076172,0.019531-0.100586c0.085938-0.05957,0.174805-0.092773,0.255859-0.092773
				c0.085938,0,0.162109,0.038086,0.217773,0.109375c0.047852,0.0625,0.073242,0.134766,0.073242,0.211914l0.005859,0.461914
				l0.005859,0.037109c0,0.037109-0.033203,0.069336-0.072266,0.070313H40.366211z"/>
			<path style="fill:#A9CDA6;" d="M42.505859,33.759766c-0.027344-0.005859-0.053711-0.012695-0.076172-0.019531
				c-0.03418-0.010742-0.053711-0.045898-0.043945-0.080078l0.143555-0.496094
				c0.004883-0.018555,0.017578-0.03125,0.033203-0.040039l0.133789,0.022461
				c0.033203,0.013672,0.051758,0.049805,0.041016,0.083008l-0.154297,0.486328
				c-0.009766,0.02832-0.03418,0.045898-0.061523,0.045898L42.505859,33.759766z"/>
			<path style="fill:#A9CDA6;" d="M41.411133,33.651367c-0.046875,0-0.09375-0.018555-0.139648-0.051758
				c0.006836-0.013672-0.174805-0.899414-0.364258-1.183594c-0.024414-0.045898-0.037109-0.095703-0.030273-0.105469
				c0.045898,0.008789,0.09375,0.026367,0.167969,0.072266c0.015625,0.012695,0.185547,0.107422,0.291016,0.600586
				l0.036133,0.115234c0.016602-0.026367,0.044922-1.038086,0.401367-1.193359
				c0.032227-0.020508,0.084961-0.045898,0.111328-0.050781c-0.005859,0.006836-0.013672,0.032227-0.053711,0.09375
				c-0.010742,0.016602-0.213867,0.339844-0.224609,0.792969v0.117188c0.022461-0.013672,0.171875-0.28418,0.448242-0.342773
				c0.033203-0.012695,0.051758-0.015625,0.0625-0.016602c-0.008789,0.004883-0.022461,0.035156-0.095703,0.115234
				c-0.000977,0.000977-0.167969,0.170898-0.461914,0.776367L41.535156,33.625
				C41.510742,33.626953,41.467773,33.651367,41.411133,33.651367z"/>
		</g>
	</g>
</g>
<g id="scrub_x5F_bd_8_" style="enable-background:new    ;">
	<g id="Scrub_x5F_FC_10_">
		<g id="Deleted_Symbol_1_10_">
			<path style="fill:#A9CDA6;" d="M28.171875,47.453125c-0.029297,0-0.054688-0.020508-0.063477-0.047852l-0.148438-0.483398
				c-0.010742-0.032227,0.006836-0.067383,0.039063-0.081055l0.076172-0.029297
				c0.012695-0.000977,0.023438-0.001953,0.032227-0.001953c0.037109,0.011719,0.048828,0.026367,0.055664,0.043945
				l0.146484,0.494141c0.009766,0.035156-0.008789,0.071289-0.042969,0.082031
				c-0.041016,0.012695-0.068359,0.018555-0.081055,0.021484L28.171875,47.453125z"/>
			<path style="fill:#A9CDA6;" d="M29.09082,47.330078c-0.039063,0-0.070313-0.032227-0.071289-0.072266l-0.006836-0.49707
				c0-0.039063-0.013672-0.057617-0.024414-0.069336c-0.013672-0.014648-0.036133-0.021484-0.060547-0.021484
				c-0.023438,0-0.063477,0.007813-0.113281,0.048828c-0.013672,0.008789-0.02832,0.013672-0.044922,0.013672
				c-0.038086-0.004883-0.052734-0.019531-0.05957-0.03125l-0.045898-0.068359
				c-0.021484-0.033203-0.013672-0.076172,0.019531-0.100586c0.085938-0.05957,0.174805-0.092773,0.255859-0.092773
				c0.085938,0,0.162109,0.038086,0.217773,0.109375c0.047852,0.0625,0.073242,0.134766,0.073242,0.211914l0.005859,0.461914
				l0.005859,0.037109c0,0.037109-0.033203,0.069336-0.072266,0.070313H29.09082z"/>
			<path style="fill:#A9CDA6;" d="M31.230469,47.396484c-0.027344-0.005859-0.053711-0.012695-0.076172-0.019531
				c-0.03418-0.010742-0.053711-0.045898-0.043945-0.080078l0.143555-0.496094
				c0.004883-0.018555,0.017578-0.03125,0.033203-0.040039l0.133789,0.022461
				c0.033203,0.013672,0.051758,0.049805,0.041016,0.083008l-0.154297,0.486328
				c-0.009766,0.02832-0.03418,0.045898-0.061523,0.045898L31.230469,47.396484z"/>
			<path style="fill:#A9CDA6;" d="M30.135742,47.288086c-0.046875,0-0.09375-0.018555-0.139648-0.051758
				c0.006836-0.013672-0.174805-0.899414-0.364258-1.183594c-0.024414-0.045898-0.037109-0.095703-0.030273-0.105469
				c0.045898,0.008789,0.09375,0.026367,0.167969,0.072266c0.015625,0.012695,0.185547,0.107422,0.291016,0.600586
				l0.036133,0.115234c0.016602-0.026367,0.044922-1.038086,0.401367-1.193359
				c0.032227-0.020508,0.084961-0.045898,0.111328-0.050781c-0.005859,0.006836-0.013672,0.032227-0.053711,0.09375
				c-0.010742,0.016602-0.213867,0.339844-0.224609,0.792969v0.117188c0.022461-0.013672,0.171875-0.28418,0.448242-0.342773
				c0.033203-0.012695,0.051758-0.015625,0.0625-0.016602c-0.008789,0.004883-0.022461,0.035156-0.095703,0.115234
				c-0.000977,0.000977-0.167969,0.170898-0.461914,0.776367l-0.024414,0.234375
				C30.235352,47.263672,30.192383,47.288086,30.135742,47.288086z"/>
		</g>
	</g>
</g>
<g id="nonconiferoustree_x5F_bd_7_" style="enable-background:new    ;">
	<g id="NonConiferousTree_x5F_FC_9_">
		<g id="Deleted_Symbol_2_9_">
			<path style="fill:#A9CDA6;" d="M33.758789,44.394531c0,0.317383-0.260742,0.578125-0.576172,0.578125
				c-0.104492,0-0.205078-0.03418-0.296875-0.100586c-0.073242,0.133789-0.206055,0.232422-0.355469,0.270508
				c0.00293,0.036133,0.012695,0.138672,0.036133,0.425781v0.00293c0,0.039063-0.026367,0.066406-0.058594,0.087891
				c-0.03125,0.014648-0.070313,0.025391-0.109375,0.025391c-0.033203,0-0.068359-0.009766-0.098633-0.024414
				c-0.029297-0.021484-0.051758-0.048828-0.051758-0.087891c0,0,0-0.00293,0.015625-0.432617
				c-0.114258-0.035156-0.224609-0.100586-0.308594-0.195313c-0.095703,0.103516-0.239258,0.169922-0.395508,0.169922
				c-0.299805,0-0.560547-0.260742-0.560547-0.577148c0-0.198242,0.103516-0.37793,0.263672-0.475586
				C31.25,44.008789,31.24707,43.956055,31.24707,43.894531c0-0.255859,0.162109-0.456055,0.394531-0.53418
				c0-0.023438,0-0.041992,0-0.072266c0-0.15918,0.058594-0.298828,0.160156-0.401367
				c0.101563-0.100586,0.242188-0.158203,0.401367-0.158203c0.290039,0,0.524414,0.206055,0.556641,0.478516
				c0.026367,0,0.052734,0,0.06543,0c0.319336,0,0.580078,0.260742,0.580078,0.560547
				c0,0.041992-0.012695,0.072266-0.016602,0.111328C33.604492,43.959961,33.758789,44.15625,33.758789,44.394531z
				 M33.56543,44.394531c0-0.163086-0.132813-0.333008-0.316406-0.365234c0,0,0,0-0.072266-0.021484l-0.026367-0.005859
				l0.005859-0.026367c0,0,0,0,0.015625-0.070313c0.020508-0.056641,0.037109-0.087891,0.037109-0.137695
				c0-0.194336-0.166992-0.363281-0.384766-0.363281c-0.033203,0-0.083984,0.00293-0.111328,0.016602h-0.001953h-0.003906
				c0,0,0,0-0.103516,0.036133l-0.041992,0.013672l0.005859-0.044922c0,0,0,0,0.016602-0.103516v-0.033203
				c0-0.198242-0.163086-0.365234-0.380859-0.365234c-0.199219,0-0.365234,0.166992-0.365234,0.365234
				c0,0.036133,0,0.084961,0.012695,0.111328l0.00293,0.00293v0.005859c0,0,0,0,0.017578,0.086914l0.005859,0.033203H31.84375
				c0,0,0,0-0.084961,0c-0.18457,0.016602-0.317383,0.182617-0.317383,0.365234c0,0.070313,0,0.116211,0.032227,0.161133v0.005859
				c0,0,0,0,0.036133,0.070313l0.015625,0.029297l-0.033203,0.005859c0,0,0,0-0.067383,0.021484
				c-0.150391,0.063477-0.231445,0.197266-0.231445,0.348633c0,0.21875,0.166016,0.381836,0.365234,0.381836
				c0.132813,0,0.248047-0.063477,0.332031-0.182617c0.00293-0.006836,0.013672-0.026367,0.051758-0.104492l0.023438-0.041992
				l0.021484,0.039063c0,0,0,0,0.072266,0.108398l0.00293,0.00293c0.048828,0.133789,0.183594,0.232422,0.333984,0.232422
				c0.166992,0,0.31543-0.115234,0.348633-0.263672v-0.00293c0,0,0,0,0.036133-0.124023l0.012695-0.041992l0.033203,0.030273
				c0,0,0,0,0.087891,0.09082c0.066406,0.064453,0.166992,0.117188,0.268555,0.117188
				C33.399414,44.775391,33.56543,44.612305,33.56543,44.394531z"/>
		</g>
	</g>
</g>
<g id="scrub_x5F_bd_9_" style="enable-background:new    ;">
	<g id="Scrub_x5F_FC_11_">
		<g id="Deleted_Symbol_1_11_">
			<path style="fill:#A9CDA6;" d="M26.416016,44.417969c-0.029297,0-0.054688-0.020508-0.063477-0.047852l-0.148438-0.483398
				c-0.010742-0.032227,0.006836-0.067383,0.039063-0.081055l0.076172-0.029297
				c0.012695-0.000977,0.023438-0.001953,0.032227-0.001953c0.037109,0.011719,0.048828,0.026367,0.055664,0.043945
				l0.146484,0.494141c0.009766,0.035156-0.008789,0.071289-0.042969,0.082031
				c-0.041016,0.012695-0.068359,0.018555-0.081055,0.021484L26.416016,44.417969z"/>
			<path style="fill:#A9CDA6;" d="M27.334961,44.294922c-0.039063,0-0.070313-0.032227-0.071289-0.072266l-0.006836-0.49707
				c0-0.039063-0.013672-0.057617-0.024414-0.069336c-0.013672-0.014648-0.036133-0.021484-0.060547-0.021484
				c-0.023438,0-0.063477,0.007813-0.113281,0.048828c-0.013672,0.008789-0.02832,0.013672-0.044922,0.013672
				c-0.038086-0.004883-0.052734-0.019531-0.05957-0.03125l-0.045898-0.068359
				c-0.021484-0.033203-0.013672-0.076172,0.019531-0.100586c0.085938-0.05957,0.174805-0.092773,0.255859-0.092773
				c0.085938,0,0.162109,0.038086,0.217773,0.109375c0.047852,0.0625,0.073242,0.134766,0.073242,0.211914l0.005859,0.461914
				l0.005859,0.037109c0,0.037109-0.033203,0.069336-0.072266,0.070313H27.334961z"/>
			<path style="fill:#A9CDA6;" d="M29.474609,44.361328c-0.027344-0.005859-0.053711-0.012695-0.076172-0.019531
				c-0.03418-0.010742-0.053711-0.045898-0.043945-0.080078l0.143555-0.496094
				c0.004883-0.018555,0.017578-0.03125,0.033203-0.040039l0.133789,0.022461
				c0.033203,0.013672,0.051758,0.049805,0.041016,0.083008l-0.154297,0.486328
				c-0.009766,0.02832-0.03418,0.045898-0.061523,0.045898L29.474609,44.361328z"/>
			<path style="fill:#A9CDA6;" d="M28.379883,44.25293c-0.046875,0-0.09375-0.018555-0.139648-0.051758
				c0.006836-0.013672-0.174805-0.899414-0.364258-1.183594c-0.024414-0.045898-0.037109-0.095703-0.030273-0.105469
				c0.045898,0.008789,0.09375,0.026367,0.167969,0.072266c0.015625,0.012695,0.185547,0.107422,0.291016,0.600586
				l0.036133,0.115234c0.016602-0.026367,0.044922-1.038086,0.401367-1.193359
				c0.032227-0.020508,0.084961-0.045898,0.111328-0.050781c-0.005859,0.006836-0.013672,0.032227-0.053711,0.09375
				c-0.010742,0.016602-0.213867,0.339844-0.224609,0.792969v0.117188c0.022461-0.013672,0.171875-0.28418,0.448242-0.342773
				c0.033203-0.012695,0.051758-0.015625,0.0625-0.016602c-0.008789,0.004883-0.022461,0.035156-0.095703,0.115234
				c-0.000977,0.000977-0.167969,0.170898-0.461914,0.776367l-0.024414,0.234375
				C28.479492,44.228516,28.436523,44.25293,28.379883,44.25293z"/>
		</g>
	</g>
</g>
<g id="scrub_x5F_bd_16_" style="enable-background:new    ;">
	<g id="Scrub_x5F_FC_18_">
		<g id="Deleted_Symbol_1_18_">
			<path style="fill:#A9CDA6;" d="M4.395996,48.869141c-0.028809,0-0.054199-0.020508-0.062988-0.047852L4.18457,48.337891
				c-0.010254-0.032227,0.006836-0.067383,0.039063-0.081055l0.07666-0.029297
				c0.012207-0.000977,0.023438-0.001953,0.031738-0.001953c0.037109,0.011719,0.048828,0.026367,0.055176,0.043945
				l0.146973,0.494141c0.009766,0.035156-0.009277,0.071289-0.042969,0.082031
				c-0.041016,0.012695-0.068359,0.018555-0.081055,0.021484L4.395996,48.869141z"/>
			<path style="fill:#A9CDA6;" d="M5.315918,48.746094c-0.039063,0-0.070801-0.032227-0.071777-0.072266l-0.006348-0.49707
				c0-0.039063-0.013672-0.057617-0.024902-0.069336c-0.013672-0.014648-0.035645-0.021484-0.060059-0.021484
				c-0.023926,0-0.063965,0.007813-0.11377,0.048828c-0.013184,0.008789-0.027832,0.013672-0.044922,0.013672
				c-0.038086-0.004883-0.052246-0.019531-0.059082-0.03125L4.88916,48.048828
				c-0.021973-0.033203-0.01416-0.076172,0.019043-0.100586c0.085938-0.05957,0.174805-0.092773,0.255859-0.092773
				c0.085938,0,0.162109,0.038086,0.217773,0.109375c0.047852,0.0625,0.072754,0.134766,0.072754,0.211914l0.005859,0.461914
				l0.005859,0.037109c0,0.037109-0.032715,0.069336-0.071289,0.070313H5.315918z"/>
			<path style="fill:#A9CDA6;" d="M7.455078,48.8125c-0.026855-0.005859-0.053223-0.012695-0.076172-0.019531
				c-0.033691-0.010742-0.053711-0.045898-0.043945-0.080078l0.144043-0.496094
				c0.004883-0.018555,0.01709-0.03125,0.033203-0.040039l0.133301,0.022461c0.033203,0.013672,0.05127,0.049805,0.041016,0.083008
				l-0.154297,0.486328c-0.009277,0.02832-0.03418,0.045898-0.061035,0.045898L7.455078,48.8125z"/>
			<path style="fill:#A9CDA6;" d="M6.360352,48.704102c-0.046875,0-0.09375-0.018555-0.139648-0.051758
				c0.006836-0.013672-0.174316-0.899414-0.364258-1.183594c-0.024902-0.045898-0.037109-0.095703-0.030762-0.105469
				c0.045898,0.008789,0.09375,0.026367,0.168945,0.072266c0.015137,0.012695,0.185059,0.107422,0.291016,0.600586
				l0.036133,0.115234c0.016602-0.026367,0.044922-1.038086,0.400391-1.193359
				c0.032715-0.020508,0.084961-0.045898,0.111816-0.050781c-0.005859,0.006836-0.01416,0.032227-0.053711,0.09375
				c-0.01123,0.016602-0.214355,0.339844-0.225098,0.792969v0.117188c0.022949-0.013672,0.171875-0.28418,0.44873-0.342773
				c0.033203-0.012695,0.052246-0.015625,0.062988-0.016602c-0.008789,0.004883-0.022949,0.035156-0.09668,0.115234
				c-0.000977,0.000977-0.167969,0.170898-0.461914,0.776367l-0.024414,0.234375
				C6.460449,48.679688,6.41748,48.704102,6.360352,48.704102z"/>
		</g>
	</g>
</g>
<g id="nonconiferoustree_x5F_bd_15_" style="enable-background:new    ;">
	<g id="NonConiferousTree_x5F_FC_17_">
		<g id="Deleted_Symbol_2_17_">
			<path style="fill:#A9CDA6;" d="M9.984375,45.808594c0,0.317383-0.260742,0.578125-0.57666,0.578125
				c-0.104492,0-0.205566-0.03418-0.296875-0.100586c-0.07373,0.133789-0.206055,0.232422-0.355957,0.270508
				c0.00293,0.036133,0.013184,0.138672,0.036133,0.425781v0.00293c0,0.039063-0.025879,0.066406-0.058105,0.087891
				c-0.031738,0.014648-0.070801,0.025391-0.109863,0.025391c-0.032227,0-0.067871-0.009766-0.098145-0.024414
				c-0.028809-0.021484-0.051758-0.048828-0.051758-0.087891c0,0,0-0.00293,0.015625-0.432617
				C8.375,46.518555,8.26416,46.453125,8.180176,46.358398c-0.095215,0.103516-0.239258,0.169922-0.395508,0.169922
				c-0.300293,0-0.561035-0.260742-0.561035-0.577148c0-0.198242,0.104004-0.37793,0.263672-0.475586
				c-0.012695-0.052734-0.015625-0.105469-0.015625-0.166992c0-0.255859,0.162598-0.456055,0.395508-0.53418
				c0-0.023438,0-0.041992,0-0.072266c0-0.15918,0.058594-0.298828,0.159668-0.401367
				c0.102051-0.100586,0.242188-0.158203,0.401367-0.158203c0.289551,0,0.523926,0.206055,0.556641,0.478516
				c0.026367,0,0.052246,0,0.064941,0c0.319824,0,0.580566,0.260742,0.580566,0.560547
				c0,0.041992-0.012695,0.072266-0.016113,0.111328C9.82959,45.374023,9.984375,45.570313,9.984375,45.808594z M9.790527,45.808594
				c0-0.163086-0.132813-0.333008-0.315918-0.365234c0,0,0,0-0.072266-0.021484l-0.026855-0.005859l0.005859-0.026367
				c0,0,0,0,0.016113-0.070313c0.02002-0.056641,0.037109-0.087891,0.037109-0.137695
				c0-0.194336-0.16748-0.363281-0.385742-0.363281c-0.032715,0-0.083984,0.00293-0.11084,0.016602H8.936035H8.932129
				c0,0,0,0-0.104004,0.036133l-0.041992,0.013672l0.005859-0.044922c0,0,0,0,0.01709-0.103516v-0.033203
				c0-0.198242-0.163086-0.365234-0.380859-0.365234c-0.199219,0-0.365234,0.166992-0.365234,0.365234
				c0,0.036133,0,0.084961,0.013184,0.111328l0.00293,0.00293v0.005859c0,0,0,0,0.01709,0.086914l0.005859,0.033203H8.068848
				c0,0,0,0-0.084961,0c-0.18457,0.016602-0.317383,0.182617-0.317383,0.365234c0,0.070313,0,0.116211,0.032227,0.161133v0.005859
				c0,0,0,0,0.035645,0.070313l0.016113,0.029297l-0.033203,0.005859c0,0,0,0-0.067871,0.021484
				c-0.149902,0.063477-0.230957,0.197266-0.230957,0.348633c0,0.21875,0.166016,0.381836,0.365234,0.381836
				c0.133301,0,0.248535-0.063477,0.33252-0.182617c0.00293-0.006836,0.013672-0.026367,0.051758-0.104492l0.022949-0.041992
				l0.021973,0.039063c0,0,0,0,0.072266,0.108398l0.00293,0.00293c0.048828,0.133789,0.183105,0.232422,0.333008,0.232422
				c0.166992,0,0.315918-0.115234,0.349121-0.263672v-0.00293c0,0,0,0,0.035645-0.124023l0.013184-0.041992l0.033203,0.030273
				c0,0,0,0,0.087891,0.09082c0.065918,0.064453,0.166992,0.117188,0.268555,0.117188
				C9.624512,46.189453,9.790527,46.026367,9.790527,45.808594z"/>
		</g>
	</g>
</g>
<g id="scrub_x5F_bd_15_" style="enable-background:new    ;">
	<g id="Scrub_x5F_FC_17_">
		<g id="Deleted_Symbol_1_17_">
			<path style="fill:#A9CDA6;" d="M2.641113,45.833984c-0.028809,0-0.054199-0.020508-0.062988-0.047852l-0.148438-0.483398
				c-0.010254-0.032227,0.006836-0.067383,0.039063-0.081055l0.07666-0.029297
				c0.012207-0.000977,0.023438-0.001953,0.031738-0.001953c0.037109,0.011719,0.048828,0.026367,0.055176,0.043945
				l0.146973,0.494141c0.009766,0.035156-0.009277,0.071289-0.042969,0.082031
				c-0.041016,0.012695-0.068359,0.018555-0.081055,0.021484L2.641113,45.833984z"/>
			<path style="fill:#A9CDA6;" d="M3.561035,45.710938c-0.039063,0-0.070801-0.032227-0.071777-0.072266l-0.006348-0.49707
				c0-0.039063-0.013672-0.057617-0.024902-0.069336c-0.013672-0.014648-0.035645-0.021484-0.060059-0.021484
				c-0.023926,0-0.063965,0.007813-0.11377,0.048828c-0.013184,0.008789-0.027832,0.013672-0.044922,0.013672
				c-0.038086-0.004883-0.052246-0.019531-0.059082-0.03125l-0.045898-0.068359
				c-0.021973-0.033203-0.01416-0.076172,0.019043-0.100586c0.085938-0.05957,0.174805-0.092773,0.255859-0.092773
				c0.085938,0,0.162109,0.038086,0.217773,0.109375c0.047852,0.0625,0.072754,0.134766,0.072754,0.211914l0.005859,0.461914
				l0.005859,0.037109c0,0.037109-0.032715,0.069336-0.071289,0.070313H3.561035z"/>
			<path style="fill:#A9CDA6;" d="M5.700195,45.777344c-0.026855-0.005859-0.053223-0.012695-0.076172-0.019531
				c-0.033691-0.010742-0.053711-0.045898-0.043945-0.080078l0.144043-0.496094
				c0.004883-0.018555,0.01709-0.03125,0.033203-0.040039l0.133301,0.022461c0.033203,0.013672,0.05127,0.049805,0.041016,0.083008
				l-0.154297,0.486328c-0.009277,0.02832-0.03418,0.045898-0.061035,0.045898L5.700195,45.777344z"/>
			<path style="fill:#A9CDA6;" d="M4.605469,45.668945c-0.046875,0-0.09375-0.018555-0.139648-0.051758
				c0.006836-0.013672-0.174316-0.899414-0.364258-1.183594c-0.024902-0.045898-0.037109-0.095703-0.030762-0.105469
				c0.045898,0.008789,0.09375,0.026367,0.168945,0.072266c0.015137,0.012695,0.185059,0.107422,0.291016,0.600586
				l0.036133,0.115234c0.016602-0.026367,0.044922-1.038086,0.400391-1.193359C5,43.902344,5.052246,43.876953,5.079102,43.87207
				c-0.005859,0.006836-0.01416,0.032227-0.053711,0.09375c-0.01123,0.016602-0.214355,0.339844-0.225098,0.792969v0.117188
				c0.022949-0.013672,0.171875-0.28418,0.44873-0.342773c0.033203-0.012695,0.052246-0.015625,0.062988-0.016602
				c-0.008789,0.004883-0.022949,0.035156-0.09668,0.115234c-0.000977,0.000977-0.167969,0.170898-0.461914,0.776367
				l-0.024414,0.234375C4.705566,45.644531,4.662598,45.668945,4.605469,45.668945z"/>
		</g>
	</g>
</g>
</svg>
