<?xml version="1.0" encoding="utf-8"?>
<!-- Generator: Adobe Illustrator 16.0.3, SVG Export Plug-In . SVG Version: 6.00 Build 0)  -->
<!DOCTYPE svg PUBLIC "-//W3C//DTD SVG 1.1//EN" "http://www.w3.org/Graphics/SVG/1.1/DTD/svg11.dtd">
<svg version="1.1" id="Layer_1" xmlns="http://www.w3.org/2000/svg" xmlns:xlink="http://www.w3.org/1999/xlink" x="0px" y="0px"
	 width="12.0039px" height="12.0078px" viewBox="0 0 12.0039 12.0078" style="enable-background:new 0 0 12.0039 12.0078;"
	 xml:space="preserve">
<g>
	<g>
		<g>
			<path style="fill:#FFFFFF;" d="M6.002,9.0381l-3.7661,2.7178L3.665,7.3291l-3.7671-2.7383h4.6563L6.001,0.1641l1.4463,4.4268
				h4.6543L8.3379,7.3457l1.4316,4.4111L6.002,9.0381z M4.854,6.9453L4.145,9.1445l1.856-1.3584L7.873,9.1445L7.1484,6.9473
				l1.875-1.3623H6.7109L6,3.3979L5.2759,5.585H2.98L4.854,6.9453z"/>
		</g>
	</g>
</g>
<polygon style="fill:#FFFFFF;" points="1.7378,5.1929 4.251,7.1602 3.2432,10.374 6.002,8.4932 8.6973,10.374 7.7568,7.126 
	10.4238,5.1929 7.1055,5.1079 6.002,1.5181 5.0039,5.0908 "/>
<g>
	<path style="fill:#DD2C39;" d="M8.1738,7.293l1.3291,4.0996L6.002,8.8652l-3.501,2.5273l1.3291-4.1172L0.3291,4.731h4.3267
		L6.002,0.6138L7.3477,4.731h4.3271L8.1738,7.293z M6.8125,5.4448L6.002,2.9487L5.1748,5.4448h-2.625L4.689,7L3.8789,9.5117
		L6.002,7.957l2.1406,1.5547L7.3145,7l2.1396-1.5552H6.8125z"/>
</g>
</svg>
