<?xml version="1.0" encoding="utf-8"?>
<!-- Generator: Adobe Illustrator 16.0.3, SVG Export Plug-In . SVG Version: 6.00 Build 0)  -->
<!DOCTYPE svg PUBLIC "-//W3C//DTD SVG 1.1//EN" "http://www.w3.org/Graphics/SVG/1.1/DTD/svg11.dtd">
<svg version="1.1" id="Layer_1" xmlns="http://www.w3.org/2000/svg" xmlns:xlink="http://www.w3.org/1999/xlink" x="0px" y="0px"
	 width="59.4961px" height="25.3652px" viewBox="0 0 59.4961 25.3652" style="enable-background:new 0 0 59.4961 25.3652;"
	 xml:space="preserve">
<g>
	<path style="opacity:0.45;fill:#FCFCFA;" d="M56.2813,20.5166c0,1.6572-1.3428,3-3,3H6.2153c-1.6567,0-3-1.3428-3-3V4.8486
		c0-1.6567,1.3433-3,3-3h47.0659c1.6572,0,3,1.3433,3,3V20.5166z"/>
	<path style="opacity:0.56;fill:#E5F0E5;" d="M55.2207,19.6309c0,1.6572-1.3428,3-3,3H7.2759c-1.6567,0-3-1.3428-3-3V5.7339
		c0-1.6567,1.3433-3.0005,3-3.0005h44.9448c1.6572,0,3,1.3438,3,3.0005V19.6309z"/>
	<path style="opacity:0.67;fill:#CEE4CF;" d="M54.1602,18.7461c0,1.6572-1.3428,2.999-3,2.999H8.3369
		c-1.6572,0-3.0005-1.3418-3.0005-2.999V6.6191c0-1.6567,1.3433-3,3.0005-3h42.8232c1.6572,0,3,1.3433,3,3V18.7461z"/>
	<path style="opacity:0.78;fill:#B6D7BA;" d="M53.0986,17.8604c0,1.6572-1.3428,3-2.999,3H9.3975c-1.6572,0-3-1.3428-3-3V7.5049
		c0-1.6572,1.3428-3.0005,3-3.0005h40.7021c1.6563,0,2.999,1.3433,2.999,3.0005V17.8604z"/>
	<path style="opacity:0.89;fill:#9FCBA4;" d="M52.0381,16.9756c0,1.6563-1.3428,2.999-3,2.999H10.458c-1.6572,0-3-1.3428-3-2.999
		V8.3896c0-1.6563,1.3428-3,3-3h38.5801c1.6572,0,3,1.3438,3,3V16.9756z"/>
	<path style="fill:#88BF8F;" d="M50.9775,16.0898c0,1.6572-1.3428,3-3,3h-36.459c-1.6567,0-3-1.3428-3-3V9.2754
		c0-1.6567,1.3433-3,3-3h36.459c1.6572,0,3,1.3433,3,3V16.0898z"/>
</g>
</svg>
