<?xml version="1.0" encoding="utf-8"?>
<!-- Generator: Adobe Illustrator 15.0.2, SVG Export Plug-In . SVG Version: 6.00 Build 0)  -->
<!DOCTYPE svg PUBLIC "-//W3C//DTD SVG 1.1//EN" "http://www.w3.org/Graphics/SVG/1.1/DTD/svg11.dtd">
<svg version="1.1" id="Layer_1" xmlns="http://www.w3.org/2000/svg" xmlns:xlink="http://www.w3.org/1999/xlink" x="0px" y="0px"
	 width="12.004px" height="12.008px" viewBox="0 0 12.004 12.008" enable-background="new 0 0 12.004 12.008" xml:space="preserve">
<ellipse fill="#FFFFFF" cx="5.96" cy="5.129" rx="1.833" ry="2.25"/>
<g enable-background="new    ">
	<path fill="#6A70C7" d="M6.015,10.952c0,0-0.176,0-0.375-0.035c-0.176,0-0.422-0.022-0.574-0.129
		c-1.137-0.728-1.465-1.358-1.84-2.603C3.132,7.87,3.062,7.602,3.038,7.495C2.78,7.284,2.581,7.038,2.429,6.77
		c0,0,0.434-0.48,0.527-1.079c0,0,0.328-2.602,0.551-2.977c0.234-0.387,0.996-1.008,1.418-1.113c0,0-0.023-0.129,0.082-0.211
		c0.246-0.211,0.586-0.258,0.996-0.258C6.401,1.12,6.766,1.179,7.011,1.39c0.105,0.082,0.082,0.211,0.082,0.211
		c0.41,0.105,1.185,0.727,1.418,1.113C8.732,3.089,9.063,5.69,9.063,5.69C9.12,6.229,9.589,6.77,9.589,6.77
		C9.438,7.039,9.236,7.285,8.98,7.496C8.956,7.602,8.886,7.87,8.792,8.188c-0.375,1.242-0.703,1.875-1.84,2.602
		c-0.152,0.105-0.397,0.129-0.574,0.129C6.179,10.952,6.015,10.952,6.015,10.952z M3.565,7.813C3.858,8.948,4.198,9.698,5.3,10.413
		c0.105,0.069,0.656,0.094,0.703,0.094c0.035,0,0.586-0.022,0.69-0.094c1.103-0.715,1.441-1.465,1.734-2.603
		c-0.27,0.094-0.785,0.316-1.043,0.563c-0.434,0.41-1.383,0.375-1.383,0.375s-0.96,0.035-1.394-0.375
		C4.351,8.128,3.835,7.904,3.565,7.813z M6.015,3.522C5.874,3.839,5.687,3.804,5.651,3.78C4.866,3.476,5.276,4.823,5.276,4.823
		h0.305l-0.023,0.07l-1.02,0.141l0.738,0.68L5.101,6.675l0.902-0.457l0.914,0.457L6.741,5.714l0.737-0.68L6.46,4.894l-0.023-0.07
		h0.305c0,0,0.41-1.348-0.375-1.043C6.331,3.804,6.144,3.839,6.015,3.522z M5.862,4.612H5.429C5.347,4.261,5.335,3.886,5.581,3.979
		c0.07,0.023,0.164,0.035,0.281-0.023V4.612z M6.155,3.944c0.129,0.07,0.211,0.059,0.281,0.035C6.682,3.885,6.67,4.26,6.577,4.612
		H6.155V3.944z"/>
</g>
</svg>
