<?xml version="1.0" encoding="utf-8"?>
<!-- Generator: Adobe Illustrator 16.0.3, SVG Export Plug-In . SVG Version: 6.00 Build 0)  -->
<!DOCTYPE svg PUBLIC "-//W3C//DTD SVG 1.1//EN" "http://www.w3.org/Graphics/SVG/1.1/DTD/svg11.dtd">
<svg version="1.1" id="Layer_1" xmlns="http://www.w3.org/2000/svg" xmlns:xlink="http://www.w3.org/1999/xlink" x="0px" y="0px"
	 width="12.0039px" height="12.0078px" viewBox="0 0 12.0039 12.0078" style="enable-background:new 0 0 12.0039 12.0078;"
	 xml:space="preserve">
<circle style="fill:#FFFFFF;" cx="5.9868" cy="5.9846" r="4.7498"/>
<g style="enable-background:new    ;">
	<path style="fill:#2837C6;" d="M1.2358,5.959c0-2.6353,2.1323-4.7559,4.7661-4.7559c2.6348,0,4.7656,2.1206,4.7656,4.7559
		c0,2.6328-2.1309,4.7656-4.7656,4.7656C3.3691,10.7246,1.2358,8.5918,1.2358,5.959z M6.002,1.6099
		c-2.4038,0-4.3481,1.9443-4.3481,4.3491c0,2.415,1.9443,4.3574,4.3481,4.3574c2.4043,0,4.3477-1.9424,4.3477-4.3574
		C10.3516,3.5552,8.4063,1.6099,6.002,1.6099z M6.1489,9.1348l1.1392,0.3047L7.2148,8.9473L6.2749,8.2266l0.083-1.3154
		C6.3682,6.5439,6.3062,6.106,6.6191,6.106c0.125,0,0.293,0.0522,0.4082,0.083l0.7422,0.208l1.7559,0.7944V7.0039
		c0-0.125,0.0313-0.3242-0.0723-0.418c-0.0547-0.084-0.21-0.189-0.293-0.251l-2.729-2.0269V4.0879L6.3579,3.021
		c-0.0308-0.1982-0.042-0.7622-0.3447-0.7622c-0.3032,0-0.314,0.564-0.3452,0.7632L5.5952,4.0879v0.2202L2.8672,6.335
		c-0.083,0.063-0.23,0.167-0.292,0.251c-0.105,0.0938-0.0742,0.293-0.0742,0.418v0.1875l1.7559-0.7925l0.7534-0.21
		c0.1147-0.0308,0.2705-0.083,0.397-0.083c0.313,0,0.251,0.438,0.2607,0.8052l0.084,1.3154L4.811,8.9473L4.7378,9.4395L5.877,9.1338
		h0.272V9.1348z"/>
</g>
</svg>
