<?xml version="1.0" encoding="utf-8"?>
<!-- Generator: Adobe Illustrator 15.0.2, SVG Export Plug-In . SVG Version: 6.00 Build 0)  -->
<!DOCTYPE svg PUBLIC "-//W3C//DTD SVG 1.1//EN" "http://www.w3.org/Graphics/SVG/1.1/DTD/svg11.dtd">
<svg version="1.1" id="Layer_1" xmlns="http://www.w3.org/2000/svg" xmlns:xlink="http://www.w3.org/1999/xlink" x="0px" y="0px"
	 width="12.004px" height="12.008px" viewBox="0 0 12.004 12.008" enable-background="new 0 0 12.004 12.008" xml:space="preserve">
<polygon fill="#FFFFFF" points="0.872,5.229 6.795,6.779 11.167,4.647 5.755,3.765 "/>
<g enable-background="new    ">
	<path fill="#6A70C7" d="M10.32,5.43c0.082,0.162,0.041,0.283,0.021,0.445c0,0-0.021,0.102-0.021,0.202
		c-0.021,0.122,0,0.264,0.041,0.466c0.142,0.061,0.242,0.202,0.242,0.364c0,0.061-0.021,0.101-0.021,0.161
		c0.162,0.486,0.344,1.174-0.062,1.537L9.977,8.646C9.531,8.484,9.613,8,9.693,7.636C9.714,7.453,9.795,7.23,9.855,7.068
		C9.835,7.008,9.814,6.968,9.814,6.907c0-0.142,0.082-0.265,0.183-0.324c-0.04-0.263-0.062-0.546,0-0.769
		c0.021-0.102,0.021-0.142-0.021-0.243L8.54,6.239c0.021,0.102,0.021,0.243,0.04,0.466c0.041,0.363,0.102,0.91,0.041,1.254
		C7.285,9.254,4.959,8.891,3.563,7.898C3.401,7.453,3.522,6.583,3.644,6.199L0.69,5.41l0.02-0.162L0.305,5.146l5.443-1.497
		l5.988,0.91l-0.303,0.143l0.08,0.202L10.32,5.43z M10.887,4.682L5.748,3.893L1.256,5.146L6.76,6.583L9.309,5.39L8.984,5.369
		c-0.363-0.02-0.748-0.081-1.092-0.223c-0.121-0.02-0.344-0.061-0.484-0.121l-0.021-0.02C7.348,5.026,7.266,5.026,7.124,5.026
		c-0.283,0.04-0.789,0.04-1.052-0.081C5.829,4.763,5.87,4.661,6.193,4.621c0,0,0.061,0.02,0.202,0.04
		c0.162,0.021,0.384,0.041,0.688,0.021c0.121,0,0.362-0.061,0.483,0.021c0.103,0.061,0.306,0.08,0.427,0.101
		c0,0,0.121,0.061,0.282,0.102c0.183,0.04,0.426,0.101,0.729,0.121c0,0,0.627,0.04,0.972,0.061L10.887,4.682z"/>
</g>
</svg>
