<?xml version="1.0" encoding="utf-8"?>
<!-- Generator: Adobe Illustrator 16.0.3, SVG Export Plug-In . SVG Version: 6.00 Build 0)  -->
<!DOCTYPE svg PUBLIC "-//W3C//DTD SVG 1.1//EN" "http://www.w3.org/Graphics/SVG/1.1/DTD/svg11.dtd" [
	<!ENTITY st0 "enable-background:new    ;">
	<!ENTITY st1 "fill:#6BBE66;">
]>
<svg version="1.1" id="Layer_1" xmlns="http://www.w3.org/2000/svg" xmlns:xlink="http://www.w3.org/1999/xlink" x="0px" y="0px"
	 width="50px" height="50px" viewBox="0 0 50 50" style="enable-background:new 0 0 50 50;" xml:space="preserve">
<g id="nonconiferoustree_x5F_bd_24_">
	<g id="NonConiferousTree_x5F_FC_26_">
		<g id="Deleted_Symbol_2_26_">
			<path style="&st1;" d="M9.704102,40.385742c0,0.318359-0.260742,0.579102-0.57666,0.579102
				c-0.104004,0-0.205078-0.035156-0.296387-0.100586C8.756348,40.99707,8.625,41.095703,8.475098,41.133789
				c0.00293,0.036133,0.013184,0.137695,0.036133,0.424805v0.00293c0,0.039063-0.025879,0.067383-0.058105,0.087891
				c-0.032715,0.015625-0.071777,0.026367-0.11084,0.026367c-0.032227,0-0.067871-0.009766-0.098145-0.025391
				c-0.028809-0.020508-0.051758-0.048828-0.051758-0.087891c0,0,0-0.00293,0.015625-0.431641
				c-0.11377-0.035156-0.224609-0.100586-0.308594-0.195313c-0.095215,0.103516-0.239258,0.169922-0.39502,0.169922
				c-0.300293,0-0.561035-0.260742-0.561035-0.577148c0-0.198242,0.104004-0.37793,0.263672-0.475586
				C7.194336,40,7.191406,39.947266,7.191406,39.885742c0-0.254883,0.162598-0.456055,0.39502-0.53418
				c0-0.023438,0-0.041992,0-0.072266c0-0.15918,0.058594-0.298828,0.159668-0.401367
				c0.102051-0.100586,0.242188-0.15918,0.401367-0.15918c0.289551,0,0.523926,0.207031,0.556641,0.478516
				c0.025879,0,0.052246,0,0.064941,0c0.319336,0,0.580078,0.260742,0.580078,0.560547
				c0,0.041992-0.012695,0.072266-0.016113,0.111328C9.54834,39.951172,9.704102,40.147461,9.704102,40.385742z M9.509277,40.385742
				c0-0.163086-0.133301-0.333008-0.315918-0.365234c0,0,0,0-0.072266-0.020508l-0.025879-0.006836l0.005859-0.026367
				c0,0,0,0,0.016113-0.071289c0.02002-0.055664,0.037109-0.087891,0.037109-0.136719
				c0-0.195313-0.166992-0.364258-0.385254-0.364258c-0.032715,0-0.083984,0.00293-0.11084,0.016602h-0.00293H8.651367
				c0,0,0,0-0.104004,0.036133l-0.041992,0.014648l0.005859-0.044922c0,0,0,0,0.01709-0.103516v-0.033203
				c0-0.198242-0.163086-0.365234-0.380859-0.365234c-0.199219,0-0.365234,0.166992-0.365234,0.365234
				c0,0.036133,0,0.084961,0.013184,0.111328l0.00293,0.00293v0.005859c0,0,0,0,0.01709,0.086914l0.005859,0.033203H7.788086
				c0,0,0,0-0.084961,0c-0.183105,0.016602-0.315918,0.182617-0.315918,0.365234c0,0.071289,0,0.117188,0.032227,0.162109v0.004883
				c0,0,0,0,0.035645,0.071289l0.016113,0.029297L7.437988,40.15918c0,0,0,0-0.067871,0.020508
				C7.220215,40.244141,7.13916,40.37793,7.13916,40.52832c0,0.21875,0.166016,0.381836,0.365234,0.381836
				c0.132813,0,0.248047-0.064453,0.332031-0.182617c0.00293-0.006836,0.013672-0.026367,0.051758-0.104492l0.022949-0.041992
				l0.021973,0.039063c0,0,0,0,0.072266,0.108398l0.00293,0.00293c0.048828,0.133789,0.183105,0.233398,0.333008,0.233398
				c0.166992,0,0.315918-0.116211,0.349121-0.263672v-0.003906c0,0,0,0,0.035645-0.124023l0.013184-0.041992l0.033203,0.030273
				c0,0,0,0,0.087891,0.09082c0.064941,0.064453,0.166016,0.117188,0.26709,0.117188
				C9.343262,40.766602,9.509277,40.603516,9.509277,40.385742z"/>
		</g>
	</g>
</g>
<g id="nonconiferoustree_x5F_bd_25_" style="&st0;">
	<g id="NonConiferousTree_x5F_FC_27_">
		<g id="Deleted_Symbol_2_27_">
			<path style="&st1;" d="M12.373047,38.114258c0,0.318359-0.260742,0.579102-0.57666,0.579102
				c-0.104004,0-0.205078-0.035156-0.296387-0.100586c-0.074707,0.132813-0.206055,0.231445-0.355957,0.269531
				c0.00293,0.036133,0.013184,0.137695,0.036133,0.424805v0.00293c0,0.039063-0.025879,0.067383-0.058105,0.087891
				c-0.032715,0.015625-0.071777,0.026367-0.11084,0.026367c-0.032227,0-0.067871-0.009766-0.098145-0.025391
				c-0.028809-0.020508-0.051758-0.048828-0.051758-0.087891c0,0,0-0.00293,0.015625-0.431641
				c-0.11377-0.035156-0.224609-0.100586-0.308594-0.195313c-0.095215,0.103516-0.239258,0.169922-0.39502,0.169922
				c-0.300293,0-0.561035-0.260742-0.561035-0.577148c0-0.198242,0.104004-0.37793,0.263672-0.475586
				c-0.012695-0.052734-0.015625-0.105469-0.015625-0.166992c0-0.254883,0.162598-0.456055,0.39502-0.53418
				c0-0.023438,0-0.041992,0-0.072266c0-0.15918,0.058594-0.298828,0.159668-0.401367
				c0.102051-0.100586,0.242188-0.15918,0.401367-0.15918c0.289551,0,0.523926,0.207031,0.556641,0.478516
				c0.025879,0,0.052246,0,0.064941,0c0.319336,0,0.580078,0.260742,0.580078,0.560547
				c0,0.041992-0.012695,0.072266-0.016113,0.111328C12.217285,37.679688,12.373047,37.875977,12.373047,38.114258z
				 M12.178223,38.114258c0-0.163086-0.133301-0.333008-0.315918-0.365234c0,0,0,0-0.072266-0.020508L11.76416,37.72168
				l0.005859-0.026367c0,0,0,0,0.016113-0.071289c0.02002-0.055664,0.037109-0.087891,0.037109-0.136719
				c0-0.195313-0.166992-0.364258-0.385254-0.364258c-0.032715,0-0.083984,0.00293-0.11084,0.016602h-0.00293h-0.003906
				c0,0,0,0-0.104004,0.036133l-0.041992,0.014648l0.005859-0.044922c0,0,0,0,0.01709-0.103516v-0.033203
				c0-0.198242-0.163086-0.365234-0.380859-0.365234c-0.199219,0-0.365234,0.166992-0.365234,0.365234
				c0,0.036133,0,0.084961,0.013184,0.111328l0.00293,0.00293v0.005859c0,0,0,0,0.01709,0.086914l0.005859,0.033203h-0.033203
				c0,0,0,0-0.084961,0c-0.183105,0.016602-0.315918,0.182617-0.315918,0.365234c0,0.071289,0,0.117188,0.032227,0.162109v0.004883
				c0,0,0,0,0.035645,0.071289l0.016113,0.029297l-0.033203,0.005859c0,0,0,0-0.067871,0.020508
				c-0.149902,0.064453-0.230957,0.198242-0.230957,0.348633c0,0.21875,0.166016,0.381836,0.365234,0.381836
				c0.132813,0,0.248047-0.064453,0.332031-0.182617c0.00293-0.006836,0.013672-0.026367,0.051758-0.104492l0.022949-0.041992
				l0.021973,0.039063c0,0,0,0,0.072266,0.108398l0.00293,0.00293c0.048828,0.133789,0.183105,0.233398,0.333008,0.233398
				c0.166992,0,0.315918-0.116211,0.349121-0.263672v-0.003906c0,0,0,0,0.035645-0.124023l0.013184-0.041992l0.033203,0.030273
				c0,0,0,0,0.087891,0.09082c0.064941,0.064453,0.166016,0.117188,0.26709,0.117188
				C12.012207,38.495117,12.178223,38.332031,12.178223,38.114258z"/>
		</g>
	</g>
</g>
<g id="nonconiferoustree_x5F_bd_26_" style="&st0;">
	<g id="NonConiferousTree_x5F_FC_28_">
		<g id="Deleted_Symbol_2_28_">
			<path style="&st1;" d="M7.949219,37.350586c0,0.318359-0.260742,0.579102-0.57666,0.579102
				c-0.104004,0-0.205078-0.035156-0.296387-0.100586c-0.074707,0.132813-0.206055,0.231445-0.355957,0.269531
				c0.00293,0.036133,0.013184,0.137695,0.036133,0.424805v0.00293c0,0.039063-0.025879,0.067383-0.058105,0.087891
				c-0.032715,0.015625-0.071777,0.026367-0.11084,0.026367c-0.032227,0-0.067871-0.009766-0.098145-0.025391
				C6.460449,38.594727,6.4375,38.566406,6.4375,38.527344c0,0,0-0.00293,0.015625-0.431641
				c-0.11377-0.035156-0.224609-0.100586-0.308594-0.195313c-0.095215,0.103516-0.239258,0.169922-0.39502,0.169922
				c-0.300293,0-0.561035-0.260742-0.561035-0.577148c0-0.198242,0.104004-0.37793,0.263672-0.475586
				c-0.012695-0.052734-0.015625-0.105469-0.015625-0.166992c0-0.254883,0.162598-0.456055,0.39502-0.53418
				c0-0.023438,0-0.041992,0-0.072266c0-0.15918,0.058594-0.298828,0.159668-0.401367
				c0.102051-0.100586,0.242188-0.15918,0.401367-0.15918c0.289551,0,0.523926,0.207031,0.556641,0.478516
				c0.025879,0,0.052246,0,0.064941,0c0.319336,0,0.580078,0.260742,0.580078,0.560547
				c0,0.041992-0.012695,0.072266-0.016113,0.111328C7.793457,36.916016,7.949219,37.112305,7.949219,37.350586z
				 M7.754395,37.350586c0-0.163086-0.133301-0.333008-0.315918-0.365234c0,0,0,0-0.072266-0.020508l-0.025879-0.006836
				l0.005859-0.026367c0,0,0,0,0.016113-0.071289c0.02002-0.055664,0.037109-0.087891,0.037109-0.136719
				c0-0.195313-0.166992-0.364258-0.385254-0.364258c-0.032715,0-0.083984,0.00293-0.11084,0.016602h-0.00293H6.896484
				c0,0,0,0-0.104004,0.036133l-0.041992,0.014648l0.005859-0.044922c0,0,0,0,0.01709-0.103516v-0.033203
				c0-0.198242-0.163086-0.365234-0.380859-0.365234c-0.199219,0-0.365234,0.166992-0.365234,0.365234
				c0,0.036133,0,0.084961,0.013184,0.111328l0.00293,0.00293v0.005859c0,0,0,0,0.01709,0.086914l0.005859,0.033203H6.033203
				c0,0,0,0-0.084961,0c-0.183105,0.016602-0.315918,0.182617-0.315918,0.365234c0,0.071289,0,0.117188,0.032227,0.162109v0.004883
				c0,0,0,0,0.035645,0.071289l0.016113,0.029297l-0.033203,0.005859c0,0,0,0-0.067871,0.020508
				c-0.149902,0.064453-0.230957,0.198242-0.230957,0.348633c0,0.21875,0.166016,0.381836,0.365234,0.381836
				c0.132813,0,0.248047-0.064453,0.332031-0.182617c0.00293-0.006836,0.013672-0.026367,0.051758-0.104492l0.022949-0.041992
				l0.021973,0.039063c0,0,0,0,0.072266,0.108398l0.00293,0.00293c0.048828,0.133789,0.183105,0.233398,0.333008,0.233398
				c0.166992,0,0.315918-0.116211,0.349121-0.263672v-0.003906c0,0,0,0,0.035645-0.124023l0.013184-0.041992l0.033203,0.030273
				c0,0,0,0,0.087891,0.09082c0.064941,0.064453,0.166016,0.117188,0.26709,0.117188
				C7.588379,37.731445,7.754395,37.568359,7.754395,37.350586z"/>
		</g>
	</g>
</g>
<g id="nonconiferoustree_x5F_bd_19_" style="&st0;">
	<g id="NonConiferousTree_x5F_FC_21_">
		<g id="Deleted_Symbol_2_21_">
			<path style="&st1;" d="M27.884766,35.110352c0,0.318359-0.261719,0.579102-0.577148,0.579102
				c-0.104492,0-0.205078-0.035156-0.295898-0.100586c-0.075195,0.132813-0.207031,0.231445-0.356445,0.269531
				c0.00293,0.036133,0.012695,0.137695,0.036133,0.424805v0.00293c0,0.039063-0.025391,0.067383-0.058594,0.087891
				c-0.032227,0.015625-0.071289,0.026367-0.110352,0.026367c-0.032227,0-0.067383-0.009766-0.098633-0.025391
				c-0.02832-0.020508-0.050781-0.048828-0.050781-0.087891c0,0,0-0.00293,0.015625-0.431641
				c-0.114258-0.035156-0.224609-0.100586-0.308594-0.195313c-0.095703,0.103516-0.240234,0.169922-0.395508,0.169922
				c-0.300293,0-0.561035-0.260742-0.561035-0.577148c0-0.198242,0.104004-0.37793,0.263672-0.475586
				c-0.012695-0.052734-0.015625-0.105469-0.015625-0.166992c0-0.254883,0.162598-0.456055,0.39502-0.53418
				c0-0.023438,0-0.041992,0-0.072266c0-0.15918,0.058594-0.298828,0.15918-0.401367
				c0.102539-0.100586,0.242188-0.15918,0.402344-0.15918c0.289063,0,0.523438,0.207031,0.556641,0.478516
				c0.025391,0,0.051758,0,0.064453,0c0.319336,0,0.580078,0.260742,0.580078,0.560547
				c0,0.041992-0.012695,0.072266-0.015625,0.111328C27.728516,34.675781,27.884766,34.87207,27.884766,35.110352z
				 M27.689453,35.110352c0-0.163086-0.132813-0.333008-0.316406-0.365234c0,0,0,0-0.072266-0.020508l-0.025391-0.006836
				l0.005859-0.026367c0,0,0,0,0.015625-0.071289c0.020508-0.055664,0.037109-0.087891,0.037109-0.136719
				c0-0.195313-0.166016-0.364258-0.384766-0.364258c-0.033203,0-0.083984,0.00293-0.111328,0.016602h-0.001953h-0.003906
				c0,0,0,0-0.104492,0.036133l-0.041992,0.014648l0.005859-0.044922c0,0,0,0,0.017578-0.103516v-0.033203
				c0-0.198242-0.164063-0.365234-0.380859-0.365234c-0.199219,0-0.365234,0.166992-0.365234,0.365234
				c0,0.036133,0,0.084961,0.012695,0.111328l0.00293,0.00293V34.125c0,0,0,0,0.017578,0.086914l0.005859,0.033203H25.96875
				c0,0,0,0-0.085938,0c-0.182617,0.016602-0.31543,0.182617-0.31543,0.365234c0,0.071289,0,0.117188,0.032227,0.162109v0.004883
				c0,0,0,0,0.035156,0.071289l0.016602,0.029297l-0.033203,0.005859c0,0,0,0-0.067383,0.020508
				c-0.150391,0.064453-0.231445,0.198242-0.231445,0.348633c0,0.21875,0.166016,0.381836,0.365234,0.381836
				c0.132813,0,0.248047-0.064453,0.332031-0.182617c0.00293-0.006836,0.013672-0.026367,0.051758-0.104492l0.023438-0.041992
				l0.021484,0.039063c0,0,0,0,0.072266,0.108398l0.00293,0.00293c0.048828,0.133789,0.182617,0.233398,0.333008,0.233398
				c0.166992,0,0.316406-0.116211,0.349609-0.263672v-0.003906c0,0,0,0,0.035156-0.124023l0.013672-0.041992l0.033203,0.030273
				c0,0,0,0,0.087891,0.09082c0.064453,0.064453,0.166016,0.117188,0.266602,0.117188
				C27.523438,35.491211,27.689453,35.328125,27.689453,35.110352z"/>
		</g>
	</g>
</g>
<g id="nonconiferoustree_x5F_bd_18_" style="&st0;">
	<g id="NonConiferousTree_x5F_FC_20_">
		<g id="Deleted_Symbol_2_20_">
			<path style="&st1;" d="M30.554688,32.838867c0,0.318359-0.261719,0.579102-0.577148,0.579102
				c-0.104492,0-0.205078-0.035156-0.295898-0.100586c-0.075195,0.132813-0.207031,0.231445-0.356445,0.269531
				c0.00293,0.036133,0.012695,0.137695,0.036133,0.424805v0.00293c0,0.039063-0.025391,0.067383-0.058594,0.087891
				c-0.032227,0.015625-0.071289,0.026367-0.110352,0.026367c-0.032227,0-0.067383-0.009766-0.098633-0.025391
				c-0.02832-0.020508-0.050781-0.048828-0.050781-0.087891c0,0,0-0.00293,0.015625-0.431641
				c-0.114258-0.035156-0.224609-0.100586-0.308594-0.195313c-0.095703,0.103516-0.240234,0.169922-0.395508,0.169922
				c-0.299805,0-0.561523-0.260742-0.561523-0.577148c0-0.198242,0.104492-0.37793,0.263672-0.475586
				c-0.011719-0.052734-0.015625-0.105469-0.015625-0.166992c0-0.254883,0.163086-0.456055,0.395508-0.53418
				c0-0.023438,0-0.041992,0-0.072266c0-0.15918,0.058594-0.298828,0.15918-0.401367
				c0.102539-0.100586,0.242188-0.15918,0.402344-0.15918c0.289063,0,0.523438,0.207031,0.556641,0.478516
				c0.025391,0,0.051758,0,0.064453,0c0.319336,0,0.580078,0.260742,0.580078,0.560547
				c0,0.041992-0.012695,0.072266-0.015625,0.111328C30.398438,32.404297,30.554688,32.600586,30.554688,32.838867z
				 M30.359375,32.838867c0-0.163086-0.132813-0.333008-0.316406-0.365234c0,0,0,0-0.072266-0.020508l-0.025391-0.006836
				l0.005859-0.026367c0,0,0,0,0.015625-0.071289c0.020508-0.055664,0.037109-0.087891,0.037109-0.136719
				c0-0.195313-0.166016-0.364258-0.384766-0.364258c-0.033203,0-0.083984,0.00293-0.111328,0.016602h-0.001953h-0.003906
				c0,0,0,0-0.104492,0.036133l-0.041992,0.014648l0.005859-0.044922c0,0,0,0,0.017578-0.103516v-0.033203
				c0-0.198242-0.164063-0.365234-0.380859-0.365234c-0.199219,0-0.365234,0.166992-0.365234,0.365234
				c0,0.036133,0,0.084961,0.012695,0.111328l0.00293,0.00293v0.005859c0,0,0,0,0.017578,0.086914l0.005859,0.033203h-0.033203
				c0,0,0,0-0.085938,0c-0.182617,0.016602-0.31543,0.182617-0.31543,0.365234c0,0.071289,0,0.117188,0.032227,0.162109v0.004883
				c0,0,0,0,0.035156,0.071289l0.016602,0.029297l-0.033203,0.005859c0,0,0,0-0.067383,0.020508
				c-0.150391,0.064453-0.231445,0.198242-0.231445,0.348633c0,0.21875,0.166016,0.381836,0.365234,0.381836
				c0.132813,0,0.248047-0.064453,0.332031-0.182617c0.00293-0.006836,0.013672-0.026367,0.051758-0.104492l0.023438-0.041992
				l0.021484,0.039063c0,0,0,0,0.072266,0.108398l0.00293,0.00293c0.048828,0.133789,0.182617,0.233398,0.333008,0.233398
				c0.166992,0,0.316406-0.116211,0.349609-0.263672v-0.003906c0,0,0,0,0.035156-0.124023l0.013672-0.041992l0.033203,0.030273
				c0,0,0,0,0.087891,0.09082c0.064453,0.064453,0.166016,0.117188,0.266602,0.117188
				C30.193359,33.219727,30.359375,33.056641,30.359375,32.838867z"/>
		</g>
	</g>
</g>
<g id="nonconiferoustree_x5F_bd_20_" style="&st0;">
	<g id="NonConiferousTree_x5F_FC_22_">
		<g id="Deleted_Symbol_2_22_">
			<path style="&st1;" d="M26.129883,32.075195c0,0.318359-0.260742,0.579102-0.577148,0.579102
				c-0.103516,0-0.20459-0.035156-0.295898-0.100586c-0.074707,0.132813-0.206055,0.231445-0.355957,0.269531
				c0.00293,0.036133,0.013184,0.137695,0.036133,0.424805v0.00293c0,0.039063-0.025879,0.067383-0.058105,0.087891
				c-0.032715,0.015625-0.071777,0.026367-0.11084,0.026367c-0.032227,0-0.067871-0.009766-0.098145-0.025391
				c-0.028809-0.020508-0.051758-0.048828-0.051758-0.087891c0,0,0-0.00293,0.015625-0.431641
				c-0.11377-0.035156-0.224609-0.100586-0.308594-0.195313c-0.095215,0.103516-0.239258,0.169922-0.39502,0.169922
				c-0.300293,0-0.561035-0.260742-0.561035-0.577148c0-0.198242,0.104004-0.37793,0.263672-0.475586
				c-0.012695-0.052734-0.015625-0.105469-0.015625-0.166992c0-0.254883,0.162598-0.456055,0.39502-0.53418
				c0-0.023438,0-0.041992,0-0.072266c0-0.15918,0.058594-0.298828,0.159668-0.401367
				c0.102051-0.100586,0.242188-0.15918,0.401367-0.15918c0.289551,0,0.523926,0.207031,0.556641,0.478516
				c0.025879,0,0.052246,0,0.064941,0c0.318848,0,0.580566,0.260742,0.580566,0.560547
				c0,0.041992-0.013672,0.072266-0.016602,0.111328C25.974609,31.640625,26.129883,31.836914,26.129883,32.075195z
				 M25.935547,32.075195c0-0.163086-0.133789-0.333008-0.316406-0.365234c0,0,0,0-0.072266-0.020508l-0.025391-0.006836
				l0.005859-0.026367c0,0,0,0,0.015625-0.071289c0.019531-0.055664,0.037109-0.087891,0.037109-0.136719
				c0-0.195313-0.166992-0.364258-0.385254-0.364258c-0.032715,0-0.083984,0.00293-0.11084,0.016602h-0.00293h-0.003906
				c0,0,0,0-0.104004,0.036133l-0.041992,0.014648l0.005859-0.044922c0,0,0,0,0.01709-0.103516v-0.033203
				c0-0.198242-0.163086-0.365234-0.380859-0.365234c-0.199219,0-0.365234,0.166992-0.365234,0.365234
				c0,0.036133,0,0.084961,0.013184,0.111328l0.00293,0.00293v0.005859c0,0,0,0,0.01709,0.086914l0.005859,0.033203h-0.033203
				c0,0,0,0-0.084961,0c-0.183105,0.016602-0.315918,0.182617-0.315918,0.365234c0,0.071289,0,0.117188,0.032227,0.162109v0.004883
				c0,0,0,0,0.035645,0.071289l0.016113,0.029297l-0.033203,0.005859c0,0,0,0-0.067871,0.020508
				c-0.149902,0.064453-0.230957,0.198242-0.230957,0.348633c0,0.21875,0.166016,0.381836,0.365234,0.381836
				c0.132813,0,0.248047-0.064453,0.332031-0.182617c0.00293-0.006836,0.013672-0.026367,0.051758-0.104492l0.022949-0.041992
				l0.021973,0.039063c0,0,0,0,0.072266,0.108398l0.00293,0.00293c0.048828,0.133789,0.183105,0.233398,0.333008,0.233398
				c0.166992,0,0.315918-0.116211,0.349121-0.263672v-0.003906c0,0,0,0,0.035645-0.124023l0.013184-0.041992l0.033203,0.030273
				c0,0,0,0,0.087891,0.09082c0.064941,0.064453,0.166016,0.117188,0.266602,0.117188
				C25.769531,32.456055,25.935547,32.292969,25.935547,32.075195z"/>
		</g>
	</g>
</g>
<g id="nonconiferoustree_x5F_bd_27_" style="&st0;">
	<g id="NonConiferousTree_x5F_FC_29_">
		<g id="Deleted_Symbol_2_29_">
			<path style="&st1;" d="M7.496094,26.428711c0,0.318359-0.260742,0.579102-0.57666,0.579102
				c-0.104004,0-0.205078-0.035156-0.296387-0.100586c-0.074707,0.132813-0.206055,0.231445-0.355957,0.269531
				c0.00293,0.036133,0.013184,0.137695,0.036133,0.424805v0.00293c0,0.039063-0.025879,0.067383-0.058105,0.087891
				c-0.032715,0.015625-0.071777,0.026367-0.11084,0.026367c-0.032227,0-0.067871-0.009766-0.098145-0.025391
				c-0.028809-0.020508-0.051758-0.048828-0.051758-0.087891c0,0,0-0.00293,0.015625-0.431641
				c-0.11377-0.035156-0.224609-0.100586-0.308594-0.195313c-0.095215,0.103516-0.239258,0.169922-0.39502,0.169922
				c-0.300293,0-0.561035-0.260742-0.561035-0.577148c0-0.198242,0.104004-0.37793,0.263672-0.475586
				c-0.012695-0.052734-0.015625-0.105469-0.015625-0.166992c0-0.254883,0.162598-0.456055,0.39502-0.53418
				c0-0.023438,0-0.041992,0-0.072266c0-0.15918,0.058594-0.298828,0.159668-0.401367
				c0.102051-0.100586,0.242188-0.15918,0.401367-0.15918c0.289551,0,0.523926,0.207031,0.556641,0.478516
				c0.025879,0,0.052246,0,0.064941,0c0.319336,0,0.580078,0.260742,0.580078,0.560547
				c0,0.041992-0.012695,0.072266-0.016113,0.111328C7.340332,25.994141,7.496094,26.19043,7.496094,26.428711z M7.30127,26.428711
				c0-0.163086-0.133301-0.333008-0.315918-0.365234c0,0,0,0-0.072266-0.020508l-0.025879-0.006836l0.005859-0.026367
				c0,0,0,0,0.016113-0.071289c0.02002-0.055664,0.037109-0.087891,0.037109-0.136719
				c0-0.195313-0.166992-0.364258-0.385254-0.364258c-0.032715,0-0.083984,0.00293-0.11084,0.016602h-0.00293H6.443359
				c0,0,0,0-0.104004,0.036133l-0.041992,0.014648l0.005859-0.044922c0,0,0,0,0.01709-0.103516v-0.033203
				c0-0.198242-0.163086-0.365234-0.380859-0.365234c-0.199219,0-0.365234,0.166992-0.365234,0.365234
				c0,0.036133,0,0.084961,0.013184,0.111328l0.00293,0.00293v0.005859c0,0,0,0,0.01709,0.086914l0.005859,0.033203H5.580078
				c0,0,0,0-0.084961,0c-0.183105,0.016602-0.315918,0.182617-0.315918,0.365234c0,0.071289,0,0.117188,0.032227,0.162109v0.004883
				c0,0,0,0,0.035645,0.071289l0.016113,0.029297L5.22998,26.202148c0,0,0,0-0.067871,0.020508
				c-0.149902,0.064453-0.230957,0.198242-0.230957,0.348633c0,0.21875,0.166016,0.381836,0.365234,0.381836
				c0.132813,0,0.248047-0.064453,0.332031-0.182617c0.00293-0.006836,0.013672-0.026367,0.051758-0.104492l0.022949-0.041992
				l0.021973,0.039063c0,0,0,0,0.072266,0.108398l0.00293,0.00293c0.048828,0.133789,0.183105,0.233398,0.333008,0.233398
				c0.166992,0,0.315918-0.116211,0.349121-0.263672v-0.003906c0,0,0,0,0.035645-0.124023l0.013184-0.041992l0.033203,0.030273
				c0,0,0,0,0.087891,0.09082c0.064941,0.064453,0.166016,0.117188,0.26709,0.117188
				C7.135254,26.80957,7.30127,26.646484,7.30127,26.428711z"/>
		</g>
	</g>
</g>
<g id="nonconiferoustree_x5F_bd_28_" style="&st0;">
	<g id="NonConiferousTree_x5F_FC_30_">
		<g id="Deleted_Symbol_2_30_">
			<path style="&st1;" d="M10.165039,24.157715c0,0.318359-0.260742,0.579102-0.57666,0.579102
				c-0.104004,0-0.205078-0.035156-0.296387-0.100586c-0.074707,0.132813-0.206055,0.231445-0.355957,0.269531
				c0.00293,0.036133,0.013184,0.137695,0.036133,0.424805v0.00293c0,0.039063-0.025879,0.067383-0.058105,0.087891
				c-0.032715,0.015625-0.071777,0.026367-0.11084,0.026367c-0.032227,0-0.067871-0.009766-0.098145-0.025391
				C8.67627,25.401855,8.65332,25.373535,8.65332,25.334473c0,0,0-0.00293,0.015625-0.431641
				c-0.11377-0.035156-0.224609-0.100586-0.308594-0.195313c-0.095215,0.103516-0.239258,0.169922-0.39502,0.169922
				c-0.300293,0-0.561035-0.260742-0.561035-0.577148c0-0.198242,0.104004-0.37793,0.263672-0.475586
				c-0.012695-0.052734-0.015625-0.105469-0.015625-0.166992c0-0.254883,0.162598-0.456055,0.39502-0.53418
				c0-0.023438,0-0.041992,0-0.072266c0-0.15918,0.058594-0.298828,0.159668-0.401367
				c0.102051-0.100586,0.242188-0.15918,0.401367-0.15918c0.289551,0,0.523926,0.207031,0.556641,0.478516
				c0.025879,0,0.052246,0,0.064941,0c0.319336,0,0.580078,0.260742,0.580078,0.560547
				c0,0.041992-0.012695,0.072266-0.016113,0.111328C10.009277,23.723145,10.165039,23.919434,10.165039,24.157715z
				 M9.970215,24.157715c0-0.163086-0.133301-0.333008-0.315918-0.365234c0,0,0,0-0.072266-0.020508l-0.025879-0.006836
				l0.005859-0.026367c0,0,0,0,0.016113-0.071289c0.02002-0.055664,0.037109-0.087891,0.037109-0.136719
				c0-0.195313-0.166992-0.364258-0.385254-0.364258c-0.032715,0-0.083984,0.00293-0.11084,0.016602h-0.00293H9.112305
				c0,0,0,0-0.104004,0.036133l-0.041992,0.014648l0.005859-0.044922c0,0,0,0,0.01709-0.103516v-0.033203
				c0-0.198242-0.163086-0.365234-0.380859-0.365234c-0.199219,0-0.365234,0.166992-0.365234,0.365234
				c0,0.036133,0,0.084961,0.013184,0.111328l0.00293,0.00293v0.005859c0,0,0,0,0.01709,0.086914l0.005859,0.033203H8.249023
				c0,0,0,0-0.084961,0c-0.183105,0.016602-0.315918,0.182617-0.315918,0.365234c0,0.071289,0,0.117188,0.032227,0.162109v0.004883
				c0,0,0,0,0.035645,0.071289l0.016113,0.029297l-0.033203,0.005859c0,0,0,0-0.067871,0.020508
				c-0.149902,0.064453-0.230957,0.198242-0.230957,0.348633c0,0.21875,0.166016,0.381836,0.365234,0.381836
				c0.132813,0,0.248047-0.064453,0.332031-0.182617c0.00293-0.006836,0.013672-0.026367,0.051758-0.104492l0.022949-0.041992
				l0.021973,0.039063c0,0,0,0,0.072266,0.108398l0.00293,0.00293c0.048828,0.133789,0.183105,0.233398,0.333008,0.233398
				c0.166992,0,0.315918-0.116211,0.349121-0.263672v-0.003906c0,0,0,0,0.035645-0.124023l0.013184-0.041992l0.033203,0.030273
				c0,0,0,0,0.087891,0.09082c0.064941,0.064453,0.166016,0.117188,0.26709,0.117188
				C9.804199,24.538574,9.970215,24.375488,9.970215,24.157715z"/>
		</g>
	</g>
</g>
<g id="nonconiferoustree_x5F_bd_29_" style="&st0;">
	<g id="NonConiferousTree_x5F_FC_31_">
		<g id="Deleted_Symbol_2_31_">
			<path style="&st1;" d="M5.741211,23.394043c0,0.318359-0.260742,0.579102-0.57666,0.579102
				c-0.104004,0-0.205078-0.035156-0.296387-0.100586c-0.074707,0.132813-0.206055,0.231445-0.355957,0.269531
				c0.00293,0.036133,0.013184,0.137695,0.036133,0.424805v0.00293c0,0.039063-0.025879,0.067383-0.058105,0.087891
				c-0.032715,0.015625-0.071777,0.026367-0.11084,0.026367c-0.032227,0-0.067871-0.009766-0.098145-0.025391
				c-0.028809-0.020508-0.051758-0.048828-0.051758-0.087891c0,0,0-0.00293,0.015625-0.431641
				c-0.11377-0.035156-0.224609-0.100586-0.308594-0.195313c-0.095215,0.103516-0.239258,0.169922-0.39502,0.169922
				c-0.300293,0-0.561035-0.260742-0.561035-0.577148c0-0.198242,0.104004-0.37793,0.263672-0.475586
				c-0.012695-0.052734-0.015625-0.105469-0.015625-0.166992c0-0.254883,0.162598-0.456055,0.39502-0.53418
				c0-0.023438,0-0.041992,0-0.072266c0-0.15918,0.058594-0.298828,0.159668-0.401367
				c0.102051-0.100586,0.242188-0.15918,0.401367-0.15918c0.289551,0,0.523926,0.207031,0.556641,0.478516
				c0.025879,0,0.052246,0,0.064941,0c0.319336,0,0.580078,0.260742,0.580078,0.560547
				c0,0.041992-0.012695,0.072266-0.016113,0.111328C5.585449,22.959473,5.741211,23.155762,5.741211,23.394043z
				 M5.546387,23.394043c0-0.163086-0.133301-0.333008-0.315918-0.365234c0,0,0,0-0.072266-0.020508l-0.025879-0.006836
				l0.005859-0.026367c0,0,0,0,0.016113-0.071289c0.02002-0.055664,0.037109-0.087891,0.037109-0.136719
				c0-0.195313-0.166992-0.364258-0.385254-0.364258c-0.032715,0-0.083984,0.00293-0.11084,0.016602h-0.00293H4.688477
				c0,0,0,0-0.104004,0.036133L4.54248,22.470215l0.005859-0.044922c0,0,0,0,0.01709-0.103516v-0.033203
				c0-0.198242-0.163086-0.365234-0.380859-0.365234c-0.199219,0-0.365234,0.166992-0.365234,0.365234
				c0,0.036133,0,0.084961,0.013184,0.111328l0.00293,0.00293v0.005859c0,0,0,0,0.01709,0.086914l0.005859,0.033203H3.825195
				c0,0,0,0-0.084961,0c-0.183105,0.016602-0.315918,0.182617-0.315918,0.365234c0,0.071289,0,0.117188,0.032227,0.162109v0.004883
				c0,0,0,0,0.035645,0.071289l0.016113,0.029297L3.475098,23.16748c0,0,0,0-0.067871,0.020508
				C3.257324,23.252441,3.17627,23.38623,3.17627,23.536621c0,0.21875,0.166016,0.381836,0.365234,0.381836
				c0.132813,0,0.248047-0.064453,0.332031-0.182617c0.00293-0.006836,0.013672-0.026367,0.051758-0.104492l0.022949-0.041992
				l0.021973,0.039063c0,0,0,0,0.072266,0.108398l0.00293,0.00293c0.048828,0.133789,0.183105,0.233398,0.333008,0.233398
				c0.166992,0,0.315918-0.116211,0.349121-0.263672v-0.003906c0,0,0,0,0.035645-0.124023l0.013184-0.041992l0.033203,0.030273
				c0,0,0,0,0.087891,0.09082c0.064941,0.064453,0.166016,0.117188,0.26709,0.117188
				C5.380371,23.774902,5.546387,23.611816,5.546387,23.394043z"/>
		</g>
	</g>
</g>
<g id="nonconiferoustree_x5F_bd_30_" style="&st0;">
	<g id="NonConiferousTree_x5F_FC_32_">
		<g id="Deleted_Symbol_2_32_">
			<path style="&st1;" d="M11.888672,16.019043c0,0.318359-0.260742,0.579102-0.57666,0.579102
				c-0.104004,0-0.205078-0.035156-0.296387-0.100586c-0.074707,0.132813-0.206055,0.231445-0.355957,0.269531
				c0.00293,0.036133,0.013184,0.137695,0.036133,0.424805v0.00293c0,0.039063-0.025879,0.067383-0.058105,0.087891
				c-0.032715,0.015625-0.071777,0.026367-0.11084,0.026367c-0.032227,0-0.067871-0.009766-0.098145-0.025391
				c-0.028809-0.020508-0.051758-0.048828-0.051758-0.087891c0,0,0-0.00293,0.015625-0.431641
				c-0.11377-0.035156-0.224609-0.100586-0.308594-0.195313c-0.095215,0.103516-0.239258,0.169922-0.39502,0.169922
				c-0.300293,0-0.561035-0.260742-0.561035-0.577148c0-0.198242,0.104004-0.37793,0.263672-0.475586
				c-0.012695-0.052734-0.015625-0.105469-0.015625-0.166992c0-0.254883,0.162598-0.456055,0.39502-0.53418
				c0-0.023438,0-0.041992,0-0.072266c0-0.15918,0.058594-0.298828,0.159668-0.401367
				c0.102051-0.100586,0.242188-0.15918,0.401367-0.15918c0.289551,0,0.523926,0.207031,0.556641,0.478516
				c0.025879,0,0.052246,0,0.064941,0c0.319336,0,0.580078,0.260742,0.580078,0.560547
				c0,0.041992-0.012695,0.072266-0.016113,0.111328C11.73291,15.584473,11.888672,15.780762,11.888672,16.019043z
				 M11.693848,16.019043c0-0.163086-0.133301-0.333008-0.315918-0.365234c0,0,0,0-0.072266-0.020508l-0.025879-0.006836
				l0.005859-0.026367c0,0,0,0,0.016113-0.071289c0.02002-0.055664,0.037109-0.087891,0.037109-0.136719
				c0-0.195313-0.166992-0.364258-0.385254-0.364258c-0.032715,0-0.083984,0.00293-0.11084,0.016602h-0.00293h-0.003906
				c0,0,0,0-0.104004,0.036133l-0.041992,0.014648l0.005859-0.044922c0,0,0,0,0.01709-0.103516v-0.033203
				c0-0.198242-0.163086-0.365234-0.380859-0.365234c-0.199219,0-0.365234,0.166992-0.365234,0.365234
				c0,0.036133,0,0.084961,0.013184,0.111328l0.00293,0.00293v0.005859c0,0,0,0,0.01709,0.086914l0.005859,0.033203H9.972656
				c0,0,0,0-0.084961,0c-0.183105,0.016602-0.315918,0.182617-0.315918,0.365234c0,0.071289,0,0.117188,0.032227,0.162109v0.004883
				c0,0,0,0,0.035645,0.071289l0.016113,0.029297L9.622559,15.79248c0,0,0,0-0.067871,0.020508
				C9.404785,15.877441,9.32373,16.01123,9.32373,16.161621c0,0.21875,0.166016,0.381836,0.365234,0.381836
				c0.132813,0,0.248047-0.064453,0.332031-0.182617c0.00293-0.006836,0.013672-0.026367,0.051758-0.104492l0.022949-0.041992
				l0.021973,0.039063c0,0,0,0,0.072266,0.108398l0.00293,0.00293c0.048828,0.133789,0.183105,0.233398,0.333008,0.233398
				c0.166992,0,0.315918-0.116211,0.349121-0.263672v-0.003906c0,0,0,0,0.035645-0.124023l0.013184-0.041992l0.033203,0.030273
				c0,0,0,0,0.087891,0.09082c0.064941,0.064453,0.166016,0.117188,0.26709,0.117188
				C11.527832,16.399902,11.693848,16.236816,11.693848,16.019043z"/>
		</g>
	</g>
</g>
<g id="nonconiferoustree_x5F_bd_31_" style="&st0;">
	<g id="NonConiferousTree_x5F_FC_33_">
		<g id="Deleted_Symbol_2_33_">
			<path style="&st1;" d="M14.557617,13.747559c0,0.318359-0.260742,0.579102-0.57666,0.579102
				c-0.104004,0-0.205078-0.035156-0.296387-0.100586c-0.074707,0.132813-0.206055,0.231445-0.355957,0.269531
				c0.00293,0.036133,0.013184,0.137695,0.036133,0.424805v0.00293c0,0.039063-0.025879,0.067383-0.058105,0.087891
				c-0.032715,0.015625-0.071777,0.026367-0.11084,0.026367c-0.032227,0-0.067871-0.009766-0.098145-0.025391
				c-0.028809-0.020508-0.051758-0.048828-0.051758-0.087891c0,0,0-0.00293,0.015625-0.431641
				c-0.11377-0.035156-0.224609-0.100586-0.308594-0.195313c-0.095215,0.103516-0.239258,0.169922-0.39502,0.169922
				c-0.300293,0-0.561035-0.260742-0.561035-0.577148c0-0.198242,0.104004-0.37793,0.263672-0.475586
				c-0.012695-0.052734-0.015625-0.105469-0.015625-0.166992c0-0.254883,0.162598-0.456055,0.39502-0.53418
				c0-0.023438,0-0.041992,0-0.072266c0-0.15918,0.058594-0.298828,0.159668-0.401367
				c0.102051-0.100586,0.242188-0.15918,0.401367-0.15918c0.289551,0,0.523926,0.207031,0.556641,0.478516
				c0.025879,0,0.052246,0,0.064941,0c0.319336,0,0.580078,0.260742,0.580078,0.560547
				c0,0.041992-0.012695,0.072266-0.016113,0.111328C14.401855,13.312988,14.557617,13.509277,14.557617,13.747559z
				 M14.362793,13.747559c0-0.163086-0.133301-0.333008-0.315918-0.365234c0,0,0,0-0.072266-0.020508L13.94873,13.35498
				l0.005859-0.026367c0,0,0,0,0.016113-0.071289c0.02002-0.055664,0.037109-0.087891,0.037109-0.136719
				c0-0.195313-0.166992-0.364258-0.385254-0.364258c-0.032715,0-0.083984,0.00293-0.11084,0.016602h-0.00293h-0.003906
				c0,0,0,0-0.104004,0.036133l-0.041992,0.014648l0.005859-0.044922c0,0,0,0,0.01709-0.103516V12.64209
				c0-0.198242-0.163086-0.365234-0.380859-0.365234c-0.199219,0-0.365234,0.166992-0.365234,0.365234
				c0,0.036133,0,0.084961,0.013184,0.111328l0.00293,0.00293v0.005859c0,0,0,0,0.01709,0.086914l0.005859,0.033203h-0.033203
				c0,0,0,0-0.084961,0c-0.183105,0.016602-0.315918,0.182617-0.315918,0.365234c0,0.071289,0,0.117188,0.032227,0.162109v0.004883
				c0,0,0,0,0.035645,0.071289l0.016113,0.029297l-0.033203,0.005859c0,0,0,0-0.067871,0.020508
				c-0.149902,0.064453-0.230957,0.198242-0.230957,0.348633c0,0.21875,0.166016,0.381836,0.365234,0.381836
				c0.132813,0,0.248047-0.064453,0.332031-0.182617c0.00293-0.006836,0.013672-0.026367,0.051758-0.104492l0.022949-0.041992
				l0.021973,0.039063c0,0,0,0,0.072266,0.108398l0.00293,0.00293c0.048828,0.133789,0.183105,0.233398,0.333008,0.233398
				c0.166992,0,0.315918-0.116211,0.349121-0.263672v-0.003906c0,0,0,0,0.035645-0.124023l0.013184-0.041992l0.033203,0.030273
				c0,0,0,0,0.087891,0.09082c0.064941,0.064453,0.166016,0.117188,0.26709,0.117188
				C14.196777,14.128418,14.362793,13.965332,14.362793,13.747559z"/>
		</g>
	</g>
</g>
<g id="nonconiferoustree_x5F_bd_32_" style="&st0;">
	<g id="NonConiferousTree_x5F_FC_34_">
		<g id="Deleted_Symbol_2_34_">
			<path style="&st1;" d="M10.133789,12.983887c0,0.318359-0.260742,0.579102-0.57666,0.579102
				c-0.104004,0-0.205078-0.035156-0.296387-0.100586c-0.074707,0.132813-0.206055,0.231445-0.355957,0.269531
				c0.00293,0.036133,0.013184,0.137695,0.036133,0.424805v0.00293c0,0.039063-0.025879,0.067383-0.058105,0.087891
				c-0.032715,0.015625-0.071777,0.026367-0.11084,0.026367c-0.032227,0-0.067871-0.009766-0.098145-0.025391
				C8.64502,14.228027,8.62207,14.199707,8.62207,14.160645c0,0,0-0.00293,0.015625-0.431641
				c-0.11377-0.035156-0.224609-0.100586-0.308594-0.195313c-0.095215,0.103516-0.239258,0.169922-0.39502,0.169922
				c-0.300293,0-0.561035-0.260742-0.561035-0.577148c0-0.198242,0.104004-0.37793,0.263672-0.475586
				c-0.012695-0.052734-0.015625-0.105469-0.015625-0.166992c0-0.254883,0.162598-0.456055,0.39502-0.53418
				c0-0.023438,0-0.041992,0-0.072266c0-0.15918,0.058594-0.298828,0.159668-0.401367
				c0.102051-0.100586,0.242188-0.15918,0.401367-0.15918c0.289551,0,0.523926,0.207031,0.556641,0.478516
				c0.025879,0,0.052246,0,0.064941,0c0.319336,0,0.580078,0.260742,0.580078,0.560547
				c0,0.041992-0.012695,0.072266-0.016113,0.111328C9.978027,12.549316,10.133789,12.745605,10.133789,12.983887z
				 M9.938965,12.983887c0-0.163086-0.133301-0.333008-0.315918-0.365234c0,0,0,0-0.072266-0.020508l-0.025879-0.006836
				l0.005859-0.026367c0,0,0,0,0.016113-0.071289c0.02002-0.055664,0.037109-0.087891,0.037109-0.136719
				c0-0.195313-0.166992-0.364258-0.385254-0.364258c-0.032715,0-0.083984,0.00293-0.11084,0.016602h-0.00293H9.081055
				c0,0,0,0-0.104004,0.036133l-0.041992,0.014648l0.005859-0.044922c0,0,0,0,0.01709-0.103516v-0.033203
				c0-0.198242-0.163086-0.365234-0.380859-0.365234c-0.199219,0-0.365234,0.166992-0.365234,0.365234
				c0,0.036133,0,0.084961,0.013184,0.111328l0.00293,0.00293v0.005859c0,0,0,0,0.01709,0.086914l0.005859,0.033203H8.217773
				c0,0,0,0-0.084961,0c-0.183105,0.016602-0.315918,0.182617-0.315918,0.365234c0,0.071289,0,0.117188,0.032227,0.162109v0.004883
				c0,0,0,0,0.035645,0.071289l0.016113,0.029297l-0.033203,0.005859c0,0,0,0-0.067871,0.020508
				c-0.149902,0.064453-0.230957,0.198242-0.230957,0.348633c0,0.21875,0.166016,0.381836,0.365234,0.381836
				c0.132813,0,0.248047-0.064453,0.332031-0.182617c0.00293-0.006836,0.013672-0.026367,0.051758-0.104492l0.022949-0.041992
				l0.021973,0.039063c0,0,0,0,0.072266,0.108398l0.00293,0.00293c0.048828,0.133789,0.183105,0.233398,0.333008,0.233398
				c0.166992,0,0.315918-0.116211,0.349121-0.263672V13.29541c0,0,0,0,0.035645-0.124023l0.013184-0.041992l0.033203,0.030273
				c0,0,0,0,0.087891,0.09082c0.064941,0.064453,0.166016,0.117188,0.26709,0.117188
				C9.772949,13.364746,9.938965,13.20166,9.938965,12.983887z"/>
		</g>
	</g>
</g>
<g id="nonconiferoustree_x5F_bd_5_" style="&st0;">
	<g id="NonConiferousTree_x5F_FC_7_">
		<g id="Deleted_Symbol_2_7_">
			<path style="&st1;" d="M27.173828,6.23584c0,0.318359-0.261719,0.579102-0.577148,0.579102
				c-0.104492,0-0.205078-0.035156-0.295898-0.100586c-0.075195,0.132813-0.207031,0.231445-0.356445,0.269531
				c0.00293,0.036133,0.012695,0.137695,0.036133,0.424805v0.00293c0,0.039063-0.025391,0.067383-0.058594,0.087891
				c-0.032227,0.015625-0.071289,0.026367-0.110352,0.026367c-0.032227,0-0.067383-0.009766-0.098633-0.025391
				c-0.02832-0.020508-0.050781-0.048828-0.050781-0.087891c0,0,0-0.00293,0.015625-0.431641
				c-0.114258-0.035156-0.225098-0.100586-0.309082-0.195313c-0.095215,0.103516-0.239258,0.169922-0.39502,0.169922
				c-0.300293,0-0.561035-0.260742-0.561035-0.577148c0-0.198242,0.104004-0.37793,0.263672-0.475586
				c-0.012695-0.052734-0.015625-0.105469-0.015625-0.166992c0-0.254883,0.162598-0.456055,0.39502-0.53418
				c0-0.023438,0-0.041992,0-0.072266c0-0.15918,0.058594-0.298828,0.159668-0.401367
				c0.102051-0.100586,0.242188-0.15918,0.401855-0.15918c0.289063,0,0.523438,0.207031,0.556641,0.478516
				c0.025391,0,0.051758,0,0.064453,0c0.319336,0,0.580078,0.260742,0.580078,0.560547
				c0,0.041992-0.012695,0.072266-0.015625,0.111328C27.017578,5.80127,27.173828,5.997559,27.173828,6.23584z M26.978516,6.23584
				c0-0.163086-0.132813-0.333008-0.316406-0.365234c0,0,0,0-0.072266-0.020508l-0.025391-0.006836l0.005859-0.026367
				c0,0,0,0,0.015625-0.071289c0.020508-0.055664,0.037109-0.087891,0.037109-0.136719
				c0-0.195313-0.166016-0.364258-0.384766-0.364258c-0.033203,0-0.083984,0.00293-0.111328,0.016602H26.125h-0.003906
				c0,0,0,0-0.104492,0.036133l-0.041992,0.014648l0.005859-0.044922c0,0,0,0,0.017578-0.103516V5.130371
				c0-0.198242-0.164063-0.365234-0.380859-0.365234c-0.199707,0-0.365723,0.166992-0.365723,0.365234
				c0,0.036133,0,0.084961,0.013184,0.111328l0.00293,0.00293v0.005859c0,0,0,0,0.01709,0.086914l0.005859,0.033203h-0.033203
				c0,0,0,0-0.084961,0c-0.183105,0.016602-0.315918,0.182617-0.315918,0.365234c0,0.071289,0,0.117188,0.032227,0.162109v0.004883
				c0,0,0,0,0.035645,0.071289l0.016113,0.029297l-0.033203,0.005859c0,0,0,0-0.067871,0.020508
				c-0.149902,0.064453-0.230957,0.198242-0.230957,0.348633c0,0.21875,0.166016,0.381836,0.365234,0.381836
				c0.132813,0,0.248047-0.064453,0.332031-0.182617c0.00293-0.006836,0.013672-0.026367,0.051758-0.104492l0.022949-0.041992
				l0.021973,0.039063c0,0,0,0,0.072266,0.108398l0.00293,0.00293c0.048828,0.133789,0.182617,0.233398,0.333008,0.233398
				c0.166992,0,0.316406-0.116211,0.349609-0.263672V6.547363c0,0,0,0,0.035156-0.124023l0.013672-0.041992l0.033203,0.030273
				c0,0,0,0,0.087891,0.09082c0.064453,0.064453,0.166016,0.117188,0.266602,0.117188
				C26.8125,6.616699,26.978516,6.453613,26.978516,6.23584z"/>
		</g>
	</g>
</g>
<g id="nonconiferoustree_x5F_bd_3_" style="&st0;">
	<g id="NonConiferousTree_x5F_FC_5_">
		<g id="Deleted_Symbol_2_5_">
			<path style="&st1;" d="M29.841797,3.964355c0,0.318359-0.261719,0.579102-0.577148,0.579102
				c-0.104492,0-0.205078-0.035156-0.295898-0.100586c-0.075195,0.132813-0.207031,0.231445-0.356445,0.269531
				c0.00293,0.036133,0.012695,0.137695,0.036133,0.424805v0.00293c0,0.039063-0.025391,0.067383-0.058594,0.087891
				c-0.032227,0.015625-0.071289,0.026367-0.110352,0.026367c-0.032227,0-0.067383-0.009766-0.098633-0.025391
				c-0.02832-0.020508-0.050781-0.048828-0.050781-0.087891c0,0,0-0.00293,0.015625-0.431641
				c-0.114258-0.035156-0.224609-0.100586-0.308594-0.195313c-0.095703,0.103516-0.240234,0.169922-0.395508,0.169922
				c-0.299805,0-0.561523-0.260742-0.561523-0.577148c0-0.198242,0.104492-0.37793,0.263672-0.475586
				c-0.011719-0.052734-0.015625-0.105469-0.015625-0.166992c0-0.254883,0.163086-0.456055,0.395508-0.53418
				c0-0.023438,0-0.041992,0-0.072266c0-0.15918,0.058594-0.298828,0.15918-0.401367
				c0.102539-0.100586,0.242188-0.15918,0.402344-0.15918c0.289063,0,0.523438,0.207031,0.556641,0.478516
				c0.025391,0,0.051758,0,0.064453,0c0.319336,0,0.580078,0.260742,0.580078,0.560547
				c0,0.041992-0.012695,0.072266-0.015625,0.111328C29.685547,3.529785,29.841797,3.726074,29.841797,3.964355z
				 M29.646484,3.964355c0-0.163086-0.132813-0.333008-0.316406-0.365234c0,0,0,0-0.072266-0.020508l-0.025391-0.006836
				l0.005859-0.026367c0,0,0,0,0.015625-0.071289c0.020508-0.055664,0.037109-0.087891,0.037109-0.136719
				c0-0.195313-0.166016-0.364258-0.384766-0.364258c-0.033203,0-0.083984,0.00293-0.111328,0.016602h-0.001953h-0.003906
				c0,0,0,0-0.104492,0.036133l-0.041992,0.014648l0.005859-0.044922c0,0,0,0,0.017578-0.103516V2.858887
				c0-0.198242-0.164063-0.365234-0.380859-0.365234c-0.199219,0-0.365234,0.166992-0.365234,0.365234
				c0,0.036133,0,0.084961,0.012695,0.111328l0.00293,0.00293v0.005859c0,0,0,0,0.017578,0.086914l0.005859,0.033203h-0.033203
				c0,0,0,0-0.085938,0c-0.182617,0.016602-0.31543,0.182617-0.31543,0.365234c0,0.071289,0,0.117188,0.032227,0.162109v0.004883
				c0,0,0,0,0.035156,0.071289l0.016602,0.029297l-0.033203,0.005859c0,0,0,0-0.067383,0.020508
				c-0.150391,0.064453-0.231445,0.198242-0.231445,0.348633c0,0.21875,0.166016,0.381836,0.365234,0.381836
				c0.132813,0,0.248047-0.064453,0.332031-0.182617c0.00293-0.006836,0.013672-0.026367,0.051758-0.104492l0.023438-0.041992
				l0.021484,0.039063c0,0,0,0,0.072266,0.108398l0.00293,0.00293c0.048828,0.133789,0.182617,0.233398,0.333008,0.233398
				c0.166992,0,0.316406-0.116211,0.349609-0.263672V4.275879c0,0,0,0,0.035156-0.124023l0.013672-0.041992l0.033203,0.030273
				c0,0,0,0,0.087891,0.09082c0.064453,0.064453,0.166016,0.117188,0.266602,0.117188
				C29.480469,4.345215,29.646484,4.182129,29.646484,3.964355z"/>
		</g>
	</g>
</g>
<g id="nonconiferoustree_x5F_bd_4_" style="&st0;">
	<g id="NonConiferousTree_x5F_FC_6_">
		<g id="Deleted_Symbol_2_6_">
			<path style="&st1;" d="M25.41748,3.200684c0,0.318359-0.260742,0.579102-0.57666,0.579102
				c-0.104004,0-0.205078-0.035156-0.296387-0.100586c-0.074707,0.132813-0.206055,0.231445-0.355957,0.269531
				c0.00293,0.036133,0.013184,0.137695,0.036133,0.424805v0.00293c0,0.039063-0.025879,0.067383-0.058105,0.087891
				c-0.032715,0.015625-0.071777,0.026367-0.11084,0.026367c-0.032227,0-0.067871-0.009766-0.098145-0.025391
				c-0.028809-0.020508-0.051758-0.048828-0.051758-0.087891c0,0,0-0.00293,0.015625-0.431641
				c-0.11377-0.035156-0.224609-0.100586-0.308594-0.195313c-0.095215,0.103516-0.239258,0.169922-0.39502,0.169922
				c-0.300293,0-0.561035-0.260742-0.561035-0.577148c0-0.198242,0.104004-0.37793,0.263672-0.475586
				c-0.012695-0.052734-0.015625-0.105469-0.015625-0.166992c0-0.254883,0.162598-0.456055,0.39502-0.53418
				c0-0.023438,0-0.041992,0-0.072266c0-0.15918,0.058594-0.298828,0.159668-0.401367
				c0.102051-0.100586,0.242188-0.15918,0.401367-0.15918c0.289551,0,0.523926,0.207031,0.556641,0.478516
				c0.025879,0,0.052246,0,0.064941,0c0.319336,0,0.580078,0.260742,0.580078,0.560547
				c0,0.041992-0.012695,0.072266-0.016113,0.111328C25.261719,2.766113,25.41748,2.962402,25.41748,3.200684z M25.222656,3.200684
				c0-0.163086-0.133301-0.333008-0.315918-0.365234c0,0,0,0-0.072266-0.020508l-0.025879-0.006836l0.005859-0.026367
				c0,0,0,0,0.016113-0.071289c0.02002-0.055664,0.037109-0.087891,0.037109-0.136719
				c0-0.195313-0.166992-0.364258-0.385254-0.364258c-0.032715,0-0.083984,0.00293-0.11084,0.016602h-0.00293h-0.003906
				c0,0,0,0-0.104004,0.036133L24.21875,2.276855l0.005859-0.044922c0,0,0,0,0.01709-0.103516V2.095215
				c0-0.198242-0.163086-0.365234-0.380859-0.365234c-0.199219,0-0.365234,0.166992-0.365234,0.365234
				c0,0.036133,0,0.084961,0.013184,0.111328l0.00293,0.00293v0.005859c0,0,0,0,0.01709,0.086914l0.005859,0.033203h-0.033203
				c0,0,0,0-0.084961,0c-0.183105,0.016602-0.315918,0.182617-0.315918,0.365234c0,0.071289,0,0.117188,0.032227,0.162109v0.004883
				c0,0,0,0,0.035645,0.071289l0.016113,0.029297l-0.033203,0.005859c0,0,0,0-0.067871,0.020508
				c-0.149902,0.064453-0.230957,0.198242-0.230957,0.348633c0,0.21875,0.166016,0.381836,0.365234,0.381836
				c0.132813,0,0.248047-0.064453,0.332031-0.182617c0.00293-0.006836,0.013672-0.026367,0.051758-0.104492l0.022949-0.041992
				l0.021973,0.039063c0,0,0,0,0.072266,0.108398l0.00293,0.00293c0.048828,0.133789,0.183105,0.233398,0.333008,0.233398
				c0.166992,0,0.315918-0.116211,0.349121-0.263672V3.512207c0,0,0,0,0.035645-0.124023l0.013184-0.041992l0.033203,0.030273
				c0,0,0,0,0.087891,0.09082c0.064941,0.064453,0.166016,0.117188,0.26709,0.117188
				C25.056641,3.581543,25.222656,3.418457,25.222656,3.200684z"/>
		</g>
	</g>
</g>
<g id="nonconiferoustree_x5F_bd_8_" style="&st0;">
	<g id="NonConiferousTree_x5F_FC_10_">
		<g id="Deleted_Symbol_2_10_">
			<path style="&st1;" d="M38.355469,14.282715c0,0.318359-0.261719,0.579102-0.577148,0.579102
				c-0.104492,0-0.205078-0.035156-0.295898-0.100586c-0.075195,0.132813-0.207031,0.231445-0.356445,0.269531
				c0.00293,0.036133,0.012695,0.137695,0.036133,0.424805v0.00293c0,0.039063-0.025391,0.067383-0.058594,0.087891
				c-0.032227,0.015625-0.071289,0.026367-0.110352,0.026367c-0.032227,0-0.067383-0.009766-0.098633-0.025391
				c-0.02832-0.020508-0.050781-0.048828-0.050781-0.087891c0,0,0-0.00293,0.015625-0.431641
				c-0.114258-0.035156-0.224609-0.100586-0.308594-0.195313c-0.095703,0.103516-0.240234,0.169922-0.395508,0.169922
				c-0.299805,0-0.561523-0.260742-0.561523-0.577148c0-0.198242,0.104492-0.37793,0.263672-0.475586
				c-0.011719-0.052734-0.015625-0.105469-0.015625-0.166992c0-0.254883,0.163086-0.456055,0.395508-0.53418
				c0-0.023438,0-0.041992,0-0.072266c0-0.15918,0.058594-0.298828,0.15918-0.401367
				c0.102539-0.100586,0.242188-0.15918,0.402344-0.15918c0.289063,0,0.523438,0.207031,0.556641,0.478516
				c0.025391,0,0.051758,0,0.064453,0C37.739258,13.094238,38,13.35498,38,13.654785
				c0,0.041992-0.012695,0.072266-0.015625,0.111328C38.199219,13.848145,38.355469,14.044434,38.355469,14.282715z
				 M38.160156,14.282715c0-0.163086-0.132813-0.333008-0.316406-0.365234c0,0,0,0-0.072266-0.020508l-0.025391-0.006836
				l0.005859-0.026367c0,0,0,0,0.015625-0.071289c0.020508-0.055664,0.037109-0.087891,0.037109-0.136719
				c0-0.195313-0.166016-0.364258-0.384766-0.364258c-0.033203,0-0.083984,0.00293-0.111328,0.016602h-0.001953h-0.003906
				c0,0,0,0-0.104492,0.036133l-0.041992,0.014648l0.005859-0.044922c0,0,0,0,0.017578-0.103516v-0.033203
				c0-0.198242-0.164063-0.365234-0.380859-0.365234c-0.199219,0-0.365234,0.166992-0.365234,0.365234
				c0,0.036133,0,0.084961,0.012695,0.111328l0.00293,0.00293v0.005859c0,0,0,0,0.017578,0.086914l0.005859,0.033203h-0.033203
				c0,0,0,0-0.085938,0c-0.182617,0.016602-0.31543,0.182617-0.31543,0.365234c0,0.071289,0,0.117188,0.032227,0.162109v0.004883
				c0,0,0,0,0.035156,0.071289l0.016602,0.029297l-0.033203,0.005859c0,0,0,0-0.067383,0.020508
				c-0.150391,0.064453-0.231445,0.198242-0.231445,0.348633c0,0.21875,0.166016,0.381836,0.365234,0.381836
				c0.132813,0,0.248047-0.064453,0.332031-0.182617c0.00293-0.006836,0.013672-0.026367,0.051758-0.104492l0.023438-0.041992
				l0.021484,0.039063c0,0,0,0,0.072266,0.108398l0.00293,0.00293c0.048828,0.133789,0.182617,0.233398,0.333008,0.233398
				c0.166992,0,0.316406-0.116211,0.349609-0.263672v-0.003906c0,0,0,0,0.035156-0.124023l0.013672-0.041992l0.033203,0.030273
				c0,0,0,0,0.087891,0.09082c0.064453,0.064453,0.166016,0.117188,0.266602,0.117188
				C37.994141,14.663574,38.160156,14.500488,38.160156,14.282715z"/>
		</g>
	</g>
</g>
<g id="nonconiferoustree_x5F_bd_7_" style="&st0;">
	<g id="NonConiferousTree_x5F_FC_9_">
		<g id="Deleted_Symbol_2_9_">
			<path style="&st1;" d="M41.025391,12.01123c0,0.318359-0.261719,0.579102-0.577148,0.579102
				c-0.104492,0-0.205078-0.035156-0.295898-0.100586c-0.075195,0.132813-0.207031,0.231445-0.356445,0.269531
				c0.00293,0.036133,0.012695,0.137695,0.036133,0.424805v0.00293c0,0.039063-0.025391,0.067383-0.058594,0.087891
				c-0.032227,0.015625-0.071289,0.026367-0.110352,0.026367c-0.032227,0-0.067383-0.009766-0.098633-0.025391
				c-0.02832-0.020508-0.050781-0.048828-0.050781-0.087891c0,0,0-0.00293,0.015625-0.431641
				c-0.114258-0.035156-0.224609-0.100586-0.308594-0.195313c-0.095703,0.103516-0.240234,0.169922-0.395508,0.169922
				c-0.299805,0-0.561523-0.260742-0.561523-0.577148c0-0.198242,0.104492-0.37793,0.263672-0.475586
				c-0.011719-0.052734-0.015625-0.105469-0.015625-0.166992c0-0.254883,0.163086-0.456055,0.395508-0.53418
				c0-0.023438,0-0.041992,0-0.072266c0-0.15918,0.058594-0.298828,0.15918-0.401367
				c0.102539-0.100586,0.242188-0.15918,0.402344-0.15918c0.289063,0,0.523438,0.207031,0.556641,0.478516
				c0.025391,0,0.051758,0,0.064453,0c0.319336,0,0.580078,0.260742,0.580078,0.560547
				c0,0.041992-0.012695,0.072266-0.015625,0.111328C40.869141,11.57666,41.025391,11.772949,41.025391,12.01123z
				 M40.830078,12.01123c0-0.163086-0.132813-0.333008-0.316406-0.365234c0,0,0,0-0.072266-0.020508l-0.025391-0.006836
				l0.005859-0.026367c0,0,0,0,0.015625-0.071289c0.020508-0.055664,0.037109-0.087891,0.037109-0.136719
				c0-0.195313-0.166016-0.364258-0.384766-0.364258c-0.033203,0-0.083984,0.00293-0.111328,0.016602h-0.001953h-0.003906
				c0,0,0,0-0.104492,0.036133l-0.041992,0.014648l0.005859-0.044922c0,0,0,0,0.017578-0.103516v-0.033203
				c0-0.198242-0.164063-0.365234-0.380859-0.365234c-0.199219,0-0.365234,0.166992-0.365234,0.365234
				c0,0.036133,0,0.084961,0.012695,0.111328l0.00293,0.00293v0.005859c0,0,0,0,0.017578,0.086914l0.005859,0.033203h-0.033203
				c0,0,0,0-0.085938,0c-0.182617,0.016602-0.31543,0.182617-0.31543,0.365234c0,0.071289,0,0.117188,0.032227,0.162109v0.004883
				c0,0,0,0,0.035156,0.071289l0.016602,0.029297l-0.033203,0.005859c0,0,0,0-0.067383,0.020508
				c-0.150391,0.064453-0.231445,0.198242-0.231445,0.348633c0,0.21875,0.166016,0.381836,0.365234,0.381836
				c0.132813,0,0.248047-0.064453,0.332031-0.182617c0.00293-0.006836,0.013672-0.026367,0.051758-0.104492l0.023438-0.041992
				l0.021484,0.039063c0,0,0,0,0.072266,0.108398l0.00293,0.00293c0.048828,0.133789,0.182617,0.233398,0.333008,0.233398
				c0.166992,0,0.316406-0.116211,0.349609-0.263672v-0.003906c0,0,0,0,0.035156-0.124023l0.013672-0.041992l0.033203,0.030273
				c0,0,0,0,0.087891,0.09082c0.064453,0.064453,0.166016,0.117188,0.266602,0.117188
				C40.664063,12.39209,40.830078,12.229004,40.830078,12.01123z"/>
		</g>
	</g>
</g>
<g id="nonconiferoustree_x5F_bd_6_" style="&st0;">
	<g id="NonConiferousTree_x5F_FC_8_">
		<g id="Deleted_Symbol_2_8_">
			<path style="&st1;" d="M36.599609,11.247559c0,0.318359-0.261719,0.579102-0.577148,0.579102
				c-0.104492,0-0.205078-0.035156-0.295898-0.100586c-0.075195,0.132813-0.207031,0.231445-0.356445,0.269531
				c0.00293,0.036133,0.012695,0.137695,0.036133,0.424805v0.00293c0,0.039063-0.025391,0.067383-0.058594,0.087891
				c-0.032227,0.015625-0.071289,0.026367-0.110352,0.026367c-0.032227,0-0.067383-0.009766-0.098633-0.025391
				c-0.02832-0.020508-0.050781-0.048828-0.050781-0.087891c0,0,0-0.00293,0.015625-0.431641
				c-0.114258-0.035156-0.224609-0.100586-0.308594-0.195313c-0.095703,0.103516-0.240234,0.169922-0.395508,0.169922
				c-0.299805,0-0.561523-0.260742-0.561523-0.577148c0-0.198242,0.104492-0.37793,0.263672-0.475586
				c-0.011719-0.052734-0.015625-0.105469-0.015625-0.166992c0-0.254883,0.163086-0.456055,0.395508-0.53418
				c0-0.023438,0-0.041992,0-0.072266c0-0.15918,0.058594-0.298828,0.15918-0.401367
				c0.102539-0.100586,0.242188-0.15918,0.402344-0.15918c0.289063,0,0.523438,0.207031,0.556641,0.478516
				c0.025391,0,0.051758,0,0.064453,0c0.319336,0,0.580078,0.260742,0.580078,0.560547
				c0,0.041992-0.012695,0.072266-0.015625,0.111328C36.443359,10.812988,36.599609,11.009277,36.599609,11.247559z
				 M36.404297,11.247559c0-0.163086-0.132813-0.333008-0.316406-0.365234c0,0,0,0-0.072266-0.020508l-0.025391-0.006836
				l0.005859-0.026367c0,0,0,0,0.015625-0.071289c0.020508-0.055664,0.037109-0.087891,0.037109-0.136719
				c0-0.195313-0.166016-0.364258-0.384766-0.364258c-0.033203,0-0.083984,0.00293-0.111328,0.016602h-0.001953h-0.003906
				c0,0,0,0-0.104492,0.036133l-0.041992,0.014648l0.005859-0.044922c0,0,0,0,0.017578-0.103516V10.14209
				c0-0.198242-0.164063-0.365234-0.380859-0.365234c-0.199219,0-0.365234,0.166992-0.365234,0.365234
				c0,0.036133,0,0.084961,0.012695,0.111328l0.00293,0.00293v0.005859c0,0,0,0,0.017578,0.086914l0.005859,0.033203h-0.033203
				c0,0,0,0-0.085938,0c-0.182617,0.016602-0.31543,0.182617-0.31543,0.365234c0,0.071289,0,0.117188,0.032227,0.162109v0.004883
				c0,0,0,0,0.035156,0.071289l0.016602,0.029297l-0.033203,0.005859c0,0,0,0-0.067383,0.020508
				c-0.150391,0.064453-0.231445,0.198242-0.231445,0.348633c0,0.21875,0.166016,0.381836,0.365234,0.381836
				c0.132813,0,0.248047-0.064453,0.332031-0.182617c0.00293-0.006836,0.013672-0.026367,0.051758-0.104492l0.023438-0.041992
				l0.021484,0.039063c0,0,0,0,0.072266,0.108398l0.00293,0.00293c0.048828,0.133789,0.182617,0.233398,0.333008,0.233398
				c0.166992,0,0.316406-0.116211,0.349609-0.263672v-0.003906c0,0,0,0,0.035156-0.124023l0.013672-0.041992l0.033203,0.030273
				c0,0,0,0,0.087891,0.09082c0.064453,0.064453,0.166016,0.117188,0.266602,0.117188
				C36.238281,11.628418,36.404297,11.465332,36.404297,11.247559z"/>
		</g>
	</g>
</g>
<g id="nonconiferoustree_x5F_bd_1_" style="&st0;">
	<g id="NonConiferousTree_x5F_FC_3_">
		<g id="Deleted_Symbol_2_3_">
			<path style="&st1;" d="M43.869141,5.897949c0,0.318359-0.261719,0.579102-0.577148,0.579102
				c-0.104492,0-0.205078-0.035156-0.295898-0.100586c-0.075195,0.132813-0.207031,0.231445-0.356445,0.269531
				c0.00293,0.036133,0.012695,0.137695,0.036133,0.424805v0.00293c0,0.039063-0.025391,0.067383-0.058594,0.087891
				c-0.032227,0.015625-0.071289,0.026367-0.110352,0.026367c-0.032227,0-0.067383-0.009766-0.098633-0.025391
				c-0.02832-0.020508-0.050781-0.048828-0.050781-0.087891c0,0,0-0.00293,0.015625-0.431641
				c-0.114258-0.035156-0.224609-0.100586-0.308594-0.195313c-0.095703,0.103516-0.240234,0.169922-0.395508,0.169922
				c-0.299805,0-0.561523-0.260742-0.561523-0.577148c0-0.198242,0.104492-0.37793,0.263672-0.475586
				c-0.011719-0.052734-0.015625-0.105469-0.015625-0.166992c0-0.254883,0.163086-0.456055,0.395508-0.53418
				c0-0.023438,0-0.041992,0-0.072266c0-0.15918,0.058594-0.298828,0.15918-0.401367
				c0.102539-0.100586,0.242188-0.15918,0.402344-0.15918c0.289063,0,0.523438,0.207031,0.556641,0.478516
				c0.025391,0,0.051758,0,0.064453,0c0.319336,0,0.580078,0.260742,0.580078,0.560547
				c0,0.041992-0.012695,0.072266-0.015625,0.111328C43.712891,5.463379,43.869141,5.659668,43.869141,5.897949z
				 M43.673828,5.897949c0-0.163086-0.132813-0.333008-0.316406-0.365234c0,0,0,0-0.072266-0.020508l-0.025391-0.006836
				l0.005859-0.026367c0,0,0,0,0.015625-0.071289c0.020508-0.055664,0.037109-0.087891,0.037109-0.136719
				c0-0.195313-0.166016-0.364258-0.384766-0.364258c-0.033203,0-0.083984,0.00293-0.111328,0.016602h-0.001953h-0.003906
				c0,0,0,0-0.104492,0.036133l-0.041992,0.014648l0.005859-0.044922c0,0,0,0,0.017578-0.103516V4.79248
				c0-0.198242-0.164063-0.365234-0.380859-0.365234c-0.199219,0-0.365234,0.166992-0.365234,0.365234
				c0,0.036133,0,0.084961,0.012695,0.111328l0.00293,0.00293v0.005859c0,0,0,0,0.017578,0.086914l0.005859,0.033203h-0.033203
				c0,0,0,0-0.085938,0c-0.182617,0.016602-0.31543,0.182617-0.31543,0.365234c0,0.071289,0,0.117188,0.032227,0.162109v0.004883
				c0,0,0,0,0.035156,0.071289l0.016602,0.029297l-0.033203,0.005859c0,0,0,0-0.067383,0.020508
				c-0.150391,0.064453-0.231445,0.198242-0.231445,0.348633c0,0.21875,0.166016,0.381836,0.365234,0.381836
				c0.132813,0,0.248047-0.064453,0.332031-0.182617c0.00293-0.006836,0.013672-0.026367,0.051758-0.104492l0.023438-0.041992
				l0.021484,0.039063c0,0,0,0,0.072266,0.108398l0.00293,0.00293c0.048828,0.133789,0.182617,0.233398,0.333008,0.233398
				c0.166992,0,0.316406-0.116211,0.349609-0.263672V6.209473c0,0,0,0,0.035156-0.124023l0.013672-0.041992L42.9375,6.07373
				c0,0,0,0,0.087891,0.09082c0.064453,0.064453,0.166016,0.117188,0.266602,0.117188
				C43.507813,6.278809,43.673828,6.115723,43.673828,5.897949z"/>
		</g>
	</g>
</g>
<g id="nonconiferoustree_x5F_bd" style="&st0;">
	<g id="NonConiferousTree_x5F_FC_2_">
		<g id="Deleted_Symbol_2_2_">
			<path style="&st1;" d="M46.539063,3.626465c0,0.318359-0.261719,0.579102-0.577148,0.579102
				c-0.104492,0-0.205078-0.035156-0.295898-0.100586c-0.075195,0.132813-0.207031,0.231445-0.356445,0.269531
				c0.00293,0.036133,0.012695,0.137695,0.036133,0.424805v0.00293c0,0.039063-0.025391,0.067383-0.058594,0.087891
				c-0.032227,0.015625-0.071289,0.026367-0.110352,0.026367c-0.032227,0-0.067383-0.009766-0.098633-0.025391
				c-0.02832-0.020508-0.050781-0.048828-0.050781-0.087891c0,0,0-0.00293,0.015625-0.431641
				c-0.114258-0.035156-0.224609-0.100586-0.308594-0.195313c-0.095703,0.103516-0.240234,0.169922-0.395508,0.169922
				c-0.299805,0-0.561523-0.260742-0.561523-0.577148c0-0.198242,0.104492-0.37793,0.263672-0.475586
				c-0.011719-0.052734-0.015625-0.105469-0.015625-0.166992c0-0.254883,0.163086-0.456055,0.395508-0.53418
				c0-0.023438,0-0.041992,0-0.072266c0-0.15918,0.058594-0.298828,0.15918-0.401367
				c0.102539-0.100586,0.242188-0.15918,0.402344-0.15918c0.289063,0,0.523438,0.207031,0.556641,0.478516
				c0.025391,0,0.051758,0,0.064453,0c0.319336,0,0.580078,0.260742,0.580078,0.560547
				c0,0.041992-0.012695,0.072266-0.015625,0.111328C46.382813,3.191895,46.539063,3.388184,46.539063,3.626465z M46.34375,3.626465
				c0-0.163086-0.132813-0.333008-0.316406-0.365234c0,0,0,0-0.072266-0.020508l-0.025391-0.006836l0.005859-0.026367
				c0,0,0,0,0.015625-0.071289c0.020508-0.055664,0.037109-0.087891,0.037109-0.136719
				c0-0.195313-0.166016-0.364258-0.384766-0.364258c-0.033203,0-0.083984,0.00293-0.111328,0.016602h-0.001953h-0.003906
				c0,0,0,0-0.104492,0.036133l-0.041992,0.014648l0.005859-0.044922c0,0,0,0,0.017578-0.103516V2.520996
				c0-0.198242-0.164063-0.365234-0.380859-0.365234c-0.199219,0-0.365234,0.166992-0.365234,0.365234
				c0,0.036133,0,0.084961,0.012695,0.111328l0.00293,0.00293v0.005859c0,0,0,0,0.017578,0.086914L44.65625,2.76123h-0.033203
				c0,0,0,0-0.085938,0c-0.182617,0.016602-0.31543,0.182617-0.31543,0.365234c0,0.071289,0,0.117188,0.032227,0.162109v0.004883
				c0,0,0,0,0.035156,0.071289l0.016602,0.029297l-0.033203,0.005859c0,0,0,0-0.067383,0.020508
				c-0.150391,0.064453-0.231445,0.198242-0.231445,0.348633c0,0.21875,0.166016,0.381836,0.365234,0.381836
				c0.132813,0,0.248047-0.064453,0.332031-0.182617c0.00293-0.006836,0.013672-0.026367,0.051758-0.104492l0.023438-0.041992
				l0.021484,0.039063c0,0,0,0,0.072266,0.108398l0.00293,0.00293c0.048828,0.133789,0.182617,0.233398,0.333008,0.233398
				c0.166992,0,0.316406-0.116211,0.349609-0.263672V3.937988c0,0,0,0,0.035156-0.124023l0.013672-0.041992l0.033203,0.030273
				c0,0,0,0,0.087891,0.09082c0.064453,0.064453,0.166016,0.117188,0.266602,0.117188
				C46.177734,4.007324,46.34375,3.844238,46.34375,3.626465z"/>
		</g>
	</g>
</g>
<g id="nonconiferoustree_x5F_bd_2_" style="&st0;">
	<g id="NonConiferousTree_x5F_FC_4_">
		<g id="Deleted_Symbol_2_4_">
			<path style="&st1;" d="M42.113281,2.862793c0,0.318359-0.261719,0.579102-0.577148,0.579102
				c-0.104492,0-0.205078-0.035156-0.295898-0.100586c-0.075195,0.132813-0.207031,0.231445-0.356445,0.269531
				c0.00293,0.036133,0.012695,0.137695,0.036133,0.424805v0.00293c0,0.039063-0.025391,0.067383-0.058594,0.087891
				c-0.032227,0.015625-0.071289,0.026367-0.110352,0.026367c-0.032227,0-0.067383-0.009766-0.098633-0.025391
				c-0.02832-0.020508-0.050781-0.048828-0.050781-0.087891c0,0,0-0.00293,0.015625-0.431641
				c-0.114258-0.035156-0.224609-0.100586-0.308594-0.195313c-0.095703,0.103516-0.240234,0.169922-0.395508,0.169922
				c-0.299805,0-0.561523-0.260742-0.561523-0.577148c0-0.198242,0.104492-0.37793,0.263672-0.475586
				c-0.011719-0.052734-0.015625-0.105469-0.015625-0.166992c0-0.254883,0.163086-0.456055,0.395508-0.53418
				c0-0.023438,0-0.041992,0-0.072266c0-0.15918,0.058594-0.298828,0.15918-0.401367
				c0.102539-0.100586,0.242188-0.15918,0.402344-0.15918c0.289063,0,0.523438,0.207031,0.556641,0.478516
				c0.025391,0,0.051758,0,0.064453,0c0.319336,0,0.580078,0.260742,0.580078,0.560547
				c0,0.041992-0.012695,0.072266-0.015625,0.111328C41.957031,2.428223,42.113281,2.624512,42.113281,2.862793z
				 M41.917969,2.862793c0-0.163086-0.132813-0.333008-0.316406-0.365234c0,0,0,0-0.072266-0.020508l-0.025391-0.006836
				l0.005859-0.026367c0,0,0,0,0.015625-0.071289C41.545898,2.316895,41.5625,2.284668,41.5625,2.23584
				c0-0.195313-0.166016-0.364258-0.384766-0.364258c-0.033203,0-0.083984,0.00293-0.111328,0.016602h-0.001953h-0.003906
				c0,0,0,0-0.104492,0.036133l-0.041992,0.014648l0.005859-0.044922c0,0,0,0,0.017578-0.103516V1.757324
				c0-0.198242-0.164063-0.365234-0.380859-0.365234c-0.199219,0-0.365234,0.166992-0.365234,0.365234
				c0,0.036133,0,0.084961,0.012695,0.111328l0.00293,0.00293v0.005859c0,0,0,0,0.017578,0.086914l0.005859,0.033203h-0.033203
				c0,0,0,0-0.085938,0c-0.182617,0.016602-0.31543,0.182617-0.31543,0.365234c0,0.071289,0,0.117188,0.032227,0.162109v0.004883
				c0,0,0,0,0.035156,0.071289l0.016602,0.029297L39.84668,2.63623c0,0,0,0-0.067383,0.020508
				c-0.150391,0.064453-0.231445,0.198242-0.231445,0.348633c0,0.21875,0.166016,0.381836,0.365234,0.381836
				c0.132813,0,0.248047-0.064453,0.332031-0.182617c0.00293-0.006836,0.013672-0.026367,0.051758-0.104492l0.023438-0.041992
				l0.021484,0.039063c0,0,0,0,0.072266,0.108398l0.00293,0.00293C40.46582,3.342285,40.599609,3.441895,40.75,3.441895
				c0.166992,0,0.316406-0.116211,0.349609-0.263672V3.174316c0,0,0,0,0.035156-0.124023l0.013672-0.041992l0.033203,0.030273
				c0,0,0,0,0.087891,0.09082c0.064453,0.064453,0.166016,0.117188,0.266602,0.117188
				C41.751953,3.243652,41.917969,3.080566,41.917969,2.862793z"/>
		</g>
	</g>
</g>
<g id="nonconiferoustree_x5F_bd_11_" style="&st0;">
	<g id="NonConiferousTree_x5F_FC_13_">
		<g id="Deleted_Symbol_2_13_">
			<path style="&st1;" d="M38.853516,24.160645c0,0.318359-0.261719,0.579102-0.577148,0.579102
				c-0.104492,0-0.205078-0.035156-0.295898-0.100586c-0.075195,0.132813-0.207031,0.231445-0.356445,0.269531
				c0.00293,0.036133,0.012695,0.137695,0.036133,0.424805v0.00293c0,0.039063-0.025391,0.067383-0.058594,0.087891
				c-0.032227,0.015625-0.071289,0.026367-0.110352,0.026367c-0.032227,0-0.067383-0.009766-0.098633-0.025391
				c-0.02832-0.020508-0.050781-0.048828-0.050781-0.087891c0,0,0-0.00293,0.015625-0.431641
				c-0.114258-0.035156-0.224609-0.100586-0.308594-0.195313c-0.095703,0.103516-0.240234,0.169922-0.395508,0.169922
				c-0.299805,0-0.561523-0.260742-0.561523-0.577148c0-0.198242,0.104492-0.37793,0.263672-0.475586
				c-0.011719-0.052734-0.015625-0.105469-0.015625-0.166992c0-0.254883,0.163086-0.456055,0.395508-0.53418
				c0-0.023438,0-0.041992,0-0.072266c0-0.15918,0.058594-0.298828,0.15918-0.401367
				c0.102539-0.100586,0.242188-0.15918,0.402344-0.15918c0.289063,0,0.523438,0.207031,0.556641,0.478516
				c0.025391,0,0.051758,0,0.064453,0c0.319336,0,0.580078,0.260742,0.580078,0.560547
				c0,0.041992-0.012695,0.072266-0.015625,0.111328C38.697266,23.726074,38.853516,23.922363,38.853516,24.160645z
				 M38.658203,24.160645c0-0.163086-0.132813-0.333008-0.316406-0.365234c0,0,0,0-0.072266-0.020508l-0.025391-0.006836
				L38.25,23.741699c0,0,0,0,0.015625-0.071289c0.020508-0.055664,0.037109-0.087891,0.037109-0.136719
				c0-0.195313-0.166016-0.364258-0.384766-0.364258c-0.033203,0-0.083984,0.00293-0.111328,0.016602h-0.001953h-0.003906
				c0,0,0,0-0.104492,0.036133l-0.041992,0.014648l0.005859-0.044922c0,0,0,0,0.017578-0.103516v-0.033203
				c0-0.198242-0.164063-0.365234-0.380859-0.365234c-0.199219,0-0.365234,0.166992-0.365234,0.365234
				c0,0.036133,0,0.084961,0.012695,0.111328l0.00293,0.00293v0.005859c0,0,0,0,0.017578,0.086914l0.005859,0.033203H36.9375
				c0,0,0,0-0.085938,0c-0.182617,0.016602-0.31543,0.182617-0.31543,0.365234c0,0.071289,0,0.117188,0.032227,0.162109v0.004883
				c0,0,0,0,0.035156,0.071289l0.016602,0.029297l-0.033203,0.005859c0,0,0,0-0.067383,0.020508
				c-0.150391,0.064453-0.231445,0.198242-0.231445,0.348633c0,0.21875,0.166016,0.381836,0.365234,0.381836
				c0.132813,0,0.248047-0.064453,0.332031-0.182617c0.00293-0.006836,0.013672-0.026367,0.051758-0.104492l0.023438-0.041992
				l0.021484,0.039063c0,0,0,0,0.072266,0.108398l0.00293,0.00293c0.048828,0.133789,0.182617,0.233398,0.333008,0.233398
				c0.166992,0,0.316406-0.116211,0.349609-0.263672v-0.003906c0,0,0,0,0.035156-0.124023l0.013672-0.041992l0.033203,0.030273
				c0,0,0,0,0.087891,0.09082c0.064453,0.064453,0.166016,0.117188,0.266602,0.117188
				C38.492188,24.541504,38.658203,24.378418,38.658203,24.160645z"/>
		</g>
	</g>
</g>
<g id="nonconiferoustree_x5F_bd_10_" style="&st0;">
	<g id="NonConiferousTree_x5F_FC_12_">
		<g id="Deleted_Symbol_2_12_">
			<path style="&st1;" d="M41.521484,21.88916c0,0.318359-0.261719,0.579102-0.577148,0.579102
				c-0.104492,0-0.205078-0.035156-0.295898-0.100586c-0.075195,0.132813-0.207031,0.231445-0.356445,0.269531
				c0.00293,0.036133,0.012695,0.137695,0.036133,0.424805v0.00293c0,0.039063-0.025391,0.067383-0.058594,0.087891
				c-0.032227,0.015625-0.071289,0.026367-0.110352,0.026367c-0.032227,0-0.067383-0.009766-0.098633-0.025391
				c-0.02832-0.020508-0.050781-0.048828-0.050781-0.087891c0,0,0-0.00293,0.015625-0.431641
				c-0.114258-0.035156-0.224609-0.100586-0.308594-0.195313c-0.095703,0.103516-0.240234,0.169922-0.395508,0.169922
				c-0.299805,0-0.561523-0.260742-0.561523-0.577148c0-0.198242,0.104492-0.37793,0.263672-0.475586
				c-0.011719-0.052734-0.015625-0.105469-0.015625-0.166992c0-0.254883,0.163086-0.456055,0.395508-0.53418
				c0-0.023438,0-0.041992,0-0.072266c0-0.15918,0.058594-0.298828,0.15918-0.401367
				c0.102539-0.100586,0.242188-0.15918,0.402344-0.15918c0.289063,0,0.523438,0.207031,0.556641,0.478516
				c0.025391,0,0.051758,0,0.064453,0c0.319336,0,0.580078,0.260742,0.580078,0.560547
				c0,0.041992-0.012695,0.072266-0.015625,0.111328C41.365234,21.45459,41.521484,21.650879,41.521484,21.88916z
				 M41.326172,21.88916c0-0.163086-0.132813-0.333008-0.316406-0.365234c0,0,0,0-0.072266-0.020508l-0.025391-0.006836
				l0.005859-0.026367c0,0,0,0,0.015625-0.071289c0.020508-0.055664,0.037109-0.087891,0.037109-0.136719
				c0-0.195313-0.166016-0.364258-0.384766-0.364258c-0.033203,0-0.083984,0.00293-0.111328,0.016602h-0.001953H40.46875
				c0,0,0,0-0.104492,0.036133l-0.041992,0.014648l0.005859-0.044922c0,0,0,0,0.017578-0.103516v-0.033203
				c0-0.198242-0.164063-0.365234-0.380859-0.365234c-0.199219,0-0.365234,0.166992-0.365234,0.365234
				c0,0.036133,0,0.084961,0.012695,0.111328l0.00293,0.00293v0.005859c0,0,0,0,0.017578,0.086914l0.005859,0.033203h-0.033203
				c0,0,0,0-0.085938,0c-0.182617,0.016602-0.31543,0.182617-0.31543,0.365234c0,0.071289,0,0.117188,0.032227,0.162109v0.004883
				c0,0,0,0,0.035156,0.071289l0.016602,0.029297l-0.033203,0.005859c0,0,0,0-0.067383,0.020508
				c-0.150391,0.064453-0.231445,0.198242-0.231445,0.348633c0,0.21875,0.166016,0.381836,0.365234,0.381836
				c0.132813,0,0.248047-0.064453,0.332031-0.182617c0.00293-0.006836,0.013672-0.026367,0.051758-0.104492l0.023438-0.041992
				L39.75,22.123535c0,0,0,0,0.072266,0.108398l0.00293,0.00293c0.048828,0.133789,0.182617,0.233398,0.333008,0.233398
				c0.166992,0,0.316406-0.116211,0.349609-0.263672v-0.003906c0,0,0,0,0.035156-0.124023l0.013672-0.041992l0.033203,0.030273
				c0,0,0,0,0.087891,0.09082c0.064453,0.064453,0.166016,0.117188,0.266602,0.117188
				C41.160156,22.27002,41.326172,22.106934,41.326172,21.88916z"/>
		</g>
	</g>
</g>
<g id="nonconiferoustree_x5F_bd_9_" style="&st0;">
	<g id="NonConiferousTree_x5F_FC_11_">
		<g id="Deleted_Symbol_2_11_">
			<path style="&st1;" d="M37.097656,21.125488c0,0.318359-0.261719,0.579102-0.577148,0.579102
				c-0.104492,0-0.205078-0.035156-0.295898-0.100586c-0.075195,0.132813-0.207031,0.231445-0.356445,0.269531
				c0.00293,0.036133,0.012695,0.137695,0.036133,0.424805v0.00293c0,0.039063-0.025391,0.067383-0.058594,0.087891
				c-0.032227,0.015625-0.071289,0.026367-0.110352,0.026367c-0.032227,0-0.067383-0.009766-0.098633-0.025391
				c-0.02832-0.020508-0.050781-0.048828-0.050781-0.087891c0,0,0-0.00293,0.015625-0.431641
				c-0.114258-0.035156-0.224609-0.100586-0.308594-0.195313c-0.095703,0.103516-0.240234,0.169922-0.395508,0.169922
				c-0.299805,0-0.561523-0.260742-0.561523-0.577148c0-0.198242,0.104492-0.37793,0.263672-0.475586
				c-0.011719-0.052734-0.015625-0.105469-0.015625-0.166992c0-0.254883,0.163086-0.456055,0.395508-0.53418
				c0-0.023438,0-0.041992,0-0.072266c0-0.15918,0.058594-0.298828,0.15918-0.401367
				c0.102539-0.100586,0.242188-0.15918,0.402344-0.15918c0.289063,0,0.523438,0.207031,0.556641,0.478516
				c0.025391,0,0.051758,0,0.064453,0c0.319336,0,0.580078,0.260742,0.580078,0.560547
				c0,0.041992-0.012695,0.072266-0.015625,0.111328C36.941406,20.690918,37.097656,20.887207,37.097656,21.125488z
				 M36.902344,21.125488c0-0.163086-0.132813-0.333008-0.316406-0.365234c0,0,0,0-0.072266-0.020508l-0.025391-0.006836
				l0.005859-0.026367c0,0,0,0,0.015625-0.071289c0.020508-0.055664,0.037109-0.087891,0.037109-0.136719
				c0-0.195313-0.166016-0.364258-0.384766-0.364258c-0.033203,0-0.083984,0.00293-0.111328,0.016602h-0.001953h-0.003906
				c0,0,0,0-0.104492,0.036133l-0.041992,0.014648l0.005859-0.044922c0,0,0,0,0.017578-0.103516V20.02002
				c0-0.198242-0.164063-0.365234-0.380859-0.365234c-0.199219,0-0.365234,0.166992-0.365234,0.365234
				c0,0.036133,0,0.084961,0.012695,0.111328l0.00293,0.00293v0.005859c0,0,0,0,0.017578,0.086914l0.005859,0.033203h-0.033203
				c0,0,0,0-0.085938,0c-0.182617,0.016602-0.31543,0.182617-0.31543,0.365234c0,0.071289,0,0.117188,0.032227,0.162109v0.004883
				c0,0,0,0,0.035156,0.071289l0.016602,0.029297l-0.033203,0.005859c0,0,0,0-0.067383,0.020508
				c-0.150391,0.064453-0.231445,0.198242-0.231445,0.348633c0,0.21875,0.166016,0.381836,0.365234,0.381836
				c0.132813,0,0.248047-0.064453,0.332031-0.182617c0.00293-0.006836,0.013672-0.026367,0.051758-0.104492l0.023438-0.041992
				l0.021484,0.039063c0,0,0,0,0.072266,0.108398l0.00293,0.00293c0.048828,0.133789,0.182617,0.233398,0.333008,0.233398
				c0.166992,0,0.316406-0.116211,0.349609-0.263672v-0.003906c0,0,0,0,0.035156-0.124023l0.013672-0.041992l0.033203,0.030273
				c0,0,0,0,0.087891,0.09082c0.064453,0.064453,0.166016,0.117188,0.266602,0.117188
				C36.736328,21.506348,36.902344,21.343262,36.902344,21.125488z"/>
		</g>
	</g>
</g>
<g id="nonconiferoustree_x5F_bd_14_" style="&st0;">
	<g id="NonConiferousTree_x5F_FC_16_">
		<g id="Deleted_Symbol_2_16_">
			<path style="&st1;" d="M44.121094,36.063477c0,0.318359-0.261719,0.579102-0.577148,0.579102
				c-0.104492,0-0.205078-0.035156-0.295898-0.100586c-0.075195,0.132813-0.207031,0.231445-0.356445,0.269531
				c0.00293,0.036133,0.012695,0.137695,0.036133,0.424805v0.00293c0,0.039063-0.025391,0.067383-0.058594,0.087891
				c-0.032227,0.015625-0.071289,0.026367-0.110352,0.026367c-0.032227,0-0.067383-0.009766-0.098633-0.025391
				c-0.02832-0.020508-0.050781-0.048828-0.050781-0.087891c0,0,0-0.00293,0.015625-0.431641
				c-0.114258-0.035156-0.224609-0.100586-0.308594-0.195313c-0.095703,0.103516-0.240234,0.169922-0.395508,0.169922
				c-0.299805,0-0.561523-0.260742-0.561523-0.577148c0-0.198242,0.104492-0.37793,0.263672-0.475586
				c-0.011719-0.052734-0.015625-0.105469-0.015625-0.166992c0-0.254883,0.163086-0.456055,0.395508-0.53418
				c0-0.023438,0-0.041992,0-0.072266c0-0.15918,0.058594-0.298828,0.15918-0.401367
				c0.102539-0.100586,0.242188-0.15918,0.402344-0.15918c0.289063,0,0.523438,0.207031,0.556641,0.478516
				c0.025391,0,0.051758,0,0.064453,0c0.319336,0,0.580078,0.260742,0.580078,0.560547
				c0,0.041992-0.012695,0.072266-0.015625,0.111328C43.964844,35.628906,44.121094,35.825195,44.121094,36.063477z
				 M43.925781,36.063477c0-0.163086-0.132813-0.333008-0.316406-0.365234c0,0,0,0-0.072266-0.020508l-0.025391-0.006836
				l0.005859-0.026367c0,0,0,0,0.015625-0.071289c0.020508-0.055664,0.037109-0.087891,0.037109-0.136719
				c0-0.195313-0.166016-0.364258-0.384766-0.364258c-0.033203,0-0.083984,0.00293-0.111328,0.016602h-0.001953h-0.003906
				c0,0,0,0-0.104492,0.036133l-0.041992,0.014648l0.005859-0.044922c0,0,0,0,0.017578-0.103516v-0.033203
				c0-0.198242-0.164063-0.365234-0.380859-0.365234c-0.199219,0-0.365234,0.166992-0.365234,0.365234
				c0,0.036133,0,0.084961,0.012695,0.111328l0.00293,0.00293v0.005859c0,0,0,0,0.017578,0.086914l0.005859,0.033203h-0.033203
				c0,0,0,0-0.085938,0c-0.182617,0.016602-0.31543,0.182617-0.31543,0.365234c0,0.071289,0,0.117188,0.032227,0.162109v0.004883
				c0,0,0,0,0.035156,0.071289l0.016602,0.029297l-0.033203,0.005859c0,0,0,0-0.067383,0.020508
				c-0.150391,0.064453-0.231445,0.198242-0.231445,0.348633c0,0.21875,0.166016,0.381836,0.365234,0.381836
				c0.132813,0,0.248047-0.064453,0.332031-0.182617c0.00293-0.006836,0.013672-0.026367,0.051758-0.104492l0.023438-0.041992
				l0.021484,0.039063c0,0,0,0,0.072266,0.108398l0.00293,0.00293c0.048828,0.133789,0.182617,0.233398,0.333008,0.233398
				c0.166992,0,0.316406-0.116211,0.349609-0.263672V36.375c0,0,0,0,0.035156-0.124023l0.013672-0.041992l0.033203,0.030273
				c0,0,0,0,0.087891,0.09082c0.064453,0.064453,0.166016,0.117188,0.266602,0.117188
				C43.759766,36.444336,43.925781,36.28125,43.925781,36.063477z"/>
		</g>
	</g>
</g>
<g id="nonconiferoustree_x5F_bd_13_" style="&st0;">
	<g id="NonConiferousTree_x5F_FC_15_">
		<g id="Deleted_Symbol_2_15_">
			<path style="&st1;" d="M46.789063,33.791992c0,0.318359-0.261719,0.579102-0.577148,0.579102
				c-0.104492,0-0.205078-0.035156-0.295898-0.100586c-0.075195,0.132813-0.207031,0.231445-0.356445,0.269531
				c0.00293,0.036133,0.012695,0.137695,0.036133,0.424805v0.00293c0,0.039063-0.025391,0.067383-0.058594,0.087891
				c-0.032227,0.015625-0.071289,0.026367-0.110352,0.026367c-0.032227,0-0.067383-0.009766-0.098633-0.025391
				c-0.02832-0.020508-0.050781-0.048828-0.050781-0.087891c0,0,0-0.00293,0.015625-0.431641
				c-0.114258-0.035156-0.224609-0.100586-0.308594-0.195313c-0.095703,0.103516-0.240234,0.169922-0.395508,0.169922
				c-0.299805,0-0.561523-0.260742-0.561523-0.577148c0-0.198242,0.104492-0.37793,0.263672-0.475586
				c-0.011719-0.052734-0.015625-0.105469-0.015625-0.166992c0-0.254883,0.163086-0.456055,0.395508-0.53418
				c0-0.023438,0-0.041992,0-0.072266c0-0.15918,0.058594-0.298828,0.15918-0.401367
				c0.102539-0.100586,0.242188-0.15918,0.402344-0.15918c0.289063,0,0.523438,0.207031,0.556641,0.478516
				c0.025391,0,0.051758,0,0.064453,0c0.319336,0,0.580078,0.260742,0.580078,0.560547
				c0,0.041992-0.012695,0.072266-0.015625,0.111328C46.632813,33.357422,46.789063,33.553711,46.789063,33.791992z
				 M46.59375,33.791992c0-0.163086-0.132813-0.333008-0.316406-0.365234c0,0,0,0-0.072266-0.020508l-0.025391-0.006836
				l0.005859-0.026367c0,0,0,0,0.015625-0.071289c0.020508-0.055664,0.037109-0.087891,0.037109-0.136719
				c0-0.195313-0.166016-0.364258-0.384766-0.364258c-0.033203,0-0.083984,0.00293-0.111328,0.016602h-0.001953h-0.003906
				c0,0,0,0-0.104492,0.036133l-0.041992,0.014648l0.005859-0.044922c0,0,0,0,0.017578-0.103516v-0.033203
				c0-0.198242-0.164063-0.365234-0.380859-0.365234c-0.199219,0-0.365234,0.166992-0.365234,0.365234
				c0,0.036133,0,0.084961,0.012695,0.111328l0.00293,0.00293v0.005859c0,0,0,0,0.017578,0.086914l0.005859,0.033203h-0.033203
				c0,0,0,0-0.085938,0c-0.182617,0.016602-0.31543,0.182617-0.31543,0.365234c0,0.071289,0,0.117188,0.032227,0.162109v0.004883
				c0,0,0,0,0.035156,0.071289l0.016602,0.029297l-0.033203,0.005859c0,0,0,0-0.067383,0.020508
				c-0.150391,0.064453-0.231445,0.198242-0.231445,0.348633c0,0.21875,0.166016,0.381836,0.365234,0.381836
				c0.132813,0,0.248047-0.064453,0.332031-0.182617c0.00293-0.006836,0.013672-0.026367,0.051758-0.104492l0.023438-0.041992
				l0.021484,0.039063c0,0,0,0,0.072266,0.108398l0.00293,0.00293c0.048828,0.133789,0.182617,0.233398,0.333008,0.233398
				c0.166992,0,0.316406-0.116211,0.349609-0.263672v-0.003906c0,0,0,0,0.035156-0.124023l0.013672-0.041992l0.033203,0.030273
				c0,0,0,0,0.087891,0.09082c0.064453,0.064453,0.166016,0.117188,0.266602,0.117188
				C46.427734,34.172852,46.59375,34.009766,46.59375,33.791992z"/>
		</g>
	</g>
</g>
<g id="nonconiferoustree_x5F_bd_12_" style="&st0;">
	<g id="NonConiferousTree_x5F_FC_14_">
		<g id="Deleted_Symbol_2_14_">
			<path style="&st1;" d="M42.365234,33.02832c0,0.318359-0.261719,0.579102-0.577148,0.579102
				c-0.104492,0-0.205078-0.035156-0.295898-0.100586c-0.075195,0.132813-0.207031,0.231445-0.356445,0.269531
				c0.00293,0.036133,0.012695,0.137695,0.036133,0.424805v0.00293c0,0.039063-0.025391,0.067383-0.058594,0.087891
				c-0.032227,0.015625-0.071289,0.026367-0.110352,0.026367c-0.032227,0-0.067383-0.009766-0.098633-0.025391
				c-0.02832-0.020508-0.050781-0.048828-0.050781-0.087891c0,0,0-0.00293,0.015625-0.431641
				c-0.114258-0.035156-0.224609-0.100586-0.308594-0.195313c-0.095703,0.103516-0.240234,0.169922-0.395508,0.169922
				c-0.299805,0-0.561523-0.260742-0.561523-0.577148c0-0.198242,0.104492-0.37793,0.263672-0.475586
				c-0.011719-0.052734-0.015625-0.105469-0.015625-0.166992c0-0.254883,0.163086-0.456055,0.395508-0.53418
				c0-0.023438,0-0.041992,0-0.072266c0-0.15918,0.058594-0.298828,0.15918-0.401367
				c0.102539-0.100586,0.242188-0.15918,0.402344-0.15918c0.289063,0,0.523438,0.207031,0.556641,0.478516
				c0.025391,0,0.051758,0,0.064453,0c0.319336,0,0.580078,0.260742,0.580078,0.560547
				c0,0.041992-0.012695,0.072266-0.015625,0.111328C42.208984,32.59375,42.365234,32.790039,42.365234,33.02832z
				 M42.169922,33.02832c0-0.163086-0.132813-0.333008-0.316406-0.365234c0,0,0,0-0.072266-0.020508l-0.025391-0.006836
				l0.005859-0.026367c0,0,0,0,0.015625-0.071289c0.020508-0.055664,0.037109-0.087891,0.037109-0.136719
				c0-0.195313-0.166016-0.364258-0.384766-0.364258c-0.033203,0-0.083984,0.00293-0.111328,0.016602h-0.001953H41.3125
				c0,0,0,0-0.104492,0.036133l-0.041992,0.014648l0.005859-0.044922c0,0,0,0,0.017578-0.103516v-0.033203
				c0-0.198242-0.164063-0.365234-0.380859-0.365234c-0.199219,0-0.365234,0.166992-0.365234,0.365234
				c0,0.036133,0,0.084961,0.012695,0.111328l0.00293,0.00293v0.005859c0,0,0,0,0.017578,0.086914l0.005859,0.033203h-0.033203
				c0,0,0,0-0.085938,0c-0.182617,0.016602-0.31543,0.182617-0.31543,0.365234c0,0.071289,0,0.117188,0.032227,0.162109v0.004883
				c0,0,0,0,0.035156,0.071289l0.016602,0.029297l-0.033203,0.005859c0,0,0,0-0.067383,0.020508
				c-0.150391,0.064453-0.231445,0.198242-0.231445,0.348633c0,0.21875,0.166016,0.381836,0.365234,0.381836
				c0.132813,0,0.248047-0.064453,0.332031-0.182617c0.00293-0.006836,0.013672-0.026367,0.051758-0.104492l0.023438-0.041992
				l0.021484,0.039063c0,0,0,0,0.072266,0.108398l0.00293,0.00293c0.048828,0.133789,0.182617,0.233398,0.333008,0.233398
				c0.166992,0,0.316406-0.116211,0.349609-0.263672v-0.003906c0,0,0,0,0.035156-0.124023l0.013672-0.041992l0.033203,0.030273
				c0,0,0,0,0.087891,0.09082c0.064453,0.064453,0.166016,0.117188,0.266602,0.117188
				C42.003906,33.40918,42.169922,33.246094,42.169922,33.02832z"/>
		</g>
	</g>
</g>
<g id="nonconiferoustree_x5F_bd_16_" style="&st0;">
	<g id="NonConiferousTree_x5F_FC_18_">
		<g id="Deleted_Symbol_2_18_">
			<path style="&st1;" d="M31.091797,46.665039c0,0.318359-0.261719,0.579102-0.577148,0.579102
				c-0.104492,0-0.205078-0.035156-0.295898-0.100586c-0.075195,0.132813-0.207031,0.231445-0.356445,0.269531
				c0.00293,0.036133,0.012695,0.137695,0.036133,0.424805v0.00293c0,0.039063-0.025391,0.067383-0.058594,0.087891
				c-0.032227,0.015625-0.071289,0.026367-0.110352,0.026367c-0.032227,0-0.067383-0.009766-0.098633-0.025391
				c-0.02832-0.020508-0.050781-0.048828-0.050781-0.087891c0,0,0-0.00293,0.015625-0.431641
				c-0.114258-0.035156-0.224609-0.100586-0.308594-0.195313c-0.095703,0.103516-0.240234,0.169922-0.395508,0.169922
				c-0.299805,0-0.561523-0.260742-0.561523-0.577148c0-0.198242,0.104492-0.37793,0.263672-0.475586
				c-0.011719-0.052734-0.015625-0.105469-0.015625-0.166992c0-0.254883,0.163086-0.456055,0.395508-0.53418
				c0-0.023438,0-0.041992,0-0.072266c0-0.15918,0.058594-0.298828,0.15918-0.401367
				c0.102539-0.100586,0.242188-0.15918,0.402344-0.15918c0.289063,0,0.523438,0.207031,0.556641,0.478516
				c0.025391,0,0.051758,0,0.064453,0c0.319336,0,0.580078,0.260742,0.580078,0.560547
				c0,0.041992-0.012695,0.072266-0.015625,0.111328C30.935547,46.230469,31.091797,46.426758,31.091797,46.665039z
				 M30.896484,46.665039c0-0.163086-0.132813-0.333008-0.316406-0.365234c0,0,0,0-0.072266-0.020508l-0.025391-0.006836
				l0.005859-0.026367c0,0,0,0,0.015625-0.071289c0.020508-0.055664,0.037109-0.087891,0.037109-0.136719
				c0-0.195313-0.166016-0.364258-0.384766-0.364258c-0.033203,0-0.083984,0.00293-0.111328,0.016602h-0.001953h-0.003906
				c0,0,0,0-0.104492,0.036133l-0.041992,0.014648l0.005859-0.044922c0,0,0,0,0.017578-0.103516V45.55957
				c0-0.198242-0.164063-0.365234-0.380859-0.365234c-0.199219,0-0.365234,0.166992-0.365234,0.365234
				c0,0.036133,0,0.084961,0.012695,0.111328l0.00293,0.00293v0.005859c0,0,0,0,0.017578,0.086914l0.005859,0.033203h-0.033203
				c0,0,0,0-0.085938,0c-0.182617,0.016602-0.31543,0.182617-0.31543,0.365234c0,0.071289,0,0.117188,0.032227,0.162109v0.004883
				c0,0,0,0,0.035156,0.071289l0.016602,0.029297l-0.033203,0.005859c0,0,0,0-0.067383,0.020508
				c-0.150391,0.064453-0.231445,0.198242-0.231445,0.348633c0,0.21875,0.166016,0.381836,0.365234,0.381836
				c0.132813,0,0.248047-0.064453,0.332031-0.182617c0.00293-0.006836,0.013672-0.026367,0.051758-0.104492l0.023438-0.041992
				l0.021484,0.039063c0,0,0,0,0.072266,0.108398l0.00293,0.00293c0.048828,0.133789,0.182617,0.233398,0.333008,0.233398
				c0.166992,0,0.316406-0.116211,0.349609-0.263672v-0.003906c0,0,0,0,0.035156-0.124023l0.013672-0.041992l0.033203,0.030273
				c0,0,0,0,0.087891,0.09082c0.064453,0.064453,0.166016,0.117188,0.266602,0.117188
				C30.730469,47.045898,30.896484,46.882813,30.896484,46.665039z"/>
		</g>
	</g>
</g>
<g id="nonconiferoustree_x5F_bd_15_" style="&st0;">
	<g id="NonConiferousTree_x5F_FC_17_">
		<g id="Deleted_Symbol_2_17_">
			<path style="&st1;" d="M33.759766,44.393555c0,0.318359-0.261719,0.579102-0.577148,0.579102
				c-0.104492,0-0.205078-0.035156-0.295898-0.100586c-0.075195,0.132813-0.207031,0.231445-0.356445,0.269531
				c0.00293,0.036133,0.012695,0.137695,0.036133,0.424805v0.00293c0,0.039063-0.025391,0.067383-0.058594,0.087891
				c-0.032227,0.015625-0.071289,0.026367-0.110352,0.026367c-0.032227,0-0.067383-0.009766-0.098633-0.025391
				c-0.02832-0.020508-0.050781-0.048828-0.050781-0.087891c0,0,0-0.00293,0.015625-0.431641
				c-0.114258-0.035156-0.224609-0.100586-0.308594-0.195313c-0.095703,0.103516-0.240234,0.169922-0.395508,0.169922
				c-0.299805,0-0.561523-0.260742-0.561523-0.577148c0-0.198242,0.104492-0.37793,0.263672-0.475586
				c-0.011719-0.052734-0.015625-0.105469-0.015625-0.166992c0-0.254883,0.163086-0.456055,0.395508-0.53418
				c0-0.023438,0-0.041992,0-0.072266c0-0.15918,0.058594-0.298828,0.15918-0.401367
				c0.102539-0.100586,0.242188-0.15918,0.402344-0.15918c0.289063,0,0.523438,0.207031,0.556641,0.478516
				c0.025391,0,0.051758,0,0.064453,0c0.319336,0,0.580078,0.260742,0.580078,0.560547
				c0,0.041992-0.012695,0.072266-0.015625,0.111328C33.603516,43.958984,33.759766,44.155273,33.759766,44.393555z
				 M33.564453,44.393555c0-0.163086-0.132813-0.333008-0.316406-0.365234c0,0,0,0-0.072266-0.020508l-0.025391-0.006836
				l0.005859-0.026367c0,0,0,0,0.015625-0.071289c0.020508-0.055664,0.037109-0.087891,0.037109-0.136719
				c0-0.195313-0.166016-0.364258-0.384766-0.364258c-0.033203,0-0.083984,0.00293-0.111328,0.016602h-0.001953h-0.003906
				c0,0,0,0-0.104492,0.036133l-0.041992,0.014648l0.005859-0.044922c0,0,0,0,0.017578-0.103516v-0.033203
				c0-0.198242-0.164063-0.365234-0.380859-0.365234c-0.199219,0-0.365234,0.166992-0.365234,0.365234
				c0,0.036133,0,0.084961,0.012695,0.111328l0.00293,0.00293v0.005859c0,0,0,0,0.017578,0.086914l0.005859,0.033203H31.84375
				c0,0,0,0-0.085938,0c-0.182617,0.016602-0.31543,0.182617-0.31543,0.365234c0,0.071289,0,0.117188,0.032227,0.162109v0.004883
				c0,0,0,0,0.035156,0.071289l0.016602,0.029297l-0.033203,0.005859c0,0,0,0-0.067383,0.020508
				c-0.150391,0.064453-0.231445,0.198242-0.231445,0.348633c0,0.21875,0.166016,0.381836,0.365234,0.381836
				c0.132813,0,0.248047-0.064453,0.332031-0.182617c0.00293-0.006836,0.013672-0.026367,0.051758-0.104492l0.023438-0.041992
				l0.021484,0.039063c0,0,0,0,0.072266,0.108398l0.00293,0.00293c0.048828,0.133789,0.182617,0.233398,0.333008,0.233398
				c0.166992,0,0.316406-0.116211,0.349609-0.263672v-0.003906c0,0,0,0,0.035156-0.124023l0.013672-0.041992l0.033203,0.030273
				c0,0,0,0,0.087891,0.09082c0.064453,0.064453,0.166016,0.117188,0.266602,0.117188
				C33.398438,44.774414,33.564453,44.611328,33.564453,44.393555z"/>
		</g>
	</g>
</g>
<g id="nonconiferoustree_x5F_bd_17_" style="&st0;">
	<g id="NonConiferousTree_x5F_FC_19_">
		<g id="Deleted_Symbol_2_19_">
			<path style="&st1;" d="M29.335938,43.629883c0,0.318359-0.261719,0.579102-0.577148,0.579102
				c-0.104492,0-0.205078-0.035156-0.295898-0.100586c-0.075195,0.132813-0.207031,0.231445-0.356445,0.269531
				c0.00293,0.036133,0.012695,0.137695,0.036133,0.424805v0.00293c0,0.039063-0.025391,0.067383-0.058594,0.087891
				c-0.032227,0.015625-0.071289,0.026367-0.110352,0.026367c-0.032227,0-0.067383-0.009766-0.098633-0.025391
				c-0.02832-0.020508-0.050781-0.048828-0.050781-0.087891c0,0,0-0.00293,0.015625-0.431641
				c-0.114258-0.035156-0.224609-0.100586-0.308594-0.195313c-0.095703,0.103516-0.240234,0.169922-0.395508,0.169922
				c-0.299805,0-0.561523-0.260742-0.561523-0.577148c0-0.198242,0.104492-0.37793,0.263672-0.475586
				c-0.011719-0.052734-0.015625-0.105469-0.015625-0.166992c0-0.254883,0.163086-0.456055,0.395508-0.53418
				c0-0.023438,0-0.041992,0-0.072266c0-0.15918,0.058594-0.298828,0.15918-0.401367
				c0.102539-0.100586,0.242188-0.15918,0.402344-0.15918c0.289063,0,0.523438,0.207031,0.556641,0.478516
				c0.025391,0,0.051758,0,0.064453,0c0.319336,0,0.580078,0.260742,0.580078,0.560547
				c0,0.041992-0.012695,0.072266-0.015625,0.111328C29.179688,43.195313,29.335938,43.391602,29.335938,43.629883z
				 M29.140625,43.629883c0-0.163086-0.132813-0.333008-0.316406-0.365234c0,0,0,0-0.072266-0.020508l-0.025391-0.006836
				l0.005859-0.026367c0,0,0,0,0.015625-0.071289c0.020508-0.055664,0.037109-0.087891,0.037109-0.136719
				c0-0.195313-0.166016-0.364258-0.384766-0.364258c-0.033203,0-0.083984,0.00293-0.111328,0.016602h-0.001953h-0.003906
				c0,0,0,0-0.104492,0.036133l-0.041992,0.014648l0.005859-0.044922c0,0,0,0,0.017578-0.103516v-0.033203
				c0-0.198242-0.164063-0.365234-0.380859-0.365234c-0.199219,0-0.365234,0.166992-0.365234,0.365234
				c0,0.036133,0,0.084961,0.012695,0.111328l0.00293,0.00293v0.005859c0,0,0,0,0.017578,0.086914l0.005859,0.033203h-0.033203
				c0,0,0,0-0.085938,0c-0.182617,0.016602-0.31543,0.182617-0.31543,0.365234c0,0.071289,0,0.117188,0.032227,0.162109v0.004883
				c0,0,0,0,0.035156,0.071289l0.016602,0.029297l-0.033203,0.005859c0,0,0,0-0.067383,0.020508
				c-0.150391,0.064453-0.231445,0.198242-0.231445,0.348633c0,0.21875,0.166016,0.381836,0.365234,0.381836
				c0.132813,0,0.248047-0.064453,0.332031-0.182617c0.00293-0.006836,0.013672-0.026367,0.051758-0.104492l0.023438-0.041992
				l0.021484,0.039063c0,0,0,0,0.072266,0.108398l0.00293,0.00293c0.048828,0.133789,0.182617,0.233398,0.333008,0.233398
				c0.166992,0,0.316406-0.116211,0.349609-0.263672v-0.003906c0,0,0,0,0.035156-0.124023l0.013672-0.041992l0.033203,0.030273
				c0,0,0,0,0.087891,0.09082c0.064453,0.064453,0.166016,0.117188,0.266602,0.117188
				C28.974609,44.010742,29.140625,43.847656,29.140625,43.629883z"/>
		</g>
	</g>
</g>
<g id="nonconiferoustree_x5F_bd_21_" style="&st0;">
	<g id="NonConiferousTree_x5F_FC_23_">
		<g id="Deleted_Symbol_2_23_">
			<path style="&st1;" d="M7.314941,48.079102c0,0.318359-0.260742,0.579102-0.57666,0.579102
				c-0.104004,0-0.205078-0.035156-0.296387-0.100586c-0.074707,0.132813-0.206055,0.231445-0.355957,0.269531
				c0.00293,0.036133,0.013184,0.137695,0.036133,0.424805v0.00293c0,0.039063-0.025879,0.067383-0.058105,0.087891
				c-0.032715,0.015625-0.071777,0.026367-0.11084,0.026367c-0.032227,0-0.067871-0.009766-0.098145-0.025391
				c-0.028809-0.020508-0.051758-0.048828-0.051758-0.087891c0,0,0-0.00293,0.015625-0.431641
				c-0.11377-0.035156-0.224609-0.100586-0.308594-0.195313c-0.095215,0.103516-0.239258,0.169922-0.39502,0.169922
				c-0.300293,0-0.561035-0.260742-0.561035-0.577148c0-0.198242,0.104004-0.37793,0.263672-0.475586
				c-0.012695-0.052734-0.015625-0.105469-0.015625-0.166992c0-0.254883,0.162598-0.456055,0.39502-0.53418
				c0-0.023438,0-0.041992,0-0.072266c0-0.15918,0.058594-0.298828,0.159668-0.401367
				c0.102051-0.100586,0.242188-0.15918,0.401367-0.15918c0.289551,0,0.523926,0.207031,0.556641,0.478516
				c0.025879,0,0.052246,0,0.064941,0c0.319336,0,0.580078,0.260742,0.580078,0.560547
				c0,0.041992-0.012695,0.072266-0.016113,0.111328C7.15918,47.644531,7.314941,47.84082,7.314941,48.079102z M7.120117,48.079102
				c0-0.163086-0.133301-0.333008-0.315918-0.365234c0,0,0,0-0.072266-0.020508l-0.025879-0.006836l0.005859-0.026367
				c0,0,0,0,0.016113-0.071289c0.02002-0.055664,0.037109-0.087891,0.037109-0.136719
				c0-0.195313-0.166992-0.364258-0.385254-0.364258c-0.032715,0-0.083984,0.00293-0.11084,0.016602h-0.00293H6.262207
				c0,0,0,0-0.104004,0.036133l-0.041992,0.014648l0.005859-0.044922c0,0,0,0,0.01709-0.103516v-0.033203
				c0-0.198242-0.163086-0.365234-0.380859-0.365234c-0.199219,0-0.365234,0.166992-0.365234,0.365234
				c0,0.036133,0,0.084961,0.013184,0.111328l0.00293,0.00293v0.005859c0,0,0,0,0.01709,0.086914l0.005859,0.033203H5.398926
				c0,0,0,0-0.084961,0c-0.183105,0.016602-0.315918,0.182617-0.315918,0.365234c0,0.071289,0,0.117188,0.032227,0.162109v0.004883
				c0,0,0,0,0.035645,0.071289l0.016113,0.029297l-0.033203,0.005859c0,0,0,0-0.067871,0.020508
				C4.831055,47.9375,4.75,48.071289,4.75,48.22168c0,0.21875,0.166016,0.381836,0.365234,0.381836
				c0.132813,0,0.248047-0.064453,0.332031-0.182617c0.00293-0.006836,0.013672-0.026367,0.051758-0.104492l0.022949-0.041992
				l0.021973,0.039063c0,0,0,0,0.072266,0.108398l0.00293,0.00293c0.048828,0.133789,0.183105,0.233398,0.333008,0.233398
				c0.166992,0,0.315918-0.116211,0.349121-0.263672v-0.003906c0,0,0,0,0.035645-0.124023l0.013184-0.041992l0.033203,0.030273
				c0,0,0,0,0.087891,0.09082c0.064941,0.064453,0.166016,0.117188,0.26709,0.117188
				C6.954102,48.459961,7.120117,48.296875,7.120117,48.079102z"/>
		</g>
	</g>
</g>
<g id="nonconiferoustree_x5F_bd_23_" style="&st0;">
	<g id="NonConiferousTree_x5F_FC_25_">
		<g id="Deleted_Symbol_2_25_">
			<path style="&st1;" d="M9.983887,45.807617c0,0.318359-0.260742,0.579102-0.57666,0.579102
				c-0.104004,0-0.205078-0.035156-0.296387-0.100586c-0.074707,0.132813-0.206055,0.231445-0.355957,0.269531
				c0.00293,0.036133,0.013184,0.137695,0.036133,0.424805v0.00293c0,0.039063-0.025879,0.067383-0.058105,0.087891
				c-0.032715,0.015625-0.071777,0.026367-0.11084,0.026367c-0.032227,0-0.067871-0.009766-0.098145-0.025391
				c-0.028809-0.020508-0.051758-0.048828-0.051758-0.087891c0,0,0-0.00293,0.015625-0.431641
				c-0.11377-0.035156-0.224609-0.100586-0.308594-0.195313c-0.095215,0.103516-0.239258,0.169922-0.39502,0.169922
				c-0.300293,0-0.561035-0.260742-0.561035-0.577148c0-0.198242,0.104004-0.37793,0.263672-0.475586
				c-0.012695-0.052734-0.015625-0.105469-0.015625-0.166992c0-0.254883,0.162598-0.456055,0.39502-0.53418
				c0-0.023438,0-0.041992,0-0.072266c0-0.15918,0.058594-0.298828,0.159668-0.401367
				c0.102051-0.100586,0.242188-0.15918,0.401367-0.15918c0.289551,0,0.523926,0.207031,0.556641,0.478516
				c0.025879,0,0.052246,0,0.064941,0c0.319336,0,0.580078,0.260742,0.580078,0.560547
				c0,0.041992-0.012695,0.072266-0.016113,0.111328C9.828125,45.373047,9.983887,45.569336,9.983887,45.807617z
				 M9.789063,45.807617c0-0.163086-0.133301-0.333008-0.315918-0.365234c0,0,0,0-0.072266-0.020508L9.375,45.415039
				l0.005859-0.026367c0,0,0,0,0.016113-0.071289c0.02002-0.055664,0.037109-0.087891,0.037109-0.136719
				c0-0.195313-0.166992-0.364258-0.385254-0.364258c-0.032715,0-0.083984,0.00293-0.11084,0.016602h-0.00293H8.931152
				c0,0,0,0-0.104004,0.036133l-0.041992,0.014648l0.005859-0.044922c0,0,0,0,0.01709-0.103516v-0.033203
				c0-0.198242-0.163086-0.365234-0.380859-0.365234c-0.199219,0-0.365234,0.166992-0.365234,0.365234
				c0,0.036133,0,0.084961,0.013184,0.111328l0.00293,0.00293v0.005859c0,0,0,0,0.01709,0.086914l0.005859,0.033203H8.067871
				c0,0,0,0-0.084961,0C7.799805,44.958984,7.666992,45.125,7.666992,45.307617c0,0.071289,0,0.117188,0.032227,0.162109v0.004883
				c0,0,0,0,0.035645,0.071289l0.016113,0.029297l-0.033203,0.005859c0,0,0,0-0.067871,0.020508
				C7.5,45.666016,7.418945,45.799805,7.418945,45.950195c0,0.21875,0.166016,0.381836,0.365234,0.381836
				c0.132813,0,0.248047-0.064453,0.332031-0.182617c0.00293-0.006836,0.013672-0.026367,0.051758-0.104492l0.022949-0.041992
				l0.021973,0.039063c0,0,0,0,0.072266,0.108398l0.00293,0.00293c0.048828,0.133789,0.183105,0.233398,0.333008,0.233398
				c0.166992,0,0.315918-0.116211,0.349121-0.263672v-0.003906c0,0,0,0,0.035645-0.124023l0.013184-0.041992l0.033203,0.030273
				c0,0,0,0,0.087891,0.09082c0.064941,0.064453,0.166016,0.117188,0.26709,0.117188
				C9.623047,46.188477,9.789063,46.025391,9.789063,45.807617z"/>
		</g>
	</g>
</g>
<g id="nonconiferoustree_x5F_bd_22_" style="&st0;">
	<g id="NonConiferousTree_x5F_FC_24_">
		<g id="Deleted_Symbol_2_24_">
			<path style="&st1;" d="M5.560059,45.043945c0,0.318359-0.260742,0.579102-0.57666,0.579102
				c-0.104004,0-0.205078-0.035156-0.296387-0.100586c-0.074707,0.132813-0.206055,0.231445-0.355957,0.269531
				c0.00293,0.036133,0.013184,0.137695,0.036133,0.424805v0.00293c0,0.039063-0.025879,0.067383-0.058105,0.087891
				c-0.032715,0.015625-0.071777,0.026367-0.11084,0.026367c-0.032227,0-0.067871-0.009766-0.098145-0.025391
				c-0.028809-0.020508-0.051758-0.048828-0.051758-0.087891c0,0,0-0.00293,0.015625-0.431641
				c-0.11377-0.035156-0.224609-0.100586-0.308594-0.195313c-0.095215,0.103516-0.239258,0.169922-0.39502,0.169922
				c-0.300293,0-0.561035-0.260742-0.561035-0.577148c0-0.198242,0.104004-0.37793,0.263672-0.475586
				c-0.012695-0.052734-0.015625-0.105469-0.015625-0.166992c0-0.254883,0.162598-0.456055,0.39502-0.53418
				c0-0.023438,0-0.041992,0-0.072266c0-0.15918,0.058594-0.298828,0.159668-0.401367
				c0.102051-0.100586,0.242188-0.15918,0.401367-0.15918c0.289551,0,0.523926,0.207031,0.556641,0.478516
				c0.025879,0,0.052246,0,0.064941,0c0.319336,0,0.580078,0.260742,0.580078,0.560547
				c0,0.041992-0.012695,0.072266-0.016113,0.111328C5.404297,44.609375,5.560059,44.805664,5.560059,45.043945z
				 M5.365234,45.043945c0-0.163086-0.133301-0.333008-0.315918-0.365234c0,0,0,0-0.072266-0.020508l-0.025879-0.006836
				L4.957031,44.625c0,0,0,0,0.016113-0.071289c0.02002-0.055664,0.037109-0.087891,0.037109-0.136719
				c0-0.195313-0.166992-0.364258-0.385254-0.364258c-0.032715,0-0.083984,0.00293-0.11084,0.016602H4.51123H4.507324
				c0,0,0,0-0.104004,0.036133l-0.041992,0.014648l0.005859-0.044922c0,0,0,0,0.01709-0.103516v-0.033203
				c0-0.198242-0.163086-0.365234-0.380859-0.365234c-0.199219,0-0.365234,0.166992-0.365234,0.365234
				c0,0.036133,0,0.084961,0.013184,0.111328l0.00293,0.00293v0.005859c0,0,0,0,0.01709,0.086914l0.005859,0.033203H3.644043
				c0,0,0,0-0.084961,0c-0.183105,0.016602-0.315918,0.182617-0.315918,0.365234c0,0.071289,0,0.117188,0.032227,0.162109v0.004883
				c0,0,0,0,0.035645,0.071289l0.016113,0.029297l-0.033203,0.005859c0,0,0,0-0.067871,0.020508
				c-0.149902,0.064453-0.230957,0.198242-0.230957,0.348633c0,0.21875,0.166016,0.381836,0.365234,0.381836
				c0.132813,0,0.248047-0.064453,0.332031-0.182617c0.00293-0.006836,0.013672-0.026367,0.051758-0.104492l0.022949-0.041992
				l0.021973,0.039063c0,0,0,0,0.072266,0.108398l0.00293,0.00293c0.048828,0.133789,0.183105,0.233398,0.333008,0.233398
				c0.166992,0,0.315918-0.116211,0.349121-0.263672v-0.003906c0,0,0,0,0.035645-0.124023l0.013184-0.041992l0.033203,0.030273
				c0,0,0,0,0.087891,0.09082c0.064941,0.064453,0.166016,0.117188,0.26709,0.117188
				C5.199219,45.424805,5.365234,45.261719,5.365234,45.043945z"/>
		</g>
	</g>
</g>
</svg>
