<?xml version="1.0" encoding="utf-8"?>
<!-- Generator: Adobe Illustrator 16.0.3, SVG Export Plug-In . SVG Version: 6.00 Build 0)  -->
<!DOCTYPE svg PUBLIC "-//W3C//DTD SVG 1.1//EN" "http://www.w3.org/Graphics/SVG/1.1/DTD/svg11.dtd" [
	<!ENTITY st0 "enable-background:new    ;">
	<!ENTITY st1 "fill:#6BBE66;">
]>
<svg version="1.1" id="Layer_1" xmlns="http://www.w3.org/2000/svg" xmlns:xlink="http://www.w3.org/1999/xlink" x="0px" y="0px"
	 width="50px" height="50px" viewBox="0 0 50 50" style="enable-background:new 0 0 50 50;" xml:space="preserve">
<g id="roughgrass_x5F_bd_23_">
	<path style="&st1;" d="M6.893555,40.69043l0.010254,0.056641l-0.041016,0.042969l-0.042969,0.021484
		c-0.030273,0.012695-0.062988,0.00293-0.083008-0.023438L6.581055,40.56543l-0.009766-0.057617l0.035645-0.042969
		l0.043457-0.022461c0.029785-0.013672,0.06543-0.00293,0.086426,0.022461L6.893555,40.69043z"/>
	<path style="&st1;" d="M8.036621,40.417969c0,0.003906,0,0.007813-0.003906,0.011719
		c-0.01123-0.015625-0.021973-0.025391-0.037109-0.040039c-0.047363-0.056641-0.133301-0.132813-0.133301-0.132813
		c-0.037109-0.123047,0.052734-0.328125,0.052734-0.328125c-0.014648-0.140625,0.010254-0.350586,0.010254-0.350586
		C8.269531,40.033203,8.036621,40.417969,8.036621,40.417969z"/>
	<path style="&st1;" d="M8.032715,40.428711c0.03418,0.041016,0.09375,0.05957,0.116211,0.173828L8.094727,40.625
		l-0.118652-0.010742C7.973145,40.546875,7.999512,40.496094,8.032715,40.428711z"/>
	<path style="&st1;" d="M9.089355,39.990234l-0.225098,0.224609c0,0-0.062012,0.052734-0.163086,0.290039L8.69043,40.621094
		c0,0-0.087891,0.045898-0.200684-0.021484c0,0,0.051758-0.145508,0.062988-0.292969c0,0,0.009766-0.522461,0.253418-0.609375
		c0,0,0.181152-0.091797,0.067871,0.046875c0,0-0.148926,0.199219-0.152832,0.438477
		C8.722168,40.181641,8.875,39.978516,9.089355,39.990234z"/>
	<path style="&st1;" d="M10.077148,40.507813l-0.009766,0.057617l-0.155762,0.22168
		c-0.02002,0.026367-0.052734,0.036133-0.083008,0.023438l-0.042969-0.020508L9.746582,40.74707l0.010254-0.056641
		l0.154785-0.226563c0.02002-0.025391,0.056641-0.036133,0.085449-0.022461l0.042969,0.022461L10.077148,40.507813z"/>
	<path style="&st1;" d="M7.390137,40.249023l0.105957,0.348633l-0.00293,0.06543l-0.042969,0.039063
		c-0.029785,0.012695-0.049805,0.017578-0.060059,0.017578c-0.032715,0.006836-0.064453-0.012695-0.075684-0.048828
		l-0.105957-0.342773v-0.06543l0.042969-0.040039l0.053223-0.020508C7.341309,40.186523,7.376953,40.209961,7.390137,40.249023z"/>
	<path style="&st1;" d="M9.36377,40.202148l0.052734,0.020508l0.043457,0.040039v0.06543l-0.106445,0.342773
		C9.34375,40.707031,9.310547,40.726563,9.27832,40.71875c-0.010254,0-0.030273-0.004883-0.060059-0.017578l-0.042969-0.038086
		l-0.00293-0.066406l0.105957-0.348633C9.291016,40.209961,9.327637,40.186523,9.36377,40.202148z"/>
</g>
<g id="roughgrass_x5F_bd_25_" style="&st0;">
	<path style="&st1;" d="M9.5625,38.418945l0.010254,0.056641l-0.041016,0.042969L9.48877,38.540039
		c-0.030273,0.012695-0.062988,0.00293-0.083008-0.023438L9.25,38.293945l-0.009766-0.057617l0.035645-0.042969l0.043457-0.022461
		c0.029785-0.013672,0.06543-0.00293,0.086426,0.022461L9.5625,38.418945z"/>
	<path style="&st1;" d="M10.705566,38.146484c0,0.003906,0,0.007813-0.003906,0.011719
		c-0.01123-0.015625-0.021973-0.025391-0.037109-0.040039c-0.047363-0.056641-0.133301-0.132813-0.133301-0.132813
		c-0.037109-0.123047,0.052734-0.328125,0.052734-0.328125c-0.014648-0.140625,0.010254-0.350586,0.010254-0.350586
		C10.938477,37.761719,10.705566,38.146484,10.705566,38.146484z"/>
	<path style="&st1;" d="M10.70166,38.157227c0.03418,0.041016,0.09375,0.05957,0.116211,0.173828l-0.054199,0.022461
		l-0.118652-0.010742C10.64209,38.275391,10.668457,38.224609,10.70166,38.157227z"/>
	<path style="&st1;" d="M11.758301,37.71875l-0.225098,0.224609c0,0-0.062012,0.052734-0.163086,0.290039l-0.010742,0.116211
		c0,0-0.087891,0.045898-0.200684-0.021484c0,0,0.051758-0.145508,0.062988-0.292969c0,0,0.009766-0.522461,0.253418-0.609375
		c0,0,0.181152-0.091797,0.067871,0.046875c0,0-0.148926,0.199219-0.152832,0.438477
		C11.391113,37.910156,11.543945,37.707031,11.758301,37.71875z"/>
	<path style="&st1;" d="M12.746094,38.236328l-0.009766,0.057617l-0.155762,0.22168
		c-0.02002,0.026367-0.052734,0.036133-0.083008,0.023438l-0.042969-0.020508l-0.039063-0.042969l0.010254-0.056641
		l0.154785-0.226563c0.02002-0.025391,0.056641-0.036133,0.085449-0.022461l0.042969,0.022461L12.746094,38.236328z"/>
	<path style="&st1;" d="M10.059082,37.977539l0.105957,0.348633l-0.00293,0.06543l-0.042969,0.039063
		c-0.029785,0.012695-0.049805,0.017578-0.060059,0.017578c-0.032715,0.006836-0.064453-0.012695-0.075684-0.048828
		l-0.105957-0.342773v-0.06543l0.042969-0.040039l0.053223-0.020508C10.010254,37.915039,10.045898,37.938477,10.059082,37.977539z"
		/>
	<path style="&st1;" d="M12.032715,37.930664l0.052734,0.020508l0.043457,0.040039v0.06543l-0.106445,0.342773
		c-0.009766,0.036133-0.042969,0.055664-0.075195,0.047852c-0.010254,0-0.030273-0.004883-0.060059-0.017578l-0.042969-0.038086
		l-0.00293-0.066406l0.105957-0.348633C11.959961,37.938477,11.996582,37.915039,12.032715,37.930664z"/>
</g>
<g id="roughgrass_x5F_bd_24_" style="&st0;">
	<path style="&st1;" d="M5.138672,37.655273l0.010254,0.056641L5.10791,37.754883l-0.042969,0.021484
		c-0.030273,0.012695-0.062988,0.00293-0.083008-0.023438l-0.155762-0.222656l-0.009766-0.057617l0.035645-0.042969
		l0.043457-0.022461c0.029785-0.013672,0.06543-0.00293,0.086426,0.022461L5.138672,37.655273z"/>
	<path style="&st1;" d="M6.281738,37.382813c0,0.003906,0,0.007813-0.003906,0.011719
		c-0.01123-0.015625-0.021973-0.025391-0.037109-0.040039c-0.047363-0.056641-0.133301-0.132813-0.133301-0.132813
		c-0.037109-0.123047,0.052734-0.328125,0.052734-0.328125C6.145508,36.75293,6.17041,36.542969,6.17041,36.542969
		C6.514648,36.998047,6.281738,37.382813,6.281738,37.382813z"/>
	<path style="&st1;" d="M6.277832,37.393555c0.03418,0.041016,0.09375,0.05957,0.116211,0.173828l-0.054199,0.022461
		l-0.118652-0.010742C6.218262,37.511719,6.244629,37.460938,6.277832,37.393555z"/>
	<path style="&st1;" d="M7.334473,36.955078l-0.225098,0.224609c0,0-0.062012,0.052734-0.163086,0.290039l-0.010742,0.116211
		c0,0-0.087891,0.045898-0.200684-0.021484c0,0,0.051758-0.145508,0.062988-0.292969c0,0,0.009766-0.522461,0.253418-0.609375
		c0,0,0.181152-0.091797,0.067871,0.046875c0,0-0.148926,0.199219-0.152832,0.438477
		C6.967285,37.146484,7.120117,36.943359,7.334473,36.955078z"/>
	<path style="&st1;" d="M8.322266,37.472656L8.3125,37.530273l-0.155762,0.22168
		c-0.02002,0.026367-0.052734,0.036133-0.083008,0.023438l-0.042969-0.020508l-0.039063-0.042969l0.010254-0.056641
		l0.154785-0.226563c0.02002-0.025391,0.056641-0.036133,0.085449-0.022461l0.042969,0.022461L8.322266,37.472656z"/>
	<path style="&st1;" d="M5.635254,37.213867L5.741211,37.5625l-0.00293,0.06543l-0.042969,0.039063
		c-0.029785,0.012695-0.049805,0.017578-0.060059,0.017578c-0.032715,0.006836-0.064453-0.012695-0.075684-0.048828
		l-0.105957-0.342773v-0.06543L5.496582,37.1875l0.053223-0.020508C5.586426,37.151367,5.62207,37.174805,5.635254,37.213867z"/>
	<path style="&st1;" d="M7.608887,37.166992L7.661621,37.1875l0.043457,0.040039v0.06543l-0.106445,0.342773
		c-0.009766,0.036133-0.042969,0.055664-0.075195,0.047852c-0.010254,0-0.030273-0.004883-0.060059-0.017578L7.42041,37.62793
		l-0.00293-0.066406l0.105957-0.348633C7.536133,37.174805,7.572754,37.151367,7.608887,37.166992z"/>
</g>
<g id="roughgrass_x5F_bd_17_" style="&st0;">
	<path style="&st1;" d="M25.074219,35.415039l0.010254,0.056641l-0.041016,0.042969l-0.042969,0.021484
		c-0.030273,0.012695-0.062988,0.00293-0.083008-0.023438l-0.155762-0.222656l-0.009766-0.057617l0.035645-0.042969
		l0.043457-0.022461c0.029785-0.013672,0.06543-0.00293,0.086426,0.022461L25.074219,35.415039z"/>
	<path style="&st1;" d="M26.217773,35.142578c0,0.003906,0,0.007813-0.003906,0.011719
		c-0.011719-0.015625-0.022461-0.025391-0.037109-0.040039c-0.047852-0.056641-0.133789-0.132813-0.133789-0.132813
		c-0.037109-0.123047,0.052734-0.328125,0.052734-0.328125c-0.014648-0.140625,0.009766-0.350586,0.009766-0.350586
		C26.450195,34.757813,26.217773,35.142578,26.217773,35.142578z"/>
	<path style="&st1;" d="M26.213867,35.15332c0.03418,0.041016,0.09375,0.05957,0.116211,0.173828l-0.054688,0.022461
		l-0.119141-0.010742C26.15332,35.271484,26.180664,35.220703,26.213867,35.15332z"/>
	<path style="&st1;" d="M27.269531,34.714844l-0.224609,0.224609c0,0-0.061523,0.052734-0.163086,0.290039l-0.010742,0.116211
		c0,0-0.087891,0.045898-0.201172-0.021484c0,0,0.051758-0.145508,0.063477-0.292969c0,0,0.009766-0.522461,0.253906-0.609375
		c0,0,0.180664-0.091797,0.067383,0.046875c0,0-0.148438,0.199219-0.152344,0.438477
		C26.90332,34.90625,27.055664,34.703125,27.269531,34.714844z"/>
	<path style="&st1;" d="M28.257813,35.232422l-0.009766,0.057617l-0.15625,0.22168
		c-0.019531,0.026367-0.052734,0.036133-0.083008,0.023438l-0.042969-0.020508l-0.039063-0.042969l0.010742-0.056641
		l0.154297-0.226563c0.020508-0.025391,0.057617-0.036133,0.085938-0.022461l0.042969,0.022461L28.257813,35.232422z"/>
	<path style="&st1;" d="M25.571289,34.973633l0.105469,0.348633l-0.00293,0.06543l-0.042969,0.039063
		c-0.029297,0.012695-0.049805,0.017578-0.05957,0.017578c-0.033203,0.006836-0.06543-0.012695-0.076172-0.048828
		l-0.105957-0.342773v-0.06543l0.042969-0.040039l0.053223-0.020508C25.522461,34.911133,25.557617,34.93457,25.571289,34.973633z"
		/>
	<path style="&st1;" d="M27.544922,34.926758l0.052734,0.020508l0.042969,0.040039v0.06543l-0.106445,0.342773
		c-0.009766,0.036133-0.042969,0.055664-0.075195,0.047852c-0.010742,0-0.030273-0.004883-0.060547-0.017578l-0.042969-0.038086
		l-0.00293-0.066406l0.106445-0.348633C27.47168,34.93457,27.508789,34.911133,27.544922,34.926758z"/>
</g>
<g id="roughgrass_x5F_bd_16_" style="&st0;">
	<path style="&st1;" d="M27.743164,33.143555l0.010742,0.056641l-0.041016,0.042969l-0.042969,0.021484
		c-0.030273,0.012695-0.063477,0.00293-0.083008-0.023438l-0.15625-0.222656l-0.009766-0.057617l0.035156-0.042969L27.5,32.895508
		c0.029297-0.013672,0.06543-0.00293,0.086914,0.022461L27.743164,33.143555z"/>
	<path style="&st1;" d="M28.886719,32.871094c0,0.003906,0,0.007813-0.003906,0.011719
		c-0.011719-0.015625-0.022461-0.025391-0.037109-0.040039c-0.047852-0.056641-0.133789-0.132813-0.133789-0.132813
		c-0.037109-0.123047,0.052734-0.328125,0.052734-0.328125C28.75,32.241211,28.774414,32.03125,28.774414,32.03125
		C29.119141,32.486328,28.886719,32.871094,28.886719,32.871094z"/>
	<path style="&st1;" d="M28.882813,32.881836c0.03418,0.041016,0.09375,0.05957,0.116211,0.173828l-0.054688,0.022461
		l-0.119141-0.010742C28.822266,33,28.849609,32.949219,28.882813,32.881836z"/>
	<path style="&st1;" d="M29.938477,32.443359l-0.224609,0.224609c0,0-0.061523,0.052734-0.163086,0.290039l-0.010742,0.116211
		c0,0-0.087891,0.045898-0.201172-0.021484c0,0,0.051758-0.145508,0.063477-0.292969c0,0,0.009766-0.522461,0.253906-0.609375
		c0,0,0.180664-0.091797,0.067383,0.046875c0,0-0.148438,0.199219-0.152344,0.438477
		C29.572266,32.634766,29.724609,32.431641,29.938477,32.443359z"/>
	<path style="&st1;" d="M30.926758,32.960938l-0.009766,0.057617l-0.15625,0.22168
		c-0.019531,0.026367-0.052734,0.036133-0.083008,0.023438l-0.042969-0.020508l-0.039063-0.042969l0.010742-0.056641
		l0.154297-0.226563c0.020508-0.025391,0.057617-0.036133,0.085938-0.022461l0.042969,0.022461L30.926758,32.960938z"/>
	<path style="&st1;" d="M28.240234,32.702148l0.105469,0.348633l-0.00293,0.06543l-0.042969,0.039063
		c-0.029297,0.012695-0.049805,0.017578-0.05957,0.017578c-0.033203,0.006836-0.06543-0.012695-0.076172-0.048828
		l-0.106445-0.342773v-0.06543l0.042969-0.040039l0.053711-0.020508C28.191406,32.639648,28.226563,32.663086,28.240234,32.702148z"
		/>
	<path style="&st1;" d="M30.213867,32.655273l0.052734,0.020508l0.042969,0.040039v0.06543l-0.106445,0.342773
		c-0.009766,0.036133-0.042969,0.055664-0.075195,0.047852c-0.010742,0-0.030273-0.004883-0.060547-0.017578l-0.042969-0.038086
		l-0.00293-0.066406l0.106445-0.348633C30.140625,32.663086,30.177734,32.639648,30.213867,32.655273z"/>
</g>
<g id="roughgrass_x5F_bd_15_" style="&st0;">
	<path style="&st1;" d="M23.319336,32.379883l0.010254,0.056641l-0.041016,0.042969l-0.042969,0.021484
		c-0.030273,0.012695-0.062988,0.00293-0.083008-0.023438l-0.155762-0.222656l-0.009766-0.057617l0.035645-0.042969
		l0.043457-0.022461c0.029785-0.013672,0.06543-0.00293,0.086426,0.022461L23.319336,32.379883z"/>
	<path style="&st1;" d="M24.462402,32.107422c0,0.003906,0,0.007813-0.003906,0.011719
		c-0.01123-0.015625-0.021973-0.025391-0.037109-0.040039c-0.047363-0.056641-0.133301-0.132813-0.133301-0.132813
		c-0.037109-0.123047,0.052734-0.328125,0.052734-0.328125c-0.014648-0.140625,0.010254-0.350586,0.010254-0.350586
		C24.695313,31.722656,24.462402,32.107422,24.462402,32.107422z"/>
	<path style="&st1;" d="M24.458496,32.118164c0.03418,0.041016,0.09375,0.05957,0.116211,0.173828l-0.054199,0.022461
		l-0.118652-0.010742C24.398926,32.236328,24.425293,32.185547,24.458496,32.118164z"/>
	<path style="&st1;" d="M25.514648,31.679688l-0.224609,0.224609c0,0-0.062012,0.052734-0.163086,0.290039l-0.010742,0.116211
		c0,0-0.087891,0.045898-0.200684-0.021484c0,0,0.051758-0.145508,0.062988-0.292969c0,0,0.009766-0.522461,0.253418-0.609375
		c0,0,0.181152-0.091797,0.067871,0.046875c0,0-0.148926,0.199219-0.152832,0.438477
		C25.147949,31.871094,25.300781,31.667969,25.514648,31.679688z"/>
	<path style="&st1;" d="M26.50293,32.197266l-0.009766,0.057617l-0.15625,0.22168
		C26.317383,32.50293,26.28418,32.512695,26.253906,32.5l-0.042969-0.020508l-0.039063-0.042969l0.010742-0.056641
		l0.154297-0.226563c0.020508-0.025391,0.057617-0.036133,0.085938-0.022461l0.042969,0.022461L26.50293,32.197266z"/>
	<path style="&st1;" d="M23.815918,31.938477l0.105957,0.348633l-0.00293,0.06543l-0.042969,0.039063
		c-0.029785,0.012695-0.049805,0.017578-0.060059,0.017578c-0.032715,0.006836-0.064453-0.012695-0.075684-0.048828
		l-0.105957-0.342773v-0.06543l0.042969-0.040039l0.053223-0.020508C23.76709,31.875977,23.802734,31.899414,23.815918,31.938477z"
		/>
	<path style="&st1;" d="M25.790039,31.891602l0.052734,0.020508l0.042969,0.040039v0.06543l-0.106445,0.342773
		c-0.009766,0.036133-0.042969,0.055664-0.075195,0.047852c-0.010742,0-0.030273-0.004883-0.060547-0.017578l-0.042969-0.038086
		l-0.00293-0.066406l0.106445-0.348633C25.716797,31.899414,25.753906,31.875977,25.790039,31.891602z"/>
</g>
<g id="roughgrass_x5F_bd_26_" style="&st0;">
	<path style="&st1;" d="M4.685547,26.733398l0.010254,0.056641l-0.041016,0.042969l-0.042969,0.021484
		c-0.030273,0.012695-0.062988,0.00293-0.083008-0.023438l-0.155762-0.222656l-0.009766-0.057617l0.035645-0.042969
		l0.043457-0.022461c0.029785-0.013672,0.06543-0.00293,0.086426,0.022461L4.685547,26.733398z"/>
	<path style="&st1;" d="M5.828613,26.460938c0,0.003906,0,0.007813-0.003906,0.011719
		c-0.01123-0.015625-0.021973-0.025391-0.037109-0.040039c-0.047363-0.056641-0.133301-0.132813-0.133301-0.132813
		c-0.037109-0.123047,0.052734-0.328125,0.052734-0.328125c-0.014648-0.140625,0.010254-0.350586,0.010254-0.350586
		C6.061523,26.076172,5.828613,26.460938,5.828613,26.460938z"/>
	<path style="&st1;" d="M5.824707,26.47168c0.03418,0.041016,0.09375,0.05957,0.116211,0.173828l-0.054199,0.022461
		l-0.118652-0.010742C5.765137,26.589844,5.791504,26.539063,5.824707,26.47168z"/>
	<path style="&st1;" d="M6.881348,26.033203L6.65625,26.257813c0,0-0.062012,0.052734-0.163086,0.290039l-0.010742,0.116211
		c0,0-0.087891,0.045898-0.200684-0.021484c0,0,0.051758-0.145508,0.062988-0.292969c0,0,0.009766-0.522461,0.253418-0.609375
		c0,0,0.181152-0.091797,0.067871,0.046875c0,0-0.148926,0.199219-0.152832,0.438477
		C6.51416,26.224609,6.666992,26.021484,6.881348,26.033203z"/>
	<path style="&st1;" d="M7.869141,26.550781l-0.009766,0.057617l-0.155762,0.22168
		c-0.02002,0.026367-0.052734,0.036133-0.083008,0.023438l-0.042969-0.020508l-0.039063-0.042969l0.010254-0.056641
		l0.154785-0.226563c0.02002-0.025391,0.056641-0.036133,0.085449-0.022461l0.042969,0.022461L7.869141,26.550781z"/>
	<path style="&st1;" d="M5.182129,26.291992l0.105957,0.348633l-0.00293,0.06543l-0.042969,0.039063
		c-0.029785,0.012695-0.049805,0.017578-0.060059,0.017578C5.149414,26.769531,5.117676,26.75,5.106445,26.713867
		l-0.105957-0.342773v-0.06543l0.042969-0.040039l0.053223-0.020508C5.133301,26.229492,5.168945,26.25293,5.182129,26.291992z"/>
	<path style="&st1;" d="M7.155762,26.245117l0.052734,0.020508l0.043457,0.040039v0.06543l-0.106445,0.342773
		C7.135742,26.75,7.102539,26.769531,7.070313,26.761719c-0.010254,0-0.030273-0.004883-0.060059-0.017578l-0.042969-0.038086
		l-0.00293-0.066406l0.105957-0.348633C7.083008,26.25293,7.119629,26.229492,7.155762,26.245117z"/>
</g>
<g id="roughgrass_x5F_bd_27_" style="&st0;">
	<path style="&st1;" d="M7.354492,24.461914l0.010254,0.056641L7.32373,24.561523l-0.042969,0.021484
		c-0.030273,0.012695-0.062988,0.00293-0.083008-0.023438l-0.155762-0.222656l-0.009766-0.057129l0.035645-0.042969
		l0.043457-0.022461c0.029785-0.013672,0.06543-0.00293,0.086426,0.022461L7.354492,24.461914z"/>
	<path style="&st1;" d="M8.497559,24.189941c0,0.003906,0,0.007813-0.003906,0.011719
		c-0.01123-0.015625-0.021973-0.025391-0.037109-0.040039c-0.047363-0.056641-0.133301-0.132813-0.133301-0.132813
		c-0.037109-0.123047,0.052734-0.328125,0.052734-0.328125c-0.014648-0.140137,0.010254-0.350098,0.010254-0.350098
		C8.730469,23.805176,8.497559,24.189941,8.497559,24.189941z"/>
	<path style="&st1;" d="M8.493652,24.200684c0.03418,0.041016,0.09375,0.05957,0.116211,0.17334l-0.054199,0.022461
		l-0.118652-0.010742C8.434082,24.318359,8.460449,24.268066,8.493652,24.200684z"/>
	<path style="&st1;" d="M9.550293,23.762207l-0.225098,0.224609c0,0-0.062012,0.052734-0.163086,0.290039l-0.010742,0.115723
		c0,0-0.087891,0.045898-0.200684-0.021484c0,0,0.051758-0.14502,0.062988-0.29248c0,0,0.009766-0.521973,0.253418-0.608887
		c0,0,0.181152-0.091797,0.067871,0.046875c0,0-0.148926,0.19873-0.152832,0.437988
		C9.183105,23.953613,9.335938,23.750488,9.550293,23.762207z"/>
	<path style="&st1;" d="M10.538086,24.279785l-0.009766,0.057129l-0.155762,0.22168
		c-0.02002,0.026367-0.052734,0.036133-0.083008,0.023438l-0.042969-0.020508l-0.039063-0.042969l0.010254-0.056641
		l0.154785-0.226074c0.02002-0.025391,0.056641-0.036133,0.085449-0.022461l0.042969,0.022461L10.538086,24.279785z"/>
	<path style="&st1;" d="M7.851074,24.020996l0.105957,0.348145l-0.00293,0.06543l-0.042969,0.039063
		c-0.029785,0.012695-0.049805,0.017578-0.060059,0.017578c-0.032715,0.006836-0.064453-0.012695-0.075684-0.048828
		l-0.105957-0.342285v-0.06543l0.042969-0.040039l0.053223-0.020508C7.802246,23.958496,7.837891,23.981934,7.851074,24.020996z"/>
	<path style="&st1;" d="M9.824707,23.974121l0.052734,0.020508l0.043457,0.040039v0.06543l-0.106445,0.342285
		c-0.009766,0.036133-0.042969,0.055664-0.075195,0.047852c-0.010254,0-0.030273-0.004883-0.060059-0.017578L9.63623,24.43457
		l-0.00293-0.066406l0.105957-0.348145C9.751953,23.981934,9.788574,23.958496,9.824707,23.974121z"/>
</g>
<g id="roughgrass_x5F_bd_28_" style="&st0;">
	<path style="&st1;" d="M2.930664,23.698242l0.010254,0.056641l-0.041016,0.042969l-0.042969,0.021484
		c-0.030273,0.012695-0.062988,0.00293-0.083008-0.023438l-0.155762-0.222656l-0.009766-0.057129l0.035645-0.042969
		L2.6875,23.450684c0.029785-0.013672,0.06543-0.00293,0.086426,0.022461L2.930664,23.698242z"/>
	<path style="&st1;" d="M4.07373,23.42627c0,0.003906,0,0.007813-0.003906,0.011719
		c-0.01123-0.015625-0.021973-0.025391-0.037109-0.040039c-0.047363-0.056641-0.133301-0.132813-0.133301-0.132813
		c-0.037109-0.123047,0.052734-0.328125,0.052734-0.328125c-0.014648-0.140137,0.010254-0.350098,0.010254-0.350098
		C4.306641,23.041504,4.07373,23.42627,4.07373,23.42627z"/>
	<path style="&st1;" d="M4.069824,23.437012c0.03418,0.041016,0.09375,0.05957,0.116211,0.17334l-0.054199,0.022461
		L4.013184,23.62207C4.010254,23.554688,4.036621,23.504395,4.069824,23.437012z"/>
	<path style="&st1;" d="M5.126465,22.998535l-0.225098,0.224609c0,0-0.062012,0.052734-0.163086,0.290039l-0.010742,0.115723
		c0,0-0.087891,0.045898-0.200684-0.021484c0,0,0.051758-0.14502,0.062988-0.29248c0,0,0.009766-0.521973,0.253418-0.608887
		c0,0,0.181152-0.091797,0.067871,0.046875c0,0-0.148926,0.19873-0.152832,0.437988
		C4.759277,23.189941,4.912109,22.986816,5.126465,22.998535z"/>
	<path style="&st1;" d="M6.114258,23.516113l-0.009766,0.057129l-0.155762,0.22168
		c-0.02002,0.026367-0.052734,0.036133-0.083008,0.023438l-0.042969-0.020508l-0.039063-0.042969l0.010254-0.056641
		l0.154785-0.226074c0.02002-0.025391,0.056641-0.036133,0.085449-0.022461l0.042969,0.022461L6.114258,23.516113z"/>
	<path style="&st1;" d="M3.427246,23.257324l0.105957,0.348145l-0.00293,0.06543l-0.042969,0.039063
		C3.45752,23.722656,3.4375,23.727539,3.427246,23.727539c-0.032715,0.006836-0.064453-0.012695-0.075684-0.048828
		l-0.105957-0.342285v-0.06543l0.042969-0.040039l0.053223-0.020508C3.378418,23.194824,3.414063,23.218262,3.427246,23.257324z"/>
	<path style="&st1;" d="M5.400879,23.210449l0.052734,0.020508l0.043457,0.040039v0.06543l-0.106445,0.342285
		c-0.009766,0.036133-0.042969,0.055664-0.075195,0.047852c-0.010254,0-0.030273-0.004883-0.060059-0.017578l-0.042969-0.038086
		l-0.00293-0.066406l0.105957-0.348145C5.328125,23.218262,5.364746,23.194824,5.400879,23.210449z"/>
</g>
<g id="roughgrass_x5F_bd_29_" style="&st0;">
	<path style="&st1;" d="M9.078125,16.323242l0.010254,0.056641l-0.041016,0.042969l-0.042969,0.021484
		c-0.030273,0.012695-0.062988,0.00293-0.083008-0.023438l-0.155762-0.222656l-0.009766-0.057129l0.035645-0.042969
		l0.043457-0.022461c0.029785-0.013672,0.06543-0.00293,0.086426,0.022461L9.078125,16.323242z"/>
	<path style="&st1;" d="M10.221191,16.05127c0,0.003906,0,0.007813-0.003906,0.011719
		c-0.01123-0.015625-0.021973-0.025391-0.037109-0.040039c-0.047363-0.056641-0.133301-0.132813-0.133301-0.132813
		c-0.037109-0.123047,0.052734-0.328125,0.052734-0.328125c-0.014648-0.140137,0.010254-0.350098,0.010254-0.350098
		C10.454102,15.666504,10.221191,16.05127,10.221191,16.05127z"/>
	<path style="&st1;" d="M10.217285,16.062012c0.03418,0.041016,0.09375,0.05957,0.116211,0.17334l-0.054199,0.022461
		l-0.118652-0.010742C10.157715,16.179688,10.184082,16.129395,10.217285,16.062012z"/>
	<path style="&st1;" d="M11.273926,15.623535l-0.225098,0.224609c0,0-0.062012,0.052734-0.163086,0.290039L10.875,16.253906
		c0,0-0.087891,0.045898-0.200684-0.021484c0,0,0.051758-0.14502,0.062988-0.29248c0,0,0.009766-0.521973,0.253418-0.608887
		c0,0,0.181152-0.091797,0.067871,0.046875c0,0-0.148926,0.19873-0.152832,0.437988
		C10.906738,15.814941,11.05957,15.611816,11.273926,15.623535z"/>
	<path style="&st1;" d="M12.261719,16.141113l-0.009766,0.057129l-0.155762,0.22168
		c-0.02002,0.026367-0.052734,0.036133-0.083008,0.023438l-0.042969-0.020508l-0.039063-0.042969l0.010254-0.056641
		l0.154785-0.226074c0.02002-0.025391,0.056641-0.036133,0.085449-0.022461l0.042969,0.022461L12.261719,16.141113z"/>
	<path style="&st1;" d="M9.574707,15.882324l0.105957,0.348145l-0.00293,0.06543l-0.042969,0.039063
		c-0.029785,0.012695-0.049805,0.017578-0.060059,0.017578c-0.032715,0.006836-0.064453-0.012695-0.075684-0.048828
		l-0.105957-0.342285v-0.06543l0.042969-0.040039l0.053223-0.020508C9.525879,15.819824,9.561523,15.843262,9.574707,15.882324z"/>
	<path style="&st1;" d="M11.54834,15.835449l0.052734,0.020508l0.043457,0.040039v0.06543l-0.106445,0.342285
		c-0.009766,0.036133-0.042969,0.055664-0.075195,0.047852c-0.010254,0-0.030273-0.004883-0.060059-0.017578l-0.042969-0.038086
		l-0.00293-0.066406l0.105957-0.348145C11.475586,15.843262,11.512207,15.819824,11.54834,15.835449z"/>
</g>
<g id="roughgrass_x5F_bd_30_" style="&st0;">
	<path style="&st1;" d="M11.74707,14.051758l0.010254,0.056641l-0.041016,0.042969l-0.042969,0.021484
		c-0.030273,0.012695-0.062988,0.00293-0.083008-0.023438l-0.155762-0.222656l-0.009766-0.057129l0.035645-0.042969
		l0.043457-0.022461c0.029785-0.013672,0.06543-0.00293,0.086426,0.022461L11.74707,14.051758z"/>
	<path style="&st1;" d="M12.890137,13.779785c0,0.003906,0,0.007813-0.003906,0.011719
		c-0.01123-0.015625-0.021973-0.025391-0.037109-0.040039c-0.047363-0.056641-0.133301-0.132813-0.133301-0.132813
		c-0.037109-0.123047,0.052734-0.328125,0.052734-0.328125c-0.014648-0.140137,0.010254-0.350098,0.010254-0.350098
		C13.123047,13.39502,12.890137,13.779785,12.890137,13.779785z"/>
	<path style="&st1;" d="M12.88623,13.790527c0.03418,0.041016,0.09375,0.05957,0.116211,0.17334l-0.054199,0.022461
		l-0.118652-0.010742C12.82666,13.908203,12.853027,13.85791,12.88623,13.790527z"/>
	<path style="&st1;" d="M13.942871,13.352051l-0.225098,0.224609c0,0-0.062012,0.052734-0.163086,0.290039l-0.010742,0.115723
		c0,0-0.087891,0.045898-0.200684-0.021484c0,0,0.051758-0.14502,0.062988-0.29248c0,0,0.009766-0.521973,0.253418-0.608887
		c0,0,0.181152-0.091797,0.067871,0.046875c0,0-0.148926,0.19873-0.152832,0.437988
		C13.575684,13.543457,13.728516,13.340332,13.942871,13.352051z"/>
	<path style="&st1;" d="M14.930664,13.869629l-0.009766,0.057129l-0.155762,0.22168
		c-0.02002,0.026367-0.052734,0.036133-0.083008,0.023438l-0.042969-0.020508l-0.039063-0.042969l0.010254-0.056641
		l0.154785-0.226074c0.02002-0.025391,0.056641-0.036133,0.085449-0.022461l0.042969,0.022461L14.930664,13.869629z"/>
	<path style="&st1;" d="M12.243652,13.61084l0.105957,0.348145l-0.00293,0.06543l-0.042969,0.039063
		c-0.029785,0.012695-0.049805,0.017578-0.060059,0.017578c-0.032715,0.006836-0.064453-0.012695-0.075684-0.048828
		l-0.105957-0.342285v-0.06543l0.042969-0.040039l0.053223-0.020508C12.194824,13.54834,12.230469,13.571777,12.243652,13.61084z"/>
	<path style="&st1;" d="M14.217285,13.563965l0.052734,0.020508l0.043457,0.040039v0.06543l-0.106445,0.342285
		c-0.009766,0.036133-0.042969,0.055664-0.075195,0.047852c-0.010254,0-0.030273-0.004883-0.060059-0.017578l-0.042969-0.038086
		l-0.00293-0.066406l0.105957-0.348145C14.144531,13.571777,14.181152,13.54834,14.217285,13.563965z"/>
</g>
<g id="roughgrass_x5F_bd_31_" style="&st0;">
	<path style="&st1;" d="M7.323242,13.288086l0.010254,0.056641L7.29248,13.387695L7.249512,13.40918
		c-0.030273,0.012695-0.062988,0.00293-0.083008-0.023438l-0.155762-0.222656l-0.009766-0.057129l0.035645-0.042969
		l0.043457-0.022461c0.029785-0.013672,0.06543-0.00293,0.086426,0.022461L7.323242,13.288086z"/>
	<path style="&st1;" d="M8.466309,13.016113c0,0.003906,0,0.007813-0.003906,0.011719
		c-0.01123-0.015625-0.021973-0.025391-0.037109-0.040039C8.37793,12.931152,8.291992,12.85498,8.291992,12.85498
		c-0.037109-0.123047,0.052734-0.328125,0.052734-0.328125c-0.014648-0.140137,0.010254-0.350098,0.010254-0.350098
		C8.699219,12.631348,8.466309,13.016113,8.466309,13.016113z"/>
	<path style="&st1;" d="M8.462402,13.026855c0.03418,0.041016,0.09375,0.05957,0.116211,0.17334l-0.054199,0.022461
		l-0.118652-0.010742C8.402832,13.144531,8.429199,13.094238,8.462402,13.026855z"/>
	<path style="&st1;" d="M9.519043,12.588379l-0.225098,0.224609c0,0-0.062012,0.052734-0.163086,0.290039L9.120117,13.21875
		c0,0-0.087891,0.045898-0.200684-0.021484c0,0,0.051758-0.14502,0.062988-0.29248c0,0,0.009766-0.521973,0.253418-0.608887
		c0,0,0.181152-0.091797,0.067871,0.046875c0,0-0.148926,0.19873-0.152832,0.437988
		C9.151855,12.779785,9.304688,12.57666,9.519043,12.588379z"/>
	<path style="&st1;" d="M10.506836,13.105957l-0.009766,0.057129l-0.155762,0.22168
		c-0.02002,0.026367-0.052734,0.036133-0.083008,0.023438l-0.042969-0.020508l-0.039063-0.042969l0.010254-0.056641
		l0.154785-0.226074c0.02002-0.025391,0.056641-0.036133,0.085449-0.022461l0.042969,0.022461L10.506836,13.105957z"/>
	<path style="&st1;" d="M7.819824,12.847168l0.105957,0.348145l-0.00293,0.06543l-0.042969,0.039063
		c-0.029785,0.012695-0.049805,0.017578-0.060059,0.017578c-0.032715,0.006836-0.064453-0.012695-0.075684-0.048828
		L7.638184,12.92627v-0.06543l0.042969-0.040039l0.053223-0.020508C7.770996,12.784668,7.806641,12.808105,7.819824,12.847168z"/>
	<path style="&st1;" d="M9.793457,12.800293l0.052734,0.020508l0.043457,0.040039v0.06543l-0.106445,0.342285
		c-0.009766,0.036133-0.042969,0.055664-0.075195,0.047852c-0.010254,0-0.030273-0.004883-0.060059-0.017578L9.60498,13.260742
		l-0.00293-0.066406l0.105957-0.348145C9.720703,12.808105,9.757324,12.784668,9.793457,12.800293z"/>
</g>
<g id="roughgrass_x5F_bd_13_" style="&st0;">
	<path style="&st1;" d="M24.362305,6.540039l0.010254,0.056641l-0.041016,0.042969l-0.042969,0.021484
		c-0.030273,0.012695-0.062988,0.00293-0.083008-0.023438l-0.155762-0.222656L24.040039,6.35791l0.035645-0.042969
		l0.043457-0.022461c0.029785-0.013672,0.06543-0.00293,0.086426,0.022461L24.362305,6.540039z"/>
	<path style="&st1;" d="M25.505859,6.268066c0,0.003906,0,0.007813-0.003906,0.011719
		c-0.011719-0.015625-0.022461-0.025391-0.037598-0.040039c-0.047363-0.056641-0.133301-0.132813-0.133301-0.132813
		c-0.037109-0.123047,0.052734-0.328125,0.052734-0.328125c-0.014648-0.140137,0.010254-0.350098,0.010254-0.350098
		C25.738281,5.883301,25.505859,6.268066,25.505859,6.268066z"/>
	<path style="&st1;" d="M25.501953,6.278809c0.03418,0.041016,0.09375,0.05957,0.116211,0.17334l-0.054688,0.022461
		l-0.118652-0.010742C25.441895,6.396484,25.468262,6.346191,25.501953,6.278809z"/>
	<path style="&st1;" d="M26.557617,5.840332l-0.224609,0.224609c0,0-0.061523,0.052734-0.163086,0.290039L26.15918,6.470703
		c0,0-0.087891,0.045898-0.201172-0.021484c0,0,0.051758-0.14502,0.063477-0.29248c0,0,0.009766-0.521973,0.253906-0.608887
		c0,0,0.180664-0.091797,0.067383,0.046875c0,0-0.148438,0.19873-0.152344,0.437988
		C26.191406,6.031738,26.34375,5.828613,26.557617,5.840332z"/>
	<path style="&st1;" d="M27.545898,6.35791l-0.009766,0.057129l-0.15625,0.22168
		c-0.019531,0.026367-0.052734,0.036133-0.083008,0.023438l-0.042969-0.020508L27.214844,6.59668l0.010742-0.056641
		l0.154297-0.226074c0.020508-0.025391,0.057617-0.036133,0.085938-0.022461l0.042969,0.022461L27.545898,6.35791z"/>
	<path style="&st1;" d="M24.858887,6.099121l0.105957,0.348145l-0.00293,0.06543l-0.042969,0.039063
		c-0.029785,0.012695-0.049805,0.017578-0.060059,0.017578c-0.032715,0.006836-0.064453-0.012695-0.075684-0.048828
		l-0.105957-0.342285v-0.06543l0.042969-0.040039l0.053223-0.020508C24.810059,6.036621,24.845703,6.060059,24.858887,6.099121z"/>
	<path style="&st1;" d="M26.833008,6.052246l0.052734,0.020508l0.042969,0.040039v0.06543l-0.106445,0.342285
		C26.8125,6.556641,26.779297,6.576172,26.74707,6.568359c-0.010742,0-0.030273-0.004883-0.060547-0.017578l-0.042969-0.038086
		l-0.00293-0.066406l0.106445-0.348145C26.759766,6.060059,26.796875,6.036621,26.833008,6.052246z"/>
</g>
<g id="roughgrass_x5F_bd_12_" style="&st0;">
	<path style="&st1;" d="M27.03125,4.268555l0.010742,0.056641l-0.041016,0.042969l-0.042969,0.021484
		c-0.030273,0.012695-0.063477,0.00293-0.083008-0.023438l-0.15625-0.222656l-0.009766-0.057129l0.035156-0.042969
		l0.043945-0.022461c0.029297-0.013672,0.06543-0.00293,0.086914,0.022461L27.03125,4.268555z"/>
	<path style="&st1;" d="M28.174805,3.996582c0,0.003906,0,0.007813-0.003906,0.011719
		c-0.011719-0.015625-0.022461-0.025391-0.037109-0.040039C28.085938,3.911621,28,3.835449,28,3.835449
		c-0.037109-0.123047,0.052734-0.328125,0.052734-0.328125C28.038086,3.367188,28.0625,3.157227,28.0625,3.157227
		C28.407227,3.611816,28.174805,3.996582,28.174805,3.996582z"/>
	<path style="&st1;" d="M28.170898,4.007324c0.03418,0.041016,0.09375,0.05957,0.116211,0.17334l-0.054688,0.022461
		l-0.119141-0.010742C28.110352,4.125,28.137695,4.074707,28.170898,4.007324z"/>
	<path style="&st1;" d="M29.226563,3.568848l-0.224609,0.224609c0,0-0.061523,0.052734-0.163086,0.290039l-0.010742,0.115723
		c0,0-0.087891,0.045898-0.201172-0.021484c0,0,0.051758-0.14502,0.063477-0.29248c0,0,0.009766-0.521973,0.253906-0.608887
		c0,0,0.180664-0.091797,0.067383,0.046875c0,0-0.148438,0.19873-0.152344,0.437988
		C28.860352,3.760254,29.012695,3.557129,29.226563,3.568848z"/>
	<path style="&st1;" d="M30.214844,4.086426l-0.009766,0.057129l-0.15625,0.22168
		c-0.019531,0.026367-0.052734,0.036133-0.083008,0.023438l-0.042969-0.020508l-0.039063-0.042969l0.010742-0.056641
		l0.154297-0.226074c0.020508-0.025391,0.057617-0.036133,0.085938-0.022461l0.042969,0.022461L30.214844,4.086426z"/>
	<path style="&st1;" d="M27.52832,3.827637l0.105469,0.348145l-0.00293,0.06543l-0.042969,0.039063
		c-0.029297,0.012695-0.049805,0.017578-0.05957,0.017578c-0.033203,0.006836-0.06543-0.012695-0.076172-0.048828
		l-0.106445-0.342285v-0.06543l0.042969-0.040039l0.053711-0.020508C27.479492,3.765137,27.514648,3.788574,27.52832,3.827637z"/>
	<path style="&st1;" d="M29.501953,3.780762l0.052734,0.020508l0.042969,0.040039v0.06543l-0.106445,0.342285
		c-0.009766,0.036133-0.042969,0.055664-0.075195,0.047852c-0.010742,0-0.030273-0.004883-0.060547-0.017578L29.3125,4.241211
		l-0.00293-0.066406l0.106445-0.348145C29.428711,3.788574,29.46582,3.765137,29.501953,3.780762z"/>
</g>
<g id="roughgrass_x5F_bd_14_" style="&st0;">
	<path style="&st1;" d="M22.606934,3.504883l0.010254,0.056641l-0.041016,0.042969l-0.042969,0.021484
		c-0.030273,0.012695-0.062988,0.00293-0.083008-0.023438l-0.155762-0.222656l-0.009766-0.057129l0.035645-0.042969
		l0.043457-0.022461c0.029785-0.013672,0.06543-0.00293,0.086426,0.022461L22.606934,3.504883z"/>
	<path style="&st1;" d="M23.75,3.23291c0,0.003906,0,0.007813-0.003906,0.011719
		c-0.01123-0.015625-0.021973-0.025391-0.037109-0.040039c-0.047363-0.056641-0.133301-0.132813-0.133301-0.132813
		c-0.037109-0.123047,0.052734-0.328125,0.052734-0.328125c-0.014648-0.140137,0.010254-0.350098,0.010254-0.350098
		C23.98291,2.848145,23.75,3.23291,23.75,3.23291z"/>
	<path style="&st1;" d="M23.746094,3.243652c0.03418,0.041016,0.09375,0.05957,0.116211,0.17334l-0.054199,0.022461
		l-0.118652-0.010742C23.686523,3.361328,23.712891,3.311035,23.746094,3.243652z"/>
	<path style="&st1;" d="M24.802734,2.805176l-0.225098,0.224609c0,0-0.062012,0.052734-0.163086,0.290039l-0.010742,0.115723
		c0,0-0.087891,0.045898-0.200684-0.021484c0,0,0.051758-0.14502,0.062988-0.29248c0,0,0.009766-0.521973,0.253418-0.608887
		c0,0,0.181152-0.091797,0.067871,0.046875c0,0-0.148926,0.19873-0.152832,0.437988
		C24.435547,2.996582,24.588379,2.793457,24.802734,2.805176z"/>
	<path style="&st1;" d="M25.791016,3.322754L25.78125,3.379883L25.625,3.601563
		C25.604492,3.62793,25.572266,3.637695,25.541992,3.625l-0.042969-0.020508l-0.039063-0.042969l0.010254-0.056641L25.625,3.278809
		c0.019531-0.025391,0.056641-0.036133,0.085938-0.022461l0.042969,0.022461L25.791016,3.322754z"/>
	<path style="&st1;" d="M23.103516,3.063965l0.105957,0.348145l-0.00293,0.06543l-0.042969,0.039063
		C23.133789,3.529297,23.11377,3.53418,23.103516,3.53418c-0.032715,0.006836-0.064453-0.012695-0.075684-0.048828
		l-0.105957-0.342285v-0.06543l0.042969-0.040039l0.053223-0.020508C23.054688,3.001465,23.090332,3.024902,23.103516,3.063965z"/>
	<path style="&st1;" d="M25.077148,3.01709l0.052734,0.020508l0.043457,0.040039v0.06543l-0.106445,0.342285
		c-0.009766,0.036133-0.042969,0.055664-0.075195,0.047852c-0.010254,0-0.030273-0.004883-0.060059-0.017578l-0.042969-0.038086
		l-0.00293-0.066406l0.105957-0.348145C25.004395,3.024902,25.041016,3.001465,25.077148,3.01709z"/>
</g>
<g id="roughgrass_x5F_bd_6_" style="&st0;">
	<path style="&st1;" d="M35.544922,14.586914l0.010742,0.056641l-0.041016,0.042969l-0.042969,0.021484
		c-0.030273,0.012695-0.063477,0.00293-0.083008-0.023438l-0.15625-0.222656l-0.009766-0.057129l0.035156-0.042969
		l0.043945-0.022461c0.029297-0.013672,0.06543-0.00293,0.086914,0.022461L35.544922,14.586914z"/>
	<path style="&st1;" d="M36.688477,14.314941c0,0.003906,0,0.007813-0.003906,0.011719
		c-0.011719-0.015625-0.022461-0.025391-0.037109-0.040039c-0.047852-0.056641-0.133789-0.132813-0.133789-0.132813
		c-0.037109-0.123047,0.052734-0.328125,0.052734-0.328125c-0.014648-0.140137,0.009766-0.350098,0.009766-0.350098
		C36.920898,13.930176,36.688477,14.314941,36.688477,14.314941z"/>
	<path style="&st1;" d="M36.68457,14.325684c0.03418,0.041016,0.09375,0.05957,0.116211,0.17334l-0.054688,0.022461
		l-0.119141-0.010742C36.624023,14.443359,36.651367,14.393066,36.68457,14.325684z"/>
	<path style="&st1;" d="M37.740234,13.887207l-0.224609,0.224609c0,0-0.061523,0.052734-0.163086,0.290039l-0.010742,0.115723
		c0,0-0.087891,0.045898-0.201172-0.021484c0,0,0.051758-0.14502,0.063477-0.29248c0,0,0.009766-0.521973,0.253906-0.608887
		c0,0,0.180664-0.091797,0.067383,0.046875c0,0-0.148438,0.19873-0.152344,0.437988
		C37.374023,14.078613,37.526367,13.875488,37.740234,13.887207z"/>
	<path style="&st1;" d="M38.728516,14.404785l-0.009766,0.057129l-0.15625,0.22168
		c-0.019531,0.026367-0.052734,0.036133-0.083008,0.023438l-0.042969-0.020508l-0.039063-0.042969l0.010742-0.056641
		L38.5625,14.36084c0.020508-0.025391,0.057617-0.036133,0.085938-0.022461l0.042969,0.022461L38.728516,14.404785z"/>
	<path style="&st1;" d="M36.041992,14.145996l0.105469,0.348145l-0.00293,0.06543l-0.042969,0.039063
		c-0.029297,0.012695-0.049805,0.017578-0.05957,0.017578c-0.033203,0.006836-0.06543-0.012695-0.076172-0.048828
		l-0.106445-0.342285v-0.06543l0.042969-0.040039l0.053711-0.020508C35.993164,14.083496,36.02832,14.106934,36.041992,14.145996z"
		/>
	<path style="&st1;" d="M38.015625,14.099121l0.052734,0.020508l0.042969,0.040039v0.06543l-0.106445,0.342285
		c-0.009766,0.036133-0.042969,0.055664-0.075195,0.047852c-0.010742,0-0.030273-0.004883-0.060547-0.017578l-0.042969-0.038086
		l-0.00293-0.066406l0.106445-0.348145C37.942383,14.106934,37.979492,14.083496,38.015625,14.099121z"/>
</g>
<g id="roughgrass_x5F_bd_7_" style="&st0;">
	<path style="&st1;" d="M38.213867,12.31543l0.010742,0.056641l-0.041016,0.042969l-0.042969,0.021484
		c-0.030273,0.012695-0.063477,0.00293-0.083008-0.023438l-0.15625-0.222656l-0.009766-0.057129l0.035156-0.042969
		l0.043945-0.022461c0.029297-0.013672,0.06543-0.00293,0.086914,0.022461L38.213867,12.31543z"/>
	<path style="&st1;" d="M39.357422,12.043457c0,0.003906,0,0.007813-0.003906,0.011719
		c-0.011719-0.015625-0.022461-0.025391-0.037109-0.040039c-0.047852-0.056641-0.133789-0.132813-0.133789-0.132813
		c-0.037109-0.123047,0.052734-0.328125,0.052734-0.328125c-0.014648-0.140137,0.009766-0.350098,0.009766-0.350098
		C39.589844,11.658691,39.357422,12.043457,39.357422,12.043457z"/>
	<path style="&st1;" d="M39.353516,12.054199c0.03418,0.041016,0.09375,0.05957,0.116211,0.17334L39.415039,12.25
		l-0.119141-0.010742C39.292969,12.171875,39.320313,12.121582,39.353516,12.054199z"/>
	<path style="&st1;" d="M40.40918,11.615723l-0.224609,0.224609c0,0-0.061523,0.052734-0.163086,0.290039l-0.010742,0.115723
		c0,0-0.087891,0.045898-0.201172-0.021484c0,0,0.051758-0.14502,0.063477-0.29248c0,0,0.009766-0.521973,0.253906-0.608887
		c0,0,0.180664-0.091797,0.067383,0.046875c0,0-0.148438,0.19873-0.152344,0.437988
		C40.042969,11.807129,40.195313,11.604004,40.40918,11.615723z"/>
	<path style="&st1;" d="M41.397461,12.133301l-0.009766,0.057129l-0.15625,0.22168
		c-0.019531,0.026367-0.052734,0.036133-0.083008,0.023438l-0.042969-0.020508l-0.039063-0.042969l0.010742-0.056641
		l0.154297-0.226074c0.020508-0.025391,0.057617-0.036133,0.085938-0.022461l0.042969,0.022461L41.397461,12.133301z"/>
	<path style="&st1;" d="M38.710938,11.874512l0.105469,0.348145l-0.00293,0.06543l-0.042969,0.039063
		c-0.029297,0.012695-0.049805,0.017578-0.05957,0.017578c-0.033203,0.006836-0.06543-0.012695-0.076172-0.048828
		l-0.106445-0.342285v-0.06543l0.042969-0.040039L38.625,11.827637C38.662109,11.812012,38.697266,11.835449,38.710938,11.874512z"
		/>
	<path style="&st1;" d="M40.68457,11.827637l0.052734,0.020508l0.042969,0.040039v0.06543l-0.106445,0.342285
		c-0.009766,0.036133-0.042969,0.055664-0.075195,0.047852c-0.010742,0-0.030273-0.004883-0.060547-0.017578l-0.042969-0.038086
		l-0.00293-0.066406l0.106445-0.348145C40.611328,11.835449,40.648438,11.812012,40.68457,11.827637z"/>
</g>
<g id="roughgrass_x5F_bd_8_" style="&st0;">
	<path style="&st1;" d="M33.789063,11.551758l0.010742,0.056641l-0.041016,0.042969l-0.042969,0.021484
		c-0.030273,0.012695-0.063477,0.00293-0.083008-0.023438l-0.15625-0.222656l-0.009766-0.057129l0.035156-0.042969
		l0.043945-0.022461c0.029297-0.013672,0.06543-0.00293,0.086914,0.022461L33.789063,11.551758z"/>
	<path style="&st1;" d="M34.932617,11.279785c0,0.003906,0,0.007813-0.003906,0.011719
		c-0.011719-0.015625-0.022461-0.025391-0.037109-0.040039c-0.047852-0.056641-0.133789-0.132813-0.133789-0.132813
		c-0.037109-0.123047,0.052734-0.328125,0.052734-0.328125c-0.014648-0.140137,0.009766-0.350098,0.009766-0.350098
		C35.165039,10.89502,34.932617,11.279785,34.932617,11.279785z"/>
	<path style="&st1;" d="M34.928711,11.290527c0.03418,0.041016,0.09375,0.05957,0.116211,0.17334l-0.054688,0.022461
		l-0.119141-0.010742C34.868164,11.408203,34.895508,11.35791,34.928711,11.290527z"/>
	<path style="&st1;" d="M35.984375,10.852051l-0.224609,0.224609c0,0-0.061523,0.052734-0.163086,0.290039l-0.010742,0.115723
		c0,0-0.087891,0.045898-0.201172-0.021484c0,0,0.051758-0.14502,0.063477-0.29248c0,0,0.009766-0.521973,0.253906-0.608887
		c0,0,0.180664-0.091797,0.067383,0.046875c0,0-0.148438,0.19873-0.152344,0.437988
		C35.618164,11.043457,35.770508,10.840332,35.984375,10.852051z"/>
	<path style="&st1;" d="M36.972656,11.369629l-0.009766,0.057129l-0.15625,0.22168
		c-0.019531,0.026367-0.052734,0.036133-0.083008,0.023438l-0.042969-0.020508l-0.039063-0.042969l0.010742-0.056641
		l0.154297-0.226074c0.020508-0.025391,0.057617-0.036133,0.085938-0.022461l0.042969,0.022461L36.972656,11.369629z"/>
	<path style="&st1;" d="M34.286133,11.11084l0.105469,0.348145l-0.00293,0.06543l-0.042969,0.039063
		c-0.029297,0.012695-0.049805,0.017578-0.05957,0.017578c-0.033203,0.006836-0.06543-0.012695-0.076172-0.048828
		l-0.106445-0.342285v-0.06543l0.042969-0.040039l0.053711-0.020508C34.237305,11.04834,34.272461,11.071777,34.286133,11.11084z"/>
	<path style="&st1;" d="M36.259766,11.063965l0.052734,0.020508l0.042969,0.040039v0.06543l-0.106445,0.342285
		c-0.009766,0.036133-0.042969,0.055664-0.075195,0.047852c-0.010742,0-0.030273-0.004883-0.060547-0.017578l-0.042969-0.038086
		l-0.00293-0.066406l0.106445-0.348145C36.186523,11.071777,36.223633,11.04834,36.259766,11.063965z"/>
</g>
<g id="roughgrass_x5F_bd_9_" style="&st0;">
	<path style="&st1;" d="M41.058594,6.202148l0.010742,0.056641L41.02832,6.301758l-0.042969,0.021484
		c-0.030273,0.012695-0.063477,0.00293-0.083008-0.023438l-0.15625-0.222656L40.736328,6.02002l0.035156-0.042969L40.81543,5.95459
		c0.029297-0.013672,0.06543-0.00293,0.086914,0.022461L41.058594,6.202148z"/>
	<path style="&st1;" d="M42.202148,5.930176c0,0.003906,0,0.007813-0.003906,0.011719
		c-0.011719-0.015625-0.022461-0.025391-0.037109-0.040039c-0.047852-0.056641-0.133789-0.132813-0.133789-0.132813
		c-0.037109-0.123047,0.052734-0.328125,0.052734-0.328125C42.06543,5.300781,42.089844,5.09082,42.089844,5.09082
		C42.43457,5.54541,42.202148,5.930176,42.202148,5.930176z"/>
	<path style="&st1;" d="M42.198242,5.940918c0.03418,0.041016,0.09375,0.05957,0.116211,0.17334l-0.054688,0.022461
		l-0.119141-0.010742C42.137695,6.058594,42.165039,6.008301,42.198242,5.940918z"/>
	<path style="&st1;" d="M43.253906,5.502441l-0.224609,0.224609c0,0-0.061523,0.052734-0.163086,0.290039l-0.010742,0.115723
		c0,0-0.087891,0.045898-0.201172-0.021484c0,0,0.051758-0.14502,0.063477-0.29248c0,0,0.009766-0.521973,0.253906-0.608887
		c0,0,0.180664-0.091797,0.067383,0.046875c0,0-0.148438,0.19873-0.152344,0.437988
		C42.887695,5.693848,43.040039,5.490723,43.253906,5.502441z"/>
	<path style="&st1;" d="M44.242188,6.02002l-0.009766,0.057129l-0.15625,0.22168
		c-0.019531,0.026367-0.052734,0.036133-0.083008,0.023438l-0.042969-0.020508l-0.039063-0.042969l0.010742-0.056641
		l0.154297-0.226074c0.020508-0.025391,0.057617-0.036133,0.085938-0.022461l0.042969,0.022461L44.242188,6.02002z"/>
	<path style="&st1;" d="M41.555664,5.76123l0.105469,0.348145l-0.00293,0.06543l-0.042969,0.039063
		c-0.029297,0.012695-0.049805,0.017578-0.05957,0.017578c-0.033203,0.006836-0.06543-0.012695-0.076172-0.048828
		l-0.106445-0.342285v-0.06543l0.042969-0.040039l0.053711-0.020508C41.506836,5.69873,41.541992,5.722168,41.555664,5.76123z"/>
	<path style="&st1;" d="M43.529297,5.714355l0.052734,0.020508L43.625,5.774902v0.06543l-0.106445,0.342285
		c-0.009766,0.036133-0.042969,0.055664-0.075195,0.047852c-0.010742,0-0.030273-0.004883-0.060547-0.017578l-0.042969-0.038086
		l-0.00293-0.066406l0.106445-0.348145C43.456055,5.722168,43.493164,5.69873,43.529297,5.714355z"/>
</g>
<g id="roughgrass_x5F_bd_10_" style="&st0;">
	<path style="&st1;" d="M43.727539,3.930664l0.010742,0.056641l-0.041016,0.042969l-0.042969,0.021484
		c-0.030273,0.012695-0.063477,0.00293-0.083008-0.023438l-0.15625-0.222656l-0.009766-0.057129l0.035156-0.042969
		l0.043945-0.022461c0.029297-0.013672,0.06543-0.00293,0.086914,0.022461L43.727539,3.930664z"/>
	<path style="&st1;" d="M44.871094,3.658691c0,0.003906,0,0.007813-0.003906,0.011719
		c-0.011719-0.015625-0.022461-0.025391-0.037109-0.040039c-0.047852-0.056641-0.133789-0.132813-0.133789-0.132813
		c-0.037109-0.123047,0.052734-0.328125,0.052734-0.328125c-0.014648-0.140137,0.009766-0.350098,0.009766-0.350098
		C45.103516,3.273926,44.871094,3.658691,44.871094,3.658691z"/>
	<path style="&st1;" d="M44.867188,3.669434c0.03418,0.041016,0.09375,0.05957,0.116211,0.17334l-0.054688,0.022461
		L44.80957,3.854492C44.806641,3.787109,44.833984,3.736816,44.867188,3.669434z"/>
	<path style="&st1;" d="M45.922852,3.230957l-0.224609,0.224609c0,0-0.061523,0.052734-0.163086,0.290039l-0.010742,0.115723
		c0,0-0.087891,0.045898-0.201172-0.021484c0,0,0.051758-0.14502,0.063477-0.29248c0,0,0.009766-0.521973,0.253906-0.608887
		c0,0,0.180664-0.091797,0.067383,0.046875c0,0-0.148438,0.19873-0.152344,0.437988
		C45.556641,3.422363,45.708984,3.219238,45.922852,3.230957z"/>
	<path style="&st1;" d="M46.911133,3.748535l-0.009766,0.057129l-0.15625,0.22168
		c-0.019531,0.026367-0.052734,0.036133-0.083008,0.023438l-0.042969-0.020508l-0.039063-0.042969l0.010742-0.056641
		l0.154297-0.226074c0.020508-0.025391,0.057617-0.036133,0.085938-0.022461l0.042969,0.022461L46.911133,3.748535z"/>
	<path style="&st1;" d="M44.224609,3.489746l0.105469,0.348145l-0.00293,0.06543L44.28418,3.942383
		c-0.029297,0.012695-0.049805,0.017578-0.05957,0.017578c-0.033203,0.006836-0.06543-0.012695-0.076172-0.048828
		l-0.106445-0.342285v-0.06543l0.042969-0.040039l0.053711-0.020508C44.175781,3.427246,44.210938,3.450684,44.224609,3.489746z"/>
	<path style="&st1;" d="M46.198242,3.442871l0.052734,0.020508l0.042969,0.040039v0.06543L46.1875,3.911133
		c-0.009766,0.036133-0.042969,0.055664-0.075195,0.047852c-0.010742,0-0.030273-0.004883-0.060547-0.017578L46.008789,3.90332
		l-0.00293-0.066406l0.106445-0.348145C46.125,3.450684,46.162109,3.427246,46.198242,3.442871z"/>
</g>
<g id="roughgrass_x5F_bd_11_" style="&st0;">
	<path style="&st1;" d="M39.302734,3.166992l0.010742,0.056641l-0.041016,0.042969l-0.042969,0.021484
		c-0.030273,0.012695-0.063477,0.00293-0.083008-0.023438l-0.15625-0.222656l-0.009766-0.057129l0.035156-0.042969
		l0.043945-0.022461c0.029297-0.013672,0.06543-0.00293,0.086914,0.022461L39.302734,3.166992z"/>
	<path style="&st1;" d="M40.446289,2.89502c0,0.003906,0,0.007813-0.003906,0.011719
		c-0.011719-0.015625-0.022461-0.025391-0.037109-0.040039c-0.047852-0.056641-0.133789-0.132813-0.133789-0.132813
		c-0.037109-0.123047,0.052734-0.328125,0.052734-0.328125c-0.014648-0.140137,0.009766-0.350098,0.009766-0.350098
		C40.678711,2.510254,40.446289,2.89502,40.446289,2.89502z"/>
	<path style="&st1;" d="M40.442383,2.905762c0.03418,0.041016,0.09375,0.05957,0.116211,0.17334l-0.054688,0.022461
		L40.384766,3.09082C40.381836,3.023438,40.40918,2.973145,40.442383,2.905762z"/>
	<path style="&st1;" d="M41.498047,2.467285l-0.224609,0.224609c0,0-0.061523,0.052734-0.163086,0.290039l-0.010742,0.115723
		c0,0-0.087891,0.045898-0.201172-0.021484c0,0,0.051758-0.14502,0.063477-0.29248c0,0,0.009766-0.521973,0.253906-0.608887
		c0,0,0.180664-0.091797,0.067383,0.046875c0,0-0.148438,0.19873-0.152344,0.437988
		C41.131836,2.658691,41.28418,2.455566,41.498047,2.467285z"/>
	<path style="&st1;" d="M42.486328,2.984863l-0.009766,0.057129l-0.15625,0.22168
		c-0.019531,0.026367-0.052734,0.036133-0.083008,0.023438l-0.042969-0.020508l-0.039063-0.042969l0.010742-0.056641
		l0.154297-0.226074c0.020508-0.025391,0.057617-0.036133,0.085938-0.022461l0.042969,0.022461L42.486328,2.984863z"/>
	<path style="&st1;" d="M39.799805,2.726074l0.105469,0.348145l-0.00293,0.06543l-0.042969,0.039063
		c-0.029297,0.012695-0.049805,0.017578-0.05957,0.017578c-0.033203,0.006836-0.06543-0.012695-0.076172-0.048828
		l-0.106445-0.342285v-0.06543l0.042969-0.040039l0.053711-0.020508C39.750977,2.663574,39.786133,2.687012,39.799805,2.726074z"/>
	<path style="&st1;" d="M41.773438,2.679199l0.052734,0.020508l0.042969,0.040039v0.06543l-0.106445,0.342285
		C41.75293,3.183594,41.719727,3.203125,41.6875,3.195313c-0.010742,0-0.030273-0.004883-0.060547-0.017578l-0.042969-0.038086
		l-0.00293-0.066406L41.6875,2.725098C41.700195,2.687012,41.737305,2.663574,41.773438,2.679199z"/>
</g>
<g id="roughgrass_x5F_bd_3_" style="&st0;">
	<path style="&st1;" d="M36.041992,24.464844l0.010742,0.056641l-0.041016,0.042969l-0.042969,0.021484
		c-0.030273,0.012695-0.063477,0.00293-0.083008-0.023438l-0.15625-0.222656l-0.009766-0.057129l0.035156-0.042969
		l0.043945-0.022461c0.029297-0.013672,0.06543-0.00293,0.086914,0.022461L36.041992,24.464844z"/>
	<path style="&st1;" d="M37.185547,24.192871c0,0.003906,0,0.007813-0.003906,0.011719
		c-0.011719-0.015625-0.022461-0.025391-0.037109-0.040039c-0.047852-0.056641-0.133789-0.132813-0.133789-0.132813
		c-0.037109-0.123047,0.052734-0.328125,0.052734-0.328125c-0.014648-0.140137,0.009766-0.350098,0.009766-0.350098
		C37.417969,23.808105,37.185547,24.192871,37.185547,24.192871z"/>
	<path style="&st1;" d="M37.181641,24.203613c0.03418,0.041016,0.09375,0.05957,0.116211,0.17334l-0.054688,0.022461
		l-0.119141-0.010742C37.121094,24.321289,37.148438,24.270996,37.181641,24.203613z"/>
	<path style="&st1;" d="M38.237305,23.765137l-0.224609,0.224609c0,0-0.061523,0.052734-0.163086,0.290039l-0.010742,0.115723
		c0,0-0.087891,0.045898-0.201172-0.021484c0,0,0.051758-0.14502,0.063477-0.29248c0,0,0.009766-0.521973,0.253906-0.608887
		c0,0,0.180664-0.091797,0.067383,0.046875c0,0-0.148438,0.19873-0.152344,0.437988
		C37.871094,23.956543,38.023438,23.753418,38.237305,23.765137z"/>
	<path style="&st1;" d="M39.225586,24.282715l-0.009766,0.057129l-0.15625,0.22168
		c-0.019531,0.026367-0.052734,0.036133-0.083008,0.023438l-0.042969-0.020508l-0.039063-0.042969l0.010742-0.056641
		l0.154297-0.226074c0.020508-0.025391,0.057617-0.036133,0.085938-0.022461l0.042969,0.022461L39.225586,24.282715z"/>
	<path style="&st1;" d="M36.539063,24.023926l0.105469,0.348145l-0.00293,0.06543l-0.042969,0.039063
		c-0.029297,0.012695-0.049805,0.017578-0.05957,0.017578c-0.033203,0.006836-0.06543-0.012695-0.076172-0.048828
		l-0.106445-0.342285v-0.06543l0.042969-0.040039l0.053711-0.020508C36.490234,23.961426,36.525391,23.984863,36.539063,24.023926z"
		/>
	<path style="&st1;" d="M38.512695,23.977051l0.052734,0.020508l0.042969,0.040039v0.06543l-0.106445,0.342285
		c-0.009766,0.036133-0.042969,0.055664-0.075195,0.047852c-0.010742,0-0.030273-0.004883-0.060547-0.017578L38.323242,24.4375
		l-0.00293-0.066406l0.106445-0.348145C38.439453,23.984863,38.476563,23.961426,38.512695,23.977051z"/>
</g>
<g id="roughgrass_x5F_bd_4_" style="&st0;">
	<path style="&st1;" d="M38.710938,22.193359L38.72168,22.25l-0.041016,0.042969l-0.042969,0.021484
		c-0.030273,0.012695-0.063477,0.00293-0.083008-0.023438l-0.15625-0.222656l-0.009766-0.057129l0.035156-0.042969
		l0.043945-0.022461c0.029297-0.013672,0.06543-0.00293,0.086914,0.022461L38.710938,22.193359z"/>
	<path style="&st1;" d="M39.854492,21.921387c0,0.003906,0,0.007813-0.003906,0.011719
		c-0.011719-0.015625-0.022461-0.025391-0.037109-0.040039c-0.047852-0.056641-0.133789-0.132813-0.133789-0.132813
		c-0.037109-0.123047,0.052734-0.328125,0.052734-0.328125c-0.014648-0.140137,0.009766-0.350098,0.009766-0.350098
		C40.086914,21.536621,39.854492,21.921387,39.854492,21.921387z"/>
	<path style="&st1;" d="M39.850586,21.932129c0.03418,0.041016,0.09375,0.05957,0.116211,0.17334l-0.054688,0.022461
		l-0.119141-0.010742C39.790039,22.049805,39.817383,21.999512,39.850586,21.932129z"/>
	<path style="&st1;" d="M40.90625,21.493652l-0.224609,0.224609c0,0-0.061523,0.052734-0.163086,0.290039l-0.010742,0.115723
		c0,0-0.087891,0.045898-0.201172-0.021484c0,0,0.051758-0.14502,0.063477-0.29248c0,0,0.009766-0.521973,0.253906-0.608887
		c0,0,0.180664-0.091797,0.067383,0.046875c0,0-0.148438,0.19873-0.152344,0.437988
		C40.540039,21.685059,40.692383,21.481934,40.90625,21.493652z"/>
	<path style="&st1;" d="M41.894531,22.01123l-0.009766,0.057129l-0.15625,0.22168
		c-0.019531,0.026367-0.052734,0.036133-0.083008,0.023438l-0.042969-0.020508L41.563477,22.25l0.010742-0.056641l0.154297-0.226074
		c0.020508-0.025391,0.057617-0.036133,0.085938-0.022461l0.042969,0.022461L41.894531,22.01123z"/>
	<path style="&st1;" d="M39.208008,21.752441l0.105469,0.348145l-0.00293,0.06543l-0.042969,0.039063
		c-0.029297,0.012695-0.049805,0.017578-0.05957,0.017578c-0.033203,0.006836-0.06543-0.012695-0.076172-0.048828
		l-0.106445-0.342285v-0.06543l0.042969-0.040039l0.053711-0.020508C39.15918,21.689941,39.194336,21.713379,39.208008,21.752441z"
		/>
	<path style="&st1;" d="M41.181641,21.705566l0.052734,0.020508l0.042969,0.040039v0.06543l-0.106445,0.342285
		c-0.009766,0.036133-0.042969,0.055664-0.075195,0.047852c-0.010742,0-0.030273-0.004883-0.060547-0.017578l-0.042969-0.038086
		l-0.00293-0.066406l0.106445-0.348145C41.108398,21.713379,41.145508,21.689941,41.181641,21.705566z"/>
</g>
<g id="roughgrass_x5F_bd_5_" style="&st0;">
	<path style="&st1;" d="M34.286133,21.429688l0.010742,0.056641l-0.041016,0.042969l-0.042969,0.021484
		c-0.030273,0.012695-0.063477,0.00293-0.083008-0.023438l-0.15625-0.222656l-0.009766-0.057129l0.035156-0.042969
		l0.043945-0.022461c0.029297-0.013672,0.06543-0.00293,0.086914,0.022461L34.286133,21.429688z"/>
	<path style="&st1;" d="M35.429688,21.157715c0,0.003906,0,0.007813-0.003906,0.011719
		c-0.011719-0.015625-0.022461-0.025391-0.037109-0.040039c-0.047852-0.056641-0.133789-0.132813-0.133789-0.132813
		c-0.037109-0.123047,0.052734-0.328125,0.052734-0.328125c-0.014648-0.140137,0.009766-0.350098,0.009766-0.350098
		C35.662109,20.772949,35.429688,21.157715,35.429688,21.157715z"/>
	<path style="&st1;" d="M35.425781,21.168457c0.03418,0.041016,0.09375,0.05957,0.116211,0.17334l-0.054688,0.022461
		l-0.119141-0.010742C35.365234,21.286133,35.392578,21.23584,35.425781,21.168457z"/>
	<path style="&st1;" d="M36.481445,20.72998l-0.224609,0.224609c0,0-0.061523,0.052734-0.163086,0.290039l-0.010742,0.115723
		c0,0-0.087891,0.045898-0.201172-0.021484c0,0,0.051758-0.14502,0.063477-0.29248c0,0,0.009766-0.521973,0.253906-0.608887
		c0,0,0.180664-0.091797,0.067383,0.046875c0,0-0.148438,0.19873-0.152344,0.437988
		C36.115234,20.921387,36.267578,20.718262,36.481445,20.72998z"/>
	<path style="&st1;" d="M37.469727,21.247559l-0.009766,0.057129l-0.15625,0.22168
		c-0.019531,0.026367-0.052734,0.036133-0.083008,0.023438l-0.042969-0.020508l-0.039063-0.042969l0.010742-0.056641
		l0.154297-0.226074c0.020508-0.025391,0.057617-0.036133,0.085938-0.022461l0.042969,0.022461L37.469727,21.247559z"/>
	<path style="&st1;" d="M34.783203,20.98877l0.105469,0.348145l-0.00293,0.06543l-0.042969,0.039063
		c-0.029297,0.012695-0.049805,0.017578-0.05957,0.017578c-0.033203,0.006836-0.06543-0.012695-0.076172-0.048828
		l-0.106445-0.342285v-0.06543l0.042969-0.040039l0.053711-0.020508C34.734375,20.92627,34.769531,20.949707,34.783203,20.98877z"/>
	<path style="&st1;" d="M36.756836,20.941895l0.052734,0.020508l0.042969,0.040039v0.06543l-0.106445,0.342285
		c-0.009766,0.036133-0.042969,0.055664-0.075195,0.047852c-0.010742,0-0.030273-0.004883-0.060547-0.017578l-0.042969-0.038086
		l-0.00293-0.066406l0.106445-0.348145C36.683594,20.949707,36.720703,20.92627,36.756836,20.941895z"/>
</g>
<g id="roughgrass_x5F_bd_1_" style="&st0;">
	<path style="&st1;" d="M41.310547,36.368164l0.010742,0.056641l-0.041016,0.042969l-0.042969,0.021484
		c-0.030273,0.012695-0.063477,0.00293-0.083008-0.023438l-0.15625-0.222656l-0.009766-0.057617l0.035156-0.042969
		l0.043945-0.022461c0.029297-0.013672,0.06543-0.00293,0.086914,0.022461L41.310547,36.368164z"/>
	<path style="&st1;" d="M42.454102,36.095703c0,0.003906,0,0.007813-0.003906,0.011719
		c-0.011719-0.015625-0.022461-0.025391-0.037109-0.040039c-0.047852-0.056641-0.133789-0.132813-0.133789-0.132813
		c-0.037109-0.123047,0.052734-0.328125,0.052734-0.328125c-0.014648-0.140625,0.009766-0.350586,0.009766-0.350586
		C42.686523,35.710938,42.454102,36.095703,42.454102,36.095703z"/>
	<path style="&st1;" d="M42.450195,36.106445c0.03418,0.041016,0.09375,0.05957,0.116211,0.173828l-0.054688,0.022461
		l-0.119141-0.010742C42.389648,36.224609,42.416992,36.173828,42.450195,36.106445z"/>
	<path style="&st1;" d="M43.505859,35.667969l-0.224609,0.224609c0,0-0.061523,0.052734-0.163086,0.290039l-0.010742,0.116211
		c0,0-0.087891,0.045898-0.201172-0.021484c0,0,0.051758-0.145508,0.063477-0.292969c0,0,0.009766-0.522461,0.253906-0.609375
		c0,0,0.180664-0.091797,0.067383,0.046875c0,0-0.148438,0.199219-0.152344,0.438477
		C43.139648,35.859375,43.291992,35.65625,43.505859,35.667969z"/>
	<path style="&st1;" d="M44.494141,36.185547l-0.009766,0.057617l-0.15625,0.22168
		c-0.019531,0.026367-0.052734,0.036133-0.083008,0.023438l-0.042969-0.020508l-0.039063-0.042969l0.010742-0.056641
		l0.154297-0.226563c0.020508-0.025391,0.057617-0.036133,0.085938-0.022461l0.042969,0.022461L44.494141,36.185547z"/>
	<path style="&st1;" d="M41.807617,35.926758l0.105469,0.348633l-0.00293,0.06543l-0.042969,0.039063
		c-0.029297,0.012695-0.049805,0.017578-0.05957,0.017578c-0.033203,0.006836-0.06543-0.012695-0.076172-0.048828L41.625,36.005859
		v-0.06543l0.042969-0.040039l0.053711-0.020508C41.758789,35.864258,41.793945,35.887695,41.807617,35.926758z"/>
	<path style="&st1;" d="M43.78125,35.879883l0.052734,0.020508l0.042969,0.040039v0.06543l-0.106445,0.342773
		c-0.009766,0.036133-0.042969,0.055664-0.075195,0.047852c-0.010742,0-0.030273-0.004883-0.060547-0.017578l-0.042969-0.038086
		l-0.00293-0.066406l0.106445-0.348633C43.708008,35.887695,43.745117,35.864258,43.78125,35.879883z"/>
</g>
<g id="roughgrass_x5F_bd_32_" style="&st0;">
	<path style="&st1;" d="M43.978516,34.09668l0.010742,0.056641l-0.041016,0.042969l-0.042969,0.021484
		c-0.030273,0.012695-0.063477,0.00293-0.083008-0.023438l-0.15625-0.222656l-0.009766-0.057617l0.035156-0.042969
		l0.043945-0.022461c0.029297-0.013672,0.06543-0.00293,0.086914,0.022461L43.978516,34.09668z"/>
	<path style="&st1;" d="M45.12207,33.824219c0,0.003906,0,0.007813-0.003906,0.011719
		c-0.011719-0.015625-0.022461-0.025391-0.037109-0.040039c-0.047852-0.056641-0.133789-0.132813-0.133789-0.132813
		C44.910156,33.540039,45,33.334961,45,33.334961c-0.014648-0.140625,0.009766-0.350586,0.009766-0.350586
		C45.354492,33.439453,45.12207,33.824219,45.12207,33.824219z"/>
	<path style="&st1;" d="M45.118164,33.834961c0.03418,0.041016,0.09375,0.05957,0.116211,0.173828l-0.054688,0.022461
		l-0.119141-0.010742C45.057617,33.953125,45.084961,33.902344,45.118164,33.834961z"/>
	<path style="&st1;" d="M46.173828,33.396484l-0.224609,0.224609c0,0-0.061523,0.052734-0.163086,0.290039l-0.010742,0.116211
		c0,0-0.087891,0.045898-0.201172-0.021484c0,0,0.051758-0.145508,0.063477-0.292969c0,0,0.009766-0.522461,0.253906-0.609375
		c0,0,0.180664-0.091797,0.067383,0.046875c0,0-0.148438,0.199219-0.152344,0.438477
		C45.807617,33.587891,45.959961,33.384766,46.173828,33.396484z"/>
	<path style="&st1;" d="M47.162109,33.914063l-0.009766,0.057617l-0.15625,0.22168
		c-0.019531,0.026367-0.052734,0.036133-0.083008,0.023438l-0.042969-0.020508l-0.039063-0.042969l0.010742-0.056641
		l0.154297-0.226563c0.020508-0.025391,0.057617-0.036133,0.085938-0.022461L47.125,33.870117L47.162109,33.914063z"/>
	<path style="&st1;" d="M44.475586,33.655273l0.105469,0.348633l-0.00293,0.06543l-0.042969,0.039063
		c-0.029297,0.012695-0.049805,0.017578-0.05957,0.017578c-0.033203,0.006836-0.06543-0.012695-0.076172-0.048828
		l-0.106445-0.342773v-0.06543l0.042969-0.040039l0.053711-0.020508C44.426758,33.592773,44.461914,33.616211,44.475586,33.655273z"
		/>
	<path style="&st1;" d="M46.449219,33.608398l0.052734,0.020508l0.042969,0.040039v0.06543l-0.106445,0.342773
		c-0.009766,0.036133-0.042969,0.055664-0.075195,0.047852c-0.010742,0-0.030273-0.004883-0.060547-0.017578l-0.042969-0.038086
		l-0.00293-0.066406l0.106445-0.348633C46.375977,33.616211,46.413086,33.592773,46.449219,33.608398z"/>
</g>
<g id="roughgrass_x5F_bd_2_" style="&st0;">
	<path style="&st1;" d="M39.554688,33.333008l0.010742,0.056641l-0.041016,0.042969l-0.042969,0.021484
		c-0.030273,0.012695-0.063477,0.00293-0.083008-0.023438l-0.15625-0.222656l-0.009766-0.057617l0.035156-0.042969
		l0.043945-0.022461c0.029297-0.013672,0.06543-0.00293,0.086914,0.022461L39.554688,33.333008z"/>
	<path style="&st1;" d="M40.698242,33.060547c0,0.003906,0,0.007813-0.003906,0.011719
		c-0.011719-0.015625-0.022461-0.025391-0.037109-0.040039c-0.047852-0.056641-0.133789-0.132813-0.133789-0.132813
		c-0.037109-0.123047,0.052734-0.328125,0.052734-0.328125c-0.014648-0.140625,0.009766-0.350586,0.009766-0.350586
		C40.930664,32.675781,40.698242,33.060547,40.698242,33.060547z"/>
	<path style="&st1;" d="M40.694336,33.071289c0.03418,0.041016,0.09375,0.05957,0.116211,0.173828l-0.054688,0.022461
		l-0.119141-0.010742C40.633789,33.189453,40.661133,33.138672,40.694336,33.071289z"/>
	<path style="&st1;" d="M41.75,32.632813l-0.224609,0.224609c0,0-0.061523,0.052734-0.163086,0.290039l-0.010742,0.116211
		c0,0-0.087891,0.045898-0.201172-0.021484c0,0,0.051758-0.145508,0.063477-0.292969c0,0,0.009766-0.522461,0.253906-0.609375
		c0,0,0.180664-0.091797,0.067383,0.046875c0,0-0.148438,0.199219-0.152344,0.438477
		C41.383789,32.824219,41.536133,32.621094,41.75,32.632813z"/>
	<path style="&st1;" d="M42.738281,33.150391l-0.009766,0.057617l-0.15625,0.22168
		c-0.019531,0.026367-0.052734,0.036133-0.083008,0.023438l-0.042969-0.020508l-0.039063-0.042969l0.010742-0.056641
		l0.154297-0.226563c0.020508-0.025391,0.057617-0.036133,0.085938-0.022461l0.042969,0.022461L42.738281,33.150391z"/>
	<path style="&st1;" d="M40.051758,32.891602l0.105469,0.348633l-0.00293,0.06543l-0.042969,0.039063
		c-0.029297,0.012695-0.049805,0.017578-0.05957,0.017578c-0.033203,0.006836-0.06543-0.012695-0.076172-0.048828
		l-0.106445-0.342773v-0.06543l0.042969-0.040039l0.053711-0.020508C40.00293,32.829102,40.038086,32.852539,40.051758,32.891602z"
		/>
	<path style="&st1;" d="M42.025391,32.844727l0.052734,0.020508l0.042969,0.040039v0.06543l-0.106445,0.342773
		c-0.009766,0.036133-0.042969,0.055664-0.075195,0.047852c-0.010742,0-0.030273-0.004883-0.060547-0.017578l-0.042969-0.038086
		l-0.00293-0.066406l0.106445-0.348633C41.952148,32.852539,41.989258,32.829102,42.025391,32.844727z"/>
</g>
<g id="roughgrass_x5F_bd_20_" style="&st0;">
	<path style="&st1;" d="M28.280273,46.969727l0.010742,0.056641L28.25,47.069336l-0.042969,0.021484
		c-0.030273,0.012695-0.063477,0.00293-0.083008-0.023438l-0.15625-0.222656l-0.009766-0.057617l0.035156-0.042969
		l0.043945-0.022461c0.029297-0.013672,0.06543-0.00293,0.086914,0.022461L28.280273,46.969727z"/>
	<path style="&st1;" d="M29.423828,46.697266c0,0.003906,0,0.007813-0.003906,0.011719
		c-0.011719-0.015625-0.022461-0.025391-0.037109-0.040039c-0.047852-0.056641-0.133789-0.132813-0.133789-0.132813
		c-0.037109-0.123047,0.052734-0.328125,0.052734-0.328125c-0.014648-0.140625,0.009766-0.350586,0.009766-0.350586
		C29.65625,46.3125,29.423828,46.697266,29.423828,46.697266z"/>
	<path style="&st1;" d="M29.419922,46.708008c0.03418,0.041016,0.09375,0.05957,0.116211,0.173828l-0.054688,0.022461
		l-0.119141-0.010742C29.359375,46.826172,29.386719,46.775391,29.419922,46.708008z"/>
	<path style="&st1;" d="M30.475586,46.269531l-0.224609,0.224609c0,0-0.061523,0.052734-0.163086,0.290039l-0.010742,0.116211
		c0,0-0.087891,0.045898-0.201172-0.021484c0,0,0.051758-0.145508,0.063477-0.292969c0,0,0.009766-0.522461,0.253906-0.609375
		c0,0,0.180664-0.091797,0.067383,0.046875c0,0-0.148438,0.199219-0.152344,0.438477
		C30.109375,46.460938,30.261719,46.257813,30.475586,46.269531z"/>
	<path style="&st1;" d="M31.463867,46.787109l-0.009766,0.057617l-0.15625,0.22168
		c-0.019531,0.026367-0.052734,0.036133-0.083008,0.023438l-0.042969-0.020508l-0.039063-0.042969l0.010742-0.056641
		l0.154297-0.226563c0.020508-0.025391,0.057617-0.036133,0.085938-0.022461l0.042969,0.022461L31.463867,46.787109z"/>
	<path style="&st1;" d="M28.777344,46.52832l0.105469,0.348633l-0.00293,0.06543l-0.042969,0.039063
		c-0.029297,0.012695-0.049805,0.017578-0.05957,0.017578c-0.033203,0.006836-0.06543-0.012695-0.076172-0.048828
		l-0.106445-0.342773v-0.06543l0.042969-0.040039l0.053711-0.020508C28.728516,46.46582,28.763672,46.489258,28.777344,46.52832z"/>
	<path style="&st1;" d="M30.750977,46.481445l0.052734,0.020508l0.042969,0.040039v0.06543l-0.106445,0.342773
		c-0.009766,0.036133-0.042969,0.055664-0.075195,0.047852c-0.010742,0-0.030273-0.004883-0.060547-0.017578l-0.042969-0.038086
		l-0.00293-0.066406l0.106445-0.348633C30.677734,46.489258,30.714844,46.46582,30.750977,46.481445z"/>
</g>
<g id="roughgrass_x5F_bd_19_" style="&st0;">
	<path style="&st1;" d="M30.948242,44.698242l0.010742,0.056641l-0.041016,0.042969L30.875,44.819336
		c-0.030273,0.012695-0.063477,0.00293-0.083008-0.023438l-0.15625-0.222656l-0.009766-0.057617l0.035156-0.042969
		l0.043945-0.022461c0.029297-0.013672,0.06543-0.00293,0.086914,0.022461L30.948242,44.698242z"/>
	<path style="&st1;" d="M32.091797,44.425781c0,0.003906,0,0.007813-0.003906,0.011719
		c-0.011719-0.015625-0.022461-0.025391-0.037109-0.040039c-0.047852-0.056641-0.133789-0.132813-0.133789-0.132813
		c-0.037109-0.123047,0.052734-0.328125,0.052734-0.328125c-0.014648-0.140625,0.009766-0.350586,0.009766-0.350586
		C32.324219,44.041016,32.091797,44.425781,32.091797,44.425781z"/>
	<path style="&st1;" d="M32.087891,44.436523c0.03418,0.041016,0.09375,0.05957,0.116211,0.173828l-0.054688,0.022461
		l-0.119141-0.010742C32.027344,44.554688,32.054688,44.503906,32.087891,44.436523z"/>
	<path style="&st1;" d="M33.143555,43.998047l-0.224609,0.224609c0,0-0.061523,0.052734-0.163086,0.290039l-0.010742,0.116211
		c0,0-0.087891,0.045898-0.201172-0.021484c0,0,0.051758-0.145508,0.063477-0.292969c0,0,0.009766-0.522461,0.253906-0.609375
		c0,0,0.180664-0.091797,0.067383,0.046875c0,0-0.148438,0.199219-0.152344,0.438477
		C32.777344,44.189453,32.929688,43.986328,33.143555,43.998047z"/>
	<path style="&st1;" d="M34.131836,44.515625l-0.009766,0.057617l-0.15625,0.22168
		c-0.019531,0.026367-0.052734,0.036133-0.083008,0.023438l-0.042969-0.020508l-0.039063-0.042969l0.010742-0.056641
		l0.154297-0.226563c0.020508-0.025391,0.057617-0.036133,0.085938-0.022461l0.042969,0.022461L34.131836,44.515625z"/>
	<path style="&st1;" d="M31.445313,44.256836l0.105469,0.348633l-0.00293,0.06543l-0.042969,0.039063
		c-0.029297,0.012695-0.049805,0.017578-0.05957,0.017578c-0.033203,0.006836-0.06543-0.012695-0.076172-0.048828
		l-0.106445-0.342773v-0.06543l0.042969-0.040039l0.053711-0.020508C31.396484,44.194336,31.431641,44.217773,31.445313,44.256836z"
		/>
	<path style="&st1;" d="M33.418945,44.209961l0.052734,0.020508l0.042969,0.040039v0.06543l-0.106445,0.342773
		c-0.009766,0.036133-0.042969,0.055664-0.075195,0.047852c-0.010742,0-0.030273-0.004883-0.060547-0.017578l-0.042969-0.038086
		l-0.00293-0.066406l0.106445-0.348633C33.345703,44.217773,33.382813,44.194336,33.418945,44.209961z"/>
</g>
<g id="roughgrass_x5F_bd_18_" style="&st0;">
	<path style="&st1;" d="M26.524414,43.93457l0.010742,0.056641l-0.041016,0.042969l-0.042969,0.021484
		c-0.030273,0.012695-0.063477,0.00293-0.083008-0.023438l-0.15625-0.222656l-0.009766-0.057617l0.035156-0.042969
		l0.043945-0.022461c0.029297-0.013672,0.06543-0.00293,0.086914,0.022461L26.524414,43.93457z"/>
	<path style="&st1;" d="M27.667969,43.662109c0,0.003906,0,0.007813-0.003906,0.011719
		c-0.011719-0.015625-0.022461-0.025391-0.037109-0.040039c-0.047852-0.056641-0.133789-0.132813-0.133789-0.132813
		c-0.037109-0.123047,0.052734-0.328125,0.052734-0.328125c-0.014648-0.140625,0.009766-0.350586,0.009766-0.350586
		C27.900391,43.277344,27.667969,43.662109,27.667969,43.662109z"/>
	<path style="&st1;" d="M27.664063,43.672852c0.03418,0.041016,0.09375,0.05957,0.116211,0.173828l-0.054688,0.022461
		l-0.119141-0.010742C27.603516,43.791016,27.630859,43.740234,27.664063,43.672852z"/>
	<path style="&st1;" d="M28.719727,43.234375l-0.224609,0.224609c0,0-0.061523,0.052734-0.163086,0.290039l-0.010742,0.116211
		c0,0-0.087891,0.045898-0.201172-0.021484c0,0,0.051758-0.145508,0.063477-0.292969c0,0,0.009766-0.522461,0.253906-0.609375
		c0,0,0.180664-0.091797,0.067383,0.046875c0,0-0.148438,0.199219-0.152344,0.438477
		C28.353516,43.425781,28.505859,43.222656,28.719727,43.234375z"/>
	<path style="&st1;" d="M29.708008,43.751953l-0.009766,0.057617l-0.15625,0.22168
		c-0.019531,0.026367-0.052734,0.036133-0.083008,0.023438l-0.042969-0.020508l-0.039063-0.042969l0.010742-0.056641
		l0.154297-0.226563c0.020508-0.025391,0.057617-0.036133,0.085938-0.022461l0.042969,0.022461L29.708008,43.751953z"/>
	<path style="&st1;" d="M27.021484,43.493164l0.105469,0.348633l-0.00293,0.06543l-0.042969,0.039063
		c-0.029297,0.012695-0.049805,0.017578-0.05957,0.017578c-0.033203,0.006836-0.06543-0.012695-0.076172-0.048828
		l-0.106445-0.342773v-0.06543l0.042969-0.040039l0.053711-0.020508C26.972656,43.430664,27.007813,43.454102,27.021484,43.493164z"
		/>
	<path style="&st1;" d="M28.995117,43.446289l0.052734,0.020508l0.042969,0.040039v0.06543l-0.106445,0.342773
		c-0.009766,0.036133-0.042969,0.055664-0.075195,0.047852c-0.010742,0-0.030273-0.004883-0.060547-0.017578l-0.042969-0.038086
		l-0.00293-0.066406l0.106445-0.348633C28.921875,43.454102,28.958984,43.430664,28.995117,43.446289z"/>
</g>
<g id="roughgrass_x5F_bd_21_" style="&st0;">
	<path style="&st1;" d="M4.504395,48.383789l0.010254,0.056641l-0.041016,0.042969l-0.042969,0.021484
		c-0.030273,0.012695-0.062988,0.00293-0.083008-0.023438l-0.155762-0.222656l-0.009766-0.057617l0.035645-0.042969
		l0.043457-0.022461c0.029785-0.013672,0.06543-0.00293,0.086426,0.022461L4.504395,48.383789z"/>
	<path style="&st1;" d="M5.647461,48.111328c0,0.003906,0,0.007813-0.003906,0.011719
		c-0.01123-0.015625-0.021973-0.025391-0.037109-0.040039c-0.047363-0.056641-0.133301-0.132813-0.133301-0.132813
		c-0.037109-0.123047,0.052734-0.328125,0.052734-0.328125c-0.014648-0.140625,0.010254-0.350586,0.010254-0.350586
		C5.880371,47.726563,5.647461,48.111328,5.647461,48.111328z"/>
	<path style="&st1;" d="M5.643555,48.12207c0.03418,0.041016,0.09375,0.05957,0.116211,0.173828l-0.054199,0.022461
		l-0.118652-0.010742C5.583984,48.240234,5.610352,48.189453,5.643555,48.12207z"/>
	<path style="&st1;" d="M6.700195,47.683594l-0.225098,0.224609c0,0-0.062012,0.052734-0.163086,0.290039L6.30127,48.314453
		c0,0-0.087891,0.045898-0.200684-0.021484c0,0,0.051758-0.145508,0.062988-0.292969c0,0,0.009766-0.522461,0.253418-0.609375
		c0,0,0.181152-0.091797,0.067871,0.046875c0,0-0.148926,0.199219-0.152832,0.438477
		C6.333008,47.875,6.48584,47.671875,6.700195,47.683594z"/>
	<path style="&st1;" d="M7.687988,48.201172l-0.009766,0.057617l-0.155762,0.22168
		c-0.02002,0.026367-0.052734,0.036133-0.083008,0.023438l-0.042969-0.020508L7.357422,48.44043l0.010254-0.056641
		l0.154785-0.226563c0.02002-0.025391,0.056641-0.036133,0.085449-0.022461l0.042969,0.022461L7.687988,48.201172z"/>
	<path style="&st1;" d="M5.000977,47.942383l0.105957,0.348633l-0.00293,0.06543l-0.042969,0.039063
		c-0.029785,0.012695-0.049805,0.017578-0.060059,0.017578c-0.032715,0.006836-0.064453-0.012695-0.075684-0.048828
		l-0.105957-0.342773v-0.06543l0.042969-0.040039l0.053223-0.020508C4.952148,47.879883,4.987793,47.90332,5.000977,47.942383z"/>
	<path style="&st1;" d="M6.974609,47.895508l0.052734,0.020508l0.043457,0.040039v0.06543l-0.106445,0.342773
		c-0.009766,0.036133-0.042969,0.055664-0.075195,0.047852c-0.010254,0-0.030273-0.004883-0.060059-0.017578l-0.042969-0.038086
		l-0.00293-0.066406l0.105957-0.348633C6.901855,47.90332,6.938477,47.879883,6.974609,47.895508z"/>
</g>
<g id="roughgrass_x5F_bd_22_" style="&st0;">
	<path style="&st1;" d="M7.17334,46.112305l0.010254,0.056641l-0.041016,0.042969l-0.042969,0.021484
		c-0.030273,0.012695-0.062988,0.00293-0.083008-0.023438L6.86084,45.987305l-0.009766-0.057617l0.035645-0.042969
		l0.043457-0.022461c0.029785-0.013672,0.06543-0.00293,0.086426,0.022461L7.17334,46.112305z"/>
	<path style="&st1;" d="M8.316406,45.839844c0,0.003906,0,0.007813-0.003906,0.011719
		c-0.01123-0.015625-0.021973-0.025391-0.037109-0.040039c-0.047363-0.056641-0.133301-0.132813-0.133301-0.132813
		c-0.037109-0.123047,0.052734-0.328125,0.052734-0.328125C8.180176,45.209961,8.205078,45,8.205078,45
		C8.549316,45.455078,8.316406,45.839844,8.316406,45.839844z"/>
	<path style="&st1;" d="M8.3125,45.850586c0.03418,0.041016,0.09375,0.05957,0.116211,0.173828l-0.054199,0.022461
		l-0.118652-0.010742C8.25293,45.96875,8.279297,45.917969,8.3125,45.850586z"/>
	<path style="&st1;" d="M9.369141,45.412109l-0.225098,0.224609c0,0-0.062012,0.052734-0.163086,0.290039l-0.010742,0.116211
		c0,0-0.087891,0.045898-0.200684-0.021484c0,0,0.051758-0.145508,0.062988-0.292969c0,0,0.009766-0.522461,0.253418-0.609375
		c0,0,0.181152-0.091797,0.067871,0.046875c0,0-0.148926,0.199219-0.152832,0.438477
		C9.001953,45.603516,9.154785,45.400391,9.369141,45.412109z"/>
	<path style="&st1;" d="M10.356934,45.929688l-0.009766,0.057617l-0.155762,0.22168
		c-0.02002,0.026367-0.052734,0.036133-0.083008,0.023438l-0.042969-0.020508l-0.039063-0.042969l0.010254-0.056641
		l0.154785-0.226563c0.02002-0.025391,0.056641-0.036133,0.085449-0.022461l0.042969,0.022461L10.356934,45.929688z"/>
	<path style="&st1;" d="M7.669922,45.670898l0.105957,0.348633l-0.00293,0.06543L7.72998,46.124023
		c-0.029785,0.012695-0.049805,0.017578-0.060059,0.017578c-0.032715,0.006836-0.064453-0.012695-0.075684-0.048828L7.488281,45.75
		v-0.06543l0.042969-0.040039l0.053223-0.020508C7.621094,45.608398,7.656738,45.631836,7.669922,45.670898z"/>
	<path style="&st1;" d="M9.643555,45.624023l0.052734,0.020508l0.043457,0.040039V45.75l-0.106445,0.342773
		c-0.009766,0.036133-0.042969,0.055664-0.075195,0.047852c-0.010254,0-0.030273-0.004883-0.060059-0.017578l-0.042969-0.038086
		l-0.00293-0.066406l0.105957-0.348633C9.570801,45.631836,9.607422,45.608398,9.643555,45.624023z"/>
</g>
<g id="roughgrass_x5F_bd" style="&st0;">
	<path style="&st1;" d="M2.749512,45.348633l0.010254,0.056641L2.71875,45.448242l-0.042969,0.021484
		c-0.030273,0.012695-0.062988,0.00293-0.083008-0.023438l-0.155762-0.222656l-0.009766-0.057617l0.035645-0.042969
		l0.043457-0.022461c0.029785-0.013672,0.06543-0.00293,0.086426,0.022461L2.749512,45.348633z"/>
	<path style="&st1;" d="M3.892578,45.076172c0,0.003906,0,0.007813-0.003906,0.011719
		c-0.01123-0.015625-0.021973-0.025391-0.037109-0.040039c-0.047363-0.056641-0.133301-0.132813-0.133301-0.132813
		c-0.037109-0.123047,0.052734-0.328125,0.052734-0.328125c-0.014648-0.140625,0.010254-0.350586,0.010254-0.350586
		C4.125488,44.691406,3.892578,45.076172,3.892578,45.076172z"/>
	<path style="&st1;" d="M3.888672,45.086914c0.03418,0.041016,0.09375,0.05957,0.116211,0.173828l-0.054199,0.022461
		l-0.118652-0.010742C3.829102,45.205078,3.855469,45.154297,3.888672,45.086914z"/>
	<path style="&st1;" d="M4.945313,44.648438l-0.225098,0.224609c0,0-0.062012,0.052734-0.163086,0.290039l-0.010742,0.116211
		c0,0-0.087891,0.045898-0.200684-0.021484c0,0,0.051758-0.145508,0.062988-0.292969c0,0,0.009766-0.522461,0.253418-0.609375
		c0,0,0.181152-0.091797,0.067871,0.046875c0,0-0.148926,0.199219-0.152832,0.438477
		C4.578125,44.839844,4.730957,44.636719,4.945313,44.648438z"/>
	<path style="&st1;" d="M5.933105,45.166016L5.92334,45.223633l-0.155762,0.22168
		c-0.02002,0.026367-0.052734,0.036133-0.083008,0.023438l-0.042969-0.020508l-0.039063-0.042969l0.010254-0.056641
		l0.154785-0.226563c0.02002-0.025391,0.056641-0.036133,0.085449-0.022461l0.042969,0.022461L5.933105,45.166016z"/>
	<path style="&st1;" d="M3.246094,44.907227l0.105957,0.348633l-0.00293,0.06543l-0.042969,0.039063
		c-0.029785,0.012695-0.049805,0.017578-0.060059,0.017578c-0.032715,0.006836-0.064453-0.012695-0.075684-0.048828
		l-0.105957-0.342773v-0.06543l0.042969-0.040039l0.053223-0.020508C3.197266,44.844727,3.23291,44.868164,3.246094,44.907227z"/>
	<path style="&st1;" d="M5.219727,44.860352l0.052734,0.020508l0.043457,0.040039v0.06543l-0.106445,0.342773
		c-0.009766,0.036133-0.042969,0.055664-0.075195,0.047852c-0.010254,0-0.030273-0.004883-0.060059-0.017578L5.03125,45.321289
		l-0.00293-0.066406l0.105957-0.348633C5.146973,44.868164,5.183594,44.844727,5.219727,44.860352z"/>
</g>
</svg>
