<?xml version="1.0" encoding="utf-8"?>
<!-- Generator: Adobe Illustrator 16.0.3, SVG Export Plug-In . SVG Version: 6.00 Build 0)  -->
<!DOCTYPE svg PUBLIC "-//W3C//DTD SVG 1.1//EN" "http://www.w3.org/Graphics/SVG/1.1/DTD/svg11.dtd">
<svg version="1.1" id="Layer_1" xmlns="http://www.w3.org/2000/svg" xmlns:xlink="http://www.w3.org/1999/xlink" x="0px" y="0px"
	 width="12.0039px" height="12.0078px" viewBox="0 0 12.0039 12.0078" style="enable-background:new 0 0 12.0039 12.0078;"
	 xml:space="preserve">
<ellipse style="fill:#FFFFFF;" cx="5.96" cy="5.1289" rx="1.833" ry="2.25"/>
<g style="enable-background:new    ;">
	<path style="fill:#2837C6;" d="M6.0151,10.9521c0,0-0.1763,0-0.375-0.0352c-0.1763,0-0.4224-0.0225-0.5742-0.1289
		c-1.1367-0.7275-1.4648-1.3584-1.8398-2.6025c-0.0942-0.3154-0.1641-0.584-0.188-0.6904c-0.2583-0.2109-0.457-0.457-0.6089-0.7256
		c0,0,0.4336-0.4795,0.5269-1.0786c0,0,0.3281-2.6021,0.5508-2.9771c0.2344-0.3867,0.9961-1.0078,1.418-1.1128
		c0,0-0.0229-0.1289,0.082-0.2109c0.2461-0.2109,0.5859-0.2583,0.9961-0.2583c0.3979-0.0117,0.7627,0.0474,1.0088,0.2583
		c0.1045,0.082,0.0811,0.2109,0.0811,0.2109c0.4102,0.105,1.1846,0.7271,1.4189,1.1128c0.2207,0.375,0.5508,2.9761,0.5508,2.9761
		C9.1201,6.229,9.5889,6.7695,9.5889,6.7695C9.4375,7.0391,9.2363,7.2852,8.9805,7.4961C8.9561,7.6016,8.8867,7.8701,8.792,8.1875
		c-0.375,1.2422-0.7031,1.875-1.8398,2.6025c-0.1523,0.1045-0.3975,0.1289-0.5742,0.1289
		C6.1792,10.9521,6.0151,10.9521,6.0151,10.9521z M3.5649,7.8125c0.293,1.1348,0.6328,1.8848,1.7349,2.6006
		c0.105,0.0693,0.6563,0.0938,0.7031,0.0938c0.0352,0,0.5859-0.0225,0.6904-0.0938c1.1025-0.7158,1.4404-1.4658,1.7344-2.6025
		C8.1572,7.9043,7.6426,8.126,7.3838,8.373C6.9502,8.7832,6.001,8.748,6.001,8.748s-0.96,0.0352-1.394-0.375
		C4.3511,8.1279,3.835,7.9043,3.5649,7.8125z M6.0151,3.522C5.874,3.8389,5.687,3.8042,5.6509,3.7798
		c-0.7847-0.3037-0.375,1.043-0.375,1.043h0.3052L5.5581,4.8931l-1.02,0.1411l0.7378,0.6797L5.1011,6.6748l0.9019-0.4565
		L6.917,6.6748L6.7412,5.7139l0.7373-0.6797L6.46,4.894L6.437,4.8237h0.3052c0,0,0.4102-1.3477-0.375-1.043
		C6.3311,3.8042,6.144,3.8389,6.0151,3.522z M5.8618,4.6118H5.4292C5.3472,4.2612,5.335,3.8862,5.5811,3.979
		C5.6509,4.002,5.7451,4.0142,5.8618,3.9561V4.6118z M6.1548,3.9438C6.2842,4.0142,6.3662,4.0029,6.436,3.979
		c0.2456-0.0938,0.2339,0.2813,0.1411,0.6328H6.1548V3.9438z"/>
</g>
</svg>
