<?xml version="1.0" encoding="utf-8"?>
<!-- Generator: Adobe Illustrator 16.0.3, SVG Export Plug-In . SVG Version: 6.00 Build 0)  -->
<!DOCTYPE svg PUBLIC "-//W3C//DTD SVG 1.1//EN" "http://www.w3.org/Graphics/SVG/1.1/DTD/svg11.dtd">
<svg version="1.1" id="Layer_1" xmlns="http://www.w3.org/2000/svg" xmlns:xlink="http://www.w3.org/1999/xlink" x="0px" y="0px"
	 width="12.0039px" height="12.0078px" viewBox="0 0 12.0039 12.0078" style="enable-background:new 0 0 12.0039 12.0078;"
	 xml:space="preserve">
<g>
	<path style="fill:#FFFFFF;" d="M6.75,5.7227c-0.4927-0.1079-1.1997-0.168-1.1997-0.4678c0-0.2158,0.2871-0.2402,0.4551-0.2402
		c0.1318,0,0.252,0.0244,0.3359,0.0723C6.437,5.147,6.4858,5.231,6.4858,5.3745H7.457C7.4219,4.5352,6.6777,4.3193,5.9702,4.3193
		c-0.6357,0-1.4756,0.2158-1.4756,0.9956c0,0.8755,0.8271,0.8872,1.499,1.0552C6.186,6.418,6.5098,6.4663,6.5098,6.7178
		c0,0.252-0.2886,0.3359-0.4917,0.3359c-0.1563,0-0.2998-0.0361-0.3965-0.1084c-0.1074-0.084-0.1797-0.2041-0.1797-0.3594H4.4351
		C4.4702,7.4854,5.2505,7.749,6.0181,7.749c0.7319,0,1.5591-0.2754,1.5591-1.1631C7.5771,6.3223,7.4092,5.8545,6.75,5.7227z"/>
	<path style="fill:#4951C7;" d="M6.0054,1.6445L2.0835,6.0342l3.9219,4.3896L9.916,6.0342L6.0054,1.6445z M4.4351,6.5859h1.0068
		c0,0.1553,0.0723,0.2754,0.1797,0.3594c0.0967,0.0723,0.2402,0.1084,0.3965,0.1084c0.2031,0,0.4917-0.084,0.4917-0.3359
		c0-0.2515-0.3237-0.2998-0.5161-0.3477c-0.6719-0.168-1.499-0.1797-1.499-1.0552c0-0.7798,0.8398-0.9956,1.4756-0.9956
		c0.7075,0,1.4517,0.2158,1.4868,1.0552H6.4858c0-0.1436-0.0488-0.2275-0.1445-0.2876c-0.084-0.0479-0.2041-0.0723-0.3359-0.0723
		c-0.168,0-0.4551,0.0244-0.4551,0.2402c0,0.2998,0.707,0.3599,1.1997,0.4678c0.6592,0.1318,0.8271,0.5996,0.8271,0.8633
		c0,0.8877-0.8271,1.1631-1.5591,1.1631C5.2505,7.749,4.4702,7.4854,4.4351,6.5859z"/>
</g>
</svg>
