<?xml version="1.0" encoding="utf-8"?>
<!-- Generator: Adobe Illustrator 16.0.3, SVG Export Plug-In . SVG Version: 6.00 Build 0)  -->
<!DOCTYPE svg PUBLIC "-//W3C//DTD SVG 1.1//EN" "http://www.w3.org/Graphics/SVG/1.1/DTD/svg11.dtd">
<svg version="1.1" id="Layer_1" xmlns="http://www.w3.org/2000/svg" xmlns:xlink="http://www.w3.org/1999/xlink" x="0px" y="0px"
	 width="12.0039px" height="12.0078px" viewBox="0 0 12.0039 12.0078" style="enable-background:new 0 0 12.0039 12.0078;"
	 xml:space="preserve">
<path style="fill:#FFFFFF;" d="M7.5166,6.3003c0.3027,0,0.54-0.2373,0.54-0.54s-0.2373-0.54-0.54-0.54
	c-0.292,0-0.54,0.2373-0.54,0.54S7.2246,6.3003,7.5166,6.3003z"/>
<path style="fill:#FFFFFF;" d="M4.2319,6.3003c0.3027,0,0.54-0.2373,0.54-0.54s-0.2373-0.54-0.54-0.54
	c-0.292,0-0.54,0.2373-0.54,0.54S3.9399,6.3003,4.2319,6.3003z"/>
<path style="fill:#FFFFFF;" d="M5.8735,6.3003c0.3027,0,0.541-0.2373,0.541-0.54s-0.2383-0.54-0.541-0.54
	c-0.291,0-0.54,0.2373-0.54,0.54S5.5825,6.3003,5.8735,6.3003z"/>
<path style="fill:#FFFFFF;" d="M2.5894,6.3003c0.3027,0,0.541-0.2373,0.541-0.54s-0.2383-0.54-0.541-0.54
	c-0.291,0-0.54,0.2373-0.54,0.54S2.2983,6.3003,2.5894,6.3003z"/>
<path style="fill:#4951C7;" d="M9.1475,6.0088L8.9639,3.8696H7.1602v0.6807H4.9341l-0.335-1.3828H3.0757l0.335,1.3828H1.8657
	L1.1851,5.6304H0.0942c0,1.3286,0.2373,2.269,0.7021,2.3765h10.3179c0.1729-0.7988,0.4971-1.5874,0.7988-1.998H9.1475L9.1475,6.0088
	z M2.0493,5.7603c0-0.3027,0.249-0.54,0.54-0.54c0.3027,0,0.541,0.2373,0.541,0.54s-0.2383,0.54-0.541,0.54
	C2.2983,6.3003,2.0493,6.063,2.0493,5.7603z M3.6919,5.7603c0-0.3027,0.248-0.54,0.54-0.54c0.3027,0,0.54,0.2373,0.54,0.54
	s-0.2373,0.54-0.54,0.54C3.9399,6.3003,3.6919,6.063,3.6919,5.7603z M5.3335,5.7603c0-0.3027,0.249-0.54,0.54-0.54
	c0.3027,0,0.541,0.2373,0.541,0.54s-0.2383,0.54-0.541,0.54C5.5825,6.3003,5.3335,6.063,5.3335,5.7603z M7.5166,6.3003
	c-0.292,0-0.54-0.2373-0.54-0.54s0.248-0.54,0.54-0.54c0.3027,0,0.54,0.2373,0.54,0.54S7.8193,6.3003,7.5166,6.3003z"/>
</svg>
