<?xml version="1.0" encoding="utf-8"?>
<!-- Generator: Adobe Illustrator 15.0.2, SVG Export Plug-In . SVG Version: 6.00 Build 0)  -->
<!DOCTYPE svg PUBLIC "-//W3C//DTD SVG 1.1//EN" "http://www.w3.org/Graphics/SVG/1.1/DTD/svg11.dtd">
<svg version="1.1" id="Layer_1" xmlns="http://www.w3.org/2000/svg" xmlns:xlink="http://www.w3.org/1999/xlink" x="0px" y="0px"
	 width="50px" height="50px" viewBox="0 0 50 50" enable-background="new 0 0 50 50" xml:space="preserve">
<symbol  id="Scree1" viewBox="-0.462 -0.431 0.924 0.862">
	<path fill="#BEBEB4" d="M0.417,0.147c0,0-0.073,0.227-0.317,0.284c0,0-0.585-0.187-0.561-0.504c0,0,0.097-0.269,0.28-0.293
		c0,0,0.232-0.146,0.403,0C0.222-0.366,0.587-0.097,0.417,0.147z M0.271-0.183C0.07-0.53-0.298-0.094-0.298-0.094
		c-0.194,0.214,0.293,0.411,0.293,0.411C0.559,0.228,0.271-0.183,0.271-0.183z"/>
</symbol>
<symbol  id="Scree2" viewBox="-0.304 -0.212 0.608 0.424">
	<path fill="#BEBEB4" d="M0.213,0.145c0,0-0.173,0.151-0.345,0l-0.172-0.102v-0.127l0.172-0.117c0,0,0.25-0.045,0.308,0.049
		l0.128,0.243L0.213,0.145z M0.16-0.055C0.108-0.166-0.104-0.112-0.104-0.112c-0.108,0.074-0.09,0.126-0.09,0.126
		c0.021,0.104,0.18,0.104,0.18,0.104c0.089,0.016,0.209,0,0.209,0L0.16-0.055z"/>
</symbol>
<symbol  id="rock1_x5F_bd" viewBox="-0.721 -0.613 1.442 1.226">
	<g>
		<path fill="#BEBEB4" d="M-0.615-0.019c0.037,0.104,0.067,0.174,0.09,0.208c0.021,0.03,0.067,0.065,0.136,0.104
			c0.034,0.02,0.094,0.05,0.18,0.092c0.025,0.012,0.057,0.039,0.095,0.08c0.048,0.053,0.081,0.086,0.098,0.1
			c0.041,0.032,0.081,0.049,0.121,0.049c0.013,0,0.025-0.001,0.039-0.004c0.125-0.029,0.232-0.07,0.325-0.124
			c0.136-0.079,0.203-0.17,0.201-0.274c-0.001-0.069-0.008-0.157-0.02-0.264C0.637-0.156,0.63-0.22,0.63-0.243
			c0-0.026,0.003-0.042,0.01-0.051c0.054-0.067,0.081-0.128,0.081-0.183c0-0.065-0.048-0.101-0.146-0.105
			c-0.021-0.001-0.04-0.001-0.057-0.001c-0.057,0-0.119,0.008-0.187,0.023c-0.069,0.015-0.128,0.022-0.18,0.022
			c-0.035,0-0.076-0.002-0.121-0.007c-0.049-0.005-0.132-0.019-0.249-0.041c-0.092-0.018-0.16-0.026-0.204-0.026
			c-0.083,0-0.143,0.026-0.181,0.078c-0.08,0.082-0.12,0.159-0.12,0.231c0,0.016,0.003,0.031,0.009,0.044
			C-0.688-0.216-0.656-0.136-0.615-0.019z M-0.511-0.409c0.004-0.004,0.011-0.014,0.019-0.03c0.003-0.007,0.01-0.011,0.023-0.011
			c0.016,0,0.069,0.009,0.16,0.027c0.042,0.009,0.08,0.025,0.115,0.046c0.031,0.02,0.06,0.031,0.088,0.035s0.057,0.005,0.084,0.005
			c0.062,0,0.13-0.01,0.204-0.032C0.236-0.385,0.29-0.402,0.345-0.42c0.033-0.006,0.067-0.017,0.102-0.034
			c0.025-0.011,0.054-0.016,0.086-0.014c0.033,0.01,0.056,0.02,0.07,0.029c0,0.006-0.004,0.015-0.012,0.026
			c-0.014,0.02-0.029,0.04-0.044,0.06C0.537-0.337,0.533-0.312,0.533-0.277c0,0.023,0.003,0.07,0.011,0.14
			c0.007,0.071,0.01,0.13,0.01,0.177c0.002,0.074,0.004,0.131,0.007,0.17c0,0.027-0.023,0.045-0.071,0.053
			C0.426,0.275,0.381,0.293,0.355,0.317C0.338,0.333,0.311,0.361,0.271,0.401C0.243,0.43,0.221,0.451,0.204,0.463
			C0.179,0.48,0.151,0.493,0.122,0.5c-0.02,0.004-0.043-0.013-0.07-0.052C0.03,0.417,0.008,0.386-0.014,0.355
			c-0.024-0.022-0.061-0.037-0.107-0.043c-0.056-0.008-0.09-0.015-0.101-0.02c-0.097-0.044-0.167-0.1-0.208-0.167
			C-0.45,0.101-0.466,0.071-0.48,0.035c-0.004-0.008-0.015-0.038-0.034-0.088c-0.016-0.04-0.033-0.08-0.049-0.12
			c-0.013-0.034-0.018-0.067-0.017-0.1C-0.579-0.314-0.556-0.36-0.511-0.409z"/>
	</g>
</symbol>
<symbol  id="rock2_x5F_bd" viewBox="-0.915 -0.777 1.829 1.555">
	<g>
		<path fill="#BEBEB4" d="M0.902-0.328C0.91-0.346,0.915-0.364,0.915-0.385c0-0.092-0.051-0.189-0.152-0.293
			C0.714-0.744,0.638-0.777,0.533-0.777c-0.056,0-0.142,0.011-0.258,0.033C0.127-0.716,0.022-0.698-0.04-0.692
			c-0.057,0.006-0.108,0.01-0.154,0.01c-0.065,0-0.14-0.01-0.228-0.029C-0.508-0.73-0.587-0.74-0.658-0.74
			c-0.022,0-0.046,0-0.072,0.002c-0.124,0.006-0.185,0.051-0.185,0.134c0,0.069,0.034,0.146,0.103,0.231
			C-0.804-0.362-0.8-0.341-0.8-0.308c0,0.029-0.008,0.11-0.024,0.241C-0.839,0.068-0.848,0.18-0.849,0.267
			c-0.002,0.131,0.082,0.248,0.255,0.347c0.116,0.069,0.253,0.121,0.412,0.158c0.017,0.004,0.033,0.005,0.049,0.005
			c0.05,0,0.102-0.021,0.153-0.062c0.022-0.017,0.063-0.059,0.125-0.126c0.048-0.052,0.088-0.085,0.12-0.101
			C0.374,0.435,0.45,0.396,0.492,0.372C0.581,0.322,0.638,0.278,0.666,0.24c0.03-0.043,0.068-0.131,0.114-0.263
			C0.832-0.172,0.873-0.274,0.902-0.328z M0.735-0.346C0.737-0.305,0.729-0.262,0.714-0.22C0.693-0.169,0.672-0.118,0.651-0.067
			C0.628-0.003,0.614,0.035,0.609,0.045C0.591,0.09,0.57,0.128,0.546,0.16C0.494,0.245,0.406,0.316,0.283,0.372
			C0.268,0.378,0.226,0.386,0.154,0.396c-0.06,0.008-0.105,0.026-0.136,0.055C-0.01,0.49-0.038,0.529-0.065,0.567
			c-0.035,0.05-0.065,0.072-0.089,0.066c-0.038-0.009-0.072-0.024-0.104-0.046c-0.021-0.016-0.05-0.042-0.085-0.078
			C-0.394,0.458-0.43,0.422-0.45,0.403c-0.034-0.031-0.091-0.054-0.171-0.068c-0.061-0.01-0.091-0.033-0.09-0.067
			c0.003-0.05,0.005-0.122,0.008-0.216c0-0.06,0.004-0.135,0.013-0.225s0.014-0.149,0.014-0.178c0-0.044-0.006-0.076-0.018-0.095
			C-0.712-0.473-0.731-0.498-0.75-0.522c-0.01-0.014-0.016-0.026-0.016-0.033c0.018-0.012,0.048-0.024,0.089-0.037
			c0.041-0.002,0.077,0.003,0.109,0.018c0.044,0.021,0.087,0.035,0.13,0.043c0.069,0.022,0.138,0.043,0.206,0.064
			c0.094,0.027,0.18,0.041,0.259,0.041c0.035,0,0.071-0.002,0.107-0.006c0.037-0.004,0.074-0.019,0.113-0.044
			C0.292-0.505,0.34-0.524,0.393-0.536C0.507-0.56,0.575-0.571,0.595-0.571c0.016,0,0.025,0.004,0.029,0.014
			c0.01,0.021,0.018,0.033,0.024,0.039C0.705-0.457,0.734-0.399,0.735-0.346z"/>
	</g>
</symbol>
<use xlink:href="#rock2_x5F_bd"  width="1.829" height="1.555" x="-0.915" y="-0.777" transform="matrix(1 0 0 -1 8.3242 40.1973)" overflow="visible"/>
<use xlink:href="#rock2_x5F_bd"  width="1.829" height="1.555" x="-0.915" y="-0.777" transform="matrix(1 0 0 -1 10.9932 37.9258)" overflow="visible"/>
<use xlink:href="#rock1_x5F_bd"  width="1.442" height="1.226" x="-0.721" y="-0.613" transform="matrix(1 0 0 -1 6.5693 37.1621)" overflow="visible"/>
<use xlink:href="#rock2_x5F_bd"  width="1.829" height="1.555" x="-0.915" y="-0.777" transform="matrix(1 0 0 -1 26.5049 34.9219)" overflow="visible"/>
<use xlink:href="#rock1_x5F_bd"  width="1.442" height="1.226" x="-0.721" y="-0.613" transform="matrix(1 0 0 -1 29.1738 32.6504)" overflow="visible"/>
<use xlink:href="#rock1_x5F_bd"  width="1.442" height="1.226" x="-0.721" y="-0.613" transform="matrix(1 0 0 -1 24.75 31.8867)" overflow="visible"/>
<use xlink:href="#rock1_x5F_bd"  width="1.442" height="1.226" x="-0.721" y="-0.613" transform="matrix(1 0 0 -1 6.1162 26.2402)" overflow="visible"/>
<use xlink:href="#rock1_x5F_bd"  width="1.442" height="1.226" x="-0.721" y="-0.613" transform="matrix(1 0 0 -1 8.7852 23.9688)" overflow="visible"/>
<use xlink:href="#rock1_x5F_bd"  width="1.442" height="1.226" x="-0.721" y="-0.613" transform="matrix(1 0 0 -1 4.3613 23.2051)" overflow="visible"/>
<use xlink:href="#rock1_x5F_bd"  width="1.442" height="1.226" x="-0.721" y="-0.613" transform="matrix(1 0 0 -1 10.5088 15.8301)" overflow="visible"/>
<use xlink:href="#rock1_x5F_bd"  width="1.442" height="1.226" x="-0.721" y="-0.613" transform="matrix(1 0 0 -1 13.1777 13.5586)" overflow="visible"/>
<use xlink:href="#rock1_x5F_bd"  width="1.442" height="1.226" x="-0.721" y="-0.613" transform="matrix(1 0 0 -1 8.7539 12.7949)" overflow="visible"/>
<use xlink:href="#rock1_x5F_bd"  width="1.442" height="1.226" x="-0.721" y="-0.613" transform="matrix(1 0 0 -1 25.793 6.0469)" overflow="visible"/>
<use xlink:href="#rock1_x5F_bd"  width="1.442" height="1.226" x="-0.721" y="-0.613" transform="matrix(1 0 0 -1 28.4619 3.7754)" overflow="visible"/>
<use xlink:href="#rock1_x5F_bd"  width="1.442" height="1.226" x="-0.721" y="-0.613" transform="matrix(1 0 0 -1 24.0376 3.0117)" overflow="visible"/>
<use xlink:href="#rock1_x5F_bd"  width="1.442" height="1.226" x="-0.721" y="-0.613" transform="matrix(1 0 0 -1 36.9756 14.0938)" overflow="visible"/>
<use xlink:href="#rock1_x5F_bd"  width="1.442" height="1.226" x="-0.721" y="-0.613" transform="matrix(1 0 0 -1 39.6445 11.8223)" overflow="visible"/>
<use xlink:href="#rock1_x5F_bd"  width="1.442" height="1.226" x="-0.721" y="-0.613" transform="matrix(1 0 0 -1 35.2197 11.0586)" overflow="visible"/>
<use xlink:href="#rock1_x5F_bd"  width="1.442" height="1.226" x="-0.721" y="-0.613" transform="matrix(1 0 0 -1 42.4893 5.709)" overflow="visible"/>
<use xlink:href="#rock1_x5F_bd"  width="1.442" height="1.226" x="-0.721" y="-0.613" transform="matrix(1 0 0 -1 45.1582 3.4375)" overflow="visible"/>
<use xlink:href="#rock1_x5F_bd"  width="1.442" height="1.226" x="-0.721" y="-0.613" transform="matrix(1 0 0 -1 40.7334 2.6738)" overflow="visible"/>
<use xlink:href="#rock1_x5F_bd"  width="1.442" height="1.226" x="-0.721" y="-0.613" transform="matrix(1 0 0 -1 37.4727 23.9717)" overflow="visible"/>
<use xlink:href="#rock1_x5F_bd"  width="1.442" height="1.226" x="-0.721" y="-0.613" transform="matrix(1 0 0 -1 40.1416 21.7002)" overflow="visible"/>
<use xlink:href="#rock1_x5F_bd"  width="1.442" height="1.226" x="-0.721" y="-0.613" transform="matrix(1 0 0 -1 35.7168 20.9365)" overflow="visible"/>
<use xlink:href="#rock2_x5F_bd"  width="1.829" height="1.555" x="-0.915" y="-0.777" transform="matrix(1 0 0 -1 42.7412 35.874)" overflow="visible"/>
<use xlink:href="#rock1_x5F_bd"  width="1.442" height="1.226" x="-0.721" y="-0.613" transform="matrix(1 0 0 -1 45.4092 33.6025)" overflow="visible"/>
<use xlink:href="#rock1_x5F_bd"  width="1.442" height="1.226" x="-0.721" y="-0.613" transform="matrix(1 0 0 -1 40.9854 32.8389)" overflow="visible"/>
<use xlink:href="#rock2_x5F_bd"  width="1.829" height="1.555" x="-0.915" y="-0.777" transform="matrix(1 0 0 -1 29.7109 46.4756)" overflow="visible"/>
<use xlink:href="#rock2_x5F_bd"  width="1.829" height="1.555" x="-0.915" y="-0.777" transform="matrix(1 0 0 -1 32.3789 44.2041)" overflow="visible"/>
<use xlink:href="#rock2_x5F_bd"  width="1.829" height="1.555" x="-0.915" y="-0.777" transform="matrix(1 0 0 -1 27.9551 43.4404)" overflow="visible"/>
<use xlink:href="#rock2_x5F_bd"  width="1.829" height="1.555" x="-0.915" y="-0.777" transform="matrix(1 0 0 -1 5.9351 47.8906)" overflow="visible"/>
<use xlink:href="#rock2_x5F_bd"  width="1.829" height="1.555" x="-0.915" y="-0.777" transform="matrix(1 0 0 -1 8.604 45.6191)" overflow="visible"/>
<use xlink:href="#rock2_x5F_bd"  width="1.829" height="1.555" x="-0.915" y="-0.777" transform="matrix(1 0 0 -1 4.1802 44.8555)" overflow="visible"/>
<use xlink:href="#Scree1"  width="0.924" height="0.862" x="-0.462" y="-0.431" transform="matrix(1 0 0 -1 2.5 40.917)" overflow="visible"/>
<use xlink:href="#Scree1"  width="0.924" height="0.862" x="-0.462" y="-0.431" transform="matrix(1 0 0 -1 2.0835 36.333)" overflow="visible"/>
<use xlink:href="#Scree1"  width="0.924" height="0.862" x="-0.462" y="-0.431" transform="matrix(1 0 0 -1 48.417 39.917)" overflow="visible"/>
<use xlink:href="#Scree1"  width="0.924" height="0.862" x="-0.462" y="-0.431" transform="matrix(1 0 0 -1 45.417 44.167)" overflow="visible"/>
<use xlink:href="#Scree1"  width="0.924" height="0.862" x="-0.462" y="-0.431" transform="matrix(1 0 0 -1 43.667 41)" overflow="visible"/>
<use xlink:href="#Scree1"  width="0.924" height="0.862" x="-0.462" y="-0.431" transform="matrix(1 0 0 -1 47.917 46)" overflow="visible"/>
<use xlink:href="#Scree1"  width="0.924" height="0.862" x="-0.462" y="-0.431" transform="matrix(1 0 0 -1 43.917 47.917)" overflow="visible"/>
<use xlink:href="#Scree1"  width="0.924" height="0.862" x="-0.462" y="-0.431" transform="matrix(1 0 0 -1 38.334 48.5)" overflow="visible"/>
<use xlink:href="#Scree1"  width="0.924" height="0.862" x="-0.462" y="-0.431" transform="matrix(1 0 0 -1 33.167 48.25)" overflow="visible"/>
<use xlink:href="#Scree1"  width="0.924" height="0.862" x="-0.462" y="-0.431" transform="matrix(1 0 0 -1 25.3335 48.583)" overflow="visible"/>
<use xlink:href="#Scree1"  width="0.924" height="0.862" x="-0.462" y="-0.431" transform="matrix(1 0 0 -1 19.3335 47.833)" overflow="visible"/>
<use xlink:href="#Scree1"  width="0.924" height="0.862" x="-0.462" y="-0.431" transform="matrix(1 0 0 -1 13.0835 48.583)" overflow="visible"/>
<use xlink:href="#Scree1"  width="0.924" height="0.862" x="-0.462" y="-0.431" transform="matrix(1 0 0 -1 9.167 48)" overflow="visible"/>
<use xlink:href="#Scree1"  width="0.924" height="0.862" x="-0.462" y="-0.431" transform="matrix(1 0 0 -1 0.8335 48.083)" overflow="visible"/>
<use xlink:href="#Scree1"  width="0.924" height="0.862" x="-0.462" y="-0.431" transform="matrix(1 0 0 -1 7.417 42.75)" overflow="visible"/>
<use xlink:href="#Scree1"  width="0.924" height="0.862" x="-0.462" y="-0.431" transform="matrix(1 0 0 -1 40.834 45.083)" overflow="visible"/>
<use xlink:href="#Scree1"  width="0.924" height="0.862" x="-0.462" y="-0.431" transform="matrix(1 0 0 -1 36 45.5)" overflow="visible"/>
<use xlink:href="#Scree1"  width="0.924" height="0.862" x="-0.462" y="-0.431" transform="matrix(1 0 0 -1 12.25 44.667)" overflow="visible"/>
<use xlink:href="#Scree1"  width="0.924" height="0.862" x="-0.462" y="-0.431" transform="matrix(1 0 0 -1 15.917 45)" overflow="visible"/>
<use xlink:href="#Scree1"  width="0.924" height="0.862" x="-0.462" y="-0.431" transform="matrix(1 0 0 -1 22.667 45.167)" overflow="visible"/>
<use xlink:href="#Scree1"  width="0.924" height="0.862" x="-0.462" y="-0.431" transform="matrix(1 0 0 -1 11.667 41.417)" overflow="visible"/>
<use xlink:href="#Scree1"  width="0.924" height="0.862" x="-0.462" y="-0.431" transform="matrix(1 0 0 -1 16.5 40.583)" overflow="visible"/>
<use xlink:href="#Scree1"  width="0.924" height="0.862" x="-0.462" y="-0.431" transform="matrix(1 0 0 -1 19.917 42.583)" overflow="visible"/>
<use xlink:href="#Scree1"  width="0.924" height="0.862" x="-0.462" y="-0.431" transform="matrix(1 0 0 -1 25.3335 40.5)" overflow="visible"/>
<use xlink:href="#Scree1"  width="0.924" height="0.862" x="-0.462" y="-0.431" transform="matrix(1 0 0 -1 38.584 41.75)" overflow="visible"/>
<use xlink:href="#Scree1"  width="0.924" height="0.862" x="-0.462" y="-0.431" transform="matrix(1 0 0 -1 35.25 39.583)" overflow="visible"/>
<use xlink:href="#Scree1"  width="0.924" height="0.862" x="-0.462" y="-0.431" transform="matrix(1 0 0 -1 30.5 41.917)" overflow="visible"/>
<use xlink:href="#Scree1"  width="0.924" height="0.862" x="-0.462" y="-0.431" transform="matrix(1 0 0 -1 39.917 37.833)" overflow="visible"/>
<use xlink:href="#Scree1"  width="0.924" height="0.862" x="-0.462" y="-0.431" transform="matrix(1 0 0 -1 46.5 37.167)" overflow="visible"/>
<use xlink:href="#Scree1"  width="0.924" height="0.862" x="-0.462" y="-0.431" transform="matrix(1 0 0 -1 14.3335 36.667)" overflow="visible"/>
<use xlink:href="#Scree1"  width="0.924" height="0.862" x="-0.462" y="-0.431" transform="matrix(1 0 0 -1 19.167 37.833)" overflow="visible"/>
<use xlink:href="#Scree1"  width="0.924" height="0.862" x="-0.462" y="-0.431" transform="matrix(1 0 0 -1 23.417 36.417)" overflow="visible"/>
<use xlink:href="#Scree1"  width="0.924" height="0.862" x="-0.462" y="-0.431" transform="matrix(1 0 0 -1 30.25 37.5)" overflow="visible"/>
<use xlink:href="#Scree1"  width="0.924" height="0.862" x="-0.462" y="-0.431" transform="matrix(1 0 0 -1 35.584 36.167)" overflow="visible"/>
<use xlink:href="#Scree1"  width="0.924" height="0.862" x="-0.462" y="-0.431" transform="matrix(1 0 0 -1 13.25 28.5)" overflow="visible"/>
<use xlink:href="#Scree1"  width="0.924" height="0.862" x="-0.462" y="-0.431" transform="matrix(1 0 0 -1 13.417 21.75)" overflow="visible"/>
<use xlink:href="#Scree1"  width="0.924" height="0.862" x="-0.462" y="-0.431" transform="matrix(1 0 0 -1 14.8335 16)" overflow="visible"/>
<use xlink:href="#Scree1"  width="0.924" height="0.862" x="-0.462" y="-0.431" transform="matrix(1 0 0 -1 13.3335 9.0835)" overflow="visible"/>
<use xlink:href="#Scree1"  width="0.924" height="0.862" x="-0.462" y="-0.431" transform="matrix(1 0 0 -1 12.5 3.0835)" overflow="visible"/>
<use xlink:href="#Scree1"  width="0.924" height="0.862" x="-0.462" y="-0.431" transform="matrix(1 0 0 -1 10.5 31.583)" overflow="visible"/>
<use xlink:href="#Scree1"  width="0.924" height="0.862" x="-0.462" y="-0.431" transform="matrix(1 0 0 -1 16.167 32.5)" overflow="visible"/>
<use xlink:href="#Scree1"  width="0.924" height="0.862" x="-0.462" y="-0.431" transform="matrix(1 0 0 -1 14.5835 24)" overflow="visible"/>
<use xlink:href="#Scree1"  width="0.924" height="0.862" x="-0.462" y="-0.431" transform="matrix(1 0 0 -1 34.584 1.5835)" overflow="visible"/>
<use xlink:href="#Scree1"  width="0.924" height="0.862" x="-0.462" y="-0.431" transform="matrix(1 0 0 -1 33.667 5.5)" overflow="visible"/>
<use xlink:href="#Scree1"  width="0.924" height="0.862" x="-0.462" y="-0.431" transform="matrix(1 0 0 -1 32.084 10.0835)" overflow="visible"/>
<use xlink:href="#Scree1"  width="0.924" height="0.862" x="-0.462" y="-0.431" transform="matrix(1 0 0 -1 32.084 14.7065)" overflow="visible"/>
<use xlink:href="#Scree1"  width="0.924" height="0.862" x="-0.462" y="-0.431" transform="matrix(1 0 0 -1 29.417 17.25)" overflow="visible"/>
<use xlink:href="#Scree1"  width="0.924" height="0.862" x="-0.462" y="-0.431" transform="matrix(1 0 0 -1 28.25 20.5)" overflow="visible"/>
<use xlink:href="#Scree1"  width="0.924" height="0.862" x="-0.462" y="-0.431" transform="matrix(1 0 0 -1 27.7412 24.4307)" overflow="visible"/>
<use xlink:href="#Scree1"  width="0.924" height="0.862" x="-0.462" y="-0.431" transform="matrix(1 0 0 -1 26.5 28.25)" overflow="visible"/>
<use xlink:href="#Scree1"  width="0.924" height="0.862" x="-0.462" y="-0.431" transform="matrix(1 0 0 -1 32.834 19)" overflow="visible"/>
<use xlink:href="#Scree1"  width="0.924" height="0.862" x="-0.462" y="-0.431" transform="matrix(1 0 0 -1 33.417 22.1665)" overflow="visible"/>
<use xlink:href="#Scree1"  width="0.924" height="0.862" x="-0.462" y="-0.431" transform="matrix(1 0 0 -1 34.167 25.9165)" overflow="visible"/>
<use xlink:href="#Scree1"  width="0.924" height="0.862" x="-0.462" y="-0.431" transform="matrix(1 0 0 -1 32.25 33.333)" overflow="visible"/>
<use xlink:href="#Scree1"  width="0.924" height="0.862" x="-0.462" y="-0.431" transform="matrix(1 0 0 -1 33.417 29.583)" overflow="visible"/>
<use xlink:href="#Scree1"  width="0.924" height="0.862" x="-0.462" y="-0.431" transform="matrix(1 0 0 -1 36.25 32)" overflow="visible"/>
<use xlink:href="#Scree1"  width="0.924" height="0.862" x="-0.462" y="-0.431" transform="matrix(1 0 0 -1 36.167 17.3335)" overflow="visible"/>
<use xlink:href="#Scree1"  width="0.924" height="0.862" x="-0.462" y="-0.431" transform="matrix(1 0 0 -1 39.25 19.1665)" overflow="visible"/>
<use xlink:href="#Scree2"  width="0.608" height="0.424" x="-0.304" y="-0.212" transform="matrix(1 0 0 -1 3.75 2)" overflow="visible"/>
<use xlink:href="#Scree2"  width="0.608" height="0.424" x="-0.304" y="-0.212" transform="matrix(1 0 0 -1 3.5 4.4165)" overflow="visible"/>
<use xlink:href="#Scree2"  width="0.608" height="0.424" x="-0.304" y="-0.212" transform="matrix(1 0 0 -1 3.4375 8)" overflow="visible"/>
<use xlink:href="#Scree2"  width="0.608" height="0.424" x="-0.304" y="-0.212" transform="matrix(1 0 0 -1 6.7085 5.667)" overflow="visible"/>
<use xlink:href="#Scree2"  width="0.608" height="0.424" x="-0.304" y="-0.212" transform="matrix(1 0 0 -1 0.7915 9.792)" overflow="visible"/>
<use xlink:href="#Scree2"  width="0.608" height="0.424" x="-0.304" y="-0.212" transform="matrix(1 0 0 -1 1.375 6.542)" overflow="visible"/>
<use xlink:href="#Scree2"  width="0.608" height="0.424" x="-0.304" y="-0.212" transform="matrix(1 0 0 -1 0.9165 13.667)" overflow="visible"/>
<use xlink:href="#Scree2"  width="0.608" height="0.424" x="-0.304" y="-0.212" transform="matrix(1 0 0 -1 2.6665 11)" overflow="visible"/>
<use xlink:href="#Scree2"  width="0.608" height="0.424" x="-0.304" y="-0.212" transform="matrix(1 0 0 -1 2.8335 16)" overflow="visible"/>
<use xlink:href="#Scree2"  width="0.608" height="0.424" x="-0.304" y="-0.212" transform="matrix(1 0 0 -1 5.375 10.5835)" overflow="visible"/>
<use xlink:href="#Scree2"  width="0.608" height="0.424" x="-0.304" y="-0.212" transform="matrix(1 0 0 -1 6.0835 13.167)" overflow="visible"/>
<use xlink:href="#Scree2"  width="0.608" height="0.424" x="-0.304" y="-0.212" transform="matrix(1 0 0 -1 6.25 15.667)" overflow="visible"/>
<use xlink:href="#Scree2"  width="0.608" height="0.424" x="-0.304" y="-0.212" transform="matrix(1 0 0 -1 5 18.2085)" overflow="visible"/>
<use xlink:href="#Scree2"  width="0.608" height="0.424" x="-0.304" y="-0.212" transform="matrix(1 0 0 -1 7.4419 18.5688)" overflow="visible"/>
<use xlink:href="#Scree2"  width="0.608" height="0.424" x="-0.304" y="-0.212" transform="matrix(1 0 0 -1 8.7085 21.2085)" overflow="visible"/>
<use xlink:href="#Scree2"  width="0.608" height="0.424" x="-0.304" y="-0.212" transform="matrix(1 0 0 -1 6.625 23.292)" overflow="visible"/>
<use xlink:href="#Scree2"  width="0.608" height="0.424" x="-0.304" y="-0.212" transform="matrix(1 0 0 -1 4.0835 20.3335)" overflow="visible"/>
<use xlink:href="#Scree2"  width="0.608" height="0.424" x="-0.304" y="-0.212" transform="matrix(1 0 0 -1 1.5415 22.542)" overflow="visible"/>
<use xlink:href="#Scree2"  width="0.608" height="0.424" x="-0.304" y="-0.212" transform="matrix(1 0 0 -1 11.2085 1.292)" overflow="visible"/>
<use xlink:href="#Scree2"  width="0.608" height="0.424" x="-0.304" y="-0.212" transform="matrix(1 0 0 -1 10.75 3.8335)" overflow="visible"/>
<use xlink:href="#Scree2"  width="0.608" height="0.424" x="-0.304" y="-0.212" transform="matrix(1 0 0 -1 10.5 6.125)" overflow="visible"/>
<use xlink:href="#Scree2"  width="0.608" height="0.424" x="-0.304" y="-0.212" transform="matrix(1 0 0 -1 9.8335 8.3335)" overflow="visible"/>
<use xlink:href="#Scree2"  width="0.608" height="0.424" x="-0.304" y="-0.212" transform="matrix(1 0 0 -1 9.2915 10.792)" overflow="visible"/>
<use xlink:href="#Scree2"  width="0.608" height="0.424" x="-0.304" y="-0.212" transform="matrix(1 0 0 -1 12.125 6.167)" overflow="visible"/>
<use xlink:href="#Scree2"  width="0.608" height="0.424" x="-0.304" y="-0.212" transform="matrix(1 0 0 -1 14.0835 10.917)" overflow="visible"/>
<use xlink:href="#Scree2"  width="0.608" height="0.424" x="-0.304" y="-0.212" transform="matrix(1 0 0 -1 11.5835 11.667)" overflow="visible"/>
<use xlink:href="#Scree2"  width="0.608" height="0.424" x="-0.304" y="-0.212" transform="matrix(1 0 0 -1 18.7915 1.375)" overflow="visible"/>
<use xlink:href="#Scree2"  width="0.608" height="0.424" x="-0.304" y="-0.212" transform="matrix(1 0 0 -1 18.25 3.292)" overflow="visible"/>
<use xlink:href="#Scree2"  width="0.608" height="0.424" x="-0.304" y="-0.212" transform="matrix(1 0 0 -1 17.8335 4.792)" overflow="visible"/>
<use xlink:href="#Scree2"  width="0.608" height="0.424" x="-0.304" y="-0.212" transform="matrix(1 0 0 -1 17.0835 7.292)" overflow="visible"/>
<use xlink:href="#Scree2"  width="0.608" height="0.424" x="-0.304" y="-0.212" transform="matrix(1 0 0 -1 16.4585 9.9585)" overflow="visible"/>
<use xlink:href="#Scree2"  width="0.608" height="0.424" x="-0.304" y="-0.212" transform="matrix(1 0 0 -1 18.3335 9.7085)" overflow="visible"/>
<use xlink:href="#Scree2"  width="0.608" height="0.424" x="-0.304" y="-0.212" transform="matrix(1 0 0 -1 19.0415 11.5)" overflow="visible"/>
<use xlink:href="#Scree2"  width="0.608" height="0.424" x="-0.304" y="-0.212" transform="matrix(1 0 0 -1 19.6665 13.292)" overflow="visible"/>
<use xlink:href="#Scree2"  width="0.608" height="0.424" x="-0.304" y="-0.212" transform="matrix(1 0 0 -1 19.2085 15.375)" overflow="visible"/>
<use xlink:href="#Scree2"  width="0.608" height="0.424" x="-0.304" y="-0.212" transform="matrix(1 0 0 -1 18 17.625)" overflow="visible"/>
<use xlink:href="#Scree2"  width="0.608" height="0.424" x="-0.304" y="-0.212" transform="matrix(1 0 0 -1 16.0415 20.667)" overflow="visible"/>
<use xlink:href="#Scree2"  width="0.608" height="0.424" x="-0.304" y="-0.212" transform="matrix(1 0 0 -1 20.2915 17.25)" overflow="visible"/>
<use xlink:href="#Scree2"  width="0.608" height="0.424" x="-0.304" y="-0.212" transform="matrix(1 0 0 -1 20.9165 19.5)" overflow="visible"/>
<use xlink:href="#Scree2"  width="0.608" height="0.424" x="-0.304" y="-0.212" transform="matrix(1 0 0 -1 21.125 22.3335)" overflow="visible"/>
<use xlink:href="#Scree2"  width="0.608" height="0.424" x="-0.304" y="-0.212" transform="matrix(1 0 0 -1 21.4165 25.2085)" overflow="visible"/>
<use xlink:href="#Scree2"  width="0.608" height="0.424" x="-0.304" y="-0.212" transform="matrix(1 0 0 -1 23.4165 28)" overflow="visible"/>
<use xlink:href="#Scree2"  width="0.608" height="0.424" x="-0.304" y="-0.212" transform="matrix(1 0 0 -1 20.2915 28.625)" overflow="visible"/>
<use xlink:href="#Scree2"  width="0.608" height="0.424" x="-0.304" y="-0.212" transform="matrix(1 0 0 -1 19.6665 31.583)" overflow="visible"/>
<use xlink:href="#Scree2"  width="0.608" height="0.424" x="-0.304" y="-0.212" transform="matrix(1 0 0 -1 8.8125 34.4375)" overflow="visible"/>
<use xlink:href="#Scree2"  width="0.608" height="0.424" x="-0.304" y="-0.212" transform="matrix(1 0 0 -1 38.8125 35)" overflow="visible"/>
<use xlink:href="#Scree2"  width="0.608" height="0.424" x="-0.304" y="-0.212" transform="matrix(1 0 0 -1 18 34.9375)" overflow="visible"/>
<use xlink:href="#Scree2"  width="0.608" height="0.424" x="-0.304" y="-0.212" transform="matrix(1 0 0 -1 22.1875 32.375)" overflow="visible"/>
<use xlink:href="#Scree2"  width="0.608" height="0.424" x="-0.304" y="-0.212" transform="matrix(1 0 0 -1 12.875 32.875)" overflow="visible"/>
<use xlink:href="#Scree2"  width="0.608" height="0.424" x="-0.304" y="-0.212" transform="matrix(1 0 0 -1 5 33)" overflow="visible"/>
<use xlink:href="#Scree2"  width="0.608" height="0.424" x="-0.304" y="-0.212" transform="matrix(1 0 0 -1 2 30.375)" overflow="visible"/>
<use xlink:href="#Scree2"  width="0.608" height="0.424" x="-0.304" y="-0.212" transform="matrix(1 0 0 -1 2.4375 26.25)" overflow="visible"/>
<use xlink:href="#Scree2"  width="0.608" height="0.424" x="-0.304" y="-0.212" transform="matrix(1 0 0 -1 49.0625 26.125)" overflow="visible"/>
<use xlink:href="#Scree2"  width="0.608" height="0.424" x="-0.304" y="-0.212" transform="matrix(1 0 0 -1 49.125 33.875)" overflow="visible"/>
<use xlink:href="#Scree2"  width="0.608" height="0.424" x="-0.304" y="-0.212" transform="matrix(1 0 0 -1 45.875 30.3125)" overflow="visible"/>
<use xlink:href="#Scree2"  width="0.608" height="0.424" x="-0.304" y="-0.212" transform="matrix(1 0 0 -1 41.25 29.6875)" overflow="visible"/>
<use xlink:href="#Scree2"  width="0.608" height="0.424" x="-0.304" y="-0.212" transform="matrix(1 0 0 -1 26.1328 4.0503)" overflow="visible"/>
<use xlink:href="#Scree2"  width="0.608" height="0.424" x="-0.304" y="-0.212" transform="matrix(1 0 0 -1 23.4375 7.25)" overflow="visible"/>
<use xlink:href="#Scree2"  width="0.608" height="0.424" x="-0.304" y="-0.212" transform="matrix(1 0 0 -1 26.4375 7.8125)" overflow="visible"/>
<use xlink:href="#Scree2"  width="0.608" height="0.424" x="-0.304" y="-0.212" transform="matrix(1 0 0 -1 28.5625 6.6875)" overflow="visible"/>
<use xlink:href="#Scree2"  width="0.608" height="0.424" x="-0.304" y="-0.212" transform="matrix(1 0 0 -1 22.25 9.0625)" overflow="visible"/>
<use xlink:href="#Scree2"  width="0.608" height="0.424" x="-0.304" y="-0.212" transform="matrix(1 0 0 -1 24.5625 9.375)" overflow="visible"/>
<use xlink:href="#Scree2"  width="0.608" height="0.424" x="-0.304" y="-0.212" transform="matrix(1 0 0 -1 27.4375 9.75)" overflow="visible"/>
<use xlink:href="#Scree2"  width="0.608" height="0.424" x="-0.304" y="-0.212" transform="matrix(1 0 0 -1 29.875 8.4375)" overflow="visible"/>
<use xlink:href="#Scree2"  width="0.608" height="0.424" x="-0.304" y="-0.212" transform="matrix(1 0 0 -1 21.6875 11.9375)" overflow="visible"/>
<use xlink:href="#Scree2"  width="0.608" height="0.424" x="-0.304" y="-0.212" transform="matrix(1 0 0 -1 24.5625 11.8125)" overflow="visible"/>
<use xlink:href="#Scree2"  width="0.608" height="0.424" x="-0.304" y="-0.212" transform="matrix(1 0 0 -1 28.1875 11.4375)" overflow="visible"/>
<use xlink:href="#Scree2"  width="0.608" height="0.424" x="-0.304" y="-0.212" transform="matrix(1 0 0 -1 32.6875 12.1875)" overflow="visible"/>
<use xlink:href="#Scree2"  width="0.608" height="0.424" x="-0.304" y="-0.212" transform="matrix(1 0 0 -1 22.5625 13.75)" overflow="visible"/>
<use xlink:href="#Scree2"  width="0.608" height="0.424" x="-0.304" y="-0.212" transform="matrix(1 0 0 -1 26.3125 13.6875)" overflow="visible"/>
<use xlink:href="#Scree2"  width="0.608" height="0.424" x="-0.304" y="-0.212" transform="matrix(1 0 0 -1 29.625 13.875)" overflow="visible"/>
<use xlink:href="#Scree2"  width="0.608" height="0.424" x="-0.304" y="-0.212" transform="matrix(1 0 0 -1 24.25 16)" overflow="visible"/>
<use xlink:href="#Scree2"  width="0.608" height="0.424" x="-0.304" y="-0.212" transform="matrix(1 0 0 -1 23 18.6875)" overflow="visible"/>
<use xlink:href="#Scree2"  width="0.608" height="0.424" x="-0.304" y="-0.212" transform="matrix(1 0 0 -1 26.5625 16.8125)" overflow="visible"/>
<use xlink:href="#Scree2"  width="0.608" height="0.424" x="-0.304" y="-0.212" transform="matrix(1 0 0 -1 25.25 20.5)" overflow="visible"/>
<use xlink:href="#Scree2"  width="0.608" height="0.424" x="-0.304" y="-0.212" transform="matrix(1 0 0 -1 45.625 5.625)" overflow="visible"/>
<use xlink:href="#Scree2"  width="0.608" height="0.424" x="-0.304" y="-0.212" transform="matrix(1 0 0 -1 43.4375 8)" overflow="visible"/>
<use xlink:href="#Scree2"  width="0.608" height="0.424" x="-0.304" y="-0.212" transform="matrix(1 0 0 -1 38.3125 9.0625)" overflow="visible"/>
<use xlink:href="#Scree2"  width="0.608" height="0.424" x="-0.304" y="-0.212" transform="matrix(1 0 0 -1 41.5 10.1875)" overflow="visible"/>
<use xlink:href="#Scree2"  width="0.608" height="0.424" x="-0.304" y="-0.212" transform="matrix(1 0 0 -1 45.0625 10.3125)" overflow="visible"/>
<use xlink:href="#Scree2"  width="0.608" height="0.424" x="-0.304" y="-0.212" transform="matrix(1 0 0 -1 47.5 8.375)" overflow="visible"/>
<use xlink:href="#Scree2"  width="0.608" height="0.424" x="-0.304" y="-0.212" transform="matrix(1 0 0 -1 43 12.8125)" overflow="visible"/>
<use xlink:href="#Scree2"  width="0.608" height="0.424" x="-0.304" y="-0.212" transform="matrix(1 0 0 -1 46.9375 11.8125)" overflow="visible"/>
<use xlink:href="#Scree2"  width="0.608" height="0.424" x="-0.304" y="-0.212" transform="matrix(1 0 0 -1 40.25 14.5)" overflow="visible"/>
<use xlink:href="#Scree2"  width="0.608" height="0.424" x="-0.304" y="-0.212" transform="matrix(1 0 0 -1 43.3047 15.1631)" overflow="visible"/>
<use xlink:href="#Scree2"  width="0.608" height="0.424" x="-0.304" y="-0.212" transform="matrix(1 0 0 -1 46.1875 14.375)" overflow="visible"/>
<use xlink:href="#Scree2"  width="0.608" height="0.424" x="-0.304" y="-0.212" transform="matrix(1 0 0 -1 40.4375 17)" overflow="visible"/>
<use xlink:href="#Scree2"  width="0.608" height="0.424" x="-0.304" y="-0.212" transform="matrix(1 0 0 -1 44.375 17.25)" overflow="visible"/>
<use xlink:href="#Scree2"  width="0.608" height="0.424" x="-0.304" y="-0.212" transform="matrix(1 0 0 -1 48.1875 15.75)" overflow="visible"/>
<use xlink:href="#Scree2"  width="0.608" height="0.424" x="-0.304" y="-0.212" transform="matrix(1 0 0 -1 46.6875 18.6875)" overflow="visible"/>
<use xlink:href="#Scree2"  width="0.608" height="0.424" x="-0.304" y="-0.212" transform="matrix(1 0 0 -1 42.4375 19.0625)" overflow="visible"/>
<use xlink:href="#Scree2"  width="0.608" height="0.424" x="-0.304" y="-0.212" transform="matrix(1 0 0 -1 49.625 18.1875)" overflow="visible"/>
<use xlink:href="#Scree2"  width="0.608" height="0.424" x="-0.304" y="-0.212" transform="matrix(1 0 0 -1 44.25 26.875)" overflow="visible"/>
</svg>
