<?xml version="1.0" encoding="utf-8"?>
<!-- Generator: Adobe Illustrator 16.0.0, SVG Export Plug-In . SVG Version: 6.00 Build 0)  -->
<!DOCTYPE svg PUBLIC "-//W3C//DTD SVG 1.1//EN" "http://www.w3.org/Graphics/SVG/1.1/DTD/svg11.dtd">
<svg version="1.1" id="Layer_1" xmlns="http://www.w3.org/2000/svg" xmlns:xlink="http://www.w3.org/1999/xlink" x="0px" y="0px"
	 width="7.625px" height="7.1464844px" viewBox="0 -0.0002441 7.625 7.1464844"
	 enable-background="new 0 -0.0002441 7.625 7.1464844" xml:space="preserve">
<g id="Layer_3">
</g>
<g>
	<path fill="#BEBEB4" d="M7.2851563,3.4157715c0,0.4804688-0.2988281,1.9238281-0.3339844,2.0859375
		c-0.03125,0.1474609-0.1171875,0.2978516-0.2480469,0.2978516c-0.0195313,0-0.0761719-0.0546875-0.0957031-0.0605469
		C6.4570313,5.697998,6.4160156,5.2497559,6.4492188,5.0817871c0.0625-0.2773438,0.1074219-0.1875,0.1679688-0.5253906
		L6.4707031,4.314209C6.3789063,4.2595215,6.3632813,4.0915527,6.4160156,3.9919434
		C6.4667969,3.8864746,6.5625,3.8864746,6.6523438,3.9421387L6.71875,3.7702637
		c0.0351563-0.2275391-0.0039063-0.2470703-0.0039063-0.3525391c0-0.1679688-0.03125-0.3085938-0.0546875-0.4101563
		C6.3613281,3.0378418,6.0839844,3.0935059,6.0019531,3.1442871c-0.2480469,0.2519531-0.53125,0.0195313-0.6367188-0.0673828
		C5.3496094,3.0681152,5.3300781,3.048584,5.3144531,3.0368652C5.2597656,3.0876465,5.2285156,3.1286621,5.1777344,3.1940918
		C5.1289063,3.2595215,5.0605469,3.3395996,4.9550781,3.4626465C4.9101563,3.5114746,4.9296875,3.6833496,4.9765625,3.829834
		l0.0449219,0.1269531c0.0566406,0.1611328,0.0449219,0.3984375-0.0957031,0.46875
		C4.7851563,4.4978027,4.703125,4.3962402,4.6386719,4.2438965C4.6289063,4.2224121,4.4453125,4.0622559,4.421875,3.9763184
		L4.3242188,3.5769043c-0.074707-0.2451172-0.2368164-0.4482422-0.3017578-0.5087891
		C3.9365234,3.0270996,3.871582,2.9567871,3.8041992,2.8913574c-0.1557617-0.15625-0.2207031-0.2216797-0.5185547,0.1103516
		C2.9912109,3.3356934,2.7954102,3.8864746,2.7641602,4.4919434C2.7592773,4.6677246,2.5185547,5.3239746,2.3613281,5.314209
		C2.2045898,5.3103027,2.2392578,5.1677246,2.2456055,4.9899902C2.2495117,4.8806152,2.3964844,3.5876465,2.40625,3.5075684
		L1.8051758,2.8054199L1.5234375,2.9118652l0.190918,0.5898438c0.0258789,0.0751953,0.0102539,0.15625-0.0400391,0.2167969
		l-0.2929688,0.359375c-0.0361328,0.0449219-0.0908203,0-0.1420898,0c-0.0449219,0-0.0908203,0.0507813-0.1259766,0.015625
		C1.0322266,4.0134277,1.0273438,3.876709,1.1035156,3.7907715l0.2890625-0.3339844L1.1245117,3.0583496L0.4272461,3.3103027
		C0.2753906,3.3659668,0.1196289,3.2751465,0.0683594,3.1081543C0.0185547,2.9372559,0.4663086,2.7038574,0.6132813,2.6491699
		l0.9541016-0.3789063c0.0771484-0.03125,0.3891602-0.1572266,0.4599609-0.1113281l0.1210938,0.0751953
		c0.0361328,0.0214844,0.0810547,0.2285156,0.2070313,0.4697266l0.3027344,0.2080078
		c0.1162109-0.0761719,0.137207-0.2626953,0.222168-0.3583984C3.5625,1.7849121,4.0024414,2.2302246,4.1879883,2.416748
		c0.0253906,0.0244141,0.0566406,0.0605469,0.0717773,0.0703125C4.4042969,2.5534668,4.53125,2.729248,4.6289063,2.9216309
		C4.6777344,2.8601074,4.7148438,2.8161621,4.75,2.7751465c0.0742188-0.0957031,0.1347656-0.1816406,0.2753906-0.3027344
		C5.3027344,2.2351074,5.5820313,2.4626465,5.703125,2.5632324C5.7089844,2.5681152,5.71875,2.5778809,5.7285156,2.5837402
		C5.9804688,2.4372559,6.3300781,2.345459,6.703125,2.3200684c0.1015625-0.0048828,0.3183594,0.0849609,0.375,0.1826172
		C7.0976563,2.5368652,7.2851563,2.8815918,7.2851563,3.4157715z"/>
</g>
</svg>
