<?xml version="1.0" encoding="utf-8"?>
<!-- Generator: Adobe Illustrator 16.0.3, SVG Export Plug-In . SVG Version: 6.00 Build 0)  -->
<!DOCTYPE svg PUBLIC "-//W3C//DTD SVG 1.1//EN" "http://www.w3.org/Graphics/SVG/1.1/DTD/svg11.dtd">
<svg version="1.1" id="Layer_1" xmlns="http://www.w3.org/2000/svg" xmlns:xlink="http://www.w3.org/1999/xlink" x="0px" y="0px"
	 width="50px" height="50px" viewBox="0 0 50 50" style="enable-background:new 0 0 50 50;" xml:space="preserve">
<g id="roughgrass_x5F_bd_13_">
	<g id="RoughGrass_x5F_FC_15_">
		<path style="fill:#A9CDA6;" d="M6.893555,40.69043l0.010254,0.056641l-0.041016,0.042969l-0.042969,0.021484
			c-0.030273,0.012695-0.062988,0.00293-0.083008-0.023438L6.581055,40.56543l-0.009766-0.057617l0.035645-0.042969
			l0.043457-0.022461c0.029785-0.013672,0.06543-0.00293,0.086426,0.022461L6.893555,40.69043z"/>
		<path style="fill:#A9CDA6;" d="M8.036621,40.417969c0,0.003906,0,0.007813-0.003906,0.011719
			c-0.01123-0.015625-0.021973-0.025391-0.037109-0.040039c-0.047363-0.056641-0.133301-0.132813-0.133301-0.132813
			c-0.037109-0.123047,0.052734-0.328125,0.052734-0.328125c-0.014648-0.140625,0.010254-0.350586,0.010254-0.350586
			C8.269531,40.033203,8.036621,40.417969,8.036621,40.417969z"/>
		<path style="fill:#A9CDA6;" d="M8.032715,40.428711c0.03418,0.041016,0.09375,0.05957,0.116211,0.173828L8.094727,40.625
			l-0.118652-0.010742C7.973145,40.546875,7.999512,40.496094,8.032715,40.428711z"/>
		<path style="fill:#A9CDA6;" d="M9.089355,39.990234l-0.225098,0.224609c0,0-0.062012,0.052734-0.163086,0.290039
			L8.69043,40.621094c0,0-0.087891,0.045898-0.200684-0.021484c0,0,0.051758-0.145508,0.062988-0.292969
			c0,0,0.009766-0.522461,0.253418-0.609375c0,0,0.181152-0.091797,0.067871,0.046875c0,0-0.148926,0.199219-0.152832,0.438477
			C8.722168,40.181641,8.875,39.978516,9.089355,39.990234z"/>
		<path style="fill:#A9CDA6;" d="M10.077148,40.507813l-0.009766,0.057617l-0.155762,0.22168
			c-0.02002,0.026367-0.052734,0.036133-0.083008,0.023438l-0.042969-0.020508L9.746582,40.74707l0.010254-0.056641
			l0.154785-0.226563c0.02002-0.025391,0.056641-0.036133,0.085449-0.022461l0.042969,0.022461L10.077148,40.507813z"/>
		<path style="fill:#A9CDA6;" d="M7.390137,40.249023l0.105957,0.348633l-0.00293,0.06543l-0.042969,0.039063
			c-0.029785,0.012695-0.049805,0.017578-0.060059,0.017578c-0.032715,0.006836-0.064453-0.012695-0.075684-0.048828
			l-0.105957-0.342773v-0.06543l0.042969-0.040039l0.053223-0.020508C7.341309,40.186523,7.376953,40.209961,7.390137,40.249023z"/>
		<path style="fill:#A9CDA6;" d="M9.36377,40.202148l0.052734,0.020508l0.043457,0.040039v0.06543l-0.106445,0.342773
			C9.34375,40.707031,9.310547,40.726563,9.27832,40.71875c-0.010254,0-0.030273-0.004883-0.060059-0.017578l-0.042969-0.038086
			l-0.00293-0.066406l0.105957-0.348633C9.291016,40.209961,9.327637,40.186523,9.36377,40.202148z"/>
	</g>
</g>
<g id="heath_x5F_bd_11_">
	<g id="Heath_x5F_FC_13_">
		<path style="fill:#A9CDA6;" d="M9.529785,38.598633c-0.025879,0-0.05127-0.013672-0.063965-0.037109l-0.198242-0.34082
			c-0.008789-0.015625-0.011719-0.033203-0.006836-0.050781c0.003906-0.020508,0.018066-0.037109,0.035156-0.047852
			l0.055664-0.035156l0.065918-0.005859l0.041992,0.039063l0.19043,0.334961l0.005859,0.06543L9.616699,38.5625l-0.049805,0.025391
			C9.553711,38.595703,9.541504,38.598633,9.529785,38.598633z"/>
		<path style="fill:#A9CDA6;" d="M10.266113,38.455078c-0.038086,0-0.069824-0.023438-0.080078-0.060547l-0.207031-0.649414
			c-0.012695-0.040039,0.005371-0.082031,0.041992-0.101563l0.069336-0.03418l0.07373-0.003906l0.049316,0.058594l0.20459,0.664063
			l-0.009766,0.068359l-0.052246,0.037109c-0.022949,0.007813-0.043945,0.013672-0.05957,0.016602L10.266113,38.455078z"/>
		<path style="fill:#A9CDA6;" d="M11.056152,37.347656l0.104004,0.913086l-0.021973,0.068359l-0.060059,0.035156
			c-0.043945,0.003906-0.083008,0.003906-0.094727,0.003906c-0.052246,0.003906-0.095215-0.03418-0.099121-0.085938
			l-0.085938-0.926758l0.024902-0.072266l0.078125-0.030273l0.072754,0.008789
			C11.01709,37.270508,11.052246,37.299805,11.056152,37.347656z"/>
		<path style="fill:#A9CDA6;" d="M11.696289,38.454102l-0.064941-0.017578l-0.056152-0.044922l-0.005859-0.067383l0.207031-0.664063
			l0.024902-0.027344c0.007813-0.012695,0.016113-0.018555,0.024902-0.022461l0.041016-0.004883l0.033203,0.005859
			l0.063965,0.033203c0.036621,0.019531,0.054688,0.061523,0.041992,0.101563l-0.205078,0.649414
			c-0.013184,0.038086-0.043945,0.061523-0.081055,0.061523L11.696289,38.454102z"/>
		<path style="fill:#A9CDA6;" d="M12.456543,38.598633c-0.011719,0-0.023926-0.00293-0.033691-0.009766l-0.057129-0.030273
			l-0.041992-0.051758l0.01709-0.057617l0.191895-0.333984l0.050781-0.038086l0.060059,0.012695l0.04834,0.032227
			c0.035645,0.020508,0.047852,0.064453,0.027832,0.098633l-0.198242,0.34082
			C12.507813,38.583984,12.483887,38.598633,12.456543,38.598633z"/>
	</g>
</g>
<g id="heath_x5F_bd_12_" style="enable-background:new    ;">
	<g id="Heath_x5F_FC_14_">
		<path style="fill:#A9CDA6;" d="M5.105957,37.834961c-0.025879,0-0.05127-0.013672-0.063965-0.037109l-0.198242-0.34082
			c-0.008789-0.015625-0.011719-0.033203-0.006836-0.050781c0.003906-0.020508,0.018066-0.037109,0.035156-0.047852
			l0.055664-0.035156l0.065918-0.005859l0.041992,0.039063l0.19043,0.334961l0.005859,0.06543l-0.039063,0.041992
			l-0.049805,0.025391C5.129883,37.832031,5.117676,37.834961,5.105957,37.834961z"/>
		<path style="fill:#A9CDA6;" d="M5.842285,37.691406c-0.038086,0-0.069824-0.023438-0.080078-0.060547l-0.207031-0.649414
			c-0.012695-0.040039,0.005371-0.082031,0.041992-0.101563l0.069336-0.03418l0.07373-0.003906l0.049316,0.058594l0.20459,0.664063
			l-0.009766,0.068359l-0.052246,0.037109c-0.022949,0.007813-0.043945,0.013672-0.05957,0.016602L5.842285,37.691406z"/>
		<path style="fill:#A9CDA6;" d="M6.632324,36.583984l0.104004,0.913086L6.714355,37.56543l-0.060059,0.035156
			c-0.043945,0.003906-0.083008,0.003906-0.094727,0.003906c-0.052246,0.003906-0.095215-0.03418-0.099121-0.085938
			l-0.085938-0.926758l0.024902-0.072266l0.078125-0.030273l0.072754,0.008789
			C6.593262,36.506836,6.628418,36.536133,6.632324,36.583984z"/>
		<path style="fill:#A9CDA6;" d="M7.272461,37.69043L7.20752,37.672852L7.151367,37.62793l-0.005859-0.067383l0.207031-0.664063
			l0.024902-0.027344c0.007813-0.012695,0.016113-0.018555,0.024902-0.022461l0.041016-0.004883l0.033203,0.005859
			l0.063965,0.033203c0.036621,0.019531,0.054688,0.061523,0.041992,0.101563l-0.205078,0.649414
			c-0.013184,0.038086-0.043945,0.061523-0.081055,0.061523L7.272461,37.69043z"/>
		<path style="fill:#A9CDA6;" d="M8.032715,37.834961c-0.011719,0-0.023926-0.00293-0.033691-0.009766l-0.057129-0.030273
			l-0.041992-0.051758l0.01709-0.057617l0.191895-0.333984l0.050781-0.038086l0.060059,0.012695l0.04834,0.032227
			c0.035645,0.020508,0.047852,0.064453,0.027832,0.098633l-0.198242,0.34082
			C8.083984,37.820313,8.060059,37.834961,8.032715,37.834961z"/>
	</g>
</g>
<g id="roughgrass_x5F_bd_8_" style="enable-background:new    ;">
	<g id="RoughGrass_x5F_FC_10_">
		<path style="fill:#A9CDA6;" d="M25.074219,35.415039l0.010254,0.056641l-0.041016,0.042969l-0.042969,0.021484
			c-0.030273,0.012695-0.062988,0.00293-0.083008-0.023438l-0.155762-0.222656l-0.009766-0.057617l0.035645-0.042969
			l0.043457-0.022461c0.029785-0.013672,0.06543-0.00293,0.086426,0.022461L25.074219,35.415039z"/>
		<path style="fill:#A9CDA6;" d="M26.217773,35.142578c0,0.003906,0,0.007813-0.003906,0.011719
			c-0.011719-0.015625-0.022461-0.025391-0.037109-0.040039c-0.047852-0.056641-0.133789-0.132813-0.133789-0.132813
			c-0.037109-0.123047,0.052734-0.328125,0.052734-0.328125c-0.014648-0.140625,0.009766-0.350586,0.009766-0.350586
			C26.450195,34.757813,26.217773,35.142578,26.217773,35.142578z"/>
		<path style="fill:#A9CDA6;" d="M26.213867,35.15332c0.03418,0.041016,0.09375,0.05957,0.116211,0.173828l-0.054688,0.022461
			l-0.119141-0.010742C26.15332,35.271484,26.180664,35.220703,26.213867,35.15332z"/>
		<path style="fill:#A9CDA6;" d="M27.269531,34.714844l-0.224609,0.224609c0,0-0.061523,0.052734-0.163086,0.290039
			l-0.010742,0.116211c0,0-0.087891,0.045898-0.201172-0.021484c0,0,0.051758-0.145508,0.063477-0.292969
			c0,0,0.009766-0.522461,0.253906-0.609375c0,0,0.180664-0.091797,0.067383,0.046875c0,0-0.148438,0.199219-0.152344,0.438477
			C26.90332,34.90625,27.055664,34.703125,27.269531,34.714844z"/>
		<path style="fill:#A9CDA6;" d="M28.257813,35.232422l-0.009766,0.057617l-0.15625,0.22168
			c-0.019531,0.026367-0.052734,0.036133-0.083008,0.023438l-0.042969-0.020508l-0.039063-0.042969l0.010742-0.056641
			l0.154297-0.226563c0.020508-0.025391,0.057617-0.036133,0.085938-0.022461l0.042969,0.022461L28.257813,35.232422z"/>
		<path style="fill:#A9CDA6;" d="M25.571289,34.973633l0.105469,0.348633l-0.00293,0.06543l-0.042969,0.039063
			c-0.029297,0.012695-0.049805,0.017578-0.05957,0.017578c-0.033203,0.006836-0.06543-0.012695-0.076172-0.048828
			l-0.105957-0.342773v-0.06543l0.042969-0.040039l0.053223-0.020508C25.522461,34.911133,25.557617,34.93457,25.571289,34.973633z"
			/>
		<path style="fill:#A9CDA6;" d="M27.544922,34.926758l0.052734,0.020508l0.042969,0.040039v0.06543l-0.106445,0.342773
			c-0.009766,0.036133-0.042969,0.055664-0.075195,0.047852c-0.010742,0-0.030273-0.004883-0.060547-0.017578l-0.042969-0.038086
			l-0.00293-0.066406l0.106445-0.348633C27.47168,34.93457,27.508789,34.911133,27.544922,34.926758z"/>
	</g>
</g>
<g id="heath_x5F_bd_8_" style="enable-background:new    ;">
	<g id="Heath_x5F_FC_10_">
		<path style="fill:#A9CDA6;" d="M27.710938,33.323242c-0.026367,0-0.051758-0.013672-0.064453-0.037109l-0.198242-0.34082
			c-0.008789-0.015625-0.011719-0.033203-0.006836-0.050781c0.003906-0.020508,0.018555-0.037109,0.035156-0.047852
			l0.055664-0.035156l0.066406-0.005859l0.041992,0.039063l0.19043,0.334961l0.005859,0.06543l-0.039063,0.041992L27.748047,33.3125
			C27.734375,33.320313,27.722656,33.323242,27.710938,33.323242z"/>
		<path style="fill:#A9CDA6;" d="M28.446289,33.179688c-0.038086,0-0.069336-0.023438-0.080078-0.060547l-0.207031-0.649414
			c-0.012695-0.040039,0.005859-0.082031,0.041992-0.101563l0.069336-0.03418l0.074219-0.003906l0.048828,0.058594
			l0.205078,0.664063l-0.009766,0.068359l-0.052734,0.037109c-0.022461,0.007813-0.043945,0.013672-0.05957,0.016602
			L28.446289,33.179688z"/>
		<path style="fill:#A9CDA6;" d="M29.237305,32.072266l0.103516,0.913086l-0.021484,0.068359l-0.060547,0.035156
			c-0.043945,0.003906-0.083008,0.003906-0.094727,0.003906c-0.052734,0.003906-0.095703-0.03418-0.099609-0.085938
			l-0.085938-0.926758l0.025391-0.072266l0.078125-0.030273l0.072266,0.008789
			C29.198242,31.995117,29.233398,32.024414,29.237305,32.072266z"/>
		<path style="fill:#A9CDA6;" d="M29.876953,33.178711L29.8125,33.161133l-0.056641-0.044922L29.75,33.048828l0.207031-0.664063
			l0.025391-0.027344c0.007813-0.012695,0.015625-0.018555,0.024414-0.022461l0.041016-0.004883l0.033203,0.005859
			l0.064453,0.033203c0.036133,0.019531,0.054688,0.061523,0.041992,0.101563l-0.205078,0.649414
			c-0.013672,0.038086-0.043945,0.061523-0.081055,0.061523L29.876953,33.178711z"/>
		<path style="fill:#A9CDA6;" d="M30.636719,33.323242c-0.011719,0-0.023438-0.00293-0.033203-0.009766l-0.057617-0.030273
			l-0.041992-0.051758l0.017578-0.057617l0.191406-0.333984l0.050781-0.038086l0.060547,0.012695l0.047852,0.032227
			c0.036133,0.020508,0.047852,0.064453,0.02832,0.098633l-0.198242,0.34082
			C30.688477,33.308594,30.664063,33.323242,30.636719,33.323242z"/>
	</g>
</g>
<g id="heath_x5F_bd_7_" style="enable-background:new    ;">
	<g id="Heath_x5F_FC_9_">
		<path style="fill:#A9CDA6;" d="M23.286621,32.55957c-0.025879,0-0.05127-0.013672-0.063965-0.037109l-0.198242-0.34082
			c-0.008789-0.015625-0.011719-0.033203-0.006836-0.050781c0.003906-0.020508,0.018066-0.037109,0.035156-0.047852
			l0.055664-0.035156l0.065918-0.005859l0.041992,0.039063l0.19043,0.334961l0.005859,0.06543l-0.039063,0.041992
			l-0.049805,0.025391C23.310547,32.556641,23.29834,32.55957,23.286621,32.55957z"/>
		<path style="fill:#A9CDA6;" d="M24.022949,32.416016c-0.038086,0-0.069824-0.023438-0.080078-0.060547l-0.207031-0.649414
			c-0.012695-0.040039,0.005371-0.082031,0.041992-0.101563l0.069336-0.03418l0.07373-0.003906L23.970215,31.625l0.20459,0.664063
			l-0.009766,0.068359l-0.052246,0.037109c-0.022949,0.007813-0.043945,0.013672-0.05957,0.016602L24.022949,32.416016z"/>
		<path style="fill:#A9CDA6;" d="M24.812988,31.308594l0.104004,0.913086l-0.021973,0.068359l-0.060059,0.035156
			c-0.043945,0.003906-0.083008,0.003906-0.094727,0.003906c-0.052246,0.003906-0.095215-0.03418-0.099121-0.085938
			l-0.085938-0.926758l0.024902-0.072266l0.078125-0.030273l0.072754,0.008789
			C24.773926,31.231445,24.809082,31.260742,24.812988,31.308594z"/>
		<path style="fill:#A9CDA6;" d="M25.453125,32.415039l-0.064941-0.017578l-0.056152-0.044922l-0.005859-0.067383l0.207031-0.664063
			l0.025391-0.027344c0.007813-0.012695,0.015625-0.018555,0.024414-0.022461l0.041016-0.004883l0.033203,0.005859
			l0.064453,0.033203c0.036133,0.019531,0.054688,0.061523,0.041992,0.101563l-0.205078,0.649414
			c-0.013672,0.038086-0.043945,0.061523-0.081543,0.061523L25.453125,32.415039z"/>
		<path style="fill:#A9CDA6;" d="M26.212891,32.55957c-0.011719,0-0.023438-0.00293-0.033203-0.009766l-0.057617-0.030273
			l-0.041992-0.051758l0.017578-0.057617l0.191406-0.333984l0.050781-0.038086l0.060547,0.012695l0.047852,0.032227
			c0.036133,0.020508,0.047852,0.064453,0.02832,0.098633l-0.198242,0.34082
			C26.264648,32.544922,26.240234,32.55957,26.212891,32.55957z"/>
	</g>
</g>
<g id="roughgrass_x5F_bd_14_" style="enable-background:new    ;">
	<g id="RoughGrass_x5F_FC_16_">
		<path style="fill:#A9CDA6;" d="M4.685547,26.733398l0.010254,0.056641l-0.041016,0.042969l-0.042969,0.021484
			c-0.030273,0.012695-0.062988,0.00293-0.083008-0.023438l-0.155762-0.222656l-0.009766-0.057617l0.035645-0.042969
			l0.043457-0.022461c0.029785-0.013672,0.06543-0.00293,0.086426,0.022461L4.685547,26.733398z"/>
		<path style="fill:#A9CDA6;" d="M5.828613,26.460938c0,0.003906,0,0.007813-0.003906,0.011719
			c-0.01123-0.015625-0.021973-0.025391-0.037109-0.040039c-0.047363-0.056641-0.133301-0.132813-0.133301-0.132813
			c-0.037109-0.123047,0.052734-0.328125,0.052734-0.328125c-0.014648-0.140625,0.010254-0.350586,0.010254-0.350586
			C6.061523,26.076172,5.828613,26.460938,5.828613,26.460938z"/>
		<path style="fill:#A9CDA6;" d="M5.824707,26.47168c0.03418,0.041016,0.09375,0.05957,0.116211,0.173828l-0.054199,0.022461
			l-0.118652-0.010742C5.765137,26.589844,5.791504,26.539063,5.824707,26.47168z"/>
		<path style="fill:#A9CDA6;" d="M6.881348,26.033203L6.65625,26.257813c0,0-0.062012,0.052734-0.163086,0.290039
			l-0.010742,0.116211c0,0-0.087891,0.045898-0.200684-0.021484c0,0,0.051758-0.145508,0.062988-0.292969
			c0,0,0.009766-0.522461,0.253418-0.609375c0,0,0.181152-0.091797,0.067871,0.046875c0,0-0.148926,0.199219-0.152832,0.438477
			C6.51416,26.224609,6.666992,26.021484,6.881348,26.033203z"/>
		<path style="fill:#A9CDA6;" d="M7.869141,26.550781l-0.009766,0.057617l-0.155762,0.22168
			c-0.02002,0.026367-0.052734,0.036133-0.083008,0.023438l-0.042969-0.020508l-0.039063-0.042969l0.010254-0.056641
			l0.154785-0.226563c0.02002-0.025391,0.056641-0.036133,0.085449-0.022461l0.042969,0.022461L7.869141,26.550781z"/>
		<path style="fill:#A9CDA6;" d="M5.182129,26.291992l0.105957,0.348633l-0.00293,0.06543l-0.042969,0.039063
			c-0.029785,0.012695-0.049805,0.017578-0.060059,0.017578C5.149414,26.769531,5.117676,26.75,5.106445,26.713867
			l-0.105957-0.342773v-0.06543l0.042969-0.040039l0.053223-0.020508C5.133301,26.229492,5.168945,26.25293,5.182129,26.291992z"/>
		<path style="fill:#A9CDA6;" d="M7.155762,26.245117l0.052734,0.020508l0.043457,0.040039v0.06543l-0.106445,0.342773
			C7.135742,26.75,7.102539,26.769531,7.070313,26.761719c-0.010254,0-0.030273-0.004883-0.060059-0.017578l-0.042969-0.038086
			l-0.00293-0.066406l0.105957-0.348633C7.083008,26.25293,7.119629,26.229492,7.155762,26.245117z"/>
	</g>
</g>
<g id="heath_x5F_bd_13_" style="enable-background:new    ;">
	<g id="Heath_x5F_FC_15_">
		<path style="fill:#A9CDA6;" d="M7.321777,24.641602c-0.025879,0-0.05127-0.013672-0.063965-0.037109l-0.198242-0.34082
			c-0.008789-0.015625-0.011719-0.033203-0.006836-0.050781c0.003906-0.020508,0.018066-0.037109,0.035156-0.047852
			l0.055664-0.035156l0.065918-0.005859l0.041992,0.039063l0.19043,0.334961l0.005859,0.06543l-0.039063,0.041992
			l-0.049805,0.025391C7.345703,24.638672,7.333496,24.641602,7.321777,24.641602z"/>
		<path style="fill:#A9CDA6;" d="M8.058105,24.498047c-0.038086,0-0.069824-0.023438-0.080078-0.060547l-0.207031-0.649414
			c-0.012695-0.040039,0.005371-0.082031,0.041992-0.101563l0.069336-0.03418l0.07373-0.003906l0.049316,0.058594l0.20459,0.664063
			l-0.009766,0.068359l-0.052246,0.037109c-0.022949,0.007813-0.043945,0.013672-0.05957,0.016602L8.058105,24.498047z"/>
		<path style="fill:#A9CDA6;" d="M8.848145,23.390625l0.104004,0.913086L8.930176,24.37207l-0.060059,0.035156
			c-0.043945,0.003906-0.083008,0.003906-0.094727,0.003906c-0.052246,0.003906-0.095215-0.03418-0.099121-0.085938
			l-0.085938-0.926758l0.024902-0.072266l0.078125-0.030273l0.072754,0.008789
			C8.809082,23.313477,8.844238,23.342773,8.848145,23.390625z"/>
		<path style="fill:#A9CDA6;" d="M9.488281,24.49707L9.42334,24.479492L9.367188,24.43457l-0.005859-0.067383l0.207031-0.664063
			l0.024902-0.027344c0.007813-0.012695,0.016113-0.018555,0.024902-0.022461l0.041016-0.004883l0.033203,0.005859L9.756348,23.6875
			c0.036621,0.019531,0.054688,0.061523,0.041992,0.101563l-0.205078,0.649414C9.580078,24.476563,9.549316,24.5,9.512207,24.5
			L9.488281,24.49707z"/>
		<path style="fill:#A9CDA6;" d="M10.248535,24.641602c-0.011719,0-0.023926-0.00293-0.033691-0.009766l-0.057129-0.030273
			l-0.041992-0.051758l0.01709-0.057617l0.191895-0.333984l0.050781-0.038086l0.060059,0.012695l0.04834,0.032227
			c0.035645,0.020508,0.047852,0.064453,0.027832,0.098633l-0.198242,0.34082
			C10.299805,24.626953,10.275879,24.641602,10.248535,24.641602z"/>
	</g>
</g>
<g id="roughgrass_x5F_bd_15_" style="enable-background:new    ;">
	<g id="RoughGrass_x5F_FC_17_">
		<path style="fill:#A9CDA6;" d="M2.930664,23.698242l0.010254,0.056641l-0.041016,0.042969l-0.042969,0.021484
			c-0.030273,0.012695-0.062988,0.00293-0.083008-0.023438l-0.155762-0.222656l-0.009766-0.057129l0.035645-0.042969
			L2.6875,23.450684c0.029785-0.013672,0.06543-0.00293,0.086426,0.022461L2.930664,23.698242z"/>
		<path style="fill:#A9CDA6;" d="M4.07373,23.42627c0,0.003906,0,0.007813-0.003906,0.011719
			c-0.01123-0.015625-0.021973-0.025391-0.037109-0.040039c-0.047363-0.056641-0.133301-0.132813-0.133301-0.132813
			c-0.037109-0.123047,0.052734-0.328125,0.052734-0.328125c-0.014648-0.140137,0.010254-0.350098,0.010254-0.350098
			C4.306641,23.041504,4.07373,23.42627,4.07373,23.42627z"/>
		<path style="fill:#A9CDA6;" d="M4.069824,23.437012c0.03418,0.041016,0.09375,0.05957,0.116211,0.17334l-0.054199,0.022461
			L4.013184,23.62207C4.010254,23.554688,4.036621,23.504395,4.069824,23.437012z"/>
		<path style="fill:#A9CDA6;" d="M5.126465,22.998535l-0.225098,0.224609c0,0-0.062012,0.052734-0.163086,0.290039
			l-0.010742,0.115723c0,0-0.087891,0.045898-0.200684-0.021484c0,0,0.051758-0.14502,0.062988-0.29248
			c0,0,0.009766-0.521973,0.253418-0.608887c0,0,0.181152-0.091797,0.067871,0.046875c0,0-0.148926,0.19873-0.152832,0.437988
			C4.759277,23.189941,4.912109,22.986816,5.126465,22.998535z"/>
		<path style="fill:#A9CDA6;" d="M6.114258,23.516113l-0.009766,0.057129l-0.155762,0.22168
			c-0.02002,0.026367-0.052734,0.036133-0.083008,0.023438l-0.042969-0.020508l-0.039063-0.042969l0.010254-0.056641
			l0.154785-0.226074c0.02002-0.025391,0.056641-0.036133,0.085449-0.022461l0.042969,0.022461L6.114258,23.516113z"/>
		<path style="fill:#A9CDA6;" d="M3.427246,23.257324l0.105957,0.348145l-0.00293,0.06543l-0.042969,0.039063
			C3.45752,23.722656,3.4375,23.727539,3.427246,23.727539c-0.032715,0.006836-0.064453-0.012695-0.075684-0.048828
			l-0.105957-0.342285v-0.06543l0.042969-0.040039l0.053223-0.020508C3.378418,23.194824,3.414063,23.218262,3.427246,23.257324z"/>
		<path style="fill:#A9CDA6;" d="M5.400879,23.210449l0.052734,0.020508l0.043457,0.040039v0.06543l-0.106445,0.342285
			c-0.009766,0.036133-0.042969,0.055664-0.075195,0.047852c-0.010254,0-0.030273-0.004883-0.060059-0.017578l-0.042969-0.038086
			l-0.00293-0.066406l0.105957-0.348145C5.328125,23.218262,5.364746,23.194824,5.400879,23.210449z"/>
	</g>
</g>
<g id="roughgrass_x5F_bd_16_" style="enable-background:new    ;">
	<g id="RoughGrass_x5F_FC_18_">
		<path style="fill:#A9CDA6;" d="M9.078125,16.323242l0.010254,0.056641l-0.041016,0.042969l-0.042969,0.021484
			c-0.030273,0.012695-0.062988,0.00293-0.083008-0.023438l-0.155762-0.222656l-0.009766-0.057129l0.035645-0.042969
			l0.043457-0.022461c0.029785-0.013672,0.06543-0.00293,0.086426,0.022461L9.078125,16.323242z"/>
		<path style="fill:#A9CDA6;" d="M10.221191,16.05127c0,0.003906,0,0.007813-0.003906,0.011719
			c-0.01123-0.015625-0.021973-0.025391-0.037109-0.040039c-0.047363-0.056641-0.133301-0.132813-0.133301-0.132813
			c-0.037109-0.123047,0.052734-0.328125,0.052734-0.328125c-0.014648-0.140137,0.010254-0.350098,0.010254-0.350098
			C10.454102,15.666504,10.221191,16.05127,10.221191,16.05127z"/>
		<path style="fill:#A9CDA6;" d="M10.217285,16.062012c0.03418,0.041016,0.09375,0.05957,0.116211,0.17334l-0.054199,0.022461
			l-0.118652-0.010742C10.157715,16.179688,10.184082,16.129395,10.217285,16.062012z"/>
		<path style="fill:#A9CDA6;" d="M11.273926,15.623535l-0.225098,0.224609c0,0-0.062012,0.052734-0.163086,0.290039
			L10.875,16.253906c0,0-0.087891,0.045898-0.200684-0.021484c0,0,0.051758-0.14502,0.062988-0.29248
			c0,0,0.009766-0.521973,0.253418-0.608887c0,0,0.181152-0.091797,0.067871,0.046875c0,0-0.148926,0.19873-0.152832,0.437988
			C10.906738,15.814941,11.05957,15.611816,11.273926,15.623535z"/>
		<path style="fill:#A9CDA6;" d="M12.261719,16.141113l-0.009766,0.057129l-0.155762,0.22168
			c-0.02002,0.026367-0.052734,0.036133-0.083008,0.023438l-0.042969-0.020508l-0.039063-0.042969l0.010254-0.056641
			l0.154785-0.226074c0.02002-0.025391,0.056641-0.036133,0.085449-0.022461l0.042969,0.022461L12.261719,16.141113z"/>
		<path style="fill:#A9CDA6;" d="M9.574707,15.882324l0.105957,0.348145l-0.00293,0.06543l-0.042969,0.039063
			c-0.029785,0.012695-0.049805,0.017578-0.060059,0.017578c-0.032715,0.006836-0.064453-0.012695-0.075684-0.048828
			l-0.105957-0.342285v-0.06543l0.042969-0.040039l0.053223-0.020508C9.525879,15.819824,9.561523,15.843262,9.574707,15.882324z"/>
		<path style="fill:#A9CDA6;" d="M11.54834,15.835449l0.052734,0.020508l0.043457,0.040039v0.06543l-0.106445,0.342285
			c-0.009766,0.036133-0.042969,0.055664-0.075195,0.047852c-0.010254,0-0.030273-0.004883-0.060059-0.017578l-0.042969-0.038086
			l-0.00293-0.066406l0.105957-0.348145C11.475586,15.843262,11.512207,15.819824,11.54834,15.835449z"/>
	</g>
</g>
<g id="heath_x5F_bd_14_" style="enable-background:new    ;">
	<g id="Heath_x5F_FC_16_">
		<path style="fill:#A9CDA6;" d="M11.714355,14.231445c-0.025879,0-0.05127-0.013672-0.063965-0.037109l-0.198242-0.34082
			c-0.008789-0.015625-0.011719-0.033203-0.006836-0.050781c0.003906-0.020508,0.018066-0.037109,0.035156-0.047852
			l0.055664-0.035156l0.065918-0.005859l0.041992,0.039063l0.19043,0.334961l0.005859,0.06543l-0.039063,0.041992
			l-0.049805,0.025391C11.738281,14.228516,11.726074,14.231445,11.714355,14.231445z"/>
		<path style="fill:#A9CDA6;" d="M12.450684,14.087891c-0.038086,0-0.069824-0.023438-0.080078-0.060547l-0.207031-0.649414
			c-0.012695-0.040039,0.005371-0.082031,0.041992-0.101563l0.069336-0.03418l0.07373-0.003906l0.049316,0.058594l0.20459,0.664063
			l-0.009766,0.068359l-0.052246,0.037109c-0.022949,0.007813-0.043945,0.013672-0.05957,0.016602L12.450684,14.087891z"/>
		<path style="fill:#A9CDA6;" d="M13.240723,12.980469l0.104004,0.913086l-0.021973,0.068359l-0.060059,0.035156
			c-0.043945,0.003906-0.083008,0.003906-0.094727,0.003906c-0.052246,0.003906-0.095215-0.03418-0.099121-0.085938
			l-0.085938-0.926758l0.024902-0.072266l0.078125-0.030273l0.072754,0.008789
			C13.20166,12.90332,13.236816,12.932617,13.240723,12.980469z"/>
		<path style="fill:#A9CDA6;" d="M13.880859,14.086914l-0.064941-0.017578l-0.056152-0.044922l-0.005859-0.067383l0.207031-0.664063
			l0.024902-0.027344c0.007813-0.012695,0.016113-0.018555,0.024902-0.022461l0.041016-0.004883l0.033203,0.005859
			l0.063965,0.033203c0.036621,0.019531,0.054688,0.061523,0.041992,0.101563L13.98584,14.02832
			c-0.013184,0.038086-0.043945,0.061523-0.081055,0.061523L13.880859,14.086914z"/>
		<path style="fill:#A9CDA6;" d="M14.641113,14.231445c-0.011719,0-0.023926-0.00293-0.033691-0.009766l-0.057129-0.030273
			l-0.041992-0.051758l0.01709-0.057617l0.191895-0.333984l0.050781-0.038086l0.060059,0.012695l0.04834,0.032227
			c0.035645,0.020508,0.047852,0.064453,0.027832,0.098633l-0.198242,0.34082
			C14.692383,14.216797,14.668457,14.231445,14.641113,14.231445z"/>
	</g>
</g>
<g id="heath_x5F_bd_15_" style="enable-background:new    ;">
	<g id="Heath_x5F_FC_17_">
		<path style="fill:#A9CDA6;" d="M7.290527,13.467773c-0.025879,0-0.05127-0.013672-0.063965-0.037109l-0.198242-0.34082
			c-0.008789-0.015625-0.011719-0.033203-0.006836-0.050781c0.003906-0.020508,0.018066-0.037109,0.035156-0.047852
			l0.055664-0.035156l0.065918-0.005859l0.041992,0.039063l0.19043,0.334961l0.005859,0.06543l-0.039063,0.041992
			l-0.049805,0.025391C7.314453,13.464844,7.302246,13.467773,7.290527,13.467773z"/>
		<path style="fill:#A9CDA6;" d="M8.026855,13.324219c-0.038086,0-0.069824-0.023438-0.080078-0.060547l-0.207031-0.649414
			c-0.012695-0.040039,0.005371-0.082031,0.041992-0.101563l0.069336-0.03418l0.07373-0.003906l0.049316,0.058594l0.20459,0.664063
			l-0.009766,0.068359l-0.052246,0.037109c-0.022949,0.007813-0.043945,0.013672-0.05957,0.016602L8.026855,13.324219z"/>
		<path style="fill:#A9CDA6;" d="M8.816895,12.216797l0.104004,0.913086l-0.021973,0.068359l-0.060059,0.035156
			c-0.043945,0.003906-0.083008,0.003906-0.094727,0.003906c-0.052246,0.003906-0.095215-0.03418-0.099121-0.085938
			l-0.085938-0.926758l0.024902-0.072266l0.078125-0.030273l0.072754,0.008789
			C8.777832,12.139648,8.812988,12.168945,8.816895,12.216797z"/>
		<path style="fill:#A9CDA6;" d="M9.457031,13.323242L9.39209,13.305664l-0.056152-0.044922l-0.005859-0.067383l0.207031-0.664063
			l0.024902-0.027344c0.007813-0.012695,0.016113-0.018555,0.024902-0.022461l0.041016-0.004883l0.033203,0.005859
			l0.063965,0.033203c0.036621,0.019531,0.054688,0.061523,0.041992,0.101563l-0.205078,0.649414
			c-0.013184,0.038086-0.043945,0.061523-0.081055,0.061523L9.457031,13.323242z"/>
		<path style="fill:#A9CDA6;" d="M10.217285,13.467773c-0.011719,0-0.023926-0.00293-0.033691-0.009766l-0.057129-0.030273
			l-0.041992-0.051758l0.01709-0.057617l0.191895-0.333984l0.050781-0.038086l0.060059,0.012695l0.04834,0.032227
			c0.035645,0.020508,0.047852,0.064453,0.027832,0.098633l-0.198242,0.34082
			C10.268555,13.453125,10.244629,13.467773,10.217285,13.467773z"/>
	</g>
</g>
<g id="roughgrass_x5F_bd_2_" style="enable-background:new    ;">
	<g id="RoughGrass_x5F_FC_4_">
		<path style="fill:#A9CDA6;" d="M24.362305,6.540039l0.010254,0.056641l-0.041016,0.042969l-0.042969,0.021484
			c-0.030273,0.012695-0.062988,0.00293-0.083008-0.023438l-0.155762-0.222656L24.040039,6.35791l0.035645-0.042969
			l0.043457-0.022461c0.029785-0.013672,0.06543-0.00293,0.086426,0.022461L24.362305,6.540039z"/>
		<path style="fill:#A9CDA6;" d="M25.505859,6.268066c0,0.003906,0,0.007813-0.003906,0.011719
			c-0.011719-0.015625-0.022461-0.025391-0.037598-0.040039c-0.047363-0.056641-0.133301-0.132813-0.133301-0.132813
			c-0.037109-0.123047,0.052734-0.328125,0.052734-0.328125c-0.014648-0.140137,0.010254-0.350098,0.010254-0.350098
			C25.738281,5.883301,25.505859,6.268066,25.505859,6.268066z"/>
		<path style="fill:#A9CDA6;" d="M25.501953,6.278809c0.03418,0.041016,0.09375,0.05957,0.116211,0.17334l-0.054688,0.022461
			l-0.118652-0.010742C25.441895,6.396484,25.468262,6.346191,25.501953,6.278809z"/>
		<path style="fill:#A9CDA6;" d="M26.557617,5.840332l-0.224609,0.224609c0,0-0.061523,0.052734-0.163086,0.290039
			L26.15918,6.470703c0,0-0.087891,0.045898-0.201172-0.021484c0,0,0.051758-0.14502,0.063477-0.29248
			c0,0,0.009766-0.521973,0.253906-0.608887c0,0,0.180664-0.091797,0.067383,0.046875c0,0-0.148438,0.19873-0.152344,0.437988
			C26.191406,6.031738,26.34375,5.828613,26.557617,5.840332z"/>
		<path style="fill:#A9CDA6;" d="M27.545898,6.35791l-0.009766,0.057129l-0.15625,0.22168
			c-0.019531,0.026367-0.052734,0.036133-0.083008,0.023438l-0.042969-0.020508L27.214844,6.59668l0.010742-0.056641
			l0.154297-0.226074c0.020508-0.025391,0.057617-0.036133,0.085938-0.022461l0.042969,0.022461L27.545898,6.35791z"/>
		<path style="fill:#A9CDA6;" d="M24.858887,6.099121l0.105957,0.348145l-0.00293,0.06543l-0.042969,0.039063
			c-0.029785,0.012695-0.049805,0.017578-0.060059,0.017578c-0.032715,0.006836-0.064453-0.012695-0.075684-0.048828
			l-0.105957-0.342285v-0.06543l0.042969-0.040039l0.053223-0.020508C24.810059,6.036621,24.845703,6.060059,24.858887,6.099121z"/>
		<path style="fill:#A9CDA6;" d="M26.833008,6.052246l0.052734,0.020508l0.042969,0.040039v0.06543l-0.106445,0.342285
			C26.8125,6.556641,26.779297,6.576172,26.74707,6.568359c-0.010742,0-0.030273-0.004883-0.060547-0.017578l-0.042969-0.038086
			l-0.00293-0.066406l0.106445-0.348145C26.759766,6.060059,26.796875,6.036621,26.833008,6.052246z"/>
	</g>
</g>
<g id="heath_x5F_bd_2_" style="enable-background:new    ;">
	<g id="Heath_x5F_FC_4_">
		<path style="fill:#A9CDA6;" d="M26.999023,4.448242c-0.026367,0-0.051758-0.013672-0.064453-0.037109l-0.198242-0.34082
			c-0.008789-0.015625-0.011719-0.033203-0.006836-0.050781c0.003906-0.020508,0.018555-0.037109,0.035156-0.047852
			l0.055664-0.035156l0.066406-0.005859l0.041992,0.039063l0.19043,0.334961L27.125,4.370117l-0.039063,0.041992L27.036133,4.4375
			C27.022461,4.445313,27.010742,4.448242,26.999023,4.448242z"/>
		<path style="fill:#A9CDA6;" d="M27.734375,4.304688c-0.038086,0-0.069336-0.023438-0.080078-0.060547l-0.207031-0.649414
			c-0.012695-0.040039,0.005859-0.082031,0.041992-0.101563l0.069336-0.03418l0.074219-0.003906l0.048828,0.058594
			l0.205078,0.664063l-0.009766,0.068359l-0.052734,0.037109c-0.022461,0.007813-0.043945,0.013672-0.05957,0.016602
			L27.734375,4.304688z"/>
		<path style="fill:#A9CDA6;" d="M28.525391,3.197266l0.103516,0.913086l-0.021484,0.068359l-0.060547,0.035156
			c-0.043945,0.003906-0.083008,0.003906-0.094727,0.003906c-0.052734,0.003906-0.095703-0.03418-0.099609-0.085938
			l-0.085938-0.926758l0.025391-0.072266l0.078125-0.030273l0.072266,0.008789
			C28.486328,3.120117,28.521484,3.149414,28.525391,3.197266z"/>
		<path style="fill:#A9CDA6;" d="M29.165039,4.303711l-0.064453-0.017578l-0.056641-0.044922l-0.005859-0.067383l0.207031-0.664063
			l0.025391-0.027344c0.007813-0.012695,0.015625-0.018555,0.024414-0.022461l0.041016-0.004883l0.033203,0.005859
			l0.064453,0.033203c0.036133,0.019531,0.054688,0.061523,0.041992,0.101563l-0.205078,0.649414
			c-0.013672,0.038086-0.043945,0.061523-0.081055,0.061523L29.165039,4.303711z"/>
		<path style="fill:#A9CDA6;" d="M29.924805,4.448242c-0.011719,0-0.023438-0.00293-0.033203-0.009766l-0.057617-0.030273
			l-0.041992-0.051758l0.017578-0.057617l0.191406-0.333984l0.050781-0.038086l0.060547,0.012695l0.047852,0.032227
			c0.036133,0.020508,0.047852,0.064453,0.02832,0.098633l-0.198242,0.34082
			C29.976563,4.433594,29.952148,4.448242,29.924805,4.448242z"/>
	</g>
</g>
<g id="heath_x5F_bd_1_" style="enable-background:new    ;">
	<g id="Heath_x5F_FC_3_">
		<path style="fill:#A9CDA6;" d="M22.574219,3.68457c-0.025879,0-0.05127-0.013672-0.063965-0.037109l-0.198242-0.34082
			c-0.008789-0.015625-0.011719-0.033203-0.006836-0.050781c0.003906-0.020508,0.018066-0.037109,0.035156-0.047852
			l0.055664-0.035156l0.065918-0.005859l0.041992,0.039063l0.19043,0.334961l0.005859,0.06543l-0.039063,0.041992
			l-0.049805,0.025391C22.598145,3.681641,22.585938,3.68457,22.574219,3.68457z"/>
		<path style="fill:#A9CDA6;" d="M23.310547,3.541016c-0.038086,0-0.069824-0.023438-0.080078-0.060547l-0.207031-0.649414
			c-0.012695-0.040039,0.005371-0.082031,0.041992-0.101563l0.069336-0.03418l0.07373-0.003906L23.257813,2.75l0.20459,0.664063
			l-0.009766,0.068359l-0.052246,0.037109c-0.022949,0.007813-0.043945,0.013672-0.05957,0.016602L23.310547,3.541016z"/>
		<path style="fill:#A9CDA6;" d="M24.100586,2.433594L24.20459,3.34668l-0.021973,0.068359l-0.060059,0.035156
			c-0.043945,0.003906-0.083008,0.003906-0.094727,0.003906c-0.052246,0.003906-0.095215-0.03418-0.099121-0.085938
			l-0.085938-0.926758l0.024902-0.072266l0.078125-0.030273l0.072754,0.008789
			C24.061523,2.356445,24.09668,2.385742,24.100586,2.433594z"/>
		<path style="fill:#A9CDA6;" d="M24.740723,3.540039l-0.064941-0.017578l-0.056152-0.044922L24.61377,3.410156l0.207031-0.664063
			l0.024902-0.027344c0.007813-0.012695,0.016113-0.018555,0.024902-0.022461l0.041016-0.004883l0.033203,0.005859
			l0.063965,0.033203C25.04541,2.75,25.063477,2.791992,25.050781,2.832031l-0.205078,0.649414
			c-0.013184,0.038086-0.043945,0.061523-0.081055,0.061523L24.740723,3.540039z"/>
		<path style="fill:#A9CDA6;" d="M25.500977,3.68457c-0.011719,0-0.023926-0.00293-0.033691-0.009766l-0.057129-0.030273
			l-0.041992-0.051758l0.01709-0.057617l0.191895-0.333984l0.050781-0.038086l0.05957,0.012695l0.048828,0.032227
			c0.035156,0.020508,0.047852,0.064453,0.027344,0.098633l-0.198242,0.34082
			C25.551758,3.669922,25.52832,3.68457,25.500977,3.68457z"/>
	</g>
</g>
<g id="roughgrass_x5F_bd_4_" style="enable-background:new    ;">
	<g id="RoughGrass_x5F_FC_6_">
		<path style="fill:#A9CDA6;" d="M35.544922,14.586914l0.010742,0.056641l-0.041016,0.042969l-0.042969,0.021484
			c-0.030273,0.012695-0.063477,0.00293-0.083008-0.023438l-0.15625-0.222656l-0.009766-0.057129l0.035156-0.042969
			l0.043945-0.022461c0.029297-0.013672,0.06543-0.00293,0.086914,0.022461L35.544922,14.586914z"/>
		<path style="fill:#A9CDA6;" d="M36.688477,14.314941c0,0.003906,0,0.007813-0.003906,0.011719
			c-0.011719-0.015625-0.022461-0.025391-0.037109-0.040039c-0.047852-0.056641-0.133789-0.132813-0.133789-0.132813
			c-0.037109-0.123047,0.052734-0.328125,0.052734-0.328125c-0.014648-0.140137,0.009766-0.350098,0.009766-0.350098
			C36.920898,13.930176,36.688477,14.314941,36.688477,14.314941z"/>
		<path style="fill:#A9CDA6;" d="M36.68457,14.325684c0.03418,0.041016,0.09375,0.05957,0.116211,0.17334l-0.054688,0.022461
			l-0.119141-0.010742C36.624023,14.443359,36.651367,14.393066,36.68457,14.325684z"/>
		<path style="fill:#A9CDA6;" d="M37.740234,13.887207l-0.224609,0.224609c0,0-0.061523,0.052734-0.163086,0.290039
			l-0.010742,0.115723c0,0-0.087891,0.045898-0.201172-0.021484c0,0,0.051758-0.14502,0.063477-0.29248
			c0,0,0.009766-0.521973,0.253906-0.608887c0,0,0.180664-0.091797,0.067383,0.046875c0,0-0.148438,0.19873-0.152344,0.437988
			C37.374023,14.078613,37.526367,13.875488,37.740234,13.887207z"/>
		<path style="fill:#A9CDA6;" d="M38.728516,14.404785l-0.009766,0.057129l-0.15625,0.22168
			c-0.019531,0.026367-0.052734,0.036133-0.083008,0.023438l-0.042969-0.020508l-0.039063-0.042969l0.010742-0.056641
			L38.5625,14.36084c0.020508-0.025391,0.057617-0.036133,0.085938-0.022461l0.042969,0.022461L38.728516,14.404785z"/>
		<path style="fill:#A9CDA6;" d="M36.041992,14.145996l0.105469,0.348145l-0.00293,0.06543l-0.042969,0.039063
			c-0.029297,0.012695-0.049805,0.017578-0.05957,0.017578c-0.033203,0.006836-0.06543-0.012695-0.076172-0.048828
			l-0.106445-0.342285v-0.06543l0.042969-0.040039l0.053711-0.020508C35.993164,14.083496,36.02832,14.106934,36.041992,14.145996z"
			/>
		<path style="fill:#A9CDA6;" d="M38.015625,14.099121l0.052734,0.020508l0.042969,0.040039v0.06543l-0.106445,0.342285
			c-0.009766,0.036133-0.042969,0.055664-0.075195,0.047852c-0.010742,0-0.030273-0.004883-0.060547-0.017578l-0.042969-0.038086
			l-0.00293-0.066406l0.106445-0.348145C37.942383,14.106934,37.979492,14.083496,38.015625,14.099121z"/>
	</g>
</g>
<g id="heath_x5F_bd_3_" style="enable-background:new    ;">
	<g id="Heath_x5F_FC_5_">
		<path style="fill:#A9CDA6;" d="M38.181641,12.495117c-0.026367,0-0.051758-0.013672-0.064453-0.037109l-0.198242-0.34082
			c-0.008789-0.015625-0.011719-0.033203-0.006836-0.050781c0.003906-0.020508,0.018555-0.037109,0.035156-0.047852
			l0.055664-0.035156l0.066406-0.005859l0.041992,0.039063l0.19043,0.334961l0.005859,0.06543l-0.039063,0.041992
			l-0.049805,0.025391C38.205078,12.492188,38.193359,12.495117,38.181641,12.495117z"/>
		<path style="fill:#A9CDA6;" d="M38.916992,12.351563c-0.038086,0-0.069336-0.023438-0.080078-0.060547l-0.207031-0.649414
			c-0.012695-0.040039,0.005859-0.082031,0.041992-0.101563l0.069336-0.03418l0.074219-0.003906l0.048828,0.058594
			l0.205078,0.664063l-0.009766,0.068359l-0.052734,0.037109c-0.022461,0.007813-0.043945,0.013672-0.05957,0.016602
			L38.916992,12.351563z"/>
		<path style="fill:#A9CDA6;" d="M39.708008,11.244141l0.103516,0.913086l-0.021484,0.068359l-0.060547,0.035156
			c-0.043945,0.003906-0.083008,0.003906-0.094727,0.003906c-0.052734,0.003906-0.095703-0.03418-0.099609-0.085938
			l-0.085938-0.926758l0.025391-0.072266l0.078125-0.030273L39.625,11.158203
			C39.668945,11.166992,39.704102,11.196289,39.708008,11.244141z"/>
		<path style="fill:#A9CDA6;" d="M40.347656,12.350586l-0.064453-0.017578l-0.056641-0.044922l-0.005859-0.067383l0.207031-0.664063
			l0.025391-0.027344c0.007813-0.012695,0.015625-0.018555,0.024414-0.022461l0.041016-0.004883l0.033203,0.005859
			l0.064453,0.033203c0.036133,0.019531,0.054688,0.061523,0.041992,0.101563l-0.205078,0.649414
			c-0.013672,0.038086-0.043945,0.061523-0.081055,0.061523L40.347656,12.350586z"/>
		<path style="fill:#A9CDA6;" d="M41.107422,12.495117c-0.011719,0-0.023438-0.00293-0.033203-0.009766l-0.057617-0.030273
			l-0.041992-0.051758l0.017578-0.057617l0.191406-0.333984l0.050781-0.038086l0.060547,0.012695l0.047852,0.032227
			c0.036133,0.020508,0.047852,0.064453,0.02832,0.098633l-0.198242,0.34082
			C41.15918,12.480469,41.134766,12.495117,41.107422,12.495117z"/>
	</g>
</g>
<g id="roughgrass_x5F_bd_3_" style="enable-background:new    ;">
	<g id="RoughGrass_x5F_FC_5_">
		<path style="fill:#A9CDA6;" d="M33.789063,11.551758l0.010742,0.056641l-0.041016,0.042969l-0.042969,0.021484
			c-0.030273,0.012695-0.063477,0.00293-0.083008-0.023438l-0.15625-0.222656l-0.009766-0.057129l0.035156-0.042969
			l0.043945-0.022461c0.029297-0.013672,0.06543-0.00293,0.086914,0.022461L33.789063,11.551758z"/>
		<path style="fill:#A9CDA6;" d="M34.932617,11.279785c0,0.003906,0,0.007813-0.003906,0.011719
			c-0.011719-0.015625-0.022461-0.025391-0.037109-0.040039c-0.047852-0.056641-0.133789-0.132813-0.133789-0.132813
			c-0.037109-0.123047,0.052734-0.328125,0.052734-0.328125c-0.014648-0.140137,0.009766-0.350098,0.009766-0.350098
			C35.165039,10.89502,34.932617,11.279785,34.932617,11.279785z"/>
		<path style="fill:#A9CDA6;" d="M34.928711,11.290527c0.03418,0.041016,0.09375,0.05957,0.116211,0.17334l-0.054688,0.022461
			l-0.119141-0.010742C34.868164,11.408203,34.895508,11.35791,34.928711,11.290527z"/>
		<path style="fill:#A9CDA6;" d="M35.984375,10.852051l-0.224609,0.224609c0,0-0.061523,0.052734-0.163086,0.290039
			l-0.010742,0.115723c0,0-0.087891,0.045898-0.201172-0.021484c0,0,0.051758-0.14502,0.063477-0.29248
			c0,0,0.009766-0.521973,0.253906-0.608887c0,0,0.180664-0.091797,0.067383,0.046875c0,0-0.148438,0.19873-0.152344,0.437988
			C35.618164,11.043457,35.770508,10.840332,35.984375,10.852051z"/>
		<path style="fill:#A9CDA6;" d="M36.972656,11.369629l-0.009766,0.057129l-0.15625,0.22168
			c-0.019531,0.026367-0.052734,0.036133-0.083008,0.023438l-0.042969-0.020508l-0.039063-0.042969l0.010742-0.056641
			l0.154297-0.226074c0.020508-0.025391,0.057617-0.036133,0.085938-0.022461l0.042969,0.022461L36.972656,11.369629z"/>
		<path style="fill:#A9CDA6;" d="M34.286133,11.11084l0.105469,0.348145l-0.00293,0.06543l-0.042969,0.039063
			c-0.029297,0.012695-0.049805,0.017578-0.05957,0.017578c-0.033203,0.006836-0.06543-0.012695-0.076172-0.048828
			l-0.106445-0.342285v-0.06543l0.042969-0.040039l0.053711-0.020508C34.237305,11.04834,34.272461,11.071777,34.286133,11.11084z"
			/>
		<path style="fill:#A9CDA6;" d="M36.259766,11.063965l0.052734,0.020508l0.042969,0.040039v0.06543l-0.106445,0.342285
			c-0.009766,0.036133-0.042969,0.055664-0.075195,0.047852c-0.010742,0-0.030273-0.004883-0.060547-0.017578l-0.042969-0.038086
			l-0.00293-0.066406l0.106445-0.348145C36.186523,11.071777,36.223633,11.04834,36.259766,11.063965z"/>
	</g>
</g>
<g id="roughgrass_x5F_bd" style="enable-background:new    ;">
	<g id="RoughGrass_x5F_FC_2_">
		<path style="fill:#A9CDA6;" d="M41.058594,6.202148l0.010742,0.056641L41.02832,6.301758l-0.042969,0.021484
			c-0.030273,0.012695-0.063477,0.00293-0.083008-0.023438l-0.15625-0.222656L40.736328,6.02002l0.035156-0.042969L40.81543,5.95459
			c0.029297-0.013672,0.06543-0.00293,0.086914,0.022461L41.058594,6.202148z"/>
		<path style="fill:#A9CDA6;" d="M42.202148,5.930176c0,0.003906,0,0.007813-0.003906,0.011719
			c-0.011719-0.015625-0.022461-0.025391-0.037109-0.040039c-0.047852-0.056641-0.133789-0.132813-0.133789-0.132813
			c-0.037109-0.123047,0.052734-0.328125,0.052734-0.328125C42.06543,5.300781,42.089844,5.09082,42.089844,5.09082
			C42.43457,5.54541,42.202148,5.930176,42.202148,5.930176z"/>
		<path style="fill:#A9CDA6;" d="M42.198242,5.940918c0.03418,0.041016,0.09375,0.05957,0.116211,0.17334l-0.054688,0.022461
			l-0.119141-0.010742C42.137695,6.058594,42.165039,6.008301,42.198242,5.940918z"/>
		<path style="fill:#A9CDA6;" d="M43.253906,5.502441l-0.224609,0.224609c0,0-0.061523,0.052734-0.163086,0.290039
			l-0.010742,0.115723c0,0-0.087891,0.045898-0.201172-0.021484c0,0,0.051758-0.14502,0.063477-0.29248
			c0,0,0.009766-0.521973,0.253906-0.608887c0,0,0.180664-0.091797,0.067383,0.046875c0,0-0.148438,0.19873-0.152344,0.437988
			C42.887695,5.693848,43.040039,5.490723,43.253906,5.502441z"/>
		<path style="fill:#A9CDA6;" d="M44.242188,6.02002l-0.009766,0.057129l-0.15625,0.22168
			c-0.019531,0.026367-0.052734,0.036133-0.083008,0.023438l-0.042969-0.020508l-0.039063-0.042969l0.010742-0.056641
			l0.154297-0.226074c0.020508-0.025391,0.057617-0.036133,0.085938-0.022461l0.042969,0.022461L44.242188,6.02002z"/>
		<path style="fill:#A9CDA6;" d="M41.555664,5.76123l0.105469,0.348145l-0.00293,0.06543l-0.042969,0.039063
			c-0.029297,0.012695-0.049805,0.017578-0.05957,0.017578c-0.033203,0.006836-0.06543-0.012695-0.076172-0.048828
			l-0.106445-0.342285v-0.06543l0.042969-0.040039l0.053711-0.020508C41.506836,5.69873,41.541992,5.722168,41.555664,5.76123z"/>
		<path style="fill:#A9CDA6;" d="M43.529297,5.714355l0.052734,0.020508L43.625,5.774902v0.06543l-0.106445,0.342285
			c-0.009766,0.036133-0.042969,0.055664-0.075195,0.047852c-0.010742,0-0.030273-0.004883-0.060547-0.017578l-0.042969-0.038086
			l-0.00293-0.066406l0.106445-0.348145C43.456055,5.722168,43.493164,5.69873,43.529297,5.714355z"/>
	</g>
</g>
<g id="heath_x5F_bd" style="enable-background:new    ;">
	<g id="Heath_x5F_FC_2_">
		<path style="fill:#A9CDA6;" d="M43.695313,4.110352c-0.026367,0-0.051758-0.013672-0.064453-0.037109l-0.198242-0.34082
			c-0.008789-0.015625-0.011719-0.033203-0.006836-0.050781c0.003906-0.020508,0.018555-0.037109,0.035156-0.047852
			l0.055664-0.035156l0.066406-0.005859L43.625,3.631836l0.19043,0.334961l0.005859,0.06543l-0.039063,0.041992l-0.049805,0.025391
			C43.71875,4.107422,43.707031,4.110352,43.695313,4.110352z"/>
		<path style="fill:#A9CDA6;" d="M44.430664,3.966797c-0.038086,0-0.069336-0.023438-0.080078-0.060547l-0.207031-0.649414
			c-0.012695-0.040039,0.005859-0.082031,0.041992-0.101563l0.069336-0.03418l0.074219-0.003906l0.048828,0.058594
			l0.205078,0.664063l-0.009766,0.068359l-0.052734,0.037109c-0.022461,0.007813-0.043945,0.013672-0.05957,0.016602
			L44.430664,3.966797z"/>
		<path style="fill:#A9CDA6;" d="M45.22168,2.859375l0.103516,0.913086L45.303711,3.84082l-0.060547,0.035156
			c-0.043945,0.003906-0.083008,0.003906-0.094727,0.003906c-0.052734,0.003906-0.095703-0.03418-0.099609-0.085938
			l-0.085938-0.926758l0.025391-0.072266l0.078125-0.030273l0.072266,0.008789
			C45.182617,2.782227,45.217773,2.811523,45.22168,2.859375z"/>
		<path style="fill:#A9CDA6;" d="M45.861328,3.96582l-0.064453-0.017578L45.740234,3.90332l-0.005859-0.067383l0.207031-0.664063
			l0.025391-0.027344c0.007813-0.012695,0.015625-0.018555,0.024414-0.022461l0.041016-0.004883l0.033203,0.005859
			l0.064453,0.033203c0.036133,0.019531,0.054688,0.061523,0.041992,0.101563l-0.205078,0.649414
			c-0.013672,0.038086-0.043945,0.061523-0.081055,0.061523L45.861328,3.96582z"/>
		<path style="fill:#A9CDA6;" d="M46.621094,4.110352c-0.011719,0-0.023438-0.00293-0.033203-0.009766l-0.057617-0.030273
			l-0.041992-0.051758l0.017578-0.057617l0.191406-0.333984l0.050781-0.038086l0.060547,0.012695l0.047852,0.032227
			c0.036133,0.020508,0.047852,0.064453,0.02832,0.098633l-0.198242,0.34082
			C46.672852,4.095703,46.648438,4.110352,46.621094,4.110352z"/>
	</g>
</g>
<g id="roughgrass_x5F_bd_1_" style="enable-background:new    ;">
	<g id="RoughGrass_x5F_FC_3_">
		<path style="fill:#A9CDA6;" d="M39.302734,3.166992l0.010742,0.056641l-0.041016,0.042969l-0.042969,0.021484
			c-0.030273,0.012695-0.063477,0.00293-0.083008-0.023438l-0.15625-0.222656l-0.009766-0.057129l0.035156-0.042969
			l0.043945-0.022461c0.029297-0.013672,0.06543-0.00293,0.086914,0.022461L39.302734,3.166992z"/>
		<path style="fill:#A9CDA6;" d="M40.446289,2.89502c0,0.003906,0,0.007813-0.003906,0.011719
			c-0.011719-0.015625-0.022461-0.025391-0.037109-0.040039c-0.047852-0.056641-0.133789-0.132813-0.133789-0.132813
			c-0.037109-0.123047,0.052734-0.328125,0.052734-0.328125c-0.014648-0.140137,0.009766-0.350098,0.009766-0.350098
			C40.678711,2.510254,40.446289,2.89502,40.446289,2.89502z"/>
		<path style="fill:#A9CDA6;" d="M40.442383,2.905762c0.03418,0.041016,0.09375,0.05957,0.116211,0.17334l-0.054688,0.022461
			L40.384766,3.09082C40.381836,3.023438,40.40918,2.973145,40.442383,2.905762z"/>
		<path style="fill:#A9CDA6;" d="M41.498047,2.467285l-0.224609,0.224609c0,0-0.061523,0.052734-0.163086,0.290039
			l-0.010742,0.115723c0,0-0.087891,0.045898-0.201172-0.021484c0,0,0.051758-0.14502,0.063477-0.29248
			c0,0,0.009766-0.521973,0.253906-0.608887c0,0,0.180664-0.091797,0.067383,0.046875c0,0-0.148438,0.19873-0.152344,0.437988
			C41.131836,2.658691,41.28418,2.455566,41.498047,2.467285z"/>
		<path style="fill:#A9CDA6;" d="M42.486328,2.984863l-0.009766,0.057129l-0.15625,0.22168
			c-0.019531,0.026367-0.052734,0.036133-0.083008,0.023438l-0.042969-0.020508l-0.039063-0.042969l0.010742-0.056641
			l0.154297-0.226074c0.020508-0.025391,0.057617-0.036133,0.085938-0.022461l0.042969,0.022461L42.486328,2.984863z"/>
		<path style="fill:#A9CDA6;" d="M39.799805,2.726074l0.105469,0.348145l-0.00293,0.06543l-0.042969,0.039063
			c-0.029297,0.012695-0.049805,0.017578-0.05957,0.017578c-0.033203,0.006836-0.06543-0.012695-0.076172-0.048828
			l-0.106445-0.342285v-0.06543l0.042969-0.040039l0.053711-0.020508C39.750977,2.663574,39.786133,2.687012,39.799805,2.726074z"/>
		<path style="fill:#A9CDA6;" d="M41.773438,2.679199l0.052734,0.020508l0.042969,0.040039v0.06543l-0.106445,0.342285
			C41.75293,3.183594,41.719727,3.203125,41.6875,3.195313c-0.010742,0-0.030273-0.004883-0.060547-0.017578l-0.042969-0.038086
			l-0.00293-0.066406L41.6875,2.725098C41.700195,2.687012,41.737305,2.663574,41.773438,2.679199z"/>
	</g>
</g>
<g id="roughgrass_x5F_bd_5_" style="enable-background:new    ;">
	<g id="RoughGrass_x5F_FC_7_">
		<path style="fill:#A9CDA6;" d="M36.041992,24.464844l0.010742,0.056641l-0.041016,0.042969l-0.042969,0.021484
			c-0.030273,0.012695-0.063477,0.00293-0.083008-0.023438l-0.15625-0.222656l-0.009766-0.057129l0.035156-0.042969
			l0.043945-0.022461c0.029297-0.013672,0.06543-0.00293,0.086914,0.022461L36.041992,24.464844z"/>
		<path style="fill:#A9CDA6;" d="M37.185547,24.192871c0,0.003906,0,0.007813-0.003906,0.011719
			c-0.011719-0.015625-0.022461-0.025391-0.037109-0.040039c-0.047852-0.056641-0.133789-0.132813-0.133789-0.132813
			c-0.037109-0.123047,0.052734-0.328125,0.052734-0.328125c-0.014648-0.140137,0.009766-0.350098,0.009766-0.350098
			C37.417969,23.808105,37.185547,24.192871,37.185547,24.192871z"/>
		<path style="fill:#A9CDA6;" d="M37.181641,24.203613c0.03418,0.041016,0.09375,0.05957,0.116211,0.17334l-0.054688,0.022461
			l-0.119141-0.010742C37.121094,24.321289,37.148438,24.270996,37.181641,24.203613z"/>
		<path style="fill:#A9CDA6;" d="M38.237305,23.765137l-0.224609,0.224609c0,0-0.061523,0.052734-0.163086,0.290039
			l-0.010742,0.115723c0,0-0.087891,0.045898-0.201172-0.021484c0,0,0.051758-0.14502,0.063477-0.29248
			c0,0,0.009766-0.521973,0.253906-0.608887c0,0,0.180664-0.091797,0.067383,0.046875c0,0-0.148438,0.19873-0.152344,0.437988
			C37.871094,23.956543,38.023438,23.753418,38.237305,23.765137z"/>
		<path style="fill:#A9CDA6;" d="M39.225586,24.282715l-0.009766,0.057129l-0.15625,0.22168
			c-0.019531,0.026367-0.052734,0.036133-0.083008,0.023438l-0.042969-0.020508l-0.039063-0.042969l0.010742-0.056641
			l0.154297-0.226074c0.020508-0.025391,0.057617-0.036133,0.085938-0.022461l0.042969,0.022461L39.225586,24.282715z"/>
		<path style="fill:#A9CDA6;" d="M36.539063,24.023926l0.105469,0.348145l-0.00293,0.06543l-0.042969,0.039063
			c-0.029297,0.012695-0.049805,0.017578-0.05957,0.017578c-0.033203,0.006836-0.06543-0.012695-0.076172-0.048828
			l-0.106445-0.342285v-0.06543l0.042969-0.040039l0.053711-0.020508C36.490234,23.961426,36.525391,23.984863,36.539063,24.023926z
			"/>
		<path style="fill:#A9CDA6;" d="M38.512695,23.977051l0.052734,0.020508l0.042969,0.040039v0.06543l-0.106445,0.342285
			c-0.009766,0.036133-0.042969,0.055664-0.075195,0.047852c-0.010742,0-0.030273-0.004883-0.060547-0.017578L38.323242,24.4375
			l-0.00293-0.066406l0.106445-0.348145C38.439453,23.984863,38.476563,23.961426,38.512695,23.977051z"/>
	</g>
</g>
<g id="heath_x5F_bd_5_" style="enable-background:new    ;">
	<g id="Heath_x5F_FC_7_">
		<path style="fill:#A9CDA6;" d="M38.678711,22.373047c-0.026367,0-0.051758-0.013672-0.064453-0.037109l-0.198242-0.34082
			c-0.008789-0.015625-0.011719-0.033203-0.006836-0.050781c0.003906-0.020508,0.018555-0.037109,0.035156-0.047852L38.5,21.861328
			l0.066406-0.005859l0.041992,0.039063l0.19043,0.334961l0.005859,0.06543l-0.039063,0.041992l-0.049805,0.025391
			C38.702148,22.370117,38.69043,22.373047,38.678711,22.373047z"/>
		<path style="fill:#A9CDA6;" d="M39.414063,22.229492c-0.038086,0-0.069336-0.023438-0.080078-0.060547l-0.207031-0.649414
			c-0.012695-0.040039,0.005859-0.082031,0.041992-0.101563l0.069336-0.03418l0.074219-0.003906l0.048828,0.058594
			l0.205078,0.664063l-0.009766,0.068359l-0.052734,0.037109c-0.022461,0.007813-0.043945,0.013672-0.05957,0.016602
			L39.414063,22.229492z"/>
		<path style="fill:#A9CDA6;" d="M40.205078,21.12207l0.103516,0.913086l-0.021484,0.068359l-0.060547,0.035156
			c-0.043945,0.003906-0.083008,0.003906-0.094727,0.003906c-0.052734,0.003906-0.095703-0.03418-0.099609-0.085938
			l-0.085938-0.926758l0.025391-0.072266l0.078125-0.030273l0.072266,0.008789
			C40.166016,21.044922,40.201172,21.074219,40.205078,21.12207z"/>
		<path style="fill:#A9CDA6;" d="M40.844727,22.228516l-0.064453-0.017578l-0.056641-0.044922l-0.005859-0.067383l0.207031-0.664063
			l0.025391-0.027344c0.007813-0.012695,0.015625-0.018555,0.024414-0.022461l0.041016-0.004883l0.033203,0.005859
			l0.064453,0.033203c0.036133,0.019531,0.054688,0.061523,0.041992,0.101563l-0.205078,0.649414
			c-0.013672,0.038086-0.043945,0.061523-0.081055,0.061523L40.844727,22.228516z"/>
		<path style="fill:#A9CDA6;" d="M41.604492,22.373047c-0.011719,0-0.023438-0.00293-0.033203-0.009766l-0.057617-0.030273
			L41.47168,22.28125l0.017578-0.057617l0.191406-0.333984l0.050781-0.038086l0.060547,0.012695l0.047852,0.032227
			c0.036133,0.020508,0.047852,0.064453,0.02832,0.098633l-0.198242,0.34082
			C41.65625,22.358398,41.631836,22.373047,41.604492,22.373047z"/>
	</g>
</g>
<g id="heath_x5F_bd_4_" style="enable-background:new    ;">
	<g id="Heath_x5F_FC_6_">
		<path style="fill:#A9CDA6;" d="M34.253906,21.609375c-0.026367,0-0.051758-0.013672-0.064453-0.037109l-0.198242-0.34082
			c-0.008789-0.015625-0.011719-0.033203-0.006836-0.050781c0.003906-0.020508,0.018555-0.037109,0.035156-0.047852
			l0.055664-0.035156l0.066406-0.005859l0.041992,0.039063l0.19043,0.334961l0.005859,0.06543l-0.039063,0.041992
			l-0.049805,0.025391C34.277344,21.606445,34.265625,21.609375,34.253906,21.609375z"/>
		<path style="fill:#A9CDA6;" d="M34.989258,21.46582c-0.038086,0-0.069336-0.023438-0.080078-0.060547l-0.207031-0.649414
			c-0.012695-0.040039,0.005859-0.082031,0.041992-0.101563l0.069336-0.03418l0.074219-0.003906l0.048828,0.058594
			l0.205078,0.664063l-0.009766,0.068359l-0.052734,0.037109c-0.022461,0.007813-0.043945,0.013672-0.05957,0.016602
			L34.989258,21.46582z"/>
		<path style="fill:#A9CDA6;" d="M35.780273,20.358398l0.103516,0.913086l-0.021484,0.068359L35.801758,21.375
			c-0.043945,0.003906-0.083008,0.003906-0.094727,0.003906c-0.052734,0.003906-0.095703-0.03418-0.099609-0.085938
			l-0.085938-0.926758l0.025391-0.072266L35.625,20.263672l0.072266,0.008789
			C35.741211,20.28125,35.776367,20.310547,35.780273,20.358398z"/>
		<path style="fill:#A9CDA6;" d="M36.419922,21.464844l-0.064453-0.017578l-0.056641-0.044922l-0.005859-0.067383L36.5,20.670898
			l0.025391-0.027344c0.007813-0.012695,0.015625-0.018555,0.024414-0.022461l0.041016-0.004883l0.033203,0.005859
			l0.064453,0.033203c0.036133,0.019531,0.054688,0.061523,0.041992,0.101563l-0.205078,0.649414
			c-0.013672,0.038086-0.043945,0.061523-0.081055,0.061523L36.419922,21.464844z"/>
		<path style="fill:#A9CDA6;" d="M37.179688,21.609375c-0.011719,0-0.023438-0.00293-0.033203-0.009766l-0.057617-0.030273
			l-0.041992-0.051758l0.017578-0.057617l0.191406-0.333984l0.050781-0.038086l0.060547,0.012695l0.047852,0.032227
			c0.036133,0.020508,0.047852,0.064453,0.02832,0.098633l-0.198242,0.34082
			C37.231445,21.594727,37.207031,21.609375,37.179688,21.609375z"/>
	</g>
</g>
<g id="roughgrass_x5F_bd_7_" style="enable-background:new    ;">
	<g id="RoughGrass_x5F_FC_9_">
		<path style="fill:#A9CDA6;" d="M41.310547,36.368164l0.010742,0.056641l-0.041016,0.042969l-0.042969,0.021484
			c-0.030273,0.012695-0.063477,0.00293-0.083008-0.023438l-0.15625-0.222656l-0.009766-0.057617l0.035156-0.042969
			l0.043945-0.022461c0.029297-0.013672,0.06543-0.00293,0.086914,0.022461L41.310547,36.368164z"/>
		<path style="fill:#A9CDA6;" d="M42.454102,36.095703c0,0.003906,0,0.007813-0.003906,0.011719
			c-0.011719-0.015625-0.022461-0.025391-0.037109-0.040039c-0.047852-0.056641-0.133789-0.132813-0.133789-0.132813
			c-0.037109-0.123047,0.052734-0.328125,0.052734-0.328125c-0.014648-0.140625,0.009766-0.350586,0.009766-0.350586
			C42.686523,35.710938,42.454102,36.095703,42.454102,36.095703z"/>
		<path style="fill:#A9CDA6;" d="M42.450195,36.106445c0.03418,0.041016,0.09375,0.05957,0.116211,0.173828l-0.054688,0.022461
			l-0.119141-0.010742C42.389648,36.224609,42.416992,36.173828,42.450195,36.106445z"/>
		<path style="fill:#A9CDA6;" d="M43.505859,35.667969l-0.224609,0.224609c0,0-0.061523,0.052734-0.163086,0.290039
			l-0.010742,0.116211c0,0-0.087891,0.045898-0.201172-0.021484c0,0,0.051758-0.145508,0.063477-0.292969
			c0,0,0.009766-0.522461,0.253906-0.609375c0,0,0.180664-0.091797,0.067383,0.046875c0,0-0.148438,0.199219-0.152344,0.438477
			C43.139648,35.859375,43.291992,35.65625,43.505859,35.667969z"/>
		<path style="fill:#A9CDA6;" d="M44.494141,36.185547l-0.009766,0.057617l-0.15625,0.22168
			c-0.019531,0.026367-0.052734,0.036133-0.083008,0.023438l-0.042969-0.020508l-0.039063-0.042969l0.010742-0.056641
			l0.154297-0.226563c0.020508-0.025391,0.057617-0.036133,0.085938-0.022461l0.042969,0.022461L44.494141,36.185547z"/>
		<path style="fill:#A9CDA6;" d="M41.807617,35.926758l0.105469,0.348633l-0.00293,0.06543l-0.042969,0.039063
			c-0.029297,0.012695-0.049805,0.017578-0.05957,0.017578c-0.033203,0.006836-0.06543-0.012695-0.076172-0.048828L41.625,36.005859
			v-0.06543l0.042969-0.040039l0.053711-0.020508C41.758789,35.864258,41.793945,35.887695,41.807617,35.926758z"/>
		<path style="fill:#A9CDA6;" d="M43.78125,35.879883l0.052734,0.020508l0.042969,0.040039v0.06543l-0.106445,0.342773
			c-0.009766,0.036133-0.042969,0.055664-0.075195,0.047852c-0.010742,0-0.030273-0.004883-0.060547-0.017578l-0.042969-0.038086
			l-0.00293-0.066406l0.106445-0.348633C43.708008,35.887695,43.745117,35.864258,43.78125,35.879883z"/>
	</g>
</g>
<g id="heath_x5F_bd_6_" style="enable-background:new    ;">
	<g id="Heath_x5F_FC_8_">
		<path style="fill:#A9CDA6;" d="M43.946289,34.275391c-0.026367,0-0.051758-0.013672-0.064453-0.037109l-0.198242-0.34082
			c-0.008789-0.015625-0.011719-0.033203-0.006836-0.050781c0.003906-0.020508,0.018555-0.037109,0.035156-0.047852
			l0.055664-0.035156l0.066406-0.005859l0.041992,0.039063l0.19043,0.334961l0.005859,0.06543l-0.039063,0.041992
			l-0.049805,0.025391C43.969727,34.272461,43.958008,34.275391,43.946289,34.275391z"/>
		<path style="fill:#A9CDA6;" d="M44.681641,34.131836c-0.038086,0-0.069336-0.023438-0.080078-0.060547l-0.207031-0.649414
			c-0.012695-0.040039,0.005859-0.082031,0.041992-0.101563l0.069336-0.03418l0.074219-0.003906l0.048828,0.058594
			l0.205078,0.664063l-0.009766,0.068359l-0.052734,0.037109c-0.022461,0.007813-0.043945,0.013672-0.05957,0.016602
			L44.681641,34.131836z"/>
		<path style="fill:#A9CDA6;" d="M45.472656,33.024414l0.103516,0.913086l-0.021484,0.068359l-0.060547,0.035156
			c-0.043945,0.003906-0.083008,0.003906-0.094727,0.003906c-0.052734,0.003906-0.095703-0.03418-0.099609-0.085938
			l-0.085938-0.926758l0.025391-0.072266l0.078125-0.030273l0.072266,0.008789
			C45.433594,32.947266,45.46875,32.976563,45.472656,33.024414z"/>
		<path style="fill:#A9CDA6;" d="M46.112305,34.130859l-0.064453-0.017578l-0.056641-0.044922l-0.005859-0.067383l0.207031-0.664063
			l0.025391-0.027344c0.007813-0.012695,0.015625-0.018555,0.024414-0.022461l0.041016-0.004883l0.033203,0.005859
			l0.064453,0.033203c0.036133,0.019531,0.054688,0.061523,0.041992,0.101563l-0.205078,0.649414
			c-0.013672,0.038086-0.043945,0.061523-0.081055,0.061523L46.112305,34.130859z"/>
		<path style="fill:#A9CDA6;" d="M46.87207,34.275391c-0.011719,0-0.023438-0.00293-0.033203-0.009766l-0.057617-0.030273
			l-0.041992-0.051758l0.017578-0.057617l0.191406-0.333984l0.050781-0.038086l0.060547,0.012695l0.047852,0.032227
			c0.036133,0.020508,0.047852,0.064453,0.02832,0.098633l-0.198242,0.34082
			C46.923828,34.260742,46.899414,34.275391,46.87207,34.275391z"/>
	</g>
</g>
<g id="roughgrass_x5F_bd_6_" style="enable-background:new    ;">
	<g id="RoughGrass_x5F_FC_8_">
		<path style="fill:#A9CDA6;" d="M39.554688,33.333008l0.010742,0.056641l-0.041016,0.042969l-0.042969,0.021484
			c-0.030273,0.012695-0.063477,0.00293-0.083008-0.023438l-0.15625-0.222656l-0.009766-0.057617l0.035156-0.042969
			l0.043945-0.022461c0.029297-0.013672,0.06543-0.00293,0.086914,0.022461L39.554688,33.333008z"/>
		<path style="fill:#A9CDA6;" d="M40.698242,33.060547c0,0.003906,0,0.007813-0.003906,0.011719
			c-0.011719-0.015625-0.022461-0.025391-0.037109-0.040039c-0.047852-0.056641-0.133789-0.132813-0.133789-0.132813
			c-0.037109-0.123047,0.052734-0.328125,0.052734-0.328125c-0.014648-0.140625,0.009766-0.350586,0.009766-0.350586
			C40.930664,32.675781,40.698242,33.060547,40.698242,33.060547z"/>
		<path style="fill:#A9CDA6;" d="M40.694336,33.071289c0.03418,0.041016,0.09375,0.05957,0.116211,0.173828l-0.054688,0.022461
			l-0.119141-0.010742C40.633789,33.189453,40.661133,33.138672,40.694336,33.071289z"/>
		<path style="fill:#A9CDA6;" d="M41.75,32.632813l-0.224609,0.224609c0,0-0.061523,0.052734-0.163086,0.290039l-0.010742,0.116211
			c0,0-0.087891,0.045898-0.201172-0.021484c0,0,0.051758-0.145508,0.063477-0.292969c0,0,0.009766-0.522461,0.253906-0.609375
			c0,0,0.180664-0.091797,0.067383,0.046875c0,0-0.148438,0.199219-0.152344,0.438477
			C41.383789,32.824219,41.536133,32.621094,41.75,32.632813z"/>
		<path style="fill:#A9CDA6;" d="M42.738281,33.150391l-0.009766,0.057617l-0.15625,0.22168
			c-0.019531,0.026367-0.052734,0.036133-0.083008,0.023438l-0.042969-0.020508l-0.039063-0.042969l0.010742-0.056641
			l0.154297-0.226563c0.020508-0.025391,0.057617-0.036133,0.085938-0.022461l0.042969,0.022461L42.738281,33.150391z"/>
		<path style="fill:#A9CDA6;" d="M40.051758,32.891602l0.105469,0.348633l-0.00293,0.06543l-0.042969,0.039063
			c-0.029297,0.012695-0.049805,0.017578-0.05957,0.017578c-0.033203,0.006836-0.06543-0.012695-0.076172-0.048828
			l-0.106445-0.342773v-0.06543l0.042969-0.040039l0.053711-0.020508C40.00293,32.829102,40.038086,32.852539,40.051758,32.891602z"
			/>
		<path style="fill:#A9CDA6;" d="M42.025391,32.844727l0.052734,0.020508l0.042969,0.040039v0.06543l-0.106445,0.342773
			c-0.009766,0.036133-0.042969,0.055664-0.075195,0.047852c-0.010742,0-0.030273-0.004883-0.060547-0.017578l-0.042969-0.038086
			l-0.00293-0.066406l0.106445-0.348633C41.952148,32.852539,41.989258,32.829102,42.025391,32.844727z"/>
	</g>
</g>
<g id="roughgrass_x5F_bd_10_" style="enable-background:new    ;">
	<g id="RoughGrass_x5F_FC_12_">
		<path style="fill:#A9CDA6;" d="M28.280273,46.969727l0.010742,0.056641L28.25,47.069336l-0.042969,0.021484
			c-0.030273,0.012695-0.063477,0.00293-0.083008-0.023438l-0.15625-0.222656l-0.009766-0.057617l0.035156-0.042969
			l0.043945-0.022461c0.029297-0.013672,0.06543-0.00293,0.086914,0.022461L28.280273,46.969727z"/>
		<path style="fill:#A9CDA6;" d="M29.423828,46.697266c0,0.003906,0,0.007813-0.003906,0.011719
			c-0.011719-0.015625-0.022461-0.025391-0.037109-0.040039c-0.047852-0.056641-0.133789-0.132813-0.133789-0.132813
			c-0.037109-0.123047,0.052734-0.328125,0.052734-0.328125c-0.014648-0.140625,0.009766-0.350586,0.009766-0.350586
			C29.65625,46.3125,29.423828,46.697266,29.423828,46.697266z"/>
		<path style="fill:#A9CDA6;" d="M29.419922,46.708008c0.03418,0.041016,0.09375,0.05957,0.116211,0.173828l-0.054688,0.022461
			l-0.119141-0.010742C29.359375,46.826172,29.386719,46.775391,29.419922,46.708008z"/>
		<path style="fill:#A9CDA6;" d="M30.475586,46.269531l-0.224609,0.224609c0,0-0.061523,0.052734-0.163086,0.290039
			l-0.010742,0.116211c0,0-0.087891,0.045898-0.201172-0.021484c0,0,0.051758-0.145508,0.063477-0.292969
			c0,0,0.009766-0.522461,0.253906-0.609375c0,0,0.180664-0.091797,0.067383,0.046875c0,0-0.148438,0.199219-0.152344,0.438477
			C30.109375,46.460938,30.261719,46.257813,30.475586,46.269531z"/>
		<path style="fill:#A9CDA6;" d="M31.463867,46.787109l-0.009766,0.057617l-0.15625,0.22168
			c-0.019531,0.026367-0.052734,0.036133-0.083008,0.023438l-0.042969-0.020508l-0.039063-0.042969l0.010742-0.056641
			l0.154297-0.226563c0.020508-0.025391,0.057617-0.036133,0.085938-0.022461l0.042969,0.022461L31.463867,46.787109z"/>
		<path style="fill:#A9CDA6;" d="M28.777344,46.52832l0.105469,0.348633l-0.00293,0.06543l-0.042969,0.039063
			c-0.029297,0.012695-0.049805,0.017578-0.05957,0.017578c-0.033203,0.006836-0.06543-0.012695-0.076172-0.048828
			l-0.106445-0.342773v-0.06543l0.042969-0.040039l0.053711-0.020508C28.728516,46.46582,28.763672,46.489258,28.777344,46.52832z"
			/>
		<path style="fill:#A9CDA6;" d="M30.750977,46.481445l0.052734,0.020508l0.042969,0.040039v0.06543l-0.106445,0.342773
			c-0.009766,0.036133-0.042969,0.055664-0.075195,0.047852c-0.010742,0-0.030273-0.004883-0.060547-0.017578l-0.042969-0.038086
			l-0.00293-0.066406l0.106445-0.348633C30.677734,46.489258,30.714844,46.46582,30.750977,46.481445z"/>
	</g>
</g>
<g id="heath_x5F_bd_9_" style="enable-background:new    ;">
	<g id="Heath_x5F_FC_11_">
		<path style="fill:#A9CDA6;" d="M30.916016,44.876953c-0.026367,0-0.051758-0.013672-0.064453-0.037109l-0.198242-0.34082
			c-0.008789-0.015625-0.011719-0.033203-0.006836-0.050781c0.003906-0.020508,0.018555-0.037109,0.035156-0.047852
			l0.055664-0.035156l0.066406-0.005859l0.041992,0.039063l0.19043,0.334961l0.005859,0.06543L31.00293,44.84082l-0.049805,0.025391
			C30.939453,44.874023,30.927734,44.876953,30.916016,44.876953z"/>
		<path style="fill:#A9CDA6;" d="M31.651367,44.733398c-0.038086,0-0.069336-0.023438-0.080078-0.060547l-0.207031-0.649414
			c-0.012695-0.040039,0.005859-0.082031,0.041992-0.101563l0.069336-0.03418l0.074219-0.003906l0.048828,0.058594
			l0.205078,0.664063l-0.009766,0.068359l-0.052734,0.037109c-0.022461,0.007813-0.043945,0.013672-0.05957,0.016602
			L31.651367,44.733398z"/>
		<path style="fill:#A9CDA6;" d="M32.442383,43.625977l0.103516,0.913086l-0.021484,0.068359l-0.060547,0.035156
			c-0.043945,0.003906-0.083008,0.003906-0.094727,0.003906c-0.052734,0.003906-0.095703-0.03418-0.099609-0.085938
			l-0.085938-0.926758l0.025391-0.072266l0.078125-0.030273l0.072266,0.008789
			C32.40332,43.548828,32.438477,43.578125,32.442383,43.625977z"/>
		<path style="fill:#A9CDA6;" d="M33.082031,44.732422l-0.064453-0.017578l-0.056641-0.044922l-0.005859-0.067383l0.207031-0.664063
			l0.025391-0.027344c0.007813-0.012695,0.015625-0.018555,0.024414-0.022461l0.041016-0.004883l0.033203,0.005859
			l0.064453,0.033203c0.036133,0.019531,0.054688,0.061523,0.041992,0.101563L33.1875,44.673828
			c-0.013672,0.038086-0.043945,0.061523-0.081055,0.061523L33.082031,44.732422z"/>
		<path style="fill:#A9CDA6;" d="M33.841797,44.876953c-0.011719,0-0.023438-0.00293-0.033203-0.009766l-0.057617-0.030273
			l-0.041992-0.051758l0.017578-0.057617l0.191406-0.333984l0.050781-0.038086l0.060547,0.012695l0.047852,0.032227
			c0.036133,0.020508,0.047852,0.064453,0.02832,0.098633l-0.198242,0.34082
			C33.893555,44.862305,33.869141,44.876953,33.841797,44.876953z"/>
	</g>
</g>
<g id="roughgrass_x5F_bd_9_" style="enable-background:new    ;">
	<g id="RoughGrass_x5F_FC_11_">
		<path style="fill:#A9CDA6;" d="M26.524414,43.93457l0.010742,0.056641l-0.041016,0.042969l-0.042969,0.021484
			c-0.030273,0.012695-0.063477,0.00293-0.083008-0.023438l-0.15625-0.222656l-0.009766-0.057617l0.035156-0.042969
			l0.043945-0.022461c0.029297-0.013672,0.06543-0.00293,0.086914,0.022461L26.524414,43.93457z"/>
		<path style="fill:#A9CDA6;" d="M27.667969,43.662109c0,0.003906,0,0.007813-0.003906,0.011719
			c-0.011719-0.015625-0.022461-0.025391-0.037109-0.040039c-0.047852-0.056641-0.133789-0.132813-0.133789-0.132813
			c-0.037109-0.123047,0.052734-0.328125,0.052734-0.328125c-0.014648-0.140625,0.009766-0.350586,0.009766-0.350586
			C27.900391,43.277344,27.667969,43.662109,27.667969,43.662109z"/>
		<path style="fill:#A9CDA6;" d="M27.664063,43.672852c0.03418,0.041016,0.09375,0.05957,0.116211,0.173828l-0.054688,0.022461
			l-0.119141-0.010742C27.603516,43.791016,27.630859,43.740234,27.664063,43.672852z"/>
		<path style="fill:#A9CDA6;" d="M28.719727,43.234375l-0.224609,0.224609c0,0-0.061523,0.052734-0.163086,0.290039
			l-0.010742,0.116211c0,0-0.087891,0.045898-0.201172-0.021484c0,0,0.051758-0.145508,0.063477-0.292969
			c0,0,0.009766-0.522461,0.253906-0.609375c0,0,0.180664-0.091797,0.067383,0.046875c0,0-0.148438,0.199219-0.152344,0.438477
			C28.353516,43.425781,28.505859,43.222656,28.719727,43.234375z"/>
		<path style="fill:#A9CDA6;" d="M29.708008,43.751953l-0.009766,0.057617l-0.15625,0.22168
			c-0.019531,0.026367-0.052734,0.036133-0.083008,0.023438l-0.042969-0.020508l-0.039063-0.042969l0.010742-0.056641
			l0.154297-0.226563c0.020508-0.025391,0.057617-0.036133,0.085938-0.022461l0.042969,0.022461L29.708008,43.751953z"/>
		<path style="fill:#A9CDA6;" d="M27.021484,43.493164l0.105469,0.348633l-0.00293,0.06543l-0.042969,0.039063
			c-0.029297,0.012695-0.049805,0.017578-0.05957,0.017578c-0.033203,0.006836-0.06543-0.012695-0.076172-0.048828
			l-0.106445-0.342773v-0.06543l0.042969-0.040039l0.053711-0.020508C26.972656,43.430664,27.007813,43.454102,27.021484,43.493164z
			"/>
		<path style="fill:#A9CDA6;" d="M28.995117,43.446289l0.052734,0.020508l0.042969,0.040039v0.06543l-0.106445,0.342773
			c-0.009766,0.036133-0.042969,0.055664-0.075195,0.047852c-0.010742,0-0.030273-0.004883-0.060547-0.017578l-0.042969-0.038086
			l-0.00293-0.066406l0.106445-0.348633C28.921875,43.454102,28.958984,43.430664,28.995117,43.446289z"/>
	</g>
</g>
<g id="roughgrass_x5F_bd_11_" style="enable-background:new    ;">
	<g id="RoughGrass_x5F_FC_13_">
		<path style="fill:#A9CDA6;" d="M4.504395,48.383789l0.010254,0.056641l-0.041016,0.042969l-0.042969,0.021484
			c-0.030273,0.012695-0.062988,0.00293-0.083008-0.023438l-0.155762-0.222656l-0.009766-0.057617l0.035645-0.042969
			l0.043457-0.022461c0.029785-0.013672,0.06543-0.00293,0.086426,0.022461L4.504395,48.383789z"/>
		<path style="fill:#A9CDA6;" d="M5.647461,48.111328c0,0.003906,0,0.007813-0.003906,0.011719
			c-0.01123-0.015625-0.021973-0.025391-0.037109-0.040039c-0.047363-0.056641-0.133301-0.132813-0.133301-0.132813
			c-0.037109-0.123047,0.052734-0.328125,0.052734-0.328125c-0.014648-0.140625,0.010254-0.350586,0.010254-0.350586
			C5.880371,47.726563,5.647461,48.111328,5.647461,48.111328z"/>
		<path style="fill:#A9CDA6;" d="M5.643555,48.12207c0.03418,0.041016,0.09375,0.05957,0.116211,0.173828l-0.054199,0.022461
			l-0.118652-0.010742C5.583984,48.240234,5.610352,48.189453,5.643555,48.12207z"/>
		<path style="fill:#A9CDA6;" d="M6.700195,47.683594l-0.225098,0.224609c0,0-0.062012,0.052734-0.163086,0.290039
			L6.30127,48.314453c0,0-0.087891,0.045898-0.200684-0.021484c0,0,0.051758-0.145508,0.062988-0.292969
			c0,0,0.009766-0.522461,0.253418-0.609375c0,0,0.181152-0.091797,0.067871,0.046875c0,0-0.148926,0.199219-0.152832,0.438477
			C6.333008,47.875,6.48584,47.671875,6.700195,47.683594z"/>
		<path style="fill:#A9CDA6;" d="M7.687988,48.201172l-0.009766,0.057617l-0.155762,0.22168
			c-0.02002,0.026367-0.052734,0.036133-0.083008,0.023438l-0.042969-0.020508L7.357422,48.44043l0.010254-0.056641
			l0.154785-0.226563c0.02002-0.025391,0.056641-0.036133,0.085449-0.022461l0.042969,0.022461L7.687988,48.201172z"/>
		<path style="fill:#A9CDA6;" d="M5.000977,47.942383l0.105957,0.348633l-0.00293,0.06543l-0.042969,0.039063
			c-0.029785,0.012695-0.049805,0.017578-0.060059,0.017578c-0.032715,0.006836-0.064453-0.012695-0.075684-0.048828
			l-0.105957-0.342773v-0.06543l0.042969-0.040039l0.053223-0.020508C4.952148,47.879883,4.987793,47.90332,5.000977,47.942383z"/>
		<path style="fill:#A9CDA6;" d="M6.974609,47.895508l0.052734,0.020508l0.043457,0.040039v0.06543l-0.106445,0.342773
			c-0.009766,0.036133-0.042969,0.055664-0.075195,0.047852c-0.010254,0-0.030273-0.004883-0.060059-0.017578l-0.042969-0.038086
			l-0.00293-0.066406l0.105957-0.348633C6.901855,47.90332,6.938477,47.879883,6.974609,47.895508z"/>
	</g>
</g>
<g id="heath_x5F_bd_10_" style="enable-background:new    ;">
	<g id="Heath_x5F_FC_12_">
		<path style="fill:#A9CDA6;" d="M7.140625,46.291992c-0.025879,0-0.05127-0.013672-0.063965-0.037109l-0.198242-0.34082
			c-0.008789-0.015625-0.011719-0.033203-0.006836-0.050781c0.003906-0.020508,0.018066-0.037109,0.035156-0.047852
			l0.055664-0.035156l0.065918-0.005859l0.041992,0.039063l0.19043,0.334961l0.005859,0.06543l-0.039063,0.041992L7.177734,46.28125
			C7.164551,46.289063,7.152344,46.291992,7.140625,46.291992z"/>
		<path style="fill:#A9CDA6;" d="M7.876953,46.148438c-0.038086,0-0.069824-0.023438-0.080078-0.060547l-0.207031-0.649414
			c-0.012695-0.040039,0.005371-0.082031,0.041992-0.101563l0.069336-0.03418l0.07373-0.003906l0.049316,0.058594l0.20459,0.664063
			l-0.009766,0.068359l-0.052246,0.037109c-0.022949,0.007813-0.043945,0.013672-0.05957,0.016602L7.876953,46.148438z"/>
		<path style="fill:#A9CDA6;" d="M8.666992,45.041016l0.104004,0.913086l-0.021973,0.068359l-0.060059,0.035156
			c-0.043945,0.003906-0.083008,0.003906-0.094727,0.003906c-0.052246,0.003906-0.095215-0.03418-0.099121-0.085938
			L8.40918,45.048828l0.024902-0.072266l0.078125-0.030273l0.072754,0.008789
			C8.62793,44.963867,8.663086,44.993164,8.666992,45.041016z"/>
		<path style="fill:#A9CDA6;" d="M9.307129,46.147461l-0.064941-0.017578l-0.056152-0.044922l-0.005859-0.067383l0.207031-0.664063
			l0.024902-0.027344c0.007813-0.012695,0.016113-0.018555,0.024902-0.022461l0.041016-0.004883l0.033203,0.005859
			l0.063965,0.033203c0.036621,0.019531,0.054688,0.061523,0.041992,0.101563l-0.205078,0.649414
			c-0.013184,0.038086-0.043945,0.061523-0.081055,0.061523L9.307129,46.147461z"/>
		<path style="fill:#A9CDA6;" d="M10.067383,46.291992c-0.011719,0-0.023926-0.00293-0.033691-0.009766l-0.057129-0.030273
			L9.93457,46.200195l0.01709-0.057617l0.191895-0.333984l0.050781-0.038086l0.060059,0.012695l0.04834,0.032227
			c0.035645,0.020508,0.047852,0.064453,0.027832,0.098633l-0.198242,0.34082
			C10.118652,46.277344,10.094727,46.291992,10.067383,46.291992z"/>
	</g>
</g>
<g id="roughgrass_x5F_bd_12_" style="enable-background:new    ;">
	<g id="RoughGrass_x5F_FC_14_">
		<path style="fill:#A9CDA6;" d="M2.749512,45.348633l0.010254,0.056641L2.71875,45.448242l-0.042969,0.021484
			c-0.030273,0.012695-0.062988,0.00293-0.083008-0.023438l-0.155762-0.222656l-0.009766-0.057617l0.035645-0.042969
			l0.043457-0.022461c0.029785-0.013672,0.06543-0.00293,0.086426,0.022461L2.749512,45.348633z"/>
		<path style="fill:#A9CDA6;" d="M3.892578,45.076172c0,0.003906,0,0.007813-0.003906,0.011719
			c-0.01123-0.015625-0.021973-0.025391-0.037109-0.040039c-0.047363-0.056641-0.133301-0.132813-0.133301-0.132813
			c-0.037109-0.123047,0.052734-0.328125,0.052734-0.328125c-0.014648-0.140625,0.010254-0.350586,0.010254-0.350586
			C4.125488,44.691406,3.892578,45.076172,3.892578,45.076172z"/>
		<path style="fill:#A9CDA6;" d="M3.888672,45.086914c0.03418,0.041016,0.09375,0.05957,0.116211,0.173828l-0.054199,0.022461
			l-0.118652-0.010742C3.829102,45.205078,3.855469,45.154297,3.888672,45.086914z"/>
		<path style="fill:#A9CDA6;" d="M4.945313,44.648438l-0.225098,0.224609c0,0-0.062012,0.052734-0.163086,0.290039
			l-0.010742,0.116211c0,0-0.087891,0.045898-0.200684-0.021484c0,0,0.051758-0.145508,0.062988-0.292969
			c0,0,0.009766-0.522461,0.253418-0.609375c0,0,0.181152-0.091797,0.067871,0.046875c0,0-0.148926,0.199219-0.152832,0.438477
			C4.578125,44.839844,4.730957,44.636719,4.945313,44.648438z"/>
		<path style="fill:#A9CDA6;" d="M5.933105,45.166016L5.92334,45.223633l-0.155762,0.22168
			c-0.02002,0.026367-0.052734,0.036133-0.083008,0.023438l-0.042969-0.020508l-0.039063-0.042969l0.010254-0.056641
			l0.154785-0.226563c0.02002-0.025391,0.056641-0.036133,0.085449-0.022461l0.042969,0.022461L5.933105,45.166016z"/>
		<path style="fill:#A9CDA6;" d="M3.246094,44.907227l0.105957,0.348633l-0.00293,0.06543l-0.042969,0.039063
			c-0.029785,0.012695-0.049805,0.017578-0.060059,0.017578c-0.032715,0.006836-0.064453-0.012695-0.075684-0.048828
			l-0.105957-0.342773v-0.06543l0.042969-0.040039l0.053223-0.020508C3.197266,44.844727,3.23291,44.868164,3.246094,44.907227z"/>
		<path style="fill:#A9CDA6;" d="M5.219727,44.860352l0.052734,0.020508l0.043457,0.040039v0.06543l-0.106445,0.342773
			c-0.009766,0.036133-0.042969,0.055664-0.075195,0.047852c-0.010254,0-0.030273-0.004883-0.060059-0.017578L5.03125,45.321289
			l-0.00293-0.066406l0.105957-0.348633C5.146973,44.868164,5.183594,44.844727,5.219727,44.860352z"/>
	</g>
</g>
</svg>
