<?xml version="1.0" encoding="utf-8"?>
<!-- Generator: Adobe Illustrator 16.0.3, SVG Export Plug-In . SVG Version: 6.00 Build 0)  -->
<!DOCTYPE svg PUBLIC "-//W3C//DTD SVG 1.1//EN" "http://www.w3.org/Graphics/SVG/1.1/DTD/svg11.dtd">
<svg version="1.1" id="Layer_1" xmlns="http://www.w3.org/2000/svg" xmlns:xlink="http://www.w3.org/1999/xlink" x="0px" y="0px"
	 width="12.0039px" height="12.0078px" viewBox="0 0 12.0039 12.0078" style="enable-background:new 0 0 12.0039 12.0078;"
	 xml:space="preserve">
<g>
	<path style="fill:#FFFFFF;" d="M0.9678,5.6172V4.3579c0.0244-0.2158,0.1436-0.3481,0.3594-0.3481h1.5v1.6074H0.9678z
		 M3.1143,5.6172V4.0098h2.4229v1.6074H3.1143z M5.8252,5.6172V4.0098H8.248v1.6074H5.8252z M9.8789,4.0098
		c0.2275,0,0.3477,0.0723,0.4434,0.1919c0.1201,0.1201,0.3125,0.4917,0.4922,1.1157c0.1563,0.5156,0.252,1.0674,0.252,1.415v0.623
		H8.9551V4.0098H9.8789z"/>
</g>
<g>
	<path style="fill:#4951C7;" d="M9.9033,3.5981c0.3477,0,0.5635,0.1318,0.7314,0.312c0.4082,0.4678,0.8398,1.979,0.8398,2.7939
		v1.4756H9.1719C9.1357,7.9395,9.0156,7.7354,8.8242,7.5801c-0.1807-0.168-0.3965-0.252-0.6719-0.252
		c-0.252,0-0.4795,0.084-0.6719,0.252C7.3008,7.7354,7.1689,7.9395,7.1211,8.1797H4.1694c-0.0479-0.2402-0.167-0.4443-0.3477-0.5996
		c-0.1914-0.168-0.4072-0.252-0.6709-0.252c-0.2646,0-0.4922,0.084-0.6719,0.252C2.2866,7.7236,2.1675,7.9277,2.1069,8.168
		l-1.583-0.2168V4.2817c0.0244-0.4556,0.3242-0.6836,0.5996-0.6836H9.9033z M1.3511,4.042c-0.1914,0-0.2754,0.0962-0.2998,0.2881
		v1.1992h1.7393V4.042H1.3511z M3.7739,8.3711c0,0.3477-0.2881,0.6357-0.6357,0.6357s-0.623-0.2881-0.623-0.6357
		c0-0.3359,0.2754-0.623,0.623-0.623S3.7739,8.0352,3.7739,8.3711z M3.1987,5.5293h2.3027V4.042H3.1987V5.5293z M5.9087,5.5293
		h2.3032V4.042H5.9087V5.5293z M8.7881,8.3711c0,0.3477-0.2881,0.6357-0.6357,0.6357s-0.624-0.2881-0.624-0.6357
		c0-0.3359,0.2764-0.623,0.624-0.623S8.7881,8.0352,8.7881,8.3711z M9.04,7.2676h1.9902V6.7041c0-0.3472-0.0957-0.8872-0.252-1.4028
		c-0.1797-0.6113-0.3594-0.9712-0.4795-1.0913c-0.084-0.1079-0.1797-0.168-0.3955-0.168H9.04V7.2676z"/>
</g>
</svg>
