<?xml version="1.0" encoding="utf-8"?>
<!-- Generator: Adobe Illustrator 16.0.3, SVG Export Plug-In . SVG Version: 6.00 Build 0)  -->
<!DOCTYPE svg PUBLIC "-//W3C//DTD SVG 1.1//EN" "http://www.w3.org/Graphics/SVG/1.1/DTD/svg11.dtd">
<svg version="1.1" id="Layer_1" xmlns="http://www.w3.org/2000/svg" xmlns:xlink="http://www.w3.org/1999/xlink" x="0px" y="0px"
	 width="50px" height="50px" viewBox="0 0 50 50" style="enable-background:new 0 0 50 50;" xml:space="preserve">
<g id="heath_x5F_bd_24_">
	<g id="Heath_x5F_FC_26_">
		<path style="fill:#A9CDA6;" d="M6.86084,40.870117c-0.025879,0-0.05127-0.013672-0.063965-0.037109l-0.198242-0.34082
			c-0.008789-0.015625-0.011719-0.033203-0.006836-0.050781c0.003906-0.020508,0.018066-0.037109,0.035156-0.047852
			l0.055664-0.035156l0.065918-0.005859l0.041992,0.039063l0.19043,0.334961l0.005859,0.06543l-0.039063,0.041992
			l-0.049805,0.025391C6.884766,40.867188,6.872559,40.870117,6.86084,40.870117z"/>
		<path style="fill:#A9CDA6;" d="M7.597168,40.726563c-0.038086,0-0.069824-0.023438-0.080078-0.060547l-0.207031-0.649414
			c-0.012695-0.040039,0.005371-0.082031,0.041992-0.101563l0.069336-0.03418l0.07373-0.003906l0.049316,0.058594l0.20459,0.664063
			l-0.009766,0.068359l-0.052246,0.037109c-0.022949,0.007813-0.043945,0.013672-0.05957,0.016602L7.597168,40.726563z"/>
		<path style="fill:#A9CDA6;" d="M8.387207,39.619141l0.104004,0.913086l-0.021973,0.068359L8.40918,40.635742
			c-0.043945,0.003906-0.083008,0.003906-0.094727,0.003906c-0.052246,0.003906-0.095215-0.03418-0.099121-0.085938
			l-0.085938-0.926758l0.024902-0.072266l0.078125-0.030273l0.072754,0.008789
			C8.348145,39.541992,8.383301,39.571289,8.387207,39.619141z"/>
		<path style="fill:#A9CDA6;" d="M9.027344,40.725586l-0.064941-0.017578L8.90625,40.663086l-0.005859-0.067383l0.207031-0.664063
			l0.024902-0.027344c0.007813-0.012695,0.016113-0.018555,0.024902-0.022461l0.041016-0.004883l0.033203,0.005859
			l0.063965,0.033203c0.036621,0.019531,0.054688,0.061523,0.041992,0.101563l-0.205078,0.649414
			c-0.013184,0.038086-0.043945,0.061523-0.081055,0.061523L9.027344,40.725586z"/>
		<path style="fill:#A9CDA6;" d="M9.787598,40.870117c-0.011719,0-0.023926-0.00293-0.033691-0.009766l-0.057129-0.030273
			L9.654785,40.77832l0.01709-0.057617l0.191895-0.333984l0.050781-0.038086l0.060059,0.012695l0.04834,0.032227
			c0.035645,0.020508,0.047852,0.064453,0.027832,0.098633l-0.198242,0.34082
			C9.838867,40.855469,9.814941,40.870117,9.787598,40.870117z"/>
	</g>
</g>
<g id="heath_x5F_bd_25_" style="enable-background:new    ;">
	<g id="Heath_x5F_FC_27_">
		<path style="fill:#A9CDA6;" d="M9.529785,38.598633c-0.025879,0-0.05127-0.013672-0.063965-0.037109l-0.198242-0.34082
			c-0.008789-0.015625-0.011719-0.033203-0.006836-0.050781c0.003906-0.020508,0.018066-0.037109,0.035156-0.047852
			l0.055664-0.035156l0.065918-0.005859l0.041992,0.039063l0.19043,0.334961l0.005859,0.06543L9.616699,38.5625l-0.049805,0.025391
			C9.553711,38.595703,9.541504,38.598633,9.529785,38.598633z"/>
		<path style="fill:#A9CDA6;" d="M10.266113,38.455078c-0.038086,0-0.069824-0.023438-0.080078-0.060547l-0.207031-0.649414
			c-0.012695-0.040039,0.005371-0.082031,0.041992-0.101563l0.069336-0.03418l0.07373-0.003906l0.049316,0.058594l0.20459,0.664063
			l-0.009766,0.068359l-0.052246,0.037109c-0.022949,0.007813-0.043945,0.013672-0.05957,0.016602L10.266113,38.455078z"/>
		<path style="fill:#A9CDA6;" d="M11.056152,37.347656l0.104004,0.913086l-0.021973,0.068359l-0.060059,0.035156
			c-0.043945,0.003906-0.083008,0.003906-0.094727,0.003906c-0.052246,0.003906-0.095215-0.03418-0.099121-0.085938
			l-0.085938-0.926758l0.024902-0.072266l0.078125-0.030273l0.072754,0.008789
			C11.01709,37.270508,11.052246,37.299805,11.056152,37.347656z"/>
		<path style="fill:#A9CDA6;" d="M11.696289,38.454102l-0.064941-0.017578l-0.056152-0.044922l-0.005859-0.067383l0.207031-0.664063
			l0.024902-0.027344c0.007813-0.012695,0.016113-0.018555,0.024902-0.022461l0.041016-0.004883l0.033203,0.005859
			l0.063965,0.033203c0.036621,0.019531,0.054688,0.061523,0.041992,0.101563l-0.205078,0.649414
			c-0.013184,0.038086-0.043945,0.061523-0.081055,0.061523L11.696289,38.454102z"/>
		<path style="fill:#A9CDA6;" d="M12.456543,38.598633c-0.011719,0-0.023926-0.00293-0.033691-0.009766l-0.057129-0.030273
			l-0.041992-0.051758l0.01709-0.057617l0.191895-0.333984l0.050781-0.038086l0.060059,0.012695l0.04834,0.032227
			c0.035645,0.020508,0.047852,0.064453,0.027832,0.098633l-0.198242,0.34082
			C12.507813,38.583984,12.483887,38.598633,12.456543,38.598633z"/>
	</g>
</g>
<g id="heath_x5F_bd_26_" style="enable-background:new    ;">
	<g id="Heath_x5F_FC_28_">
		<path style="fill:#A9CDA6;" d="M5.105957,37.834961c-0.025879,0-0.05127-0.013672-0.063965-0.037109l-0.198242-0.34082
			c-0.008789-0.015625-0.011719-0.033203-0.006836-0.050781c0.003906-0.020508,0.018066-0.037109,0.035156-0.047852
			l0.055664-0.035156l0.065918-0.005859l0.041992,0.039063l0.19043,0.334961l0.005859,0.06543l-0.039063,0.041992
			l-0.049805,0.025391C5.129883,37.832031,5.117676,37.834961,5.105957,37.834961z"/>
		<path style="fill:#A9CDA6;" d="M5.842285,37.691406c-0.038086,0-0.069824-0.023438-0.080078-0.060547l-0.207031-0.649414
			c-0.012695-0.040039,0.005371-0.082031,0.041992-0.101563l0.069336-0.03418l0.07373-0.003906l0.049316,0.058594l0.20459,0.664063
			l-0.009766,0.068359l-0.052246,0.037109c-0.022949,0.007813-0.043945,0.013672-0.05957,0.016602L5.842285,37.691406z"/>
		<path style="fill:#A9CDA6;" d="M6.632324,36.583984l0.104004,0.913086L6.714355,37.56543l-0.060059,0.035156
			c-0.043945,0.003906-0.083008,0.003906-0.094727,0.003906c-0.052246,0.003906-0.095215-0.03418-0.099121-0.085938
			l-0.085938-0.926758l0.024902-0.072266l0.078125-0.030273l0.072754,0.008789
			C6.593262,36.506836,6.628418,36.536133,6.632324,36.583984z"/>
		<path style="fill:#A9CDA6;" d="M7.272461,37.69043L7.20752,37.672852L7.151367,37.62793l-0.005859-0.067383l0.207031-0.664063
			l0.024902-0.027344c0.007813-0.012695,0.016113-0.018555,0.024902-0.022461l0.041016-0.004883l0.033203,0.005859
			l0.063965,0.033203c0.036621,0.019531,0.054688,0.061523,0.041992,0.101563l-0.205078,0.649414
			c-0.013184,0.038086-0.043945,0.061523-0.081055,0.061523L7.272461,37.69043z"/>
		<path style="fill:#A9CDA6;" d="M8.032715,37.834961c-0.011719,0-0.023926-0.00293-0.033691-0.009766l-0.057129-0.030273
			l-0.041992-0.051758l0.01709-0.057617l0.191895-0.333984l0.050781-0.038086l0.060059,0.012695l0.04834,0.032227
			c0.035645,0.020508,0.047852,0.064453,0.027832,0.098633l-0.198242,0.34082
			C8.083984,37.820313,8.060059,37.834961,8.032715,37.834961z"/>
	</g>
</g>
<g id="heath_x5F_bd_17_" style="enable-background:new    ;">
	<g id="Heath_x5F_FC_19_">
		<path style="fill:#A9CDA6;" d="M25.041504,35.594727c-0.025879,0-0.05127-0.013672-0.063965-0.037109l-0.198242-0.34082
			c-0.008789-0.015625-0.011719-0.033203-0.006836-0.050781c0.003906-0.020508,0.018066-0.037109,0.035156-0.047852
			l0.055664-0.035156l0.065918-0.005859l0.041992,0.039063l0.19043,0.334961l0.005859,0.06543l-0.039063,0.041992
			l-0.049805,0.025391C25.06543,35.591797,25.053223,35.594727,25.041504,35.594727z"/>
		<path style="fill:#A9CDA6;" d="M25.777344,35.451172c-0.038086,0-0.069336-0.023438-0.080078-0.060547l-0.206543-0.649414
			c-0.012695-0.040039,0.005371-0.082031,0.041504-0.101563l0.069336-0.03418l0.074219-0.003906l0.048828,0.058594
			l0.205078,0.664063l-0.009766,0.068359l-0.052734,0.037109c-0.022461,0.007813-0.043945,0.013672-0.05957,0.016602
			L25.777344,35.451172z"/>
		<path style="fill:#A9CDA6;" d="M26.568359,34.34375l0.103516,0.913086l-0.021484,0.068359l-0.060547,0.035156
			c-0.043945,0.003906-0.083008,0.003906-0.094727,0.003906c-0.052734,0.003906-0.095703-0.03418-0.099609-0.085938
			l-0.085938-0.926758l0.025391-0.072266l0.078125-0.030273l0.072266,0.008789
			C26.529297,34.266602,26.564453,34.295898,26.568359,34.34375z"/>
		<path style="fill:#A9CDA6;" d="M27.208008,35.450195l-0.064453-0.017578l-0.056641-0.044922l-0.005859-0.067383l0.207031-0.664063
			l0.025391-0.027344c0.007813-0.012695,0.015625-0.018555,0.024414-0.022461l0.041016-0.004883l0.033203,0.005859
			l0.064453,0.033203c0.036133,0.019531,0.054688,0.061523,0.041992,0.101563l-0.205078,0.649414
			c-0.013672,0.038086-0.043945,0.061523-0.081055,0.061523L27.208008,35.450195z"/>
		<path style="fill:#A9CDA6;" d="M27.967773,35.594727c-0.011719,0-0.023438-0.00293-0.033203-0.009766l-0.057617-0.030273
			l-0.041992-0.051758l0.017578-0.057617l0.191406-0.333984l0.050781-0.038086l0.060547,0.012695l0.047852,0.032227
			c0.036133,0.020508,0.047852,0.064453,0.02832,0.098633l-0.198242,0.34082
			C28.019531,35.580078,27.995117,35.594727,27.967773,35.594727z"/>
	</g>
</g>
<g id="heath_x5F_bd_16_" style="enable-background:new    ;">
	<g id="Heath_x5F_FC_18_">
		<path style="fill:#A9CDA6;" d="M27.710938,33.323242c-0.026367,0-0.051758-0.013672-0.064453-0.037109l-0.198242-0.34082
			c-0.008789-0.015625-0.011719-0.033203-0.006836-0.050781c0.003906-0.020508,0.018555-0.037109,0.035156-0.047852
			l0.055664-0.035156l0.066406-0.005859l0.041992,0.039063l0.19043,0.334961l0.005859,0.06543l-0.039063,0.041992L27.748047,33.3125
			C27.734375,33.320313,27.722656,33.323242,27.710938,33.323242z"/>
		<path style="fill:#A9CDA6;" d="M28.446289,33.179688c-0.038086,0-0.069336-0.023438-0.080078-0.060547l-0.207031-0.649414
			c-0.012695-0.040039,0.005859-0.082031,0.041992-0.101563l0.069336-0.03418l0.074219-0.003906l0.048828,0.058594
			l0.205078,0.664063l-0.009766,0.068359l-0.052734,0.037109c-0.022461,0.007813-0.043945,0.013672-0.05957,0.016602
			L28.446289,33.179688z"/>
		<path style="fill:#A9CDA6;" d="M29.237305,32.072266l0.103516,0.913086l-0.021484,0.068359l-0.060547,0.035156
			c-0.043945,0.003906-0.083008,0.003906-0.094727,0.003906c-0.052734,0.003906-0.095703-0.03418-0.099609-0.085938
			l-0.085938-0.926758l0.025391-0.072266l0.078125-0.030273l0.072266,0.008789
			C29.198242,31.995117,29.233398,32.024414,29.237305,32.072266z"/>
		<path style="fill:#A9CDA6;" d="M29.876953,33.178711L29.8125,33.161133l-0.056641-0.044922L29.75,33.048828l0.207031-0.664063
			l0.025391-0.027344c0.007813-0.012695,0.015625-0.018555,0.024414-0.022461l0.041016-0.004883l0.033203,0.005859
			l0.064453,0.033203c0.036133,0.019531,0.054688,0.061523,0.041992,0.101563l-0.205078,0.649414
			c-0.013672,0.038086-0.043945,0.061523-0.081055,0.061523L29.876953,33.178711z"/>
		<path style="fill:#A9CDA6;" d="M30.636719,33.323242c-0.011719,0-0.023438-0.00293-0.033203-0.009766l-0.057617-0.030273
			l-0.041992-0.051758l0.017578-0.057617l0.191406-0.333984l0.050781-0.038086l0.060547,0.012695l0.047852,0.032227
			c0.036133,0.020508,0.047852,0.064453,0.02832,0.098633l-0.198242,0.34082
			C30.688477,33.308594,30.664063,33.323242,30.636719,33.323242z"/>
	</g>
</g>
<g id="heath_x5F_bd_15_" style="enable-background:new    ;">
	<g id="Heath_x5F_FC_17_">
		<path style="fill:#A9CDA6;" d="M23.286621,32.55957c-0.025879,0-0.05127-0.013672-0.063965-0.037109l-0.198242-0.34082
			c-0.008789-0.015625-0.011719-0.033203-0.006836-0.050781c0.003906-0.020508,0.018066-0.037109,0.035156-0.047852
			l0.055664-0.035156l0.065918-0.005859l0.041992,0.039063l0.19043,0.334961l0.005859,0.06543l-0.039063,0.041992
			l-0.049805,0.025391C23.310547,32.556641,23.29834,32.55957,23.286621,32.55957z"/>
		<path style="fill:#A9CDA6;" d="M24.022949,32.416016c-0.038086,0-0.069824-0.023438-0.080078-0.060547l-0.207031-0.649414
			c-0.012695-0.040039,0.005371-0.082031,0.041992-0.101563l0.069336-0.03418l0.07373-0.003906L23.970215,31.625l0.20459,0.664063
			l-0.009766,0.068359l-0.052246,0.037109c-0.022949,0.007813-0.043945,0.013672-0.05957,0.016602L24.022949,32.416016z"/>
		<path style="fill:#A9CDA6;" d="M24.812988,31.308594l0.104004,0.913086l-0.021973,0.068359l-0.060059,0.035156
			c-0.043945,0.003906-0.083008,0.003906-0.094727,0.003906c-0.052246,0.003906-0.095215-0.03418-0.099121-0.085938
			l-0.085938-0.926758l0.024902-0.072266l0.078125-0.030273l0.072754,0.008789
			C24.773926,31.231445,24.809082,31.260742,24.812988,31.308594z"/>
		<path style="fill:#A9CDA6;" d="M25.453125,32.415039l-0.064941-0.017578l-0.056152-0.044922l-0.005859-0.067383l0.207031-0.664063
			l0.025391-0.027344c0.007813-0.012695,0.015625-0.018555,0.024414-0.022461l0.041016-0.004883l0.033203,0.005859
			l0.064453,0.033203c0.036133,0.019531,0.054688,0.061523,0.041992,0.101563l-0.205078,0.649414
			c-0.013672,0.038086-0.043945,0.061523-0.081543,0.061523L25.453125,32.415039z"/>
		<path style="fill:#A9CDA6;" d="M26.212891,32.55957c-0.011719,0-0.023438-0.00293-0.033203-0.009766l-0.057617-0.030273
			l-0.041992-0.051758l0.017578-0.057617l0.191406-0.333984l0.050781-0.038086l0.060547,0.012695l0.047852,0.032227
			c0.036133,0.020508,0.047852,0.064453,0.02832,0.098633l-0.198242,0.34082
			C26.264648,32.544922,26.240234,32.55957,26.212891,32.55957z"/>
	</g>
</g>
<g id="heath_x5F_bd_27_" style="enable-background:new    ;">
	<g id="Heath_x5F_FC_29_">
		<path style="fill:#A9CDA6;" d="M4.652832,26.913086c-0.025879,0-0.05127-0.013672-0.063965-0.037109l-0.198242-0.34082
			c-0.008789-0.015625-0.011719-0.033203-0.006836-0.050781c0.003906-0.020508,0.018066-0.037109,0.035156-0.047852
			l0.055664-0.035156l0.065918-0.005859L4.58252,26.43457l0.19043,0.334961l0.005859,0.06543l-0.039063,0.041992l-0.049805,0.025391
			C4.676758,26.910156,4.664551,26.913086,4.652832,26.913086z"/>
		<path style="fill:#A9CDA6;" d="M5.38916,26.769531c-0.038086,0-0.069824-0.023438-0.080078-0.060547L5.102051,26.05957
			c-0.012695-0.040039,0.005371-0.082031,0.041992-0.101563l0.069336-0.03418l0.07373-0.003906l0.049316,0.058594l0.20459,0.664063
			L5.53125,26.710938l-0.052246,0.037109c-0.022949,0.007813-0.043945,0.013672-0.05957,0.016602L5.38916,26.769531z"/>
		<path style="fill:#A9CDA6;" d="M6.179199,25.662109l0.104004,0.913086L6.26123,26.643555l-0.060059,0.035156
			c-0.043945,0.003906-0.083008,0.003906-0.094727,0.003906c-0.052246,0.003906-0.095215-0.03418-0.099121-0.085938
			l-0.085938-0.926758l0.024902-0.072266l0.078125-0.030273l0.072754,0.008789
			C6.140137,25.584961,6.175293,25.614258,6.179199,25.662109z"/>
		<path style="fill:#A9CDA6;" d="M6.819336,26.768555l-0.064941-0.017578l-0.056152-0.044922l-0.005859-0.067383l0.207031-0.664063
			l0.024902-0.027344c0.007813-0.012695,0.016113-0.018555,0.024902-0.022461l0.041016-0.004883l0.033203,0.005859
			l0.063965,0.033203c0.036621,0.019531,0.054688,0.061523,0.041992,0.101563l-0.205078,0.649414
			c-0.013184,0.038086-0.043945,0.061523-0.081055,0.061523L6.819336,26.768555z"/>
		<path style="fill:#A9CDA6;" d="M7.57959,26.913086c-0.011719,0-0.023926-0.00293-0.033691-0.009766L7.48877,26.873047
			l-0.041992-0.051758l0.01709-0.057617l0.191895-0.333984l0.050781-0.038086l0.060059,0.012695l0.04834,0.032227
			c0.035645,0.020508,0.047852,0.064453,0.027832,0.098633l-0.198242,0.34082
			C7.630859,26.898438,7.606934,26.913086,7.57959,26.913086z"/>
	</g>
</g>
<g id="heath_x5F_bd_28_" style="enable-background:new    ;">
	<g id="Heath_x5F_FC_30_">
		<path style="fill:#A9CDA6;" d="M7.321777,24.641602c-0.025879,0-0.05127-0.013672-0.063965-0.037109l-0.198242-0.34082
			c-0.008789-0.015625-0.011719-0.033203-0.006836-0.050781c0.003906-0.020508,0.018066-0.037109,0.035156-0.047852
			l0.055664-0.035156l0.065918-0.005859l0.041992,0.039063l0.19043,0.334961l0.005859,0.06543l-0.039063,0.041992
			l-0.049805,0.025391C7.345703,24.638672,7.333496,24.641602,7.321777,24.641602z"/>
		<path style="fill:#A9CDA6;" d="M8.058105,24.498047c-0.038086,0-0.069824-0.023438-0.080078-0.060547l-0.207031-0.649414
			c-0.012695-0.040039,0.005371-0.082031,0.041992-0.101563l0.069336-0.03418l0.07373-0.003906l0.049316,0.058594l0.20459,0.664063
			l-0.009766,0.068359l-0.052246,0.037109c-0.022949,0.007813-0.043945,0.013672-0.05957,0.016602L8.058105,24.498047z"/>
		<path style="fill:#A9CDA6;" d="M8.848145,23.390625l0.104004,0.913086L8.930176,24.37207l-0.060059,0.035156
			c-0.043945,0.003906-0.083008,0.003906-0.094727,0.003906c-0.052246,0.003906-0.095215-0.03418-0.099121-0.085938
			l-0.085938-0.926758l0.024902-0.072266l0.078125-0.030273l0.072754,0.008789
			C8.809082,23.313477,8.844238,23.342773,8.848145,23.390625z"/>
		<path style="fill:#A9CDA6;" d="M9.488281,24.49707L9.42334,24.479492L9.367188,24.43457l-0.005859-0.067383l0.207031-0.664063
			l0.024902-0.027344c0.007813-0.012695,0.016113-0.018555,0.024902-0.022461l0.041016-0.004883l0.033203,0.005859L9.756348,23.6875
			c0.036621,0.019531,0.054688,0.061523,0.041992,0.101563l-0.205078,0.649414C9.580078,24.476563,9.549316,24.5,9.512207,24.5
			L9.488281,24.49707z"/>
		<path style="fill:#A9CDA6;" d="M10.248535,24.641602c-0.011719,0-0.023926-0.00293-0.033691-0.009766l-0.057129-0.030273
			l-0.041992-0.051758l0.01709-0.057617l0.191895-0.333984l0.050781-0.038086l0.060059,0.012695l0.04834,0.032227
			c0.035645,0.020508,0.047852,0.064453,0.027832,0.098633l-0.198242,0.34082
			C10.299805,24.626953,10.275879,24.641602,10.248535,24.641602z"/>
	</g>
</g>
<g id="heath_x5F_bd_29_" style="enable-background:new    ;">
	<g id="Heath_x5F_FC_31_">
		<path style="fill:#A9CDA6;" d="M2.897949,23.87793c-0.025879,0-0.05127-0.013672-0.063965-0.037109L2.635742,23.5
			c-0.008789-0.015625-0.011719-0.033203-0.006836-0.050781c0.003906-0.020508,0.018066-0.037109,0.035156-0.047852
			l0.055664-0.035156l0.065918-0.005859l0.041992,0.039063l0.19043,0.334961l0.005859,0.06543l-0.039063,0.041992
			l-0.049805,0.025391C2.921875,23.875,2.909668,23.87793,2.897949,23.87793z"/>
		<path style="fill:#A9CDA6;" d="M3.634277,23.734375c-0.038086,0-0.069824-0.023438-0.080078-0.060547l-0.207031-0.649414
			c-0.012695-0.040039,0.005371-0.082031,0.041992-0.101563l0.069336-0.03418l0.07373-0.003906l0.049316,0.058594l0.20459,0.664063
			l-0.009766,0.068359l-0.052246,0.037109c-0.022949,0.007813-0.043945,0.013672-0.05957,0.016602L3.634277,23.734375z"/>
		<path style="fill:#A9CDA6;" d="M4.424316,22.626953l0.104004,0.913086l-0.021973,0.068359l-0.060059,0.035156
			c-0.043945,0.003906-0.083008,0.003906-0.094727,0.003906c-0.052246,0.003906-0.095215-0.03418-0.099121-0.085938
			l-0.085938-0.926758L4.191406,22.5625l0.078125-0.030273l0.072754,0.008789
			C4.385254,22.549805,4.42041,22.579102,4.424316,22.626953z"/>
		<path style="fill:#A9CDA6;" d="M5.064453,23.733398L4.999512,23.71582l-0.056152-0.044922L4.9375,23.603516l0.207031-0.664063
			l0.024902-0.027344c0.007813-0.012695,0.016113-0.018555,0.024902-0.022461l0.041016-0.004883l0.033203,0.005859
			l0.063965,0.033203c0.036621,0.019531,0.054688,0.061523,0.041992,0.101563l-0.205078,0.649414
			c-0.013184,0.038086-0.043945,0.061523-0.081055,0.061523L5.064453,23.733398z"/>
		<path style="fill:#A9CDA6;" d="M5.824707,23.87793c-0.011719,0-0.023926-0.00293-0.033691-0.009766l-0.057129-0.030273
			l-0.041992-0.051758l0.01709-0.057617l0.191895-0.333984l0.050781-0.038086l0.060059,0.012695l0.04834,0.032227
			C6.095703,23.421875,6.10791,23.46582,6.087891,23.5l-0.198242,0.34082C5.875977,23.863281,5.852051,23.87793,5.824707,23.87793z"
			/>
	</g>
</g>
<g id="heath_x5F_bd_30_" style="enable-background:new    ;">
	<g id="Heath_x5F_FC_32_">
		<path style="fill:#A9CDA6;" d="M9.04541,16.50293c-0.025879,0-0.05127-0.013672-0.063965-0.037109L8.783203,16.125
			c-0.008789-0.015625-0.011719-0.033203-0.006836-0.050781c0.003906-0.020508,0.018066-0.037109,0.035156-0.047852
			l0.055664-0.035156l0.065918-0.005859l0.041992,0.039063l0.19043,0.334961l0.005859,0.06543l-0.039063,0.041992L9.08252,16.492188
			C9.069336,16.5,9.057129,16.50293,9.04541,16.50293z"/>
		<path style="fill:#A9CDA6;" d="M9.781738,16.359375c-0.038086,0-0.069824-0.023438-0.080078-0.060547l-0.207031-0.649414
			C9.481934,15.609375,9.5,15.567383,9.536621,15.547852l0.069336-0.03418l0.07373-0.003906l0.049316,0.058594l0.20459,0.664063
			l-0.009766,0.068359l-0.052246,0.037109c-0.022949,0.007813-0.043945,0.013672-0.05957,0.016602L9.781738,16.359375z"/>
		<path style="fill:#A9CDA6;" d="M10.571777,15.251953l0.104004,0.913086l-0.021973,0.068359l-0.060059,0.035156
			c-0.043945,0.003906-0.083008,0.003906-0.094727,0.003906c-0.052246,0.003906-0.095215-0.03418-0.099121-0.085938
			l-0.085938-0.926758l0.024902-0.072266l0.078125-0.030273l0.072754,0.008789
			C10.532715,15.174805,10.567871,15.204102,10.571777,15.251953z"/>
		<path style="fill:#A9CDA6;" d="M11.211914,16.358398l-0.064941-0.017578l-0.056152-0.044922l-0.005859-0.067383l0.207031-0.664063
			l0.024902-0.027344c0.007813-0.012695,0.016113-0.018555,0.024902-0.022461l0.041016-0.004883l0.033203,0.005859
			l0.063965,0.033203c0.036621,0.019531,0.054688,0.061523,0.041992,0.101563l-0.205078,0.649414
			c-0.013184,0.038086-0.043945,0.061523-0.081055,0.061523L11.211914,16.358398z"/>
		<path style="fill:#A9CDA6;" d="M11.972168,16.50293c-0.011719,0-0.023926-0.00293-0.033691-0.009766l-0.057129-0.030273
			l-0.041992-0.051758l0.01709-0.057617l0.191895-0.333984l0.050781-0.038086l0.060059,0.012695l0.04834,0.032227
			c0.035645,0.020508,0.047852,0.064453,0.027832,0.098633l-0.198242,0.34082
			C12.023438,16.488281,11.999512,16.50293,11.972168,16.50293z"/>
	</g>
</g>
<g id="heath_x5F_bd_31_" style="enable-background:new    ;">
	<g id="Heath_x5F_FC_33_">
		<path style="fill:#A9CDA6;" d="M11.714355,14.231445c-0.025879,0-0.05127-0.013672-0.063965-0.037109l-0.198242-0.34082
			c-0.008789-0.015625-0.011719-0.033203-0.006836-0.050781c0.003906-0.020508,0.018066-0.037109,0.035156-0.047852
			l0.055664-0.035156l0.065918-0.005859l0.041992,0.039063l0.19043,0.334961l0.005859,0.06543l-0.039063,0.041992
			l-0.049805,0.025391C11.738281,14.228516,11.726074,14.231445,11.714355,14.231445z"/>
		<path style="fill:#A9CDA6;" d="M12.450684,14.087891c-0.038086,0-0.069824-0.023438-0.080078-0.060547l-0.207031-0.649414
			c-0.012695-0.040039,0.005371-0.082031,0.041992-0.101563l0.069336-0.03418l0.07373-0.003906l0.049316,0.058594l0.20459,0.664063
			l-0.009766,0.068359l-0.052246,0.037109c-0.022949,0.007813-0.043945,0.013672-0.05957,0.016602L12.450684,14.087891z"/>
		<path style="fill:#A9CDA6;" d="M13.240723,12.980469l0.104004,0.913086l-0.021973,0.068359l-0.060059,0.035156
			c-0.043945,0.003906-0.083008,0.003906-0.094727,0.003906c-0.052246,0.003906-0.095215-0.03418-0.099121-0.085938
			l-0.085938-0.926758l0.024902-0.072266l0.078125-0.030273l0.072754,0.008789
			C13.20166,12.90332,13.236816,12.932617,13.240723,12.980469z"/>
		<path style="fill:#A9CDA6;" d="M13.880859,14.086914l-0.064941-0.017578l-0.056152-0.044922l-0.005859-0.067383l0.207031-0.664063
			l0.024902-0.027344c0.007813-0.012695,0.016113-0.018555,0.024902-0.022461l0.041016-0.004883l0.033203,0.005859
			l0.063965,0.033203c0.036621,0.019531,0.054688,0.061523,0.041992,0.101563L13.98584,14.02832
			c-0.013184,0.038086-0.043945,0.061523-0.081055,0.061523L13.880859,14.086914z"/>
		<path style="fill:#A9CDA6;" d="M14.641113,14.231445c-0.011719,0-0.023926-0.00293-0.033691-0.009766l-0.057129-0.030273
			l-0.041992-0.051758l0.01709-0.057617l0.191895-0.333984l0.050781-0.038086l0.060059,0.012695l0.04834,0.032227
			c0.035645,0.020508,0.047852,0.064453,0.027832,0.098633l-0.198242,0.34082
			C14.692383,14.216797,14.668457,14.231445,14.641113,14.231445z"/>
	</g>
</g>
<g id="heath_x5F_bd_32_" style="enable-background:new    ;">
	<g id="Heath_x5F_FC_34_">
		<path style="fill:#A9CDA6;" d="M7.290527,13.467773c-0.025879,0-0.05127-0.013672-0.063965-0.037109l-0.198242-0.34082
			c-0.008789-0.015625-0.011719-0.033203-0.006836-0.050781c0.003906-0.020508,0.018066-0.037109,0.035156-0.047852
			l0.055664-0.035156l0.065918-0.005859l0.041992,0.039063l0.19043,0.334961l0.005859,0.06543l-0.039063,0.041992
			l-0.049805,0.025391C7.314453,13.464844,7.302246,13.467773,7.290527,13.467773z"/>
		<path style="fill:#A9CDA6;" d="M8.026855,13.324219c-0.038086,0-0.069824-0.023438-0.080078-0.060547l-0.207031-0.649414
			c-0.012695-0.040039,0.005371-0.082031,0.041992-0.101563l0.069336-0.03418l0.07373-0.003906l0.049316,0.058594l0.20459,0.664063
			l-0.009766,0.068359l-0.052246,0.037109c-0.022949,0.007813-0.043945,0.013672-0.05957,0.016602L8.026855,13.324219z"/>
		<path style="fill:#A9CDA6;" d="M8.816895,12.216797l0.104004,0.913086l-0.021973,0.068359l-0.060059,0.035156
			c-0.043945,0.003906-0.083008,0.003906-0.094727,0.003906c-0.052246,0.003906-0.095215-0.03418-0.099121-0.085938
			l-0.085938-0.926758l0.024902-0.072266l0.078125-0.030273l0.072754,0.008789
			C8.777832,12.139648,8.812988,12.168945,8.816895,12.216797z"/>
		<path style="fill:#A9CDA6;" d="M9.457031,13.323242L9.39209,13.305664l-0.056152-0.044922l-0.005859-0.067383l0.207031-0.664063
			l0.024902-0.027344c0.007813-0.012695,0.016113-0.018555,0.024902-0.022461l0.041016-0.004883l0.033203,0.005859
			l0.063965,0.033203c0.036621,0.019531,0.054688,0.061523,0.041992,0.101563l-0.205078,0.649414
			c-0.013184,0.038086-0.043945,0.061523-0.081055,0.061523L9.457031,13.323242z"/>
		<path style="fill:#A9CDA6;" d="M10.217285,13.467773c-0.011719,0-0.023926-0.00293-0.033691-0.009766l-0.057129-0.030273
			l-0.041992-0.051758l0.01709-0.057617l0.191895-0.333984l0.050781-0.038086l0.060059,0.012695l0.04834,0.032227
			c0.035645,0.020508,0.047852,0.064453,0.027832,0.098633l-0.198242,0.34082
			C10.268555,13.453125,10.244629,13.467773,10.217285,13.467773z"/>
	</g>
</g>
<g id="heath_x5F_bd_13_" style="enable-background:new    ;">
	<g id="Heath_x5F_FC_15_">
		<path style="fill:#A9CDA6;" d="M24.32959,6.719727c-0.025879,0-0.05127-0.013672-0.063965-0.037109l-0.198242-0.34082
			c-0.008789-0.015625-0.011719-0.033203-0.006836-0.050781c0.003906-0.020508,0.018066-0.037109,0.035156-0.047852
			l0.055664-0.035156l0.065918-0.005859l0.041992,0.039063l0.19043,0.334961l0.005859,0.06543l-0.039063,0.041992
			l-0.049805,0.025391C24.353516,6.716797,24.341309,6.719727,24.32959,6.719727z"/>
		<path style="fill:#A9CDA6;" d="M25.065918,6.576172c-0.038086,0-0.069824-0.023438-0.080078-0.060547l-0.207031-0.649414
			c-0.012695-0.040039,0.005371-0.082031,0.041992-0.101563l0.069336-0.03418l0.07373-0.003906l0.049316,0.058594l0.20459,0.664063
			l-0.009766,0.068359l-0.052246,0.037109c-0.022949,0.007813-0.043945,0.013672-0.05957,0.016602L25.065918,6.576172z"/>
		<path style="fill:#A9CDA6;" d="M25.856445,5.46875l0.103516,0.913086l-0.021484,0.068359L25.87793,6.485352
			c-0.043945,0.003906-0.083008,0.003906-0.094727,0.003906c-0.052734,0.003906-0.095703-0.03418-0.099609-0.085938
			l-0.085938-0.926758l0.025391-0.072266l0.078125-0.030273l0.072266,0.008789
			C25.817383,5.391602,25.852539,5.420898,25.856445,5.46875z"/>
		<path style="fill:#A9CDA6;" d="M26.496094,6.575195l-0.064453-0.017578L26.375,6.512695l-0.005859-0.067383l0.207031-0.664063
			l0.025391-0.027344c0.007813-0.012695,0.015625-0.018555,0.024414-0.022461l0.041016-0.004883l0.033203,0.005859
			l0.064453,0.033203c0.036133,0.019531,0.054688,0.061523,0.041992,0.101563l-0.205078,0.649414
			c-0.013672,0.038086-0.043945,0.061523-0.081055,0.061523L26.496094,6.575195z"/>
		<path style="fill:#A9CDA6;" d="M27.255859,6.719727c-0.011719,0-0.023438-0.00293-0.033203-0.009766l-0.057617-0.030273
			L27.123047,6.62793l0.017578-0.057617l0.191406-0.333984l0.050781-0.038086l0.060547,0.012695l0.047852,0.032227
			c0.036133,0.020508,0.047852,0.064453,0.02832,0.098633l-0.198242,0.34082
			C27.307617,6.705078,27.283203,6.719727,27.255859,6.719727z"/>
	</g>
</g>
<g id="heath_x5F_bd_12_" style="enable-background:new    ;">
	<g id="Heath_x5F_FC_14_">
		<path style="fill:#A9CDA6;" d="M26.999023,4.448242c-0.026367,0-0.051758-0.013672-0.064453-0.037109l-0.198242-0.34082
			c-0.008789-0.015625-0.011719-0.033203-0.006836-0.050781c0.003906-0.020508,0.018555-0.037109,0.035156-0.047852
			l0.055664-0.035156l0.066406-0.005859l0.041992,0.039063l0.19043,0.334961L27.125,4.370117l-0.039063,0.041992L27.036133,4.4375
			C27.022461,4.445313,27.010742,4.448242,26.999023,4.448242z"/>
		<path style="fill:#A9CDA6;" d="M27.734375,4.304688c-0.038086,0-0.069336-0.023438-0.080078-0.060547l-0.207031-0.649414
			c-0.012695-0.040039,0.005859-0.082031,0.041992-0.101563l0.069336-0.03418l0.074219-0.003906l0.048828,0.058594
			l0.205078,0.664063l-0.009766,0.068359l-0.052734,0.037109c-0.022461,0.007813-0.043945,0.013672-0.05957,0.016602
			L27.734375,4.304688z"/>
		<path style="fill:#A9CDA6;" d="M28.525391,3.197266l0.103516,0.913086l-0.021484,0.068359l-0.060547,0.035156
			c-0.043945,0.003906-0.083008,0.003906-0.094727,0.003906c-0.052734,0.003906-0.095703-0.03418-0.099609-0.085938
			l-0.085938-0.926758l0.025391-0.072266l0.078125-0.030273l0.072266,0.008789
			C28.486328,3.120117,28.521484,3.149414,28.525391,3.197266z"/>
		<path style="fill:#A9CDA6;" d="M29.165039,4.303711l-0.064453-0.017578l-0.056641-0.044922l-0.005859-0.067383l0.207031-0.664063
			l0.025391-0.027344c0.007813-0.012695,0.015625-0.018555,0.024414-0.022461l0.041016-0.004883l0.033203,0.005859
			l0.064453,0.033203c0.036133,0.019531,0.054688,0.061523,0.041992,0.101563l-0.205078,0.649414
			c-0.013672,0.038086-0.043945,0.061523-0.081055,0.061523L29.165039,4.303711z"/>
		<path style="fill:#A9CDA6;" d="M29.924805,4.448242c-0.011719,0-0.023438-0.00293-0.033203-0.009766l-0.057617-0.030273
			l-0.041992-0.051758l0.017578-0.057617l0.191406-0.333984l0.050781-0.038086l0.060547,0.012695l0.047852,0.032227
			c0.036133,0.020508,0.047852,0.064453,0.02832,0.098633l-0.198242,0.34082
			C29.976563,4.433594,29.952148,4.448242,29.924805,4.448242z"/>
	</g>
</g>
<g id="heath_x5F_bd_14_" style="enable-background:new    ;">
	<g id="Heath_x5F_FC_16_">
		<path style="fill:#A9CDA6;" d="M22.574219,3.68457c-0.025879,0-0.05127-0.013672-0.063965-0.037109l-0.198242-0.34082
			c-0.008789-0.015625-0.011719-0.033203-0.006836-0.050781c0.003906-0.020508,0.018066-0.037109,0.035156-0.047852
			l0.055664-0.035156l0.065918-0.005859l0.041992,0.039063l0.19043,0.334961l0.005859,0.06543l-0.039063,0.041992
			l-0.049805,0.025391C22.598145,3.681641,22.585938,3.68457,22.574219,3.68457z"/>
		<path style="fill:#A9CDA6;" d="M23.310547,3.541016c-0.038086,0-0.069824-0.023438-0.080078-0.060547l-0.207031-0.649414
			c-0.012695-0.040039,0.005371-0.082031,0.041992-0.101563l0.069336-0.03418l0.07373-0.003906L23.257813,2.75l0.20459,0.664063
			l-0.009766,0.068359l-0.052246,0.037109c-0.022949,0.007813-0.043945,0.013672-0.05957,0.016602L23.310547,3.541016z"/>
		<path style="fill:#A9CDA6;" d="M24.100586,2.433594L24.20459,3.34668l-0.021973,0.068359l-0.060059,0.035156
			c-0.043945,0.003906-0.083008,0.003906-0.094727,0.003906c-0.052246,0.003906-0.095215-0.03418-0.099121-0.085938
			l-0.085938-0.926758l0.024902-0.072266l0.078125-0.030273l0.072754,0.008789
			C24.061523,2.356445,24.09668,2.385742,24.100586,2.433594z"/>
		<path style="fill:#A9CDA6;" d="M24.740723,3.540039l-0.064941-0.017578l-0.056152-0.044922L24.61377,3.410156l0.207031-0.664063
			l0.024902-0.027344c0.007813-0.012695,0.016113-0.018555,0.024902-0.022461l0.041016-0.004883l0.033203,0.005859
			l0.063965,0.033203C25.04541,2.75,25.063477,2.791992,25.050781,2.832031l-0.205078,0.649414
			c-0.013184,0.038086-0.043945,0.061523-0.081055,0.061523L24.740723,3.540039z"/>
		<path style="fill:#A9CDA6;" d="M25.500977,3.68457c-0.011719,0-0.023926-0.00293-0.033691-0.009766l-0.057129-0.030273
			l-0.041992-0.051758l0.01709-0.057617l0.191895-0.333984l0.050781-0.038086l0.05957,0.012695l0.048828,0.032227
			c0.035156,0.020508,0.047852,0.064453,0.027344,0.098633l-0.198242,0.34082
			C25.551758,3.669922,25.52832,3.68457,25.500977,3.68457z"/>
	</g>
</g>
<g id="heath_x5F_bd_4_" style="enable-background:new    ;">
	<g id="Heath_x5F_FC_6_">
		<path style="fill:#A9CDA6;" d="M35.512695,14.766602c-0.026367,0-0.051758-0.013672-0.064453-0.037109L35.25,14.388672
			c-0.008789-0.015625-0.011719-0.033203-0.006836-0.050781c0.003906-0.020508,0.018555-0.037109,0.035156-0.047852
			l0.055664-0.035156l0.066406-0.005859l0.041992,0.039063l0.19043,0.334961l0.005859,0.06543l-0.039063,0.041992
			l-0.049805,0.025391C35.536133,14.763672,35.524414,14.766602,35.512695,14.766602z"/>
		<path style="fill:#A9CDA6;" d="M36.248047,14.623047c-0.038086,0-0.069336-0.023438-0.080078-0.060547l-0.207031-0.649414
			c-0.012695-0.040039,0.005859-0.082031,0.041992-0.101563l0.069336-0.03418l0.074219-0.003906l0.048828,0.058594
			l0.205078,0.664063l-0.009766,0.068359l-0.052734,0.037109c-0.022461,0.007813-0.043945,0.013672-0.05957,0.016602
			L36.248047,14.623047z"/>
		<path style="fill:#A9CDA6;" d="M37.039063,13.515625l0.103516,0.913086l-0.021484,0.068359l-0.060547,0.035156
			c-0.043945,0.003906-0.083008,0.003906-0.094727,0.003906c-0.052734,0.003906-0.095703-0.03418-0.099609-0.085938
			l-0.085938-0.926758l0.025391-0.072266l0.078125-0.030273l0.072266,0.008789
			C37,13.438477,37.035156,13.467773,37.039063,13.515625z"/>
		<path style="fill:#A9CDA6;" d="M37.678711,14.62207l-0.064453-0.017578l-0.056641-0.044922l-0.005859-0.067383l0.207031-0.664063
			l0.025391-0.027344c0.007813-0.012695,0.015625-0.018555,0.024414-0.022461l0.041016-0.004883l0.033203,0.005859
			l0.064453,0.033203c0.036133,0.019531,0.054688,0.061523,0.041992,0.101563l-0.205078,0.649414
			C37.770508,14.601563,37.740234,14.625,37.703125,14.625L37.678711,14.62207z"/>
		<path style="fill:#A9CDA6;" d="M38.438477,14.766602c-0.011719,0-0.023438-0.00293-0.033203-0.009766l-0.057617-0.030273
			l-0.041992-0.051758l0.017578-0.057617l0.191406-0.333984l0.050781-0.038086l0.060547,0.012695l0.047852,0.032227
			c0.036133,0.020508,0.047852,0.064453,0.02832,0.098633l-0.198242,0.34082
			C38.490234,14.751953,38.46582,14.766602,38.438477,14.766602z"/>
	</g>
</g>
<g id="heath_x5F_bd_3_" style="enable-background:new    ;">
	<g id="Heath_x5F_FC_5_">
		<path style="fill:#A9CDA6;" d="M38.181641,12.495117c-0.026367,0-0.051758-0.013672-0.064453-0.037109l-0.198242-0.34082
			c-0.008789-0.015625-0.011719-0.033203-0.006836-0.050781c0.003906-0.020508,0.018555-0.037109,0.035156-0.047852
			l0.055664-0.035156l0.066406-0.005859l0.041992,0.039063l0.19043,0.334961l0.005859,0.06543l-0.039063,0.041992
			l-0.049805,0.025391C38.205078,12.492188,38.193359,12.495117,38.181641,12.495117z"/>
		<path style="fill:#A9CDA6;" d="M38.916992,12.351563c-0.038086,0-0.069336-0.023438-0.080078-0.060547l-0.207031-0.649414
			c-0.012695-0.040039,0.005859-0.082031,0.041992-0.101563l0.069336-0.03418l0.074219-0.003906l0.048828,0.058594
			l0.205078,0.664063l-0.009766,0.068359l-0.052734,0.037109c-0.022461,0.007813-0.043945,0.013672-0.05957,0.016602
			L38.916992,12.351563z"/>
		<path style="fill:#A9CDA6;" d="M39.708008,11.244141l0.103516,0.913086l-0.021484,0.068359l-0.060547,0.035156
			c-0.043945,0.003906-0.083008,0.003906-0.094727,0.003906c-0.052734,0.003906-0.095703-0.03418-0.099609-0.085938
			l-0.085938-0.926758l0.025391-0.072266l0.078125-0.030273L39.625,11.158203
			C39.668945,11.166992,39.704102,11.196289,39.708008,11.244141z"/>
		<path style="fill:#A9CDA6;" d="M40.347656,12.350586l-0.064453-0.017578l-0.056641-0.044922l-0.005859-0.067383l0.207031-0.664063
			l0.025391-0.027344c0.007813-0.012695,0.015625-0.018555,0.024414-0.022461l0.041016-0.004883l0.033203,0.005859
			l0.064453,0.033203c0.036133,0.019531,0.054688,0.061523,0.041992,0.101563l-0.205078,0.649414
			c-0.013672,0.038086-0.043945,0.061523-0.081055,0.061523L40.347656,12.350586z"/>
		<path style="fill:#A9CDA6;" d="M41.107422,12.495117c-0.011719,0-0.023438-0.00293-0.033203-0.009766l-0.057617-0.030273
			l-0.041992-0.051758l0.017578-0.057617l0.191406-0.333984l0.050781-0.038086l0.060547,0.012695l0.047852,0.032227
			c0.036133,0.020508,0.047852,0.064453,0.02832,0.098633l-0.198242,0.34082
			C41.15918,12.480469,41.134766,12.495117,41.107422,12.495117z"/>
	</g>
</g>
<g id="heath_x5F_bd_5_" style="enable-background:new    ;">
	<g id="Heath_x5F_FC_7_">
		<path style="fill:#A9CDA6;" d="M33.756836,11.731445c-0.026367,0-0.051758-0.013672-0.064453-0.037109l-0.198242-0.34082
			c-0.008789-0.015625-0.011719-0.033203-0.006836-0.050781c0.003906-0.020508,0.018555-0.037109,0.035156-0.047852
			l0.055664-0.035156l0.066406-0.005859l0.041992,0.039063l0.19043,0.334961l0.005859,0.06543l-0.039063,0.041992
			l-0.049805,0.025391C33.780273,11.728516,33.768555,11.731445,33.756836,11.731445z"/>
		<path style="fill:#A9CDA6;" d="M34.492188,11.587891c-0.038086,0-0.069336-0.023438-0.080078-0.060547l-0.207031-0.649414
			c-0.012695-0.040039,0.005859-0.082031,0.041992-0.101563l0.069336-0.03418l0.074219-0.003906l0.048828,0.058594
			l0.205078,0.664063l-0.009766,0.068359l-0.052734,0.037109c-0.022461,0.007813-0.043945,0.013672-0.05957,0.016602
			L34.492188,11.587891z"/>
		<path style="fill:#A9CDA6;" d="M35.283203,10.480469l0.103516,0.913086l-0.021484,0.068359l-0.060547,0.035156
			c-0.043945,0.003906-0.083008,0.003906-0.094727,0.003906c-0.052734,0.003906-0.095703-0.03418-0.099609-0.085938
			l-0.085938-0.926758l0.025391-0.072266l0.078125-0.030273l0.072266,0.008789
			C35.244141,10.40332,35.279297,10.432617,35.283203,10.480469z"/>
		<path style="fill:#A9CDA6;" d="M35.922852,11.586914l-0.064453-0.017578l-0.056641-0.044922l-0.005859-0.067383l0.207031-0.664063
			l0.025391-0.027344c0.007813-0.012695,0.015625-0.018555,0.024414-0.022461l0.041016-0.004883l0.033203,0.005859
			l0.064453,0.033203c0.036133,0.019531,0.054688,0.061523,0.041992,0.101563L36.02832,11.52832
			c-0.013672,0.038086-0.043945,0.061523-0.081055,0.061523L35.922852,11.586914z"/>
		<path style="fill:#A9CDA6;" d="M36.682617,11.731445c-0.011719,0-0.023438-0.00293-0.033203-0.009766l-0.057617-0.030273
			l-0.041992-0.051758l0.017578-0.057617l0.191406-0.333984l0.050781-0.038086l0.060547,0.012695l0.047852,0.032227
			c0.036133,0.020508,0.047852,0.064453,0.02832,0.098633l-0.198242,0.34082
			C36.734375,11.716797,36.709961,11.731445,36.682617,11.731445z"/>
	</g>
</g>
<g id="heath_x5F_bd_1_" style="enable-background:new    ;">
	<g id="Heath_x5F_FC_3_">
		<path style="fill:#A9CDA6;" d="M41.026367,6.381836c-0.026367,0-0.051758-0.013672-0.064453-0.037109l-0.198242-0.34082
			c-0.008789-0.015625-0.011719-0.033203-0.006836-0.050781c0.003906-0.020508,0.018555-0.037109,0.035156-0.047852
			l0.055664-0.035156l0.066406-0.005859l0.041992,0.039063l0.19043,0.334961l0.005859,0.06543l-0.039063,0.041992
			l-0.049805,0.025391C41.049805,6.378906,41.038086,6.381836,41.026367,6.381836z"/>
		<path style="fill:#A9CDA6;" d="M41.761719,6.238281c-0.038086,0-0.069336-0.023438-0.080078-0.060547L41.474609,5.52832
			c-0.012695-0.040039,0.005859-0.082031,0.041992-0.101563l0.069336-0.03418l0.074219-0.003906l0.048828,0.058594
			l0.205078,0.664063l-0.009766,0.068359l-0.052734,0.037109c-0.022461,0.007813-0.043945,0.013672-0.05957,0.016602
			L41.761719,6.238281z"/>
		<path style="fill:#A9CDA6;" d="M42.552734,5.130859l0.103516,0.913086l-0.021484,0.068359l-0.060547,0.035156
			c-0.043945,0.003906-0.083008,0.003906-0.094727,0.003906c-0.052734,0.003906-0.095703-0.03418-0.099609-0.085938
			l-0.085938-0.926758l0.025391-0.072266l0.078125-0.030273l0.072266,0.008789
			C42.513672,5.053711,42.548828,5.083008,42.552734,5.130859z"/>
		<path style="fill:#A9CDA6;" d="M43.192383,6.237305L43.12793,6.219727l-0.056641-0.044922L43.06543,6.107422l0.207031-0.664063
			l0.025391-0.027344c0.007813-0.012695,0.015625-0.018555,0.024414-0.022461l0.041016-0.004883l0.033203,0.005859
			l0.064453,0.033203c0.036133,0.019531,0.054688,0.061523,0.041992,0.101563l-0.205078,0.649414
			c-0.013672,0.038086-0.043945,0.061523-0.081055,0.061523L43.192383,6.237305z"/>
		<path style="fill:#A9CDA6;" d="M43.952148,6.381836c-0.011719,0-0.023438-0.00293-0.033203-0.009766l-0.057617-0.030273
			l-0.041992-0.051758l0.017578-0.057617l0.191406-0.333984l0.050781-0.038086l0.060547,0.012695L44.1875,5.905273
			c0.036133,0.020508,0.047852,0.064453,0.02832,0.098633l-0.198242,0.34082
			C44.003906,6.367188,43.979492,6.381836,43.952148,6.381836z"/>
	</g>
</g>
<g id="heath_x5F_bd" style="enable-background:new    ;">
	<g id="Heath_x5F_FC_2_">
		<path style="fill:#A9CDA6;" d="M43.695313,4.110352c-0.026367,0-0.051758-0.013672-0.064453-0.037109l-0.198242-0.34082
			c-0.008789-0.015625-0.011719-0.033203-0.006836-0.050781c0.003906-0.020508,0.018555-0.037109,0.035156-0.047852
			l0.055664-0.035156l0.066406-0.005859L43.625,3.631836l0.19043,0.334961l0.005859,0.06543l-0.039063,0.041992l-0.049805,0.025391
			C43.71875,4.107422,43.707031,4.110352,43.695313,4.110352z"/>
		<path style="fill:#A9CDA6;" d="M44.430664,3.966797c-0.038086,0-0.069336-0.023438-0.080078-0.060547l-0.207031-0.649414
			c-0.012695-0.040039,0.005859-0.082031,0.041992-0.101563l0.069336-0.03418l0.074219-0.003906l0.048828,0.058594
			l0.205078,0.664063l-0.009766,0.068359l-0.052734,0.037109c-0.022461,0.007813-0.043945,0.013672-0.05957,0.016602
			L44.430664,3.966797z"/>
		<path style="fill:#A9CDA6;" d="M45.22168,2.859375l0.103516,0.913086L45.303711,3.84082l-0.060547,0.035156
			c-0.043945,0.003906-0.083008,0.003906-0.094727,0.003906c-0.052734,0.003906-0.095703-0.03418-0.099609-0.085938
			l-0.085938-0.926758l0.025391-0.072266l0.078125-0.030273l0.072266,0.008789
			C45.182617,2.782227,45.217773,2.811523,45.22168,2.859375z"/>
		<path style="fill:#A9CDA6;" d="M45.861328,3.96582l-0.064453-0.017578L45.740234,3.90332l-0.005859-0.067383l0.207031-0.664063
			l0.025391-0.027344c0.007813-0.012695,0.015625-0.018555,0.024414-0.022461l0.041016-0.004883l0.033203,0.005859
			l0.064453,0.033203c0.036133,0.019531,0.054688,0.061523,0.041992,0.101563l-0.205078,0.649414
			c-0.013672,0.038086-0.043945,0.061523-0.081055,0.061523L45.861328,3.96582z"/>
		<path style="fill:#A9CDA6;" d="M46.621094,4.110352c-0.011719,0-0.023438-0.00293-0.033203-0.009766l-0.057617-0.030273
			l-0.041992-0.051758l0.017578-0.057617l0.191406-0.333984l0.050781-0.038086l0.060547,0.012695l0.047852,0.032227
			c0.036133,0.020508,0.047852,0.064453,0.02832,0.098633l-0.198242,0.34082
			C46.672852,4.095703,46.648438,4.110352,46.621094,4.110352z"/>
	</g>
</g>
<g id="heath_x5F_bd_2_" style="enable-background:new    ;">
	<g id="Heath_x5F_FC_4_">
		<path style="fill:#A9CDA6;" d="M39.270508,3.34668c-0.026367,0-0.051758-0.013672-0.064453-0.037109l-0.198242-0.34082
			c-0.008789-0.015625-0.011719-0.033203-0.006836-0.050781c0.003906-0.020508,0.018555-0.037109,0.035156-0.047852
			l0.055664-0.035156l0.066406-0.005859l0.041992,0.039063l0.19043,0.334961l0.005859,0.06543l-0.039063,0.041992
			l-0.049805,0.025391C39.293945,3.34375,39.282227,3.34668,39.270508,3.34668z"/>
		<path style="fill:#A9CDA6;" d="M40.005859,3.203125c-0.038086,0-0.069336-0.023438-0.080078-0.060547L39.71875,2.493164
			c-0.012695-0.040039,0.005859-0.082031,0.041992-0.101563l0.069336-0.03418l0.074219-0.003906l0.048828,0.058594
			l0.205078,0.664063l-0.009766,0.068359l-0.052734,0.037109c-0.022461,0.007813-0.043945,0.013672-0.05957,0.016602
			L40.005859,3.203125z"/>
		<path style="fill:#A9CDA6;" d="M40.796875,2.095703l0.103516,0.913086l-0.021484,0.068359l-0.060547,0.035156
			c-0.043945,0.003906-0.083008,0.003906-0.094727,0.003906c-0.052734,0.003906-0.095703-0.03418-0.099609-0.085938
			l-0.085938-0.926758l0.025391-0.072266l0.078125-0.030273l0.072266,0.008789
			C40.757813,2.018555,40.792969,2.047852,40.796875,2.095703z"/>
		<path style="fill:#A9CDA6;" d="M41.436523,3.202148L41.37207,3.18457L41.31543,3.139648L41.30957,3.072266l0.207031-0.664063
			l0.025391-0.027344c0.007813-0.012695,0.015625-0.018555,0.024414-0.022461l0.041016-0.004883l0.033203,0.005859
			l0.064453,0.033203c0.036133,0.019531,0.054688,0.061523,0.041992,0.101563l-0.205078,0.649414
			c-0.013672,0.038086-0.043945,0.061523-0.081055,0.061523L41.436523,3.202148z"/>
		<path style="fill:#A9CDA6;" d="M42.196289,3.34668c-0.011719,0-0.023438-0.00293-0.033203-0.009766l-0.057617-0.030273
			l-0.041992-0.051758l0.017578-0.057617l0.191406-0.333984l0.050781-0.038086l0.060547,0.012695l0.047852,0.032227
			c0.036133,0.020508,0.047852,0.064453,0.02832,0.098633l-0.198242,0.34082
			C42.248047,3.332031,42.223633,3.34668,42.196289,3.34668z"/>
	</g>
</g>
<g id="heath_x5F_bd_8_" style="enable-background:new    ;">
	<g id="Heath_x5F_FC_10_">
		<path style="fill:#A9CDA6;" d="M36.009766,24.644531c-0.026367,0-0.051758-0.013672-0.064453-0.037109l-0.198242-0.34082
			c-0.008789-0.015625-0.011719-0.033203-0.006836-0.050781c0.003906-0.020508,0.018555-0.037109,0.035156-0.047852
			l0.055664-0.035156l0.066406-0.005859l0.041992,0.039063l0.19043,0.334961l0.005859,0.06543l-0.039063,0.041992
			l-0.049805,0.025391C36.033203,24.641602,36.021484,24.644531,36.009766,24.644531z"/>
		<path style="fill:#A9CDA6;" d="M36.745117,24.500977c-0.038086,0-0.069336-0.023438-0.080078-0.060547l-0.207031-0.649414
			c-0.012695-0.040039,0.005859-0.082031,0.041992-0.101563l0.069336-0.03418l0.074219-0.003906l0.048828,0.058594
			l0.205078,0.664063l-0.009766,0.068359l-0.052734,0.037109c-0.022461,0.007813-0.043945,0.013672-0.05957,0.016602
			L36.745117,24.500977z"/>
		<path style="fill:#A9CDA6;" d="M37.536133,23.393555l0.103516,0.913086L37.618164,24.375l-0.060547,0.035156
			c-0.043945,0.003906-0.083008,0.003906-0.094727,0.003906c-0.052734,0.003906-0.095703-0.03418-0.099609-0.085938
			l-0.085938-0.926758l0.025391-0.072266l0.078125-0.030273l0.072266,0.008789
			C37.49707,23.316406,37.532227,23.345703,37.536133,23.393555z"/>
		<path style="fill:#A9CDA6;" d="M38.175781,24.5l-0.064453-0.017578L38.054688,24.4375l-0.005859-0.067383l0.207031-0.664063
			l0.025391-0.027344c0.007813-0.012695,0.015625-0.018555,0.024414-0.022461l0.041016-0.004883l0.033203,0.005859
			l0.064453,0.033203c0.036133,0.019531,0.054688,0.061523,0.041992,0.101563l-0.205078,0.649414
			c-0.013672,0.038086-0.043945,0.061523-0.081055,0.061523L38.175781,24.5z"/>
		<path style="fill:#A9CDA6;" d="M38.935547,24.644531c-0.011719,0-0.023438-0.00293-0.033203-0.009766l-0.057617-0.030273
			l-0.041992-0.051758l0.017578-0.057617l0.191406-0.333984l0.050781-0.038086l0.060547,0.012695l0.047852,0.032227
			c0.036133,0.020508,0.047852,0.064453,0.02832,0.098633l-0.198242,0.34082
			C38.987305,24.629883,38.962891,24.644531,38.935547,24.644531z"/>
	</g>
</g>
<g id="heath_x5F_bd_7_" style="enable-background:new    ;">
	<g id="Heath_x5F_FC_9_">
		<path style="fill:#A9CDA6;" d="M38.678711,22.373047c-0.026367,0-0.051758-0.013672-0.064453-0.037109l-0.198242-0.34082
			c-0.008789-0.015625-0.011719-0.033203-0.006836-0.050781c0.003906-0.020508,0.018555-0.037109,0.035156-0.047852L38.5,21.861328
			l0.066406-0.005859l0.041992,0.039063l0.19043,0.334961l0.005859,0.06543l-0.039063,0.041992l-0.049805,0.025391
			C38.702148,22.370117,38.69043,22.373047,38.678711,22.373047z"/>
		<path style="fill:#A9CDA6;" d="M39.414063,22.229492c-0.038086,0-0.069336-0.023438-0.080078-0.060547l-0.207031-0.649414
			c-0.012695-0.040039,0.005859-0.082031,0.041992-0.101563l0.069336-0.03418l0.074219-0.003906l0.048828,0.058594
			l0.205078,0.664063l-0.009766,0.068359l-0.052734,0.037109c-0.022461,0.007813-0.043945,0.013672-0.05957,0.016602
			L39.414063,22.229492z"/>
		<path style="fill:#A9CDA6;" d="M40.205078,21.12207l0.103516,0.913086l-0.021484,0.068359l-0.060547,0.035156
			c-0.043945,0.003906-0.083008,0.003906-0.094727,0.003906c-0.052734,0.003906-0.095703-0.03418-0.099609-0.085938
			l-0.085938-0.926758l0.025391-0.072266l0.078125-0.030273l0.072266,0.008789
			C40.166016,21.044922,40.201172,21.074219,40.205078,21.12207z"/>
		<path style="fill:#A9CDA6;" d="M40.844727,22.228516l-0.064453-0.017578l-0.056641-0.044922l-0.005859-0.067383l0.207031-0.664063
			l0.025391-0.027344c0.007813-0.012695,0.015625-0.018555,0.024414-0.022461l0.041016-0.004883l0.033203,0.005859
			l0.064453,0.033203c0.036133,0.019531,0.054688,0.061523,0.041992,0.101563l-0.205078,0.649414
			c-0.013672,0.038086-0.043945,0.061523-0.081055,0.061523L40.844727,22.228516z"/>
		<path style="fill:#A9CDA6;" d="M41.604492,22.373047c-0.011719,0-0.023438-0.00293-0.033203-0.009766l-0.057617-0.030273
			L41.47168,22.28125l0.017578-0.057617l0.191406-0.333984l0.050781-0.038086l0.060547,0.012695l0.047852,0.032227
			c0.036133,0.020508,0.047852,0.064453,0.02832,0.098633l-0.198242,0.34082
			C41.65625,22.358398,41.631836,22.373047,41.604492,22.373047z"/>
	</g>
</g>
<g id="heath_x5F_bd_6_" style="enable-background:new    ;">
	<g id="Heath_x5F_FC_8_">
		<path style="fill:#A9CDA6;" d="M34.253906,21.609375c-0.026367,0-0.051758-0.013672-0.064453-0.037109l-0.198242-0.34082
			c-0.008789-0.015625-0.011719-0.033203-0.006836-0.050781c0.003906-0.020508,0.018555-0.037109,0.035156-0.047852
			l0.055664-0.035156l0.066406-0.005859l0.041992,0.039063l0.19043,0.334961l0.005859,0.06543l-0.039063,0.041992
			l-0.049805,0.025391C34.277344,21.606445,34.265625,21.609375,34.253906,21.609375z"/>
		<path style="fill:#A9CDA6;" d="M34.989258,21.46582c-0.038086,0-0.069336-0.023438-0.080078-0.060547l-0.207031-0.649414
			c-0.012695-0.040039,0.005859-0.082031,0.041992-0.101563l0.069336-0.03418l0.074219-0.003906l0.048828,0.058594
			l0.205078,0.664063l-0.009766,0.068359l-0.052734,0.037109c-0.022461,0.007813-0.043945,0.013672-0.05957,0.016602
			L34.989258,21.46582z"/>
		<path style="fill:#A9CDA6;" d="M35.780273,20.358398l0.103516,0.913086l-0.021484,0.068359L35.801758,21.375
			c-0.043945,0.003906-0.083008,0.003906-0.094727,0.003906c-0.052734,0.003906-0.095703-0.03418-0.099609-0.085938
			l-0.085938-0.926758l0.025391-0.072266L35.625,20.263672l0.072266,0.008789
			C35.741211,20.28125,35.776367,20.310547,35.780273,20.358398z"/>
		<path style="fill:#A9CDA6;" d="M36.419922,21.464844l-0.064453-0.017578l-0.056641-0.044922l-0.005859-0.067383L36.5,20.670898
			l0.025391-0.027344c0.007813-0.012695,0.015625-0.018555,0.024414-0.022461l0.041016-0.004883l0.033203,0.005859
			l0.064453,0.033203c0.036133,0.019531,0.054688,0.061523,0.041992,0.101563l-0.205078,0.649414
			c-0.013672,0.038086-0.043945,0.061523-0.081055,0.061523L36.419922,21.464844z"/>
		<path style="fill:#A9CDA6;" d="M37.179688,21.609375c-0.011719,0-0.023438-0.00293-0.033203-0.009766l-0.057617-0.030273
			l-0.041992-0.051758l0.017578-0.057617l0.191406-0.333984l0.050781-0.038086l0.060547,0.012695l0.047852,0.032227
			c0.036133,0.020508,0.047852,0.064453,0.02832,0.098633l-0.198242,0.34082
			C37.231445,21.594727,37.207031,21.609375,37.179688,21.609375z"/>
	</g>
</g>
<g id="heath_x5F_bd_11_" style="enable-background:new    ;">
	<g id="Heath_x5F_FC_13_">
		<path style="fill:#A9CDA6;" d="M41.27832,36.546875c-0.026367,0-0.051758-0.013672-0.064453-0.037109l-0.198242-0.34082
			c-0.008789-0.015625-0.011719-0.033203-0.006836-0.050781c0.003906-0.020508,0.018555-0.037109,0.035156-0.047852
			l0.055664-0.035156l0.066406-0.005859l0.041992,0.039063l0.19043,0.334961l0.005859,0.06543l-0.039063,0.041992
			l-0.049805,0.025391C41.301758,36.543945,41.290039,36.546875,41.27832,36.546875z"/>
		<path style="fill:#A9CDA6;" d="M42.013672,36.40332c-0.038086,0-0.069336-0.023438-0.080078-0.060547l-0.207031-0.649414
			c-0.012695-0.040039,0.005859-0.082031,0.041992-0.101563l0.069336-0.03418l0.074219-0.003906l0.048828,0.058594
			l0.205078,0.664063l-0.009766,0.068359l-0.052734,0.037109c-0.022461,0.007813-0.043945,0.013672-0.05957,0.016602
			L42.013672,36.40332z"/>
		<path style="fill:#A9CDA6;" d="M42.804688,35.295898l0.103516,0.913086l-0.021484,0.068359L42.826172,36.3125
			c-0.043945,0.003906-0.083008,0.003906-0.094727,0.003906c-0.052734,0.003906-0.095703-0.03418-0.099609-0.085938
			l-0.085938-0.926758l0.025391-0.072266l0.078125-0.030273l0.072266,0.008789
			C42.765625,35.21875,42.800781,35.248047,42.804688,35.295898z"/>
		<path style="fill:#A9CDA6;" d="M43.444336,36.402344l-0.064453-0.017578l-0.056641-0.044922l-0.005859-0.067383l0.207031-0.664063
			l0.025391-0.027344c0.007813-0.012695,0.015625-0.018555,0.024414-0.022461l0.041016-0.004883l0.033203,0.005859
			l0.064453,0.033203c0.036133,0.019531,0.054688,0.061523,0.041992,0.101563l-0.205078,0.649414
			c-0.013672,0.038086-0.043945,0.061523-0.081055,0.061523L43.444336,36.402344z"/>
		<path style="fill:#A9CDA6;" d="M44.204102,36.546875c-0.011719,0-0.023438-0.00293-0.033203-0.009766l-0.057617-0.030273
			l-0.041992-0.051758l0.017578-0.057617l0.191406-0.333984l0.050781-0.038086l0.060547,0.012695l0.047852,0.032227
			c0.036133,0.020508,0.047852,0.064453,0.02832,0.098633l-0.198242,0.34082
			C44.255859,36.532227,44.231445,36.546875,44.204102,36.546875z"/>
	</g>
</g>
<g id="heath_x5F_bd_10_" style="enable-background:new    ;">
	<g id="Heath_x5F_FC_12_">
		<path style="fill:#A9CDA6;" d="M43.946289,34.275391c-0.026367,0-0.051758-0.013672-0.064453-0.037109l-0.198242-0.34082
			c-0.008789-0.015625-0.011719-0.033203-0.006836-0.050781c0.003906-0.020508,0.018555-0.037109,0.035156-0.047852
			l0.055664-0.035156l0.066406-0.005859l0.041992,0.039063l0.19043,0.334961l0.005859,0.06543l-0.039063,0.041992
			l-0.049805,0.025391C43.969727,34.272461,43.958008,34.275391,43.946289,34.275391z"/>
		<path style="fill:#A9CDA6;" d="M44.681641,34.131836c-0.038086,0-0.069336-0.023438-0.080078-0.060547l-0.207031-0.649414
			c-0.012695-0.040039,0.005859-0.082031,0.041992-0.101563l0.069336-0.03418l0.074219-0.003906l0.048828,0.058594
			l0.205078,0.664063l-0.009766,0.068359l-0.052734,0.037109c-0.022461,0.007813-0.043945,0.013672-0.05957,0.016602
			L44.681641,34.131836z"/>
		<path style="fill:#A9CDA6;" d="M45.472656,33.024414l0.103516,0.913086l-0.021484,0.068359l-0.060547,0.035156
			c-0.043945,0.003906-0.083008,0.003906-0.094727,0.003906c-0.052734,0.003906-0.095703-0.03418-0.099609-0.085938
			l-0.085938-0.926758l0.025391-0.072266l0.078125-0.030273l0.072266,0.008789
			C45.433594,32.947266,45.46875,32.976563,45.472656,33.024414z"/>
		<path style="fill:#A9CDA6;" d="M46.112305,34.130859l-0.064453-0.017578l-0.056641-0.044922l-0.005859-0.067383l0.207031-0.664063
			l0.025391-0.027344c0.007813-0.012695,0.015625-0.018555,0.024414-0.022461l0.041016-0.004883l0.033203,0.005859
			l0.064453,0.033203c0.036133,0.019531,0.054688,0.061523,0.041992,0.101563l-0.205078,0.649414
			c-0.013672,0.038086-0.043945,0.061523-0.081055,0.061523L46.112305,34.130859z"/>
		<path style="fill:#A9CDA6;" d="M46.87207,34.275391c-0.011719,0-0.023438-0.00293-0.033203-0.009766l-0.057617-0.030273
			l-0.041992-0.051758l0.017578-0.057617l0.191406-0.333984l0.050781-0.038086l0.060547,0.012695l0.047852,0.032227
			c0.036133,0.020508,0.047852,0.064453,0.02832,0.098633l-0.198242,0.34082
			C46.923828,34.260742,46.899414,34.275391,46.87207,34.275391z"/>
	</g>
</g>
<g id="heath_x5F_bd_9_" style="enable-background:new    ;">
	<g id="Heath_x5F_FC_11_">
		<path style="fill:#A9CDA6;" d="M39.522461,33.511719c-0.026367,0-0.051758-0.013672-0.064453-0.037109l-0.198242-0.34082
			c-0.008789-0.015625-0.011719-0.033203-0.006836-0.050781c0.003906-0.020508,0.018555-0.037109,0.035156-0.047852L39.34375,33
			l0.066406-0.005859l0.041992,0.039063l0.19043,0.334961l0.005859,0.06543l-0.039063,0.041992l-0.049805,0.025391
			C39.545898,33.508789,39.53418,33.511719,39.522461,33.511719z"/>
		<path style="fill:#A9CDA6;" d="M40.257813,33.368164c-0.038086,0-0.069336-0.023438-0.080078-0.060547l-0.207031-0.649414
			c-0.012695-0.040039,0.005859-0.082031,0.041992-0.101563l0.069336-0.03418l0.074219-0.003906l0.048828,0.058594
			l0.205078,0.664063l-0.009766,0.068359l-0.052734,0.037109c-0.022461,0.007813-0.043945,0.013672-0.05957,0.016602
			L40.257813,33.368164z"/>
		<path style="fill:#A9CDA6;" d="M41.048828,32.260742l0.103516,0.913086l-0.021484,0.068359l-0.060547,0.035156
			c-0.043945,0.003906-0.083008,0.003906-0.094727,0.003906c-0.052734,0.003906-0.095703-0.03418-0.099609-0.085938
			l-0.085938-0.926758l0.025391-0.072266l0.078125-0.030273l0.072266,0.008789
			C41.009766,32.183594,41.044922,32.212891,41.048828,32.260742z"/>
		<path style="fill:#A9CDA6;" d="M41.688477,33.367188l-0.064453-0.017578l-0.056641-0.044922l-0.005859-0.067383l0.207031-0.664063
			l0.025391-0.027344c0.007813-0.012695,0.015625-0.018555,0.024414-0.022461l0.041016-0.004883l0.033203,0.005859
			l0.064453,0.033203c0.036133,0.019531,0.054688,0.061523,0.041992,0.101563l-0.205078,0.649414
			c-0.013672,0.038086-0.043945,0.061523-0.081055,0.061523L41.688477,33.367188z"/>
		<path style="fill:#A9CDA6;" d="M42.448242,33.511719c-0.011719,0-0.023438-0.00293-0.033203-0.009766l-0.057617-0.030273
			l-0.041992-0.051758l0.017578-0.057617l0.191406-0.333984l0.050781-0.038086l0.060547,0.012695l0.047852,0.032227
			c0.036133,0.020508,0.047852,0.064453,0.02832,0.098633l-0.198242,0.34082C42.5,33.49707,42.475586,33.511719,42.448242,33.511719
			z"/>
	</g>
</g>
<g id="heath_x5F_bd_20_" style="enable-background:new    ;">
	<g id="Heath_x5F_FC_22_">
		<path style="fill:#A9CDA6;" d="M28.248047,47.148438c-0.026367,0-0.051758-0.013672-0.064453-0.037109l-0.198242-0.34082
			c-0.008789-0.015625-0.011719-0.033203-0.006836-0.050781c0.003906-0.020508,0.018555-0.037109,0.035156-0.047852
			l0.055664-0.035156l0.066406-0.005859l0.041992,0.039063l0.19043,0.334961l0.005859,0.06543l-0.039063,0.041992
			l-0.049805,0.025391C28.271484,47.145508,28.259766,47.148438,28.248047,47.148438z"/>
		<path style="fill:#A9CDA6;" d="M28.983398,47.004883c-0.038086,0-0.069336-0.023438-0.080078-0.060547l-0.207031-0.649414
			c-0.012695-0.040039,0.005859-0.082031,0.041992-0.101563l0.069336-0.03418l0.074219-0.003906l0.048828,0.058594
			l0.205078,0.664063l-0.009766,0.068359l-0.052734,0.037109C29.050781,46.991211,29.029297,46.99707,29.013672,47
			L28.983398,47.004883z"/>
		<path style="fill:#A9CDA6;" d="M29.774414,45.897461l0.103516,0.913086l-0.021484,0.068359l-0.060547,0.035156
			c-0.043945,0.003906-0.083008,0.003906-0.094727,0.003906c-0.052734,0.003906-0.095703-0.03418-0.099609-0.085938
			l-0.085938-0.926758l0.025391-0.072266l0.078125-0.030273l0.072266,0.008789
			C29.735352,45.820313,29.770508,45.849609,29.774414,45.897461z"/>
		<path style="fill:#A9CDA6;" d="M30.414063,47.003906l-0.064453-0.017578l-0.056641-0.044922l-0.005859-0.067383l0.207031-0.664063
			l0.025391-0.027344c0.007813-0.012695,0.015625-0.018555,0.024414-0.022461l0.041016-0.004883l0.033203,0.005859
			l0.064453,0.033203c0.036133,0.019531,0.054688,0.061523,0.041992,0.101563l-0.205078,0.649414
			c-0.013672,0.038086-0.043945,0.061523-0.081055,0.061523L30.414063,47.003906z"/>
		<path style="fill:#A9CDA6;" d="M31.173828,47.148438c-0.011719,0-0.023438-0.00293-0.033203-0.009766l-0.057617-0.030273
			l-0.041992-0.051758l0.017578-0.057617L31.25,46.665039l0.050781-0.038086l0.060547,0.012695l0.047852,0.032227
			c0.036133,0.020508,0.047852,0.064453,0.02832,0.098633l-0.198242,0.34082
			C31.225586,47.133789,31.201172,47.148438,31.173828,47.148438z"/>
	</g>
</g>
<g id="heath_x5F_bd_19_" style="enable-background:new    ;">
	<g id="Heath_x5F_FC_21_">
		<path style="fill:#A9CDA6;" d="M30.916016,44.876953c-0.026367,0-0.051758-0.013672-0.064453-0.037109l-0.198242-0.34082
			c-0.008789-0.015625-0.011719-0.033203-0.006836-0.050781c0.003906-0.020508,0.018555-0.037109,0.035156-0.047852
			l0.055664-0.035156l0.066406-0.005859l0.041992,0.039063l0.19043,0.334961l0.005859,0.06543L31.00293,44.84082l-0.049805,0.025391
			C30.939453,44.874023,30.927734,44.876953,30.916016,44.876953z"/>
		<path style="fill:#A9CDA6;" d="M31.651367,44.733398c-0.038086,0-0.069336-0.023438-0.080078-0.060547l-0.207031-0.649414
			c-0.012695-0.040039,0.005859-0.082031,0.041992-0.101563l0.069336-0.03418l0.074219-0.003906l0.048828,0.058594
			l0.205078,0.664063l-0.009766,0.068359l-0.052734,0.037109c-0.022461,0.007813-0.043945,0.013672-0.05957,0.016602
			L31.651367,44.733398z"/>
		<path style="fill:#A9CDA6;" d="M32.442383,43.625977l0.103516,0.913086l-0.021484,0.068359l-0.060547,0.035156
			c-0.043945,0.003906-0.083008,0.003906-0.094727,0.003906c-0.052734,0.003906-0.095703-0.03418-0.099609-0.085938
			l-0.085938-0.926758l0.025391-0.072266l0.078125-0.030273l0.072266,0.008789
			C32.40332,43.548828,32.438477,43.578125,32.442383,43.625977z"/>
		<path style="fill:#A9CDA6;" d="M33.082031,44.732422l-0.064453-0.017578l-0.056641-0.044922l-0.005859-0.067383l0.207031-0.664063
			l0.025391-0.027344c0.007813-0.012695,0.015625-0.018555,0.024414-0.022461l0.041016-0.004883l0.033203,0.005859
			l0.064453,0.033203c0.036133,0.019531,0.054688,0.061523,0.041992,0.101563L33.1875,44.673828
			c-0.013672,0.038086-0.043945,0.061523-0.081055,0.061523L33.082031,44.732422z"/>
		<path style="fill:#A9CDA6;" d="M33.841797,44.876953c-0.011719,0-0.023438-0.00293-0.033203-0.009766l-0.057617-0.030273
			l-0.041992-0.051758l0.017578-0.057617l0.191406-0.333984l0.050781-0.038086l0.060547,0.012695l0.047852,0.032227
			c0.036133,0.020508,0.047852,0.064453,0.02832,0.098633l-0.198242,0.34082
			C33.893555,44.862305,33.869141,44.876953,33.841797,44.876953z"/>
	</g>
</g>
<g id="heath_x5F_bd_18_" style="enable-background:new    ;">
	<g id="Heath_x5F_FC_20_">
		<path style="fill:#A9CDA6;" d="M26.492188,44.113281c-0.026367,0-0.051758-0.013672-0.064453-0.037109l-0.198242-0.34082
			c-0.008789-0.015625-0.011719-0.033203-0.006836-0.050781c0.003906-0.020508,0.018555-0.037109,0.035156-0.047852
			l0.055664-0.035156l0.066406-0.005859l0.041992,0.039063l0.19043,0.334961l0.005859,0.06543l-0.039063,0.041992
			l-0.049805,0.025391C26.515625,44.110352,26.503906,44.113281,26.492188,44.113281z"/>
		<path style="fill:#A9CDA6;" d="M27.227539,43.969727c-0.038086,0-0.069336-0.023438-0.080078-0.060547l-0.207031-0.649414
			c-0.012695-0.040039,0.005859-0.082031,0.041992-0.101563l0.069336-0.03418l0.074219-0.003906l0.048828,0.058594
			l0.205078,0.664063l-0.009766,0.068359l-0.052734,0.037109c-0.022461,0.007813-0.043945,0.013672-0.05957,0.016602
			L27.227539,43.969727z"/>
		<path style="fill:#A9CDA6;" d="M28.018555,42.862305l0.103516,0.913086l-0.021484,0.068359l-0.060547,0.035156
			c-0.043945,0.003906-0.083008,0.003906-0.094727,0.003906c-0.052734,0.003906-0.095703-0.03418-0.099609-0.085938
			l-0.085938-0.926758l0.025391-0.072266l0.078125-0.030273l0.072266,0.008789
			C27.979492,42.785156,28.014648,42.814453,28.018555,42.862305z"/>
		<path style="fill:#A9CDA6;" d="M28.658203,43.96875l-0.064453-0.017578l-0.056641-0.044922l-0.005859-0.067383l0.207031-0.664063
			l0.025391-0.027344c0.007813-0.012695,0.015625-0.018555,0.024414-0.022461l0.041016-0.004883l0.033203,0.005859
			l0.064453,0.033203c0.036133,0.019531,0.054688,0.061523,0.041992,0.101563l-0.205078,0.649414
			C28.75,43.948242,28.719727,43.97168,28.682617,43.97168L28.658203,43.96875z"/>
		<path style="fill:#A9CDA6;" d="M29.417969,44.113281c-0.011719,0-0.023438-0.00293-0.033203-0.009766l-0.057617-0.030273
			l-0.041992-0.051758l0.017578-0.057617l0.191406-0.333984l0.050781-0.038086l0.060547,0.012695l0.047852,0.032227
			c0.036133,0.020508,0.047852,0.064453,0.02832,0.098633l-0.198242,0.34082
			C29.469727,44.098633,29.445313,44.113281,29.417969,44.113281z"/>
	</g>
</g>
<g id="heath_x5F_bd_21_" style="enable-background:new    ;">
	<g id="Heath_x5F_FC_23_">
		<path style="fill:#A9CDA6;" d="M4.47168,48.563477c-0.025879,0-0.05127-0.013672-0.063965-0.037109l-0.198242-0.34082
			c-0.008789-0.015625-0.011719-0.033203-0.006836-0.050781c0.003906-0.020508,0.018066-0.037109,0.035156-0.047852
			l0.055664-0.035156l0.065918-0.005859l0.041992,0.039063l0.19043,0.334961l0.005859,0.06543l-0.039063,0.041992
			l-0.049805,0.025391C4.495605,48.560547,4.483398,48.563477,4.47168,48.563477z"/>
		<path style="fill:#A9CDA6;" d="M5.208008,48.419922c-0.038086,0-0.069824-0.023438-0.080078-0.060547l-0.207031-0.649414
			c-0.012695-0.040039,0.005371-0.082031,0.041992-0.101563l0.069336-0.03418l0.07373-0.003906l0.049316,0.058594l0.20459,0.664063
			l-0.009766,0.068359l-0.052246,0.037109c-0.022949,0.007813-0.043945,0.013672-0.05957,0.016602L5.208008,48.419922z"/>
		<path style="fill:#A9CDA6;" d="M5.998047,47.3125l0.104004,0.913086l-0.021973,0.068359L6.02002,48.329102
			c-0.043945,0.003906-0.083008,0.003906-0.094727,0.003906c-0.052246,0.003906-0.095215-0.03418-0.099121-0.085938
			l-0.085938-0.926758l0.024902-0.072266l0.078125-0.030273l0.072754,0.008789
			C5.958984,47.235352,5.994141,47.264648,5.998047,47.3125z"/>
		<path style="fill:#A9CDA6;" d="M6.638184,48.418945l-0.064941-0.017578L6.51709,48.356445L6.51123,48.289063L6.718262,47.625
			l0.024902-0.027344c0.007813-0.012695,0.016113-0.018555,0.024902-0.022461l0.041016-0.004883l0.033203,0.005859
			l0.063965,0.033203c0.036621,0.019531,0.054688,0.061523,0.041992,0.101563l-0.205078,0.649414
			c-0.013184,0.038086-0.043945,0.061523-0.081055,0.061523L6.638184,48.418945z"/>
		<path style="fill:#A9CDA6;" d="M7.398438,48.563477c-0.011719,0-0.023926-0.00293-0.033691-0.009766l-0.057129-0.030273
			L7.265625,48.47168l0.01709-0.057617l0.191895-0.333984l0.050781-0.038086l0.060059,0.012695l0.04834,0.032227
			c0.035645,0.020508,0.047852,0.064453,0.027832,0.098633l-0.198242,0.34082
			C7.449707,48.548828,7.425781,48.563477,7.398438,48.563477z"/>
	</g>
</g>
<g id="heath_x5F_bd_22_" style="enable-background:new    ;">
	<g id="Heath_x5F_FC_24_">
		<path style="fill:#A9CDA6;" d="M7.140625,46.291992c-0.025879,0-0.05127-0.013672-0.063965-0.037109l-0.198242-0.34082
			c-0.008789-0.015625-0.011719-0.033203-0.006836-0.050781c0.003906-0.020508,0.018066-0.037109,0.035156-0.047852
			l0.055664-0.035156l0.065918-0.005859l0.041992,0.039063l0.19043,0.334961l0.005859,0.06543l-0.039063,0.041992L7.177734,46.28125
			C7.164551,46.289063,7.152344,46.291992,7.140625,46.291992z"/>
		<path style="fill:#A9CDA6;" d="M7.876953,46.148438c-0.038086,0-0.069824-0.023438-0.080078-0.060547l-0.207031-0.649414
			c-0.012695-0.040039,0.005371-0.082031,0.041992-0.101563l0.069336-0.03418l0.07373-0.003906l0.049316,0.058594l0.20459,0.664063
			l-0.009766,0.068359l-0.052246,0.037109c-0.022949,0.007813-0.043945,0.013672-0.05957,0.016602L7.876953,46.148438z"/>
		<path style="fill:#A9CDA6;" d="M8.666992,45.041016l0.104004,0.913086l-0.021973,0.068359l-0.060059,0.035156
			c-0.043945,0.003906-0.083008,0.003906-0.094727,0.003906c-0.052246,0.003906-0.095215-0.03418-0.099121-0.085938
			L8.40918,45.048828l0.024902-0.072266l0.078125-0.030273l0.072754,0.008789
			C8.62793,44.963867,8.663086,44.993164,8.666992,45.041016z"/>
		<path style="fill:#A9CDA6;" d="M9.307129,46.147461l-0.064941-0.017578l-0.056152-0.044922l-0.005859-0.067383l0.207031-0.664063
			l0.024902-0.027344c0.007813-0.012695,0.016113-0.018555,0.024902-0.022461l0.041016-0.004883l0.033203,0.005859
			l0.063965,0.033203c0.036621,0.019531,0.054688,0.061523,0.041992,0.101563l-0.205078,0.649414
			c-0.013184,0.038086-0.043945,0.061523-0.081055,0.061523L9.307129,46.147461z"/>
		<path style="fill:#A9CDA6;" d="M10.067383,46.291992c-0.011719,0-0.023926-0.00293-0.033691-0.009766l-0.057129-0.030273
			L9.93457,46.200195l0.01709-0.057617l0.191895-0.333984l0.050781-0.038086l0.060059,0.012695l0.04834,0.032227
			c0.035645,0.020508,0.047852,0.064453,0.027832,0.098633l-0.198242,0.34082
			C10.118652,46.277344,10.094727,46.291992,10.067383,46.291992z"/>
	</g>
</g>
<g id="heath_x5F_bd_23_" style="enable-background:new    ;">
	<g id="Heath_x5F_FC_25_">
		<path style="fill:#A9CDA6;" d="M2.716797,45.52832c-0.025879,0-0.05127-0.013672-0.063965-0.037109l-0.198242-0.34082
			c-0.008789-0.015625-0.011719-0.033203-0.006836-0.050781C2.45166,45.079102,2.46582,45.0625,2.48291,45.051758l0.055664-0.035156
			l0.065918-0.005859l0.041992,0.039063l0.19043,0.334961l0.005859,0.06543l-0.039063,0.041992l-0.049805,0.025391
			C2.740723,45.525391,2.728516,45.52832,2.716797,45.52832z"/>
		<path style="fill:#A9CDA6;" d="M3.453125,45.384766c-0.038086,0-0.069824-0.023438-0.080078-0.060547l-0.207031-0.649414
			c-0.012695-0.040039,0.005371-0.082031,0.041992-0.101563l0.069336-0.03418l0.07373-0.003906l0.049316,0.058594l0.20459,0.664063
			l-0.009766,0.068359l-0.052246,0.037109c-0.022949,0.007813-0.043945,0.013672-0.05957,0.016602L3.453125,45.384766z"/>
		<path style="fill:#A9CDA6;" d="M4.243164,44.277344l0.104004,0.913086l-0.021973,0.068359l-0.060059,0.035156
			c-0.043945,0.003906-0.083008,0.003906-0.094727,0.003906c-0.052246,0.003906-0.095215-0.03418-0.099121-0.085938
			l-0.085938-0.926758l0.024902-0.072266l0.078125-0.030273l0.072754,0.008789
			C4.204102,44.200195,4.239258,44.229492,4.243164,44.277344z"/>
		<path style="fill:#A9CDA6;" d="M4.883301,45.383789l-0.064941-0.017578l-0.056152-0.044922l-0.005859-0.067383l0.207031-0.664063
			L4.988281,44.5625c0.007813-0.012695,0.016113-0.018555,0.024902-0.022461l0.041016-0.004883l0.033203,0.005859l0.063965,0.033203
			c0.036621,0.019531,0.054688,0.061523,0.041992,0.101563l-0.205078,0.649414
			c-0.013184,0.038086-0.043945,0.061523-0.081055,0.061523L4.883301,45.383789z"/>
		<path style="fill:#A9CDA6;" d="M5.643555,45.52832c-0.011719,0-0.023926-0.00293-0.033691-0.009766l-0.057129-0.030273
			l-0.041992-0.051758l0.01709-0.057617l0.191895-0.333984l0.050781-0.038086l0.060059,0.012695l0.04834,0.032227
			c0.035645,0.020508,0.047852,0.064453,0.027832,0.098633l-0.198242,0.34082
			C5.694824,45.513672,5.670898,45.52832,5.643555,45.52832z"/>
	</g>
</g>
</svg>
