<?xml version="1.0" encoding="utf-8"?>
<!-- Generator: Adobe Illustrator 16.0.3, SVG Export Plug-In . SVG Version: 6.00 Build 0)  -->
<!DOCTYPE svg PUBLIC "-//W3C//DTD SVG 1.1//EN" "http://www.w3.org/Graphics/SVG/1.1/DTD/svg11.dtd">
<svg version="1.1" id="Layer_1" xmlns="http://www.w3.org/2000/svg" xmlns:xlink="http://www.w3.org/1999/xlink" x="0px" y="0px"
	 width="50px" height="50px" viewBox="0 0 50 50" style="enable-background:new 0 0 50 50;" xml:space="preserve">
<g id="marsh_x5F_bd_14_">
	<g id="Marsh_x5F_FC_16_">
		<g>
			<g>
				<g>
					<path style="fill:#95CDC7;" d="M7.875488,40.271484C7.900879,40.3125,7.87793,40.34668,7.82666,40.34668H6.663086
						c-0.050781,0-0.092773-0.03418-0.092773-0.075195c0-0.041992,0.041992-0.076172,0.092773-0.076172H7.47168
						c-0.003906-0.014648-0.008789-0.02832-0.027832-0.041992c-0.01416-0.013672-0.01416-0.013672-0.01416-0.013672
						c-0.033203-0.025391-0.025879-0.072266,0.015137-0.103516l0.041016-0.03125
						c0.037109,0.033203,0.068848,0.06543,0.087891,0.098633c0.021973,0.026367,0.021973,0.026367,0.021973,0.026367
						c0.004883,0.02832,0.009766,0.054688,0.009766,0.058594s0.039063,0.007813,0.087402,0.007813l0,0
						c0-0.074219-0.009277-0.129883-0.02832-0.175781c-0.022949-0.046875-0.031738-0.05957-0.031738-0.05957
						c-0.033203-0.039063-0.023926-0.09375,0.02002-0.121094l0.031738-0.019531
						c0.041992,0.037109,0.069336,0.078125,0.092285,0.120117s0.022949,0.041992,0.022949,0.041992
						c0.009766,0.047852,0.020996,0.115234,0.024902,0.149414C7.828613,40.166992,7.851563,40.229492,7.875488,40.271484z
						 M9.376465,40.706055c0,0.03125-0.041992,0.058594-0.092773,0.058594H7.362793c-0.05127,0-0.093262-0.026367-0.093262-0.058594
						s0.041992-0.057617,0.093262-0.057617h1.920898C9.334473,40.648438,9.376465,40.673828,9.376465,40.706055z M8.21582,40.324219
						c0,0-0.111328-0.351563-0.222168-0.458008c0,0-0.097168-0.115234,0.11084-0.032227c0,0,0.106445,0.051758,0.17627,0.259766
						c0,0,0.008789-0.379883,0.23584-0.443359c0,0,0.166992-0.06543,0.061035,0.037109c0,0-0.133789,0.142578-0.13916,0.317383
						c0,0,0.074219-0.09668,0.25-0.125c0,0,0.144043-0.035156,0,0.06543l-0.205566,0.22168
						c-0.03418,0.038086-0.067383,0.088867-0.070313,0.113281c-0.003906,0.024414-0.042969,0.066406-0.086914,0.092773
						C8.325684,40.373047,8.322754,40.375,8.21582,40.324219z M8.773926,40.271484
						c0.023926-0.041992,0.047852-0.118164,0.053711-0.168945l0.003906-0.032227
						c0.004395-0.046875,0.018066-0.087891,0.041992-0.129883c0.022949-0.041992,0.030273-0.049805,0.030273-0.049805
						c0.033691-0.039063,0.09668-0.047852,0.141113-0.020508l0.030762,0.020508
						c-0.045898,0.036133-0.074219,0.077148-0.091797,0.124023c-0.019043,0.045898-0.021973,0.086914-0.021973,0.086914
						c-0.003418,0.051758,0.032715,0.09375,0.082031,0.09375l0,0c0.004883-0.038086,0.018555-0.074219,0.036621-0.102539
						c0.019043-0.032227,0.019043-0.032227,0.019043-0.032227c0.036133-0.03125,0.098145-0.030273,0.13916,0.000977
						l0.041992,0.03125c-0.038086,0.023438-0.061035,0.041992-0.075195,0.055664
						c-0.019043,0.018555-0.019043,0.018555-0.019043,0.018555c-0.004883,0.015625,0.033203,0.02832,0.083984,0.02832h0.71582
						c0.050781,0,0.092773,0.03418,0.092773,0.076172c0,0.041016-0.041992,0.075195-0.092773,0.075195H8.822754
						C8.771484,40.34668,8.748535,40.3125,8.773926,40.271484z"/>
				</g>
			</g>
		</g>
	</g>
</g>
<g id="roughgrass_x5F_bd_11_">
	<g id="RoughGrass_x5F_FC_13_">
		<path style="fill:#A9CDA6;" d="M9.5625,38.418945l0.010254,0.056641l-0.041016,0.042969L9.48877,38.540039
			c-0.030273,0.012695-0.062988,0.00293-0.083008-0.023438L9.25,38.293945l-0.009766-0.057617l0.035645-0.042969l0.043457-0.022461
			c0.029785-0.013672,0.06543-0.00293,0.086426,0.022461L9.5625,38.418945z"/>
		<path style="fill:#A9CDA6;" d="M10.705566,38.146484c0,0.003906,0,0.007813-0.003906,0.011719
			c-0.01123-0.015625-0.021973-0.025391-0.037109-0.040039c-0.047363-0.056641-0.133301-0.132813-0.133301-0.132813
			c-0.037109-0.123047,0.052734-0.328125,0.052734-0.328125c-0.014648-0.140625,0.010254-0.350586,0.010254-0.350586
			C10.938477,37.761719,10.705566,38.146484,10.705566,38.146484z"/>
		<path style="fill:#A9CDA6;" d="M10.70166,38.157227c0.03418,0.041016,0.09375,0.05957,0.116211,0.173828l-0.054199,0.022461
			l-0.118652-0.010742C10.64209,38.275391,10.668457,38.224609,10.70166,38.157227z"/>
		<path style="fill:#A9CDA6;" d="M11.758301,37.71875l-0.225098,0.224609c0,0-0.062012,0.052734-0.163086,0.290039
			l-0.010742,0.116211c0,0-0.087891,0.045898-0.200684-0.021484c0,0,0.051758-0.145508,0.062988-0.292969
			c0,0,0.009766-0.522461,0.253418-0.609375c0,0,0.181152-0.091797,0.067871,0.046875c0,0-0.148926,0.199219-0.152832,0.438477
			C11.391113,37.910156,11.543945,37.707031,11.758301,37.71875z"/>
		<path style="fill:#A9CDA6;" d="M12.746094,38.236328l-0.009766,0.057617l-0.155762,0.22168
			c-0.02002,0.026367-0.052734,0.036133-0.083008,0.023438l-0.042969-0.020508l-0.039063-0.042969l0.010254-0.056641
			l0.154785-0.226563c0.02002-0.025391,0.056641-0.036133,0.085449-0.022461l0.042969,0.022461L12.746094,38.236328z"/>
		<path style="fill:#A9CDA6;" d="M10.059082,37.977539l0.105957,0.348633l-0.00293,0.06543l-0.042969,0.039063
			c-0.029785,0.012695-0.049805,0.017578-0.060059,0.017578c-0.032715,0.006836-0.064453-0.012695-0.075684-0.048828
			l-0.105957-0.342773v-0.06543l0.042969-0.040039l0.053223-0.020508C10.010254,37.915039,10.045898,37.938477,10.059082,37.977539z
			"/>
		<path style="fill:#A9CDA6;" d="M12.032715,37.930664l0.052734,0.020508l0.043457,0.040039v0.06543l-0.106445,0.342773
			c-0.009766,0.036133-0.042969,0.055664-0.075195,0.047852c-0.010254,0-0.030273-0.004883-0.060059-0.017578l-0.042969-0.038086
			l-0.00293-0.066406l0.105957-0.348633C11.959961,37.938477,11.996582,37.915039,12.032715,37.930664z"/>
	</g>
</g>
<g id="roughgrass_x5F_bd_12_" style="enable-background:new    ;">
	<g id="RoughGrass_x5F_FC_14_">
		<path style="fill:#A9CDA6;" d="M5.138672,37.655273l0.010254,0.056641L5.10791,37.754883l-0.042969,0.021484
			c-0.030273,0.012695-0.062988,0.00293-0.083008-0.023438l-0.155762-0.222656l-0.009766-0.057617l0.035645-0.042969
			l0.043457-0.022461c0.029785-0.013672,0.06543-0.00293,0.086426,0.022461L5.138672,37.655273z"/>
		<path style="fill:#A9CDA6;" d="M6.281738,37.382813c0,0.003906,0,0.007813-0.003906,0.011719
			c-0.01123-0.015625-0.021973-0.025391-0.037109-0.040039c-0.047363-0.056641-0.133301-0.132813-0.133301-0.132813
			c-0.037109-0.123047,0.052734-0.328125,0.052734-0.328125C6.145508,36.75293,6.17041,36.542969,6.17041,36.542969
			C6.514648,36.998047,6.281738,37.382813,6.281738,37.382813z"/>
		<path style="fill:#A9CDA6;" d="M6.277832,37.393555c0.03418,0.041016,0.09375,0.05957,0.116211,0.173828l-0.054199,0.022461
			l-0.118652-0.010742C6.218262,37.511719,6.244629,37.460938,6.277832,37.393555z"/>
		<path style="fill:#A9CDA6;" d="M7.334473,36.955078l-0.225098,0.224609c0,0-0.062012,0.052734-0.163086,0.290039
			l-0.010742,0.116211c0,0-0.087891,0.045898-0.200684-0.021484c0,0,0.051758-0.145508,0.062988-0.292969
			c0,0,0.009766-0.522461,0.253418-0.609375c0,0,0.181152-0.091797,0.067871,0.046875c0,0-0.148926,0.199219-0.152832,0.438477
			C6.967285,37.146484,7.120117,36.943359,7.334473,36.955078z"/>
		<path style="fill:#A9CDA6;" d="M8.322266,37.472656L8.3125,37.530273l-0.155762,0.22168
			c-0.02002,0.026367-0.052734,0.036133-0.083008,0.023438l-0.042969-0.020508l-0.039063-0.042969l0.010254-0.056641
			l0.154785-0.226563c0.02002-0.025391,0.056641-0.036133,0.085449-0.022461l0.042969,0.022461L8.322266,37.472656z"/>
		<path style="fill:#A9CDA6;" d="M5.635254,37.213867L5.741211,37.5625l-0.00293,0.06543l-0.042969,0.039063
			c-0.029785,0.012695-0.049805,0.017578-0.060059,0.017578c-0.032715,0.006836-0.064453-0.012695-0.075684-0.048828
			l-0.105957-0.342773v-0.06543L5.496582,37.1875l0.053223-0.020508C5.586426,37.151367,5.62207,37.174805,5.635254,37.213867z"/>
		<path style="fill:#A9CDA6;" d="M7.608887,37.166992L7.661621,37.1875l0.043457,0.040039v0.06543l-0.106445,0.342773
			c-0.009766,0.036133-0.042969,0.055664-0.075195,0.047852c-0.010254,0-0.030273-0.004883-0.060059-0.017578L7.42041,37.62793
			l-0.00293-0.066406l0.105957-0.348633C7.536133,37.174805,7.572754,37.151367,7.608887,37.166992z"/>
	</g>
</g>
<g id="marsh_x5F_bd_10_" style="enable-background:new    ;">
	<g id="Marsh_x5F_FC_12_">
		<g>
			<g>
				<g>
					<path style="fill:#95CDC7;" d="M26.056641,34.996094c0.025391,0.041016,0.001953,0.075195-0.048828,0.075195h-1.163574
						c-0.050781,0-0.092773-0.03418-0.092773-0.075195c0-0.041992,0.041992-0.076172,0.092773-0.076172h0.808105
						c-0.003906-0.014648-0.008789-0.02832-0.027344-0.041992c-0.014648-0.013672-0.014648-0.013672-0.014648-0.013672
						c-0.033203-0.025391-0.025391-0.072266,0.015625-0.103516l0.041016-0.03125
						c0.037109,0.033203,0.068359,0.06543,0.087891,0.098633c0.021484,0.026367,0.021484,0.026367,0.021484,0.026367
						c0.004883,0.02832,0.009766,0.054688,0.009766,0.058594s0.039063,0.007813,0.087891,0.007813l0,0
						c0-0.074219-0.009766-0.129883-0.02832-0.175781c-0.023438-0.046875-0.032227-0.05957-0.032227-0.05957
						c-0.033203-0.039063-0.023438-0.09375,0.020508-0.121094l0.03125-0.019531
						c0.041992,0.037109,0.069336,0.078125,0.092773,0.120117c0.022461,0.041992,0.022461,0.041992,0.022461,0.041992
						c0.009766,0.047852,0.021484,0.115234,0.025391,0.149414C26.009766,34.891602,26.032227,34.954102,26.056641,34.996094z
						 M27.557617,35.430664c0,0.03125-0.041992,0.058594-0.092773,0.058594h-1.920898
						c-0.05127,0-0.093262-0.026367-0.093262-0.058594s0.041992-0.057617,0.093262-0.057617h1.920898
						C27.515625,35.373047,27.557617,35.398438,27.557617,35.430664z M26.396484,35.048828c0,0-0.111328-0.351563-0.22168-0.458008
						c0,0-0.097656-0.115234,0.110352-0.032227c0,0,0.106445,0.051758,0.176758,0.259766c0,0,0.008789-0.379883,0.236328-0.443359
						c0,0,0.166992-0.06543,0.060547,0.037109c0,0-0.133789,0.142578-0.138672,0.317383c0,0,0.074219-0.09668,0.25-0.125
						c0,0,0.143555-0.035156,0,0.06543l-0.206055,0.22168c-0.03418,0.038086-0.067383,0.088867-0.070313,0.113281
						c-0.003906,0.024414-0.042969,0.066406-0.086914,0.092773C26.506836,35.097656,26.503906,35.099609,26.396484,35.048828z
						 M26.955078,34.996094c0.024414-0.041992,0.047852-0.118164,0.053711-0.168945l0.003906-0.032227
						c0.004883-0.046875,0.018555-0.087891,0.041992-0.129883s0.030273-0.049805,0.030273-0.049805
						c0.03418-0.039063,0.09668-0.047852,0.141602-0.020508l0.030273,0.020508
						c-0.045898,0.036133-0.074219,0.077148-0.091797,0.124023c-0.018555,0.045898-0.021484,0.086914-0.021484,0.086914
						c-0.003906,0.051758,0.032227,0.09375,0.082031,0.09375l0,0c0.004883-0.038086,0.018555-0.074219,0.036133-0.102539
						c0.019531-0.032227,0.019531-0.032227,0.019531-0.032227c0.036133-0.03125,0.097656-0.030273,0.138672,0.000977
						l0.041992,0.03125c-0.038086,0.023438-0.060547,0.041992-0.075195,0.055664
						c-0.018555,0.018555-0.018555,0.018555-0.018555,0.018555c-0.004883,0.015625,0.033203,0.02832,0.083984,0.02832h0.714844
						c0.050781,0,0.092773,0.03418,0.092773,0.076172c0,0.041016-0.041992,0.075195-0.092773,0.075195h-1.163086
						C26.953125,35.071289,26.929688,35.037109,26.955078,34.996094z"/>
				</g>
			</g>
		</g>
	</g>
</g>
<g id="roughgrass_x5F_bd_8_" style="enable-background:new    ;">
	<g id="RoughGrass_x5F_FC_10_">
		<path style="fill:#A9CDA6;" d="M27.743164,33.143555l0.010742,0.056641l-0.041016,0.042969l-0.042969,0.021484
			c-0.030273,0.012695-0.063477,0.00293-0.083008-0.023438l-0.15625-0.222656l-0.009766-0.057617l0.035156-0.042969L27.5,32.895508
			c0.029297-0.013672,0.06543-0.00293,0.086914,0.022461L27.743164,33.143555z"/>
		<path style="fill:#A9CDA6;" d="M28.886719,32.871094c0,0.003906,0,0.007813-0.003906,0.011719
			c-0.011719-0.015625-0.022461-0.025391-0.037109-0.040039c-0.047852-0.056641-0.133789-0.132813-0.133789-0.132813
			c-0.037109-0.123047,0.052734-0.328125,0.052734-0.328125C28.75,32.241211,28.774414,32.03125,28.774414,32.03125
			C29.119141,32.486328,28.886719,32.871094,28.886719,32.871094z"/>
		<path style="fill:#A9CDA6;" d="M28.882813,32.881836c0.03418,0.041016,0.09375,0.05957,0.116211,0.173828l-0.054688,0.022461
			l-0.119141-0.010742C28.822266,33,28.849609,32.949219,28.882813,32.881836z"/>
		<path style="fill:#A9CDA6;" d="M29.938477,32.443359l-0.224609,0.224609c0,0-0.061523,0.052734-0.163086,0.290039
			l-0.010742,0.116211c0,0-0.087891,0.045898-0.201172-0.021484c0,0,0.051758-0.145508,0.063477-0.292969
			c0,0,0.009766-0.522461,0.253906-0.609375c0,0,0.180664-0.091797,0.067383,0.046875c0,0-0.148438,0.199219-0.152344,0.438477
			C29.572266,32.634766,29.724609,32.431641,29.938477,32.443359z"/>
		<path style="fill:#A9CDA6;" d="M30.926758,32.960938l-0.009766,0.057617l-0.15625,0.22168
			c-0.019531,0.026367-0.052734,0.036133-0.083008,0.023438l-0.042969-0.020508l-0.039063-0.042969l0.010742-0.056641
			l0.154297-0.226563c0.020508-0.025391,0.057617-0.036133,0.085938-0.022461l0.042969,0.022461L30.926758,32.960938z"/>
		<path style="fill:#A9CDA6;" d="M28.240234,32.702148l0.105469,0.348633l-0.00293,0.06543l-0.042969,0.039063
			c-0.029297,0.012695-0.049805,0.017578-0.05957,0.017578c-0.033203,0.006836-0.06543-0.012695-0.076172-0.048828
			l-0.106445-0.342773v-0.06543l0.042969-0.040039l0.053711-0.020508C28.191406,32.639648,28.226563,32.663086,28.240234,32.702148z
			"/>
		<path style="fill:#A9CDA6;" d="M30.213867,32.655273l0.052734,0.020508l0.042969,0.040039v0.06543l-0.106445,0.342773
			c-0.009766,0.036133-0.042969,0.055664-0.075195,0.047852c-0.010742,0-0.030273-0.004883-0.060547-0.017578l-0.042969-0.038086
			l-0.00293-0.066406l0.106445-0.348633C30.140625,32.663086,30.177734,32.639648,30.213867,32.655273z"/>
	</g>
</g>
<g id="roughgrass_x5F_bd_9_" style="enable-background:new    ;">
	<g id="RoughGrass_x5F_FC_11_">
		<path style="fill:#A9CDA6;" d="M23.319336,32.379883l0.010254,0.056641l-0.041016,0.042969l-0.042969,0.021484
			c-0.030273,0.012695-0.062988,0.00293-0.083008-0.023438l-0.155762-0.222656l-0.009766-0.057617l0.035645-0.042969
			l0.043457-0.022461c0.029785-0.013672,0.06543-0.00293,0.086426,0.022461L23.319336,32.379883z"/>
		<path style="fill:#A9CDA6;" d="M24.462402,32.107422c0,0.003906,0,0.007813-0.003906,0.011719
			c-0.01123-0.015625-0.021973-0.025391-0.037109-0.040039c-0.047363-0.056641-0.133301-0.132813-0.133301-0.132813
			c-0.037109-0.123047,0.052734-0.328125,0.052734-0.328125c-0.014648-0.140625,0.010254-0.350586,0.010254-0.350586
			C24.695313,31.722656,24.462402,32.107422,24.462402,32.107422z"/>
		<path style="fill:#A9CDA6;" d="M24.458496,32.118164c0.03418,0.041016,0.09375,0.05957,0.116211,0.173828l-0.054199,0.022461
			l-0.118652-0.010742C24.398926,32.236328,24.425293,32.185547,24.458496,32.118164z"/>
		<path style="fill:#A9CDA6;" d="M25.514648,31.679688l-0.224609,0.224609c0,0-0.062012,0.052734-0.163086,0.290039
			l-0.010742,0.116211c0,0-0.087891,0.045898-0.200684-0.021484c0,0,0.051758-0.145508,0.062988-0.292969
			c0,0,0.009766-0.522461,0.253418-0.609375c0,0,0.181152-0.091797,0.067871,0.046875c0,0-0.148926,0.199219-0.152832,0.438477
			C25.147949,31.871094,25.300781,31.667969,25.514648,31.679688z"/>
		<path style="fill:#A9CDA6;" d="M26.50293,32.197266l-0.009766,0.057617l-0.15625,0.22168
			C26.317383,32.50293,26.28418,32.512695,26.253906,32.5l-0.042969-0.020508l-0.039063-0.042969l0.010742-0.056641
			l0.154297-0.226563c0.020508-0.025391,0.057617-0.036133,0.085938-0.022461l0.042969,0.022461L26.50293,32.197266z"/>
		<path style="fill:#A9CDA6;" d="M23.815918,31.938477l0.105957,0.348633l-0.00293,0.06543l-0.042969,0.039063
			c-0.029785,0.012695-0.049805,0.017578-0.060059,0.017578c-0.032715,0.006836-0.064453-0.012695-0.075684-0.048828
			l-0.105957-0.342773v-0.06543l0.042969-0.040039l0.053223-0.020508C23.76709,31.875977,23.802734,31.899414,23.815918,31.938477z"
			/>
		<path style="fill:#A9CDA6;" d="M25.790039,31.891602l0.052734,0.020508l0.042969,0.040039v0.06543l-0.106445,0.342773
			c-0.009766,0.036133-0.042969,0.055664-0.075195,0.047852c-0.010742,0-0.030273-0.004883-0.060547-0.017578l-0.042969-0.038086
			l-0.00293-0.066406l0.106445-0.348633C25.716797,31.899414,25.753906,31.875977,25.790039,31.891602z"/>
	</g>
</g>
<g id="marsh_x5F_bd_13_" style="enable-background:new    ;">
	<g id="Marsh_x5F_FC_15_">
		<g>
			<g>
				<g>
					<path style="fill:#95CDC7;" d="M5.66748,26.314453c0.025391,0.041016,0.002441,0.075195-0.048828,0.075195H4.455078
						c-0.050781,0-0.092773-0.03418-0.092773-0.075195c0-0.041992,0.041992-0.076172,0.092773-0.076172h0.808594
						c-0.003906-0.014648-0.008789-0.02832-0.027832-0.041992c-0.01416-0.013672-0.01416-0.013672-0.01416-0.013672
						c-0.033203-0.025391-0.025879-0.072266,0.015137-0.103516l0.041016-0.03125
						c0.037109,0.033203,0.068848,0.06543,0.087891,0.098633c0.021973,0.026367,0.021973,0.026367,0.021973,0.026367
						c0.004883,0.02832,0.009766,0.054688,0.009766,0.058594s0.039063,0.007813,0.087402,0.007813l0,0
						c0-0.074219-0.009277-0.129883-0.02832-0.175781c-0.022949-0.046875-0.031738-0.05957-0.031738-0.05957
						c-0.033203-0.039063-0.023926-0.09375,0.02002-0.121094l0.031738-0.019531
						c0.041992,0.037109,0.069336,0.078125,0.092285,0.120117s0.022949,0.041992,0.022949,0.041992
						c0.009766,0.047852,0.020996,0.115234,0.024902,0.149414C5.620605,26.209961,5.643555,26.272461,5.66748,26.314453z
						 M7.168457,26.749023c0,0.03125-0.041992,0.058594-0.092773,0.058594H5.154785c-0.05127,0-0.093262-0.026367-0.093262-0.058594
						s0.041992-0.057617,0.093262-0.057617h1.920898C7.126465,26.691406,7.168457,26.716797,7.168457,26.749023z
						 M6.007813,26.367188c0,0-0.111328-0.351563-0.222168-0.458008c0,0-0.097168-0.115234,0.11084-0.032227
						c0,0,0.106445,0.051758,0.17627,0.259766c0,0,0.008789-0.379883,0.23584-0.443359c0,0,0.166992-0.06543,0.061035,0.037109
						c0,0-0.133789,0.142578-0.13916,0.317383c0,0,0.074219-0.09668,0.25-0.125c0,0,0.144043-0.035156,0,0.06543l-0.205566,0.22168
						c-0.03418,0.038086-0.067383,0.088867-0.070313,0.113281c-0.003906,0.024414-0.042969,0.066406-0.086914,0.092773
						C6.117676,26.416016,6.114746,26.417969,6.007813,26.367188z M6.565918,26.314453
						c0.023926-0.041992,0.047852-0.118164,0.053711-0.168945l0.003906-0.032227
						c0.004395-0.046875,0.018066-0.087891,0.041992-0.129883c0.022949-0.041992,0.030273-0.049805,0.030273-0.049805
						c0.033691-0.039063,0.09668-0.047852,0.141113-0.020508l0.030762,0.020508
						c-0.045898,0.036133-0.074219,0.077148-0.091797,0.124023c-0.019043,0.045898-0.021973,0.086914-0.021973,0.086914
						c-0.003418,0.051758,0.032715,0.09375,0.082031,0.09375l0,0c0.004883-0.038086,0.018555-0.074219,0.036621-0.102539
						c0.019043-0.032227,0.019043-0.032227,0.019043-0.032227c0.036133-0.03125,0.098145-0.030273,0.13916,0.000977
						l0.041992,0.03125c-0.038086,0.023438-0.061035,0.041992-0.075195,0.055664
						c-0.019043,0.018555-0.019043,0.018555-0.019043,0.018555c-0.004883,0.015625,0.033203,0.02832,0.083984,0.02832h0.71582
						c0.050781,0,0.092773,0.03418,0.092773,0.076172c0,0.041016-0.041992,0.075195-0.092773,0.075195H6.614746
						C6.563477,26.389648,6.540527,26.355469,6.565918,26.314453z"/>
				</g>
			</g>
		</g>
	</g>
</g>
<g id="roughgrass_x5F_bd_13_" style="enable-background:new    ;">
	<g id="RoughGrass_x5F_FC_15_">
		<path style="fill:#A9CDA6;" d="M7.354492,24.461914l0.010254,0.056641L7.32373,24.561523l-0.042969,0.021484
			c-0.030273,0.012695-0.062988,0.00293-0.083008-0.023438l-0.155762-0.222656l-0.009766-0.057129l0.035645-0.042969
			l0.043457-0.022461c0.029785-0.013672,0.06543-0.00293,0.086426,0.022461L7.354492,24.461914z"/>
		<path style="fill:#A9CDA6;" d="M8.497559,24.189941c0,0.003906,0,0.007813-0.003906,0.011719
			c-0.01123-0.015625-0.021973-0.025391-0.037109-0.040039c-0.047363-0.056641-0.133301-0.132813-0.133301-0.132813
			c-0.037109-0.123047,0.052734-0.328125,0.052734-0.328125c-0.014648-0.140137,0.010254-0.350098,0.010254-0.350098
			C8.730469,23.805176,8.497559,24.189941,8.497559,24.189941z"/>
		<path style="fill:#A9CDA6;" d="M8.493652,24.200684c0.03418,0.041016,0.09375,0.05957,0.116211,0.17334l-0.054199,0.022461
			l-0.118652-0.010742C8.434082,24.318359,8.460449,24.268066,8.493652,24.200684z"/>
		<path style="fill:#A9CDA6;" d="M9.550293,23.762207l-0.225098,0.224609c0,0-0.062012,0.052734-0.163086,0.290039
			l-0.010742,0.115723c0,0-0.087891,0.045898-0.200684-0.021484c0,0,0.051758-0.14502,0.062988-0.29248
			c0,0,0.009766-0.521973,0.253418-0.608887c0,0,0.181152-0.091797,0.067871,0.046875c0,0-0.148926,0.19873-0.152832,0.437988
			C9.183105,23.953613,9.335938,23.750488,9.550293,23.762207z"/>
		<path style="fill:#A9CDA6;" d="M10.538086,24.279785l-0.009766,0.057129l-0.155762,0.22168
			c-0.02002,0.026367-0.052734,0.036133-0.083008,0.023438l-0.042969-0.020508l-0.039063-0.042969l0.010254-0.056641
			l0.154785-0.226074c0.02002-0.025391,0.056641-0.036133,0.085449-0.022461l0.042969,0.022461L10.538086,24.279785z"/>
		<path style="fill:#A9CDA6;" d="M7.851074,24.020996l0.105957,0.348145l-0.00293,0.06543l-0.042969,0.039063
			c-0.029785,0.012695-0.049805,0.017578-0.060059,0.017578c-0.032715,0.006836-0.064453-0.012695-0.075684-0.048828
			l-0.105957-0.342285v-0.06543l0.042969-0.040039l0.053223-0.020508C7.802246,23.958496,7.837891,23.981934,7.851074,24.020996z"/>
		<path style="fill:#A9CDA6;" d="M9.824707,23.974121l0.052734,0.020508l0.043457,0.040039v0.06543l-0.106445,0.342285
			c-0.009766,0.036133-0.042969,0.055664-0.075195,0.047852c-0.010254,0-0.030273-0.004883-0.060059-0.017578L9.63623,24.43457
			l-0.00293-0.066406l0.105957-0.348145C9.751953,23.981934,9.788574,23.958496,9.824707,23.974121z"/>
	</g>
</g>
<g id="marsh_x5F_bd_12_" style="enable-background:new    ;">
	<g id="Marsh_x5F_FC_14_">
		<g>
			<g>
				<g>
					<path style="fill:#95CDC7;" d="M3.912598,23.278809c0.025391,0.041016,0.002441,0.075195-0.048828,0.075195H2.700195
						c-0.050781,0-0.092773-0.03418-0.092773-0.075195c0-0.041992,0.041992-0.076172,0.092773-0.076172h0.808594
						C3.504883,23.187988,3.5,23.174316,3.480957,23.160645c-0.01416-0.013672-0.01416-0.013672-0.01416-0.013672
						c-0.033203-0.025391-0.025879-0.072266,0.015137-0.103516l0.041016-0.03125
						c0.037109,0.033203,0.068848,0.06543,0.087891,0.098633c0.021973,0.026367,0.021973,0.026367,0.021973,0.026367
						c0.004883,0.02832,0.009766,0.054688,0.009766,0.058594s0.039063,0.007813,0.087402,0.007813l0,0
						c0-0.074219-0.009277-0.129883-0.02832-0.175781c-0.022949-0.046875-0.031738-0.05957-0.031738-0.05957
						c-0.033203-0.039063-0.023926-0.09375,0.02002-0.121094l0.031738-0.019531
						c0.041992,0.037109,0.069336,0.078125,0.092285,0.120117s0.022949,0.041992,0.022949,0.041992
						C3.84668,23.037598,3.85791,23.10498,3.861816,23.13916C3.865723,23.174316,3.888672,23.236816,3.912598,23.278809z
						 M5.413574,23.713379c0,0.03125-0.041992,0.058594-0.092773,0.058594H3.399902c-0.05127,0-0.093262-0.026367-0.093262-0.058594
						s0.041992-0.057617,0.093262-0.057617h1.920898C5.371582,23.655762,5.413574,23.681152,5.413574,23.713379z M4.25293,23.331543
						c0,0-0.111328-0.351563-0.222168-0.458008c0,0-0.097168-0.115234,0.11084-0.032227c0,0,0.106445,0.051758,0.17627,0.259766
						c0,0,0.008789-0.379883,0.23584-0.443359c0,0,0.166992-0.06543,0.061035,0.037109c0,0-0.133789,0.142578-0.13916,0.317383
						c0,0,0.074219-0.09668,0.25-0.125c0,0,0.144043-0.035156,0,0.06543l-0.205566,0.22168
						c-0.03418,0.038086-0.067383,0.088867-0.070313,0.113281c-0.003906,0.024414-0.042969,0.066406-0.086914,0.092773
						C4.362793,23.380371,4.359863,23.382324,4.25293,23.331543z M4.811035,23.278809
						c0.023926-0.041992,0.047852-0.118164,0.053711-0.168945l0.003906-0.032227
						c0.004395-0.046875,0.018066-0.087891,0.041992-0.129883c0.022949-0.041992,0.030273-0.049805,0.030273-0.049805
						c0.033691-0.039063,0.09668-0.047852,0.141113-0.020508l0.030762,0.020508
						c-0.045898,0.036133-0.074219,0.077148-0.091797,0.124023c-0.019043,0.045898-0.021973,0.086914-0.021973,0.086914
						c-0.003418,0.051758,0.032715,0.09375,0.082031,0.09375l0,0c0.004883-0.038086,0.018555-0.074219,0.036621-0.102539
						c0.019043-0.032227,0.019043-0.032227,0.019043-0.032227c0.036133-0.03125,0.098145-0.030273,0.13916,0.000977
						l0.041992,0.03125c-0.038086,0.023438-0.061035,0.041992-0.075195,0.055664
						c-0.019043,0.018555-0.019043,0.018555-0.019043,0.018555c-0.004883,0.015625,0.033203,0.02832,0.083984,0.02832h0.71582
						c0.050781,0,0.092773,0.03418,0.092773,0.076172c0,0.041016-0.041992,0.075195-0.092773,0.075195H4.859863
						C4.808594,23.354004,4.785645,23.319824,4.811035,23.278809z"/>
				</g>
			</g>
		</g>
	</g>
</g>
<g id="marsh_x5F_bd_11_" style="enable-background:new    ;">
	<g id="Marsh_x5F_FC_13_">
		<g>
			<g>
				<g>
					<path style="fill:#95CDC7;" d="M10.060059,15.903809c0.025391,0.041016,0.002441,0.075195-0.048828,0.075195H8.847656
						c-0.050781,0-0.092773-0.03418-0.092773-0.075195c0-0.041992,0.041992-0.076172,0.092773-0.076172H9.65625
						c-0.003906-0.014648-0.008789-0.02832-0.027832-0.041992c-0.01416-0.013672-0.01416-0.013672-0.01416-0.013672
						c-0.033203-0.025391-0.025879-0.072266,0.015137-0.103516l0.041016-0.03125
						c0.037109,0.033203,0.068848,0.06543,0.087891,0.098633c0.021973,0.026367,0.021973,0.026367,0.021973,0.026367
						c0.004883,0.02832,0.009766,0.054688,0.009766,0.058594s0.039063,0.007813,0.087402,0.007813l0,0
						c0-0.074219-0.009277-0.129883-0.02832-0.175781c-0.022949-0.046875-0.031738-0.05957-0.031738-0.05957
						c-0.033203-0.039063-0.023926-0.09375,0.02002-0.121094l0.031738-0.019531
						c0.041992,0.037109,0.069336,0.078125,0.092285,0.120117s0.022949,0.041992,0.022949,0.041992
						c0.009766,0.047852,0.020996,0.115234,0.024902,0.149414C10.013184,15.799316,10.036133,15.861816,10.060059,15.903809z
						 M11.561035,16.338379c0,0.03125-0.041992,0.058594-0.092773,0.058594H9.547363
						c-0.05127,0-0.093262-0.026367-0.093262-0.058594s0.041992-0.057617,0.093262-0.057617h1.920898
						C11.519043,16.280762,11.561035,16.306152,11.561035,16.338379z M10.400391,15.956543c0,0-0.111328-0.351563-0.222168-0.458008
						c0,0-0.097168-0.115234,0.11084-0.032227c0,0,0.106445,0.051758,0.17627,0.259766c0,0,0.008789-0.379883,0.23584-0.443359
						c0,0,0.166992-0.06543,0.061035,0.037109c0,0-0.133789,0.142578-0.13916,0.317383c0,0,0.074219-0.09668,0.25-0.125
						c0,0,0.144043-0.035156,0,0.06543l-0.205566,0.22168c-0.03418,0.038086-0.067383,0.088867-0.070313,0.113281
						c-0.003906,0.024414-0.042969,0.066406-0.086914,0.092773C10.510254,16.005371,10.507324,16.007324,10.400391,15.956543z
						 M10.958496,15.903809c0.023926-0.041992,0.047852-0.118164,0.053711-0.168945l0.003906-0.032227
						c0.004395-0.046875,0.018066-0.087891,0.041992-0.129883c0.022949-0.041992,0.030273-0.049805,0.030273-0.049805
						c0.033691-0.039063,0.09668-0.047852,0.141113-0.020508l0.030762,0.020508
						c-0.045898,0.036133-0.074219,0.077148-0.091797,0.124023c-0.019043,0.045898-0.021973,0.086914-0.021973,0.086914
						c-0.003418,0.051758,0.032715,0.09375,0.082031,0.09375l0,0c0.004883-0.038086,0.018555-0.074219,0.036621-0.102539
						c0.019043-0.032227,0.019043-0.032227,0.019043-0.032227c0.036133-0.03125,0.098145-0.030273,0.13916,0.000977
						l0.041992,0.03125c-0.038086,0.023438-0.061035,0.041992-0.075195,0.055664
						c-0.019043,0.018555-0.019043,0.018555-0.019043,0.018555c-0.004883,0.015625,0.033203,0.02832,0.083984,0.02832h0.71582
						c0.050781,0,0.092773,0.03418,0.092773,0.076172c0,0.041016-0.041992,0.075195-0.092773,0.075195h-1.163574
						C10.956055,15.979004,10.933105,15.944824,10.958496,15.903809z"/>
				</g>
			</g>
		</g>
	</g>
</g>
<g id="roughgrass_x5F_bd_14_" style="enable-background:new    ;">
	<g id="RoughGrass_x5F_FC_16_">
		<path style="fill:#A9CDA6;" d="M11.74707,14.051758l0.010254,0.056641l-0.041016,0.042969l-0.042969,0.021484
			c-0.030273,0.012695-0.062988,0.00293-0.083008-0.023438l-0.155762-0.222656l-0.009766-0.057129l0.035645-0.042969
			l0.043457-0.022461c0.029785-0.013672,0.06543-0.00293,0.086426,0.022461L11.74707,14.051758z"/>
		<path style="fill:#A9CDA6;" d="M12.890137,13.779785c0,0.003906,0,0.007813-0.003906,0.011719
			c-0.01123-0.015625-0.021973-0.025391-0.037109-0.040039c-0.047363-0.056641-0.133301-0.132813-0.133301-0.132813
			c-0.037109-0.123047,0.052734-0.328125,0.052734-0.328125c-0.014648-0.140137,0.010254-0.350098,0.010254-0.350098
			C13.123047,13.39502,12.890137,13.779785,12.890137,13.779785z"/>
		<path style="fill:#A9CDA6;" d="M12.88623,13.790527c0.03418,0.041016,0.09375,0.05957,0.116211,0.17334l-0.054199,0.022461
			l-0.118652-0.010742C12.82666,13.908203,12.853027,13.85791,12.88623,13.790527z"/>
		<path style="fill:#A9CDA6;" d="M13.942871,13.352051l-0.225098,0.224609c0,0-0.062012,0.052734-0.163086,0.290039
			l-0.010742,0.115723c0,0-0.087891,0.045898-0.200684-0.021484c0,0,0.051758-0.14502,0.062988-0.29248
			c0,0,0.009766-0.521973,0.253418-0.608887c0,0,0.181152-0.091797,0.067871,0.046875c0,0-0.148926,0.19873-0.152832,0.437988
			C13.575684,13.543457,13.728516,13.340332,13.942871,13.352051z"/>
		<path style="fill:#A9CDA6;" d="M14.930664,13.869629l-0.009766,0.057129l-0.155762,0.22168
			c-0.02002,0.026367-0.052734,0.036133-0.083008,0.023438l-0.042969-0.020508l-0.039063-0.042969l0.010254-0.056641
			l0.154785-0.226074c0.02002-0.025391,0.056641-0.036133,0.085449-0.022461l0.042969,0.022461L14.930664,13.869629z"/>
		<path style="fill:#A9CDA6;" d="M12.243652,13.61084l0.105957,0.348145l-0.00293,0.06543l-0.042969,0.039063
			c-0.029785,0.012695-0.049805,0.017578-0.060059,0.017578c-0.032715,0.006836-0.064453-0.012695-0.075684-0.048828
			l-0.105957-0.342285v-0.06543l0.042969-0.040039l0.053223-0.020508C12.194824,13.54834,12.230469,13.571777,12.243652,13.61084z"
			/>
		<path style="fill:#A9CDA6;" d="M14.217285,13.563965l0.052734,0.020508l0.043457,0.040039v0.06543l-0.106445,0.342285
			c-0.009766,0.036133-0.042969,0.055664-0.075195,0.047852c-0.010254,0-0.030273-0.004883-0.060059-0.017578l-0.042969-0.038086
			l-0.00293-0.066406l0.105957-0.348145C14.144531,13.571777,14.181152,13.54834,14.217285,13.563965z"/>
	</g>
</g>
<g id="roughgrass_x5F_bd_15_" style="enable-background:new    ;">
	<g id="RoughGrass_x5F_FC_17_">
		<path style="fill:#A9CDA6;" d="M7.323242,13.288086l0.010254,0.056641L7.29248,13.387695L7.249512,13.40918
			c-0.030273,0.012695-0.062988,0.00293-0.083008-0.023438l-0.155762-0.222656l-0.009766-0.057129l0.035645-0.042969
			l0.043457-0.022461c0.029785-0.013672,0.06543-0.00293,0.086426,0.022461L7.323242,13.288086z"/>
		<path style="fill:#A9CDA6;" d="M8.466309,13.016113c0,0.003906,0,0.007813-0.003906,0.011719
			c-0.01123-0.015625-0.021973-0.025391-0.037109-0.040039C8.37793,12.931152,8.291992,12.85498,8.291992,12.85498
			c-0.037109-0.123047,0.052734-0.328125,0.052734-0.328125c-0.014648-0.140137,0.010254-0.350098,0.010254-0.350098
			C8.699219,12.631348,8.466309,13.016113,8.466309,13.016113z"/>
		<path style="fill:#A9CDA6;" d="M8.462402,13.026855c0.03418,0.041016,0.09375,0.05957,0.116211,0.17334l-0.054199,0.022461
			l-0.118652-0.010742C8.402832,13.144531,8.429199,13.094238,8.462402,13.026855z"/>
		<path style="fill:#A9CDA6;" d="M9.519043,12.588379l-0.225098,0.224609c0,0-0.062012,0.052734-0.163086,0.290039
			L9.120117,13.21875c0,0-0.087891,0.045898-0.200684-0.021484c0,0,0.051758-0.14502,0.062988-0.29248
			c0,0,0.009766-0.521973,0.253418-0.608887c0,0,0.181152-0.091797,0.067871,0.046875c0,0-0.148926,0.19873-0.152832,0.437988
			C9.151855,12.779785,9.304688,12.57666,9.519043,12.588379z"/>
		<path style="fill:#A9CDA6;" d="M10.506836,13.105957l-0.009766,0.057129l-0.155762,0.22168
			c-0.02002,0.026367-0.052734,0.036133-0.083008,0.023438l-0.042969-0.020508l-0.039063-0.042969l0.010254-0.056641
			l0.154785-0.226074c0.02002-0.025391,0.056641-0.036133,0.085449-0.022461l0.042969,0.022461L10.506836,13.105957z"/>
		<path style="fill:#A9CDA6;" d="M7.819824,12.847168l0.105957,0.348145l-0.00293,0.06543l-0.042969,0.039063
			c-0.029785,0.012695-0.049805,0.017578-0.060059,0.017578c-0.032715,0.006836-0.064453-0.012695-0.075684-0.048828
			L7.638184,12.92627v-0.06543l0.042969-0.040039l0.053223-0.020508C7.770996,12.784668,7.806641,12.808105,7.819824,12.847168z"/>
		<path style="fill:#A9CDA6;" d="M9.793457,12.800293l0.052734,0.020508l0.043457,0.040039v0.06543l-0.106445,0.342285
			c-0.009766,0.036133-0.042969,0.055664-0.075195,0.047852c-0.010254,0-0.030273-0.004883-0.060059-0.017578L9.60498,13.260742
			l-0.00293-0.066406l0.105957-0.348145C9.720703,12.808105,9.757324,12.784668,9.793457,12.800293z"/>
	</g>
</g>
<g id="marsh_x5F_bd_2_" style="enable-background:new    ;">
	<g id="Marsh_x5F_FC_4_">
		<g>
			<g>
				<g>
					<path style="fill:#95CDC7;" d="M25.34375,6.120605c0.025391,0.041016,0.002441,0.075195-0.048828,0.075195h-1.163574
						c-0.050781,0-0.092773-0.03418-0.092773-0.075195c0-0.041992,0.041992-0.076172,0.092773-0.076172h0.808594
						c-0.003906-0.014648-0.008789-0.02832-0.027832-0.041992c-0.01416-0.013672-0.01416-0.013672-0.01416-0.013672
						c-0.033203-0.025391-0.025879-0.072266,0.015137-0.103516l0.041016-0.03125
						c0.037109,0.033203,0.068848,0.06543,0.087891,0.098633c0.021973,0.026367,0.021973,0.026367,0.021973,0.026367
						c0.004883,0.02832,0.009766,0.054688,0.009766,0.058594s0.039063,0.007813,0.087402,0.007813l0,0
						c0-0.074219-0.009277-0.129883-0.02832-0.175781c-0.022949-0.046875-0.031738-0.05957-0.031738-0.05957
						c-0.033203-0.039063-0.023926-0.09375,0.02002-0.121094l0.031738-0.019531
						c0.041992,0.037109,0.069336,0.078125,0.092285,0.120117s0.022949,0.041992,0.022949,0.041992
						c0.009766,0.047852,0.020996,0.115234,0.024902,0.149414C25.296875,6.016113,25.319824,6.078613,25.34375,6.120605z
						 M26.844727,6.555176c0,0.03125-0.041992,0.058594-0.092773,0.058594h-1.920898
						c-0.05127,0-0.093262-0.026367-0.093262-0.058594s0.041992-0.057617,0.093262-0.057617h1.920898
						C26.802734,6.497559,26.844727,6.522949,26.844727,6.555176z M25.683594,6.17334c0,0-0.111328-0.351563-0.22168-0.458008
						c0,0-0.097168-0.115234,0.110352-0.032227c0,0,0.106445,0.051758,0.176758,0.259766c0,0,0.008789-0.379883,0.236328-0.443359
						c0,0,0.166992-0.06543,0.060547,0.037109c0,0-0.133789,0.142578-0.138672,0.317383c0,0,0.074219-0.09668,0.25-0.125
						c0,0,0.143555-0.035156,0,0.06543l-0.206055,0.22168c-0.03418,0.038086-0.067383,0.088867-0.070313,0.113281
						c-0.003906,0.024414-0.042969,0.066406-0.086914,0.092773C25.793945,6.222168,25.791016,6.224121,25.683594,6.17334z
						 M26.242188,6.120605c0.024414-0.041992,0.047852-0.118164,0.053711-0.168945l0.003906-0.032227
						c0.004883-0.046875,0.018555-0.087891,0.041992-0.129883s0.030273-0.049805,0.030273-0.049805
						c0.03418-0.039063,0.09668-0.047852,0.141602-0.020508l0.030273,0.020508
						c-0.045898,0.036133-0.074219,0.077148-0.091797,0.124023c-0.018555,0.045898-0.021484,0.086914-0.021484,0.086914
						c-0.003906,0.051758,0.032227,0.09375,0.082031,0.09375l0,0c0.004883-0.038086,0.018555-0.074219,0.036133-0.102539
						c0.019531-0.032227,0.019531-0.032227,0.019531-0.032227c0.036133-0.03125,0.097656-0.030273,0.138672,0.000977
						l0.041992,0.03125c-0.038086,0.023438-0.060547,0.041992-0.075195,0.055664
						c-0.018555,0.018555-0.018555,0.018555-0.018555,0.018555c-0.004883,0.015625,0.033203,0.02832,0.083984,0.02832h0.714844
						c0.050781,0,0.092773,0.03418,0.092773,0.076172c0,0.041016-0.041992,0.075195-0.092773,0.075195h-1.163086
						C26.240234,6.195801,26.216797,6.161621,26.242188,6.120605z"/>
				</g>
			</g>
		</g>
	</g>
</g>
<g id="roughgrass_x5F_bd_1_" style="enable-background:new    ;">
	<g id="RoughGrass_x5F_FC_3_">
		<path style="fill:#A9CDA6;" d="M27.03125,4.268555l0.010742,0.056641l-0.041016,0.042969l-0.042969,0.021484
			c-0.030273,0.012695-0.063477,0.00293-0.083008-0.023438l-0.15625-0.222656l-0.009766-0.057129l0.035156-0.042969
			l0.043945-0.022461c0.029297-0.013672,0.06543-0.00293,0.086914,0.022461L27.03125,4.268555z"/>
		<path style="fill:#A9CDA6;" d="M28.174805,3.996582c0,0.003906,0,0.007813-0.003906,0.011719
			c-0.011719-0.015625-0.022461-0.025391-0.037109-0.040039C28.085938,3.911621,28,3.835449,28,3.835449
			c-0.037109-0.123047,0.052734-0.328125,0.052734-0.328125C28.038086,3.367188,28.0625,3.157227,28.0625,3.157227
			C28.407227,3.611816,28.174805,3.996582,28.174805,3.996582z"/>
		<path style="fill:#A9CDA6;" d="M28.170898,4.007324c0.03418,0.041016,0.09375,0.05957,0.116211,0.17334l-0.054688,0.022461
			l-0.119141-0.010742C28.110352,4.125,28.137695,4.074707,28.170898,4.007324z"/>
		<path style="fill:#A9CDA6;" d="M29.226563,3.568848l-0.224609,0.224609c0,0-0.061523,0.052734-0.163086,0.290039
			l-0.010742,0.115723c0,0-0.087891,0.045898-0.201172-0.021484c0,0,0.051758-0.14502,0.063477-0.29248
			c0,0,0.009766-0.521973,0.253906-0.608887c0,0,0.180664-0.091797,0.067383,0.046875c0,0-0.148438,0.19873-0.152344,0.437988
			C28.860352,3.760254,29.012695,3.557129,29.226563,3.568848z"/>
		<path style="fill:#A9CDA6;" d="M30.214844,4.086426l-0.009766,0.057129l-0.15625,0.22168
			c-0.019531,0.026367-0.052734,0.036133-0.083008,0.023438l-0.042969-0.020508l-0.039063-0.042969l0.010742-0.056641
			l0.154297-0.226074c0.020508-0.025391,0.057617-0.036133,0.085938-0.022461l0.042969,0.022461L30.214844,4.086426z"/>
		<path style="fill:#A9CDA6;" d="M27.52832,3.827637l0.105469,0.348145l-0.00293,0.06543l-0.042969,0.039063
			c-0.029297,0.012695-0.049805,0.017578-0.05957,0.017578c-0.033203,0.006836-0.06543-0.012695-0.076172-0.048828
			l-0.106445-0.342285v-0.06543l0.042969-0.040039l0.053711-0.020508C27.479492,3.765137,27.514648,3.788574,27.52832,3.827637z"/>
		<path style="fill:#A9CDA6;" d="M29.501953,3.780762l0.052734,0.020508l0.042969,0.040039v0.06543l-0.106445,0.342285
			c-0.009766,0.036133-0.042969,0.055664-0.075195,0.047852c-0.010742,0-0.030273-0.004883-0.060547-0.017578L29.3125,4.241211
			l-0.00293-0.066406l0.106445-0.348145C29.428711,3.788574,29.46582,3.765137,29.501953,3.780762z"/>
	</g>
</g>
<g id="roughgrass_x5F_bd_2_" style="enable-background:new    ;">
	<g id="RoughGrass_x5F_FC_4_">
		<path style="fill:#A9CDA6;" d="M22.606934,3.504883l0.010254,0.056641l-0.041016,0.042969l-0.042969,0.021484
			c-0.030273,0.012695-0.062988,0.00293-0.083008-0.023438l-0.155762-0.222656l-0.009766-0.057129l0.035645-0.042969
			l0.043457-0.022461c0.029785-0.013672,0.06543-0.00293,0.086426,0.022461L22.606934,3.504883z"/>
		<path style="fill:#A9CDA6;" d="M23.75,3.23291c0,0.003906,0,0.007813-0.003906,0.011719
			c-0.01123-0.015625-0.021973-0.025391-0.037109-0.040039c-0.047363-0.056641-0.133301-0.132813-0.133301-0.132813
			c-0.037109-0.123047,0.052734-0.328125,0.052734-0.328125c-0.014648-0.140137,0.010254-0.350098,0.010254-0.350098
			C23.98291,2.848145,23.75,3.23291,23.75,3.23291z"/>
		<path style="fill:#A9CDA6;" d="M23.746094,3.243652c0.03418,0.041016,0.09375,0.05957,0.116211,0.17334l-0.054199,0.022461
			l-0.118652-0.010742C23.686523,3.361328,23.712891,3.311035,23.746094,3.243652z"/>
		<path style="fill:#A9CDA6;" d="M24.802734,2.805176l-0.225098,0.224609c0,0-0.062012,0.052734-0.163086,0.290039
			l-0.010742,0.115723c0,0-0.087891,0.045898-0.200684-0.021484c0,0,0.051758-0.14502,0.062988-0.29248
			c0,0,0.009766-0.521973,0.253418-0.608887c0,0,0.181152-0.091797,0.067871,0.046875c0,0-0.148926,0.19873-0.152832,0.437988
			C24.435547,2.996582,24.588379,2.793457,24.802734,2.805176z"/>
		<path style="fill:#A9CDA6;" d="M25.791016,3.322754L25.78125,3.379883L25.625,3.601563
			C25.604492,3.62793,25.572266,3.637695,25.541992,3.625l-0.042969-0.020508l-0.039063-0.042969l0.010254-0.056641L25.625,3.278809
			c0.019531-0.025391,0.056641-0.036133,0.085938-0.022461l0.042969,0.022461L25.791016,3.322754z"/>
		<path style="fill:#A9CDA6;" d="M23.103516,3.063965l0.105957,0.348145l-0.00293,0.06543l-0.042969,0.039063
			C23.133789,3.529297,23.11377,3.53418,23.103516,3.53418c-0.032715,0.006836-0.064453-0.012695-0.075684-0.048828
			l-0.105957-0.342285v-0.06543l0.042969-0.040039l0.053223-0.020508C23.054688,3.001465,23.090332,3.024902,23.103516,3.063965z"/>
		<path style="fill:#A9CDA6;" d="M25.077148,3.01709l0.052734,0.020508l0.043457,0.040039v0.06543l-0.106445,0.342285
			c-0.009766,0.036133-0.042969,0.055664-0.075195,0.047852c-0.010254,0-0.030273-0.004883-0.060059-0.017578l-0.042969-0.038086
			l-0.00293-0.066406l0.105957-0.348145C25.004395,3.024902,25.041016,3.001465,25.077148,3.01709z"/>
	</g>
</g>
<g id="marsh_x5F_bd_4_" style="enable-background:new    ;">
	<g id="Marsh_x5F_FC_6_">
		<g>
			<g>
				<g>
					<path style="fill:#95CDC7;" d="M36.527344,14.16748c0.025391,0.041016,0.001953,0.075195-0.048828,0.075195H35.31543
						c-0.050781,0-0.092773-0.03418-0.092773-0.075195c0-0.041992,0.041992-0.076172,0.092773-0.076172h0.807617
						c-0.003906-0.014648-0.008789-0.02832-0.027344-0.041992c-0.014648-0.013672-0.014648-0.013672-0.014648-0.013672
						c-0.033203-0.025391-0.025391-0.072266,0.015625-0.103516l0.041016-0.03125
						c0.037109,0.033203,0.068359,0.06543,0.087891,0.098633c0.021484,0.026367,0.021484,0.026367,0.021484,0.026367
						c0.004883,0.02832,0.009766,0.054688,0.009766,0.058594s0.039063,0.007813,0.087891,0.007813l0,0
						c0-0.074219-0.009766-0.129883-0.02832-0.175781c-0.023438-0.046875-0.032227-0.05957-0.032227-0.05957
						c-0.033203-0.039063-0.023438-0.09375,0.020508-0.121094l0.03125-0.019531
						c0.041992,0.037109,0.069336,0.078125,0.092773,0.120117c0.022461,0.041992,0.022461,0.041992,0.022461,0.041992
						c0.009766,0.047852,0.021484,0.115234,0.025391,0.149414C36.480469,14.062988,36.50293,14.125488,36.527344,14.16748z
						 M38.02832,14.602051c0,0.03125-0.041992,0.058594-0.092773,0.058594h-1.920898c-0.051758,0-0.09375-0.026367-0.09375-0.058594
						s0.041992-0.057617,0.09375-0.057617h1.920898C37.986328,14.544434,38.02832,14.569824,38.02832,14.602051z
						 M36.867188,14.220215c0,0-0.111328-0.351563-0.22168-0.458008c0,0-0.097656-0.115234,0.110352-0.032227
						c0,0,0.106445,0.051758,0.176758,0.259766c0,0,0.008789-0.379883,0.236328-0.443359c0,0,0.166992-0.06543,0.060547,0.037109
						c0,0-0.133789,0.142578-0.138672,0.317383c0,0,0.074219-0.09668,0.25-0.125c0,0,0.143555-0.035156,0,0.06543l-0.206055,0.22168
						c-0.03418,0.038086-0.067383,0.088867-0.070313,0.113281c-0.003906,0.024414-0.042969,0.066406-0.086914,0.092773
						C36.977539,14.269043,36.974609,14.270996,36.867188,14.220215z M37.425781,14.16748
						c0.024414-0.041992,0.047852-0.118164,0.053711-0.168945l0.003906-0.032227
						c0.004883-0.046875,0.018555-0.087891,0.041992-0.129883s0.030273-0.049805,0.030273-0.049805
						c0.03418-0.039063,0.09668-0.047852,0.141602-0.020508l0.030273,0.020508
						c-0.045898,0.036133-0.074219,0.077148-0.091797,0.124023c-0.018555,0.045898-0.021484,0.086914-0.021484,0.086914
						c-0.003906,0.051758,0.032227,0.09375,0.082031,0.09375l0,0c0.004883-0.038086,0.018555-0.074219,0.036133-0.102539
						c0.019531-0.032227,0.019531-0.032227,0.019531-0.032227c0.036133-0.03125,0.097656-0.030273,0.138672,0.000977
						l0.041992,0.03125c-0.038086,0.023438-0.060547,0.041992-0.075195,0.055664
						c-0.018555,0.018555-0.018555,0.018555-0.018555,0.018555c-0.004883,0.015625,0.033203,0.02832,0.083984,0.02832h0.714844
						c0.050781,0,0.092773,0.03418,0.092773,0.076172c0,0.041016-0.041992,0.075195-0.092773,0.075195h-1.163086
						C37.423828,14.242676,37.400391,14.208496,37.425781,14.16748z"/>
				</g>
			</g>
		</g>
	</g>
</g>
<g id="roughgrass_x5F_bd_3_" style="enable-background:new    ;">
	<g id="RoughGrass_x5F_FC_5_">
		<path style="fill:#A9CDA6;" d="M38.213867,12.31543l0.010742,0.056641l-0.041016,0.042969l-0.042969,0.021484
			c-0.030273,0.012695-0.063477,0.00293-0.083008-0.023438l-0.15625-0.222656l-0.009766-0.057129l0.035156-0.042969
			l0.043945-0.022461c0.029297-0.013672,0.06543-0.00293,0.086914,0.022461L38.213867,12.31543z"/>
		<path style="fill:#A9CDA6;" d="M39.357422,12.043457c0,0.003906,0,0.007813-0.003906,0.011719
			c-0.011719-0.015625-0.022461-0.025391-0.037109-0.040039c-0.047852-0.056641-0.133789-0.132813-0.133789-0.132813
			c-0.037109-0.123047,0.052734-0.328125,0.052734-0.328125c-0.014648-0.140137,0.009766-0.350098,0.009766-0.350098
			C39.589844,11.658691,39.357422,12.043457,39.357422,12.043457z"/>
		<path style="fill:#A9CDA6;" d="M39.353516,12.054199c0.03418,0.041016,0.09375,0.05957,0.116211,0.17334L39.415039,12.25
			l-0.119141-0.010742C39.292969,12.171875,39.320313,12.121582,39.353516,12.054199z"/>
		<path style="fill:#A9CDA6;" d="M40.40918,11.615723l-0.224609,0.224609c0,0-0.061523,0.052734-0.163086,0.290039
			l-0.010742,0.115723c0,0-0.087891,0.045898-0.201172-0.021484c0,0,0.051758-0.14502,0.063477-0.29248
			c0,0,0.009766-0.521973,0.253906-0.608887c0,0,0.180664-0.091797,0.067383,0.046875c0,0-0.148438,0.19873-0.152344,0.437988
			C40.042969,11.807129,40.195313,11.604004,40.40918,11.615723z"/>
		<path style="fill:#A9CDA6;" d="M41.397461,12.133301l-0.009766,0.057129l-0.15625,0.22168
			c-0.019531,0.026367-0.052734,0.036133-0.083008,0.023438l-0.042969-0.020508l-0.039063-0.042969l0.010742-0.056641
			l0.154297-0.226074c0.020508-0.025391,0.057617-0.036133,0.085938-0.022461l0.042969,0.022461L41.397461,12.133301z"/>
		<path style="fill:#A9CDA6;" d="M38.710938,11.874512l0.105469,0.348145l-0.00293,0.06543l-0.042969,0.039063
			c-0.029297,0.012695-0.049805,0.017578-0.05957,0.017578c-0.033203,0.006836-0.06543-0.012695-0.076172-0.048828
			l-0.106445-0.342285v-0.06543l0.042969-0.040039L38.625,11.827637C38.662109,11.812012,38.697266,11.835449,38.710938,11.874512z"
			/>
		<path style="fill:#A9CDA6;" d="M40.68457,11.827637l0.052734,0.020508l0.042969,0.040039v0.06543l-0.106445,0.342285
			c-0.009766,0.036133-0.042969,0.055664-0.075195,0.047852c-0.010742,0-0.030273-0.004883-0.060547-0.017578l-0.042969-0.038086
			l-0.00293-0.066406l0.106445-0.348145C40.611328,11.835449,40.648438,11.812012,40.68457,11.827637z"/>
	</g>
</g>
<g id="marsh_x5F_bd_3_" style="enable-background:new    ;">
	<g id="Marsh_x5F_FC_5_">
		<g>
			<g>
				<g>
					<path style="fill:#95CDC7;" d="M34.771484,11.132324c0.025391,0.041016,0.001953,0.075195-0.048828,0.075195H33.55957
						c-0.050781,0-0.092773-0.03418-0.092773-0.075195c0-0.041992,0.041992-0.076172,0.092773-0.076172h0.807617
						c-0.003906-0.014648-0.008789-0.02832-0.027344-0.041992c-0.014648-0.013672-0.014648-0.013672-0.014648-0.013672
						c-0.033203-0.025391-0.025391-0.072266,0.015625-0.103516l0.041016-0.03125
						c0.037109,0.033203,0.068359,0.06543,0.087891,0.098633c0.021484,0.026367,0.021484,0.026367,0.021484,0.026367
						c0.004883,0.02832,0.009766,0.054688,0.009766,0.058594s0.039063,0.007813,0.087891,0.007813l0,0
						c0-0.074219-0.009766-0.129883-0.02832-0.175781c-0.023438-0.046875-0.032227-0.05957-0.032227-0.05957
						c-0.033203-0.039063-0.023438-0.09375,0.020508-0.121094l0.03125-0.019531
						c0.041992,0.037109,0.069336,0.078125,0.092773,0.120117c0.022461,0.041992,0.022461,0.041992,0.022461,0.041992
						c0.009766,0.047852,0.021484,0.115234,0.025391,0.149414C34.724609,11.027832,34.74707,11.090332,34.771484,11.132324z
						 M36.272461,11.566895c0,0.03125-0.041992,0.058594-0.092773,0.058594h-1.920898
						c-0.051758,0-0.09375-0.026367-0.09375-0.058594s0.041992-0.057617,0.09375-0.057617h1.920898
						C36.230469,11.509277,36.272461,11.534668,36.272461,11.566895z M35.111328,11.185059c0,0-0.111328-0.351563-0.22168-0.458008
						c0,0-0.097656-0.115234,0.110352-0.032227c0,0,0.106445,0.051758,0.176758,0.259766c0,0,0.008789-0.379883,0.236328-0.443359
						c0,0,0.166992-0.06543,0.060547,0.037109c0,0-0.133789,0.142578-0.138672,0.317383c0,0,0.074219-0.09668,0.25-0.125
						c0,0,0.143555-0.035156,0,0.06543l-0.206055,0.22168c-0.03418,0.038086-0.067383,0.088867-0.070313,0.113281
						c-0.003906,0.024414-0.042969,0.066406-0.086914,0.092773C35.22168,11.233887,35.21875,11.23584,35.111328,11.185059z
						 M35.669922,11.132324c0.024414-0.041992,0.047852-0.118164,0.053711-0.168945l0.003906-0.032227
						c0.004883-0.046875,0.018555-0.087891,0.041992-0.129883s0.030273-0.049805,0.030273-0.049805
						c0.03418-0.039063,0.09668-0.047852,0.141602-0.020508l0.030273,0.020508
						c-0.045898,0.036133-0.074219,0.077148-0.091797,0.124023c-0.018555,0.045898-0.021484,0.086914-0.021484,0.086914
						c-0.003906,0.051758,0.032227,0.09375,0.082031,0.09375l0,0c0.004883-0.038086,0.018555-0.074219,0.036133-0.102539
						c0.019531-0.032227,0.019531-0.032227,0.019531-0.032227c0.036133-0.03125,0.097656-0.030273,0.138672,0.000977
						l0.041992,0.03125c-0.038086,0.023438-0.060547,0.041992-0.075195,0.055664
						c-0.018555,0.018555-0.018555,0.018555-0.018555,0.018555c-0.004883,0.015625,0.033203,0.02832,0.083984,0.02832h0.714844
						c0.050781,0,0.092773,0.03418,0.092773,0.076172c0,0.041016-0.041992,0.075195-0.092773,0.075195H35.71875
						C35.667969,11.20752,35.644531,11.17334,35.669922,11.132324z"/>
				</g>
			</g>
		</g>
	</g>
</g>
<g id="marsh_x5F_bd_1_" style="enable-background:new    ;">
	<g id="Marsh_x5F_FC_3_">
		<g>
			<g>
				<g>
					<path style="fill:#95CDC7;" d="M42.041016,5.782715c0.025391,0.041016,0.001953,0.075195-0.048828,0.075195h-1.163086
						c-0.050781,0-0.092773-0.03418-0.092773-0.075195c0-0.041992,0.041992-0.076172,0.092773-0.076172h0.807617
						c-0.003906-0.014648-0.008789-0.02832-0.027344-0.041992c-0.014648-0.013672-0.014648-0.013672-0.014648-0.013672
						c-0.033203-0.025391-0.025391-0.072266,0.015625-0.103516l0.041016-0.03125
						c0.037109,0.033203,0.068359,0.06543,0.087891,0.098633c0.021484,0.026367,0.021484,0.026367,0.021484,0.026367
						c0.004883,0.02832,0.009766,0.054688,0.009766,0.058594S41.80957,5.70752,41.858398,5.70752l0,0
						c0-0.074219-0.009766-0.129883-0.02832-0.175781c-0.023438-0.046875-0.032227-0.05957-0.032227-0.05957
						c-0.033203-0.039063-0.023438-0.09375,0.020508-0.121094l0.03125-0.019531
						c0.041992,0.037109,0.069336,0.078125,0.092773,0.120117c0.022461,0.041992,0.022461,0.041992,0.022461,0.041992
						c0.009766,0.047852,0.021484,0.115234,0.025391,0.149414C41.994141,5.678223,42.016602,5.740723,42.041016,5.782715z
						 M43.541992,6.217285c0,0.03125-0.041992,0.058594-0.092773,0.058594H41.52832c-0.051758,0-0.09375-0.026367-0.09375-0.058594
						s0.041992-0.057617,0.09375-0.057617h1.920898C43.5,6.159668,43.541992,6.185059,43.541992,6.217285z M42.380859,5.835449
						c0,0-0.111328-0.351563-0.22168-0.458008c0,0-0.097656-0.115234,0.110352-0.032227c0,0,0.106445,0.051758,0.176758,0.259766
						c0,0,0.008789-0.379883,0.236328-0.443359c0,0,0.166992-0.06543,0.060547,0.037109c0,0-0.133789,0.142578-0.138672,0.317383
						c0,0,0.074219-0.09668,0.25-0.125c0,0,0.143555-0.035156,0,0.06543l-0.206055,0.22168
						c-0.03418,0.038086-0.067383,0.088867-0.070313,0.113281c-0.003906,0.024414-0.042969,0.066406-0.086914,0.092773
						C42.491211,5.884277,42.488281,5.88623,42.380859,5.835449z M42.939453,5.782715
						c0.024414-0.041992,0.047852-0.118164,0.053711-0.168945l0.003906-0.032227
						c0.004883-0.046875,0.018555-0.087891,0.041992-0.129883s0.030273-0.049805,0.030273-0.049805
						c0.03418-0.039063,0.09668-0.047852,0.141602-0.020508l0.030273,0.020508
						c-0.045898,0.036133-0.074219,0.077148-0.091797,0.124023c-0.018555,0.045898-0.021484,0.086914-0.021484,0.086914
						c-0.003906,0.051758,0.032227,0.09375,0.082031,0.09375l0,0c0.004883-0.038086,0.018555-0.074219,0.036133-0.102539
						c0.019531-0.032227,0.019531-0.032227,0.019531-0.032227c0.036133-0.03125,0.097656-0.030273,0.138672,0.000977
						l0.041992,0.03125c-0.038086,0.023438-0.060547,0.041992-0.075195,0.055664
						c-0.018555,0.018555-0.018555,0.018555-0.018555,0.018555c-0.004883,0.015625,0.033203,0.02832,0.083984,0.02832h0.714844
						c0.050781,0,0.092773,0.03418,0.092773,0.076172c0,0.041016-0.041992,0.075195-0.092773,0.075195h-1.163086
						C42.9375,5.85791,42.914063,5.82373,42.939453,5.782715z"/>
				</g>
			</g>
		</g>
	</g>
</g>
<g id="roughgrass_x5F_bd" style="enable-background:new    ;">
	<g id="RoughGrass_x5F_FC_2_">
		<path style="fill:#A9CDA6;" d="M43.727539,3.930664l0.010742,0.056641l-0.041016,0.042969l-0.042969,0.021484
			c-0.030273,0.012695-0.063477,0.00293-0.083008-0.023438l-0.15625-0.222656l-0.009766-0.057129l0.035156-0.042969
			l0.043945-0.022461c0.029297-0.013672,0.06543-0.00293,0.086914,0.022461L43.727539,3.930664z"/>
		<path style="fill:#A9CDA6;" d="M44.871094,3.658691c0,0.003906,0,0.007813-0.003906,0.011719
			c-0.011719-0.015625-0.022461-0.025391-0.037109-0.040039c-0.047852-0.056641-0.133789-0.132813-0.133789-0.132813
			c-0.037109-0.123047,0.052734-0.328125,0.052734-0.328125c-0.014648-0.140137,0.009766-0.350098,0.009766-0.350098
			C45.103516,3.273926,44.871094,3.658691,44.871094,3.658691z"/>
		<path style="fill:#A9CDA6;" d="M44.867188,3.669434c0.03418,0.041016,0.09375,0.05957,0.116211,0.17334l-0.054688,0.022461
			L44.80957,3.854492C44.806641,3.787109,44.833984,3.736816,44.867188,3.669434z"/>
		<path style="fill:#A9CDA6;" d="M45.922852,3.230957l-0.224609,0.224609c0,0-0.061523,0.052734-0.163086,0.290039
			l-0.010742,0.115723c0,0-0.087891,0.045898-0.201172-0.021484c0,0,0.051758-0.14502,0.063477-0.29248
			c0,0,0.009766-0.521973,0.253906-0.608887c0,0,0.180664-0.091797,0.067383,0.046875c0,0-0.148438,0.19873-0.152344,0.437988
			C45.556641,3.422363,45.708984,3.219238,45.922852,3.230957z"/>
		<path style="fill:#A9CDA6;" d="M46.911133,3.748535l-0.009766,0.057129l-0.15625,0.22168
			c-0.019531,0.026367-0.052734,0.036133-0.083008,0.023438l-0.042969-0.020508l-0.039063-0.042969l0.010742-0.056641
			l0.154297-0.226074c0.020508-0.025391,0.057617-0.036133,0.085938-0.022461l0.042969,0.022461L46.911133,3.748535z"/>
		<path style="fill:#A9CDA6;" d="M44.224609,3.489746l0.105469,0.348145l-0.00293,0.06543L44.28418,3.942383
			c-0.029297,0.012695-0.049805,0.017578-0.05957,0.017578c-0.033203,0.006836-0.06543-0.012695-0.076172-0.048828
			l-0.106445-0.342285v-0.06543l0.042969-0.040039l0.053711-0.020508C44.175781,3.427246,44.210938,3.450684,44.224609,3.489746z"/>
		<path style="fill:#A9CDA6;" d="M46.198242,3.442871l0.052734,0.020508l0.042969,0.040039v0.06543L46.1875,3.911133
			c-0.009766,0.036133-0.042969,0.055664-0.075195,0.047852c-0.010742,0-0.030273-0.004883-0.060547-0.017578L46.008789,3.90332
			l-0.00293-0.066406l0.106445-0.348145C46.125,3.450684,46.162109,3.427246,46.198242,3.442871z"/>
	</g>
</g>
<g id="marsh_x5F_bd" style="enable-background:new    ;">
	<g id="Marsh_x5F_FC_2_">
		<g>
			<g>
				<g>
					<path style="fill:#95CDC7;" d="M40.285156,2.747559c0.025391,0.041016,0.001953,0.075195-0.048828,0.075195h-1.163086
						c-0.050781,0-0.092773-0.03418-0.092773-0.075195c0-0.041992,0.041992-0.076172,0.092773-0.076172h0.807617
						c-0.003906-0.014648-0.008789-0.02832-0.027344-0.041992c-0.014648-0.013672-0.014648-0.013672-0.014648-0.013672
						c-0.033203-0.025391-0.025391-0.072266,0.015625-0.103516l0.041016-0.03125
						c0.037109,0.033203,0.068359,0.06543,0.087891,0.098633c0.021484,0.026367,0.021484,0.026367,0.021484,0.026367
						c0.004883,0.02832,0.009766,0.054688,0.009766,0.058594s0.039063,0.007813,0.087891,0.007813l0,0
						c0-0.074219-0.009766-0.129883-0.02832-0.175781c-0.023438-0.046875-0.032227-0.05957-0.032227-0.05957
						c-0.033203-0.039063-0.023438-0.09375,0.020508-0.121094l0.03125-0.019531
						c0.041992,0.037109,0.069336,0.078125,0.092773,0.120117c0.022461,0.041992,0.022461,0.041992,0.022461,0.041992
						c0.009766,0.047852,0.021484,0.115234,0.025391,0.149414C40.238281,2.643066,40.260742,2.705566,40.285156,2.747559z
						 M41.786133,3.182129c0,0.03125-0.041992,0.058594-0.092773,0.058594h-1.920898c-0.051758,0-0.09375-0.026367-0.09375-0.058594
						s0.041992-0.057617,0.09375-0.057617h1.920898C41.744141,3.124512,41.786133,3.149902,41.786133,3.182129z M40.625,2.800293
						c0,0-0.111328-0.351563-0.22168-0.458008c0,0-0.097656-0.115234,0.110352-0.032227c0,0,0.106445,0.051758,0.176758,0.259766
						c0,0,0.008789-0.379883,0.236328-0.443359c0,0,0.166992-0.06543,0.060547,0.037109c0,0-0.133789,0.142578-0.138672,0.317383
						c0,0,0.074219-0.09668,0.25-0.125c0,0,0.143555-0.035156,0,0.06543l-0.206055,0.22168
						c-0.03418,0.038086-0.067383,0.088867-0.070313,0.113281c-0.003906,0.024414-0.042969,0.066406-0.086914,0.092773
						C40.735352,2.849121,40.732422,2.851074,40.625,2.800293z M41.183594,2.747559
						c0.024414-0.041992,0.047852-0.118164,0.053711-0.168945l0.003906-0.032227
						c0.004883-0.046875,0.018555-0.087891,0.041992-0.129883s0.030273-0.049805,0.030273-0.049805
						c0.03418-0.039063,0.09668-0.047852,0.141602-0.020508l0.030273,0.020508
						c-0.045898,0.036133-0.074219,0.077148-0.091797,0.124023C41.375,2.536621,41.37207,2.577637,41.37207,2.577637
						c-0.003906,0.051758,0.032227,0.09375,0.082031,0.09375l0,0c0.004883-0.038086,0.018555-0.074219,0.036133-0.102539
						c0.019531-0.032227,0.019531-0.032227,0.019531-0.032227c0.036133-0.03125,0.097656-0.030273,0.138672,0.000977
						l0.041992,0.03125c-0.038086,0.023438-0.060547,0.041992-0.075195,0.055664
						C41.59668,2.643066,41.59668,2.643066,41.59668,2.643066c-0.004883,0.015625,0.033203,0.02832,0.083984,0.02832h0.714844
						c0.050781,0,0.092773,0.03418,0.092773,0.076172c0,0.041016-0.041992,0.075195-0.092773,0.075195h-1.163086
						C41.181641,2.822754,41.158203,2.788574,41.183594,2.747559z"/>
				</g>
			</g>
		</g>
	</g>
</g>
<g id="marsh_x5F_bd_5_" style="enable-background:new    ;">
	<g id="Marsh_x5F_FC_7_">
		<g>
			<g>
				<g>
					<path style="fill:#95CDC7;" d="M37.023438,24.04541c0.025391,0.041016,0.001953,0.075195-0.048828,0.075195h-1.163086
						c-0.050781,0-0.092773-0.03418-0.092773-0.075195c0-0.041992,0.041992-0.076172,0.092773-0.076172h0.807617
						c-0.003906-0.014648-0.008789-0.02832-0.027344-0.041992c-0.014648-0.013672-0.014648-0.013672-0.014648-0.013672
						c-0.033203-0.025391-0.025391-0.072266,0.015625-0.103516l0.041016-0.03125
						c0.037109,0.033203,0.068359,0.06543,0.087891,0.098633c0.021484,0.026367,0.021484,0.026367,0.021484,0.026367
						c0.004883,0.02832,0.009766,0.054688,0.009766,0.058594s0.039063,0.007813,0.087891,0.007813l0,0
						c0-0.074219-0.009766-0.129883-0.02832-0.175781c-0.023438-0.046875-0.032227-0.05957-0.032227-0.05957
						c-0.033203-0.039063-0.023438-0.09375,0.020508-0.121094l0.03125-0.019531
						c0.041992,0.037109,0.069336,0.078125,0.092773,0.120117c0.022461,0.041992,0.022461,0.041992,0.022461,0.041992
						c0.009766,0.047852,0.021484,0.115234,0.025391,0.149414C36.976563,23.940918,36.999023,24.003418,37.023438,24.04541z
						 M38.524414,24.47998c0,0.03125-0.041992,0.058594-0.092773,0.058594h-1.920898c-0.051758,0-0.09375-0.026367-0.09375-0.058594
						s0.041992-0.057617,0.09375-0.057617h1.920898C38.482422,24.422363,38.524414,24.447754,38.524414,24.47998z
						 M37.363281,24.098145c0,0-0.111328-0.351563-0.22168-0.458008c0,0-0.097656-0.115234,0.110352-0.032227
						c0,0,0.106445,0.051758,0.176758,0.259766c0,0,0.008789-0.379883,0.236328-0.443359c0,0,0.166992-0.06543,0.060547,0.037109
						c0,0-0.133789,0.142578-0.138672,0.317383c0,0,0.074219-0.09668,0.25-0.125c0,0,0.143555-0.035156,0,0.06543l-0.206055,0.22168
						c-0.03418,0.038086-0.067383,0.088867-0.070313,0.113281c-0.003906,0.024414-0.042969,0.066406-0.086914,0.092773
						C37.473633,24.146973,37.470703,24.148926,37.363281,24.098145z M37.921875,24.04541
						c0.024414-0.041992,0.047852-0.118164,0.053711-0.168945l0.003906-0.032227
						c0.004883-0.046875,0.018555-0.087891,0.041992-0.129883s0.030273-0.049805,0.030273-0.049805
						c0.03418-0.039063,0.09668-0.047852,0.141602-0.020508l0.030273,0.020508
						c-0.045898,0.036133-0.074219,0.077148-0.091797,0.124023c-0.018555,0.045898-0.021484,0.086914-0.021484,0.086914
						c-0.003906,0.051758,0.032227,0.09375,0.082031,0.09375l0,0c0.004883-0.038086,0.018555-0.074219,0.036133-0.102539
						c0.019531-0.032227,0.019531-0.032227,0.019531-0.032227c0.036133-0.03125,0.097656-0.030273,0.138672,0.000977
						l0.041992,0.03125c-0.038086,0.023438-0.060547,0.041992-0.075195,0.055664
						c-0.018555,0.018555-0.018555,0.018555-0.018555,0.018555c-0.004883,0.015625,0.033203,0.02832,0.083984,0.02832h0.714844
						c0.050781,0,0.092773,0.03418,0.092773,0.076172c0,0.041016-0.041992,0.075195-0.092773,0.075195h-1.163086
						C37.919922,24.120605,37.896484,24.086426,37.921875,24.04541z"/>
				</g>
			</g>
		</g>
	</g>
</g>
<g id="roughgrass_x5F_bd_5_" style="enable-background:new    ;">
	<g id="RoughGrass_x5F_FC_7_">
		<path style="fill:#A9CDA6;" d="M38.710938,22.193359L38.72168,22.25l-0.041016,0.042969l-0.042969,0.021484
			c-0.030273,0.012695-0.063477,0.00293-0.083008-0.023438l-0.15625-0.222656l-0.009766-0.057129l0.035156-0.042969
			l0.043945-0.022461c0.029297-0.013672,0.06543-0.00293,0.086914,0.022461L38.710938,22.193359z"/>
		<path style="fill:#A9CDA6;" d="M39.854492,21.921387c0,0.003906,0,0.007813-0.003906,0.011719
			c-0.011719-0.015625-0.022461-0.025391-0.037109-0.040039c-0.047852-0.056641-0.133789-0.132813-0.133789-0.132813
			c-0.037109-0.123047,0.052734-0.328125,0.052734-0.328125c-0.014648-0.140137,0.009766-0.350098,0.009766-0.350098
			C40.086914,21.536621,39.854492,21.921387,39.854492,21.921387z"/>
		<path style="fill:#A9CDA6;" d="M39.850586,21.932129c0.03418,0.041016,0.09375,0.05957,0.116211,0.17334l-0.054688,0.022461
			l-0.119141-0.010742C39.790039,22.049805,39.817383,21.999512,39.850586,21.932129z"/>
		<path style="fill:#A9CDA6;" d="M40.90625,21.493652l-0.224609,0.224609c0,0-0.061523,0.052734-0.163086,0.290039
			l-0.010742,0.115723c0,0-0.087891,0.045898-0.201172-0.021484c0,0,0.051758-0.14502,0.063477-0.29248
			c0,0,0.009766-0.521973,0.253906-0.608887c0,0,0.180664-0.091797,0.067383,0.046875c0,0-0.148438,0.19873-0.152344,0.437988
			C40.540039,21.685059,40.692383,21.481934,40.90625,21.493652z"/>
		<path style="fill:#A9CDA6;" d="M41.894531,22.01123l-0.009766,0.057129l-0.15625,0.22168
			c-0.019531,0.026367-0.052734,0.036133-0.083008,0.023438l-0.042969-0.020508L41.563477,22.25l0.010742-0.056641
			l0.154297-0.226074c0.020508-0.025391,0.057617-0.036133,0.085938-0.022461l0.042969,0.022461L41.894531,22.01123z"/>
		<path style="fill:#A9CDA6;" d="M39.208008,21.752441l0.105469,0.348145l-0.00293,0.06543l-0.042969,0.039063
			c-0.029297,0.012695-0.049805,0.017578-0.05957,0.017578c-0.033203,0.006836-0.06543-0.012695-0.076172-0.048828
			l-0.106445-0.342285v-0.06543l0.042969-0.040039l0.053711-0.020508C39.15918,21.689941,39.194336,21.713379,39.208008,21.752441z"
			/>
		<path style="fill:#A9CDA6;" d="M41.181641,21.705566l0.052734,0.020508l0.042969,0.040039v0.06543l-0.106445,0.342285
			c-0.009766,0.036133-0.042969,0.055664-0.075195,0.047852c-0.010742,0-0.030273-0.004883-0.060547-0.017578l-0.042969-0.038086
			l-0.00293-0.066406l0.106445-0.348145C41.108398,21.713379,41.145508,21.689941,41.181641,21.705566z"/>
	</g>
</g>
<g id="roughgrass_x5F_bd_4_" style="enable-background:new    ;">
	<g id="RoughGrass_x5F_FC_6_">
		<path style="fill:#A9CDA6;" d="M34.286133,21.429688l0.010742,0.056641l-0.041016,0.042969l-0.042969,0.021484
			c-0.030273,0.012695-0.063477,0.00293-0.083008-0.023438l-0.15625-0.222656l-0.009766-0.057129l0.035156-0.042969
			l0.043945-0.022461c0.029297-0.013672,0.06543-0.00293,0.086914,0.022461L34.286133,21.429688z"/>
		<path style="fill:#A9CDA6;" d="M35.429688,21.157715c0,0.003906,0,0.007813-0.003906,0.011719
			c-0.011719-0.015625-0.022461-0.025391-0.037109-0.040039c-0.047852-0.056641-0.133789-0.132813-0.133789-0.132813
			c-0.037109-0.123047,0.052734-0.328125,0.052734-0.328125c-0.014648-0.140137,0.009766-0.350098,0.009766-0.350098
			C35.662109,20.772949,35.429688,21.157715,35.429688,21.157715z"/>
		<path style="fill:#A9CDA6;" d="M35.425781,21.168457c0.03418,0.041016,0.09375,0.05957,0.116211,0.17334l-0.054688,0.022461
			l-0.119141-0.010742C35.365234,21.286133,35.392578,21.23584,35.425781,21.168457z"/>
		<path style="fill:#A9CDA6;" d="M36.481445,20.72998l-0.224609,0.224609c0,0-0.061523,0.052734-0.163086,0.290039
			l-0.010742,0.115723c0,0-0.087891,0.045898-0.201172-0.021484c0,0,0.051758-0.14502,0.063477-0.29248
			c0,0,0.009766-0.521973,0.253906-0.608887c0,0,0.180664-0.091797,0.067383,0.046875c0,0-0.148438,0.19873-0.152344,0.437988
			C36.115234,20.921387,36.267578,20.718262,36.481445,20.72998z"/>
		<path style="fill:#A9CDA6;" d="M37.469727,21.247559l-0.009766,0.057129l-0.15625,0.22168
			c-0.019531,0.026367-0.052734,0.036133-0.083008,0.023438l-0.042969-0.020508l-0.039063-0.042969l0.010742-0.056641
			l0.154297-0.226074c0.020508-0.025391,0.057617-0.036133,0.085938-0.022461l0.042969,0.022461L37.469727,21.247559z"/>
		<path style="fill:#A9CDA6;" d="M34.783203,20.98877l0.105469,0.348145l-0.00293,0.06543l-0.042969,0.039063
			c-0.029297,0.012695-0.049805,0.017578-0.05957,0.017578c-0.033203,0.006836-0.06543-0.012695-0.076172-0.048828
			l-0.106445-0.342285v-0.06543l0.042969-0.040039l0.053711-0.020508C34.734375,20.92627,34.769531,20.949707,34.783203,20.98877z"
			/>
		<path style="fill:#A9CDA6;" d="M36.756836,20.941895l0.052734,0.020508l0.042969,0.040039v0.06543l-0.106445,0.342285
			c-0.009766,0.036133-0.042969,0.055664-0.075195,0.047852c-0.010742,0-0.030273-0.004883-0.060547-0.017578l-0.042969-0.038086
			l-0.00293-0.066406l0.106445-0.348145C36.683594,20.949707,36.720703,20.92627,36.756836,20.941895z"/>
	</g>
</g>
<g id="marsh_x5F_bd_7_" style="enable-background:new    ;">
	<g id="Marsh_x5F_FC_9_">
		<g>
			<g>
				<g>
					<path style="fill:#95CDC7;" d="M42.292969,35.947266c0.025391,0.041016,0.001953,0.075195-0.048828,0.075195h-1.163086
						c-0.050781,0-0.092773-0.03418-0.092773-0.075195c0-0.041992,0.041992-0.076172,0.092773-0.076172h0.807617
						c-0.003906-0.014648-0.008789-0.02832-0.027344-0.041992C41.84668,35.81543,41.84668,35.81543,41.84668,35.81543
						c-0.033203-0.025391-0.025391-0.072266,0.015625-0.103516l0.041016-0.03125
						c0.037109,0.033203,0.068359,0.06543,0.087891,0.098633c0.021484,0.026367,0.021484,0.026367,0.021484,0.026367
						c0.004883,0.02832,0.009766,0.054688,0.009766,0.058594s0.039063,0.007813,0.087891,0.007813l0,0
						c0-0.074219-0.009766-0.129883-0.02832-0.175781c-0.023438-0.046875-0.032227-0.05957-0.032227-0.05957
						c-0.033203-0.039063-0.023438-0.09375,0.020508-0.121094l0.03125-0.019531
						c0.041992,0.037109,0.069336,0.078125,0.092773,0.120117c0.022461,0.041992,0.022461,0.041992,0.022461,0.041992
						c0.009766,0.047852,0.021484,0.115234,0.025391,0.149414C42.246094,35.842773,42.268555,35.905273,42.292969,35.947266z
						 M43.793945,36.381836c0,0.03125-0.041992,0.058594-0.092773,0.058594h-1.920898
						c-0.051758,0-0.09375-0.026367-0.09375-0.058594s0.041992-0.057617,0.09375-0.057617h1.920898
						C43.751953,36.324219,43.793945,36.349609,43.793945,36.381836z M42.632813,36c0,0-0.111328-0.351563-0.22168-0.458008
						c0,0-0.097656-0.115234,0.110352-0.032227c0,0,0.106445,0.051758,0.176758,0.259766c0,0,0.008789-0.379883,0.236328-0.443359
						c0,0,0.166992-0.06543,0.060547,0.037109c0,0-0.133789,0.142578-0.138672,0.317383c0,0,0.074219-0.09668,0.25-0.125
						c0,0,0.143555-0.035156,0,0.06543l-0.206055,0.22168c-0.03418,0.038086-0.067383,0.088867-0.070313,0.113281
						c-0.003906,0.024414-0.042969,0.066406-0.086914,0.092773C42.743164,36.048828,42.740234,36.050781,42.632813,36z
						 M43.191406,35.947266c0.024414-0.041992,0.047852-0.118164,0.053711-0.168945l0.003906-0.032227
						c0.004883-0.046875,0.018555-0.087891,0.041992-0.129883s0.030273-0.049805,0.030273-0.049805
						c0.03418-0.039063,0.09668-0.047852,0.141602-0.020508l0.030273,0.020508
						c-0.045898,0.036133-0.074219,0.077148-0.091797,0.124023c-0.018555,0.045898-0.021484,0.086914-0.021484,0.086914
						c-0.003906,0.051758,0.032227,0.09375,0.082031,0.09375l0,0c0.004883-0.038086,0.018555-0.074219,0.036133-0.102539
						c0.019531-0.032227,0.019531-0.032227,0.019531-0.032227c0.036133-0.03125,0.097656-0.030273,0.138672,0.000977
						l0.041992,0.03125c-0.038086,0.023438-0.060547,0.041992-0.075195,0.055664
						c-0.018555,0.018555-0.018555,0.018555-0.018555,0.018555c-0.004883,0.015625,0.033203,0.02832,0.083984,0.02832h0.714844
						c0.050781,0,0.092773,0.03418,0.092773,0.076172c0,0.041016-0.041992,0.075195-0.092773,0.075195h-1.163086
						C43.189453,36.022461,43.166016,35.988281,43.191406,35.947266z"/>
				</g>
			</g>
		</g>
	</g>
</g>
<g id="roughgrass_x5F_bd_6_" style="enable-background:new    ;">
	<g id="RoughGrass_x5F_FC_8_">
		<path style="fill:#A9CDA6;" d="M43.978516,34.09668l0.010742,0.056641l-0.041016,0.042969l-0.042969,0.021484
			c-0.030273,0.012695-0.063477,0.00293-0.083008-0.023438l-0.15625-0.222656l-0.009766-0.057617l0.035156-0.042969
			l0.043945-0.022461c0.029297-0.013672,0.06543-0.00293,0.086914,0.022461L43.978516,34.09668z"/>
		<path style="fill:#A9CDA6;" d="M45.12207,33.824219c0,0.003906,0,0.007813-0.003906,0.011719
			c-0.011719-0.015625-0.022461-0.025391-0.037109-0.040039c-0.047852-0.056641-0.133789-0.132813-0.133789-0.132813
			C44.910156,33.540039,45,33.334961,45,33.334961c-0.014648-0.140625,0.009766-0.350586,0.009766-0.350586
			C45.354492,33.439453,45.12207,33.824219,45.12207,33.824219z"/>
		<path style="fill:#A9CDA6;" d="M45.118164,33.834961c0.03418,0.041016,0.09375,0.05957,0.116211,0.173828l-0.054688,0.022461
			l-0.119141-0.010742C45.057617,33.953125,45.084961,33.902344,45.118164,33.834961z"/>
		<path style="fill:#A9CDA6;" d="M46.173828,33.396484l-0.224609,0.224609c0,0-0.061523,0.052734-0.163086,0.290039
			l-0.010742,0.116211c0,0-0.087891,0.045898-0.201172-0.021484c0,0,0.051758-0.145508,0.063477-0.292969
			c0,0,0.009766-0.522461,0.253906-0.609375c0,0,0.180664-0.091797,0.067383,0.046875c0,0-0.148438,0.199219-0.152344,0.438477
			C45.807617,33.587891,45.959961,33.384766,46.173828,33.396484z"/>
		<path style="fill:#A9CDA6;" d="M47.162109,33.914063l-0.009766,0.057617l-0.15625,0.22168
			c-0.019531,0.026367-0.052734,0.036133-0.083008,0.023438l-0.042969-0.020508l-0.039063-0.042969l0.010742-0.056641
			l0.154297-0.226563c0.020508-0.025391,0.057617-0.036133,0.085938-0.022461L47.125,33.870117L47.162109,33.914063z"/>
		<path style="fill:#A9CDA6;" d="M44.475586,33.655273l0.105469,0.348633l-0.00293,0.06543l-0.042969,0.039063
			c-0.029297,0.012695-0.049805,0.017578-0.05957,0.017578c-0.033203,0.006836-0.06543-0.012695-0.076172-0.048828
			l-0.106445-0.342773v-0.06543l0.042969-0.040039l0.053711-0.020508C44.426758,33.592773,44.461914,33.616211,44.475586,33.655273z
			"/>
		<path style="fill:#A9CDA6;" d="M46.449219,33.608398l0.052734,0.020508l0.042969,0.040039v0.06543l-0.106445,0.342773
			c-0.009766,0.036133-0.042969,0.055664-0.075195,0.047852c-0.010742,0-0.030273-0.004883-0.060547-0.017578l-0.042969-0.038086
			l-0.00293-0.066406l0.106445-0.348633C46.375977,33.616211,46.413086,33.592773,46.449219,33.608398z"/>
	</g>
</g>
<g id="marsh_x5F_bd_6_" style="enable-background:new    ;">
	<g id="Marsh_x5F_FC_8_">
		<g>
			<g>
				<g>
					<path style="fill:#95CDC7;" d="M40.537109,32.912109c0.025391,0.041016,0.001953,0.075195-0.048828,0.075195h-1.163086
						c-0.050781,0-0.092773-0.03418-0.092773-0.075195c0-0.041992,0.041992-0.076172,0.092773-0.076172h0.807617
						c-0.003906-0.014648-0.008789-0.02832-0.027344-0.041992c-0.014648-0.013672-0.014648-0.013672-0.014648-0.013672
						c-0.033203-0.025391-0.025391-0.072266,0.015625-0.103516l0.041016-0.03125
						c0.037109,0.033203,0.068359,0.06543,0.087891,0.098633c0.021484,0.026367,0.021484,0.026367,0.021484,0.026367
						c0.004883,0.02832,0.009766,0.054688,0.009766,0.058594s0.039063,0.007813,0.087891,0.007813l0,0
						c0-0.074219-0.009766-0.129883-0.02832-0.175781c-0.023438-0.046875-0.032227-0.05957-0.032227-0.05957
						c-0.033203-0.039063-0.023438-0.09375,0.020508-0.121094l0.03125-0.019531
						c0.041992,0.037109,0.069336,0.078125,0.092773,0.120117c0.022461,0.041992,0.022461,0.041992,0.022461,0.041992
						c0.009766,0.047852,0.021484,0.115234,0.025391,0.149414C40.490234,32.807617,40.512695,32.870117,40.537109,32.912109z
						 M42.038086,33.34668c0,0.03125-0.041992,0.058594-0.092773,0.058594h-1.920898c-0.051758,0-0.09375-0.026367-0.09375-0.058594
						s0.041992-0.057617,0.09375-0.057617h1.920898C41.996094,33.289063,42.038086,33.314453,42.038086,33.34668z
						 M40.876953,32.964844c0,0-0.111328-0.351563-0.22168-0.458008c0,0-0.097656-0.115234,0.110352-0.032227
						c0,0,0.106445,0.051758,0.176758,0.259766c0,0,0.008789-0.379883,0.236328-0.443359c0,0,0.166992-0.06543,0.060547,0.037109
						c0,0-0.133789,0.142578-0.138672,0.317383c0,0,0.074219-0.09668,0.25-0.125c0,0,0.143555-0.035156,0,0.06543l-0.206055,0.22168
						c-0.03418,0.038086-0.067383,0.088867-0.070313,0.113281c-0.003906,0.024414-0.042969,0.066406-0.086914,0.092773
						C40.987305,33.013672,40.984375,33.015625,40.876953,32.964844z M41.435547,32.912109
						c0.024414-0.041992,0.047852-0.118164,0.053711-0.168945l0.003906-0.032227
						c0.004883-0.046875,0.018555-0.087891,0.041992-0.129883s0.030273-0.049805,0.030273-0.049805
						c0.03418-0.039063,0.09668-0.047852,0.141602-0.020508l0.030273,0.020508
						c-0.045898,0.036133-0.074219,0.077148-0.091797,0.124023c-0.018555,0.045898-0.021484,0.086914-0.021484,0.086914
						c-0.003906,0.051758,0.032227,0.09375,0.082031,0.09375l0,0c0.004883-0.038086,0.018555-0.074219,0.036133-0.102539
						c0.019531-0.032227,0.019531-0.032227,0.019531-0.032227c0.036133-0.03125,0.097656-0.030273,0.138672,0.000977
						l0.041992,0.03125c-0.038086,0.023438-0.060547,0.041992-0.075195,0.055664
						c-0.018555,0.018555-0.018555,0.018555-0.018555,0.018555c-0.004883,0.015625,0.033203,0.02832,0.083984,0.02832h0.714844
						c0.050781,0,0.092773,0.03418,0.092773,0.076172c0,0.041016-0.041992,0.075195-0.092773,0.075195h-1.163086
						C41.433594,32.987305,41.410156,32.953125,41.435547,32.912109z"/>
				</g>
			</g>
		</g>
	</g>
</g>
<g id="marsh_x5F_bd_8_" style="enable-background:new    ;">
	<g id="Marsh_x5F_FC_10_">
		<g>
			<g>
				<g>
					<path style="fill:#95CDC7;" d="M29.261719,46.548828c0.025391,0.041016,0.001953,0.075195-0.048828,0.075195h-1.163086
						c-0.050781,0-0.092773-0.03418-0.092773-0.075195c0-0.041992,0.041992-0.076172,0.092773-0.076172h0.807617
						c-0.003906-0.014648-0.008789-0.02832-0.027344-0.041992c-0.014648-0.013672-0.014648-0.013672-0.014648-0.013672
						c-0.033203-0.025391-0.025391-0.072266,0.015625-0.103516l0.041016-0.03125
						c0.037109,0.033203,0.068359,0.06543,0.087891,0.098633c0.021484,0.026367,0.021484,0.026367,0.021484,0.026367
						c0.004883,0.02832,0.009766,0.054688,0.009766,0.058594s0.039063,0.007813,0.087891,0.007813l0,0
						c0-0.074219-0.009766-0.129883-0.02832-0.175781c-0.023438-0.046875-0.032227-0.05957-0.032227-0.05957
						c-0.033203-0.039063-0.023438-0.09375,0.020508-0.121094l0.03125-0.019531
						c0.041992,0.037109,0.069336,0.078125,0.092773,0.120117c0.022461,0.041992,0.022461,0.041992,0.022461,0.041992
						c0.009766,0.047852,0.021484,0.115234,0.025391,0.149414C29.214844,46.444336,29.237305,46.506836,29.261719,46.548828z
						 M30.762695,46.983398c0,0.03125-0.041992,0.058594-0.092773,0.058594h-1.920898
						c-0.051758,0-0.09375-0.026367-0.09375-0.058594s0.041992-0.057617,0.09375-0.057617h1.920898
						C30.720703,46.925781,30.762695,46.951172,30.762695,46.983398z M29.601563,46.601563c0,0-0.111328-0.351563-0.22168-0.458008
						c0,0-0.097656-0.115234,0.110352-0.032227c0,0,0.106445,0.051758,0.176758,0.259766c0,0,0.008789-0.379883,0.236328-0.443359
						c0,0,0.166992-0.06543,0.060547,0.037109c0,0-0.133789,0.142578-0.138672,0.317383c0,0,0.074219-0.09668,0.25-0.125
						c0,0,0.143555-0.035156,0,0.06543l-0.206055,0.22168c-0.03418,0.038086-0.067383,0.088867-0.070313,0.113281
						c-0.003906,0.024414-0.042969,0.066406-0.086914,0.092773C29.711914,46.650391,29.708984,46.652344,29.601563,46.601563z
						 M30.160156,46.548828c0.024414-0.041992,0.047852-0.118164,0.053711-0.168945l0.003906-0.032227
						c0.004883-0.046875,0.018555-0.087891,0.041992-0.129883s0.030273-0.049805,0.030273-0.049805
						c0.03418-0.039063,0.09668-0.047852,0.141602-0.020508l0.030273,0.020508
						c-0.045898,0.036133-0.074219,0.077148-0.091797,0.124023c-0.018555,0.045898-0.021484,0.086914-0.021484,0.086914
						c-0.003906,0.051758,0.032227,0.09375,0.082031,0.09375l0,0c0.004883-0.038086,0.018555-0.074219,0.036133-0.102539
						c0.019531-0.032227,0.019531-0.032227,0.019531-0.032227c0.036133-0.03125,0.097656-0.030273,0.138672,0.000977
						l0.041992,0.03125c-0.038086,0.023438-0.060547,0.041992-0.075195,0.055664
						c-0.018555,0.018555-0.018555,0.018555-0.018555,0.018555c-0.004883,0.015625,0.033203,0.02832,0.083984,0.02832h0.714844
						c0.050781,0,0.092773,0.03418,0.092773,0.076172c0,0.041016-0.041992,0.075195-0.092773,0.075195h-1.163086
						C30.158203,46.624023,30.134766,46.589844,30.160156,46.548828z"/>
				</g>
			</g>
		</g>
	</g>
</g>
<g id="roughgrass_x5F_bd_7_" style="enable-background:new    ;">
	<g id="RoughGrass_x5F_FC_9_">
		<path style="fill:#A9CDA6;" d="M30.948242,44.698242l0.010742,0.056641l-0.041016,0.042969L30.875,44.819336
			c-0.030273,0.012695-0.063477,0.00293-0.083008-0.023438l-0.15625-0.222656l-0.009766-0.057617l0.035156-0.042969
			l0.043945-0.022461c0.029297-0.013672,0.06543-0.00293,0.086914,0.022461L30.948242,44.698242z"/>
		<path style="fill:#A9CDA6;" d="M32.091797,44.425781c0,0.003906,0,0.007813-0.003906,0.011719
			c-0.011719-0.015625-0.022461-0.025391-0.037109-0.040039c-0.047852-0.056641-0.133789-0.132813-0.133789-0.132813
			c-0.037109-0.123047,0.052734-0.328125,0.052734-0.328125c-0.014648-0.140625,0.009766-0.350586,0.009766-0.350586
			C32.324219,44.041016,32.091797,44.425781,32.091797,44.425781z"/>
		<path style="fill:#A9CDA6;" d="M32.087891,44.436523c0.03418,0.041016,0.09375,0.05957,0.116211,0.173828l-0.054688,0.022461
			l-0.119141-0.010742C32.027344,44.554688,32.054688,44.503906,32.087891,44.436523z"/>
		<path style="fill:#A9CDA6;" d="M33.143555,43.998047l-0.224609,0.224609c0,0-0.061523,0.052734-0.163086,0.290039
			l-0.010742,0.116211c0,0-0.087891,0.045898-0.201172-0.021484c0,0,0.051758-0.145508,0.063477-0.292969
			c0,0,0.009766-0.522461,0.253906-0.609375c0,0,0.180664-0.091797,0.067383,0.046875c0,0-0.148438,0.199219-0.152344,0.438477
			C32.777344,44.189453,32.929688,43.986328,33.143555,43.998047z"/>
		<path style="fill:#A9CDA6;" d="M34.131836,44.515625l-0.009766,0.057617l-0.15625,0.22168
			c-0.019531,0.026367-0.052734,0.036133-0.083008,0.023438l-0.042969-0.020508l-0.039063-0.042969l0.010742-0.056641
			l0.154297-0.226563c0.020508-0.025391,0.057617-0.036133,0.085938-0.022461l0.042969,0.022461L34.131836,44.515625z"/>
		<path style="fill:#A9CDA6;" d="M31.445313,44.256836l0.105469,0.348633l-0.00293,0.06543l-0.042969,0.039063
			c-0.029297,0.012695-0.049805,0.017578-0.05957,0.017578c-0.033203,0.006836-0.06543-0.012695-0.076172-0.048828
			l-0.106445-0.342773v-0.06543l0.042969-0.040039l0.053711-0.020508C31.396484,44.194336,31.431641,44.217773,31.445313,44.256836z
			"/>
		<path style="fill:#A9CDA6;" d="M33.418945,44.209961l0.052734,0.020508l0.042969,0.040039v0.06543l-0.106445,0.342773
			c-0.009766,0.036133-0.042969,0.055664-0.075195,0.047852c-0.010742,0-0.030273-0.004883-0.060547-0.017578l-0.042969-0.038086
			l-0.00293-0.066406l0.106445-0.348633C33.345703,44.217773,33.382813,44.194336,33.418945,44.209961z"/>
	</g>
</g>
<g id="marsh_x5F_bd_9_" style="enable-background:new    ;">
	<g id="Marsh_x5F_FC_11_">
		<g>
			<g>
				<g>
					<path style="fill:#95CDC7;" d="M27.505859,43.513672c0.025391,0.041016,0.001953,0.075195-0.048828,0.075195h-1.163086
						c-0.050781,0-0.092773-0.03418-0.092773-0.075195c0-0.041992,0.041992-0.076172,0.092773-0.076172h0.807617
						c-0.003906-0.014648-0.008789-0.02832-0.027344-0.041992c-0.014648-0.013672-0.014648-0.013672-0.014648-0.013672
						c-0.033203-0.025391-0.025391-0.072266,0.015625-0.103516l0.041016-0.03125
						c0.037109,0.033203,0.068359,0.06543,0.087891,0.098633c0.021484,0.026367,0.021484,0.026367,0.021484,0.026367
						c0.004883,0.02832,0.009766,0.054688,0.009766,0.058594s0.039063,0.007813,0.087891,0.007813l0,0
						c0-0.074219-0.009766-0.129883-0.02832-0.175781c-0.023438-0.046875-0.032227-0.05957-0.032227-0.05957
						c-0.033203-0.039063-0.023438-0.09375,0.020508-0.121094l0.03125-0.019531
						c0.041992,0.037109,0.069336,0.078125,0.092773,0.120117c0.022461,0.041992,0.022461,0.041992,0.022461,0.041992
						c0.009766,0.047852,0.021484,0.115234,0.025391,0.149414C27.458984,43.40918,27.481445,43.47168,27.505859,43.513672z
						 M29.006836,43.948242c0,0.03125-0.041992,0.058594-0.092773,0.058594h-1.920898
						c-0.051758,0-0.09375-0.026367-0.09375-0.058594s0.041992-0.057617,0.09375-0.057617h1.920898
						C28.964844,43.890625,29.006836,43.916016,29.006836,43.948242z M27.845703,43.566406c0,0-0.111328-0.351563-0.22168-0.458008
						c0,0-0.097656-0.115234,0.110352-0.032227c0,0,0.106445,0.051758,0.176758,0.259766c0,0,0.008789-0.379883,0.236328-0.443359
						c0,0,0.166992-0.06543,0.060547,0.037109c0,0-0.133789,0.142578-0.138672,0.317383c0,0,0.074219-0.09668,0.25-0.125
						c0,0,0.143555-0.035156,0,0.06543l-0.206055,0.22168c-0.03418,0.038086-0.067383,0.088867-0.070313,0.113281
						C28.039063,43.546875,28,43.588867,27.956055,43.615234C27.956055,43.615234,27.953125,43.617188,27.845703,43.566406z
						 M28.404297,43.513672c0.024414-0.041992,0.047852-0.118164,0.053711-0.168945l0.003906-0.032227
						c0.004883-0.046875,0.018555-0.087891,0.041992-0.129883s0.030273-0.049805,0.030273-0.049805
						c0.03418-0.039063,0.09668-0.047852,0.141602-0.020508l0.030273,0.020508
						c-0.045898,0.036133-0.074219,0.077148-0.091797,0.124023c-0.018555,0.045898-0.021484,0.086914-0.021484,0.086914
						c-0.003906,0.051758,0.032227,0.09375,0.082031,0.09375l0,0c0.004883-0.038086,0.018555-0.074219,0.036133-0.102539
						c0.019531-0.032227,0.019531-0.032227,0.019531-0.032227c0.036133-0.03125,0.097656-0.030273,0.138672,0.000977
						l0.041992,0.03125c-0.038086,0.023438-0.060547,0.041992-0.075195,0.055664
						c-0.018555,0.018555-0.018555,0.018555-0.018555,0.018555c-0.004883,0.015625,0.033203,0.02832,0.083984,0.02832h0.714844
						c0.050781,0,0.092773,0.03418,0.092773,0.076172c0,0.041016-0.041992,0.075195-0.092773,0.075195h-1.163086
						C28.402344,43.588867,28.378906,43.554688,28.404297,43.513672z"/>
				</g>
			</g>
		</g>
	</g>
</g>
<g id="marsh_x5F_bd_16_" style="enable-background:new    ;">
	<g id="Marsh_x5F_FC_18_">
		<g>
			<g>
				<g>
					<path style="fill:#95CDC7;" d="M5.486328,47.964844c0.025391,0.041016,0.002441,0.075195-0.048828,0.075195H4.273926
						c-0.050781,0-0.092773-0.03418-0.092773-0.075195c0-0.041992,0.041992-0.076172,0.092773-0.076172H5.08252
						c-0.003906-0.014648-0.008789-0.02832-0.027832-0.041992c-0.01416-0.013672-0.01416-0.013672-0.01416-0.013672
						c-0.033203-0.025391-0.025879-0.072266,0.015137-0.103516l0.041016-0.03125
						c0.037109,0.033203,0.068848,0.06543,0.087891,0.098633c0.021973,0.026367,0.021973,0.026367,0.021973,0.026367
						c0.004883,0.02832,0.009766,0.054688,0.009766,0.058594s0.039063,0.007813,0.087402,0.007813l0,0
						c0-0.074219-0.009277-0.129883-0.02832-0.175781c-0.022949-0.046875-0.031738-0.05957-0.031738-0.05957
						c-0.033203-0.039063-0.023926-0.09375,0.02002-0.121094l0.031738-0.019531
						c0.041992,0.037109,0.069336,0.078125,0.092285,0.120117s0.022949,0.041992,0.022949,0.041992
						c0.009766,0.047852,0.020996,0.115234,0.024902,0.149414C5.439453,47.860352,5.462402,47.922852,5.486328,47.964844z
						 M6.987305,48.399414c0,0.03125-0.041992,0.058594-0.092773,0.058594H4.973633c-0.05127,0-0.093262-0.026367-0.093262-0.058594
						s0.041992-0.057617,0.093262-0.057617h1.920898C6.945313,48.341797,6.987305,48.367188,6.987305,48.399414z M5.82666,48.017578
						c0,0-0.111328-0.351563-0.222168-0.458008c0,0-0.097168-0.115234,0.11084-0.032227c0,0,0.106445,0.051758,0.17627,0.259766
						c0,0,0.008789-0.379883,0.23584-0.443359c0,0,0.166992-0.06543,0.061035,0.037109c0,0-0.133789,0.142578-0.13916,0.317383
						c0,0,0.074219-0.09668,0.25-0.125c0,0,0.144043-0.035156,0,0.06543l-0.205566,0.22168
						c-0.03418,0.038086-0.067383,0.088867-0.070313,0.113281c-0.003906,0.024414-0.042969,0.066406-0.086914,0.092773
						C5.936523,48.066406,5.933594,48.068359,5.82666,48.017578z M6.384766,47.964844
						c0.023926-0.041992,0.047852-0.118164,0.053711-0.168945l0.003906-0.032227
						c0.004395-0.046875,0.018066-0.087891,0.041992-0.129883c0.022949-0.041992,0.030273-0.049805,0.030273-0.049805
						c0.033691-0.039063,0.09668-0.047852,0.141113-0.020508l0.030762,0.020508
						c-0.045898,0.036133-0.074219,0.077148-0.091797,0.124023c-0.019043,0.045898-0.021973,0.086914-0.021973,0.086914
						c-0.003418,0.051758,0.032715,0.09375,0.082031,0.09375l0,0c0.004883-0.038086,0.018555-0.074219,0.036621-0.102539
						c0.019043-0.032227,0.019043-0.032227,0.019043-0.032227c0.036133-0.03125,0.098145-0.030273,0.13916,0.000977
						l0.041992,0.03125c-0.038086,0.023438-0.061035,0.041992-0.075195,0.055664
						c-0.019043,0.018555-0.019043,0.018555-0.019043,0.018555c-0.004883,0.015625,0.033203,0.02832,0.083984,0.02832h0.71582
						c0.050781,0,0.092773,0.03418,0.092773,0.076172c0,0.041016-0.041992,0.075195-0.092773,0.075195H6.433594
						C6.382324,48.040039,6.359375,48.005859,6.384766,47.964844z"/>
				</g>
			</g>
		</g>
	</g>
</g>
<g id="roughgrass_x5F_bd_10_" style="enable-background:new    ;">
	<g id="RoughGrass_x5F_FC_12_">
		<path style="fill:#A9CDA6;" d="M7.17334,46.112305l0.010254,0.056641l-0.041016,0.042969l-0.042969,0.021484
			c-0.030273,0.012695-0.062988,0.00293-0.083008-0.023438L6.86084,45.987305l-0.009766-0.057617l0.035645-0.042969
			l0.043457-0.022461c0.029785-0.013672,0.06543-0.00293,0.086426,0.022461L7.17334,46.112305z"/>
		<path style="fill:#A9CDA6;" d="M8.316406,45.839844c0,0.003906,0,0.007813-0.003906,0.011719
			c-0.01123-0.015625-0.021973-0.025391-0.037109-0.040039c-0.047363-0.056641-0.133301-0.132813-0.133301-0.132813
			c-0.037109-0.123047,0.052734-0.328125,0.052734-0.328125C8.180176,45.209961,8.205078,45,8.205078,45
			C8.549316,45.455078,8.316406,45.839844,8.316406,45.839844z"/>
		<path style="fill:#A9CDA6;" d="M8.3125,45.850586c0.03418,0.041016,0.09375,0.05957,0.116211,0.173828l-0.054199,0.022461
			l-0.118652-0.010742C8.25293,45.96875,8.279297,45.917969,8.3125,45.850586z"/>
		<path style="fill:#A9CDA6;" d="M9.369141,45.412109l-0.225098,0.224609c0,0-0.062012,0.052734-0.163086,0.290039
			l-0.010742,0.116211c0,0-0.087891,0.045898-0.200684-0.021484c0,0,0.051758-0.145508,0.062988-0.292969
			c0,0,0.009766-0.522461,0.253418-0.609375c0,0,0.181152-0.091797,0.067871,0.046875c0,0-0.148926,0.199219-0.152832,0.438477
			C9.001953,45.603516,9.154785,45.400391,9.369141,45.412109z"/>
		<path style="fill:#A9CDA6;" d="M10.356934,45.929688l-0.009766,0.057617l-0.155762,0.22168
			c-0.02002,0.026367-0.052734,0.036133-0.083008,0.023438l-0.042969-0.020508l-0.039063-0.042969l0.010254-0.056641
			l0.154785-0.226563c0.02002-0.025391,0.056641-0.036133,0.085449-0.022461l0.042969,0.022461L10.356934,45.929688z"/>
		<path style="fill:#A9CDA6;" d="M7.669922,45.670898l0.105957,0.348633l-0.00293,0.06543L7.72998,46.124023
			c-0.029785,0.012695-0.049805,0.017578-0.060059,0.017578c-0.032715,0.006836-0.064453-0.012695-0.075684-0.048828L7.488281,45.75
			v-0.06543l0.042969-0.040039l0.053223-0.020508C7.621094,45.608398,7.656738,45.631836,7.669922,45.670898z"/>
		<path style="fill:#A9CDA6;" d="M9.643555,45.624023l0.052734,0.020508l0.043457,0.040039V45.75l-0.106445,0.342773
			c-0.009766,0.036133-0.042969,0.055664-0.075195,0.047852c-0.010254,0-0.030273-0.004883-0.060059-0.017578l-0.042969-0.038086
			l-0.00293-0.066406l0.105957-0.348633C9.570801,45.631836,9.607422,45.608398,9.643555,45.624023z"/>
	</g>
</g>
<g id="marsh_x5F_bd_15_" style="enable-background:new    ;">
	<g id="Marsh_x5F_FC_17_">
		<g>
			<g>
				<g>
					<path style="fill:#95CDC7;" d="M3.731445,44.929688c0.025391,0.041016,0.002441,0.075195-0.048828,0.075195H2.519043
						c-0.050781,0-0.092773-0.03418-0.092773-0.075195c0-0.041992,0.041992-0.076172,0.092773-0.076172h0.808594
						c-0.003906-0.014648-0.008789-0.02832-0.027832-0.041992c-0.01416-0.013672-0.01416-0.013672-0.01416-0.013672
						c-0.033203-0.025391-0.025879-0.072266,0.015137-0.103516l0.041016-0.03125
						c0.037109,0.033203,0.068848,0.06543,0.087891,0.098633c0.021973,0.026367,0.021973,0.026367,0.021973,0.026367
						c0.004883,0.02832,0.009766,0.054688,0.009766,0.058594s0.039063,0.007813,0.087402,0.007813l0,0
						c0-0.074219-0.009277-0.129883-0.02832-0.175781c-0.022949-0.046875-0.031738-0.05957-0.031738-0.05957
						c-0.033203-0.039063-0.023926-0.09375,0.02002-0.121094l0.031738-0.019531
						c0.041992,0.037109,0.069336,0.078125,0.092285,0.120117s0.022949,0.041992,0.022949,0.041992
						c0.009766,0.047852,0.020996,0.115234,0.024902,0.149414C3.68457,44.825195,3.70752,44.887695,3.731445,44.929688z
						 M5.232422,45.364258c0,0.03125-0.041992,0.058594-0.092773,0.058594H3.21875c-0.05127,0-0.093262-0.026367-0.093262-0.058594
						s0.041992-0.057617,0.093262-0.057617h1.920898C5.19043,45.306641,5.232422,45.332031,5.232422,45.364258z M4.071777,44.982422
						c0,0-0.111328-0.351563-0.222168-0.458008c0,0-0.097168-0.115234,0.11084-0.032227c0,0,0.106445,0.051758,0.17627,0.259766
						c0,0,0.008789-0.379883,0.23584-0.443359c0,0,0.166992-0.06543,0.061035,0.037109c0,0-0.133789,0.142578-0.13916,0.317383
						c0,0,0.074219-0.09668,0.25-0.125c0,0,0.144043-0.035156,0,0.06543l-0.205566,0.22168
						c-0.03418,0.038086-0.067383,0.088867-0.070313,0.113281c-0.003906,0.024414-0.042969,0.066406-0.086914,0.092773
						C4.181641,45.03125,4.178711,45.033203,4.071777,44.982422z M4.629883,44.929688
						c0.023926-0.041992,0.047852-0.118164,0.053711-0.168945L4.6875,44.728516
						c0.004395-0.046875,0.018066-0.087891,0.041992-0.129883c0.022949-0.041992,0.030273-0.049805,0.030273-0.049805
						c0.033691-0.039063,0.09668-0.047852,0.141113-0.020508l0.030762,0.020508
						c-0.045898,0.036133-0.074219,0.077148-0.091797,0.124023c-0.019043,0.045898-0.021973,0.086914-0.021973,0.086914
						c-0.003418,0.051758,0.032715,0.09375,0.082031,0.09375l0,0c0.004883-0.038086,0.018555-0.074219,0.036621-0.102539
						c0.019043-0.032227,0.019043-0.032227,0.019043-0.032227c0.036133-0.03125,0.098145-0.030273,0.13916,0.000977
						l0.041992,0.03125c-0.038086,0.023438-0.061035,0.041992-0.075195,0.055664
						C5.04248,44.825195,5.04248,44.825195,5.04248,44.825195c-0.004883,0.015625,0.033203,0.02832,0.083984,0.02832h0.71582
						c0.050781,0,0.092773,0.03418,0.092773,0.076172c0,0.041016-0.041992,0.075195-0.092773,0.075195H4.678711
						C4.627441,45.004883,4.604492,44.970703,4.629883,44.929688z"/>
				</g>
			</g>
		</g>
	</g>
</g>
</svg>
