<?xml version="1.0" encoding="utf-8"?>
<!-- Generator: Adobe Illustrator 16.0.3, SVG Export Plug-In . SVG Version: 6.00 Build 0)  -->
<!DOCTYPE svg PUBLIC "-//W3C//DTD SVG 1.1//EN" "http://www.w3.org/Graphics/SVG/1.1/DTD/svg11.dtd" [
	<!ENTITY st0 "enable-background:new    ;">
	<!ENTITY st1 "fill:#6BBE66;">
]>
<svg version="1.1" id="Layer_1" xmlns="http://www.w3.org/2000/svg" xmlns:xlink="http://www.w3.org/1999/xlink" x="0px" y="0px"
	 width="50px" height="50px" viewBox="0 0 50 50" style="enable-background:new 0 0 50 50;" xml:space="preserve">
<g id="marsh_x5F_bd_24_">
	<g id="Marsh_x5F_FC_26_">
		<g>
			<g>
				<g>
					<path style="&st1;" d="M7.875488,40.271484C7.900879,40.3125,7.87793,40.34668,7.82666,40.34668H6.663086
						c-0.050781,0-0.092773-0.03418-0.092773-0.075195c0-0.041992,0.041992-0.076172,0.092773-0.076172H7.47168
						c-0.003906-0.014648-0.008789-0.02832-0.027832-0.041992c-0.01416-0.013672-0.01416-0.013672-0.01416-0.013672
						c-0.033203-0.025391-0.025879-0.072266,0.015137-0.103516l0.041016-0.03125
						c0.037109,0.033203,0.068848,0.06543,0.087891,0.098633c0.021973,0.026367,0.021973,0.026367,0.021973,0.026367
						c0.004883,0.02832,0.009766,0.054688,0.009766,0.058594s0.039063,0.007813,0.087402,0.007813l0,0
						c0-0.074219-0.009277-0.129883-0.02832-0.175781c-0.022949-0.046875-0.031738-0.05957-0.031738-0.05957
						c-0.033203-0.039063-0.023926-0.09375,0.02002-0.121094l0.031738-0.019531
						c0.041992,0.037109,0.069336,0.078125,0.092285,0.120117s0.022949,0.041992,0.022949,0.041992
						c0.009766,0.047852,0.020996,0.115234,0.024902,0.149414C7.828613,40.166992,7.851563,40.229492,7.875488,40.271484z
						 M9.376465,40.706055c0,0.03125-0.041992,0.058594-0.092773,0.058594H7.362793c-0.05127,0-0.093262-0.026367-0.093262-0.058594
						s0.041992-0.057617,0.093262-0.057617h1.920898C9.334473,40.648438,9.376465,40.673828,9.376465,40.706055z M8.21582,40.324219
						c0,0-0.111328-0.351563-0.222168-0.458008c0,0-0.097168-0.115234,0.11084-0.032227c0,0,0.106445,0.051758,0.17627,0.259766
						c0,0,0.008789-0.379883,0.23584-0.443359c0,0,0.166992-0.06543,0.061035,0.037109c0,0-0.133789,0.142578-0.13916,0.317383
						c0,0,0.074219-0.09668,0.25-0.125c0,0,0.144043-0.035156,0,0.06543l-0.205566,0.22168
						c-0.03418,0.038086-0.067383,0.088867-0.070313,0.113281c-0.003906,0.024414-0.042969,0.066406-0.086914,0.092773
						C8.325684,40.373047,8.322754,40.375,8.21582,40.324219z M8.773926,40.271484
						c0.023926-0.041992,0.047852-0.118164,0.053711-0.168945l0.003906-0.032227
						c0.004395-0.046875,0.018066-0.087891,0.041992-0.129883c0.022949-0.041992,0.030273-0.049805,0.030273-0.049805
						c0.033691-0.039063,0.09668-0.047852,0.141113-0.020508l0.030762,0.020508
						c-0.045898,0.036133-0.074219,0.077148-0.091797,0.124023c-0.019043,0.045898-0.021973,0.086914-0.021973,0.086914
						c-0.003418,0.051758,0.032715,0.09375,0.082031,0.09375l0,0c0.004883-0.038086,0.018555-0.074219,0.036621-0.102539
						c0.019043-0.032227,0.019043-0.032227,0.019043-0.032227c0.036133-0.03125,0.098145-0.030273,0.13916,0.000977
						l0.041992,0.03125c-0.038086,0.023438-0.061035,0.041992-0.075195,0.055664
						c-0.019043,0.018555-0.019043,0.018555-0.019043,0.018555c-0.004883,0.015625,0.033203,0.02832,0.083984,0.02832h0.71582
						c0.050781,0,0.092773,0.03418,0.092773,0.076172c0,0.041016-0.041992,0.075195-0.092773,0.075195H8.822754
						C8.771484,40.34668,8.748535,40.3125,8.773926,40.271484z"/>
				</g>
			</g>
		</g>
	</g>
</g>
<g id="marsh_x5F_bd_25_" style="&st0;">
	<g id="Marsh_x5F_FC_27_">
		<g>
			<g>
				<g>
					<path style="&st1;" d="M10.544434,38c0.025391,0.041016,0.002441,0.075195-0.048828,0.075195H9.332031
						c-0.050781,0-0.092773-0.03418-0.092773-0.075195c0-0.041992,0.041992-0.076172,0.092773-0.076172h0.808594
						c-0.003906-0.014648-0.008789-0.02832-0.027832-0.041992c-0.01416-0.013672-0.01416-0.013672-0.01416-0.013672
						c-0.033203-0.025391-0.025879-0.072266,0.015137-0.103516l0.041016-0.03125
						c0.037109,0.033203,0.068848,0.06543,0.087891,0.098633c0.021973,0.026367,0.021973,0.026367,0.021973,0.026367
						c0.004883,0.02832,0.009766,0.054688,0.009766,0.058594s0.039063,0.007813,0.087402,0.007813l0,0
						c0-0.074219-0.009277-0.129883-0.02832-0.175781c-0.022949-0.046875-0.031738-0.05957-0.031738-0.05957
						c-0.033203-0.039063-0.023926-0.09375,0.02002-0.121094l0.031738-0.019531
						c0.041992,0.037109,0.069336,0.078125,0.092285,0.120117s0.022949,0.041992,0.022949,0.041992
						c0.009766,0.047852,0.020996,0.115234,0.024902,0.149414C10.497559,37.895508,10.520508,37.958008,10.544434,38z
						 M12.04541,38.43457c0,0.03125-0.041992,0.058594-0.092773,0.058594h-1.920898c-0.05127,0-0.093262-0.026367-0.093262-0.058594
						s0.041992-0.057617,0.093262-0.057617h1.920898C12.003418,38.376953,12.04541,38.402344,12.04541,38.43457z
						 M10.884766,38.052734c0,0-0.111328-0.351563-0.222168-0.458008c0,0-0.097168-0.115234,0.11084-0.032227
						c0,0,0.106445,0.051758,0.17627,0.259766c0,0,0.008789-0.379883,0.23584-0.443359c0,0,0.166992-0.06543,0.061035,0.037109
						c0,0-0.133789,0.142578-0.13916,0.317383c0,0,0.074219-0.09668,0.25-0.125c0,0,0.144043-0.035156,0,0.06543l-0.205566,0.22168
						c-0.03418,0.038086-0.067383,0.088867-0.070313,0.113281c-0.003906,0.024414-0.042969,0.066406-0.086914,0.092773
						C10.994629,38.101563,10.991699,38.103516,10.884766,38.052734z M11.442871,38
						c0.023926-0.041992,0.047852-0.118164,0.053711-0.168945l0.003906-0.032227
						c0.004395-0.046875,0.018066-0.087891,0.041992-0.129883c0.022949-0.041992,0.030273-0.049805,0.030273-0.049805
						c0.033691-0.039063,0.09668-0.047852,0.141113-0.020508l0.030762,0.020508
						c-0.045898,0.036133-0.074219,0.077148-0.091797,0.124023c-0.019043,0.045898-0.021973,0.086914-0.021973,0.086914
						c-0.003418,0.051758,0.032715,0.09375,0.082031,0.09375l0,0c0.004883-0.038086,0.018555-0.074219,0.036621-0.102539
						c0.019043-0.032227,0.019043-0.032227,0.019043-0.032227c0.036133-0.03125,0.098145-0.030273,0.13916,0.000977
						l0.041992,0.03125c-0.038086,0.023438-0.061035,0.041992-0.075195,0.055664
						c-0.019043,0.018555-0.019043,0.018555-0.019043,0.018555c-0.004883,0.015625,0.033203,0.02832,0.083984,0.02832h0.71582
						c0.050781,0,0.092773,0.03418,0.092773,0.076172c0,0.041016-0.041992,0.075195-0.092773,0.075195h-1.163574
						C11.44043,38.075195,11.41748,38.041016,11.442871,38z"/>
				</g>
			</g>
		</g>
	</g>
</g>
<g id="marsh_x5F_bd_26_" style="&st0;">
	<g id="Marsh_x5F_FC_28_">
		<g>
			<g>
				<g>
					<path style="&st1;" d="M6.120605,37.236328c0.025391,0.041016,0.002441,0.075195-0.048828,0.075195H4.908203
						c-0.050781,0-0.092773-0.03418-0.092773-0.075195c0-0.041992,0.041992-0.076172,0.092773-0.076172h0.808594
						c-0.003906-0.014648-0.008789-0.02832-0.027832-0.041992c-0.01416-0.013672-0.01416-0.013672-0.01416-0.013672
						c-0.033203-0.025391-0.025879-0.072266,0.015137-0.103516l0.041016-0.03125
						c0.037109,0.033203,0.068848,0.06543,0.087891,0.098633c0.021973,0.026367,0.021973,0.026367,0.021973,0.026367
						c0.004883,0.02832,0.009766,0.054688,0.009766,0.058594s0.039063,0.007813,0.087402,0.007813l0,0
						c0-0.074219-0.009277-0.129883-0.02832-0.175781c-0.022949-0.046875-0.031738-0.05957-0.031738-0.05957
						c-0.033203-0.039063-0.023926-0.09375,0.02002-0.121094l0.031738-0.019531
						c0.041992,0.037109,0.069336,0.078125,0.092285,0.120117s0.022949,0.041992,0.022949,0.041992
						c0.009766,0.047852,0.020996,0.115234,0.024902,0.149414C6.07373,37.131836,6.09668,37.194336,6.120605,37.236328z
						 M7.621582,37.670898c0,0.03125-0.041992,0.058594-0.092773,0.058594H5.60791c-0.05127,0-0.093262-0.026367-0.093262-0.058594
						s0.041992-0.057617,0.093262-0.057617h1.920898C7.57959,37.613281,7.621582,37.638672,7.621582,37.670898z M6.460938,37.289063
						c0,0-0.111328-0.351563-0.222168-0.458008c0,0-0.097168-0.115234,0.11084-0.032227c0,0,0.106445,0.051758,0.17627,0.259766
						c0,0,0.008789-0.379883,0.23584-0.443359c0,0,0.166992-0.06543,0.061035,0.037109c0,0-0.133789,0.142578-0.13916,0.317383
						c0,0,0.074219-0.09668,0.25-0.125c0,0,0.144043-0.035156,0,0.06543l-0.205566,0.22168
						c-0.03418,0.038086-0.067383,0.088867-0.070313,0.113281c-0.003906,0.024414-0.042969,0.066406-0.086914,0.092773
						C6.570801,37.337891,6.567871,37.339844,6.460938,37.289063z M7.019043,37.236328
						c0.023926-0.041992,0.047852-0.118164,0.053711-0.168945l0.003906-0.032227
						c0.004395-0.046875,0.018066-0.087891,0.041992-0.129883c0.022949-0.041992,0.030273-0.049805,0.030273-0.049805
						c0.033691-0.039063,0.09668-0.047852,0.141113-0.020508l0.030762,0.020508
						c-0.045898,0.036133-0.074219,0.077148-0.091797,0.124023c-0.019043,0.045898-0.021973,0.086914-0.021973,0.086914
						c-0.003418,0.051758,0.032715,0.09375,0.082031,0.09375l0,0c0.004883-0.038086,0.018555-0.074219,0.036621-0.102539
						c0.019043-0.032227,0.019043-0.032227,0.019043-0.032227c0.036133-0.03125,0.098145-0.030273,0.13916,0.000977
						l0.041992,0.03125c-0.038086,0.023438-0.061035,0.041992-0.075195,0.055664
						c-0.019043,0.018555-0.019043,0.018555-0.019043,0.018555c-0.004883,0.015625,0.033203,0.02832,0.083984,0.02832h0.71582
						c0.050781,0,0.092773,0.03418,0.092773,0.076172c0,0.041016-0.041992,0.075195-0.092773,0.075195H7.067871
						C7.016602,37.311523,6.993652,37.277344,7.019043,37.236328z"/>
				</g>
			</g>
		</g>
	</g>
</g>
<g id="marsh_x5F_bd_14_" style="&st0;">
	<g id="Marsh_x5F_FC_16_">
		<g>
			<g>
				<g>
					<path style="&st1;" d="M26.056641,34.996094c0.025391,0.041016,0.001953,0.075195-0.048828,0.075195h-1.163574
						c-0.050781,0-0.092773-0.03418-0.092773-0.075195c0-0.041992,0.041992-0.076172,0.092773-0.076172h0.808105
						c-0.003906-0.014648-0.008789-0.02832-0.027344-0.041992c-0.014648-0.013672-0.014648-0.013672-0.014648-0.013672
						c-0.033203-0.025391-0.025391-0.072266,0.015625-0.103516l0.041016-0.03125
						c0.037109,0.033203,0.068359,0.06543,0.087891,0.098633c0.021484,0.026367,0.021484,0.026367,0.021484,0.026367
						c0.004883,0.02832,0.009766,0.054688,0.009766,0.058594s0.039063,0.007813,0.087891,0.007813l0,0
						c0-0.074219-0.009766-0.129883-0.02832-0.175781c-0.023438-0.046875-0.032227-0.05957-0.032227-0.05957
						c-0.033203-0.039063-0.023438-0.09375,0.020508-0.121094l0.03125-0.019531
						c0.041992,0.037109,0.069336,0.078125,0.092773,0.120117c0.022461,0.041992,0.022461,0.041992,0.022461,0.041992
						c0.009766,0.047852,0.021484,0.115234,0.025391,0.149414C26.009766,34.891602,26.032227,34.954102,26.056641,34.996094z
						 M27.557617,35.430664c0,0.03125-0.041992,0.058594-0.092773,0.058594h-1.920898
						c-0.05127,0-0.093262-0.026367-0.093262-0.058594s0.041992-0.057617,0.093262-0.057617h1.920898
						C27.515625,35.373047,27.557617,35.398438,27.557617,35.430664z M26.396484,35.048828c0,0-0.111328-0.351563-0.22168-0.458008
						c0,0-0.097656-0.115234,0.110352-0.032227c0,0,0.106445,0.051758,0.176758,0.259766c0,0,0.008789-0.379883,0.236328-0.443359
						c0,0,0.166992-0.06543,0.060547,0.037109c0,0-0.133789,0.142578-0.138672,0.317383c0,0,0.074219-0.09668,0.25-0.125
						c0,0,0.143555-0.035156,0,0.06543l-0.206055,0.22168c-0.03418,0.038086-0.067383,0.088867-0.070313,0.113281
						c-0.003906,0.024414-0.042969,0.066406-0.086914,0.092773C26.506836,35.097656,26.503906,35.099609,26.396484,35.048828z
						 M26.955078,34.996094c0.024414-0.041992,0.047852-0.118164,0.053711-0.168945l0.003906-0.032227
						c0.004883-0.046875,0.018555-0.087891,0.041992-0.129883s0.030273-0.049805,0.030273-0.049805
						c0.03418-0.039063,0.09668-0.047852,0.141602-0.020508l0.030273,0.020508
						c-0.045898,0.036133-0.074219,0.077148-0.091797,0.124023c-0.018555,0.045898-0.021484,0.086914-0.021484,0.086914
						c-0.003906,0.051758,0.032227,0.09375,0.082031,0.09375l0,0c0.004883-0.038086,0.018555-0.074219,0.036133-0.102539
						c0.019531-0.032227,0.019531-0.032227,0.019531-0.032227c0.036133-0.03125,0.097656-0.030273,0.138672,0.000977
						l0.041992,0.03125c-0.038086,0.023438-0.060547,0.041992-0.075195,0.055664
						c-0.018555,0.018555-0.018555,0.018555-0.018555,0.018555c-0.004883,0.015625,0.033203,0.02832,0.083984,0.02832h0.714844
						c0.050781,0,0.092773,0.03418,0.092773,0.076172c0,0.041016-0.041992,0.075195-0.092773,0.075195h-1.163086
						C26.953125,35.071289,26.929688,35.037109,26.955078,34.996094z"/>
				</g>
			</g>
		</g>
	</g>
</g>
<g id="marsh_x5F_bd_13_" style="&st0;">
	<g id="Marsh_x5F_FC_15_">
		<g>
			<g>
				<g>
					<path style="&st1;" d="M28.724609,32.724609c0.025391,0.041016,0.001953,0.075195-0.048828,0.075195h-1.163086
						c-0.050781,0-0.092773-0.03418-0.092773-0.075195c0-0.041992,0.041992-0.076172,0.092773-0.076172h0.807617
						c-0.003906-0.014648-0.008789-0.02832-0.027344-0.041992c-0.014648-0.013672-0.014648-0.013672-0.014648-0.013672
						c-0.033203-0.025391-0.025391-0.072266,0.015625-0.103516l0.041016-0.03125
						c0.037109,0.033203,0.068359,0.06543,0.087891,0.098633c0.021484,0.026367,0.021484,0.026367,0.021484,0.026367
						c0.004883,0.02832,0.009766,0.054688,0.009766,0.058594s0.039063,0.007813,0.087891,0.007813l0,0
						c0-0.074219-0.009766-0.129883-0.02832-0.175781c-0.023438-0.046875-0.032227-0.05957-0.032227-0.05957
						c-0.033203-0.039063-0.023438-0.09375,0.020508-0.121094l0.03125-0.019531
						c0.041992,0.037109,0.069336,0.078125,0.092773,0.120117c0.022461,0.041992,0.022461,0.041992,0.022461,0.041992
						c0.009766,0.047852,0.021484,0.115234,0.025391,0.149414C28.677734,32.620117,28.700195,32.682617,28.724609,32.724609z
						 M30.225586,33.15918c0,0.03125-0.041992,0.058594-0.092773,0.058594h-1.920898c-0.051758,0-0.09375-0.026367-0.09375-0.058594
						s0.041992-0.057617,0.09375-0.057617h1.920898C30.183594,33.101563,30.225586,33.126953,30.225586,33.15918z
						 M29.064453,32.777344c0,0-0.111328-0.351563-0.22168-0.458008c0,0-0.097656-0.115234,0.110352-0.032227
						c0,0,0.106445,0.051758,0.176758,0.259766c0,0,0.008789-0.379883,0.236328-0.443359c0,0,0.166992-0.06543,0.060547,0.037109
						c0,0-0.133789,0.142578-0.138672,0.317383c0,0,0.074219-0.09668,0.25-0.125c0,0,0.143555-0.035156,0,0.06543l-0.206055,0.22168
						c-0.03418,0.038086-0.067383,0.088867-0.070313,0.113281c-0.003906,0.024414-0.042969,0.066406-0.086914,0.092773
						C29.174805,32.826172,29.171875,32.828125,29.064453,32.777344z M29.623047,32.724609
						c0.024414-0.041992,0.047852-0.118164,0.053711-0.168945l0.003906-0.032227
						c0.004883-0.046875,0.018555-0.087891,0.041992-0.129883s0.030273-0.049805,0.030273-0.049805
						c0.03418-0.039063,0.09668-0.047852,0.141602-0.020508l0.030273,0.020508
						c-0.045898,0.036133-0.074219,0.077148-0.091797,0.124023c-0.018555,0.045898-0.021484,0.086914-0.021484,0.086914
						c-0.003906,0.051758,0.032227,0.09375,0.082031,0.09375l0,0c0.004883-0.038086,0.018555-0.074219,0.036133-0.102539
						c0.019531-0.032227,0.019531-0.032227,0.019531-0.032227c0.036133-0.03125,0.097656-0.030273,0.138672,0.000977
						l0.041992,0.03125c-0.038086,0.023438-0.060547,0.041992-0.075195,0.055664
						c-0.018555,0.018555-0.018555,0.018555-0.018555,0.018555c-0.004883,0.015625,0.033203,0.02832,0.083984,0.02832h0.714844
						c0.050781,0,0.092773,0.03418,0.092773,0.076172c0,0.041016-0.041992,0.075195-0.092773,0.075195h-1.163086
						C29.621094,32.799805,29.597656,32.765625,29.623047,32.724609z"/>
				</g>
			</g>
		</g>
	</g>
</g>
<g id="marsh_x5F_bd_12_" style="&st0;">
	<g id="Marsh_x5F_FC_14_">
		<g>
			<g>
				<g>
					<path style="&st1;" d="M24.30127,31.960938c0.025391,0.041016,0.002441,0.075195-0.048828,0.075195h-1.163574
						c-0.050781,0-0.092773-0.03418-0.092773-0.075195c0-0.041992,0.041992-0.076172,0.092773-0.076172h0.808594
						c-0.003906-0.014648-0.008789-0.02832-0.027832-0.041992c-0.01416-0.013672-0.01416-0.013672-0.01416-0.013672
						c-0.033203-0.025391-0.025879-0.072266,0.015137-0.103516l0.041016-0.03125
						c0.037109,0.033203,0.068848,0.06543,0.087891,0.098633c0.021973,0.026367,0.021973,0.026367,0.021973,0.026367
						c0.004883,0.02832,0.009766,0.054688,0.009766,0.058594s0.039063,0.007813,0.087402,0.007813l0,0
						c0-0.074219-0.009277-0.129883-0.02832-0.175781c-0.022949-0.046875-0.031738-0.05957-0.031738-0.05957
						c-0.033203-0.039063-0.023926-0.09375,0.02002-0.121094l0.031738-0.019531
						c0.041992,0.037109,0.069336,0.078125,0.092285,0.120117s0.022949,0.041992,0.022949,0.041992
						c0.009766,0.047852,0.020996,0.115234,0.024902,0.149414C24.254395,31.856445,24.277344,31.918945,24.30127,31.960938z
						 M25.802734,32.395508c0,0.03125-0.041992,0.058594-0.092773,0.058594h-1.921387
						c-0.05127,0-0.093262-0.026367-0.093262-0.058594s0.041992-0.057617,0.093262-0.057617h1.921387
						C25.760742,32.337891,25.802734,32.363281,25.802734,32.395508z M24.641602,32.013672c0,0-0.111328-0.351563-0.222168-0.458008
						c0,0-0.097168-0.115234,0.11084-0.032227c0,0,0.106445,0.051758,0.17627,0.259766c0,0,0.008789-0.379883,0.23584-0.443359
						c0,0,0.166992-0.06543,0.061035,0.037109c0,0-0.133789,0.142578-0.13916,0.317383c0,0,0.074219-0.09668,0.25-0.125
						c0,0,0.144043-0.035156,0,0.06543l-0.205566,0.22168c-0.03418,0.038086-0.067383,0.088867-0.070313,0.113281
						c-0.003906,0.024414-0.042969,0.066406-0.086914,0.092773C24.751465,32.0625,24.748535,32.064453,24.641602,32.013672z
						 M25.199707,31.960938c0.023926-0.041992,0.047852-0.118164,0.053711-0.168945l0.003906-0.032227
						c0.004395-0.046875,0.018066-0.087891,0.041992-0.129883c0.022949-0.041992,0.030273-0.049805,0.030273-0.049805
						c0.033691-0.039063,0.09668-0.047852,0.141113-0.020508l0.03125,0.020508
						c-0.046387,0.036133-0.074707,0.077148-0.092285,0.124023c-0.019043,0.045898-0.021973,0.086914-0.021973,0.086914
						c-0.003418,0.051758,0.032715,0.09375,0.082031,0.09375l0,0c0.004883-0.038086,0.018555-0.074219,0.037109-0.102539
						C25.525391,31.75,25.525391,31.75,25.525391,31.75c0.036133-0.03125,0.098633-0.030273,0.139648,0.000977l0.041992,0.03125
						c-0.038086,0.023438-0.061523,0.041992-0.075195,0.055664c-0.019531,0.018555-0.019531,0.018555-0.019531,0.018555
						c-0.004883,0.015625,0.033203,0.02832,0.083984,0.02832h0.71582c0.050781,0,0.092773,0.03418,0.092773,0.076172
						c0,0.041016-0.041992,0.075195-0.092773,0.075195h-1.163574C25.197266,32.036133,25.174316,32.001953,25.199707,31.960938z"/>
				</g>
			</g>
		</g>
	</g>
</g>
<g id="marsh_x5F_bd_27_" style="&st0;">
	<g id="Marsh_x5F_FC_29_">
		<g>
			<g>
				<g>
					<path style="&st1;" d="M5.66748,26.314453c0.025391,0.041016,0.002441,0.075195-0.048828,0.075195H4.455078
						c-0.050781,0-0.092773-0.03418-0.092773-0.075195c0-0.041992,0.041992-0.076172,0.092773-0.076172h0.808594
						c-0.003906-0.014648-0.008789-0.02832-0.027832-0.041992c-0.01416-0.013672-0.01416-0.013672-0.01416-0.013672
						c-0.033203-0.025391-0.025879-0.072266,0.015137-0.103516l0.041016-0.03125
						c0.037109,0.033203,0.068848,0.06543,0.087891,0.098633c0.021973,0.026367,0.021973,0.026367,0.021973,0.026367
						c0.004883,0.02832,0.009766,0.054688,0.009766,0.058594s0.039063,0.007813,0.087402,0.007813l0,0
						c0-0.074219-0.009277-0.129883-0.02832-0.175781c-0.022949-0.046875-0.031738-0.05957-0.031738-0.05957
						c-0.033203-0.039063-0.023926-0.09375,0.02002-0.121094l0.031738-0.019531
						c0.041992,0.037109,0.069336,0.078125,0.092285,0.120117s0.022949,0.041992,0.022949,0.041992
						c0.009766,0.047852,0.020996,0.115234,0.024902,0.149414C5.620605,26.209961,5.643555,26.272461,5.66748,26.314453z
						 M7.168457,26.749023c0,0.03125-0.041992,0.058594-0.092773,0.058594H5.154785c-0.05127,0-0.093262-0.026367-0.093262-0.058594
						s0.041992-0.057617,0.093262-0.057617h1.920898C7.126465,26.691406,7.168457,26.716797,7.168457,26.749023z
						 M6.007813,26.367188c0,0-0.111328-0.351563-0.222168-0.458008c0,0-0.097168-0.115234,0.11084-0.032227
						c0,0,0.106445,0.051758,0.17627,0.259766c0,0,0.008789-0.379883,0.23584-0.443359c0,0,0.166992-0.06543,0.061035,0.037109
						c0,0-0.133789,0.142578-0.13916,0.317383c0,0,0.074219-0.09668,0.25-0.125c0,0,0.144043-0.035156,0,0.06543l-0.205566,0.22168
						c-0.03418,0.038086-0.067383,0.088867-0.070313,0.113281c-0.003906,0.024414-0.042969,0.066406-0.086914,0.092773
						C6.117676,26.416016,6.114746,26.417969,6.007813,26.367188z M6.565918,26.314453
						c0.023926-0.041992,0.047852-0.118164,0.053711-0.168945l0.003906-0.032227
						c0.004395-0.046875,0.018066-0.087891,0.041992-0.129883c0.022949-0.041992,0.030273-0.049805,0.030273-0.049805
						c0.033691-0.039063,0.09668-0.047852,0.141113-0.020508l0.030762,0.020508
						c-0.045898,0.036133-0.074219,0.077148-0.091797,0.124023c-0.019043,0.045898-0.021973,0.086914-0.021973,0.086914
						c-0.003418,0.051758,0.032715,0.09375,0.082031,0.09375l0,0c0.004883-0.038086,0.018555-0.074219,0.036621-0.102539
						c0.019043-0.032227,0.019043-0.032227,0.019043-0.032227c0.036133-0.03125,0.098145-0.030273,0.13916,0.000977
						l0.041992,0.03125c-0.038086,0.023438-0.061035,0.041992-0.075195,0.055664
						c-0.019043,0.018555-0.019043,0.018555-0.019043,0.018555c-0.004883,0.015625,0.033203,0.02832,0.083984,0.02832h0.71582
						c0.050781,0,0.092773,0.03418,0.092773,0.076172c0,0.041016-0.041992,0.075195-0.092773,0.075195H6.614746
						C6.563477,26.389648,6.540527,26.355469,6.565918,26.314453z"/>
				</g>
			</g>
		</g>
	</g>
</g>
<g id="marsh_x5F_bd_28_" style="&st0;">
	<g id="Marsh_x5F_FC_30_">
		<g>
			<g>
				<g>
					<path style="&st1;" d="M8.336426,24.04248c0.025391,0.041016,0.002441,0.075195-0.048828,0.075195H7.124023
						c-0.050781,0-0.092773-0.03418-0.092773-0.075195c0-0.041992,0.041992-0.076172,0.092773-0.076172h0.808594
						c-0.003906-0.014648-0.008789-0.02832-0.027832-0.041992c-0.01416-0.013672-0.01416-0.013672-0.01416-0.013672
						c-0.033203-0.025391-0.025879-0.072266,0.015137-0.103516l0.041016-0.03125
						c0.037109,0.033203,0.068848,0.06543,0.087891,0.098633c0.021973,0.026367,0.021973,0.026367,0.021973,0.026367
						c0.004883,0.02832,0.009766,0.054688,0.009766,0.058594s0.039063,0.007813,0.087402,0.007813l0,0
						c0-0.074219-0.009277-0.129883-0.02832-0.175781c-0.022949-0.046875-0.031738-0.05957-0.031738-0.05957
						c-0.033203-0.039063-0.023926-0.09375,0.02002-0.121094l0.031738-0.019531
						c0.041992,0.037109,0.069336,0.078125,0.092285,0.120117s0.022949,0.041992,0.022949,0.041992
						c0.009766,0.047852,0.020996,0.115234,0.024902,0.149414C8.289551,23.937988,8.3125,24.000488,8.336426,24.04248z
						 M9.837402,24.477051c0,0.03125-0.041992,0.058594-0.092773,0.058594H7.82373c-0.05127,0-0.093262-0.026367-0.093262-0.058594
						s0.041992-0.057617,0.093262-0.057617h1.920898C9.79541,24.419434,9.837402,24.444824,9.837402,24.477051z M8.676758,24.095215
						c0,0-0.111328-0.351563-0.222168-0.458008c0,0-0.097168-0.115234,0.11084-0.032227c0,0,0.106445,0.051758,0.17627,0.259766
						c0,0,0.008789-0.379883,0.23584-0.443359c0,0,0.166992-0.06543,0.061035,0.037109c0,0-0.133789,0.142578-0.13916,0.317383
						c0,0,0.074219-0.09668,0.25-0.125c0,0,0.144043-0.035156,0,0.06543l-0.205566,0.22168
						c-0.03418,0.038086-0.067383,0.088867-0.070313,0.113281c-0.003906,0.024414-0.042969,0.066406-0.086914,0.092773
						C8.786621,24.144043,8.783691,24.145996,8.676758,24.095215z M9.234863,24.04248
						c0.023926-0.041992,0.047852-0.118164,0.053711-0.168945l0.003906-0.032227
						c0.004395-0.046875,0.018066-0.087891,0.041992-0.129883c0.022949-0.041992,0.030273-0.049805,0.030273-0.049805
						c0.033691-0.039063,0.09668-0.047852,0.141113-0.020508l0.030762,0.020508
						c-0.045898,0.036133-0.074219,0.077148-0.091797,0.124023c-0.019043,0.045898-0.021973,0.086914-0.021973,0.086914
						c-0.003418,0.051758,0.032715,0.09375,0.082031,0.09375l0,0c0.004883-0.038086,0.018555-0.074219,0.036621-0.102539
						c0.019043-0.032227,0.019043-0.032227,0.019043-0.032227c0.036133-0.03125,0.098145-0.030273,0.13916,0.000977
						l0.041992,0.03125c-0.038086,0.023438-0.061035,0.041992-0.075195,0.055664
						c-0.019043,0.018555-0.019043,0.018555-0.019043,0.018555c-0.004883,0.015625,0.033203,0.02832,0.083984,0.02832h0.71582
						c0.050781,0,0.092773,0.03418,0.092773,0.076172c0,0.041016-0.041992,0.075195-0.092773,0.075195H9.283691
						C9.232422,24.117676,9.209473,24.083496,9.234863,24.04248z"/>
				</g>
			</g>
		</g>
	</g>
</g>
<g id="marsh_x5F_bd_29_" style="&st0;">
	<g id="Marsh_x5F_FC_31_">
		<g>
			<g>
				<g>
					<path style="&st1;" d="M3.912598,23.278809c0.025391,0.041016,0.002441,0.075195-0.048828,0.075195H2.700195
						c-0.050781,0-0.092773-0.03418-0.092773-0.075195c0-0.041992,0.041992-0.076172,0.092773-0.076172h0.808594
						C3.504883,23.187988,3.5,23.174316,3.480957,23.160645c-0.01416-0.013672-0.01416-0.013672-0.01416-0.013672
						c-0.033203-0.025391-0.025879-0.072266,0.015137-0.103516l0.041016-0.03125
						c0.037109,0.033203,0.068848,0.06543,0.087891,0.098633c0.021973,0.026367,0.021973,0.026367,0.021973,0.026367
						c0.004883,0.02832,0.009766,0.054688,0.009766,0.058594s0.039063,0.007813,0.087402,0.007813l0,0
						c0-0.074219-0.009277-0.129883-0.02832-0.175781c-0.022949-0.046875-0.031738-0.05957-0.031738-0.05957
						c-0.033203-0.039063-0.023926-0.09375,0.02002-0.121094l0.031738-0.019531
						c0.041992,0.037109,0.069336,0.078125,0.092285,0.120117s0.022949,0.041992,0.022949,0.041992
						C3.84668,23.037598,3.85791,23.10498,3.861816,23.13916C3.865723,23.174316,3.888672,23.236816,3.912598,23.278809z
						 M5.413574,23.713379c0,0.03125-0.041992,0.058594-0.092773,0.058594H3.399902c-0.05127,0-0.093262-0.026367-0.093262-0.058594
						s0.041992-0.057617,0.093262-0.057617h1.920898C5.371582,23.655762,5.413574,23.681152,5.413574,23.713379z M4.25293,23.331543
						c0,0-0.111328-0.351563-0.222168-0.458008c0,0-0.097168-0.115234,0.11084-0.032227c0,0,0.106445,0.051758,0.17627,0.259766
						c0,0,0.008789-0.379883,0.23584-0.443359c0,0,0.166992-0.06543,0.061035,0.037109c0,0-0.133789,0.142578-0.13916,0.317383
						c0,0,0.074219-0.09668,0.25-0.125c0,0,0.144043-0.035156,0,0.06543l-0.205566,0.22168
						c-0.03418,0.038086-0.067383,0.088867-0.070313,0.113281c-0.003906,0.024414-0.042969,0.066406-0.086914,0.092773
						C4.362793,23.380371,4.359863,23.382324,4.25293,23.331543z M4.811035,23.278809
						c0.023926-0.041992,0.047852-0.118164,0.053711-0.168945l0.003906-0.032227
						c0.004395-0.046875,0.018066-0.087891,0.041992-0.129883c0.022949-0.041992,0.030273-0.049805,0.030273-0.049805
						c0.033691-0.039063,0.09668-0.047852,0.141113-0.020508l0.030762,0.020508
						c-0.045898,0.036133-0.074219,0.077148-0.091797,0.124023c-0.019043,0.045898-0.021973,0.086914-0.021973,0.086914
						c-0.003418,0.051758,0.032715,0.09375,0.082031,0.09375l0,0c0.004883-0.038086,0.018555-0.074219,0.036621-0.102539
						c0.019043-0.032227,0.019043-0.032227,0.019043-0.032227c0.036133-0.03125,0.098145-0.030273,0.13916,0.000977
						l0.041992,0.03125c-0.038086,0.023438-0.061035,0.041992-0.075195,0.055664
						c-0.019043,0.018555-0.019043,0.018555-0.019043,0.018555c-0.004883,0.015625,0.033203,0.02832,0.083984,0.02832h0.71582
						c0.050781,0,0.092773,0.03418,0.092773,0.076172c0,0.041016-0.041992,0.075195-0.092773,0.075195H4.859863
						C4.808594,23.354004,4.785645,23.319824,4.811035,23.278809z"/>
				</g>
			</g>
		</g>
	</g>
</g>
<g id="marsh_x5F_bd_30_" style="&st0;">
	<g id="Marsh_x5F_FC_32_">
		<g>
			<g>
				<g>
					<path style="&st1;" d="M10.060059,15.903809c0.025391,0.041016,0.002441,0.075195-0.048828,0.075195H8.847656
						c-0.050781,0-0.092773-0.03418-0.092773-0.075195c0-0.041992,0.041992-0.076172,0.092773-0.076172H9.65625
						c-0.003906-0.014648-0.008789-0.02832-0.027832-0.041992c-0.01416-0.013672-0.01416-0.013672-0.01416-0.013672
						c-0.033203-0.025391-0.025879-0.072266,0.015137-0.103516l0.041016-0.03125
						c0.037109,0.033203,0.068848,0.06543,0.087891,0.098633c0.021973,0.026367,0.021973,0.026367,0.021973,0.026367
						c0.004883,0.02832,0.009766,0.054688,0.009766,0.058594s0.039063,0.007813,0.087402,0.007813l0,0
						c0-0.074219-0.009277-0.129883-0.02832-0.175781c-0.022949-0.046875-0.031738-0.05957-0.031738-0.05957
						c-0.033203-0.039063-0.023926-0.09375,0.02002-0.121094l0.031738-0.019531
						c0.041992,0.037109,0.069336,0.078125,0.092285,0.120117s0.022949,0.041992,0.022949,0.041992
						c0.009766,0.047852,0.020996,0.115234,0.024902,0.149414C10.013184,15.799316,10.036133,15.861816,10.060059,15.903809z
						 M11.561035,16.338379c0,0.03125-0.041992,0.058594-0.092773,0.058594H9.547363
						c-0.05127,0-0.093262-0.026367-0.093262-0.058594s0.041992-0.057617,0.093262-0.057617h1.920898
						C11.519043,16.280762,11.561035,16.306152,11.561035,16.338379z M10.400391,15.956543c0,0-0.111328-0.351563-0.222168-0.458008
						c0,0-0.097168-0.115234,0.11084-0.032227c0,0,0.106445,0.051758,0.17627,0.259766c0,0,0.008789-0.379883,0.23584-0.443359
						c0,0,0.166992-0.06543,0.061035,0.037109c0,0-0.133789,0.142578-0.13916,0.317383c0,0,0.074219-0.09668,0.25-0.125
						c0,0,0.144043-0.035156,0,0.06543l-0.205566,0.22168c-0.03418,0.038086-0.067383,0.088867-0.070313,0.113281
						c-0.003906,0.024414-0.042969,0.066406-0.086914,0.092773C10.510254,16.005371,10.507324,16.007324,10.400391,15.956543z
						 M10.958496,15.903809c0.023926-0.041992,0.047852-0.118164,0.053711-0.168945l0.003906-0.032227
						c0.004395-0.046875,0.018066-0.087891,0.041992-0.129883c0.022949-0.041992,0.030273-0.049805,0.030273-0.049805
						c0.033691-0.039063,0.09668-0.047852,0.141113-0.020508l0.030762,0.020508
						c-0.045898,0.036133-0.074219,0.077148-0.091797,0.124023c-0.019043,0.045898-0.021973,0.086914-0.021973,0.086914
						c-0.003418,0.051758,0.032715,0.09375,0.082031,0.09375l0,0c0.004883-0.038086,0.018555-0.074219,0.036621-0.102539
						c0.019043-0.032227,0.019043-0.032227,0.019043-0.032227c0.036133-0.03125,0.098145-0.030273,0.13916,0.000977
						l0.041992,0.03125c-0.038086,0.023438-0.061035,0.041992-0.075195,0.055664
						c-0.019043,0.018555-0.019043,0.018555-0.019043,0.018555c-0.004883,0.015625,0.033203,0.02832,0.083984,0.02832h0.71582
						c0.050781,0,0.092773,0.03418,0.092773,0.076172c0,0.041016-0.041992,0.075195-0.092773,0.075195h-1.163574
						C10.956055,15.979004,10.933105,15.944824,10.958496,15.903809z"/>
				</g>
			</g>
		</g>
	</g>
</g>
<g id="marsh_x5F_bd_31_" style="&st0;">
	<g id="Marsh_x5F_FC_33_">
		<g>
			<g>
				<g>
					<path style="&st1;" d="M12.729004,13.632324c0.025391,0.041016,0.002441,0.075195-0.048828,0.075195h-1.163574
						c-0.050781,0-0.092773-0.03418-0.092773-0.075195c0-0.041992,0.041992-0.076172,0.092773-0.076172h0.808594
						c-0.003906-0.014648-0.008789-0.02832-0.027832-0.041992c-0.01416-0.013672-0.01416-0.013672-0.01416-0.013672
						c-0.033203-0.025391-0.025879-0.072266,0.015137-0.103516l0.041016-0.03125
						c0.037109,0.033203,0.068848,0.06543,0.087891,0.098633c0.021973,0.026367,0.021973,0.026367,0.021973,0.026367
						c0.004883,0.02832,0.009766,0.054688,0.009766,0.058594s0.039063,0.007813,0.087402,0.007813l0,0
						c0-0.074219-0.009277-0.129883-0.02832-0.175781c-0.022949-0.046875-0.031738-0.05957-0.031738-0.05957
						c-0.033203-0.039063-0.023926-0.09375,0.02002-0.121094l0.031738-0.019531
						c0.041992,0.037109,0.069336,0.078125,0.092285,0.120117s0.022949,0.041992,0.022949,0.041992
						c0.009766,0.047852,0.020996,0.115234,0.024902,0.149414C12.682129,13.527832,12.705078,13.590332,12.729004,13.632324z
						 M14.22998,14.066895c0,0.03125-0.041992,0.058594-0.092773,0.058594h-1.920898
						c-0.05127,0-0.093262-0.026367-0.093262-0.058594s0.041992-0.057617,0.093262-0.057617h1.920898
						C14.187988,14.009277,14.22998,14.034668,14.22998,14.066895z M13.069336,13.685059c0,0-0.111328-0.351563-0.222168-0.458008
						c0,0-0.097168-0.115234,0.11084-0.032227c0,0,0.106445,0.051758,0.17627,0.259766c0,0,0.008789-0.379883,0.23584-0.443359
						c0,0,0.166992-0.06543,0.061035,0.037109c0,0-0.133789,0.142578-0.13916,0.317383c0,0,0.074219-0.09668,0.25-0.125
						c0,0,0.144043-0.035156,0,0.06543l-0.205566,0.22168c-0.03418,0.038086-0.067383,0.088867-0.070313,0.113281
						c-0.003906,0.024414-0.042969,0.066406-0.086914,0.092773C13.179199,13.733887,13.17627,13.73584,13.069336,13.685059z
						 M13.627441,13.632324c0.023926-0.041992,0.047852-0.118164,0.053711-0.168945l0.003906-0.032227
						c0.004395-0.046875,0.018066-0.087891,0.041992-0.129883c0.022949-0.041992,0.030273-0.049805,0.030273-0.049805
						c0.033691-0.039063,0.09668-0.047852,0.141113-0.020508l0.030762,0.020508
						c-0.045898,0.036133-0.074219,0.077148-0.091797,0.124023c-0.019043,0.045898-0.021973,0.086914-0.021973,0.086914
						c-0.003418,0.051758,0.032715,0.09375,0.082031,0.09375l0,0c0.004883-0.038086,0.018555-0.074219,0.036621-0.102539
						c0.019043-0.032227,0.019043-0.032227,0.019043-0.032227c0.036133-0.03125,0.098145-0.030273,0.13916,0.000977
						l0.041992,0.03125c-0.038086,0.023438-0.061035,0.041992-0.075195,0.055664
						c-0.019043,0.018555-0.019043,0.018555-0.019043,0.018555c-0.004883,0.015625,0.033203,0.02832,0.083984,0.02832h0.71582
						c0.050781,0,0.092773,0.03418,0.092773,0.076172c0,0.041016-0.041992,0.075195-0.092773,0.075195H13.67627
						C13.625,13.70752,13.602051,13.67334,13.627441,13.632324z"/>
				</g>
			</g>
		</g>
	</g>
</g>
<g id="marsh_x5F_bd_32_" style="&st0;">
	<g id="Marsh_x5F_FC_34_">
		<g>
			<g>
				<g>
					<path style="&st1;" d="M8.305176,12.868652c0.025391,0.041016,0.002441,0.075195-0.048828,0.075195H7.092773
						C7.041992,12.943848,7,12.909668,7,12.868652c0-0.041992,0.041992-0.076172,0.092773-0.076172h0.808594
						c-0.003906-0.014648-0.008789-0.02832-0.027832-0.041992c-0.01416-0.013672-0.01416-0.013672-0.01416-0.013672
						c-0.033203-0.025391-0.025879-0.072266,0.015137-0.103516l0.041016-0.03125
						c0.037109,0.033203,0.068848,0.06543,0.087891,0.098633c0.021973,0.026367,0.021973,0.026367,0.021973,0.026367
						c0.004883,0.02832,0.009766,0.054688,0.009766,0.058594s0.039063,0.007813,0.087402,0.007813l0,0
						c0-0.074219-0.009277-0.129883-0.02832-0.175781c-0.022949-0.046875-0.031738-0.05957-0.031738-0.05957
						c-0.033203-0.039063-0.023926-0.09375,0.02002-0.121094l0.031738-0.019531
						c0.041992,0.037109,0.069336,0.078125,0.092285,0.120117s0.022949,0.041992,0.022949,0.041992
						c0.009766,0.047852,0.020996,0.115234,0.024902,0.149414C8.258301,12.76416,8.28125,12.82666,8.305176,12.868652z
						 M9.806152,13.303223c0,0.03125-0.041992,0.058594-0.092773,0.058594H7.79248c-0.05127,0-0.093262-0.026367-0.093262-0.058594
						s0.041992-0.057617,0.093262-0.057617h1.920898C9.76416,13.245605,9.806152,13.270996,9.806152,13.303223z M8.645508,12.921387
						c0,0-0.111328-0.351563-0.222168-0.458008c0,0-0.097168-0.115234,0.11084-0.032227c0,0,0.106445,0.051758,0.17627,0.259766
						c0,0,0.008789-0.379883,0.23584-0.443359c0,0,0.166992-0.06543,0.061035,0.037109c0,0-0.133789,0.142578-0.13916,0.317383
						c0,0,0.074219-0.09668,0.25-0.125c0,0,0.144043-0.035156,0,0.06543l-0.205566,0.22168
						c-0.03418,0.038086-0.067383,0.088867-0.070313,0.113281c-0.003906,0.024414-0.042969,0.066406-0.086914,0.092773
						C8.755371,12.970215,8.752441,12.972168,8.645508,12.921387z M9.203613,12.868652
						c0.023926-0.041992,0.047852-0.118164,0.053711-0.168945L9.26123,12.66748
						c0.004395-0.046875,0.018066-0.087891,0.041992-0.129883c0.022949-0.041992,0.030273-0.049805,0.030273-0.049805
						c0.033691-0.039063,0.09668-0.047852,0.141113-0.020508l0.030762,0.020508
						c-0.045898,0.036133-0.074219,0.077148-0.091797,0.124023c-0.019043,0.045898-0.021973,0.086914-0.021973,0.086914
						c-0.003418,0.051758,0.032715,0.09375,0.082031,0.09375l0,0c0.004883-0.038086,0.018555-0.074219,0.036621-0.102539
						c0.019043-0.032227,0.019043-0.032227,0.019043-0.032227c0.036133-0.03125,0.098145-0.030273,0.13916,0.000977
						l0.041992,0.03125c-0.038086,0.023438-0.061035,0.041992-0.075195,0.055664
						C9.616211,12.76416,9.616211,12.76416,9.616211,12.76416c-0.004883,0.015625,0.033203,0.02832,0.083984,0.02832h0.71582
						c0.050781,0,0.092773,0.03418,0.092773,0.076172c0,0.041016-0.041992,0.075195-0.092773,0.075195H9.252441
						C9.201172,12.943848,9.178223,12.909668,9.203613,12.868652z"/>
				</g>
			</g>
		</g>
	</g>
</g>
<g id="marsh_x5F_bd_5_" style="&st0;">
	<g id="Marsh_x5F_FC_7_">
		<g>
			<g>
				<g>
					<path style="&st1;" d="M25.34375,6.120605c0.025391,0.041016,0.002441,0.075195-0.048828,0.075195h-1.163574
						c-0.050781,0-0.092773-0.03418-0.092773-0.075195c0-0.041992,0.041992-0.076172,0.092773-0.076172h0.808594
						c-0.003906-0.014648-0.008789-0.02832-0.027832-0.041992c-0.01416-0.013672-0.01416-0.013672-0.01416-0.013672
						c-0.033203-0.025391-0.025879-0.072266,0.015137-0.103516l0.041016-0.03125
						c0.037109,0.033203,0.068848,0.06543,0.087891,0.098633c0.021973,0.026367,0.021973,0.026367,0.021973,0.026367
						c0.004883,0.02832,0.009766,0.054688,0.009766,0.058594s0.039063,0.007813,0.087402,0.007813l0,0
						c0-0.074219-0.009277-0.129883-0.02832-0.175781c-0.022949-0.046875-0.031738-0.05957-0.031738-0.05957
						c-0.033203-0.039063-0.023926-0.09375,0.02002-0.121094l0.031738-0.019531
						c0.041992,0.037109,0.069336,0.078125,0.092285,0.120117s0.022949,0.041992,0.022949,0.041992
						c0.009766,0.047852,0.020996,0.115234,0.024902,0.149414C25.296875,6.016113,25.319824,6.078613,25.34375,6.120605z
						 M26.844727,6.555176c0,0.03125-0.041992,0.058594-0.092773,0.058594h-1.920898
						c-0.05127,0-0.093262-0.026367-0.093262-0.058594s0.041992-0.057617,0.093262-0.057617h1.920898
						C26.802734,6.497559,26.844727,6.522949,26.844727,6.555176z M25.683594,6.17334c0,0-0.111328-0.351563-0.22168-0.458008
						c0,0-0.097168-0.115234,0.110352-0.032227c0,0,0.106445,0.051758,0.176758,0.259766c0,0,0.008789-0.379883,0.236328-0.443359
						c0,0,0.166992-0.06543,0.060547,0.037109c0,0-0.133789,0.142578-0.138672,0.317383c0,0,0.074219-0.09668,0.25-0.125
						c0,0,0.143555-0.035156,0,0.06543l-0.206055,0.22168c-0.03418,0.038086-0.067383,0.088867-0.070313,0.113281
						c-0.003906,0.024414-0.042969,0.066406-0.086914,0.092773C25.793945,6.222168,25.791016,6.224121,25.683594,6.17334z
						 M26.242188,6.120605c0.024414-0.041992,0.047852-0.118164,0.053711-0.168945l0.003906-0.032227
						c0.004883-0.046875,0.018555-0.087891,0.041992-0.129883s0.030273-0.049805,0.030273-0.049805
						c0.03418-0.039063,0.09668-0.047852,0.141602-0.020508l0.030273,0.020508
						c-0.045898,0.036133-0.074219,0.077148-0.091797,0.124023c-0.018555,0.045898-0.021484,0.086914-0.021484,0.086914
						c-0.003906,0.051758,0.032227,0.09375,0.082031,0.09375l0,0c0.004883-0.038086,0.018555-0.074219,0.036133-0.102539
						c0.019531-0.032227,0.019531-0.032227,0.019531-0.032227c0.036133-0.03125,0.097656-0.030273,0.138672,0.000977
						l0.041992,0.03125c-0.038086,0.023438-0.060547,0.041992-0.075195,0.055664
						c-0.018555,0.018555-0.018555,0.018555-0.018555,0.018555c-0.004883,0.015625,0.033203,0.02832,0.083984,0.02832h0.714844
						c0.050781,0,0.092773,0.03418,0.092773,0.076172c0,0.041016-0.041992,0.075195-0.092773,0.075195h-1.163086
						C26.240234,6.195801,26.216797,6.161621,26.242188,6.120605z"/>
				</g>
			</g>
		</g>
	</g>
</g>
<g id="marsh_x5F_bd_4_" style="&st0;">
	<g id="Marsh_x5F_FC_6_">
		<g>
			<g>
				<g>
					<path style="&st1;" d="M28.013672,3.849121c0.025391,0.041016,0.001953,0.075195-0.048828,0.075195h-1.163086
						c-0.050781,0-0.092773-0.03418-0.092773-0.075195c0-0.041992,0.041992-0.076172,0.092773-0.076172h0.807617
						c-0.003906-0.014648-0.008789-0.02832-0.027344-0.041992c-0.014648-0.013672-0.014648-0.013672-0.014648-0.013672
						C27.53418,3.691895,27.541992,3.64502,27.583008,3.61377l0.041016-0.03125
						c0.037109,0.033203,0.068359,0.06543,0.087891,0.098633c0.021484,0.026367,0.021484,0.026367,0.021484,0.026367
						c0.004883,0.02832,0.009766,0.054688,0.009766,0.058594s0.039063,0.007813,0.087891,0.007813l0,0
						c0-0.074219-0.009766-0.129883-0.02832-0.175781c-0.023438-0.046875-0.032227-0.05957-0.032227-0.05957
						c-0.033203-0.039063-0.023438-0.09375,0.020508-0.121094l0.03125-0.019531
						c0.041992,0.037109,0.069336,0.078125,0.092773,0.120117C27.9375,3.560059,27.9375,3.560059,27.9375,3.560059
						c0.009766,0.047852,0.021484,0.115234,0.025391,0.149414C27.966797,3.744629,27.989258,3.807129,28.013672,3.849121z
						 M29.514648,4.283691c0,0.03125-0.041992,0.058594-0.092773,0.058594h-1.920898c-0.051758,0-0.09375-0.026367-0.09375-0.058594
						s0.041992-0.057617,0.09375-0.057617h1.920898C29.472656,4.226074,29.514648,4.251465,29.514648,4.283691z M28.353516,3.901855
						c0,0-0.111328-0.351563-0.22168-0.458008c0,0-0.097656-0.115234,0.110352-0.032227c0,0,0.106445,0.051758,0.176758,0.259766
						c0,0,0.008789-0.379883,0.236328-0.443359c0,0,0.166992-0.06543,0.060547,0.037109c0,0-0.133789,0.142578-0.138672,0.317383
						c0,0,0.074219-0.09668,0.25-0.125c0,0,0.143555-0.035156,0,0.06543l-0.206055,0.22168
						c-0.03418,0.038086-0.067383,0.088867-0.070313,0.113281c-0.003906,0.024414-0.042969,0.066406-0.086914,0.092773
						C28.463867,3.950684,28.460938,3.952637,28.353516,3.901855z M28.912109,3.849121
						c0.024414-0.041992,0.047852-0.118164,0.053711-0.168945l0.003906-0.032227
						c0.004883-0.046875,0.018555-0.087891,0.041992-0.129883s0.030273-0.049805,0.030273-0.049805
						c0.03418-0.039063,0.09668-0.047852,0.141602-0.020508l0.030273,0.020508
						c-0.045898,0.036133-0.074219,0.077148-0.091797,0.124023c-0.018555,0.045898-0.021484,0.086914-0.021484,0.086914
						c-0.003906,0.051758,0.032227,0.09375,0.082031,0.09375l0,0C29.1875,3.734863,29.201172,3.69873,29.21875,3.67041
						c0.019531-0.032227,0.019531-0.032227,0.019531-0.032227c0.036133-0.03125,0.097656-0.030273,0.138672,0.000977
						l0.041992,0.03125c-0.038086,0.023438-0.060547,0.041992-0.075195,0.055664
						c-0.018555,0.018555-0.018555,0.018555-0.018555,0.018555c-0.004883,0.015625,0.033203,0.02832,0.083984,0.02832h0.714844
						c0.050781,0,0.092773,0.03418,0.092773,0.076172c0,0.041016-0.041992,0.075195-0.092773,0.075195h-1.163086
						C28.910156,3.924316,28.886719,3.890137,28.912109,3.849121z"/>
				</g>
			</g>
		</g>
	</g>
</g>
<g id="marsh_x5F_bd_3_" style="&st0;">
	<g id="Marsh_x5F_FC_5_">
		<g>
			<g>
				<g>
					<path style="&st1;" d="M23.588867,3.085449c0.025391,0.041016,0.002441,0.075195-0.048828,0.075195h-1.163574
						c-0.050781,0-0.092773-0.03418-0.092773-0.075195c0-0.041992,0.041992-0.076172,0.092773-0.076172h0.808594
						c-0.003906-0.014648-0.008789-0.02832-0.027832-0.041992c-0.01416-0.013672-0.01416-0.013672-0.01416-0.013672
						c-0.033203-0.025391-0.025879-0.072266,0.015137-0.103516l0.041016-0.03125
						c0.037109,0.033203,0.068848,0.06543,0.087891,0.098633c0.021973,0.026367,0.021973,0.026367,0.021973,0.026367
						c0.004883,0.02832,0.009766,0.054688,0.009766,0.058594s0.039063,0.007813,0.087402,0.007813l0,0
						c0-0.074219-0.009277-0.129883-0.02832-0.175781c-0.022949-0.046875-0.031738-0.05957-0.031738-0.05957
						c-0.033203-0.039063-0.023926-0.09375,0.02002-0.121094l0.031738-0.019531
						c0.041992,0.037109,0.069336,0.078125,0.092285,0.120117s0.022949,0.041992,0.022949,0.041992
						c0.009766,0.047852,0.020996,0.115234,0.024902,0.149414C23.541992,2.980957,23.564941,3.043457,23.588867,3.085449z
						 M25.089844,3.52002c0,0.03125-0.041992,0.058594-0.092773,0.058594h-1.920898c-0.05127,0-0.093262-0.026367-0.093262-0.058594
						s0.041992-0.057617,0.093262-0.057617h1.920898C25.047852,3.462402,25.089844,3.487793,25.089844,3.52002z M23.929199,3.138184
						c0,0-0.111328-0.351563-0.222168-0.458008c0,0-0.097168-0.115234,0.11084-0.032227c0,0,0.106445,0.051758,0.17627,0.259766
						c0,0,0.008789-0.379883,0.23584-0.443359c0,0,0.166992-0.06543,0.061035,0.037109c0,0-0.133789,0.142578-0.13916,0.317383
						c0,0,0.074219-0.09668,0.25-0.125c0,0,0.144043-0.035156,0,0.06543l-0.205566,0.22168
						c-0.03418,0.038086-0.067383,0.088867-0.070313,0.113281c-0.003906,0.024414-0.042969,0.066406-0.086914,0.092773
						C24.039063,3.187012,24.036133,3.188965,23.929199,3.138184z M24.487305,3.085449
						c0.023926-0.041992,0.047852-0.118164,0.053711-0.168945l0.003906-0.032227
						c0.004395-0.046875,0.018066-0.087891,0.041992-0.129883c0.022949-0.041992,0.030273-0.049805,0.030273-0.049805
						c0.033691-0.039063,0.09668-0.047852,0.141113-0.020508l0.030762,0.020508
						c-0.045898,0.036133-0.074219,0.077148-0.091797,0.124023c-0.019043,0.045898-0.021973,0.086914-0.021973,0.086914
						c-0.003418,0.051758,0.032715,0.09375,0.082031,0.09375l0,0c0.004883-0.038086,0.018555-0.074219,0.036621-0.102539
						c0.019043-0.032227,0.019043-0.032227,0.019043-0.032227c0.036133-0.03125,0.098145-0.030273,0.13916,0.000977
						l0.041992,0.03125c-0.038086,0.023438-0.061035,0.041992-0.075195,0.055664
						c-0.019043,0.018555-0.019043,0.018555-0.019043,0.018555c-0.004883,0.015625,0.033203,0.02832,0.083984,0.02832h0.715332
						c0.050781,0,0.092773,0.03418,0.092773,0.076172c0,0.041016-0.041992,0.075195-0.092773,0.075195h-1.163086
						C24.484863,3.160645,24.461914,3.126465,24.487305,3.085449z"/>
				</g>
			</g>
		</g>
	</g>
</g>
<g id="marsh_x5F_bd_8_" style="&st0;">
	<g id="Marsh_x5F_FC_10_">
		<g>
			<g>
				<g>
					<path style="&st1;" d="M36.527344,14.16748c0.025391,0.041016,0.001953,0.075195-0.048828,0.075195H35.31543
						c-0.050781,0-0.092773-0.03418-0.092773-0.075195c0-0.041992,0.041992-0.076172,0.092773-0.076172h0.807617
						c-0.003906-0.014648-0.008789-0.02832-0.027344-0.041992c-0.014648-0.013672-0.014648-0.013672-0.014648-0.013672
						c-0.033203-0.025391-0.025391-0.072266,0.015625-0.103516l0.041016-0.03125
						c0.037109,0.033203,0.068359,0.06543,0.087891,0.098633c0.021484,0.026367,0.021484,0.026367,0.021484,0.026367
						c0.004883,0.02832,0.009766,0.054688,0.009766,0.058594s0.039063,0.007813,0.087891,0.007813l0,0
						c0-0.074219-0.009766-0.129883-0.02832-0.175781c-0.023438-0.046875-0.032227-0.05957-0.032227-0.05957
						c-0.033203-0.039063-0.023438-0.09375,0.020508-0.121094l0.03125-0.019531
						c0.041992,0.037109,0.069336,0.078125,0.092773,0.120117c0.022461,0.041992,0.022461,0.041992,0.022461,0.041992
						c0.009766,0.047852,0.021484,0.115234,0.025391,0.149414C36.480469,14.062988,36.50293,14.125488,36.527344,14.16748z
						 M38.02832,14.602051c0,0.03125-0.041992,0.058594-0.092773,0.058594h-1.920898c-0.051758,0-0.09375-0.026367-0.09375-0.058594
						s0.041992-0.057617,0.09375-0.057617h1.920898C37.986328,14.544434,38.02832,14.569824,38.02832,14.602051z
						 M36.867188,14.220215c0,0-0.111328-0.351563-0.22168-0.458008c0,0-0.097656-0.115234,0.110352-0.032227
						c0,0,0.106445,0.051758,0.176758,0.259766c0,0,0.008789-0.379883,0.236328-0.443359c0,0,0.166992-0.06543,0.060547,0.037109
						c0,0-0.133789,0.142578-0.138672,0.317383c0,0,0.074219-0.09668,0.25-0.125c0,0,0.143555-0.035156,0,0.06543l-0.206055,0.22168
						c-0.03418,0.038086-0.067383,0.088867-0.070313,0.113281c-0.003906,0.024414-0.042969,0.066406-0.086914,0.092773
						C36.977539,14.269043,36.974609,14.270996,36.867188,14.220215z M37.425781,14.16748
						c0.024414-0.041992,0.047852-0.118164,0.053711-0.168945l0.003906-0.032227
						c0.004883-0.046875,0.018555-0.087891,0.041992-0.129883s0.030273-0.049805,0.030273-0.049805
						c0.03418-0.039063,0.09668-0.047852,0.141602-0.020508l0.030273,0.020508
						c-0.045898,0.036133-0.074219,0.077148-0.091797,0.124023c-0.018555,0.045898-0.021484,0.086914-0.021484,0.086914
						c-0.003906,0.051758,0.032227,0.09375,0.082031,0.09375l0,0c0.004883-0.038086,0.018555-0.074219,0.036133-0.102539
						c0.019531-0.032227,0.019531-0.032227,0.019531-0.032227c0.036133-0.03125,0.097656-0.030273,0.138672,0.000977
						l0.041992,0.03125c-0.038086,0.023438-0.060547,0.041992-0.075195,0.055664
						c-0.018555,0.018555-0.018555,0.018555-0.018555,0.018555c-0.004883,0.015625,0.033203,0.02832,0.083984,0.02832h0.714844
						c0.050781,0,0.092773,0.03418,0.092773,0.076172c0,0.041016-0.041992,0.075195-0.092773,0.075195h-1.163086
						C37.423828,14.242676,37.400391,14.208496,37.425781,14.16748z"/>
				</g>
			</g>
		</g>
	</g>
</g>
<g id="marsh_x5F_bd_7_" style="&st0;">
	<g id="Marsh_x5F_FC_9_">
		<g>
			<g>
				<g>
					<path style="&st1;" d="M39.195313,11.895996c0.025391,0.041016,0.001953,0.075195-0.048828,0.075195h-1.163086
						c-0.050781,0-0.092773-0.03418-0.092773-0.075195c0-0.041992,0.041992-0.076172,0.092773-0.076172h0.807617
						c-0.003906-0.014648-0.008789-0.02832-0.027344-0.041992c-0.014648-0.013672-0.014648-0.013672-0.014648-0.013672
						c-0.033203-0.025391-0.025391-0.072266,0.015625-0.103516l0.041016-0.03125
						c0.037109,0.033203,0.068359,0.06543,0.087891,0.098633c0.021484,0.026367,0.021484,0.026367,0.021484,0.026367
						c0.004883,0.02832,0.009766,0.054688,0.009766,0.058594s0.039063,0.007813,0.087891,0.007813l0,0
						c0-0.074219-0.009766-0.129883-0.02832-0.175781c-0.023438-0.046875-0.032227-0.05957-0.032227-0.05957
						c-0.033203-0.039063-0.023438-0.09375,0.020508-0.121094l0.03125-0.019531
						c0.041992,0.037109,0.069336,0.078125,0.092773,0.120117c0.022461,0.041992,0.022461,0.041992,0.022461,0.041992
						c0.009766,0.047852,0.021484,0.115234,0.025391,0.149414C39.148438,11.791504,39.170898,11.854004,39.195313,11.895996z
						 M40.696289,12.330566c0,0.03125-0.041992,0.058594-0.092773,0.058594h-1.920898
						c-0.051758,0-0.09375-0.026367-0.09375-0.058594s0.041992-0.057617,0.09375-0.057617h1.920898
						C40.654297,12.272949,40.696289,12.29834,40.696289,12.330566z M39.535156,11.94873c0,0-0.111328-0.351563-0.22168-0.458008
						c0,0-0.097656-0.115234,0.110352-0.032227c0,0,0.106445,0.051758,0.176758,0.259766c0,0,0.008789-0.379883,0.236328-0.443359
						c0,0,0.166992-0.06543,0.060547,0.037109c0,0-0.133789,0.142578-0.138672,0.317383c0,0,0.074219-0.09668,0.25-0.125
						c0,0,0.143555-0.035156,0,0.06543l-0.206055,0.22168c-0.03418,0.038086-0.067383,0.088867-0.070313,0.113281
						c-0.003906,0.024414-0.042969,0.066406-0.086914,0.092773C39.645508,11.997559,39.642578,11.999512,39.535156,11.94873z
						 M40.09375,11.895996c0.024414-0.041992,0.047852-0.118164,0.053711-0.168945l0.003906-0.032227
						c0.004883-0.046875,0.018555-0.087891,0.041992-0.129883s0.030273-0.049805,0.030273-0.049805
						c0.03418-0.039063,0.09668-0.047852,0.141602-0.020508l0.030273,0.020508
						c-0.045898,0.036133-0.074219,0.077148-0.091797,0.124023c-0.018555,0.045898-0.021484,0.086914-0.021484,0.086914
						c-0.003906,0.051758,0.032227,0.09375,0.082031,0.09375l0,0c0.004883-0.038086,0.018555-0.074219,0.036133-0.102539
						c0.019531-0.032227,0.019531-0.032227,0.019531-0.032227c0.036133-0.03125,0.097656-0.030273,0.138672,0.000977
						l0.041992,0.03125c-0.038086,0.023438-0.060547,0.041992-0.075195,0.055664
						c-0.018555,0.018555-0.018555,0.018555-0.018555,0.018555c-0.004883,0.015625,0.033203,0.02832,0.083984,0.02832h0.714844
						c0.050781,0,0.092773,0.03418,0.092773,0.076172c0,0.041016-0.041992,0.075195-0.092773,0.075195h-1.163086
						C40.091797,11.971191,40.068359,11.937012,40.09375,11.895996z"/>
				</g>
			</g>
		</g>
	</g>
</g>
<g id="marsh_x5F_bd_6_" style="&st0;">
	<g id="Marsh_x5F_FC_8_">
		<g>
			<g>
				<g>
					<path style="&st1;" d="M34.771484,11.132324c0.025391,0.041016,0.001953,0.075195-0.048828,0.075195H33.55957
						c-0.050781,0-0.092773-0.03418-0.092773-0.075195c0-0.041992,0.041992-0.076172,0.092773-0.076172h0.807617
						c-0.003906-0.014648-0.008789-0.02832-0.027344-0.041992c-0.014648-0.013672-0.014648-0.013672-0.014648-0.013672
						c-0.033203-0.025391-0.025391-0.072266,0.015625-0.103516l0.041016-0.03125
						c0.037109,0.033203,0.068359,0.06543,0.087891,0.098633c0.021484,0.026367,0.021484,0.026367,0.021484,0.026367
						c0.004883,0.02832,0.009766,0.054688,0.009766,0.058594s0.039063,0.007813,0.087891,0.007813l0,0
						c0-0.074219-0.009766-0.129883-0.02832-0.175781c-0.023438-0.046875-0.032227-0.05957-0.032227-0.05957
						c-0.033203-0.039063-0.023438-0.09375,0.020508-0.121094l0.03125-0.019531
						c0.041992,0.037109,0.069336,0.078125,0.092773,0.120117c0.022461,0.041992,0.022461,0.041992,0.022461,0.041992
						c0.009766,0.047852,0.021484,0.115234,0.025391,0.149414C34.724609,11.027832,34.74707,11.090332,34.771484,11.132324z
						 M36.272461,11.566895c0,0.03125-0.041992,0.058594-0.092773,0.058594h-1.920898
						c-0.051758,0-0.09375-0.026367-0.09375-0.058594s0.041992-0.057617,0.09375-0.057617h1.920898
						C36.230469,11.509277,36.272461,11.534668,36.272461,11.566895z M35.111328,11.185059c0,0-0.111328-0.351563-0.22168-0.458008
						c0,0-0.097656-0.115234,0.110352-0.032227c0,0,0.106445,0.051758,0.176758,0.259766c0,0,0.008789-0.379883,0.236328-0.443359
						c0,0,0.166992-0.06543,0.060547,0.037109c0,0-0.133789,0.142578-0.138672,0.317383c0,0,0.074219-0.09668,0.25-0.125
						c0,0,0.143555-0.035156,0,0.06543l-0.206055,0.22168c-0.03418,0.038086-0.067383,0.088867-0.070313,0.113281
						c-0.003906,0.024414-0.042969,0.066406-0.086914,0.092773C35.22168,11.233887,35.21875,11.23584,35.111328,11.185059z
						 M35.669922,11.132324c0.024414-0.041992,0.047852-0.118164,0.053711-0.168945l0.003906-0.032227
						c0.004883-0.046875,0.018555-0.087891,0.041992-0.129883s0.030273-0.049805,0.030273-0.049805
						c0.03418-0.039063,0.09668-0.047852,0.141602-0.020508l0.030273,0.020508
						c-0.045898,0.036133-0.074219,0.077148-0.091797,0.124023c-0.018555,0.045898-0.021484,0.086914-0.021484,0.086914
						c-0.003906,0.051758,0.032227,0.09375,0.082031,0.09375l0,0c0.004883-0.038086,0.018555-0.074219,0.036133-0.102539
						c0.019531-0.032227,0.019531-0.032227,0.019531-0.032227c0.036133-0.03125,0.097656-0.030273,0.138672,0.000977
						l0.041992,0.03125c-0.038086,0.023438-0.060547,0.041992-0.075195,0.055664
						c-0.018555,0.018555-0.018555,0.018555-0.018555,0.018555c-0.004883,0.015625,0.033203,0.02832,0.083984,0.02832h0.714844
						c0.050781,0,0.092773,0.03418,0.092773,0.076172c0,0.041016-0.041992,0.075195-0.092773,0.075195H35.71875
						C35.667969,11.20752,35.644531,11.17334,35.669922,11.132324z"/>
				</g>
			</g>
		</g>
	</g>
</g>
<g id="marsh_x5F_bd_2_" style="&st0;">
	<g id="Marsh_x5F_FC_4_">
		<g>
			<g>
				<g>
					<path style="&st1;" d="M42.041016,5.782715c0.025391,0.041016,0.001953,0.075195-0.048828,0.075195h-1.163086
						c-0.050781,0-0.092773-0.03418-0.092773-0.075195c0-0.041992,0.041992-0.076172,0.092773-0.076172h0.807617
						c-0.003906-0.014648-0.008789-0.02832-0.027344-0.041992c-0.014648-0.013672-0.014648-0.013672-0.014648-0.013672
						c-0.033203-0.025391-0.025391-0.072266,0.015625-0.103516l0.041016-0.03125
						c0.037109,0.033203,0.068359,0.06543,0.087891,0.098633c0.021484,0.026367,0.021484,0.026367,0.021484,0.026367
						c0.004883,0.02832,0.009766,0.054688,0.009766,0.058594S41.80957,5.70752,41.858398,5.70752l0,0
						c0-0.074219-0.009766-0.129883-0.02832-0.175781c-0.023438-0.046875-0.032227-0.05957-0.032227-0.05957
						c-0.033203-0.039063-0.023438-0.09375,0.020508-0.121094l0.03125-0.019531
						c0.041992,0.037109,0.069336,0.078125,0.092773,0.120117c0.022461,0.041992,0.022461,0.041992,0.022461,0.041992
						c0.009766,0.047852,0.021484,0.115234,0.025391,0.149414C41.994141,5.678223,42.016602,5.740723,42.041016,5.782715z
						 M43.541992,6.217285c0,0.03125-0.041992,0.058594-0.092773,0.058594H41.52832c-0.051758,0-0.09375-0.026367-0.09375-0.058594
						s0.041992-0.057617,0.09375-0.057617h1.920898C43.5,6.159668,43.541992,6.185059,43.541992,6.217285z M42.380859,5.835449
						c0,0-0.111328-0.351563-0.22168-0.458008c0,0-0.097656-0.115234,0.110352-0.032227c0,0,0.106445,0.051758,0.176758,0.259766
						c0,0,0.008789-0.379883,0.236328-0.443359c0,0,0.166992-0.06543,0.060547,0.037109c0,0-0.133789,0.142578-0.138672,0.317383
						c0,0,0.074219-0.09668,0.25-0.125c0,0,0.143555-0.035156,0,0.06543l-0.206055,0.22168
						c-0.03418,0.038086-0.067383,0.088867-0.070313,0.113281c-0.003906,0.024414-0.042969,0.066406-0.086914,0.092773
						C42.491211,5.884277,42.488281,5.88623,42.380859,5.835449z M42.939453,5.782715
						c0.024414-0.041992,0.047852-0.118164,0.053711-0.168945l0.003906-0.032227
						c0.004883-0.046875,0.018555-0.087891,0.041992-0.129883s0.030273-0.049805,0.030273-0.049805
						c0.03418-0.039063,0.09668-0.047852,0.141602-0.020508l0.030273,0.020508
						c-0.045898,0.036133-0.074219,0.077148-0.091797,0.124023c-0.018555,0.045898-0.021484,0.086914-0.021484,0.086914
						c-0.003906,0.051758,0.032227,0.09375,0.082031,0.09375l0,0c0.004883-0.038086,0.018555-0.074219,0.036133-0.102539
						c0.019531-0.032227,0.019531-0.032227,0.019531-0.032227c0.036133-0.03125,0.097656-0.030273,0.138672,0.000977
						l0.041992,0.03125c-0.038086,0.023438-0.060547,0.041992-0.075195,0.055664
						c-0.018555,0.018555-0.018555,0.018555-0.018555,0.018555c-0.004883,0.015625,0.033203,0.02832,0.083984,0.02832h0.714844
						c0.050781,0,0.092773,0.03418,0.092773,0.076172c0,0.041016-0.041992,0.075195-0.092773,0.075195h-1.163086
						C42.9375,5.85791,42.914063,5.82373,42.939453,5.782715z"/>
				</g>
			</g>
		</g>
	</g>
</g>
<g id="marsh_x5F_bd" style="&st0;">
	<g id="Marsh_x5F_FC_2_">
		<g>
			<g>
				<g>
					<path style="&st1;" d="M44.708984,3.51123c0.025391,0.041016,0.001953,0.075195-0.048828,0.075195H43.49707
						c-0.050781,0-0.092773-0.03418-0.092773-0.075195c0-0.041992,0.041992-0.076172,0.092773-0.076172h0.807617
						c-0.003906-0.014648-0.008789-0.02832-0.027344-0.041992c-0.014648-0.013672-0.014648-0.013672-0.014648-0.013672
						c-0.033203-0.025391-0.025391-0.072266,0.015625-0.103516l0.041016-0.03125
						c0.037109,0.033203,0.068359,0.06543,0.087891,0.098633c0.021484,0.026367,0.021484,0.026367,0.021484,0.026367
						c0.004883,0.02832,0.009766,0.054688,0.009766,0.058594s0.039063,0.007813,0.087891,0.007813l0,0
						c0-0.074219-0.009766-0.129883-0.02832-0.175781c-0.023438-0.046875-0.032227-0.05957-0.032227-0.05957
						c-0.033203-0.039063-0.023438-0.09375,0.020508-0.121094l0.03125-0.019531
						c0.041992,0.037109,0.069336,0.078125,0.092773,0.120117c0.022461,0.041992,0.022461,0.041992,0.022461,0.041992
						c0.009766,0.047852,0.021484,0.115234,0.025391,0.149414C44.662109,3.406738,44.68457,3.469238,44.708984,3.51123z
						 M46.209961,3.945801c0,0.03125-0.041992,0.058594-0.092773,0.058594h-1.920898c-0.051758,0-0.09375-0.026367-0.09375-0.058594
						s0.041992-0.057617,0.09375-0.057617h1.920898C46.167969,3.888184,46.209961,3.913574,46.209961,3.945801z M45.048828,3.563965
						c0,0-0.111328-0.351563-0.22168-0.458008c0,0-0.097656-0.115234,0.110352-0.032227c0,0,0.106445,0.051758,0.176758,0.259766
						c0,0,0.008789-0.379883,0.236328-0.443359c0,0,0.166992-0.06543,0.060547,0.037109c0,0-0.133789,0.142578-0.138672,0.317383
						c0,0,0.074219-0.09668,0.25-0.125c0,0,0.143555-0.035156,0,0.06543l-0.206055,0.22168
						c-0.03418,0.038086-0.067383,0.088867-0.070313,0.113281c-0.003906,0.024414-0.042969,0.066406-0.086914,0.092773
						C45.15918,3.612793,45.15625,3.614746,45.048828,3.563965z M45.607422,3.51123
						c0.024414-0.041992,0.047852-0.118164,0.053711-0.168945l0.003906-0.032227
						c0.004883-0.046875,0.018555-0.087891,0.041992-0.129883s0.030273-0.049805,0.030273-0.049805
						c0.03418-0.039063,0.09668-0.047852,0.141602-0.020508l0.030273,0.020508
						c-0.045898,0.036133-0.074219,0.077148-0.091797,0.124023c-0.018555,0.045898-0.021484,0.086914-0.021484,0.086914
						c-0.003906,0.051758,0.032227,0.09375,0.082031,0.09375l0,0c0.004883-0.038086,0.018555-0.074219,0.036133-0.102539
						c0.019531-0.032227,0.019531-0.032227,0.019531-0.032227c0.036133-0.03125,0.097656-0.030273,0.138672,0.000977
						l0.041992,0.03125c-0.038086,0.023438-0.060547,0.041992-0.075195,0.055664
						c-0.018555,0.018555-0.018555,0.018555-0.018555,0.018555c-0.004883,0.015625,0.033203,0.02832,0.083984,0.02832h0.714844
						c0.050781,0,0.092773,0.03418,0.092773,0.076172c0,0.041016-0.041992,0.075195-0.092773,0.075195H45.65625
						C45.605469,3.586426,45.582031,3.552246,45.607422,3.51123z"/>
				</g>
			</g>
		</g>
	</g>
</g>
<g id="marsh_x5F_bd_1_" style="&st0;">
	<g id="Marsh_x5F_FC_3_">
		<g>
			<g>
				<g>
					<path style="&st1;" d="M40.285156,2.747559c0.025391,0.041016,0.001953,0.075195-0.048828,0.075195h-1.163086
						c-0.050781,0-0.092773-0.03418-0.092773-0.075195c0-0.041992,0.041992-0.076172,0.092773-0.076172h0.807617
						c-0.003906-0.014648-0.008789-0.02832-0.027344-0.041992c-0.014648-0.013672-0.014648-0.013672-0.014648-0.013672
						c-0.033203-0.025391-0.025391-0.072266,0.015625-0.103516l0.041016-0.03125
						c0.037109,0.033203,0.068359,0.06543,0.087891,0.098633c0.021484,0.026367,0.021484,0.026367,0.021484,0.026367
						c0.004883,0.02832,0.009766,0.054688,0.009766,0.058594s0.039063,0.007813,0.087891,0.007813l0,0
						c0-0.074219-0.009766-0.129883-0.02832-0.175781c-0.023438-0.046875-0.032227-0.05957-0.032227-0.05957
						c-0.033203-0.039063-0.023438-0.09375,0.020508-0.121094l0.03125-0.019531
						c0.041992,0.037109,0.069336,0.078125,0.092773,0.120117c0.022461,0.041992,0.022461,0.041992,0.022461,0.041992
						c0.009766,0.047852,0.021484,0.115234,0.025391,0.149414C40.238281,2.643066,40.260742,2.705566,40.285156,2.747559z
						 M41.786133,3.182129c0,0.03125-0.041992,0.058594-0.092773,0.058594h-1.920898c-0.051758,0-0.09375-0.026367-0.09375-0.058594
						s0.041992-0.057617,0.09375-0.057617h1.920898C41.744141,3.124512,41.786133,3.149902,41.786133,3.182129z M40.625,2.800293
						c0,0-0.111328-0.351563-0.22168-0.458008c0,0-0.097656-0.115234,0.110352-0.032227c0,0,0.106445,0.051758,0.176758,0.259766
						c0,0,0.008789-0.379883,0.236328-0.443359c0,0,0.166992-0.06543,0.060547,0.037109c0,0-0.133789,0.142578-0.138672,0.317383
						c0,0,0.074219-0.09668,0.25-0.125c0,0,0.143555-0.035156,0,0.06543l-0.206055,0.22168
						c-0.03418,0.038086-0.067383,0.088867-0.070313,0.113281c-0.003906,0.024414-0.042969,0.066406-0.086914,0.092773
						C40.735352,2.849121,40.732422,2.851074,40.625,2.800293z M41.183594,2.747559
						c0.024414-0.041992,0.047852-0.118164,0.053711-0.168945l0.003906-0.032227
						c0.004883-0.046875,0.018555-0.087891,0.041992-0.129883s0.030273-0.049805,0.030273-0.049805
						c0.03418-0.039063,0.09668-0.047852,0.141602-0.020508l0.030273,0.020508
						c-0.045898,0.036133-0.074219,0.077148-0.091797,0.124023C41.375,2.536621,41.37207,2.577637,41.37207,2.577637
						c-0.003906,0.051758,0.032227,0.09375,0.082031,0.09375l0,0c0.004883-0.038086,0.018555-0.074219,0.036133-0.102539
						c0.019531-0.032227,0.019531-0.032227,0.019531-0.032227c0.036133-0.03125,0.097656-0.030273,0.138672,0.000977
						l0.041992,0.03125c-0.038086,0.023438-0.060547,0.041992-0.075195,0.055664
						C41.59668,2.643066,41.59668,2.643066,41.59668,2.643066c-0.004883,0.015625,0.033203,0.02832,0.083984,0.02832h0.714844
						c0.050781,0,0.092773,0.03418,0.092773,0.076172c0,0.041016-0.041992,0.075195-0.092773,0.075195h-1.163086
						C41.181641,2.822754,41.158203,2.788574,41.183594,2.747559z"/>
				</g>
			</g>
		</g>
	</g>
</g>
<g id="marsh_x5F_bd_11_" style="&st0;">
	<g id="Marsh_x5F_FC_13_">
		<g>
			<g>
				<g>
					<path style="&st1;" d="M37.023438,24.04541c0.025391,0.041016,0.001953,0.075195-0.048828,0.075195h-1.163086
						c-0.050781,0-0.092773-0.03418-0.092773-0.075195c0-0.041992,0.041992-0.076172,0.092773-0.076172h0.807617
						c-0.003906-0.014648-0.008789-0.02832-0.027344-0.041992c-0.014648-0.013672-0.014648-0.013672-0.014648-0.013672
						c-0.033203-0.025391-0.025391-0.072266,0.015625-0.103516l0.041016-0.03125
						c0.037109,0.033203,0.068359,0.06543,0.087891,0.098633c0.021484,0.026367,0.021484,0.026367,0.021484,0.026367
						c0.004883,0.02832,0.009766,0.054688,0.009766,0.058594s0.039063,0.007813,0.087891,0.007813l0,0
						c0-0.074219-0.009766-0.129883-0.02832-0.175781c-0.023438-0.046875-0.032227-0.05957-0.032227-0.05957
						c-0.033203-0.039063-0.023438-0.09375,0.020508-0.121094l0.03125-0.019531
						c0.041992,0.037109,0.069336,0.078125,0.092773,0.120117c0.022461,0.041992,0.022461,0.041992,0.022461,0.041992
						c0.009766,0.047852,0.021484,0.115234,0.025391,0.149414C36.976563,23.940918,36.999023,24.003418,37.023438,24.04541z
						 M38.524414,24.47998c0,0.03125-0.041992,0.058594-0.092773,0.058594h-1.920898c-0.051758,0-0.09375-0.026367-0.09375-0.058594
						s0.041992-0.057617,0.09375-0.057617h1.920898C38.482422,24.422363,38.524414,24.447754,38.524414,24.47998z
						 M37.363281,24.098145c0,0-0.111328-0.351563-0.22168-0.458008c0,0-0.097656-0.115234,0.110352-0.032227
						c0,0,0.106445,0.051758,0.176758,0.259766c0,0,0.008789-0.379883,0.236328-0.443359c0,0,0.166992-0.06543,0.060547,0.037109
						c0,0-0.133789,0.142578-0.138672,0.317383c0,0,0.074219-0.09668,0.25-0.125c0,0,0.143555-0.035156,0,0.06543l-0.206055,0.22168
						c-0.03418,0.038086-0.067383,0.088867-0.070313,0.113281c-0.003906,0.024414-0.042969,0.066406-0.086914,0.092773
						C37.473633,24.146973,37.470703,24.148926,37.363281,24.098145z M37.921875,24.04541
						c0.024414-0.041992,0.047852-0.118164,0.053711-0.168945l0.003906-0.032227
						c0.004883-0.046875,0.018555-0.087891,0.041992-0.129883s0.030273-0.049805,0.030273-0.049805
						c0.03418-0.039063,0.09668-0.047852,0.141602-0.020508l0.030273,0.020508
						c-0.045898,0.036133-0.074219,0.077148-0.091797,0.124023c-0.018555,0.045898-0.021484,0.086914-0.021484,0.086914
						c-0.003906,0.051758,0.032227,0.09375,0.082031,0.09375l0,0c0.004883-0.038086,0.018555-0.074219,0.036133-0.102539
						c0.019531-0.032227,0.019531-0.032227,0.019531-0.032227c0.036133-0.03125,0.097656-0.030273,0.138672,0.000977
						l0.041992,0.03125c-0.038086,0.023438-0.060547,0.041992-0.075195,0.055664
						c-0.018555,0.018555-0.018555,0.018555-0.018555,0.018555c-0.004883,0.015625,0.033203,0.02832,0.083984,0.02832h0.714844
						c0.050781,0,0.092773,0.03418,0.092773,0.076172c0,0.041016-0.041992,0.075195-0.092773,0.075195h-1.163086
						C37.919922,24.120605,37.896484,24.086426,37.921875,24.04541z"/>
				</g>
			</g>
		</g>
	</g>
</g>
<g id="marsh_x5F_bd_10_" style="&st0;">
	<g id="Marsh_x5F_FC_12_">
		<g>
			<g>
				<g>
					<path style="&st1;" d="M39.693359,21.773926c0.025391,0.041016,0.001953,0.075195-0.048828,0.075195h-1.163086
						c-0.050781,0-0.092773-0.03418-0.092773-0.075195c0-0.041992,0.041992-0.076172,0.092773-0.076172h0.807617
						c-0.003906-0.014648-0.008789-0.02832-0.027344-0.041992C39.24707,21.64209,39.24707,21.64209,39.24707,21.64209
						c-0.033203-0.025391-0.025391-0.072266,0.015625-0.103516l0.041016-0.03125
						c0.037109,0.033203,0.068359,0.06543,0.087891,0.098633c0.021484,0.026367,0.021484,0.026367,0.021484,0.026367
						c0.004883,0.02832,0.009766,0.054688,0.009766,0.058594s0.039063,0.007813,0.087891,0.007813l0,0
						c0-0.074219-0.009766-0.129883-0.02832-0.175781c-0.023438-0.046875-0.032227-0.05957-0.032227-0.05957
						c-0.033203-0.039063-0.023438-0.09375,0.020508-0.121094l0.03125-0.019531
						c0.041992,0.037109,0.069336,0.078125,0.092773,0.120117c0.022461,0.041992,0.022461,0.041992,0.022461,0.041992
						c0.009766,0.047852,0.021484,0.115234,0.025391,0.149414C39.646484,21.669434,39.668945,21.731934,39.693359,21.773926z
						 M41.194336,22.208496c0,0.03125-0.041992,0.058594-0.092773,0.058594h-1.920898
						c-0.051758,0-0.09375-0.026367-0.09375-0.058594s0.041992-0.057617,0.09375-0.057617h1.920898
						C41.152344,22.150879,41.194336,22.17627,41.194336,22.208496z M40.033203,21.82666c0,0-0.111328-0.351563-0.22168-0.458008
						c0,0-0.097656-0.115234,0.110352-0.032227c0,0,0.106445,0.051758,0.176758,0.259766c0,0,0.008789-0.379883,0.236328-0.443359
						c0,0,0.166992-0.06543,0.060547,0.037109c0,0-0.133789,0.142578-0.138672,0.317383c0,0,0.074219-0.09668,0.25-0.125
						c0,0,0.143555-0.035156,0,0.06543l-0.206055,0.22168c-0.03418,0.038086-0.067383,0.088867-0.070313,0.113281
						c-0.003906,0.024414-0.042969,0.066406-0.086914,0.092773C40.143555,21.875488,40.140625,21.877441,40.033203,21.82666z
						 M40.591797,21.773926c0.024414-0.041992,0.047852-0.118164,0.053711-0.168945l0.003906-0.032227
						c0.004883-0.046875,0.018555-0.087891,0.041992-0.129883s0.030273-0.049805,0.030273-0.049805
						c0.03418-0.039063,0.09668-0.047852,0.141602-0.020508l0.030273,0.020508
						c-0.045898,0.036133-0.074219,0.077148-0.091797,0.124023c-0.018555,0.045898-0.021484,0.086914-0.021484,0.086914
						c-0.003906,0.051758,0.032227,0.09375,0.082031,0.09375l0,0c0.004883-0.038086,0.018555-0.074219,0.036133-0.102539
						c0.019531-0.032227,0.019531-0.032227,0.019531-0.032227c0.036133-0.03125,0.097656-0.030273,0.138672,0.000977
						l0.041992,0.03125c-0.038086,0.023438-0.060547,0.041992-0.075195,0.055664
						c-0.018555,0.018555-0.018555,0.018555-0.018555,0.018555c-0.004883,0.015625,0.033203,0.02832,0.083984,0.02832h0.714844
						c0.050781,0,0.092773,0.03418,0.092773,0.076172c0,0.041016-0.041992,0.075195-0.092773,0.075195h-1.163086
						C40.589844,21.849121,40.566406,21.814941,40.591797,21.773926z"/>
				</g>
			</g>
		</g>
	</g>
</g>
<g id="marsh_x5F_bd_9_" style="&st0;">
	<g id="Marsh_x5F_FC_11_">
		<g>
			<g>
				<g>
					<path style="&st1;" d="M35.267578,21.010254c0.025391,0.041016,0.001953,0.075195-0.048828,0.075195h-1.163086
						c-0.050781,0-0.092773-0.03418-0.092773-0.075195c0-0.041992,0.041992-0.076172,0.092773-0.076172h0.807617
						c-0.003906-0.014648-0.008789-0.02832-0.027344-0.041992c-0.014648-0.013672-0.014648-0.013672-0.014648-0.013672
						c-0.033203-0.025391-0.025391-0.072266,0.015625-0.103516l0.041016-0.03125
						c0.037109,0.033203,0.068359,0.06543,0.087891,0.098633c0.021484,0.026367,0.021484,0.026367,0.021484,0.026367
						c0.004883,0.02832,0.009766,0.054688,0.009766,0.058594s0.039063,0.007813,0.087891,0.007813l0,0
						c0-0.074219-0.009766-0.129883-0.02832-0.175781c-0.023438-0.046875-0.032227-0.05957-0.032227-0.05957
						c-0.033203-0.039063-0.023438-0.09375,0.020508-0.121094l0.03125-0.019531
						c0.041992,0.037109,0.069336,0.078125,0.092773,0.120117c0.022461,0.041992,0.022461,0.041992,0.022461,0.041992
						c0.009766,0.047852,0.021484,0.115234,0.025391,0.149414C35.220703,20.905762,35.243164,20.968262,35.267578,21.010254z
						 M36.768555,21.444824c0,0.03125-0.041992,0.058594-0.092773,0.058594h-1.920898
						c-0.051758,0-0.09375-0.026367-0.09375-0.058594s0.041992-0.057617,0.09375-0.057617h1.920898
						C36.726563,21.387207,36.768555,21.412598,36.768555,21.444824z M35.607422,21.062988c0,0-0.111328-0.351563-0.22168-0.458008
						c0,0-0.097656-0.115234,0.110352-0.032227c0,0,0.106445,0.051758,0.176758,0.259766c0,0,0.008789-0.379883,0.236328-0.443359
						c0,0,0.166992-0.06543,0.060547,0.037109c0,0-0.133789,0.142578-0.138672,0.317383c0,0,0.074219-0.09668,0.25-0.125
						c0,0,0.143555-0.035156,0,0.06543L35.875,20.905762c-0.03418,0.038086-0.067383,0.088867-0.070313,0.113281
						c-0.003906,0.024414-0.042969,0.066406-0.086914,0.092773C35.717773,21.111816,35.714844,21.11377,35.607422,21.062988z
						 M36.166016,21.010254c0.024414-0.041992,0.047852-0.118164,0.053711-0.168945l0.003906-0.032227
						c0.004883-0.046875,0.018555-0.087891,0.041992-0.129883s0.030273-0.049805,0.030273-0.049805
						c0.03418-0.039063,0.09668-0.047852,0.141602-0.020508l0.030273,0.020508
						c-0.045898,0.036133-0.074219,0.077148-0.091797,0.124023c-0.018555,0.045898-0.021484,0.086914-0.021484,0.086914
						c-0.003906,0.051758,0.032227,0.09375,0.082031,0.09375l0,0c0.004883-0.038086,0.018555-0.074219,0.036133-0.102539
						c0.019531-0.032227,0.019531-0.032227,0.019531-0.032227c0.036133-0.03125,0.097656-0.030273,0.138672,0.000977
						l0.041992,0.03125c-0.038086,0.023438-0.060547,0.041992-0.075195,0.055664
						c-0.018555,0.018555-0.018555,0.018555-0.018555,0.018555c-0.004883,0.015625,0.033203,0.02832,0.083984,0.02832h0.714844
						c0.050781,0,0.092773,0.03418,0.092773,0.076172c0,0.041016-0.041992,0.075195-0.092773,0.075195h-1.163086
						C36.164063,21.085449,36.140625,21.05127,36.166016,21.010254z"/>
				</g>
			</g>
		</g>
	</g>
</g>
<g id="marsh_x5F_bd_17_" style="&st0;">
	<g id="Marsh_x5F_FC_19_">
		<g>
			<g>
				<g>
					<path style="&st1;" d="M42.292969,35.947266c0.025391,0.041016,0.001953,0.075195-0.048828,0.075195h-1.163086
						c-0.050781,0-0.092773-0.03418-0.092773-0.075195c0-0.041992,0.041992-0.076172,0.092773-0.076172h0.807617
						c-0.003906-0.014648-0.008789-0.02832-0.027344-0.041992C41.84668,35.81543,41.84668,35.81543,41.84668,35.81543
						c-0.033203-0.025391-0.025391-0.072266,0.015625-0.103516l0.041016-0.03125
						c0.037109,0.033203,0.068359,0.06543,0.087891,0.098633c0.021484,0.026367,0.021484,0.026367,0.021484,0.026367
						c0.004883,0.02832,0.009766,0.054688,0.009766,0.058594s0.039063,0.007813,0.087891,0.007813l0,0
						c0-0.074219-0.009766-0.129883-0.02832-0.175781c-0.023438-0.046875-0.032227-0.05957-0.032227-0.05957
						c-0.033203-0.039063-0.023438-0.09375,0.020508-0.121094l0.03125-0.019531
						c0.041992,0.037109,0.069336,0.078125,0.092773,0.120117c0.022461,0.041992,0.022461,0.041992,0.022461,0.041992
						c0.009766,0.047852,0.021484,0.115234,0.025391,0.149414C42.246094,35.842773,42.268555,35.905273,42.292969,35.947266z
						 M43.793945,36.381836c0,0.03125-0.041992,0.058594-0.092773,0.058594h-1.920898
						c-0.051758,0-0.09375-0.026367-0.09375-0.058594s0.041992-0.057617,0.09375-0.057617h1.920898
						C43.751953,36.324219,43.793945,36.349609,43.793945,36.381836z M42.632813,36c0,0-0.111328-0.351563-0.22168-0.458008
						c0,0-0.097656-0.115234,0.110352-0.032227c0,0,0.106445,0.051758,0.176758,0.259766c0,0,0.008789-0.379883,0.236328-0.443359
						c0,0,0.166992-0.06543,0.060547,0.037109c0,0-0.133789,0.142578-0.138672,0.317383c0,0,0.074219-0.09668,0.25-0.125
						c0,0,0.143555-0.035156,0,0.06543l-0.206055,0.22168c-0.03418,0.038086-0.067383,0.088867-0.070313,0.113281
						c-0.003906,0.024414-0.042969,0.066406-0.086914,0.092773C42.743164,36.048828,42.740234,36.050781,42.632813,36z
						 M43.191406,35.947266c0.024414-0.041992,0.047852-0.118164,0.053711-0.168945l0.003906-0.032227
						c0.004883-0.046875,0.018555-0.087891,0.041992-0.129883s0.030273-0.049805,0.030273-0.049805
						c0.03418-0.039063,0.09668-0.047852,0.141602-0.020508l0.030273,0.020508
						c-0.045898,0.036133-0.074219,0.077148-0.091797,0.124023c-0.018555,0.045898-0.021484,0.086914-0.021484,0.086914
						c-0.003906,0.051758,0.032227,0.09375,0.082031,0.09375l0,0c0.004883-0.038086,0.018555-0.074219,0.036133-0.102539
						c0.019531-0.032227,0.019531-0.032227,0.019531-0.032227c0.036133-0.03125,0.097656-0.030273,0.138672,0.000977
						l0.041992,0.03125c-0.038086,0.023438-0.060547,0.041992-0.075195,0.055664
						c-0.018555,0.018555-0.018555,0.018555-0.018555,0.018555c-0.004883,0.015625,0.033203,0.02832,0.083984,0.02832h0.714844
						c0.050781,0,0.092773,0.03418,0.092773,0.076172c0,0.041016-0.041992,0.075195-0.092773,0.075195h-1.163086
						C43.189453,36.022461,43.166016,35.988281,43.191406,35.947266z"/>
				</g>
			</g>
		</g>
	</g>
</g>
<g id="marsh_x5F_bd_16_" style="&st0;">
	<g id="Marsh_x5F_FC_18_">
		<g>
			<g>
				<g>
					<path style="&st1;" d="M44.960938,33.675781c0.025391,0.041016,0.001953,0.075195-0.048828,0.075195h-1.163086
						c-0.050781,0-0.092773-0.03418-0.092773-0.075195c0-0.041992,0.041992-0.076172,0.092773-0.076172h0.807617
						c-0.003906-0.014648-0.008789-0.02832-0.027344-0.041992c-0.014648-0.013672-0.014648-0.013672-0.014648-0.013672
						c-0.033203-0.025391-0.025391-0.072266,0.015625-0.103516l0.041016-0.03125
						c0.037109,0.033203,0.068359,0.06543,0.087891,0.098633c0.021484,0.026367,0.021484,0.026367,0.021484,0.026367
						c0.004883,0.02832,0.009766,0.054688,0.009766,0.058594s0.039063,0.007813,0.087891,0.007813l0,0
						c0-0.074219-0.009766-0.129883-0.02832-0.175781c-0.023438-0.046875-0.032227-0.05957-0.032227-0.05957
						c-0.033203-0.039063-0.023438-0.09375,0.020508-0.121094l0.03125-0.019531
						c0.041992,0.037109,0.069336,0.078125,0.092773,0.120117c0.022461,0.041992,0.022461,0.041992,0.022461,0.041992
						c0.009766,0.047852,0.021484,0.115234,0.025391,0.149414C44.914063,33.571289,44.936523,33.633789,44.960938,33.675781z
						 M46.461914,34.110352c0,0.03125-0.041992,0.058594-0.092773,0.058594h-1.920898
						c-0.051758,0-0.09375-0.026367-0.09375-0.058594s0.041992-0.057617,0.09375-0.057617h1.920898
						C46.419922,34.052734,46.461914,34.078125,46.461914,34.110352z M45.300781,33.728516c0,0-0.111328-0.351563-0.22168-0.458008
						c0,0-0.097656-0.115234,0.110352-0.032227c0,0,0.106445,0.051758,0.176758,0.259766c0,0,0.008789-0.379883,0.236328-0.443359
						c0,0,0.166992-0.06543,0.060547,0.037109c0,0-0.133789,0.142578-0.138672,0.317383c0,0,0.074219-0.09668,0.25-0.125
						c0,0,0.143555-0.035156,0,0.06543l-0.206055,0.22168c-0.03418,0.038086-0.067383,0.088867-0.070313,0.113281
						c-0.003906,0.024414-0.042969,0.066406-0.086914,0.092773C45.411133,33.777344,45.408203,33.779297,45.300781,33.728516z
						 M45.859375,33.675781c0.024414-0.041992,0.047852-0.118164,0.053711-0.168945l0.003906-0.032227
						c0.004883-0.046875,0.018555-0.087891,0.041992-0.129883s0.030273-0.049805,0.030273-0.049805
						c0.03418-0.039063,0.09668-0.047852,0.141602-0.020508l0.030273,0.020508
						c-0.045898,0.036133-0.074219,0.077148-0.091797,0.124023c-0.018555,0.045898-0.021484,0.086914-0.021484,0.086914
						c-0.003906,0.051758,0.032227,0.09375,0.082031,0.09375l0,0c0.004883-0.038086,0.018555-0.074219,0.036133-0.102539
						c0.019531-0.032227,0.019531-0.032227,0.019531-0.032227c0.036133-0.03125,0.097656-0.030273,0.138672,0.000977
						l0.041992,0.03125c-0.038086,0.023438-0.060547,0.041992-0.075195,0.055664
						c-0.018555,0.018555-0.018555,0.018555-0.018555,0.018555c-0.004883,0.015625,0.033203,0.02832,0.083984,0.02832h0.714844
						c0.050781,0,0.092773,0.03418,0.092773,0.076172c0,0.041016-0.041992,0.075195-0.092773,0.075195h-1.163086
						C45.857422,33.750977,45.833984,33.716797,45.859375,33.675781z"/>
				</g>
			</g>
		</g>
	</g>
</g>
<g id="marsh_x5F_bd_15_" style="&st0;">
	<g id="Marsh_x5F_FC_17_">
		<g>
			<g>
				<g>
					<path style="&st1;" d="M40.537109,32.912109c0.025391,0.041016,0.001953,0.075195-0.048828,0.075195h-1.163086
						c-0.050781,0-0.092773-0.03418-0.092773-0.075195c0-0.041992,0.041992-0.076172,0.092773-0.076172h0.807617
						c-0.003906-0.014648-0.008789-0.02832-0.027344-0.041992c-0.014648-0.013672-0.014648-0.013672-0.014648-0.013672
						c-0.033203-0.025391-0.025391-0.072266,0.015625-0.103516l0.041016-0.03125
						c0.037109,0.033203,0.068359,0.06543,0.087891,0.098633c0.021484,0.026367,0.021484,0.026367,0.021484,0.026367
						c0.004883,0.02832,0.009766,0.054688,0.009766,0.058594s0.039063,0.007813,0.087891,0.007813l0,0
						c0-0.074219-0.009766-0.129883-0.02832-0.175781c-0.023438-0.046875-0.032227-0.05957-0.032227-0.05957
						c-0.033203-0.039063-0.023438-0.09375,0.020508-0.121094l0.03125-0.019531
						c0.041992,0.037109,0.069336,0.078125,0.092773,0.120117c0.022461,0.041992,0.022461,0.041992,0.022461,0.041992
						c0.009766,0.047852,0.021484,0.115234,0.025391,0.149414C40.490234,32.807617,40.512695,32.870117,40.537109,32.912109z
						 M42.038086,33.34668c0,0.03125-0.041992,0.058594-0.092773,0.058594h-1.920898c-0.051758,0-0.09375-0.026367-0.09375-0.058594
						s0.041992-0.057617,0.09375-0.057617h1.920898C41.996094,33.289063,42.038086,33.314453,42.038086,33.34668z
						 M40.876953,32.964844c0,0-0.111328-0.351563-0.22168-0.458008c0,0-0.097656-0.115234,0.110352-0.032227
						c0,0,0.106445,0.051758,0.176758,0.259766c0,0,0.008789-0.379883,0.236328-0.443359c0,0,0.166992-0.06543,0.060547,0.037109
						c0,0-0.133789,0.142578-0.138672,0.317383c0,0,0.074219-0.09668,0.25-0.125c0,0,0.143555-0.035156,0,0.06543l-0.206055,0.22168
						c-0.03418,0.038086-0.067383,0.088867-0.070313,0.113281c-0.003906,0.024414-0.042969,0.066406-0.086914,0.092773
						C40.987305,33.013672,40.984375,33.015625,40.876953,32.964844z M41.435547,32.912109
						c0.024414-0.041992,0.047852-0.118164,0.053711-0.168945l0.003906-0.032227
						c0.004883-0.046875,0.018555-0.087891,0.041992-0.129883s0.030273-0.049805,0.030273-0.049805
						c0.03418-0.039063,0.09668-0.047852,0.141602-0.020508l0.030273,0.020508
						c-0.045898,0.036133-0.074219,0.077148-0.091797,0.124023c-0.018555,0.045898-0.021484,0.086914-0.021484,0.086914
						c-0.003906,0.051758,0.032227,0.09375,0.082031,0.09375l0,0c0.004883-0.038086,0.018555-0.074219,0.036133-0.102539
						c0.019531-0.032227,0.019531-0.032227,0.019531-0.032227c0.036133-0.03125,0.097656-0.030273,0.138672,0.000977
						l0.041992,0.03125c-0.038086,0.023438-0.060547,0.041992-0.075195,0.055664
						c-0.018555,0.018555-0.018555,0.018555-0.018555,0.018555c-0.004883,0.015625,0.033203,0.02832,0.083984,0.02832h0.714844
						c0.050781,0,0.092773,0.03418,0.092773,0.076172c0,0.041016-0.041992,0.075195-0.092773,0.075195h-1.163086
						C41.433594,32.987305,41.410156,32.953125,41.435547,32.912109z"/>
				</g>
			</g>
		</g>
	</g>
</g>
<g id="marsh_x5F_bd_20_" style="&st0;">
	<g id="Marsh_x5F_FC_22_">
		<g>
			<g>
				<g>
					<path style="&st1;" d="M29.261719,46.548828c0.025391,0.041016,0.001953,0.075195-0.048828,0.075195h-1.163086
						c-0.050781,0-0.092773-0.03418-0.092773-0.075195c0-0.041992,0.041992-0.076172,0.092773-0.076172h0.807617
						c-0.003906-0.014648-0.008789-0.02832-0.027344-0.041992c-0.014648-0.013672-0.014648-0.013672-0.014648-0.013672
						c-0.033203-0.025391-0.025391-0.072266,0.015625-0.103516l0.041016-0.03125
						c0.037109,0.033203,0.068359,0.06543,0.087891,0.098633c0.021484,0.026367,0.021484,0.026367,0.021484,0.026367
						c0.004883,0.02832,0.009766,0.054688,0.009766,0.058594s0.039063,0.007813,0.087891,0.007813l0,0
						c0-0.074219-0.009766-0.129883-0.02832-0.175781c-0.023438-0.046875-0.032227-0.05957-0.032227-0.05957
						c-0.033203-0.039063-0.023438-0.09375,0.020508-0.121094l0.03125-0.019531
						c0.041992,0.037109,0.069336,0.078125,0.092773,0.120117c0.022461,0.041992,0.022461,0.041992,0.022461,0.041992
						c0.009766,0.047852,0.021484,0.115234,0.025391,0.149414C29.214844,46.444336,29.237305,46.506836,29.261719,46.548828z
						 M30.762695,46.983398c0,0.03125-0.041992,0.058594-0.092773,0.058594h-1.920898
						c-0.051758,0-0.09375-0.026367-0.09375-0.058594s0.041992-0.057617,0.09375-0.057617h1.920898
						C30.720703,46.925781,30.762695,46.951172,30.762695,46.983398z M29.601563,46.601563c0,0-0.111328-0.351563-0.22168-0.458008
						c0,0-0.097656-0.115234,0.110352-0.032227c0,0,0.106445,0.051758,0.176758,0.259766c0,0,0.008789-0.379883,0.236328-0.443359
						c0,0,0.166992-0.06543,0.060547,0.037109c0,0-0.133789,0.142578-0.138672,0.317383c0,0,0.074219-0.09668,0.25-0.125
						c0,0,0.143555-0.035156,0,0.06543l-0.206055,0.22168c-0.03418,0.038086-0.067383,0.088867-0.070313,0.113281
						c-0.003906,0.024414-0.042969,0.066406-0.086914,0.092773C29.711914,46.650391,29.708984,46.652344,29.601563,46.601563z
						 M30.160156,46.548828c0.024414-0.041992,0.047852-0.118164,0.053711-0.168945l0.003906-0.032227
						c0.004883-0.046875,0.018555-0.087891,0.041992-0.129883s0.030273-0.049805,0.030273-0.049805
						c0.03418-0.039063,0.09668-0.047852,0.141602-0.020508l0.030273,0.020508
						c-0.045898,0.036133-0.074219,0.077148-0.091797,0.124023c-0.018555,0.045898-0.021484,0.086914-0.021484,0.086914
						c-0.003906,0.051758,0.032227,0.09375,0.082031,0.09375l0,0c0.004883-0.038086,0.018555-0.074219,0.036133-0.102539
						c0.019531-0.032227,0.019531-0.032227,0.019531-0.032227c0.036133-0.03125,0.097656-0.030273,0.138672,0.000977
						l0.041992,0.03125c-0.038086,0.023438-0.060547,0.041992-0.075195,0.055664
						c-0.018555,0.018555-0.018555,0.018555-0.018555,0.018555c-0.004883,0.015625,0.033203,0.02832,0.083984,0.02832h0.714844
						c0.050781,0,0.092773,0.03418,0.092773,0.076172c0,0.041016-0.041992,0.075195-0.092773,0.075195h-1.163086
						C30.158203,46.624023,30.134766,46.589844,30.160156,46.548828z"/>
				</g>
			</g>
		</g>
	</g>
</g>
<g id="marsh_x5F_bd_18_" style="&st0;">
	<g id="Marsh_x5F_FC_20_">
		<g>
			<g>
				<g>
					<path style="&st1;" d="M31.929688,44.277344c0.025391,0.041016,0.001953,0.075195-0.048828,0.075195h-1.163086
						c-0.050781,0-0.092773-0.03418-0.092773-0.075195c0-0.041992,0.041992-0.076172,0.092773-0.076172h0.807617
						c-0.003906-0.014648-0.008789-0.02832-0.027344-0.041992c-0.014648-0.013672-0.014648-0.013672-0.014648-0.013672
						c-0.033203-0.025391-0.025391-0.072266,0.015625-0.103516l0.041016-0.03125
						c0.037109,0.033203,0.068359,0.06543,0.087891,0.098633c0.021484,0.026367,0.021484,0.026367,0.021484,0.026367
						c0.004883,0.02832,0.009766,0.054688,0.009766,0.058594s0.039063,0.007813,0.087891,0.007813l0,0
						c0-0.074219-0.009766-0.129883-0.02832-0.175781c-0.023438-0.046875-0.032227-0.05957-0.032227-0.05957
						c-0.033203-0.039063-0.023438-0.09375,0.020508-0.121094l0.03125-0.019531
						c0.041992,0.037109,0.069336,0.078125,0.092773,0.120117c0.022461,0.041992,0.022461,0.041992,0.022461,0.041992
						c0.009766,0.047852,0.021484,0.115234,0.025391,0.149414C31.882813,44.172852,31.905273,44.235352,31.929688,44.277344z
						 M33.430664,44.711914c0,0.03125-0.041992,0.058594-0.092773,0.058594h-1.920898
						c-0.051758,0-0.09375-0.026367-0.09375-0.058594s0.041992-0.057617,0.09375-0.057617h1.920898
						C33.388672,44.654297,33.430664,44.679688,33.430664,44.711914z M32.269531,44.330078c0,0-0.111328-0.351563-0.22168-0.458008
						c0,0-0.097656-0.115234,0.110352-0.032227c0,0,0.106445,0.051758,0.176758,0.259766c0,0,0.008789-0.379883,0.236328-0.443359
						c0,0,0.166992-0.06543,0.060547,0.037109c0,0-0.133789,0.142578-0.138672,0.317383c0,0,0.074219-0.09668,0.25-0.125
						c0,0,0.143555-0.035156,0,0.06543l-0.206055,0.22168c-0.03418,0.038086-0.067383,0.088867-0.070313,0.113281
						c-0.003906,0.024414-0.042969,0.066406-0.086914,0.092773C32.379883,44.378906,32.376953,44.380859,32.269531,44.330078z
						 M32.828125,44.277344c0.024414-0.041992,0.047852-0.118164,0.053711-0.168945l0.003906-0.032227
						c0.004883-0.046875,0.018555-0.087891,0.041992-0.129883s0.030273-0.049805,0.030273-0.049805
						c0.03418-0.039063,0.09668-0.047852,0.141602-0.020508l0.030273,0.020508
						c-0.045898,0.036133-0.074219,0.077148-0.091797,0.124023c-0.018555,0.045898-0.021484,0.086914-0.021484,0.086914
						c-0.003906,0.051758,0.032227,0.09375,0.082031,0.09375l0,0c0.004883-0.038086,0.018555-0.074219,0.036133-0.102539
						c0.019531-0.032227,0.019531-0.032227,0.019531-0.032227c0.036133-0.03125,0.097656-0.030273,0.138672,0.000977
						l0.041992,0.03125c-0.038086,0.023438-0.060547,0.041992-0.075195,0.055664
						c-0.018555,0.018555-0.018555,0.018555-0.018555,0.018555c-0.004883,0.015625,0.033203,0.02832,0.083984,0.02832h0.714844
						c0.050781,0,0.092773,0.03418,0.092773,0.076172c0,0.041016-0.041992,0.075195-0.092773,0.075195h-1.163086
						C32.826172,44.352539,32.802734,44.318359,32.828125,44.277344z"/>
				</g>
			</g>
		</g>
	</g>
</g>
<g id="marsh_x5F_bd_19_" style="&st0;">
	<g id="Marsh_x5F_FC_21_">
		<g>
			<g>
				<g>
					<path style="&st1;" d="M27.505859,43.513672c0.025391,0.041016,0.001953,0.075195-0.048828,0.075195h-1.163086
						c-0.050781,0-0.092773-0.03418-0.092773-0.075195c0-0.041992,0.041992-0.076172,0.092773-0.076172h0.807617
						c-0.003906-0.014648-0.008789-0.02832-0.027344-0.041992c-0.014648-0.013672-0.014648-0.013672-0.014648-0.013672
						c-0.033203-0.025391-0.025391-0.072266,0.015625-0.103516l0.041016-0.03125
						c0.037109,0.033203,0.068359,0.06543,0.087891,0.098633c0.021484,0.026367,0.021484,0.026367,0.021484,0.026367
						c0.004883,0.02832,0.009766,0.054688,0.009766,0.058594s0.039063,0.007813,0.087891,0.007813l0,0
						c0-0.074219-0.009766-0.129883-0.02832-0.175781c-0.023438-0.046875-0.032227-0.05957-0.032227-0.05957
						c-0.033203-0.039063-0.023438-0.09375,0.020508-0.121094l0.03125-0.019531
						c0.041992,0.037109,0.069336,0.078125,0.092773,0.120117c0.022461,0.041992,0.022461,0.041992,0.022461,0.041992
						c0.009766,0.047852,0.021484,0.115234,0.025391,0.149414C27.458984,43.40918,27.481445,43.47168,27.505859,43.513672z
						 M29.006836,43.948242c0,0.03125-0.041992,0.058594-0.092773,0.058594h-1.920898
						c-0.051758,0-0.09375-0.026367-0.09375-0.058594s0.041992-0.057617,0.09375-0.057617h1.920898
						C28.964844,43.890625,29.006836,43.916016,29.006836,43.948242z M27.845703,43.566406c0,0-0.111328-0.351563-0.22168-0.458008
						c0,0-0.097656-0.115234,0.110352-0.032227c0,0,0.106445,0.051758,0.176758,0.259766c0,0,0.008789-0.379883,0.236328-0.443359
						c0,0,0.166992-0.06543,0.060547,0.037109c0,0-0.133789,0.142578-0.138672,0.317383c0,0,0.074219-0.09668,0.25-0.125
						c0,0,0.143555-0.035156,0,0.06543l-0.206055,0.22168c-0.03418,0.038086-0.067383,0.088867-0.070313,0.113281
						C28.039063,43.546875,28,43.588867,27.956055,43.615234C27.956055,43.615234,27.953125,43.617188,27.845703,43.566406z
						 M28.404297,43.513672c0.024414-0.041992,0.047852-0.118164,0.053711-0.168945l0.003906-0.032227
						c0.004883-0.046875,0.018555-0.087891,0.041992-0.129883s0.030273-0.049805,0.030273-0.049805
						c0.03418-0.039063,0.09668-0.047852,0.141602-0.020508l0.030273,0.020508
						c-0.045898,0.036133-0.074219,0.077148-0.091797,0.124023c-0.018555,0.045898-0.021484,0.086914-0.021484,0.086914
						c-0.003906,0.051758,0.032227,0.09375,0.082031,0.09375l0,0c0.004883-0.038086,0.018555-0.074219,0.036133-0.102539
						c0.019531-0.032227,0.019531-0.032227,0.019531-0.032227c0.036133-0.03125,0.097656-0.030273,0.138672,0.000977
						l0.041992,0.03125c-0.038086,0.023438-0.060547,0.041992-0.075195,0.055664
						c-0.018555,0.018555-0.018555,0.018555-0.018555,0.018555c-0.004883,0.015625,0.033203,0.02832,0.083984,0.02832h0.714844
						c0.050781,0,0.092773,0.03418,0.092773,0.076172c0,0.041016-0.041992,0.075195-0.092773,0.075195h-1.163086
						C28.402344,43.588867,28.378906,43.554688,28.404297,43.513672z"/>
				</g>
			</g>
		</g>
	</g>
</g>
<g id="marsh_x5F_bd_21_" style="&st0;">
	<g id="Marsh_x5F_FC_23_">
		<g>
			<g>
				<g>
					<path style="&st1;" d="M5.486328,47.964844c0.025391,0.041016,0.002441,0.075195-0.048828,0.075195H4.273926
						c-0.050781,0-0.092773-0.03418-0.092773-0.075195c0-0.041992,0.041992-0.076172,0.092773-0.076172H5.08252
						c-0.003906-0.014648-0.008789-0.02832-0.027832-0.041992c-0.01416-0.013672-0.01416-0.013672-0.01416-0.013672
						c-0.033203-0.025391-0.025879-0.072266,0.015137-0.103516l0.041016-0.03125
						c0.037109,0.033203,0.068848,0.06543,0.087891,0.098633c0.021973,0.026367,0.021973,0.026367,0.021973,0.026367
						c0.004883,0.02832,0.009766,0.054688,0.009766,0.058594s0.039063,0.007813,0.087402,0.007813l0,0
						c0-0.074219-0.009277-0.129883-0.02832-0.175781c-0.022949-0.046875-0.031738-0.05957-0.031738-0.05957
						c-0.033203-0.039063-0.023926-0.09375,0.02002-0.121094l0.031738-0.019531
						c0.041992,0.037109,0.069336,0.078125,0.092285,0.120117s0.022949,0.041992,0.022949,0.041992
						c0.009766,0.047852,0.020996,0.115234,0.024902,0.149414C5.439453,47.860352,5.462402,47.922852,5.486328,47.964844z
						 M6.987305,48.399414c0,0.03125-0.041992,0.058594-0.092773,0.058594H4.973633c-0.05127,0-0.093262-0.026367-0.093262-0.058594
						s0.041992-0.057617,0.093262-0.057617h1.920898C6.945313,48.341797,6.987305,48.367188,6.987305,48.399414z M5.82666,48.017578
						c0,0-0.111328-0.351563-0.222168-0.458008c0,0-0.097168-0.115234,0.11084-0.032227c0,0,0.106445,0.051758,0.17627,0.259766
						c0,0,0.008789-0.379883,0.23584-0.443359c0,0,0.166992-0.06543,0.061035,0.037109c0,0-0.133789,0.142578-0.13916,0.317383
						c0,0,0.074219-0.09668,0.25-0.125c0,0,0.144043-0.035156,0,0.06543l-0.205566,0.22168
						c-0.03418,0.038086-0.067383,0.088867-0.070313,0.113281c-0.003906,0.024414-0.042969,0.066406-0.086914,0.092773
						C5.936523,48.066406,5.933594,48.068359,5.82666,48.017578z M6.384766,47.964844
						c0.023926-0.041992,0.047852-0.118164,0.053711-0.168945l0.003906-0.032227
						c0.004395-0.046875,0.018066-0.087891,0.041992-0.129883c0.022949-0.041992,0.030273-0.049805,0.030273-0.049805
						c0.033691-0.039063,0.09668-0.047852,0.141113-0.020508l0.030762,0.020508
						c-0.045898,0.036133-0.074219,0.077148-0.091797,0.124023c-0.019043,0.045898-0.021973,0.086914-0.021973,0.086914
						c-0.003418,0.051758,0.032715,0.09375,0.082031,0.09375l0,0c0.004883-0.038086,0.018555-0.074219,0.036621-0.102539
						c0.019043-0.032227,0.019043-0.032227,0.019043-0.032227c0.036133-0.03125,0.098145-0.030273,0.13916,0.000977
						l0.041992,0.03125c-0.038086,0.023438-0.061035,0.041992-0.075195,0.055664
						c-0.019043,0.018555-0.019043,0.018555-0.019043,0.018555c-0.004883,0.015625,0.033203,0.02832,0.083984,0.02832h0.71582
						c0.050781,0,0.092773,0.03418,0.092773,0.076172c0,0.041016-0.041992,0.075195-0.092773,0.075195H6.433594
						C6.382324,48.040039,6.359375,48.005859,6.384766,47.964844z"/>
				</g>
			</g>
		</g>
	</g>
</g>
<g id="marsh_x5F_bd_22_" style="&st0;">
	<g id="Marsh_x5F_FC_24_">
		<g>
			<g>
				<g>
					<path style="&st1;" d="M8.155273,45.693359c0.025391,0.041016,0.002441,0.075195-0.048828,0.075195H6.942871
						c-0.050781,0-0.092773-0.03418-0.092773-0.075195c0-0.041992,0.041992-0.076172,0.092773-0.076172h0.808594
						c-0.003906-0.014648-0.008789-0.02832-0.027832-0.041992c-0.01416-0.013672-0.01416-0.013672-0.01416-0.013672
						c-0.033203-0.025391-0.025879-0.072266,0.015137-0.103516l0.041016-0.03125
						c0.037109,0.033203,0.068848,0.06543,0.087891,0.098633c0.021973,0.026367,0.021973,0.026367,0.021973,0.026367
						c0.004883,0.02832,0.009766,0.054688,0.009766,0.058594s0.039063,0.007813,0.087402,0.007813l0,0
						c0-0.074219-0.009277-0.129883-0.02832-0.175781c-0.022949-0.046875-0.031738-0.05957-0.031738-0.05957
						c-0.033203-0.039063-0.023926-0.09375,0.02002-0.121094l0.031738-0.019531
						c0.041992,0.037109,0.069336,0.078125,0.092285,0.120117s0.022949,0.041992,0.022949,0.041992
						c0.009766,0.047852,0.020996,0.115234,0.024902,0.149414C8.108398,45.588867,8.131348,45.651367,8.155273,45.693359z
						 M9.65625,46.12793c0,0.03125-0.041992,0.058594-0.092773,0.058594H7.642578c-0.05127,0-0.093262-0.026367-0.093262-0.058594
						s0.041992-0.057617,0.093262-0.057617h1.920898C9.614258,46.070313,9.65625,46.095703,9.65625,46.12793z M8.495605,45.746094
						c0,0-0.111328-0.351563-0.222168-0.458008c0,0-0.097168-0.115234,0.11084-0.032227c0,0,0.106445,0.051758,0.17627,0.259766
						c0,0,0.008789-0.379883,0.23584-0.443359c0,0,0.166992-0.06543,0.061035,0.037109c0,0-0.133789,0.142578-0.13916,0.317383
						c0,0,0.074219-0.09668,0.25-0.125c0,0,0.144043-0.035156,0,0.06543l-0.205566,0.22168
						c-0.03418,0.038086-0.067383,0.088867-0.070313,0.113281c-0.003906,0.024414-0.042969,0.066406-0.086914,0.092773
						C8.605469,45.794922,8.602539,45.796875,8.495605,45.746094z M9.053711,45.693359
						c0.023926-0.041992,0.047852-0.118164,0.053711-0.168945l0.003906-0.032227
						c0.004395-0.046875,0.018066-0.087891,0.041992-0.129883C9.17627,45.320313,9.183594,45.3125,9.183594,45.3125
						c0.033691-0.039063,0.09668-0.047852,0.141113-0.020508L9.355469,45.3125
						c-0.045898,0.036133-0.074219,0.077148-0.091797,0.124023c-0.019043,0.045898-0.021973,0.086914-0.021973,0.086914
						c-0.003418,0.051758,0.032715,0.09375,0.082031,0.09375l0,0c0.004883-0.038086,0.018555-0.074219,0.036621-0.102539
						c0.019043-0.032227,0.019043-0.032227,0.019043-0.032227c0.036133-0.03125,0.098145-0.030273,0.13916,0.000977
						l0.041992,0.03125c-0.038086,0.023438-0.061035,0.041992-0.075195,0.055664
						c-0.019043,0.018555-0.019043,0.018555-0.019043,0.018555c-0.004883,0.015625,0.033203,0.02832,0.083984,0.02832h0.71582
						c0.050781,0,0.092773,0.03418,0.092773,0.076172c0,0.041016-0.041992,0.075195-0.092773,0.075195H9.102539
						C9.05127,45.768555,9.02832,45.734375,9.053711,45.693359z"/>
				</g>
			</g>
		</g>
	</g>
</g>
<g id="marsh_x5F_bd_23_" style="&st0;">
	<g id="Marsh_x5F_FC_25_">
		<g>
			<g>
				<g>
					<path style="&st1;" d="M3.731445,44.929688c0.025391,0.041016,0.002441,0.075195-0.048828,0.075195H2.519043
						c-0.050781,0-0.092773-0.03418-0.092773-0.075195c0-0.041992,0.041992-0.076172,0.092773-0.076172h0.808594
						c-0.003906-0.014648-0.008789-0.02832-0.027832-0.041992c-0.01416-0.013672-0.01416-0.013672-0.01416-0.013672
						c-0.033203-0.025391-0.025879-0.072266,0.015137-0.103516l0.041016-0.03125
						c0.037109,0.033203,0.068848,0.06543,0.087891,0.098633c0.021973,0.026367,0.021973,0.026367,0.021973,0.026367
						c0.004883,0.02832,0.009766,0.054688,0.009766,0.058594s0.039063,0.007813,0.087402,0.007813l0,0
						c0-0.074219-0.009277-0.129883-0.02832-0.175781c-0.022949-0.046875-0.031738-0.05957-0.031738-0.05957
						c-0.033203-0.039063-0.023926-0.09375,0.02002-0.121094l0.031738-0.019531
						c0.041992,0.037109,0.069336,0.078125,0.092285,0.120117s0.022949,0.041992,0.022949,0.041992
						c0.009766,0.047852,0.020996,0.115234,0.024902,0.149414C3.68457,44.825195,3.70752,44.887695,3.731445,44.929688z
						 M5.232422,45.364258c0,0.03125-0.041992,0.058594-0.092773,0.058594H3.21875c-0.05127,0-0.093262-0.026367-0.093262-0.058594
						s0.041992-0.057617,0.093262-0.057617h1.920898C5.19043,45.306641,5.232422,45.332031,5.232422,45.364258z M4.071777,44.982422
						c0,0-0.111328-0.351563-0.222168-0.458008c0,0-0.097168-0.115234,0.11084-0.032227c0,0,0.106445,0.051758,0.17627,0.259766
						c0,0,0.008789-0.379883,0.23584-0.443359c0,0,0.166992-0.06543,0.061035,0.037109c0,0-0.133789,0.142578-0.13916,0.317383
						c0,0,0.074219-0.09668,0.25-0.125c0,0,0.144043-0.035156,0,0.06543l-0.205566,0.22168
						c-0.03418,0.038086-0.067383,0.088867-0.070313,0.113281c-0.003906,0.024414-0.042969,0.066406-0.086914,0.092773
						C4.181641,45.03125,4.178711,45.033203,4.071777,44.982422z M4.629883,44.929688
						c0.023926-0.041992,0.047852-0.118164,0.053711-0.168945L4.6875,44.728516
						c0.004395-0.046875,0.018066-0.087891,0.041992-0.129883c0.022949-0.041992,0.030273-0.049805,0.030273-0.049805
						c0.033691-0.039063,0.09668-0.047852,0.141113-0.020508l0.030762,0.020508
						c-0.045898,0.036133-0.074219,0.077148-0.091797,0.124023c-0.019043,0.045898-0.021973,0.086914-0.021973,0.086914
						c-0.003418,0.051758,0.032715,0.09375,0.082031,0.09375l0,0c0.004883-0.038086,0.018555-0.074219,0.036621-0.102539
						c0.019043-0.032227,0.019043-0.032227,0.019043-0.032227c0.036133-0.03125,0.098145-0.030273,0.13916,0.000977
						l0.041992,0.03125c-0.038086,0.023438-0.061035,0.041992-0.075195,0.055664
						C5.04248,44.825195,5.04248,44.825195,5.04248,44.825195c-0.004883,0.015625,0.033203,0.02832,0.083984,0.02832h0.71582
						c0.050781,0,0.092773,0.03418,0.092773,0.076172c0,0.041016-0.041992,0.075195-0.092773,0.075195H4.678711
						C4.627441,45.004883,4.604492,44.970703,4.629883,44.929688z"/>
				</g>
			</g>
		</g>
	</g>
</g>
</svg>
