<?xml version="1.0" encoding="utf-8"?>
<!-- Generator: Adobe Illustrator 16.0.3, SVG Export Plug-In . SVG Version: 6.00 Build 0)  -->
<!DOCTYPE svg PUBLIC "-//W3C//DTD SVG 1.1//EN" "http://www.w3.org/Graphics/SVG/1.1/DTD/svg11.dtd">
<svg version="1.1" id="Layer_1" xmlns="http://www.w3.org/2000/svg" xmlns:xlink="http://www.w3.org/1999/xlink" x="0px" y="0px"
	 width="50px" height="50px" viewBox="0 0 50 50" style="enable-background:new 0 0 50 50;" xml:space="preserve">
<g id="heath_x5F_bd_1_">
	<g id="Heath_x5F_FC_3_">
		<path style="fill:#A9CDA6;" d="M6.86084,40.870117c-0.025879,0-0.05127-0.013672-0.063965-0.037109l-0.198242-0.34082
			c-0.008789-0.015625-0.011719-0.033203-0.006836-0.050781c0.003906-0.020508,0.018066-0.037109,0.035156-0.047852
			l0.055664-0.035156l0.065918-0.005859l0.041992,0.039063l0.19043,0.334961l0.005859,0.06543l-0.039063,0.041992
			l-0.049805,0.025391C6.884766,40.867188,6.872559,40.870117,6.86084,40.870117z"/>
		<path style="fill:#A9CDA6;" d="M7.597168,40.726563c-0.038086,0-0.069824-0.023438-0.080078-0.060547l-0.207031-0.649414
			c-0.012695-0.040039,0.005371-0.082031,0.041992-0.101563l0.069336-0.03418l0.07373-0.003906l0.049316,0.058594l0.20459,0.664063
			l-0.009766,0.068359l-0.052246,0.037109c-0.022949,0.007813-0.043945,0.013672-0.05957,0.016602L7.597168,40.726563z"/>
		<path style="fill:#A9CDA6;" d="M8.387207,39.619141l0.104004,0.913086l-0.021973,0.068359L8.40918,40.635742
			c-0.043945,0.003906-0.083008,0.003906-0.094727,0.003906c-0.052246,0.003906-0.095215-0.03418-0.099121-0.085938
			l-0.085938-0.926758l0.024902-0.072266l0.078125-0.030273l0.072754,0.008789
			C8.348145,39.541992,8.383301,39.571289,8.387207,39.619141z"/>
		<path style="fill:#A9CDA6;" d="M9.027344,40.725586l-0.064941-0.017578L8.90625,40.663086l-0.005859-0.067383l0.207031-0.664063
			l0.024902-0.027344c0.007813-0.012695,0.016113-0.018555,0.024902-0.022461l0.041016-0.004883l0.033203,0.005859
			l0.063965,0.033203c0.036621,0.019531,0.054688,0.061523,0.041992,0.101563l-0.205078,0.649414
			c-0.013184,0.038086-0.043945,0.061523-0.081055,0.061523L9.027344,40.725586z"/>
		<path style="fill:#A9CDA6;" d="M9.787598,40.870117c-0.011719,0-0.023926-0.00293-0.033691-0.009766l-0.057129-0.030273
			L9.654785,40.77832l0.01709-0.057617l0.191895-0.333984l0.050781-0.038086l0.060059,0.012695l0.04834,0.032227
			c0.035645,0.020508,0.047852,0.064453,0.027832,0.098633l-0.198242,0.34082
			C9.838867,40.855469,9.814941,40.870117,9.787598,40.870117z"/>
	</g>
</g>
<g id="roughgrass_x5F_bd_1_">
	<g id="RoughGrass_x5F_FC_3_">
		<path style="fill:#A9CDA6;" d="M9.5625,38.418945l0.010254,0.056641l-0.041016,0.042969L9.48877,38.540039
			c-0.030273,0.012695-0.062988,0.00293-0.083008-0.023438L9.25,38.293945l-0.009766-0.057617l0.035645-0.042969l0.043457-0.022461
			c0.029785-0.013672,0.06543-0.00293,0.086426,0.022461L9.5625,38.418945z"/>
		<path style="fill:#A9CDA6;" d="M10.705566,38.146484c0,0.003906,0,0.007813-0.003906,0.011719
			c-0.01123-0.015625-0.021973-0.025391-0.037109-0.040039c-0.047363-0.056641-0.133301-0.132813-0.133301-0.132813
			c-0.037109-0.123047,0.052734-0.328125,0.052734-0.328125c-0.014648-0.140625,0.010254-0.350586,0.010254-0.350586
			C10.938477,37.761719,10.705566,38.146484,10.705566,38.146484z"/>
		<path style="fill:#A9CDA6;" d="M10.70166,38.157227c0.03418,0.041016,0.09375,0.05957,0.116211,0.173828l-0.054199,0.022461
			l-0.118652-0.010742C10.64209,38.275391,10.668457,38.224609,10.70166,38.157227z"/>
		<path style="fill:#A9CDA6;" d="M11.758301,37.71875l-0.225098,0.224609c0,0-0.062012,0.052734-0.163086,0.290039
			l-0.010742,0.116211c0,0-0.087891,0.045898-0.200684-0.021484c0,0,0.051758-0.145508,0.062988-0.292969
			c0,0,0.009766-0.522461,0.253418-0.609375c0,0,0.181152-0.091797,0.067871,0.046875c0,0-0.148926,0.199219-0.152832,0.438477
			C11.391113,37.910156,11.543945,37.707031,11.758301,37.71875z"/>
		<path style="fill:#A9CDA6;" d="M12.746094,38.236328l-0.009766,0.057617l-0.155762,0.22168
			c-0.02002,0.026367-0.052734,0.036133-0.083008,0.023438l-0.042969-0.020508l-0.039063-0.042969l0.010254-0.056641
			l0.154785-0.226563c0.02002-0.025391,0.056641-0.036133,0.085449-0.022461l0.042969,0.022461L12.746094,38.236328z"/>
		<path style="fill:#A9CDA6;" d="M10.059082,37.977539l0.105957,0.348633l-0.00293,0.06543l-0.042969,0.039063
			c-0.029785,0.012695-0.049805,0.017578-0.060059,0.017578c-0.032715,0.006836-0.064453-0.012695-0.075684-0.048828
			l-0.105957-0.342773v-0.06543l0.042969-0.040039l0.053223-0.020508C10.010254,37.915039,10.045898,37.938477,10.059082,37.977539z
			"/>
		<path style="fill:#A9CDA6;" d="M12.032715,37.930664l0.052734,0.020508l0.043457,0.040039v0.06543l-0.106445,0.342773
			c-0.009766,0.036133-0.042969,0.055664-0.075195,0.047852c-0.010254,0-0.030273-0.004883-0.060059-0.017578l-0.042969-0.038086
			l-0.00293-0.066406l0.105957-0.348633C11.959961,37.938477,11.996582,37.915039,12.032715,37.930664z"/>
	</g>
</g>
<g id="boulder_x5F_bd_2_">
	<path style="fill:#BEBEB4;" d="M5.250977,37.74707c-0.008301,0.000977-0.040039,0.038086-0.037109,0.076172
		s0.032715,0.088867,0.079102,0.085938c0.045898-0.00293,0.210938,0.006836,0.362305,0.019531
		c0.151855,0.012695,0.507324-0.004883,0.662598-0.012695c0.154297-0.007813,0.365234-0.030273,0.492188-0.041016
		c0.125977-0.010742,0.303711-0.010742,0.428223-0.010742c0.125,0,0.322266,0.023438,0.447754,0.035156
		c0.125977,0.010742,0.214844-0.027344,0.217773-0.06543s-0.044922-0.089844-0.108887-0.095703s-0.102051-0.02832-0.083008-0.049805
		s0.058105-0.081055,0.085938-0.131836c0.027832-0.051758,0.065918-0.144531,0.083984-0.208984
		c0.018066-0.063477,0.036133-0.166992,0.040039-0.227539s0.000977-0.164063-0.008789-0.229492
		c-0.008301-0.063477-0.038086-0.148438-0.064453-0.19043c-0.025879-0.041992-0.077637-0.103516-0.11377-0.135742
		c-0.037109-0.032227-0.102051-0.078125-0.145508-0.100586c-0.042969-0.021484-0.119141-0.048828-0.166992-0.058594
		s-0.12793-0.016602-0.177246-0.014648c-0.049805,0.003906-0.127441,0.018555-0.17334,0.033203
		c-0.045898,0.015625-0.12793,0.047852-0.181152,0.072266c-0.051758,0.023438-0.112793,0.061523-0.133301,0.083984
		c-0.02002,0.022461-0.084961,0.060547-0.145996,0.074219c-0.460449,0.102539-0.613281,0.333008-0.701172,0.40918
		c-0.087891,0.075195-0.150879,0.171875-0.152832,0.171875s-0.007813,0.003906-0.013184,0.009766
		C5.739258,37.25,5.732422,37.254883,5.728516,37.256836c-0.003418,0.000977-0.008301,0.004883-0.009277,0.006836
		s-0.004883,0.006836-0.008789,0.008789c-0.00293,0.001953-0.007324,0.007813-0.009277,0.011719
		s-0.003906,0.007813-0.005859,0.009766s-0.004883,0.007813-0.006836,0.012695
		c-0.001953,0.005859-0.04834,0.032227-0.102051,0.060547c-0.054688,0.02832-0.145508,0.091797-0.203613,0.142578
		c-0.057129,0.050781-0.106934,0.124023-0.109863,0.164063C5.269043,37.712891,5.258789,37.746094,5.250977,37.74707z
		 M5.409668,37.735352c-0.001953,0-0.00293-0.015625-0.000977-0.033203c0.000977-0.018555,0.037109-0.064453,0.080078-0.101563
		c0.041992-0.037109,0.105469-0.083008,0.142578-0.102539c0.038086-0.018555,0.067871-0.033203,0.068848-0.03125
		s0.004883,0.006836,0.009277,0.011719c0.004883,0.003906,0.039063,0.033203,0.07666,0.064453
		c0.038086,0.030273,0.108398,0.073242,0.157227,0.092773c0.047363,0.021484,0.130371,0.041016,0.182617,0.044922
		c0.051758,0.004883,0.133789,0,0.182617-0.010742c0.050293-0.008789,0.08252-0.048828,0.074707-0.084961
		s-0.049316-0.058594-0.093262-0.048828c-0.043457,0.009766-0.111328,0.014648-0.151367,0.010742
		s-0.104004-0.019531-0.143066-0.036133c-0.037598-0.014648-0.096191-0.046875-0.124512-0.075195
		c-0.087891-0.09375,0.062988-0.229492,0.153809-0.306641c0.09082-0.079102,0.290039-0.311523,0.580566-0.330078
		c0.025879-0.000977,0.043945,0.010742,0.042969,0.038086c-0.000977,0.02832,0.027832,0.120117,0.038086,0.152344
		c0.010742,0.032227,0.16748,0.149414,0.222168,0.0625c0.02002-0.032227-0.09375-0.086914-0.103027-0.111328
		c-0.007813-0.025391-0.020996-0.089844-0.020996-0.113281c0.000977-0.023438,0.008301-0.056641,0.01709-0.075195
		c0.007324-0.019531,0.026855-0.049805,0.042969-0.066406c0.01709-0.018555,0.066895-0.048828,0.112305-0.068359
		c0.044922-0.021484,0.11377-0.046875,0.152832-0.061523c0.039063-0.013672,0.102539-0.024414,0.141602-0.026367
		s0.103027,0.00293,0.141113,0.010742c0.038574,0.007813,0.098633,0.029297,0.132813,0.045898
		c0.035156,0.018555,0.086426,0.052734,0.115723,0.080078c0.029785,0.027344,0.069824,0.073242,0.088867,0.102539
		c0.02002,0.030273,0.041992,0.097656,0.048828,0.148438c0.006836,0.051758,0.010254,0.139648,0.005859,0.196289
		C7.780762,37.167969,7.764648,37.257813,7.75,37.3125c-0.016113,0.054688-0.050293,0.135742-0.076172,0.181641
		s-0.072754,0.112305-0.104492,0.150391c-0.033203,0.038086-0.072754,0.067383-0.09082,0.06543
		c-0.016113-0.000977-0.13623-0.001953-0.265137-0.001953c-0.128418,0-0.338379,0.009766-0.463867,0.022461
		c-0.125977,0.011719-0.354004,0.026367-0.505859,0.033203c-0.150879,0.008789-0.399414,0.004883-0.552246-0.007813
		C5.538574,37.745117,5.411621,37.735352,5.409668,37.735352z"/>
</g>
<g id="heath_x5F_bd_8_" style="enable-background:new    ;">
	<g id="Heath_x5F_FC_10_">
		<path style="fill:#A9CDA6;" d="M25.041504,35.594727c-0.025879,0-0.05127-0.013672-0.063965-0.037109l-0.198242-0.34082
			c-0.008789-0.015625-0.011719-0.033203-0.006836-0.050781c0.003906-0.020508,0.018066-0.037109,0.035156-0.047852
			l0.055664-0.035156l0.065918-0.005859l0.041992,0.039063l0.19043,0.334961l0.005859,0.06543l-0.039063,0.041992
			l-0.049805,0.025391C25.06543,35.591797,25.053223,35.594727,25.041504,35.594727z"/>
		<path style="fill:#A9CDA6;" d="M25.777344,35.451172c-0.038086,0-0.069336-0.023438-0.080078-0.060547l-0.206543-0.649414
			c-0.012695-0.040039,0.005371-0.082031,0.041504-0.101563l0.069336-0.03418l0.074219-0.003906l0.048828,0.058594
			l0.205078,0.664063l-0.009766,0.068359l-0.052734,0.037109c-0.022461,0.007813-0.043945,0.013672-0.05957,0.016602
			L25.777344,35.451172z"/>
		<path style="fill:#A9CDA6;" d="M26.568359,34.34375l0.103516,0.913086l-0.021484,0.068359l-0.060547,0.035156
			c-0.043945,0.003906-0.083008,0.003906-0.094727,0.003906c-0.052734,0.003906-0.095703-0.03418-0.099609-0.085938
			l-0.085938-0.926758l0.025391-0.072266l0.078125-0.030273l0.072266,0.008789
			C26.529297,34.266602,26.564453,34.295898,26.568359,34.34375z"/>
		<path style="fill:#A9CDA6;" d="M27.208008,35.450195l-0.064453-0.017578l-0.056641-0.044922l-0.005859-0.067383l0.207031-0.664063
			l0.025391-0.027344c0.007813-0.012695,0.015625-0.018555,0.024414-0.022461l0.041016-0.004883l0.033203,0.005859
			l0.064453,0.033203c0.036133,0.019531,0.054688,0.061523,0.041992,0.101563l-0.205078,0.649414
			c-0.013672,0.038086-0.043945,0.061523-0.081055,0.061523L27.208008,35.450195z"/>
		<path style="fill:#A9CDA6;" d="M27.967773,35.594727c-0.011719,0-0.023438-0.00293-0.033203-0.009766l-0.057617-0.030273
			l-0.041992-0.051758l0.017578-0.057617l0.191406-0.333984l0.050781-0.038086l0.060547,0.012695l0.047852,0.032227
			c0.036133,0.020508,0.047852,0.064453,0.02832,0.098633l-0.198242,0.34082
			C28.019531,35.580078,27.995117,35.594727,27.967773,35.594727z"/>
	</g>
</g>
<g id="roughgrass_x5F_bd_8_" style="enable-background:new    ;">
	<g id="RoughGrass_x5F_FC_10_">
		<path style="fill:#A9CDA6;" d="M27.743164,33.143555l0.010742,0.056641l-0.041016,0.042969l-0.042969,0.021484
			c-0.030273,0.012695-0.063477,0.00293-0.083008-0.023438l-0.15625-0.222656l-0.009766-0.057617l0.035156-0.042969L27.5,32.895508
			c0.029297-0.013672,0.06543-0.00293,0.086914,0.022461L27.743164,33.143555z"/>
		<path style="fill:#A9CDA6;" d="M28.886719,32.871094c0,0.003906,0,0.007813-0.003906,0.011719
			c-0.011719-0.015625-0.022461-0.025391-0.037109-0.040039c-0.047852-0.056641-0.133789-0.132813-0.133789-0.132813
			c-0.037109-0.123047,0.052734-0.328125,0.052734-0.328125C28.75,32.241211,28.774414,32.03125,28.774414,32.03125
			C29.119141,32.486328,28.886719,32.871094,28.886719,32.871094z"/>
		<path style="fill:#A9CDA6;" d="M28.882813,32.881836c0.03418,0.041016,0.09375,0.05957,0.116211,0.173828l-0.054688,0.022461
			l-0.119141-0.010742C28.822266,33,28.849609,32.949219,28.882813,32.881836z"/>
		<path style="fill:#A9CDA6;" d="M29.938477,32.443359l-0.224609,0.224609c0,0-0.061523,0.052734-0.163086,0.290039
			l-0.010742,0.116211c0,0-0.087891,0.045898-0.201172-0.021484c0,0,0.051758-0.145508,0.063477-0.292969
			c0,0,0.009766-0.522461,0.253906-0.609375c0,0,0.180664-0.091797,0.067383,0.046875c0,0-0.148438,0.199219-0.152344,0.438477
			C29.572266,32.634766,29.724609,32.431641,29.938477,32.443359z"/>
		<path style="fill:#A9CDA6;" d="M30.926758,32.960938l-0.009766,0.057617l-0.15625,0.22168
			c-0.019531,0.026367-0.052734,0.036133-0.083008,0.023438l-0.042969-0.020508l-0.039063-0.042969l0.010742-0.056641
			l0.154297-0.226563c0.020508-0.025391,0.057617-0.036133,0.085938-0.022461l0.042969,0.022461L30.926758,32.960938z"/>
		<path style="fill:#A9CDA6;" d="M28.240234,32.702148l0.105469,0.348633l-0.00293,0.06543l-0.042969,0.039063
			c-0.029297,0.012695-0.049805,0.017578-0.05957,0.017578c-0.033203,0.006836-0.06543-0.012695-0.076172-0.048828
			l-0.106445-0.342773v-0.06543l0.042969-0.040039l0.053711-0.020508C28.191406,32.639648,28.226563,32.663086,28.240234,32.702148z
			"/>
		<path style="fill:#A9CDA6;" d="M30.213867,32.655273l0.052734,0.020508l0.042969,0.040039v0.06543l-0.106445,0.342773
			c-0.009766,0.036133-0.042969,0.055664-0.075195,0.047852c-0.010742,0-0.030273-0.004883-0.060547-0.017578l-0.042969-0.038086
			l-0.00293-0.066406l0.106445-0.348633C30.140625,32.663086,30.177734,32.639648,30.213867,32.655273z"/>
	</g>
</g>
<g id="boulder_x5F_bd_3_" style="enable-background:new    ;">
	<path style="fill:#BEBEB4;" d="M23.431641,32.47168c-0.008301,0.000977-0.040039,0.038086-0.037109,0.076172
		s0.032715,0.088867,0.079102,0.085938c0.045898-0.00293,0.210938,0.006836,0.362305,0.019531
		c0.151855,0.012695,0.507324-0.004883,0.662598-0.012695c0.154297-0.007813,0.365234-0.030273,0.492188-0.041016
		c0.125977-0.010742,0.303711-0.010742,0.428223-0.010742c0.125,0,0.322266,0.023438,0.448242,0.035156
		c0.125,0.010742,0.213867-0.027344,0.216797-0.06543s-0.044922-0.089844-0.108398-0.095703s-0.101563-0.02832-0.083008-0.049805
		c0.019531-0.021484,0.058594-0.081055,0.085938-0.131836c0.027344-0.051758,0.06543-0.144531,0.083984-0.208984
		c0.017578-0.063477,0.036133-0.166992,0.040039-0.227539s0.000977-0.164063-0.008789-0.229492
		c-0.008789-0.063477-0.038086-0.148438-0.064453-0.19043s-0.077148-0.103516-0.113281-0.135742
		c-0.037109-0.032227-0.102539-0.078125-0.146484-0.100586c-0.042969-0.021484-0.119141-0.048828-0.166992-0.058594
		c-0.046875-0.009766-0.127441-0.016602-0.176758-0.014648c-0.049805,0.003906-0.127441,0.018555-0.17334,0.033203
		c-0.045898,0.015625-0.12793,0.047852-0.181152,0.072266c-0.051758,0.023438-0.112793,0.061523-0.133301,0.083984
		c-0.02002,0.022461-0.084961,0.060547-0.145996,0.074219c-0.460449,0.102539-0.613281,0.333008-0.701172,0.40918
		c-0.087891,0.075195-0.150879,0.171875-0.152832,0.171875s-0.007813,0.003906-0.013184,0.009766
		c-0.004883,0.004883-0.011719,0.009766-0.015625,0.011719c-0.003418,0.000977-0.008301,0.004883-0.009277,0.006836
		s-0.004883,0.006836-0.008789,0.008789c-0.00293,0.001953-0.007324,0.007813-0.009277,0.011719
		s-0.003906,0.007813-0.005859,0.009766s-0.004883,0.007813-0.006836,0.012695
		c-0.001953,0.005859-0.04834,0.032227-0.102051,0.060547c-0.054688,0.02832-0.145508,0.091797-0.203613,0.142578
		c-0.057129,0.050781-0.106934,0.124023-0.109863,0.164063C23.449707,32.4375,23.439453,32.470703,23.431641,32.47168z
		 M23.590332,32.459961c-0.001953,0-0.00293-0.015625-0.000977-0.033203c0.000977-0.018555,0.037109-0.064453,0.080078-0.101563
		c0.041992-0.037109,0.105469-0.083008,0.142578-0.102539c0.038086-0.018555,0.067871-0.033203,0.068848-0.03125
		s0.004883,0.006836,0.009277,0.011719c0.004883,0.003906,0.039063,0.033203,0.07666,0.064453
		c0.038086,0.030273,0.108398,0.073242,0.157227,0.092773c0.047363,0.021484,0.130371,0.041016,0.182617,0.044922
		c0.051758,0.004883,0.133789,0,0.182617-0.010742c0.050293-0.008789,0.08252-0.048828,0.074707-0.084961
		s-0.049316-0.058594-0.093262-0.048828c-0.043457,0.009766-0.111328,0.014648-0.151367,0.010742
		s-0.104004-0.019531-0.143066-0.036133c-0.037598-0.014648-0.096191-0.046875-0.124512-0.075195
		c-0.087891-0.09375,0.062988-0.229492,0.153809-0.306641c0.09082-0.079102,0.290039-0.311523,0.580566-0.330078
		c0.025879-0.000977,0.043945,0.010742,0.042969,0.038086c-0.000977,0.02832,0.027832,0.120117,0.038086,0.152344
		c0.010742,0.032227,0.16748,0.149414,0.222168,0.0625c0.02002-0.032227-0.09375-0.086914-0.103027-0.111328
		c-0.007813-0.025391-0.020996-0.089844-0.020996-0.113281c0.000977-0.023438,0.008301-0.056641,0.01709-0.075195
		c0.007324-0.019531,0.026855-0.049805,0.042969-0.066406c0.01709-0.018555,0.066895-0.048828,0.112305-0.068359
		c0.044922-0.021484,0.11377-0.046875,0.152832-0.061523c0.039063-0.013672,0.102539-0.024414,0.141602-0.026367
		s0.103027,0.00293,0.141113,0.010742s0.098633,0.029297,0.132813,0.045898c0.035156,0.018555,0.086914,0.052734,0.116211,0.080078
		s0.069336,0.073242,0.088867,0.102539c0.019531,0.030273,0.041992,0.097656,0.048828,0.148438
		c0.006836,0.051758,0.009766,0.139648,0.005859,0.196289c-0.003906,0.054688-0.020508,0.144531-0.035156,0.199219
		c-0.015625,0.054688-0.049805,0.135742-0.076172,0.181641c-0.025391,0.045898-0.072266,0.112305-0.104492,0.150391
		c-0.033203,0.038086-0.073242,0.067383-0.09082,0.06543c-0.016602-0.000977-0.135742-0.001953-0.265137-0.001953
		c-0.128418,0-0.338379,0.009766-0.463867,0.022461c-0.125977,0.011719-0.354004,0.026367-0.505859,0.033203
		c-0.150879,0.008789-0.399414,0.004883-0.552246-0.007813C23.719238,32.469727,23.592285,32.459961,23.590332,32.459961z"/>
</g>
<g id="heath_x5F_bd_2_" style="enable-background:new    ;">
	<g id="Heath_x5F_FC_4_">
		<path style="fill:#A9CDA6;" d="M4.652832,26.913086c-0.025879,0-0.05127-0.013672-0.063965-0.037109l-0.198242-0.34082
			c-0.008789-0.015625-0.011719-0.033203-0.006836-0.050781c0.003906-0.020508,0.018066-0.037109,0.035156-0.047852
			l0.055664-0.035156l0.065918-0.005859L4.58252,26.43457l0.19043,0.334961l0.005859,0.06543l-0.039063,0.041992l-0.049805,0.025391
			C4.676758,26.910156,4.664551,26.913086,4.652832,26.913086z"/>
		<path style="fill:#A9CDA6;" d="M5.38916,26.769531c-0.038086,0-0.069824-0.023438-0.080078-0.060547L5.102051,26.05957
			c-0.012695-0.040039,0.005371-0.082031,0.041992-0.101563l0.069336-0.03418l0.07373-0.003906l0.049316,0.058594l0.20459,0.664063
			L5.53125,26.710938l-0.052246,0.037109c-0.022949,0.007813-0.043945,0.013672-0.05957,0.016602L5.38916,26.769531z"/>
		<path style="fill:#A9CDA6;" d="M6.179199,25.662109l0.104004,0.913086L6.26123,26.643555l-0.060059,0.035156
			c-0.043945,0.003906-0.083008,0.003906-0.094727,0.003906c-0.052246,0.003906-0.095215-0.03418-0.099121-0.085938
			l-0.085938-0.926758l0.024902-0.072266l0.078125-0.030273l0.072754,0.008789
			C6.140137,25.584961,6.175293,25.614258,6.179199,25.662109z"/>
		<path style="fill:#A9CDA6;" d="M6.819336,26.768555l-0.064941-0.017578l-0.056152-0.044922l-0.005859-0.067383l0.207031-0.664063
			l0.024902-0.027344c0.007813-0.012695,0.016113-0.018555,0.024902-0.022461l0.041016-0.004883l0.033203,0.005859
			l0.063965,0.033203c0.036621,0.019531,0.054688,0.061523,0.041992,0.101563l-0.205078,0.649414
			c-0.013184,0.038086-0.043945,0.061523-0.081055,0.061523L6.819336,26.768555z"/>
		<path style="fill:#A9CDA6;" d="M7.57959,26.913086c-0.011719,0-0.023926-0.00293-0.033691-0.009766L7.48877,26.873047
			l-0.041992-0.051758l0.01709-0.057617l0.191895-0.333984l0.050781-0.038086l0.060059,0.012695l0.04834,0.032227
			c0.035645,0.020508,0.047852,0.064453,0.027832,0.098633l-0.198242,0.34082
			C7.630859,26.898438,7.606934,26.913086,7.57959,26.913086z"/>
	</g>
</g>
<g id="roughgrass_x5F_bd_2_" style="enable-background:new    ;">
	<g id="RoughGrass_x5F_FC_4_">
		<path style="fill:#A9CDA6;" d="M7.354492,24.461914l0.010254,0.056641L7.32373,24.561523l-0.042969,0.021484
			c-0.030273,0.012695-0.062988,0.00293-0.083008-0.023438l-0.155762-0.222656l-0.009766-0.057129l0.035645-0.042969
			l0.043457-0.022461c0.029785-0.013672,0.06543-0.00293,0.086426,0.022461L7.354492,24.461914z"/>
		<path style="fill:#A9CDA6;" d="M8.497559,24.189941c0,0.003906,0,0.007813-0.003906,0.011719
			c-0.01123-0.015625-0.021973-0.025391-0.037109-0.040039c-0.047363-0.056641-0.133301-0.132813-0.133301-0.132813
			c-0.037109-0.123047,0.052734-0.328125,0.052734-0.328125c-0.014648-0.140137,0.010254-0.350098,0.010254-0.350098
			C8.730469,23.805176,8.497559,24.189941,8.497559,24.189941z"/>
		<path style="fill:#A9CDA6;" d="M8.493652,24.200684c0.03418,0.041016,0.09375,0.05957,0.116211,0.17334l-0.054199,0.022461
			l-0.118652-0.010742C8.434082,24.318359,8.460449,24.268066,8.493652,24.200684z"/>
		<path style="fill:#A9CDA6;" d="M9.550293,23.762207l-0.225098,0.224609c0,0-0.062012,0.052734-0.163086,0.290039
			l-0.010742,0.115723c0,0-0.087891,0.045898-0.200684-0.021484c0,0,0.051758-0.14502,0.062988-0.29248
			c0,0,0.009766-0.521973,0.253418-0.608887c0,0,0.181152-0.091797,0.067871,0.046875c0,0-0.148926,0.19873-0.152832,0.437988
			C9.183105,23.953613,9.335938,23.750488,9.550293,23.762207z"/>
		<path style="fill:#A9CDA6;" d="M10.538086,24.279785l-0.009766,0.057129l-0.155762,0.22168
			c-0.02002,0.026367-0.052734,0.036133-0.083008,0.023438l-0.042969-0.020508l-0.039063-0.042969l0.010254-0.056641
			l0.154785-0.226074c0.02002-0.025391,0.056641-0.036133,0.085449-0.022461l0.042969,0.022461L10.538086,24.279785z"/>
		<path style="fill:#A9CDA6;" d="M7.851074,24.020996l0.105957,0.348145l-0.00293,0.06543l-0.042969,0.039063
			c-0.029785,0.012695-0.049805,0.017578-0.060059,0.017578c-0.032715,0.006836-0.064453-0.012695-0.075684-0.048828
			l-0.105957-0.342285v-0.06543l0.042969-0.040039l0.053223-0.020508C7.802246,23.958496,7.837891,23.981934,7.851074,24.020996z"/>
		<path style="fill:#A9CDA6;" d="M9.824707,23.974121l0.052734,0.020508l0.043457,0.040039v0.06543l-0.106445,0.342285
			c-0.009766,0.036133-0.042969,0.055664-0.075195,0.047852c-0.010254,0-0.030273-0.004883-0.060059-0.017578L9.63623,24.43457
			l-0.00293-0.066406l0.105957-0.348145C9.751953,23.981934,9.788574,23.958496,9.824707,23.974121z"/>
	</g>
</g>
<g id="boulder_x5F_bd_6_" style="enable-background:new    ;">
	<path style="fill:#BEBEB4;" d="M3.042969,23.790527c-0.008301,0.000977-0.040039,0.037598-0.037109,0.075684
		s0.032715,0.088867,0.079102,0.085938c0.045898-0.00293,0.210938,0.006836,0.362305,0.019531
		c0.151855,0.012695,0.507324-0.004883,0.662598-0.012695c0.154297-0.007813,0.365234-0.030273,0.492188-0.041016
		c0.125977-0.010742,0.303711-0.010742,0.428223-0.010742c0.125,0,0.322266,0.023438,0.447754,0.035156
		c0.125977,0.010742,0.214844-0.027344,0.217773-0.06543s-0.044922-0.089355-0.108887-0.095215s-0.102051-0.02832-0.083008-0.049805
		s0.058105-0.081055,0.085938-0.132813s0.065918-0.144531,0.083984-0.208496c0.018066-0.063477,0.036133-0.166992,0.040039-0.227539
		s0.000977-0.163574-0.008789-0.229004c-0.008301-0.063477-0.038086-0.149414-0.064453-0.191406
		c-0.025879-0.041992-0.077637-0.103516-0.11377-0.135742c-0.037109-0.031738-0.102051-0.077637-0.145508-0.100098
		c-0.042969-0.021484-0.119141-0.048828-0.166992-0.058594s-0.12793-0.016602-0.177246-0.014648
		c-0.049805,0.003906-0.127441,0.018555-0.17334,0.033203c-0.045898,0.015625-0.12793,0.047852-0.181152,0.072266
		c-0.051758,0.023438-0.112793,0.061035-0.133301,0.083496c-0.02002,0.022461-0.084961,0.060547-0.145996,0.074219
		c-0.460449,0.103516-0.613281,0.333496-0.701172,0.409668C3.614258,23.181641,3.55127,23.27832,3.549316,23.27832
		s-0.007813,0.003906-0.013184,0.009766c-0.004883,0.004883-0.011719,0.009766-0.015625,0.011719
		c-0.003418,0.000977-0.008301,0.004883-0.009277,0.006836s-0.004883,0.006836-0.008789,0.008789
		c-0.00293,0.001953-0.007324,0.007813-0.009277,0.011719s-0.003906,0.007813-0.005859,0.009766
		s-0.004883,0.007813-0.006836,0.012695c-0.001953,0.005859-0.04834,0.032227-0.102051,0.060059
		c-0.054688,0.02832-0.145508,0.091797-0.203613,0.142578c-0.057129,0.050781-0.106934,0.125-0.109863,0.165039
		C3.061035,23.756348,3.050781,23.789551,3.042969,23.790527z M3.20166,23.778809c-0.001953,0-0.00293-0.015625-0.000977-0.033203
		c0.000977-0.018555,0.037109-0.064453,0.080078-0.101563c0.041992-0.038086,0.105469-0.083984,0.142578-0.103516
		c0.038086-0.018555,0.067871-0.033203,0.068848-0.03125s0.004883,0.006836,0.009277,0.011719
		c0.004883,0.003906,0.039063,0.033203,0.07666,0.064453c0.038086,0.03125,0.108398,0.074219,0.157227,0.09375
		c0.047363,0.021484,0.130371,0.041016,0.182617,0.044922c0.051758,0.004883,0.133789,0,0.182617-0.010742
		c0.050293-0.008789,0.08252-0.048828,0.074707-0.084961c-0.007813-0.037109-0.049316-0.05957-0.093262-0.049805
		c-0.043457,0.009766-0.111328,0.014648-0.151367,0.010742s-0.104004-0.019531-0.143066-0.036133
		C3.75,23.538574,3.691406,23.506348,3.663086,23.478027c-0.087891-0.093262,0.062988-0.229004,0.153809-0.306152
		c0.09082-0.079102,0.290039-0.311035,0.580566-0.32959c0.025879-0.000977,0.043945,0.010742,0.042969,0.038086
		c-0.000977,0.02832,0.027832,0.120117,0.038086,0.151855c0.010742,0.032227,0.16748,0.149414,0.222168,0.0625
		c0.02002-0.032227-0.09375-0.086914-0.103027-0.11084c-0.007813-0.025391-0.020996-0.089844-0.020996-0.113281
		c0.000977-0.023438,0.008301-0.056641,0.01709-0.076172c0.007324-0.019531,0.026855-0.049805,0.042969-0.066406
		c0.01709-0.018555,0.066895-0.048828,0.112305-0.068359c0.044922-0.021484,0.11377-0.046875,0.152832-0.061523
		c0.039063-0.013184,0.102539-0.023926,0.141602-0.025879s0.103027,0.00293,0.141113,0.010742
		c0.038574,0.007813,0.098633,0.028809,0.132813,0.04541c0.035156,0.018555,0.086426,0.052734,0.115723,0.080078
		c0.029785,0.027344,0.069824,0.073242,0.088867,0.103516c0.02002,0.030273,0.041992,0.097656,0.048828,0.148438
		c0.006836,0.05127,0.010254,0.13916,0.005859,0.195801c-0.003906,0.054688-0.02002,0.144531-0.034668,0.199219
		c-0.016113,0.054199-0.050293,0.135254-0.076172,0.181152s-0.072754,0.113281-0.104492,0.151367
		c-0.033203,0.038086-0.072754,0.067383-0.09082,0.06543c-0.016113-0.000977-0.13623-0.001953-0.265137-0.001953
		c-0.128418,0-0.338379,0.009766-0.463867,0.022461c-0.125977,0.011719-0.354004,0.026367-0.505859,0.033203
		c-0.150879,0.008789-0.399414,0.004883-0.552246-0.007813C3.330566,23.788574,3.203613,23.778809,3.20166,23.778809z"/>
</g>
<g id="heath_x5F_bd_3_" style="enable-background:new    ;">
	<g id="Heath_x5F_FC_5_">
		<path style="fill:#A9CDA6;" d="M9.04541,16.50293c-0.025879,0-0.05127-0.013672-0.063965-0.037109L8.783203,16.125
			c-0.008789-0.015625-0.011719-0.033203-0.006836-0.050781c0.003906-0.020508,0.018066-0.037109,0.035156-0.047852
			l0.055664-0.035156l0.065918-0.005859l0.041992,0.039063l0.19043,0.334961l0.005859,0.06543l-0.039063,0.041992L9.08252,16.492188
			C9.069336,16.5,9.057129,16.50293,9.04541,16.50293z"/>
		<path style="fill:#A9CDA6;" d="M9.781738,16.359375c-0.038086,0-0.069824-0.023438-0.080078-0.060547l-0.207031-0.649414
			C9.481934,15.609375,9.5,15.567383,9.536621,15.547852l0.069336-0.03418l0.07373-0.003906l0.049316,0.058594l0.20459,0.664063
			l-0.009766,0.068359l-0.052246,0.037109c-0.022949,0.007813-0.043945,0.013672-0.05957,0.016602L9.781738,16.359375z"/>
		<path style="fill:#A9CDA6;" d="M10.571777,15.251953l0.104004,0.913086l-0.021973,0.068359l-0.060059,0.035156
			c-0.043945,0.003906-0.083008,0.003906-0.094727,0.003906c-0.052246,0.003906-0.095215-0.03418-0.099121-0.085938
			l-0.085938-0.926758l0.024902-0.072266l0.078125-0.030273l0.072754,0.008789
			C10.532715,15.174805,10.567871,15.204102,10.571777,15.251953z"/>
		<path style="fill:#A9CDA6;" d="M11.211914,16.358398l-0.064941-0.017578l-0.056152-0.044922l-0.005859-0.067383l0.207031-0.664063
			l0.024902-0.027344c0.007813-0.012695,0.016113-0.018555,0.024902-0.022461l0.041016-0.004883l0.033203,0.005859
			l0.063965,0.033203c0.036621,0.019531,0.054688,0.061523,0.041992,0.101563l-0.205078,0.649414
			c-0.013184,0.038086-0.043945,0.061523-0.081055,0.061523L11.211914,16.358398z"/>
		<path style="fill:#A9CDA6;" d="M11.972168,16.50293c-0.011719,0-0.023926-0.00293-0.033691-0.009766l-0.057129-0.030273
			l-0.041992-0.051758l0.01709-0.057617l0.191895-0.333984l0.050781-0.038086l0.060059,0.012695l0.04834,0.032227
			c0.035645,0.020508,0.047852,0.064453,0.027832,0.098633l-0.198242,0.34082
			C12.023438,16.488281,11.999512,16.50293,11.972168,16.50293z"/>
	</g>
</g>
<g id="roughgrass_x5F_bd_3_" style="enable-background:new    ;">
	<g id="RoughGrass_x5F_FC_5_">
		<path style="fill:#A9CDA6;" d="M11.74707,14.051758l0.010254,0.056641l-0.041016,0.042969l-0.042969,0.021484
			c-0.030273,0.012695-0.062988,0.00293-0.083008-0.023438l-0.155762-0.222656l-0.009766-0.057129l0.035645-0.042969
			l0.043457-0.022461c0.029785-0.013672,0.06543-0.00293,0.086426,0.022461L11.74707,14.051758z"/>
		<path style="fill:#A9CDA6;" d="M12.890137,13.779785c0,0.003906,0,0.007813-0.003906,0.011719
			c-0.01123-0.015625-0.021973-0.025391-0.037109-0.040039c-0.047363-0.056641-0.133301-0.132813-0.133301-0.132813
			c-0.037109-0.123047,0.052734-0.328125,0.052734-0.328125c-0.014648-0.140137,0.010254-0.350098,0.010254-0.350098
			C13.123047,13.39502,12.890137,13.779785,12.890137,13.779785z"/>
		<path style="fill:#A9CDA6;" d="M12.88623,13.790527c0.03418,0.041016,0.09375,0.05957,0.116211,0.17334l-0.054199,0.022461
			l-0.118652-0.010742C12.82666,13.908203,12.853027,13.85791,12.88623,13.790527z"/>
		<path style="fill:#A9CDA6;" d="M13.942871,13.352051l-0.225098,0.224609c0,0-0.062012,0.052734-0.163086,0.290039
			l-0.010742,0.115723c0,0-0.087891,0.045898-0.200684-0.021484c0,0,0.051758-0.14502,0.062988-0.29248
			c0,0,0.009766-0.521973,0.253418-0.608887c0,0,0.181152-0.091797,0.067871,0.046875c0,0-0.148926,0.19873-0.152832,0.437988
			C13.575684,13.543457,13.728516,13.340332,13.942871,13.352051z"/>
		<path style="fill:#A9CDA6;" d="M14.930664,13.869629l-0.009766,0.057129l-0.155762,0.22168
			c-0.02002,0.026367-0.052734,0.036133-0.083008,0.023438l-0.042969-0.020508l-0.039063-0.042969l0.010254-0.056641
			l0.154785-0.226074c0.02002-0.025391,0.056641-0.036133,0.085449-0.022461l0.042969,0.022461L14.930664,13.869629z"/>
		<path style="fill:#A9CDA6;" d="M12.243652,13.61084l0.105957,0.348145l-0.00293,0.06543l-0.042969,0.039063
			c-0.029785,0.012695-0.049805,0.017578-0.060059,0.017578c-0.032715,0.006836-0.064453-0.012695-0.075684-0.048828
			l-0.105957-0.342285v-0.06543l0.042969-0.040039l0.053223-0.020508C12.194824,13.54834,12.230469,13.571777,12.243652,13.61084z"
			/>
		<path style="fill:#A9CDA6;" d="M14.217285,13.563965l0.052734,0.020508l0.043457,0.040039v0.06543l-0.106445,0.342285
			c-0.009766,0.036133-0.042969,0.055664-0.075195,0.047852c-0.010254,0-0.030273-0.004883-0.060059-0.017578l-0.042969-0.038086
			l-0.00293-0.066406l0.105957-0.348145C14.144531,13.571777,14.181152,13.54834,14.217285,13.563965z"/>
	</g>
</g>
<g id="boulder_x5F_bd_7_" style="enable-background:new    ;">
	<path style="fill:#BEBEB4;" d="M7.435547,13.380371c-0.008301,0.000977-0.040039,0.037598-0.037109,0.075684
		s0.032715,0.088867,0.079102,0.085938c0.045898-0.00293,0.210938,0.006836,0.362305,0.019531
		c0.151855,0.012695,0.507324-0.004883,0.662598-0.012695c0.154297-0.007813,0.365234-0.030273,0.492188-0.041016
		C9.120605,13.49707,9.29834,13.49707,9.422852,13.49707c0.125,0,0.322266,0.023438,0.447754,0.035156
		c0.125977,0.010742,0.214844-0.027344,0.217773-0.06543s-0.044922-0.089355-0.108887-0.095215s-0.102051-0.02832-0.083008-0.049805
		s0.058105-0.081055,0.085938-0.132813s0.065918-0.144531,0.083984-0.208496c0.018066-0.063477,0.036133-0.166992,0.040039-0.227539
		s0.000977-0.163574-0.008789-0.229004c-0.008301-0.063477-0.038086-0.149414-0.064453-0.191406
		c-0.025879-0.041992-0.077637-0.103516-0.11377-0.135742c-0.037109-0.031738-0.102051-0.077637-0.145508-0.100098
		c-0.042969-0.021484-0.119141-0.048828-0.166992-0.058594s-0.12793-0.016602-0.177246-0.014648
		c-0.049805,0.003906-0.127441,0.018555-0.17334,0.033203c-0.045898,0.015625-0.12793,0.047852-0.181152,0.072266
		c-0.051758,0.023438-0.112793,0.061035-0.133301,0.083496c-0.02002,0.022461-0.084961,0.060547-0.145996,0.074219
		c-0.460449,0.103516-0.613281,0.333496-0.701172,0.409668c-0.087891,0.075195-0.150879,0.171875-0.152832,0.171875
		S7.934082,12.87207,7.928711,12.87793c-0.004883,0.004883-0.011719,0.009766-0.015625,0.011719
		c-0.003418,0.000977-0.008301,0.004883-0.009277,0.006836S7.898926,12.90332,7.89502,12.905273
		c-0.00293,0.001953-0.007324,0.007813-0.009277,0.011719s-0.003906,0.007813-0.005859,0.009766S7.875,12.93457,7.873047,12.939453
		c-0.001953,0.005859-0.04834,0.032227-0.102051,0.060059c-0.054688,0.02832-0.145508,0.091797-0.203613,0.142578
		c-0.057129,0.050781-0.106934,0.125-0.109863,0.165039C7.453613,13.346191,7.443359,13.379395,7.435547,13.380371z
		 M7.594238,13.368652c-0.001953,0-0.00293-0.015625-0.000977-0.033203c0.000977-0.018555,0.037109-0.064453,0.080078-0.101563
		c0.041992-0.038086,0.105469-0.083984,0.142578-0.103516c0.038086-0.018555,0.067871-0.033203,0.068848-0.03125
		s0.004883,0.006836,0.009277,0.011719c0.004883,0.003906,0.039063,0.033203,0.07666,0.064453
		c0.038086,0.03125,0.108398,0.074219,0.157227,0.09375c0.047363,0.021484,0.130371,0.041016,0.182617,0.044922
		c0.051758,0.004883,0.133789,0,0.182617-0.010742c0.050293-0.008789,0.08252-0.048828,0.074707-0.084961
		c-0.007813-0.037109-0.049316-0.05957-0.093262-0.049805c-0.043457,0.009766-0.111328,0.014648-0.151367,0.010742
		s-0.104004-0.019531-0.143066-0.036133c-0.037598-0.014648-0.096191-0.046875-0.124512-0.075195
		c-0.087891-0.093262,0.062988-0.229004,0.153809-0.306152c0.09082-0.079102,0.290039-0.311035,0.580566-0.32959
		c0.025879-0.000977,0.043945,0.010742,0.042969,0.038086c-0.000977,0.02832,0.027832,0.120117,0.038086,0.151855
		c0.010742,0.032227,0.16748,0.149414,0.222168,0.0625c0.02002-0.032227-0.09375-0.086914-0.103027-0.11084
		c-0.007813-0.025391-0.020996-0.089844-0.020996-0.113281c0.000977-0.023438,0.008301-0.056641,0.01709-0.076172
		c0.007324-0.019531,0.026855-0.049805,0.042969-0.066406c0.01709-0.018555,0.066895-0.048828,0.112305-0.068359
		c0.044922-0.021484,0.11377-0.046875,0.152832-0.061523c0.039063-0.013184,0.102539-0.023926,0.141602-0.025879
		s0.103027,0.00293,0.141113,0.010742c0.038574,0.007813,0.098633,0.028809,0.132813,0.04541
		c0.035156,0.018555,0.086426,0.052734,0.115723,0.080078c0.029785,0.027344,0.069824,0.073242,0.088867,0.103516
		c0.02002,0.030273,0.041992,0.097656,0.048828,0.148438c0.006836,0.05127,0.010254,0.13916,0.005859,0.195801
		c-0.003906,0.054688-0.02002,0.144531-0.034668,0.199219c-0.016113,0.054199-0.050293,0.135254-0.076172,0.181152
		s-0.072754,0.113281-0.104492,0.151367c-0.033203,0.038086-0.072754,0.067383-0.09082,0.06543
		c-0.016113-0.000977-0.13623-0.001953-0.265137-0.001953c-0.128418,0-0.338379,0.009766-0.463867,0.022461
		c-0.125977,0.011719-0.354004,0.026367-0.505859,0.033203c-0.150879,0.008789-0.399414,0.004883-0.552246-0.007813
		C7.723145,13.378418,7.596191,13.368652,7.594238,13.368652z"/>
</g>
<g id="heath_x5F_bd_4_" style="enable-background:new    ;">
	<g id="Heath_x5F_FC_6_">
		<path style="fill:#A9CDA6;" d="M24.32959,6.719727c-0.025879,0-0.05127-0.013672-0.063965-0.037109l-0.198242-0.34082
			c-0.008789-0.015625-0.011719-0.033203-0.006836-0.050781c0.003906-0.020508,0.018066-0.037109,0.035156-0.047852
			l0.055664-0.035156l0.065918-0.005859l0.041992,0.039063l0.19043,0.334961l0.005859,0.06543l-0.039063,0.041992
			l-0.049805,0.025391C24.353516,6.716797,24.341309,6.719727,24.32959,6.719727z"/>
		<path style="fill:#A9CDA6;" d="M25.065918,6.576172c-0.038086,0-0.069824-0.023438-0.080078-0.060547l-0.207031-0.649414
			c-0.012695-0.040039,0.005371-0.082031,0.041992-0.101563l0.069336-0.03418l0.07373-0.003906l0.049316,0.058594l0.20459,0.664063
			l-0.009766,0.068359l-0.052246,0.037109c-0.022949,0.007813-0.043945,0.013672-0.05957,0.016602L25.065918,6.576172z"/>
		<path style="fill:#A9CDA6;" d="M25.856445,5.46875l0.103516,0.913086l-0.021484,0.068359L25.87793,6.485352
			c-0.043945,0.003906-0.083008,0.003906-0.094727,0.003906c-0.052734,0.003906-0.095703-0.03418-0.099609-0.085938
			l-0.085938-0.926758l0.025391-0.072266l0.078125-0.030273l0.072266,0.008789
			C25.817383,5.391602,25.852539,5.420898,25.856445,5.46875z"/>
		<path style="fill:#A9CDA6;" d="M26.496094,6.575195l-0.064453-0.017578L26.375,6.512695l-0.005859-0.067383l0.207031-0.664063
			l0.025391-0.027344c0.007813-0.012695,0.015625-0.018555,0.024414-0.022461l0.041016-0.004883l0.033203,0.005859
			l0.064453,0.033203c0.036133,0.019531,0.054688,0.061523,0.041992,0.101563l-0.205078,0.649414
			c-0.013672,0.038086-0.043945,0.061523-0.081055,0.061523L26.496094,6.575195z"/>
		<path style="fill:#A9CDA6;" d="M27.255859,6.719727c-0.011719,0-0.023438-0.00293-0.033203-0.009766l-0.057617-0.030273
			L27.123047,6.62793l0.017578-0.057617l0.191406-0.333984l0.050781-0.038086l0.060547,0.012695l0.047852,0.032227
			c0.036133,0.020508,0.047852,0.064453,0.02832,0.098633l-0.198242,0.34082
			C27.307617,6.705078,27.283203,6.719727,27.255859,6.719727z"/>
	</g>
</g>
<g id="roughgrass_x5F_bd_4_" style="enable-background:new    ;">
	<g id="RoughGrass_x5F_FC_6_">
		<path style="fill:#A9CDA6;" d="M27.03125,4.268555l0.010742,0.056641l-0.041016,0.042969l-0.042969,0.021484
			c-0.030273,0.012695-0.063477,0.00293-0.083008-0.023438l-0.15625-0.222656l-0.009766-0.057129l0.035156-0.042969
			l0.043945-0.022461c0.029297-0.013672,0.06543-0.00293,0.086914,0.022461L27.03125,4.268555z"/>
		<path style="fill:#A9CDA6;" d="M28.174805,3.996582c0,0.003906,0,0.007813-0.003906,0.011719
			c-0.011719-0.015625-0.022461-0.025391-0.037109-0.040039C28.085938,3.911621,28,3.835449,28,3.835449
			c-0.037109-0.123047,0.052734-0.328125,0.052734-0.328125C28.038086,3.367188,28.0625,3.157227,28.0625,3.157227
			C28.407227,3.611816,28.174805,3.996582,28.174805,3.996582z"/>
		<path style="fill:#A9CDA6;" d="M28.170898,4.007324c0.03418,0.041016,0.09375,0.05957,0.116211,0.17334l-0.054688,0.022461
			l-0.119141-0.010742C28.110352,4.125,28.137695,4.074707,28.170898,4.007324z"/>
		<path style="fill:#A9CDA6;" d="M29.226563,3.568848l-0.224609,0.224609c0,0-0.061523,0.052734-0.163086,0.290039
			l-0.010742,0.115723c0,0-0.087891,0.045898-0.201172-0.021484c0,0,0.051758-0.14502,0.063477-0.29248
			c0,0,0.009766-0.521973,0.253906-0.608887c0,0,0.180664-0.091797,0.067383,0.046875c0,0-0.148438,0.19873-0.152344,0.437988
			C28.860352,3.760254,29.012695,3.557129,29.226563,3.568848z"/>
		<path style="fill:#A9CDA6;" d="M30.214844,4.086426l-0.009766,0.057129l-0.15625,0.22168
			c-0.019531,0.026367-0.052734,0.036133-0.083008,0.023438l-0.042969-0.020508l-0.039063-0.042969l0.010742-0.056641
			l0.154297-0.226074c0.020508-0.025391,0.057617-0.036133,0.085938-0.022461l0.042969,0.022461L30.214844,4.086426z"/>
		<path style="fill:#A9CDA6;" d="M27.52832,3.827637l0.105469,0.348145l-0.00293,0.06543l-0.042969,0.039063
			c-0.029297,0.012695-0.049805,0.017578-0.05957,0.017578c-0.033203,0.006836-0.06543-0.012695-0.076172-0.048828
			l-0.106445-0.342285v-0.06543l0.042969-0.040039l0.053711-0.020508C27.479492,3.765137,27.514648,3.788574,27.52832,3.827637z"/>
		<path style="fill:#A9CDA6;" d="M29.501953,3.780762l0.052734,0.020508l0.042969,0.040039v0.06543l-0.106445,0.342285
			c-0.009766,0.036133-0.042969,0.055664-0.075195,0.047852c-0.010742,0-0.030273-0.004883-0.060547-0.017578L29.3125,4.241211
			l-0.00293-0.066406l0.106445-0.348145C29.428711,3.788574,29.46582,3.765137,29.501953,3.780762z"/>
	</g>
</g>
<g id="boulder_x5F_bd_10_" style="enable-background:new    ;">
	<path style="fill:#BEBEB4;" d="M22.719238,3.597168c-0.008301,0.000977-0.040039,0.037598-0.037109,0.075684
		s0.032715,0.088867,0.079102,0.085938c0.045898-0.00293,0.210938,0.006836,0.362305,0.019531
		c0.151855,0.012695,0.507324-0.004883,0.662598-0.012695c0.154297-0.007813,0.365234-0.030273,0.492188-0.041016
		c0.125977-0.010742,0.303711-0.010742,0.428223-0.010742c0.125,0,0.322266,0.023438,0.447754,0.035156
		c0.125977,0.010742,0.214844-0.027344,0.217773-0.06543s-0.044922-0.089355-0.108887-0.095215s-0.102051-0.02832-0.083008-0.049805
		s0.058105-0.081055,0.085938-0.132813s0.065918-0.144531,0.083984-0.208496c0.018066-0.063477,0.036133-0.166992,0.040039-0.227539
		s0.000977-0.163574-0.008789-0.229004c-0.008301-0.063477-0.038086-0.149414-0.064453-0.191406
		c-0.025879-0.041992-0.077637-0.103516-0.11377-0.135742c-0.037109-0.031738-0.102051-0.077637-0.145508-0.100098
		c-0.042969-0.021484-0.119141-0.048828-0.166992-0.058594s-0.12793-0.016602-0.177246-0.014648
		c-0.049805,0.003906-0.127441,0.018555-0.17334,0.033203c-0.045898,0.015625-0.12793,0.047852-0.181152,0.072266
		c-0.051758,0.023438-0.112793,0.061035-0.133301,0.083496c-0.02002,0.022461-0.084961,0.060547-0.145996,0.074219
		c-0.460449,0.103516-0.613281,0.333496-0.701172,0.409668c-0.087891,0.075195-0.150879,0.171875-0.152832,0.171875
		s-0.007813,0.003906-0.013184,0.009766c-0.004883,0.004883-0.011719,0.009766-0.015625,0.011719
		c-0.003418,0.000977-0.008301,0.004883-0.009277,0.006836s-0.004883,0.006836-0.008789,0.008789
		c-0.00293,0.001953-0.007324,0.007813-0.009277,0.011719s-0.003906,0.007813-0.005859,0.009766
		s-0.004883,0.007813-0.006836,0.012695c-0.001953,0.005859-0.04834,0.032227-0.102051,0.060059
		C23,3.244629,22.90918,3.308105,22.851074,3.358887c-0.057129,0.050781-0.106934,0.125-0.109863,0.165039
		C22.737305,3.562988,22.727051,3.596191,22.719238,3.597168z M22.87793,3.585449c-0.001953,0-0.00293-0.015625-0.000977-0.033203
		c0.000977-0.018555,0.037109-0.064453,0.080078-0.101563c0.041992-0.038086,0.105469-0.083984,0.142578-0.103516
		c0.038086-0.018555,0.067871-0.033203,0.068848-0.03125s0.004883,0.006836,0.009277,0.011719
		c0.004883,0.003906,0.039063,0.033203,0.07666,0.064453c0.038086,0.03125,0.108398,0.074219,0.157227,0.09375
		c0.047363,0.021484,0.130371,0.041016,0.182617,0.044922c0.051758,0.004883,0.133789,0,0.182617-0.010742
		c0.050293-0.008789,0.08252-0.048828,0.074707-0.084961c-0.007813-0.037109-0.049316-0.05957-0.093262-0.049805
		c-0.043457,0.009766-0.111328,0.014648-0.151367,0.010742s-0.104004-0.019531-0.143066-0.036133
		c-0.037598-0.014648-0.096191-0.046875-0.124512-0.075195c-0.087891-0.093262,0.062988-0.229004,0.153809-0.306152
		c0.09082-0.079102,0.290039-0.311035,0.580566-0.32959c0.025879-0.000977,0.043945,0.010742,0.042969,0.038086
		c-0.000977,0.02832,0.027832,0.120117,0.038086,0.151855c0.010742,0.032227,0.16748,0.149414,0.222168,0.0625
		c0.02002-0.032227-0.09375-0.086914-0.103027-0.11084c-0.007813-0.025391-0.020996-0.089844-0.020996-0.113281
		c0.000977-0.023438,0.008301-0.056641,0.01709-0.076172c0.007324-0.019531,0.026855-0.049805,0.042969-0.066406
		c0.01709-0.018555,0.066895-0.048828,0.112305-0.068359c0.044922-0.021484,0.11377-0.046875,0.152832-0.061523
		c0.039063-0.013184,0.102539-0.023926,0.141602-0.025879s0.103027,0.00293,0.141113,0.010742
		c0.038574,0.007813,0.098633,0.028809,0.132813,0.04541c0.035156,0.018555,0.086426,0.052734,0.115723,0.080078
		c0.029785,0.027344,0.069824,0.073242,0.088867,0.103516c0.02002,0.030273,0.041992,0.097656,0.048828,0.148438
		c0.006836,0.05127,0.010254,0.13916,0.005859,0.195801c-0.003906,0.054688-0.02002,0.144531-0.034668,0.199219
		c-0.016113,0.054199-0.050293,0.135254-0.076172,0.181152s-0.072754,0.113281-0.104492,0.151367
		c-0.033203,0.038086-0.072754,0.067383-0.09082,0.06543c-0.016113-0.000977-0.13623-0.001953-0.265137-0.001953
		c-0.128418,0-0.338379,0.009766-0.463867,0.022461c-0.125977,0.011719-0.354004,0.026367-0.505859,0.033203
		c-0.150879,0.008789-0.399414,0.004883-0.552246-0.007813C23.006836,3.595215,22.879883,3.585449,22.87793,3.585449z"/>
</g>
<g id="heath_x5F_bd_6_" style="enable-background:new    ;">
	<g id="Heath_x5F_FC_8_">
		<path style="fill:#A9CDA6;" d="M35.512695,14.766602c-0.026367,0-0.051758-0.013672-0.064453-0.037109L35.25,14.388672
			c-0.008789-0.015625-0.011719-0.033203-0.006836-0.050781c0.003906-0.020508,0.018555-0.037109,0.035156-0.047852
			l0.055664-0.035156l0.066406-0.005859l0.041992,0.039063l0.19043,0.334961l0.005859,0.06543l-0.039063,0.041992
			l-0.049805,0.025391C35.536133,14.763672,35.524414,14.766602,35.512695,14.766602z"/>
		<path style="fill:#A9CDA6;" d="M36.248047,14.623047c-0.038086,0-0.069336-0.023438-0.080078-0.060547l-0.207031-0.649414
			c-0.012695-0.040039,0.005859-0.082031,0.041992-0.101563l0.069336-0.03418l0.074219-0.003906l0.048828,0.058594
			l0.205078,0.664063l-0.009766,0.068359l-0.052734,0.037109c-0.022461,0.007813-0.043945,0.013672-0.05957,0.016602
			L36.248047,14.623047z"/>
		<path style="fill:#A9CDA6;" d="M37.039063,13.515625l0.103516,0.913086l-0.021484,0.068359l-0.060547,0.035156
			c-0.043945,0.003906-0.083008,0.003906-0.094727,0.003906c-0.052734,0.003906-0.095703-0.03418-0.099609-0.085938
			l-0.085938-0.926758l0.025391-0.072266l0.078125-0.030273l0.072266,0.008789
			C37,13.438477,37.035156,13.467773,37.039063,13.515625z"/>
		<path style="fill:#A9CDA6;" d="M37.678711,14.62207l-0.064453-0.017578l-0.056641-0.044922l-0.005859-0.067383l0.207031-0.664063
			l0.025391-0.027344c0.007813-0.012695,0.015625-0.018555,0.024414-0.022461l0.041016-0.004883l0.033203,0.005859
			l0.064453,0.033203c0.036133,0.019531,0.054688,0.061523,0.041992,0.101563l-0.205078,0.649414
			C37.770508,14.601563,37.740234,14.625,37.703125,14.625L37.678711,14.62207z"/>
		<path style="fill:#A9CDA6;" d="M38.438477,14.766602c-0.011719,0-0.023438-0.00293-0.033203-0.009766l-0.057617-0.030273
			l-0.041992-0.051758l0.017578-0.057617l0.191406-0.333984l0.050781-0.038086l0.060547,0.012695l0.047852,0.032227
			c0.036133,0.020508,0.047852,0.064453,0.02832,0.098633l-0.198242,0.34082
			C38.490234,14.751953,38.46582,14.766602,38.438477,14.766602z"/>
	</g>
</g>
<g id="roughgrass_x5F_bd_6_" style="enable-background:new    ;">
	<g id="RoughGrass_x5F_FC_8_">
		<path style="fill:#A9CDA6;" d="M38.213867,12.31543l0.010742,0.056641l-0.041016,0.042969l-0.042969,0.021484
			c-0.030273,0.012695-0.063477,0.00293-0.083008-0.023438l-0.15625-0.222656l-0.009766-0.057129l0.035156-0.042969
			l0.043945-0.022461c0.029297-0.013672,0.06543-0.00293,0.086914,0.022461L38.213867,12.31543z"/>
		<path style="fill:#A9CDA6;" d="M39.357422,12.043457c0,0.003906,0,0.007813-0.003906,0.011719
			c-0.011719-0.015625-0.022461-0.025391-0.037109-0.040039c-0.047852-0.056641-0.133789-0.132813-0.133789-0.132813
			c-0.037109-0.123047,0.052734-0.328125,0.052734-0.328125c-0.014648-0.140137,0.009766-0.350098,0.009766-0.350098
			C39.589844,11.658691,39.357422,12.043457,39.357422,12.043457z"/>
		<path style="fill:#A9CDA6;" d="M39.353516,12.054199c0.03418,0.041016,0.09375,0.05957,0.116211,0.17334L39.415039,12.25
			l-0.119141-0.010742C39.292969,12.171875,39.320313,12.121582,39.353516,12.054199z"/>
		<path style="fill:#A9CDA6;" d="M40.40918,11.615723l-0.224609,0.224609c0,0-0.061523,0.052734-0.163086,0.290039
			l-0.010742,0.115723c0,0-0.087891,0.045898-0.201172-0.021484c0,0,0.051758-0.14502,0.063477-0.29248
			c0,0,0.009766-0.521973,0.253906-0.608887c0,0,0.180664-0.091797,0.067383,0.046875c0,0-0.148438,0.19873-0.152344,0.437988
			C40.042969,11.807129,40.195313,11.604004,40.40918,11.615723z"/>
		<path style="fill:#A9CDA6;" d="M41.397461,12.133301l-0.009766,0.057129l-0.15625,0.22168
			c-0.019531,0.026367-0.052734,0.036133-0.083008,0.023438l-0.042969-0.020508l-0.039063-0.042969l0.010742-0.056641
			l0.154297-0.226074c0.020508-0.025391,0.057617-0.036133,0.085938-0.022461l0.042969,0.022461L41.397461,12.133301z"/>
		<path style="fill:#A9CDA6;" d="M38.710938,11.874512l0.105469,0.348145l-0.00293,0.06543l-0.042969,0.039063
			c-0.029297,0.012695-0.049805,0.017578-0.05957,0.017578c-0.033203,0.006836-0.06543-0.012695-0.076172-0.048828
			l-0.106445-0.342285v-0.06543l0.042969-0.040039L38.625,11.827637C38.662109,11.812012,38.697266,11.835449,38.710938,11.874512z"
			/>
		<path style="fill:#A9CDA6;" d="M40.68457,11.827637l0.052734,0.020508l0.042969,0.040039v0.06543l-0.106445,0.342285
			c-0.009766,0.036133-0.042969,0.055664-0.075195,0.047852c-0.010742,0-0.030273-0.004883-0.060547-0.017578l-0.042969-0.038086
			l-0.00293-0.066406l0.106445-0.348145C40.611328,11.835449,40.648438,11.812012,40.68457,11.827637z"/>
	</g>
</g>
<g id="boulder_x5F_bd_8_" style="enable-background:new    ;">
	<path style="fill:#BEBEB4;" d="M33.901367,11.644043c-0.008789,0.000977-0.040039,0.037598-0.037109,0.075684
		s0.032227,0.088867,0.079102,0.085938c0.045898-0.00293,0.209961,0.006836,0.362305,0.019531
		c0.151367,0.012695,0.506836-0.004883,0.662109-0.012695c0.154297-0.007813,0.365234-0.030273,0.492188-0.041016
		c0.125977-0.010742,0.303711-0.010742,0.428711-0.010742s0.321289,0.023438,0.447266,0.035156
		c0.125977,0.010742,0.214844-0.027344,0.217773-0.06543s-0.044922-0.089355-0.109375-0.095215
		c-0.063477-0.005859-0.101563-0.02832-0.082031-0.049805c0.018555-0.021484,0.057617-0.081055,0.084961-0.132813
		c0.02832-0.051758,0.066406-0.144531,0.083984-0.208496c0.018555-0.063477,0.036133-0.166992,0.040039-0.227539
		s0.000977-0.163574-0.008789-0.229004c-0.007813-0.063477-0.038086-0.149414-0.064453-0.191406
		c-0.025391-0.041992-0.077148-0.103516-0.113281-0.135742c-0.037109-0.031738-0.101563-0.077637-0.145508-0.100098
		c-0.042969-0.021484-0.119141-0.048828-0.166992-0.058594s-0.12793-0.016602-0.176758-0.014648
		c-0.049805,0.003906-0.12793,0.018555-0.173828,0.033203c-0.045898,0.015625-0.12793,0.047852-0.180664,0.072266
		c-0.051758,0.023438-0.113281,0.061035-0.133789,0.083496s-0.084961,0.060547-0.146484,0.074219
		c-0.459961,0.103516-0.612305,0.333496-0.701172,0.409668c-0.087891,0.075195-0.150391,0.171875-0.152344,0.171875
		s-0.007813,0.003906-0.012695,0.009766c-0.004883,0.004883-0.011719,0.009766-0.015625,0.011719
		c-0.003906,0.000977-0.008789,0.004883-0.009766,0.006836s-0.004883,0.006836-0.008789,0.008789
		c-0.00293,0.001953-0.006836,0.007813-0.008789,0.011719s-0.003906,0.007813-0.005859,0.009766
		s-0.004883,0.007813-0.006836,0.012695c-0.001953,0.005859-0.048828,0.032227-0.102539,0.060059
		c-0.054688,0.02832-0.145508,0.091797-0.204102,0.142578c-0.056641,0.050781-0.106445,0.125-0.109375,0.165039
		C33.918945,11.609863,33.90918,11.643066,33.901367,11.644043z M34.05957,11.632324
		c-0.001953,0-0.00293-0.015625-0.000977-0.033203c0.000977-0.018555,0.037109-0.064453,0.080078-0.101563
		c0.041992-0.038086,0.105469-0.083984,0.142578-0.103516c0.038086-0.018555,0.068359-0.033203,0.069336-0.03125
		s0.004883,0.006836,0.008789,0.011719c0.004883,0.003906,0.039063,0.033203,0.076172,0.064453
		c0.038086,0.03125,0.108398,0.074219,0.157227,0.09375c0.047852,0.021484,0.130859,0.041016,0.183594,0.044922
		c0.050781,0.004883,0.132813,0,0.181641-0.010742c0.050781-0.008789,0.083008-0.048828,0.075195-0.084961
		c-0.007813-0.037109-0.049805-0.05957-0.09375-0.049805c-0.042969,0.009766-0.111328,0.014648-0.150391,0.010742
		c-0.040039-0.003906-0.104492-0.019531-0.143555-0.036133c-0.037109-0.014648-0.09668-0.046875-0.125-0.075195
		c-0.087891-0.093262,0.063477-0.229004,0.154297-0.306152c0.09082-0.079102,0.290039-0.311035,0.580078-0.32959
		c0.026367-0.000977,0.043945,0.010742,0.042969,0.038086c-0.000977,0.02832,0.02832,0.120117,0.038086,0.151855
		c0.010742,0.032227,0.167969,0.149414,0.222656,0.0625c0.020508-0.032227-0.09375-0.086914-0.102539-0.11084
		c-0.007813-0.025391-0.021484-0.089844-0.021484-0.113281c0.000977-0.023438,0.008789-0.056641,0.017578-0.076172
		c0.006836-0.019531,0.026367-0.049805,0.042969-0.066406c0.016602-0.018555,0.066406-0.048828,0.112305-0.068359
		c0.043945-0.021484,0.113281-0.046875,0.152344-0.061523c0.039063-0.013184,0.102539-0.023926,0.141602-0.025879
		s0.103516,0.00293,0.140625,0.010742c0.039063,0.007813,0.098633,0.028809,0.132813,0.04541
		c0.035156,0.018555,0.086914,0.052734,0.116211,0.080078c0.030273,0.027344,0.070313,0.073242,0.088867,0.103516
		c0.020508,0.030273,0.041992,0.097656,0.048828,0.148438c0.006836,0.05127,0.010742,0.13916,0.005859,0.195801
		c-0.003906,0.054688-0.019531,0.144531-0.03418,0.199219c-0.016602,0.054199-0.050781,0.135254-0.076172,0.181152
		c-0.026367,0.045898-0.073242,0.113281-0.105469,0.151367c-0.033203,0.038086-0.072266,0.067383-0.09082,0.06543
		c-0.015625-0.000977-0.135742-0.001953-0.264648-0.001953s-0.337891,0.009766-0.463867,0.022461
		c-0.125977,0.011719-0.353516,0.026367-0.505859,0.033203c-0.150391,0.008789-0.399414,0.004883-0.551758-0.007813
		C34.188477,11.64209,34.061523,11.632324,34.05957,11.632324z"/>
</g>
<g id="heath_x5F_bd_5_" style="enable-background:new    ;">
	<g id="Heath_x5F_FC_7_">
		<path style="fill:#A9CDA6;" d="M41.026367,6.381836c-0.026367,0-0.051758-0.013672-0.064453-0.037109l-0.198242-0.34082
			c-0.008789-0.015625-0.011719-0.033203-0.006836-0.050781c0.003906-0.020508,0.018555-0.037109,0.035156-0.047852
			l0.055664-0.035156l0.066406-0.005859l0.041992,0.039063l0.19043,0.334961l0.005859,0.06543l-0.039063,0.041992
			l-0.049805,0.025391C41.049805,6.378906,41.038086,6.381836,41.026367,6.381836z"/>
		<path style="fill:#A9CDA6;" d="M41.761719,6.238281c-0.038086,0-0.069336-0.023438-0.080078-0.060547L41.474609,5.52832
			c-0.012695-0.040039,0.005859-0.082031,0.041992-0.101563l0.069336-0.03418l0.074219-0.003906l0.048828,0.058594
			l0.205078,0.664063l-0.009766,0.068359l-0.052734,0.037109c-0.022461,0.007813-0.043945,0.013672-0.05957,0.016602
			L41.761719,6.238281z"/>
		<path style="fill:#A9CDA6;" d="M42.552734,5.130859l0.103516,0.913086l-0.021484,0.068359l-0.060547,0.035156
			c-0.043945,0.003906-0.083008,0.003906-0.094727,0.003906c-0.052734,0.003906-0.095703-0.03418-0.099609-0.085938
			l-0.085938-0.926758l0.025391-0.072266l0.078125-0.030273l0.072266,0.008789
			C42.513672,5.053711,42.548828,5.083008,42.552734,5.130859z"/>
		<path style="fill:#A9CDA6;" d="M43.192383,6.237305L43.12793,6.219727l-0.056641-0.044922L43.06543,6.107422l0.207031-0.664063
			l0.025391-0.027344c0.007813-0.012695,0.015625-0.018555,0.024414-0.022461l0.041016-0.004883l0.033203,0.005859
			l0.064453,0.033203c0.036133,0.019531,0.054688,0.061523,0.041992,0.101563l-0.205078,0.649414
			c-0.013672,0.038086-0.043945,0.061523-0.081055,0.061523L43.192383,6.237305z"/>
		<path style="fill:#A9CDA6;" d="M43.952148,6.381836c-0.011719,0-0.023438-0.00293-0.033203-0.009766l-0.057617-0.030273
			l-0.041992-0.051758l0.017578-0.057617l0.191406-0.333984l0.050781-0.038086l0.060547,0.012695L44.1875,5.905273
			c0.036133,0.020508,0.047852,0.064453,0.02832,0.098633l-0.198242,0.34082
			C44.003906,6.367188,43.979492,6.381836,43.952148,6.381836z"/>
	</g>
</g>
<g id="roughgrass_x5F_bd_5_" style="enable-background:new    ;">
	<g id="RoughGrass_x5F_FC_7_">
		<path style="fill:#A9CDA6;" d="M43.727539,3.930664l0.010742,0.056641l-0.041016,0.042969l-0.042969,0.021484
			c-0.030273,0.012695-0.063477,0.00293-0.083008-0.023438l-0.15625-0.222656l-0.009766-0.057129l0.035156-0.042969
			l0.043945-0.022461c0.029297-0.013672,0.06543-0.00293,0.086914,0.022461L43.727539,3.930664z"/>
		<path style="fill:#A9CDA6;" d="M44.871094,3.658691c0,0.003906,0,0.007813-0.003906,0.011719
			c-0.011719-0.015625-0.022461-0.025391-0.037109-0.040039c-0.047852-0.056641-0.133789-0.132813-0.133789-0.132813
			c-0.037109-0.123047,0.052734-0.328125,0.052734-0.328125c-0.014648-0.140137,0.009766-0.350098,0.009766-0.350098
			C45.103516,3.273926,44.871094,3.658691,44.871094,3.658691z"/>
		<path style="fill:#A9CDA6;" d="M44.867188,3.669434c0.03418,0.041016,0.09375,0.05957,0.116211,0.17334l-0.054688,0.022461
			L44.80957,3.854492C44.806641,3.787109,44.833984,3.736816,44.867188,3.669434z"/>
		<path style="fill:#A9CDA6;" d="M45.922852,3.230957l-0.224609,0.224609c0,0-0.061523,0.052734-0.163086,0.290039
			l-0.010742,0.115723c0,0-0.087891,0.045898-0.201172-0.021484c0,0,0.051758-0.14502,0.063477-0.29248
			c0,0,0.009766-0.521973,0.253906-0.608887c0,0,0.180664-0.091797,0.067383,0.046875c0,0-0.148438,0.19873-0.152344,0.437988
			C45.556641,3.422363,45.708984,3.219238,45.922852,3.230957z"/>
		<path style="fill:#A9CDA6;" d="M46.911133,3.748535l-0.009766,0.057129l-0.15625,0.22168
			c-0.019531,0.026367-0.052734,0.036133-0.083008,0.023438l-0.042969-0.020508l-0.039063-0.042969l0.010742-0.056641
			l0.154297-0.226074c0.020508-0.025391,0.057617-0.036133,0.085938-0.022461l0.042969,0.022461L46.911133,3.748535z"/>
		<path style="fill:#A9CDA6;" d="M44.224609,3.489746l0.105469,0.348145l-0.00293,0.06543L44.28418,3.942383
			c-0.029297,0.012695-0.049805,0.017578-0.05957,0.017578c-0.033203,0.006836-0.06543-0.012695-0.076172-0.048828
			l-0.106445-0.342285v-0.06543l0.042969-0.040039l0.053711-0.020508C44.175781,3.427246,44.210938,3.450684,44.224609,3.489746z"/>
		<path style="fill:#A9CDA6;" d="M46.198242,3.442871l0.052734,0.020508l0.042969,0.040039v0.06543L46.1875,3.911133
			c-0.009766,0.036133-0.042969,0.055664-0.075195,0.047852c-0.010742,0-0.030273-0.004883-0.060547-0.017578L46.008789,3.90332
			l-0.00293-0.066406l0.106445-0.348145C46.125,3.450684,46.162109,3.427246,46.198242,3.442871z"/>
	</g>
</g>
<g id="boulder_x5F_bd_9_" style="enable-background:new    ;">
	<path style="fill:#BEBEB4;" d="M39.415039,3.259277C39.40625,3.260254,39.375,3.296875,39.37793,3.334961
		s0.032227,0.088867,0.079102,0.085938c0.045898-0.00293,0.209961,0.006836,0.362305,0.019531
		c0.151367,0.012695,0.506836-0.004883,0.662109-0.012695c0.154297-0.007813,0.365234-0.030273,0.492188-0.041016
		c0.125977-0.010742,0.303711-0.010742,0.428711-0.010742s0.321289,0.023438,0.447266,0.035156
		c0.125977,0.010742,0.214844-0.027344,0.217773-0.06543s-0.044922-0.089355-0.109375-0.095215
		c-0.063477-0.005859-0.101563-0.02832-0.082031-0.049805c0.018555-0.021484,0.057617-0.081055,0.084961-0.132813
		c0.02832-0.051758,0.066406-0.144531,0.083984-0.208496c0.018555-0.063477,0.036133-0.166992,0.040039-0.227539
		s0.000977-0.163574-0.008789-0.229004c-0.007813-0.063477-0.038086-0.149414-0.064453-0.191406
		c-0.025391-0.041992-0.077148-0.103516-0.113281-0.135742c-0.037109-0.031738-0.101563-0.077637-0.145508-0.100098
		c-0.042969-0.021484-0.119141-0.048828-0.166992-0.058594s-0.12793-0.016602-0.176758-0.014648
		c-0.049805,0.003906-0.12793,0.018555-0.173828,0.033203c-0.045898,0.015625-0.12793,0.047852-0.180664,0.072266
		c-0.051758,0.023438-0.113281,0.061035-0.133789,0.083496s-0.084961,0.060547-0.146484,0.074219
		c-0.459961,0.103516-0.612305,0.333496-0.701172,0.409668c-0.087891,0.075195-0.150391,0.171875-0.152344,0.171875
		s-0.007813,0.003906-0.012695,0.009766c-0.004883,0.004883-0.011719,0.009766-0.015625,0.011719
		c-0.003906,0.000977-0.008789,0.004883-0.009766,0.006836S39.87793,2.782227,39.874023,2.78418
		c-0.00293,0.001953-0.006836,0.007813-0.008789,0.011719s-0.003906,0.007813-0.005859,0.009766
		s-0.004883,0.007813-0.006836,0.012695C39.850586,2.824219,39.803711,2.850586,39.75,2.878418
		c-0.054688,0.02832-0.145508,0.091797-0.204102,0.142578c-0.056641,0.050781-0.106445,0.125-0.109375,0.165039
		C39.432617,3.225098,39.422852,3.258301,39.415039,3.259277z M39.573242,3.247559c-0.001953,0-0.00293-0.015625-0.000977-0.033203
		c0.000977-0.018555,0.037109-0.064453,0.080078-0.101563c0.041992-0.038086,0.105469-0.083984,0.142578-0.103516
		c0.038086-0.018555,0.068359-0.033203,0.069336-0.03125s0.004883,0.006836,0.008789,0.011719
		c0.004883,0.003906,0.039063,0.033203,0.076172,0.064453c0.038086,0.03125,0.108398,0.074219,0.157227,0.09375
		c0.047852,0.021484,0.130859,0.041016,0.183594,0.044922c0.050781,0.004883,0.132813,0,0.181641-0.010742
		c0.050781-0.008789,0.083008-0.048828,0.075195-0.084961c-0.007813-0.037109-0.049805-0.05957-0.09375-0.049805
		c-0.042969,0.009766-0.111328,0.014648-0.150391,0.010742c-0.040039-0.003906-0.104492-0.019531-0.143555-0.036133
		c-0.037109-0.014648-0.09668-0.046875-0.125-0.075195c-0.087891-0.093262,0.063477-0.229004,0.154297-0.306152
		c0.09082-0.079102,0.290039-0.311035,0.580078-0.32959c0.026367-0.000977,0.043945,0.010742,0.042969,0.038086
		c-0.000977,0.02832,0.02832,0.120117,0.038086,0.151855c0.010742,0.032227,0.167969,0.149414,0.222656,0.0625
		c0.020508-0.032227-0.09375-0.086914-0.102539-0.11084c-0.007813-0.025391-0.021484-0.089844-0.021484-0.113281
		c0.000977-0.023438,0.008789-0.056641,0.017578-0.076172c0.006836-0.019531,0.026367-0.049805,0.042969-0.066406
		c0.016602-0.018555,0.066406-0.048828,0.112305-0.068359c0.043945-0.021484,0.113281-0.046875,0.152344-0.061523
		c0.039063-0.013184,0.102539-0.023926,0.141602-0.025879s0.103516,0.00293,0.140625,0.010742
		c0.039063,0.007813,0.098633,0.028809,0.132813,0.04541c0.035156,0.018555,0.086914,0.052734,0.116211,0.080078
		C41.834961,2.20459,41.875,2.250488,41.893555,2.280762c0.020508,0.030273,0.041992,0.097656,0.048828,0.148438
		c0.006836,0.05127,0.010742,0.13916,0.005859,0.195801c-0.003906,0.054688-0.019531,0.144531-0.03418,0.199219
		c-0.016602,0.054199-0.050781,0.135254-0.076172,0.181152c-0.026367,0.045898-0.073242,0.113281-0.105469,0.151367
		c-0.033203,0.038086-0.072266,0.067383-0.09082,0.06543c-0.015625-0.000977-0.135742-0.001953-0.264648-0.001953
		s-0.337891,0.009766-0.463867,0.022461c-0.125977,0.011719-0.353516,0.026367-0.505859,0.033203
		c-0.150391,0.008789-0.399414,0.004883-0.551758-0.007813C39.702148,3.257324,39.575195,3.247559,39.573242,3.247559z"/>
</g>
<g id="heath_x5F_bd_7_" style="enable-background:new    ;">
	<g id="Heath_x5F_FC_9_">
		<path style="fill:#A9CDA6;" d="M36.009766,24.644531c-0.026367,0-0.051758-0.013672-0.064453-0.037109l-0.198242-0.34082
			c-0.008789-0.015625-0.011719-0.033203-0.006836-0.050781c0.003906-0.020508,0.018555-0.037109,0.035156-0.047852
			l0.055664-0.035156l0.066406-0.005859l0.041992,0.039063l0.19043,0.334961l0.005859,0.06543l-0.039063,0.041992
			l-0.049805,0.025391C36.033203,24.641602,36.021484,24.644531,36.009766,24.644531z"/>
		<path style="fill:#A9CDA6;" d="M36.745117,24.500977c-0.038086,0-0.069336-0.023438-0.080078-0.060547l-0.207031-0.649414
			c-0.012695-0.040039,0.005859-0.082031,0.041992-0.101563l0.069336-0.03418l0.074219-0.003906l0.048828,0.058594
			l0.205078,0.664063l-0.009766,0.068359l-0.052734,0.037109c-0.022461,0.007813-0.043945,0.013672-0.05957,0.016602
			L36.745117,24.500977z"/>
		<path style="fill:#A9CDA6;" d="M37.536133,23.393555l0.103516,0.913086L37.618164,24.375l-0.060547,0.035156
			c-0.043945,0.003906-0.083008,0.003906-0.094727,0.003906c-0.052734,0.003906-0.095703-0.03418-0.099609-0.085938
			l-0.085938-0.926758l0.025391-0.072266l0.078125-0.030273l0.072266,0.008789
			C37.49707,23.316406,37.532227,23.345703,37.536133,23.393555z"/>
		<path style="fill:#A9CDA6;" d="M38.175781,24.5l-0.064453-0.017578L38.054688,24.4375l-0.005859-0.067383l0.207031-0.664063
			l0.025391-0.027344c0.007813-0.012695,0.015625-0.018555,0.024414-0.022461l0.041016-0.004883l0.033203,0.005859
			l0.064453,0.033203c0.036133,0.019531,0.054688,0.061523,0.041992,0.101563l-0.205078,0.649414
			c-0.013672,0.038086-0.043945,0.061523-0.081055,0.061523L38.175781,24.5z"/>
		<path style="fill:#A9CDA6;" d="M38.935547,24.644531c-0.011719,0-0.023438-0.00293-0.033203-0.009766l-0.057617-0.030273
			l-0.041992-0.051758l0.017578-0.057617l0.191406-0.333984l0.050781-0.038086l0.060547,0.012695l0.047852,0.032227
			c0.036133,0.020508,0.047852,0.064453,0.02832,0.098633l-0.198242,0.34082
			C38.987305,24.629883,38.962891,24.644531,38.935547,24.644531z"/>
	</g>
</g>
<g id="roughgrass_x5F_bd_7_" style="enable-background:new    ;">
	<g id="RoughGrass_x5F_FC_9_">
		<path style="fill:#A9CDA6;" d="M38.710938,22.193359L38.72168,22.25l-0.041016,0.042969l-0.042969,0.021484
			c-0.030273,0.012695-0.063477,0.00293-0.083008-0.023438l-0.15625-0.222656l-0.009766-0.057129l0.035156-0.042969
			l0.043945-0.022461c0.029297-0.013672,0.06543-0.00293,0.086914,0.022461L38.710938,22.193359z"/>
		<path style="fill:#A9CDA6;" d="M39.854492,21.921387c0,0.003906,0,0.007813-0.003906,0.011719
			c-0.011719-0.015625-0.022461-0.025391-0.037109-0.040039c-0.047852-0.056641-0.133789-0.132813-0.133789-0.132813
			c-0.037109-0.123047,0.052734-0.328125,0.052734-0.328125c-0.014648-0.140137,0.009766-0.350098,0.009766-0.350098
			C40.086914,21.536621,39.854492,21.921387,39.854492,21.921387z"/>
		<path style="fill:#A9CDA6;" d="M39.850586,21.932129c0.03418,0.041016,0.09375,0.05957,0.116211,0.17334l-0.054688,0.022461
			l-0.119141-0.010742C39.790039,22.049805,39.817383,21.999512,39.850586,21.932129z"/>
		<path style="fill:#A9CDA6;" d="M40.90625,21.493652l-0.224609,0.224609c0,0-0.061523,0.052734-0.163086,0.290039
			l-0.010742,0.115723c0,0-0.087891,0.045898-0.201172-0.021484c0,0,0.051758-0.14502,0.063477-0.29248
			c0,0,0.009766-0.521973,0.253906-0.608887c0,0,0.180664-0.091797,0.067383,0.046875c0,0-0.148438,0.19873-0.152344,0.437988
			C40.540039,21.685059,40.692383,21.481934,40.90625,21.493652z"/>
		<path style="fill:#A9CDA6;" d="M41.894531,22.01123l-0.009766,0.057129l-0.15625,0.22168
			c-0.019531,0.026367-0.052734,0.036133-0.083008,0.023438l-0.042969-0.020508L41.563477,22.25l0.010742-0.056641
			l0.154297-0.226074c0.020508-0.025391,0.057617-0.036133,0.085938-0.022461l0.042969,0.022461L41.894531,22.01123z"/>
		<path style="fill:#A9CDA6;" d="M39.208008,21.752441l0.105469,0.348145l-0.00293,0.06543l-0.042969,0.039063
			c-0.029297,0.012695-0.049805,0.017578-0.05957,0.017578c-0.033203,0.006836-0.06543-0.012695-0.076172-0.048828
			l-0.106445-0.342285v-0.06543l0.042969-0.040039l0.053711-0.020508C39.15918,21.689941,39.194336,21.713379,39.208008,21.752441z"
			/>
		<path style="fill:#A9CDA6;" d="M41.181641,21.705566l0.052734,0.020508l0.042969,0.040039v0.06543l-0.106445,0.342285
			c-0.009766,0.036133-0.042969,0.055664-0.075195,0.047852c-0.010742,0-0.030273-0.004883-0.060547-0.017578l-0.042969-0.038086
			l-0.00293-0.066406l0.106445-0.348145C41.108398,21.713379,41.145508,21.689941,41.181641,21.705566z"/>
	</g>
</g>
<g id="boulder_x5F_bd_5_" style="enable-background:new    ;">
	<path style="fill:#BEBEB4;" d="M34.399414,21.521973c-0.008789,0.000977-0.040039,0.037598-0.037109,0.075684
		s0.032227,0.088867,0.079102,0.085938c0.045898-0.00293,0.209961,0.006836,0.362305,0.019531
		c0.151367,0.012695,0.506836-0.004883,0.662109-0.012695c0.154297-0.007813,0.365234-0.030273,0.492188-0.041016
		c0.125977-0.010742,0.303711-0.010742,0.428711-0.010742s0.321289,0.023438,0.447266,0.035156
		c0.125977,0.010742,0.214844-0.027344,0.217773-0.06543s-0.044922-0.089355-0.109375-0.095215
		c-0.063477-0.005859-0.101563-0.02832-0.082031-0.049805c0.018555-0.021484,0.057617-0.081055,0.084961-0.132813
		c0.02832-0.051758,0.066406-0.144531,0.083984-0.208496c0.018555-0.063477,0.036133-0.166992,0.040039-0.227539
		s0.000977-0.163574-0.008789-0.229004c-0.007813-0.063477-0.038086-0.149414-0.064453-0.191406
		c-0.025391-0.041992-0.077148-0.103516-0.113281-0.135742c-0.037109-0.031738-0.101563-0.077637-0.145508-0.100098
		c-0.042969-0.021484-0.119141-0.048828-0.166992-0.058594s-0.12793-0.016602-0.176758-0.014648
		c-0.049805,0.003906-0.12793,0.018555-0.173828,0.033203c-0.045898,0.015625-0.12793,0.047852-0.180664,0.072266
		c-0.051758,0.023438-0.113281,0.061035-0.133789,0.083496s-0.084961,0.060547-0.146484,0.074219
		c-0.459961,0.103516-0.612305,0.333496-0.701172,0.409668c-0.087891,0.075195-0.150391,0.171875-0.152344,0.171875
		s-0.007813,0.003906-0.012695,0.009766c-0.004883,0.004883-0.011719,0.009766-0.015625,0.011719
		c-0.003906,0.000977-0.008789,0.004883-0.009766,0.006836s-0.004883,0.006836-0.008789,0.008789
		c-0.00293,0.001953-0.006836,0.007813-0.008789,0.011719s-0.003906,0.007813-0.005859,0.009766
		s-0.004883,0.007813-0.006836,0.012695c-0.001953,0.005859-0.048828,0.032227-0.102539,0.060059
		c-0.054688,0.02832-0.145508,0.091797-0.204102,0.142578c-0.056641,0.050781-0.106445,0.125-0.109375,0.165039
		C34.416992,21.487793,34.407227,21.520996,34.399414,21.521973z M34.557617,21.510254
		c-0.001953,0-0.00293-0.015625-0.000977-0.033203c0.000977-0.018555,0.037109-0.064453,0.080078-0.101563
		c0.041992-0.038086,0.105469-0.083984,0.142578-0.103516c0.038086-0.018555,0.068359-0.033203,0.069336-0.03125
		s0.004883,0.006836,0.008789,0.011719c0.004883,0.003906,0.039063,0.033203,0.076172,0.064453
		c0.038086,0.03125,0.108398,0.074219,0.157227,0.09375c0.047852,0.021484,0.130859,0.041016,0.183594,0.044922
		c0.050781,0.004883,0.132813,0,0.181641-0.010742c0.050781-0.008789,0.083008-0.048828,0.075195-0.084961
		c-0.007813-0.037109-0.049805-0.05957-0.09375-0.049805c-0.042969,0.009766-0.111328,0.014648-0.150391,0.010742
		c-0.040039-0.003906-0.104492-0.019531-0.143555-0.036133c-0.037109-0.014648-0.09668-0.046875-0.125-0.075195
		c-0.087891-0.093262,0.063477-0.229004,0.154297-0.306152c0.09082-0.079102,0.290039-0.311035,0.580078-0.32959
		c0.026367-0.000977,0.043945,0.010742,0.042969,0.038086c-0.000977,0.02832,0.02832,0.120117,0.038086,0.151855
		c0.010742,0.032227,0.167969,0.149414,0.222656,0.0625c0.020508-0.032227-0.09375-0.086914-0.102539-0.11084
		c-0.007813-0.025391-0.021484-0.089844-0.021484-0.113281c0.000977-0.023438,0.008789-0.056641,0.017578-0.076172
		c0.006836-0.019531,0.026367-0.049805,0.042969-0.066406c0.016602-0.018555,0.066406-0.048828,0.112305-0.068359
		c0.043945-0.021484,0.113281-0.046875,0.152344-0.061523c0.039063-0.013184,0.102539-0.023926,0.141602-0.025879
		s0.103516,0.00293,0.140625,0.010742c0.039063,0.007813,0.098633,0.028809,0.132813,0.04541
		c0.035156,0.018555,0.086914,0.052734,0.116211,0.080078c0.030273,0.027344,0.070313,0.073242,0.088867,0.103516
		c0.020508,0.030273,0.041992,0.097656,0.048828,0.148438c0.006836,0.05127,0.010742,0.13916,0.005859,0.195801
		c-0.003906,0.054688-0.019531,0.144531-0.03418,0.199219c-0.016602,0.054199-0.050781,0.135254-0.076172,0.181152
		c-0.026367,0.045898-0.073242,0.113281-0.105469,0.151367c-0.033203,0.038086-0.072266,0.067383-0.09082,0.06543
		c-0.015625-0.000977-0.135742-0.001953-0.264648-0.001953s-0.337891,0.009766-0.463867,0.022461
		c-0.125977,0.011719-0.353516,0.026367-0.505859,0.033203c-0.150391,0.008789-0.399414,0.004883-0.551758-0.007813
		C34.686523,21.52002,34.55957,21.510254,34.557617,21.510254z"/>
</g>
<g id="heath_x5F_bd_9_" style="enable-background:new    ;">
	<g id="Heath_x5F_FC_11_">
		<path style="fill:#A9CDA6;" d="M41.27832,36.546875c-0.026367,0-0.051758-0.013672-0.064453-0.037109l-0.198242-0.34082
			c-0.008789-0.015625-0.011719-0.033203-0.006836-0.050781c0.003906-0.020508,0.018555-0.037109,0.035156-0.047852
			l0.055664-0.035156l0.066406-0.005859l0.041992,0.039063l0.19043,0.334961l0.005859,0.06543l-0.039063,0.041992
			l-0.049805,0.025391C41.301758,36.543945,41.290039,36.546875,41.27832,36.546875z"/>
		<path style="fill:#A9CDA6;" d="M42.013672,36.40332c-0.038086,0-0.069336-0.023438-0.080078-0.060547l-0.207031-0.649414
			c-0.012695-0.040039,0.005859-0.082031,0.041992-0.101563l0.069336-0.03418l0.074219-0.003906l0.048828,0.058594
			l0.205078,0.664063l-0.009766,0.068359l-0.052734,0.037109c-0.022461,0.007813-0.043945,0.013672-0.05957,0.016602
			L42.013672,36.40332z"/>
		<path style="fill:#A9CDA6;" d="M42.804688,35.295898l0.103516,0.913086l-0.021484,0.068359L42.826172,36.3125
			c-0.043945,0.003906-0.083008,0.003906-0.094727,0.003906c-0.052734,0.003906-0.095703-0.03418-0.099609-0.085938
			l-0.085938-0.926758l0.025391-0.072266l0.078125-0.030273l0.072266,0.008789
			C42.765625,35.21875,42.800781,35.248047,42.804688,35.295898z"/>
		<path style="fill:#A9CDA6;" d="M43.444336,36.402344l-0.064453-0.017578l-0.056641-0.044922l-0.005859-0.067383l0.207031-0.664063
			l0.025391-0.027344c0.007813-0.012695,0.015625-0.018555,0.024414-0.022461l0.041016-0.004883l0.033203,0.005859
			l0.064453,0.033203c0.036133,0.019531,0.054688,0.061523,0.041992,0.101563l-0.205078,0.649414
			c-0.013672,0.038086-0.043945,0.061523-0.081055,0.061523L43.444336,36.402344z"/>
		<path style="fill:#A9CDA6;" d="M44.204102,36.546875c-0.011719,0-0.023438-0.00293-0.033203-0.009766l-0.057617-0.030273
			l-0.041992-0.051758l0.017578-0.057617l0.191406-0.333984l0.050781-0.038086l0.060547,0.012695l0.047852,0.032227
			c0.036133,0.020508,0.047852,0.064453,0.02832,0.098633l-0.198242,0.34082
			C44.255859,36.532227,44.231445,36.546875,44.204102,36.546875z"/>
	</g>
</g>
<g id="roughgrass_x5F_bd_9_" style="enable-background:new    ;">
	<g id="RoughGrass_x5F_FC_11_">
		<path style="fill:#A9CDA6;" d="M43.978516,34.09668l0.010742,0.056641l-0.041016,0.042969l-0.042969,0.021484
			c-0.030273,0.012695-0.063477,0.00293-0.083008-0.023438l-0.15625-0.222656l-0.009766-0.057617l0.035156-0.042969
			l0.043945-0.022461c0.029297-0.013672,0.06543-0.00293,0.086914,0.022461L43.978516,34.09668z"/>
		<path style="fill:#A9CDA6;" d="M45.12207,33.824219c0,0.003906,0,0.007813-0.003906,0.011719
			c-0.011719-0.015625-0.022461-0.025391-0.037109-0.040039c-0.047852-0.056641-0.133789-0.132813-0.133789-0.132813
			C44.910156,33.540039,45,33.334961,45,33.334961c-0.014648-0.140625,0.009766-0.350586,0.009766-0.350586
			C45.354492,33.439453,45.12207,33.824219,45.12207,33.824219z"/>
		<path style="fill:#A9CDA6;" d="M45.118164,33.834961c0.03418,0.041016,0.09375,0.05957,0.116211,0.173828l-0.054688,0.022461
			l-0.119141-0.010742C45.057617,33.953125,45.084961,33.902344,45.118164,33.834961z"/>
		<path style="fill:#A9CDA6;" d="M46.173828,33.396484l-0.224609,0.224609c0,0-0.061523,0.052734-0.163086,0.290039
			l-0.010742,0.116211c0,0-0.087891,0.045898-0.201172-0.021484c0,0,0.051758-0.145508,0.063477-0.292969
			c0,0,0.009766-0.522461,0.253906-0.609375c0,0,0.180664-0.091797,0.067383,0.046875c0,0-0.148438,0.199219-0.152344,0.438477
			C45.807617,33.587891,45.959961,33.384766,46.173828,33.396484z"/>
		<path style="fill:#A9CDA6;" d="M47.162109,33.914063l-0.009766,0.057617l-0.15625,0.22168
			c-0.019531,0.026367-0.052734,0.036133-0.083008,0.023438l-0.042969-0.020508l-0.039063-0.042969l0.010742-0.056641
			l0.154297-0.226563c0.020508-0.025391,0.057617-0.036133,0.085938-0.022461L47.125,33.870117L47.162109,33.914063z"/>
		<path style="fill:#A9CDA6;" d="M44.475586,33.655273l0.105469,0.348633l-0.00293,0.06543l-0.042969,0.039063
			c-0.029297,0.012695-0.049805,0.017578-0.05957,0.017578c-0.033203,0.006836-0.06543-0.012695-0.076172-0.048828
			l-0.106445-0.342773v-0.06543l0.042969-0.040039l0.053711-0.020508C44.426758,33.592773,44.461914,33.616211,44.475586,33.655273z
			"/>
		<path style="fill:#A9CDA6;" d="M46.449219,33.608398l0.052734,0.020508l0.042969,0.040039v0.06543l-0.106445,0.342773
			c-0.009766,0.036133-0.042969,0.055664-0.075195,0.047852c-0.010742,0-0.030273-0.004883-0.060547-0.017578l-0.042969-0.038086
			l-0.00293-0.066406l0.106445-0.348633C46.375977,33.616211,46.413086,33.592773,46.449219,33.608398z"/>
	</g>
</g>
<g id="boulder_x5F_bd_4_" style="enable-background:new    ;">
	<path style="fill:#BEBEB4;" d="M39.667969,33.423828C39.65918,33.424805,39.62793,33.461914,39.630859,33.5
		s0.032227,0.088867,0.079102,0.085938c0.045898-0.00293,0.209961,0.006836,0.362305,0.019531
		c0.151367,0.012695,0.506836-0.004883,0.662109-0.012695c0.154297-0.007813,0.365234-0.030273,0.492188-0.041016
		c0.125977-0.010742,0.303711-0.010742,0.428711-0.010742s0.321289,0.023438,0.447266,0.035156
		c0.125977,0.010742,0.214844-0.027344,0.217773-0.06543s-0.044922-0.089844-0.109375-0.095703
		c-0.063477-0.005859-0.101563-0.02832-0.082031-0.049805c0.018555-0.021484,0.057617-0.081055,0.084961-0.131836
		c0.02832-0.051758,0.066406-0.144531,0.083984-0.208984c0.018555-0.063477,0.036133-0.166992,0.040039-0.227539
		s0.000977-0.164063-0.008789-0.229492c-0.007813-0.063477-0.038086-0.148438-0.064453-0.19043
		c-0.025391-0.041992-0.077148-0.103516-0.113281-0.135742c-0.037109-0.032227-0.101563-0.078125-0.145508-0.100586
		c-0.042969-0.021484-0.119141-0.048828-0.166992-0.058594s-0.12793-0.016602-0.176758-0.014648
		c-0.049805,0.003906-0.12793,0.018555-0.173828,0.033203c-0.045898,0.015625-0.12793,0.047852-0.180664,0.072266
		c-0.051758,0.023438-0.113281,0.061523-0.133789,0.083984s-0.084961,0.060547-0.146484,0.074219
		c-0.459961,0.102539-0.612305,0.333008-0.701172,0.40918c-0.087891,0.075195-0.150391,0.171875-0.152344,0.171875
		s-0.007813,0.003906-0.012695,0.009766c-0.004883,0.004883-0.011719,0.009766-0.015625,0.011719
		c-0.003906,0.000977-0.008789,0.004883-0.009766,0.006836s-0.004883,0.006836-0.008789,0.008789
		c-0.00293,0.001953-0.006836,0.007813-0.008789,0.011719s-0.003906,0.007813-0.005859,0.009766
		s-0.004883,0.007813-0.006836,0.012695c-0.001953,0.005859-0.048828,0.032227-0.102539,0.060547
		c-0.054688,0.02832-0.145508,0.091797-0.204102,0.142578c-0.056641,0.050781-0.106445,0.124023-0.109375,0.164063
		C39.685547,33.389648,39.675781,33.422852,39.667969,33.423828z M39.826172,33.412109
		c-0.001953,0-0.00293-0.015625-0.000977-0.033203c0.000977-0.018555,0.037109-0.064453,0.080078-0.101563
		c0.041992-0.037109,0.105469-0.083008,0.142578-0.102539c0.038086-0.018555,0.068359-0.033203,0.069336-0.03125
		s0.004883,0.006836,0.008789,0.011719c0.004883,0.003906,0.039063,0.033203,0.076172,0.064453
		c0.038086,0.030273,0.108398,0.073242,0.157227,0.092773c0.047852,0.021484,0.130859,0.041016,0.183594,0.044922
		c0.050781,0.004883,0.132813,0,0.181641-0.010742c0.050781-0.008789,0.083008-0.048828,0.075195-0.084961
		s-0.049805-0.058594-0.09375-0.048828c-0.042969,0.009766-0.111328,0.014648-0.150391,0.010742
		c-0.040039-0.003906-0.104492-0.019531-0.143555-0.036133c-0.037109-0.014648-0.09668-0.046875-0.125-0.075195
		c-0.087891-0.09375,0.063477-0.229492,0.154297-0.306641c0.09082-0.079102,0.290039-0.311523,0.580078-0.330078
		c0.026367-0.000977,0.043945,0.010742,0.042969,0.038086c-0.000977,0.02832,0.02832,0.120117,0.038086,0.152344
		c0.010742,0.032227,0.167969,0.149414,0.222656,0.0625c0.020508-0.032227-0.09375-0.086914-0.102539-0.111328
		c-0.007813-0.025391-0.021484-0.089844-0.021484-0.113281c0.000977-0.023438,0.008789-0.056641,0.017578-0.075195
		c0.006836-0.019531,0.026367-0.049805,0.042969-0.066406c0.016602-0.018555,0.066406-0.048828,0.112305-0.068359
		c0.043945-0.021484,0.113281-0.046875,0.152344-0.061523c0.039063-0.013672,0.102539-0.024414,0.141602-0.026367
		s0.103516,0.00293,0.140625,0.010742c0.039063,0.007813,0.098633,0.029297,0.132813,0.045898
		c0.035156,0.018555,0.086914,0.052734,0.116211,0.080078c0.030273,0.027344,0.070313,0.073242,0.088867,0.102539
		c0.020508,0.030273,0.041992,0.097656,0.048828,0.148438c0.006836,0.051758,0.010742,0.139648,0.005859,0.196289
		c-0.003906,0.054688-0.019531,0.144531-0.03418,0.199219c-0.016602,0.054688-0.050781,0.135742-0.076172,0.181641
		c-0.026367,0.045898-0.073242,0.112305-0.105469,0.150391c-0.033203,0.038086-0.072266,0.067383-0.09082,0.06543
		c-0.015625-0.000977-0.135742-0.001953-0.264648-0.001953s-0.337891,0.009766-0.463867,0.022461
		c-0.125977,0.011719-0.353516,0.026367-0.505859,0.033203c-0.150391,0.008789-0.399414,0.004883-0.551758-0.007813
		C39.955078,33.421875,39.828125,33.412109,39.826172,33.412109z"/>
</g>
<g id="heath_x5F_bd_10_" style="enable-background:new    ;">
	<g id="Heath_x5F_FC_12_">
		<path style="fill:#A9CDA6;" d="M28.248047,47.148438c-0.026367,0-0.051758-0.013672-0.064453-0.037109l-0.198242-0.34082
			c-0.008789-0.015625-0.011719-0.033203-0.006836-0.050781c0.003906-0.020508,0.018555-0.037109,0.035156-0.047852
			l0.055664-0.035156l0.066406-0.005859l0.041992,0.039063l0.19043,0.334961l0.005859,0.06543l-0.039063,0.041992
			l-0.049805,0.025391C28.271484,47.145508,28.259766,47.148438,28.248047,47.148438z"/>
		<path style="fill:#A9CDA6;" d="M28.983398,47.004883c-0.038086,0-0.069336-0.023438-0.080078-0.060547l-0.207031-0.649414
			c-0.012695-0.040039,0.005859-0.082031,0.041992-0.101563l0.069336-0.03418l0.074219-0.003906l0.048828,0.058594
			l0.205078,0.664063l-0.009766,0.068359l-0.052734,0.037109C29.050781,46.991211,29.029297,46.99707,29.013672,47
			L28.983398,47.004883z"/>
		<path style="fill:#A9CDA6;" d="M29.774414,45.897461l0.103516,0.913086l-0.021484,0.068359l-0.060547,0.035156
			c-0.043945,0.003906-0.083008,0.003906-0.094727,0.003906c-0.052734,0.003906-0.095703-0.03418-0.099609-0.085938
			l-0.085938-0.926758l0.025391-0.072266l0.078125-0.030273l0.072266,0.008789
			C29.735352,45.820313,29.770508,45.849609,29.774414,45.897461z"/>
		<path style="fill:#A9CDA6;" d="M30.414063,47.003906l-0.064453-0.017578l-0.056641-0.044922l-0.005859-0.067383l0.207031-0.664063
			l0.025391-0.027344c0.007813-0.012695,0.015625-0.018555,0.024414-0.022461l0.041016-0.004883l0.033203,0.005859
			l0.064453,0.033203c0.036133,0.019531,0.054688,0.061523,0.041992,0.101563l-0.205078,0.649414
			c-0.013672,0.038086-0.043945,0.061523-0.081055,0.061523L30.414063,47.003906z"/>
		<path style="fill:#A9CDA6;" d="M31.173828,47.148438c-0.011719,0-0.023438-0.00293-0.033203-0.009766l-0.057617-0.030273
			l-0.041992-0.051758l0.017578-0.057617L31.25,46.665039l0.050781-0.038086l0.060547,0.012695l0.047852,0.032227
			c0.036133,0.020508,0.047852,0.064453,0.02832,0.098633l-0.198242,0.34082
			C31.225586,47.133789,31.201172,47.148438,31.173828,47.148438z"/>
	</g>
</g>
<g id="roughgrass_x5F_bd_10_" style="enable-background:new    ;">
	<g id="RoughGrass_x5F_FC_12_">
		<path style="fill:#A9CDA6;" d="M30.948242,44.698242l0.010742,0.056641l-0.041016,0.042969L30.875,44.819336
			c-0.030273,0.012695-0.063477,0.00293-0.083008-0.023438l-0.15625-0.222656l-0.009766-0.057617l0.035156-0.042969
			l0.043945-0.022461c0.029297-0.013672,0.06543-0.00293,0.086914,0.022461L30.948242,44.698242z"/>
		<path style="fill:#A9CDA6;" d="M32.091797,44.425781c0,0.003906,0,0.007813-0.003906,0.011719
			c-0.011719-0.015625-0.022461-0.025391-0.037109-0.040039c-0.047852-0.056641-0.133789-0.132813-0.133789-0.132813
			c-0.037109-0.123047,0.052734-0.328125,0.052734-0.328125c-0.014648-0.140625,0.009766-0.350586,0.009766-0.350586
			C32.324219,44.041016,32.091797,44.425781,32.091797,44.425781z"/>
		<path style="fill:#A9CDA6;" d="M32.087891,44.436523c0.03418,0.041016,0.09375,0.05957,0.116211,0.173828l-0.054688,0.022461
			l-0.119141-0.010742C32.027344,44.554688,32.054688,44.503906,32.087891,44.436523z"/>
		<path style="fill:#A9CDA6;" d="M33.143555,43.998047l-0.224609,0.224609c0,0-0.061523,0.052734-0.163086,0.290039
			l-0.010742,0.116211c0,0-0.087891,0.045898-0.201172-0.021484c0,0,0.051758-0.145508,0.063477-0.292969
			c0,0,0.009766-0.522461,0.253906-0.609375c0,0,0.180664-0.091797,0.067383,0.046875c0,0-0.148438,0.199219-0.152344,0.438477
			C32.777344,44.189453,32.929688,43.986328,33.143555,43.998047z"/>
		<path style="fill:#A9CDA6;" d="M34.131836,44.515625l-0.009766,0.057617l-0.15625,0.22168
			c-0.019531,0.026367-0.052734,0.036133-0.083008,0.023438l-0.042969-0.020508l-0.039063-0.042969l0.010742-0.056641
			l0.154297-0.226563c0.020508-0.025391,0.057617-0.036133,0.085938-0.022461l0.042969,0.022461L34.131836,44.515625z"/>
		<path style="fill:#A9CDA6;" d="M31.445313,44.256836l0.105469,0.348633l-0.00293,0.06543l-0.042969,0.039063
			c-0.029297,0.012695-0.049805,0.017578-0.05957,0.017578c-0.033203,0.006836-0.06543-0.012695-0.076172-0.048828
			l-0.106445-0.342773v-0.06543l0.042969-0.040039l0.053711-0.020508C31.396484,44.194336,31.431641,44.217773,31.445313,44.256836z
			"/>
		<path style="fill:#A9CDA6;" d="M33.418945,44.209961l0.052734,0.020508l0.042969,0.040039v0.06543l-0.106445,0.342773
			c-0.009766,0.036133-0.042969,0.055664-0.075195,0.047852c-0.010742,0-0.030273-0.004883-0.060547-0.017578l-0.042969-0.038086
			l-0.00293-0.066406l0.106445-0.348633C33.345703,44.217773,33.382813,44.194336,33.418945,44.209961z"/>
	</g>
</g>
<g id="boulder_x5F_bd_1_" style="enable-background:new    ;">
	<path style="fill:#BEBEB4;" d="M26.637695,44.025391c-0.008789,0.000977-0.040039,0.038086-0.037109,0.076172
		s0.032227,0.088867,0.079102,0.085938c0.045898-0.00293,0.209961,0.006836,0.362305,0.019531
		c0.151367,0.012695,0.506836-0.004883,0.662109-0.012695c0.154297-0.007813,0.365234-0.030273,0.492188-0.041016
		C28.322266,44.142578,28.5,44.142578,28.625,44.142578s0.321289,0.023438,0.447266,0.035156
		c0.125977,0.010742,0.214844-0.027344,0.217773-0.06543s-0.044922-0.089844-0.109375-0.095703
		c-0.063477-0.005859-0.101563-0.02832-0.082031-0.049805c0.018555-0.021484,0.057617-0.081055,0.084961-0.131836
		c0.02832-0.051758,0.066406-0.144531,0.083984-0.208984c0.018555-0.063477,0.036133-0.166992,0.040039-0.227539
		s0.000977-0.164063-0.008789-0.229492c-0.007813-0.063477-0.038086-0.148438-0.064453-0.19043
		c-0.025391-0.041992-0.077148-0.103516-0.113281-0.135742c-0.037109-0.032227-0.101563-0.078125-0.145508-0.100586
		c-0.042969-0.021484-0.119141-0.048828-0.166992-0.058594s-0.12793-0.016602-0.176758-0.014648
		c-0.049805,0.003906-0.12793,0.018555-0.173828,0.033203c-0.045898,0.015625-0.12793,0.047852-0.180664,0.072266
		c-0.051758,0.023438-0.113281,0.061523-0.133789,0.083984s-0.084961,0.060547-0.146484,0.074219
		c-0.459961,0.102539-0.612305,0.333008-0.701172,0.40918c-0.087891,0.075195-0.150391,0.171875-0.152344,0.171875
		s-0.007813,0.003906-0.012695,0.009766c-0.004883,0.004883-0.011719,0.009766-0.015625,0.011719
		c-0.003906,0.000977-0.008789,0.004883-0.009766,0.006836s-0.004883,0.006836-0.008789,0.008789
		c-0.00293,0.001953-0.006836,0.007813-0.008789,0.011719s-0.003906,0.007813-0.005859,0.009766
		s-0.004883,0.007813-0.006836,0.012695c-0.001953,0.005859-0.048828,0.032227-0.102539,0.060547
		c-0.054688,0.02832-0.145508,0.091797-0.204102,0.142578c-0.056641,0.050781-0.106445,0.124023-0.109375,0.164063
		C26.655273,43.991211,26.645508,44.024414,26.637695,44.025391z M26.795898,44.013672
		c-0.001953,0-0.00293-0.015625-0.000977-0.033203c0.000977-0.018555,0.037109-0.064453,0.080078-0.101563
		c0.041992-0.037109,0.105469-0.083008,0.142578-0.102539c0.038086-0.018555,0.068359-0.033203,0.069336-0.03125
		s0.004883,0.006836,0.008789,0.011719c0.004883,0.003906,0.039063,0.033203,0.076172,0.064453
		c0.038086,0.030273,0.108398,0.073242,0.157227,0.092773c0.047852,0.021484,0.130859,0.041016,0.183594,0.044922
		c0.050781,0.004883,0.132813,0,0.181641-0.010742c0.050781-0.008789,0.083008-0.048828,0.075195-0.084961
		s-0.049805-0.058594-0.09375-0.048828c-0.042969,0.009766-0.111328,0.014648-0.150391,0.010742
		c-0.040039-0.003906-0.104492-0.019531-0.143555-0.036133c-0.037109-0.014648-0.09668-0.046875-0.125-0.075195
		c-0.087891-0.09375,0.063477-0.229492,0.154297-0.306641c0.09082-0.079102,0.290039-0.311523,0.580078-0.330078
		c0.026367-0.000977,0.043945,0.010742,0.042969,0.038086c-0.000977,0.02832,0.02832,0.120117,0.038086,0.152344
		c0.010742,0.032227,0.167969,0.149414,0.222656,0.0625c0.020508-0.032227-0.09375-0.086914-0.102539-0.111328
		c-0.007813-0.025391-0.021484-0.089844-0.021484-0.113281c0.000977-0.023438,0.008789-0.056641,0.017578-0.075195
		c0.006836-0.019531,0.026367-0.049805,0.042969-0.066406c0.016602-0.018555,0.066406-0.048828,0.112305-0.068359
		c0.043945-0.021484,0.113281-0.046875,0.152344-0.061523c0.039063-0.013672,0.102539-0.024414,0.141602-0.026367
		s0.103516,0.00293,0.140625,0.010742c0.039063,0.007813,0.098633,0.029297,0.132813,0.045898
		c0.035156,0.018555,0.086914,0.052734,0.116211,0.080078c0.030273,0.027344,0.070313,0.073242,0.088867,0.102539
		c0.020508,0.030273,0.041992,0.097656,0.048828,0.148438c0.006836,0.051758,0.010742,0.139648,0.005859,0.196289
		c-0.003906,0.054688-0.019531,0.144531-0.03418,0.199219c-0.016602,0.054688-0.050781,0.135742-0.076172,0.181641
		c-0.026367,0.045898-0.073242,0.112305-0.105469,0.150391c-0.033203,0.038086-0.072266,0.067383-0.09082,0.06543
		c-0.015625-0.000977-0.135742-0.001953-0.264648-0.001953s-0.337891,0.009766-0.463867,0.022461
		c-0.125977,0.011719-0.353516,0.026367-0.505859,0.033203c-0.150391,0.008789-0.399414,0.004883-0.551758-0.007813
		C26.924805,44.023438,26.797852,44.013672,26.795898,44.013672z"/>
</g>
<g id="heath_x5F_bd" style="enable-background:new    ;">
	<g id="Heath_x5F_FC_2_">
		<path style="fill:#A9CDA6;" d="M4.47168,48.563477c-0.025879,0-0.05127-0.013672-0.063965-0.037109l-0.198242-0.34082
			c-0.008789-0.015625-0.011719-0.033203-0.006836-0.050781c0.003906-0.020508,0.018066-0.037109,0.035156-0.047852
			l0.055664-0.035156l0.065918-0.005859l0.041992,0.039063l0.19043,0.334961l0.005859,0.06543l-0.039063,0.041992
			l-0.049805,0.025391C4.495605,48.560547,4.483398,48.563477,4.47168,48.563477z"/>
		<path style="fill:#A9CDA6;" d="M5.208008,48.419922c-0.038086,0-0.069824-0.023438-0.080078-0.060547l-0.207031-0.649414
			c-0.012695-0.040039,0.005371-0.082031,0.041992-0.101563l0.069336-0.03418l0.07373-0.003906l0.049316,0.058594l0.20459,0.664063
			l-0.009766,0.068359l-0.052246,0.037109c-0.022949,0.007813-0.043945,0.013672-0.05957,0.016602L5.208008,48.419922z"/>
		<path style="fill:#A9CDA6;" d="M5.998047,47.3125l0.104004,0.913086l-0.021973,0.068359L6.02002,48.329102
			c-0.043945,0.003906-0.083008,0.003906-0.094727,0.003906c-0.052246,0.003906-0.095215-0.03418-0.099121-0.085938
			l-0.085938-0.926758l0.024902-0.072266l0.078125-0.030273l0.072754,0.008789
			C5.958984,47.235352,5.994141,47.264648,5.998047,47.3125z"/>
		<path style="fill:#A9CDA6;" d="M6.638184,48.418945l-0.064941-0.017578L6.51709,48.356445L6.51123,48.289063L6.718262,47.625
			l0.024902-0.027344c0.007813-0.012695,0.016113-0.018555,0.024902-0.022461l0.041016-0.004883l0.033203,0.005859
			l0.063965,0.033203c0.036621,0.019531,0.054688,0.061523,0.041992,0.101563l-0.205078,0.649414
			c-0.013184,0.038086-0.043945,0.061523-0.081055,0.061523L6.638184,48.418945z"/>
		<path style="fill:#A9CDA6;" d="M7.398438,48.563477c-0.011719,0-0.023926-0.00293-0.033691-0.009766l-0.057129-0.030273
			L7.265625,48.47168l0.01709-0.057617l0.191895-0.333984l0.050781-0.038086l0.060059,0.012695l0.04834,0.032227
			c0.035645,0.020508,0.047852,0.064453,0.027832,0.098633l-0.198242,0.34082
			C7.449707,48.548828,7.425781,48.563477,7.398438,48.563477z"/>
	</g>
</g>
<g id="roughgrass_x5F_bd" style="enable-background:new    ;">
	<g id="RoughGrass_x5F_FC_2_">
		<path style="fill:#A9CDA6;" d="M7.17334,46.112305l0.010254,0.056641l-0.041016,0.042969l-0.042969,0.021484
			c-0.030273,0.012695-0.062988,0.00293-0.083008-0.023438L6.86084,45.987305l-0.009766-0.057617l0.035645-0.042969
			l0.043457-0.022461c0.029785-0.013672,0.06543-0.00293,0.086426,0.022461L7.17334,46.112305z"/>
		<path style="fill:#A9CDA6;" d="M8.316406,45.839844c0,0.003906,0,0.007813-0.003906,0.011719
			c-0.01123-0.015625-0.021973-0.025391-0.037109-0.040039c-0.047363-0.056641-0.133301-0.132813-0.133301-0.132813
			c-0.037109-0.123047,0.052734-0.328125,0.052734-0.328125C8.180176,45.209961,8.205078,45,8.205078,45
			C8.549316,45.455078,8.316406,45.839844,8.316406,45.839844z"/>
		<path style="fill:#A9CDA6;" d="M8.3125,45.850586c0.03418,0.041016,0.09375,0.05957,0.116211,0.173828l-0.054199,0.022461
			l-0.118652-0.010742C8.25293,45.96875,8.279297,45.917969,8.3125,45.850586z"/>
		<path style="fill:#A9CDA6;" d="M9.369141,45.412109l-0.225098,0.224609c0,0-0.062012,0.052734-0.163086,0.290039
			l-0.010742,0.116211c0,0-0.087891,0.045898-0.200684-0.021484c0,0,0.051758-0.145508,0.062988-0.292969
			c0,0,0.009766-0.522461,0.253418-0.609375c0,0,0.181152-0.091797,0.067871,0.046875c0,0-0.148926,0.199219-0.152832,0.438477
			C9.001953,45.603516,9.154785,45.400391,9.369141,45.412109z"/>
		<path style="fill:#A9CDA6;" d="M10.356934,45.929688l-0.009766,0.057617l-0.155762,0.22168
			c-0.02002,0.026367-0.052734,0.036133-0.083008,0.023438l-0.042969-0.020508l-0.039063-0.042969l0.010254-0.056641
			l0.154785-0.226563c0.02002-0.025391,0.056641-0.036133,0.085449-0.022461l0.042969,0.022461L10.356934,45.929688z"/>
		<path style="fill:#A9CDA6;" d="M7.669922,45.670898l0.105957,0.348633l-0.00293,0.06543L7.72998,46.124023
			c-0.029785,0.012695-0.049805,0.017578-0.060059,0.017578c-0.032715,0.006836-0.064453-0.012695-0.075684-0.048828L7.488281,45.75
			v-0.06543l0.042969-0.040039l0.053223-0.020508C7.621094,45.608398,7.656738,45.631836,7.669922,45.670898z"/>
		<path style="fill:#A9CDA6;" d="M9.643555,45.624023l0.052734,0.020508l0.043457,0.040039V45.75l-0.106445,0.342773
			c-0.009766,0.036133-0.042969,0.055664-0.075195,0.047852c-0.010254,0-0.030273-0.004883-0.060059-0.017578l-0.042969-0.038086
			l-0.00293-0.066406l0.105957-0.348633C9.570801,45.631836,9.607422,45.608398,9.643555,45.624023z"/>
	</g>
</g>
<g id="boulder_x5F_bd" style="enable-background:new    ;">
	<path style="fill:#BEBEB4;" d="M2.862305,45.44043c-0.008301,0.000977-0.040039,0.038086-0.037109,0.076172
		s0.032715,0.088867,0.079102,0.085938c0.045898-0.00293,0.210938,0.006836,0.362305,0.019531
		c0.151855,0.012695,0.507324-0.004883,0.662598-0.012695c0.154297-0.007813,0.365234-0.030273,0.492188-0.041016
		c0.125977-0.010742,0.303711-0.010742,0.428223-0.010742c0.125,0,0.322266,0.023438,0.447754,0.035156
		c0.125977,0.010742,0.214844-0.027344,0.217773-0.06543S5.470215,45.4375,5.40625,45.431641s-0.102051-0.02832-0.083008-0.049805
		S5.381348,45.300781,5.40918,45.25c0.027832-0.051758,0.065918-0.144531,0.083984-0.208984
		c0.018066-0.063477,0.036133-0.166992,0.040039-0.227539s0.000977-0.164063-0.008789-0.229492
		c-0.008301-0.063477-0.038086-0.148438-0.064453-0.19043c-0.025879-0.041992-0.077637-0.103516-0.11377-0.135742
		c-0.037109-0.032227-0.102051-0.078125-0.145508-0.100586c-0.042969-0.021484-0.119141-0.048828-0.166992-0.058594
		s-0.12793-0.016602-0.177246-0.014648c-0.049805,0.003906-0.127441,0.018555-0.17334,0.033203
		c-0.045898,0.015625-0.12793,0.047852-0.181152,0.072266c-0.051758,0.023438-0.112793,0.061523-0.133301,0.083984
		c-0.02002,0.022461-0.084961,0.060547-0.145996,0.074219c-0.460449,0.102539-0.613281,0.333008-0.701172,0.40918
		c-0.087891,0.075195-0.150879,0.171875-0.152832,0.171875s-0.007813,0.003906-0.013184,0.009766
		c-0.004883,0.004883-0.011719,0.009766-0.015625,0.011719c-0.003418,0.000977-0.008301,0.004883-0.009277,0.006836
		s-0.004883,0.006836-0.008789,0.008789c-0.00293,0.001953-0.007324,0.007813-0.009277,0.011719
		s-0.003906,0.007813-0.005859,0.009766S3.301758,44.995117,3.299805,45c-0.001953,0.005859-0.04834,0.032227-0.102051,0.060547
		c-0.054688,0.02832-0.145508,0.091797-0.203613,0.142578c-0.057129,0.050781-0.106934,0.124023-0.109863,0.164063
		C2.880371,45.40625,2.870117,45.439453,2.862305,45.44043z M3.020996,45.428711c-0.001953,0-0.00293-0.015625-0.000977-0.033203
		c0.000977-0.018555,0.037109-0.064453,0.080078-0.101563c0.041992-0.037109,0.105469-0.083008,0.142578-0.102539
		c0.038086-0.018555,0.067871-0.033203,0.068848-0.03125s0.004883,0.006836,0.009277,0.011719
		c0.004883,0.003906,0.039063,0.033203,0.07666,0.064453c0.038086,0.030273,0.108398,0.073242,0.157227,0.092773
		c0.047363,0.021484,0.130371,0.041016,0.182617,0.044922c0.051758,0.004883,0.133789,0,0.182617-0.010742
		c0.050293-0.008789,0.08252-0.048828,0.074707-0.084961s-0.049316-0.058594-0.093262-0.048828
		C3.85791,45.239258,3.790039,45.244141,3.75,45.240234s-0.104004-0.019531-0.143066-0.036133
		c-0.037598-0.014648-0.096191-0.046875-0.124512-0.075195c-0.087891-0.09375,0.062988-0.229492,0.153809-0.306641
		c0.09082-0.079102,0.290039-0.311523,0.580566-0.330078c0.025879-0.000977,0.043945,0.010742,0.042969,0.038086
		c-0.000977,0.02832,0.027832,0.120117,0.038086,0.152344c0.010742,0.032227,0.16748,0.149414,0.222168,0.0625
		c0.02002-0.032227-0.09375-0.086914-0.103027-0.111328c-0.007813-0.025391-0.020996-0.089844-0.020996-0.113281
		c0.000977-0.023438,0.008301-0.056641,0.01709-0.075195c0.007324-0.019531,0.026855-0.049805,0.042969-0.066406
		c0.01709-0.018555,0.066895-0.048828,0.112305-0.068359c0.044922-0.021484,0.11377-0.046875,0.152832-0.061523
		c0.039063-0.013672,0.102539-0.024414,0.141602-0.026367s0.103027,0.00293,0.141113,0.010742
		c0.038574,0.007813,0.098633,0.029297,0.132813,0.045898c0.035156,0.018555,0.086426,0.052734,0.115723,0.080078
		c0.029785,0.027344,0.069824,0.073242,0.088867,0.102539c0.02002,0.030273,0.041992,0.097656,0.048828,0.148438
		C5.396973,44.662109,5.400391,44.75,5.395996,44.806641c-0.003906,0.054688-0.02002,0.144531-0.034668,0.199219
		c-0.016113,0.054688-0.050293,0.135742-0.076172,0.181641s-0.072754,0.112305-0.104492,0.150391
		c-0.033203,0.038086-0.072754,0.067383-0.09082,0.06543c-0.016113-0.000977-0.13623-0.001953-0.265137-0.001953
		c-0.128418,0-0.338379,0.009766-0.463867,0.022461c-0.125977,0.011719-0.354004,0.026367-0.505859,0.033203
		c-0.150879,0.008789-0.399414,0.004883-0.552246-0.007813C3.149902,45.438477,3.022949,45.428711,3.020996,45.428711z"/>
</g>
</svg>
