<?xml version="1.0" encoding="utf-8"?>
<!-- Generator: Adobe Illustrator 16.0.3, SVG Export Plug-In . SVG Version: 6.00 Build 0)  -->
<!DOCTYPE svg PUBLIC "-//W3C//DTD SVG 1.1//EN" "http://www.w3.org/Graphics/SVG/1.1/DTD/svg11.dtd">
<svg version="1.1" id="Layer_1" xmlns="http://www.w3.org/2000/svg" xmlns:xlink="http://www.w3.org/1999/xlink" x="0px" y="0px"
	 width="12.0039px" height="12.0078px" viewBox="0 0 12.0039 12.0078" style="enable-background:new 0 0 12.0039 12.0078;"
	 xml:space="preserve">
<circle style="fill:#FFFFFF;" cx="6.002" cy="5.8987" r="4.6228"/>
<g style="enable-background:new    ;">
	<path style="fill:#2837C6;" d="M6,10.542c-2.5522,0-4.6221-2.0693-4.6221-4.6338C1.3779,3.355,3.4468,1.2861,6,1.2861
		c2.5527,0,4.6221,2.0688,4.6221,4.6221C10.6211,8.4727,8.5527,10.542,6,10.542z M6,10.1465c2.3418,0,4.2363-1.8965,4.2363-4.2373
		c0-2.3291-1.8955-4.2261-4.2363-4.2261s-4.2368,1.896-4.2368,4.2261C1.7622,8.25,3.6582,10.1465,6,10.1465z M8.4648,3.3311
		L6.5566,4.917L6.272,5.103c-0.0371,0.272-0.0371,0.5581,0,0.855c0,0,0.062,0.2969,0.186,0.4712
		c0.1865,0.2603,0.9541,0.854,0.9541,0.854L8.75,8.1387L8.3906,8.6592L6.3711,7.4707L5.9868,7.1855c0,0-0.124-0.0244-0.186,0
		c-0.1235,0.0469-0.186,0.2852-0.186,0.2852l-0.1479,2.168L4.7109,9.4639l0.2349-3.4067C4.896,5.6968,4.835,5.4487,4.7603,5.3013
		L4.562,4.917L3.4102,3.355l0.4946-0.396l0.8555,1.103c0,0,0.1606,0.1367,0.2847,0.187c0.1611,0.0869,0.2852,0.0869,0.4712,0.0991
		C5.8882,4.373,6.458,4.1621,6.458,4.1621l1.5615-1.2769L8.4648,3.3311z M4.958,3.1201c0-0.3843,0.2969-0.6821,0.6821-0.6821
		c0.3848,0,0.6816,0.2979,0.6816,0.6821c0,0.3848-0.2969,0.6821-0.6816,0.6821C5.2549,3.8022,4.958,3.5049,4.958,3.1201z"/>
</g>
</svg>
